<svg xmlns="http://www.w3.org/2000/svg" viewBox="0 0 92.4 79.27"><title>rec-check</title><g id="Layer_2" data-name="Layer 2"><g id="ICONS"><path style="fill:#14b2e1;" d="M82.4,3a7,7,0,0,1,7,7V69.27a7,7,0,0,1-7,7H10a7,7,0,0,1-7-7V10a7,7,0,0,1,7-7H82.4m0-3H10A10,10,0,0,0,0,10V69.27a10,10,0,0,0,10,10H82.4a10,10,0,0,0,10-10V10a10,10,0,0,0-10-10Z"/><path style="fill:#14b2e1;" d="M41.32,50.91,34,43.59a1.49,1.49,0,0,1,0-2.12h0a1.49,1.49,0,0,1,2.12,0l5.9,5.9a.5.5,0,0,0,.71,0L56.29,33.82a1.49,1.49,0,0,1,2.12,0h0a1.51,1.51,0,0,1,0,2.12l-15,15A1.51,1.51,0,0,1,41.32,50.91Z"/></g></g></svg>