<svg xmlns="http://www.w3.org/2000/svg" viewBox="0 0 190.41 190.41"><title>actions-btn</title><g id="Layer_2" data-name="Layer 2"><g id="icons"><circle style="fill:#e2eaf2;" cx="95.2" cy="95.2" r="95.2"/><path style="fill:#5280df;" d="M113.07,116.78H59.29a3.59,3.59,0,0,1-3.59-3.59V59.41a3.59,3.59,0,0,1,3.59-3.59h53.78a3.59,3.59,0,0,1,3.59,3.59v53.78A3.59,3.59,0,0,1,113.07,116.78ZM62.88,109.6h46.61V63H62.88Z"/><path style="fill:#5280df;" d="M131.12,134.59H77.34A3.59,3.59,0,0,1,73.75,131V113.19a3.59,3.59,0,1,1,7.17,0v14.22h46.61V80.8H113.07a3.59,3.59,0,0,1,0-7.18h18a3.59,3.59,0,0,1,3.59,3.59V131A3.59,3.59,0,0,1,131.12,134.59Z"/><path style="fill:#5280df;" d="M113.07,134.59a3.59,3.59,0,0,1-2.54-6.12l17.93-17.93a3.59,3.59,0,0,1,5.07,5.07l-17.93,17.93A3.58,3.58,0,0,1,113.07,134.59Z"/><path style="fill:#5280df;" d="M113.07,112.49a3.59,3.59,0,0,1-2.54-6.12l16.75-16.75a3.59,3.59,0,0,1,5.07,5.07l-16.75,16.75A3.58,3.58,0,0,1,113.07,112.49Z"/><path style="fill:#5280df;" d="M91.33,134.23a3.59,3.59,0,0,1-2.54-6.12l17.45-17.45a3.59,3.59,0,1,1,5.07,5.07L93.87,133.18A3.58,3.58,0,0,1,91.33,134.23Z"/><path style="fill:#5280df;" d="M113.07,90.37a3.59,3.59,0,0,1-2.54-6.12L119.79,75a3.59,3.59,0,1,1,5.07,5.07l-9.26,9.26A3.58,3.58,0,0,1,113.07,90.37Z"/><path style="fill:#5280df;" d="M77.34,126.1A3.59,3.59,0,0,1,74.8,120l9.32-9.32a3.59,3.59,0,0,1,5.07,5.07L79.87,125A3.58,3.58,0,0,1,77.34,126.1Z"/></g></g></svg>