<svg xmlns="http://www.w3.org/2000/svg" viewBox="0 0 87.66 87.66"><title>add-ico</title><g id="Layer_2" data-name="Layer 2"><g id="ICONS"><circle style="fill:#69a2fd;" cx="43.83" cy="43.83" r="43.83"/><path style="fill:#fff;" d="M36.7,52.24H28.41a4.62,4.62,0,0,1-4.61-4.62V28.41a4.62,4.62,0,0,1,4.61-4.61H47.62a4.62,4.62,0,0,1,4.62,4.61V36.7a1.29,1.29,0,1,1-2.57,0V28.41a2.05,2.05,0,0,0-2.05-2.05H28.41a2.05,2.05,0,0,0-2.05,2.05V47.62a2.05,2.05,0,0,0,2.05,2.05H36.7a1.29,1.29,0,1,1,0,2.57Z"/><path style="fill:#fff;" d="M59.16,63.86h-19a4.71,4.71,0,0,1-4.7-4.7v-19a4.71,4.71,0,0,1,4.7-4.7h19a4.71,4.71,0,0,1,4.7,4.7v19A4.71,4.71,0,0,1,59.16,63.86ZM40.12,38A2.14,2.14,0,0,0,38,40.12v19a2.14,2.14,0,0,0,2.13,2.14h19a2.14,2.14,0,0,0,2.14-2.14v-19A2.14,2.14,0,0,0,59.16,38Z"/><path style="fill:#fff;" d="M49.64,56.74a1.28,1.28,0,0,1-1.28-1.29V43.83a1.28,1.28,0,0,1,2.56,0V55.45A1.28,1.28,0,0,1,49.64,56.74Z"/><path style="fill:#fff;" d="M55.45,50.92H43.83a1.28,1.28,0,0,1,0-2.56H55.45a1.28,1.28,0,1,1,0,2.56Z"/></g></g></svg>