<svg xmlns="http://www.w3.org/2000/svg" viewBox="0 0 81.5 81.5">
   <title>plus</title>
   <g id="Layer_2" data-name="Layer 2">
      <g id="ICONS">
         <path style="fill:#ffffff;" d="M56.25,43.25h-31a2.5,2.5,0,0,1,0-5h31a2.5,2.5,0,0,1,0,5Z"/>
         <path style="fill:#ffffff;" d="M40.75,58.75a2.5,2.5,0,0,1-2.5-2.5v-31a2.5,2.5,0,0,1,5,0v31A2.5,2.5,0,0,1,40.75,58.75Z"/>
         <path style="fill:#ffffff;" d="M40.75,81.5A40.75,40.75,0,1,1,81.5,40.75,40.8,40.8,0,0,1,40.75,81.5Zm0-76.5A35.75,35.75,0,1,0,76.5,40.75,35.79,35.79,0,0,0,40.75,5Z"/>
      </g>
   </g>
</svg>