<?xml version="1.0" encoding="utf-8"?>
<svg xmlns="http://www.w3.org/2000/svg" viewBox="0 0 159.14 159.14">
  <title>add-btn</title>
  <g id="Layer_2" data-name="Layer 2">
    <g id="icons">
      <circle style="fill:#5280df;" cx="79.57" cy="79.57" r="34.61" />
      <path style="fill:#5280df;" d="M79.57,117.65a38.08,38.08,0,1,1,38.08-38.08A38.12,38.12,0,0,1,79.57,117.65Zm0-69.22a31.14,31.14,0,1,0,31.14,31.14A31.18,31.18,0,0,0,79.57,48.43Z" />
      <path style="fill:#fff;" d="M79.57,100.58a3.47,3.47,0,0,1-3.47-3.47V62A3.47,3.47,0,0,1,83,62V97.11A3.47,3.47,0,0,1,79.57,100.58Z" />
      <path style="fill:#fff;" d="M97.11,83H62a3.47,3.47,0,0,1,0-6.94H97.11a3.47,3.47,0,0,1,0,6.94Z" />
      <path style="fill:#7689a5;" d="M106.09,159.14h-53A53.12,53.12,0,0,1,0,106.09v-53A53.12,53.12,0,0,1,53.06,0h53a53.12,53.12,0,0,1,53.06,53.06v53A53.12,53.12,0,0,1,106.09,159.14ZM53.06,7A46.11,46.11,0,0,0,7,53.06v53a46.11,46.11,0,0,0,46.06,46.06h53a46.11,46.11,0,0,0,46.06-46.06v-53A46.11,46.11,0,0,0,106.09,7Z" />
    </g>
  </g>
</svg>