<?xml version="1.0" encoding="utf-8"?>
<svg xmlns="http://www.w3.org/2000/svg" viewBox="0 0 76.16 76.16">
  <title>thumbnail-add</title>
  <g id="Layer_2" data-name="Layer 2">
    <g id="icons">
      <circle style="fill:#5280df;" cx="38.08" cy="38.08" r="34.61" />
      <path style="fill:#5280df;" d="M38.08,76.16A38.08,38.08,0,1,1,76.16,38.08,38.12,38.12,0,0,1,38.08,76.16Zm0-69.22A31.14,31.14,0,1,0,69.22,38.08,31.18,31.18,0,0,0,38.08,6.94Z" />
      <path style="fill:#fff;" d="M38.08,59.09a3.47,3.47,0,0,1-3.47-3.47V20.54a3.47,3.47,0,0,1,6.94,0V55.62A3.47,3.47,0,0,1,38.08,59.09Z" />
      <path style="fill:#fff;" d="M55.62,41.55H20.54a3.47,3.47,0,1,1,0-6.94H55.62a3.47,3.47,0,0,1,0,6.94Z" />
    </g>
  </g>
</svg>