<svg xmlns="http://www.w3.org/2000/svg" viewBox="0 0 102.48 102.58">
   <title>freehand-ann</title>
   <g id="Layer_2" data-name="Layer 2">
      <g id="icons">
         <polygon style="fill:none;stroke:#57687f;stroke-linecap:round;stroke-linejoin:round;stroke-width:7.59px;" points="30.8 60.04 25.95 76.53 42.45 71.68 85.77 28.37 74.12 16.73 30.8 60.04"/>
         <path style="fill:none;stroke:#57687f;stroke-linecap:round;stroke-linejoin:round;stroke-width:7.59px;" d="M93.32,20.82l3.76-3.76a5.47,5.47,0,0,0,1.61-3.88,5.41,5.41,0,0,0-1.61-3.89L93.19,5.41a5.48,5.48,0,0,0-7.76,0L81.67,9.17"/>
         <path style="fill:#57687f;" d="M26,76.53l15.21-5.68s2.5-3.71-1.66-7.87-7.87-1.67-7.87-1.67L26,76.53h0Z"/>
         <path style="fill:none;stroke:#57687f;stroke-linecap:round;stroke-linejoin:round;stroke-width:7.59px;" d="M88.29,51.28V91.19a7.59,7.59,0,0,1-7.59,7.59H11.39A7.59,7.59,0,0,1,3.8,91.19V21.79a7.59,7.59,0,0,1,7.59-7.59H51.2"/>
      </g>
   </g>
</svg>