<?xml version="1.0" encoding="utf-8"?>
<svg xmlns="http://www.w3.org/2000/svg" viewBox="0 0 59.36 59.36">
  <title>arrow-ico</title>
  <g id="Layer_2" data-name="Layer 2">
    <g id="icons">
      <path style="fill:#fff;" d="M38.44,30.25a2.27,2.27,0,0,1-1.61-.67l-7.14-7.14-7.14,7.14a2.28,2.28,0,0,1-3.23-3.23l8.75-8.75a2.35,2.35,0,0,1,3.23,0l8.75,8.75a2.28,2.28,0,0,1-1.61,3.9Z" />
      <path style="fill:#fff;" d="M29.68,42.43a2.28,2.28,0,0,1-2.28-2.28V19.22a2.28,2.28,0,0,1,4.57,0V40.15A2.28,2.28,0,0,1,29.68,42.43Z" />
      <path style="fill:#fff;" d="M29.68,59.36A29.68,29.68,0,1,1,59.36,29.68,29.71,29.71,0,0,1,29.68,59.36Zm0-54.8A25.12,25.12,0,1,0,54.79,29.68,25.14,25.14,0,0,0,29.68,4.57Z" />
    </g>
  </g>
</svg>