<svg xmlns="http://www.w3.org/2000/svg" viewBox="0 0 157.51 157.51"><title>avatar</title><g id="Layer_2" data-name="Layer 2"><g id="ICONS"><rect style="fill:#fff;" width="157.51" height="157.51" rx="78.67"/><path style="fill:#57687f;" d="M78.76,90.82c-10,0-16.92-15.79-16.92-24.35,0-9.72,7.9-18.25,16.92-18.25s16.91,8.53,16.91,18.25C95.67,75,88.7,90.82,78.76,90.82Zm0-37.6c-6.24,0-11.92,6.31-11.92,13.25,0,7.11,5.89,19.35,11.92,19.35S90.67,73.58,90.67,66.47C90.67,59.53,85,53.22,78.76,53.22Z"/><path style="fill:#57687f;" d="M78.76,109.7c-12.82,0-29.86-1.18-29.86-11.41,0-7.09,9.15-15.27,20.39-18.22l1.27,4.83C60.24,87.62,53.9,94.53,53.9,98.29c0,1.93,2.42,6.41,24.86,6.41s24.85-4.48,24.85-6.41c0-3.78-6.36-10.71-16.73-13.4l1.26-4.84C99.43,83,108.61,91.17,108.61,98.29,108.61,108.52,91.57,109.7,78.76,109.7Z"/></g></g></svg>