<svg xmlns="http://www.w3.org/2000/svg" viewBox="0 0 196.68 196.68"><title>backside</title><g id="Layer_2" data-name="Layer 2"><g id="ICONS"><rect style="fill:#f2f6ff;" x="1.5" y="1.5" width="193.68" height="193.68" rx="20"/><path style="fill:#57687f;" d="M175.26,196.68H162.1a1.5,1.5,0,1,1,0-3h13.08a1.53,1.53,0,0,1,1.54,1.5A1.46,1.46,0,0,1,175.26,196.68Zm-23.22,0H139a1.5,1.5,0,1,1,0-3H152a1.5,1.5,0,1,1,0,3Zm-23.13,0H115.83a1.5,1.5,0,1,1,0-3h13.08a1.5,1.5,0,1,1,0,3Zm-23.14,0H92.69a1.5,1.5,0,0,1,0-3h13.08a1.5,1.5,0,0,1,0,3Zm-23.14,0H69.56a1.5,1.5,0,0,1,0-3H82.63a1.5,1.5,0,0,1,0,3Zm-23.13,0H46.42a1.5,1.5,0,0,1,0-3H59.5a1.5,1.5,0,0,1,0,3Zm-23.14,0H23.29a1.5,1.5,0,1,1,0-3H36.36a1.5,1.5,0,1,1,0,3ZM13.46,195a1.44,1.44,0,0,1-.6-.13,21.62,21.62,0,0,1-10.19-9.31,1.5,1.5,0,1,1,2.62-1.45,18.66,18.66,0,0,0,8.78,8,1.5,1.5,0,0,1-.61,2.88Zm171.43-.83a1.5,1.5,0,0,1-.73-2.81,18.71,18.71,0,0,0,8-8.8,1.5,1.5,0,1,1,2.75,1.2A21.72,21.72,0,0,1,185.62,194,1.47,1.47,0,0,1,184.89,194.17ZM1.5,176.7A1.5,1.5,0,0,1,0,175.26V162.12a1.5,1.5,0,0,1,3,0V175.2A1.5,1.5,0,0,1,1.5,176.7Zm193.68-1.87a1.5,1.5,0,0,1-1.5-1.5V160.25a1.5,1.5,0,0,1,3,0v13.08A1.5,1.5,0,0,1,195.18,174.83ZM1.5,153.56a1.5,1.5,0,0,1-1.5-1.5V139a1.5,1.5,0,0,1,3,0v13.07A1.5,1.5,0,0,1,1.5,153.56Zm193.68-1.87a1.5,1.5,0,0,1-1.5-1.5V137.11a1.5,1.5,0,0,1,3,0v13.08A1.5,1.5,0,0,1,195.18,151.69ZM1.5,130.43a1.5,1.5,0,0,1-1.5-1.5V115.85a1.5,1.5,0,0,1,3,0v13.08A1.5,1.5,0,0,1,1.5,130.43Zm193.68-1.87a1.5,1.5,0,0,1-1.5-1.5V114a1.5,1.5,0,0,1,3,0v13.08A1.5,1.5,0,0,1,195.18,128.56ZM1.5,107.29a1.5,1.5,0,0,1-1.5-1.5V92.71a1.5,1.5,0,0,1,3,0v13.08A1.5,1.5,0,0,1,1.5,107.29Zm193.68-1.87a1.5,1.5,0,0,1-1.5-1.5V90.84a1.5,1.5,0,1,1,3,0v13.08A1.5,1.5,0,0,1,195.18,105.42ZM1.5,84.16A1.5,1.5,0,0,1,0,82.66V69.58a1.5,1.5,0,0,1,3,0V82.66A1.5,1.5,0,0,1,1.5,84.16Zm193.68-1.88a1.5,1.5,0,0,1-1.5-1.5V67.71a1.5,1.5,0,1,1,3,0V80.78A1.5,1.5,0,0,1,195.18,82.28ZM1.5,61A1.5,1.5,0,0,1,0,59.52V46.44a1.5,1.5,0,0,1,3,0V59.52A1.5,1.5,0,0,1,1.5,61Zm193.68-1.87a1.5,1.5,0,0,1-1.5-1.5V44.57a1.5,1.5,0,1,1,3,0V57.65A1.5,1.5,0,0,1,195.18,59.15ZM1.5,37.88A1.5,1.5,0,0,1,0,36.38V23.31a1.5,1.5,0,0,1,3,0V36.38A1.5,1.5,0,0,1,1.5,37.88ZM195.18,36a1.5,1.5,0,0,1-1.5-1.5v-13a1.52,1.52,0,0,1,1.5-1.53,1.47,1.47,0,0,1,1.5,1.47V34.51A1.5,1.5,0,0,1,195.18,36ZM3.17,15a1.61,1.61,0,0,1-.6-.12,1.51,1.51,0,0,1-.77-2,21.67,21.67,0,0,1,9.3-10.2A1.5,1.5,0,1,1,12.55,5.3a18.64,18.64,0,0,0-8,8.78A1.5,1.5,0,0,1,3.17,15Zm189.51-1.67a1.52,1.52,0,0,1-1.32-.77,18.59,18.59,0,0,0-8.78-8,1.5,1.5,0,1,1,1.2-2.75A21.72,21.72,0,0,1,194,11.08a1.5,1.5,0,0,1-.59,2A1.46,1.46,0,0,1,192.68,13.31ZM173.35,3H160.27a1.5,1.5,0,0,1,0-3h13.08a1.5,1.5,0,0,1,0,3ZM150.21,3H137.14a1.5,1.5,0,0,1,0-3h13.07a1.5,1.5,0,0,1,0,3ZM127.08,3H114a1.5,1.5,0,0,1,0-3h13.08a1.5,1.5,0,0,1,0,3ZM103.94,3H90.87a1.5,1.5,0,0,1,0-3h13.07a1.5,1.5,0,0,1,0,3ZM80.81,3H67.73a1.5,1.5,0,0,1,0-3H80.81a1.5,1.5,0,0,1,0,3ZM57.67,3H44.59a1.5,1.5,0,0,1,0-3H57.67a1.5,1.5,0,0,1,0,3ZM34.54,3h-13A1.52,1.52,0,0,1,20,1.5,1.48,1.48,0,0,1,21.46,0H34.54a1.5,1.5,0,0,1,0,3Z"/><path style="fill:#57687f;" d="M129,132.31H67.7a8.55,8.55,0,0,1-8.55-8.55V84.18a8.56,8.56,0,0,1,8.55-8.55H77a3.12,3.12,0,0,0,2.25-1l4.78-5a17.42,17.42,0,0,1,12.53-5.35h3.64a17.42,17.42,0,0,1,12.53,5.35l4.77,5a3.16,3.16,0,0,0,2.26,1H129a8.57,8.57,0,0,1,8.55,8.55v39.58A8.56,8.56,0,0,1,129,132.31ZM67.7,79.63a4.55,4.55,0,0,0-4.55,4.55v39.58a4.55,4.55,0,0,0,4.55,4.55H129a4.55,4.55,0,0,0,4.55-4.55V84.18A4.55,4.55,0,0,0,129,79.63h-9.26a7.16,7.16,0,0,1-5.14-2.19l-4.77-5a13.43,13.43,0,0,0-9.65-4.12H96.52a13.44,13.44,0,0,0-9.65,4.11l-4.77,5A7.17,7.17,0,0,1,77,79.63Z"/><path style="fill:#57687f;" d="M98.34,116.83a14.18,14.18,0,1,1,14.18-14.18A14.19,14.19,0,0,1,98.34,116.83Zm0-24.35a10.18,10.18,0,1,0,10.18,10.17A10.19,10.19,0,0,0,98.34,92.48Z"/><path style="fill:#57687f;" d="M70.34,79.16a2,2,0,0,1-2-2V73a2,2,0,1,1,4,0v4.12A2,2,0,0,1,70.34,79.16Z"/><rect style="fill:#57687f;" x="119.96" y="85.62" width="7.75" height="7.67" rx="2"/></g></g></svg>