<?xml version="1.0" encoding="utf-8"?>
<svg xmlns="http://www.w3.org/2000/svg" viewBox="0 0 135.16 135.31">
  <title>barcode-1d</title>
  <g id="Layer_2" data-name="Layer 2">
    <g id="icons">
      <path style="fill:#57687f;" d="M5.09,0h7.34a5.1,5.1,0,0,1,5.1,5.1V96.43a5.09,5.09,0,0,1-5.09,5.09H5.1A5.1,5.1,0,0,1,0,96.43V5.09A5.09,5.09,0,0,1,5.09,0Z" />
      <path style="fill:#57687f;" d="M5.09,108.73h7.34a5.1,5.1,0,0,1,5.1,5.1v16.4a5.09,5.09,0,0,1-5.09,5.09H5.1a5.1,5.1,0,0,1-5.1-5.1v-16.4A5.09,5.09,0,0,1,5.09,108.73Z" />
      <path style="fill:#57687f;" d="M65.4,0h8.3a5.1,5.1,0,0,1,5.1,5.1V96.43a5.09,5.09,0,0,1-5.09,5.09H65.4a5.09,5.09,0,0,1-5.09-5.09V5.09A5.09,5.09,0,0,1,65.4,0Z" />
      <path style="fill:#57687f;" d="M65.4,108.73h8.3a5.1,5.1,0,0,1,5.1,5.1v16.4a5.09,5.09,0,0,1-5.09,5.09H65.4a5.1,5.1,0,0,1-5.1-5.1v-16.4A5.09,5.09,0,0,1,65.4,108.73Z" />
      <path style="fill:#57687f;" d="M48.4,101.52H28.92a5.09,5.09,0,0,1-5.1-5.09V5.09A5.09,5.09,0,0,1,28.92,0H48.4a5.09,5.09,0,0,1,5.1,5.09V96.43A5.09,5.09,0,0,1,48.4,101.52ZM34,91.33H43.3V10.19H34Z" />
      <path style="fill:#57687f;" d="M48.4,135.31H28.92a5.09,5.09,0,0,1-5.1-5.09v-16.4a5.09,5.09,0,0,1,5.1-5.09H48.4a5.09,5.09,0,0,1,5.1,5.09v16.4A5.09,5.09,0,0,1,48.4,135.31ZM34,125.12H43.3v-6.21H34Z" />
      <path style="fill:#57687f;" d="M91.71,0h1.47a5.1,5.1,0,0,1,5.1,5.1V96.43a5.09,5.09,0,0,1-5.09,5.09H91.71a5.1,5.1,0,0,1-5.1-5.1V5.09A5.09,5.09,0,0,1,91.71,0Z" />
      <path style="fill:#57687f;" d="M91.71,108.73h1.47a5.1,5.1,0,0,1,5.1,5.1v16.4a5.09,5.09,0,0,1-5.09,5.09H91.71a5.1,5.1,0,0,1-5.1-5.1v-16.4A5.09,5.09,0,0,1,91.71,108.73Z" />
      <path style="fill:#57687f;" d="M130.07,101.52H110.6a5.09,5.09,0,0,1-5.1-5.09V5.09A5.09,5.09,0,0,1,110.6,0h19.47a5.09,5.09,0,0,1,5.1,5.09V96.43A5.09,5.09,0,0,1,130.07,101.52ZM115.69,91.33H125V10.19h-9.28Z" />
      <path style="fill:#57687f;" d="M130.07,135.31H110.6a5.09,5.09,0,0,1-5.1-5.09v-16.4a5.09,5.09,0,0,1,5.1-5.09h19.47a5.09,5.09,0,0,1,5.1,5.09v16.4A5.09,5.09,0,0,1,130.07,135.31Zm-14.38-10.19H125v-6.21h-9.28Z" />
    </g>
  </g>
</svg>