<?xml version="1.0" encoding="utf-8"?>
<svg xmlns="http://www.w3.org/2000/svg" viewBox="0 0 135.31 135.31">
  <title>barcode-2d</title>
  <g id="Layer_2" data-name="Layer 2">
    <g id="icons">
      <path style="fill:#57687f;" d="M46.49,51.59H5.1A5.09,5.09,0,0,1,0,46.49V5.09A5.09,5.09,0,0,1,5.1,0h41.4a5.09,5.09,0,0,1,5.1,5.09v41.4A5.09,5.09,0,0,1,46.49,51.59ZM10.19,41.4H41.4V10.19H10.19Z" />
      <path style="fill:#57687f;" d="M31.46,30.89H20.12a5.09,5.09,0,1,1,0-10.19H31.46a5.09,5.09,0,1,1,0,10.19Z" />
      <path style="fill:#57687f;" d="M46.49,135.31H5.1A5.09,5.09,0,0,1,0,130.22V88.82a5.09,5.09,0,0,1,5.1-5.09h41.4a5.09,5.09,0,0,1,5.1,5.09v41.4A5.09,5.09,0,0,1,46.49,135.31Zm-36.3-10.19H41.4V93.92H10.19Z" />
      <path style="fill:#57687f;" d="M31.46,114.61H20.12a5.09,5.09,0,1,1,0-10.19H31.46a5.09,5.09,0,1,1,0,10.19Z" />
      <path style="fill:#57687f;" d="M130.22,51.59H88.82a5.09,5.09,0,0,1-5.1-5.09V5.09A5.09,5.09,0,0,1,88.82,0h41.4a5.09,5.09,0,0,1,5.1,5.09v41.4A5.09,5.09,0,0,1,130.22,51.59ZM93.92,41.4h31.21V10.19H93.92Z" />
      <path style="fill:#57687f;" d="M115.19,30.89H103.85a5.09,5.09,0,1,1,0-10.19h11.34a5.09,5.09,0,1,1,0,10.19Z" />
      <path style="fill:#57687f;" d="M130.22,135.31a5.09,5.09,0,0,1-5.1-5.09V88.82a5.1,5.1,0,0,1,10.19,0v41.4A5.09,5.09,0,0,1,130.22,135.31Z" />
      <path style="fill:#57687f;" d="M88.82,135.31a5.09,5.09,0,0,1-5.1-5.09v-20.7a5.1,5.1,0,0,1,10.19,0v20.7A5.09,5.09,0,0,1,88.82,135.31Z" />
      <path style="fill:#57687f;" d="M109.52,135.31a5.09,5.09,0,0,1-5.1-5.09V88.82a5.1,5.1,0,0,1,10.19,0v41.4A5.09,5.09,0,0,1,109.52,135.31Z" />
      <path style="fill:#57687f;" d="M130.22,114.61H88.82a5.09,5.09,0,1,1,0-10.19h41.4a5.09,5.09,0,1,1,0,10.19Z" />
      <path style="fill:#57687f;" d="M109.52,93.92H88.82a5.1,5.1,0,0,1,0-10.19h20.7a5.1,5.1,0,0,1,0,10.19Z" />
      <path style="fill:#57687f;" d="M14.21,72.75H5.1a5.09,5.09,0,1,1,0-10.19h9.12a5.09,5.09,0,1,1,0,10.19Z" />
      <path style="fill:#57687f;" d="M130.22,72.75h-6.4a5.09,5.09,0,1,1,0-10.19h6.4a5.09,5.09,0,1,1,0,10.19Z" />
      <path style="fill:#57687f;" d="M46.49,72.75H31.72a5.09,5.09,0,1,1,0-10.19H46.49a5.09,5.09,0,1,1,0,10.19Z" />
      <path style="fill:#57687f;" d="M107.22,72.75H67.66a5.09,5.09,0,0,1-5.1-5.09V37.11a5.1,5.1,0,0,1,10.19,0V62.56h34.47a5.09,5.09,0,1,1,0,10.19Z" />
      <path style="fill:#57687f;" d="M67.66,25.39a5.09,5.09,0,0,1-5.1-5.09V5.09a5.1,5.1,0,0,1,10.19,0v15.2A5.09,5.09,0,0,1,67.66,25.39Z" />
      <path style="fill:#57687f;" d="M67.66,135.31a5.09,5.09,0,0,1-5.1-5.09V115a5.1,5.1,0,0,1,10.19,0v15.2A5.09,5.09,0,0,1,67.66,135.31Z" />
      <path style="fill:#57687f;" d="M67.66,101.8a5.09,5.09,0,0,1-5.1-5.09V88.82a5.1,5.1,0,0,1,10.19,0V96.7A5.09,5.09,0,0,1,67.66,101.8Z" />
    </g>
  </g>
</svg>