<svg xmlns="http://www.w3.org/2000/svg" xmlns:xlink="http://www.w3.org/1999/xlink" viewBox="0 0 178 178"><defs><linearGradient id="linear-gradient" x1="128.62" y1="188.05" x2="15.62" y2="-94.45" gradientUnits="userSpaceOnUse"><stop offset="0" stop-color="#4f9be3"/><stop offset="0.85" stop-color="#62cad6"/></linearGradient></defs><title>qr-ico</title><g id="Layer_2" data-name="Layer 2"><g id="ICONS"><circle style="fill:url(#linear-gradient);" cx="89" cy="89" r="89"/><path style="fill:#fff;" d="M83.11,85.14H47.46a2,2,0,0,1-2-2V47.49a2,2,0,0,1,2-2H83.11a2,2,0,0,1,2,2V83.14A2,2,0,0,1,83.11,85.14Zm-33.65-4H81.11V49.49H49.46Z"/><path style="fill:#fff;" d="M72.72,74.74H57.86a2,2,0,0,1-2-2V57.88a2,2,0,0,1,2-2H72.72a2,2,0,0,1,2,2V72.74A2,2,0,0,1,72.72,74.74Zm-12.86-4H70.72V59.88H59.86Z"/><path style="fill:#fff;" d="M83.11,132.51H47.46a2,2,0,0,1-2-2V94.86a2,2,0,0,1,2-2H83.11a2,2,0,0,1,2,2v35.65A2,2,0,0,1,83.11,132.51Zm-33.65-4H81.11V96.86H49.46Z"/><path style="fill:#fff;" d="M72.72,122.12H57.86a2,2,0,0,1-2-2V105.26a2,2,0,0,1,2-2H72.72a2,2,0,0,1,2,2v14.86A2,2,0,0,1,72.72,122.12Zm-12.86-4H70.72V107.26H59.86Z"/><path style="fill:#fff;" d="M130.54,85.14H94.89a2,2,0,0,1-2-2V47.49a2,2,0,0,1,2-2h35.65a2,2,0,0,1,2,2V83.14A2,2,0,0,1,130.54,85.14Zm-33.65-4h31.65V49.49H96.89Z"/><path style="fill:#fff;" d="M120.14,74.74H105.28a2,2,0,0,1-2-2V57.88a2,2,0,0,1,2-2h14.86a2,2,0,0,1,2,2V72.74A2,2,0,0,1,120.14,74.74Zm-12.86-4h10.86V59.88H107.28Z"/><path style="fill:#fff;" d="M104.92,132.51h-10a2,2,0,0,1-2-2v-10a2,2,0,0,1,2-2h10a2,2,0,0,1,2,2v10A2,2,0,0,1,104.92,132.51Zm-8-4h6v-6h-6Z"/><path style="fill:#fff;" d="M130.54,106.32h-9.46a2,2,0,0,1-2-2V94.86a2,2,0,0,1,2-2h9.46a2,2,0,0,1,2,2v9.46A2,2,0,0,1,130.54,106.32Zm-7.46-4h5.46V96.86h-5.46Z"/><path style="fill:#fff;" d="M109.22,112.2H94.89a2,2,0,0,1-2-2V94.86a2,2,0,0,1,2-2h14.33a2,2,0,0,1,2,2V110.2A2,2,0,0,1,109.22,112.2Zm-12.33-4h10.33V96.86H96.89Z"/><path style="fill:#fff;" d="M130.54,132.51H116.3a2,2,0,0,1-2-2V113.69a2,2,0,0,1,2-2h14.24a2,2,0,0,1,2,2v16.82A2,2,0,0,1,130.54,132.51Zm-12.24-4h10.24V115.69H118.3Z"/></g></g></svg>