<svg xmlns="http://www.w3.org/2000/svg" xmlns:xlink="http://www.w3.org/1999/xlink" viewBox="0 0 178 178"><defs><linearGradient id="linear-gradient" x1="128.62" y1="188.05" x2="15.62" y2="-94.45" gradientUnits="userSpaceOnUse"><stop offset="0" stop-color="#4f9be3"/><stop offset="0.85" stop-color="#62cad6"/></linearGradient></defs><title>cam-ico</title><g id="Layer_2" data-name="Layer 2"><g id="ICONS"><circle style="fill:url(#linear-gradient);" cx="89" cy="89" r="89"/><path style="fill:none;stroke:#fff;stroke-linecap:round;stroke-linejoin:round;stroke-width:4px;" d="M121,131H57a10,10,0,0,1-10-10V72.12a10,10,0,0,1,10-10h4.23a10,10,0,0,0,7.89-3.86l4.26-5.47A15,15,0,0,1,85.22,47h7.56a15,15,0,0,1,11.84,5.79l4.26,5.47a10,10,0,0,0,7.89,3.86H121a10,10,0,0,1,10,10V121A10,10,0,0,1,121,131Z"/><path style="fill:#fff;" d="M89,119.11a22.5,22.5,0,1,1,22.49-22.5A22.53,22.53,0,0,1,89,119.11Zm0-41a18.5,18.5,0,1,0,18.49,18.49A18.51,18.51,0,0,0,89,78.12Z"/><circle style="fill:#fff;" cx="89" cy="96.61" r="5.21"/><path style="fill:#fff;" d="M89,103.82a7.21,7.21,0,1,1,7.21-7.21A7.22,7.22,0,0,1,89,103.82Zm0-10.41a3.21,3.21,0,1,0,3.21,3.2A3.21,3.21,0,0,0,89,93.41Z"/><path style="fill:#fff;" d="M96.33,64.12H81.67a2,2,0,1,1,0-4H96.33a2,2,0,0,1,0,4Z"/></g></g></svg>