<svg xmlns="http://www.w3.org/2000/svg" xmlns:xlink="http://www.w3.org/1999/xlink" viewBox="0 0 222.5 222.5"><defs><linearGradient id="linear-gradient" x1="160.78" y1="235.07" x2="19.52" y2="-118.06" gradientUnits="userSpaceOnUse"><stop offset="0" stop-color="#4f9be3"/><stop offset="0.85" stop-color="#62cad6"/></linearGradient></defs><title>cam-add</title><g id="Layer_2" data-name="Layer 2"><g id="ICONS"><circle style="fill:url(#linear-gradient);" cx="111.25" cy="111.25" r="111.25"/><path style="fill:#fff;" d="M120.42,79.65a2,2,0,0,0,0-4H102.08a2,2,0,0,0,0,4Zm30.83-4H146a10.43,10.43,0,0,1-8.28-4.05l-5.32-6.84a20.62,20.62,0,0,0-16.38-8h-9.46a20.62,20.62,0,0,0-16.38,8L84.82,71.6a10.43,10.43,0,0,1-8.28,4.05H71.25a14.51,14.51,0,0,0-14.5,14.5v61.1a14.52,14.52,0,0,0,14.5,14.5H111a2,2,0,1,0,0-4H71.25a10.51,10.51,0,0,1-10.5-10.5V90.15a10.51,10.51,0,0,1,10.5-10.5h5.29A14.4,14.4,0,0,0,88,74.05l5.32-6.83a16.64,16.64,0,0,1,13.22-6.47H116a16.64,16.64,0,0,1,13.22,6.47l5.32,6.83A14.4,14.4,0,0,0,146,79.65h5.29a10.51,10.51,0,0,1,10.5,10.5v14.26a2,2,0,0,0,4,0V90.15A14.51,14.51,0,0,0,151.25,75.65Zm-11.68,37.73c-.58,0-1.14,0-1.71.06a27.61,27.61,0,1,0-26.61,34.94,26.69,26.69,0,0,0,3.58-.24,26.18,26.18,0,1,0,24.74-34.76Zm-28.32,15.89a8.45,8.45,0,0,0,5-1.66,26,26,0,0,0-2.9,12,25.56,25.56,0,0,0,.43,4.66,24.26,24.26,0,0,1-2.56.15A23.62,23.62,0,1,1,133.88,114a26.24,26.24,0,0,0-14.37,8.74,8.14,8.14,0,0,0,.25-2,8.51,8.51,0,1,0-8.51,8.5Zm28.32,32.48a22.19,22.19,0,1,1,22.18-22.18A22.21,22.21,0,0,1,139.57,161.75Zm9.94-24.18h-7.94v-7.95a2,2,0,0,0-4,0v7.95h-7.95a2,2,0,0,0,0,4h7.95v7.94a2,2,0,0,0,4,0v-7.94h7.94a2,2,0,0,0,0-4Z"/></g></g></svg>