<svg xmlns="http://www.w3.org/2000/svg" viewBox="0 0 92.4 79.27"><title>rec-x</title><g id="Layer_2" data-name="Layer 2"><g id="ICONS"><path style="fill:#ff6d68;" d="M82.4,3a7,7,0,0,1,7,7V69.27a7,7,0,0,1-7,7H10a7,7,0,0,1-7-7V10a7,7,0,0,1,7-7H82.4m0-3H10A10,10,0,0,0,0,10V69.27a10,10,0,0,0,10,10H82.4a10,10,0,0,0,10-10V10a10,10,0,0,0-10-10Z"/><rect style="fill:#ff6d68;" x="44.7" y="23.61" width="3" height="32.06" rx="1.5" transform="translate(-14.49 44.28) rotate(-45)"/><rect style="fill:#ff6d68;" x="30.17" y="38.14" width="32.06" height="3" rx="1.5" transform="translate(-14.49 44.28) rotate(-45)"/></g></g></svg>