<?xml version="1.0" encoding="utf-8"?>
<svg xmlns="http://www.w3.org/2000/svg" viewBox="0 0 289.86 97.38">
  <title>cancel-btn</title>
  <g id="Layer_2" data-name="Layer 2">
    <g id="icons">
      <rect style="fill:#ff8668;" width="289.86" height="97.38" rx="48.69" ry="48.69" />
      <path style="fill:#fff;" d="M87.28,49.07V49a8.87,8.87,0,0,1,9-9.07,9.14,9.14,0,0,1,6.87,2.73l-2,2.28a7,7,0,0,0-4.91-2.18A5.9,5.9,0,0,0,90.51,49v0a5.91,5.91,0,0,0,5.79,6.21,6.85,6.85,0,0,0,5-2.25l2,2a9,9,0,0,1-7.12,3.11A8.82,8.82,0,0,1,87.28,49.07Z" />
      <path style="fill:#fff;" d="M114.64,40.12h2.86l7.72,17.66H122l-1.78-4.23h-8.29l-1.8,4.23h-3.16ZM119,50.82l-3-7-3,7Z" />
      <path style="fill:#fff;" d="M130.1,40.25H133l9.4,12.13V40.25h3V57.79H142.8l-9.67-12.48V57.79h-3Z" />
      <path style="fill:#fff;" d="M151,49.07V49a8.87,8.87,0,0,1,9-9.07,9.14,9.14,0,0,1,6.87,2.73l-2,2.28A7,7,0,0,0,160,42.78,5.9,5.9,0,0,0,154.23,49v0A5.91,5.91,0,0,0,160,55.23a6.85,6.85,0,0,0,5-2.25l2,2a9,9,0,0,1-7.12,3.11A8.82,8.82,0,0,1,151,49.07Z" />
      <path style="fill:#fff;" d="M172.14,40.25h13V43h-9.92v4.56H184v2.76h-8.79V55h10v2.76H172.14Z" />
      <path style="fill:#fff;" d="M190.81,40.25h3.08V55h9.22v2.81h-12.3Z" />
    </g>
  </g>
</svg>