<?xml version="1.0" encoding="utf-8"?>
<svg xmlns="http://www.w3.org/2000/svg" viewBox="0 0 487.23 145.95">
  <title>cancel-btn-2</title>
  <g id="Layer_2" data-name="Layer 2">
    <g id="icons">
      <rect style="fill:#ff6d68;" width="487.23" height="145.95" rx="72.98" ry="72.98" />
      <path style="fill:#fff;" d="M161.4,73.42v-.08a14.25,14.25,0,0,1,14.52-14.56,14.68,14.68,0,0,1,11,4.38l-3.18,3.66c-2.25-2.09-4.67-3.5-7.88-3.5-5.35,0-9.29,4.42-9.29,9.93v.08c0,5.51,3.9,10,9.29,10,3.46,0,5.67-1.37,8.08-3.62l3.18,3.22a14.53,14.53,0,0,1-11.42,5A14.16,14.16,0,0,1,161.4,73.42Z" />
      <path style="fill:#fff;" d="M205.32,59.06h4.59L222.3,87.42h-5.23l-2.86-6.8H200.9l-2.9,6.8h-5.07Zm7.08,17.17L207.54,65l-4.83,11.26Z" />
      <path style="fill:#fff;" d="M230.14,59.27h4.58l15.08,19.47V59.27h4.87V87.42h-4.14L235,67.39v20h-4.87Z" />
      <path style="fill:#fff;" d="M263.69,73.42v-.08a14.25,14.25,0,0,1,14.52-14.56,14.68,14.68,0,0,1,11,4.38L286,66.83c-2.25-2.09-4.67-3.5-7.88-3.5-5.35,0-9.29,4.42-9.29,9.93v.08c0,5.51,3.9,10,9.29,10,3.46,0,5.67-1.37,8.08-3.62l3.18,3.22a14.53,14.53,0,0,1-11.42,5A14.16,14.16,0,0,1,263.69,73.42Z" />
      <path style="fill:#fff;" d="M297.63,59.27h20.88v4.42H302.58V71H316.7v4.42H302.58V83h16.13v4.42H297.63Z" />
      <path style="fill:#fff;" d="M327.6,59.27h4.95V82.92h14.8v4.5H327.6Z" />
      <path style="fill:#fff;" d="M120,102.66H74.71a7,7,0,0,1-7-7V50.34a7,7,0,0,1,7-7H120a7,7,0,0,1,7,7V95.61A7.05,7.05,0,0,1,120,102.66ZM74.71,47.86a2.48,2.48,0,0,0-2.47,2.47V95.62a2.48,2.48,0,0,0,2.47,2.47H120a2.48,2.48,0,0,0,2.48-2.48V50.34A2.48,2.48,0,0,0,120,47.86Z" />
      <path style="fill:#fff;" d="M111.25,89.16a2.27,2.27,0,0,1-1.61-.67L81.85,60.7a2.28,2.28,0,0,1,3.23-3.23l27.79,27.79a2.28,2.28,0,0,1-1.61,3.9Z" />
      <path style="fill:#fff;" d="M83.46,89.16a2.28,2.28,0,0,1-1.61-3.9l27.79-27.79a2.28,2.28,0,0,1,3.23,3.23L85.07,88.49A2.27,2.27,0,0,1,83.46,89.16Z" />
    </g>
  </g>
</svg>