<?xml version="1.0" encoding="utf-8"?>
<svg xmlns="http://www.w3.org/2000/svg" viewBox="0 0 44 37.83">
  <title>cap-ico</title>
  <g id="Layer_2" data-name="Layer 2">
    <g id="icons">
      <path style="fill:#fff;" d="M40.13,6.67H34.65a3,3,0,0,1-2.19-.93L29.64,2.8A9.11,9.11,0,0,0,23.08,0H20.92a9.11,9.11,0,0,0-6.56,2.8L11.54,5.73a3,3,0,0,1-2.19.93H6.56a1.14,1.14,0,0,0,.06-.28V3.95a1.18,1.18,0,0,0-2.37,0V6.39a1.14,1.14,0,0,0,.06.28H3.88A3.88,3.88,0,0,0,0,10.54V34a3.88,3.88,0,0,0,3.88,3.88H40.13A3.88,3.88,0,0,0,44,34V10.54A3.88,3.88,0,0,0,40.13,6.67ZM22,28.67a7.2,7.2,0,1,1,7.2-7.2A7.2,7.2,0,0,1,22,28.67ZM39.31,14.75a1.11,1.11,0,0,1-1.11,1.11H36a1.11,1.11,0,0,1-1.11-1.11V12.57A1.11,1.11,0,0,1,36,11.46H38.2a1.11,1.11,0,0,1,1.11,1.11Z" />
    </g>
  </g>
</svg>