<svg xmlns="http://www.w3.org/2000/svg" viewBox="0 0 55.29 55.29"><title>live-cap</title><g id="Layer_2" data-name="Layer 2"><g id="icons"><path style="fill:#fff;" d="M10,8.72a1.2,1.2,0,0,0-2-.47A27.83,27.83,0,0,0,.44,32.69a1.2,1.2,0,0,0,1.18,1H16.41a1.2,1.2,0,0,0,1.14-1.57Z"/><path style="fill:#fff;" d="M40.23,5A1.21,1.21,0,0,0,40.06,3a27.54,27.54,0,0,0-25.48.35A1.21,1.21,0,0,0,14,4.73l4.57,14.13a1.2,1.2,0,0,0,1.84.6Z"/><path style="fill:#fff;" d="M3.08,40.52A27.67,27.67,0,0,0,23.9,55.28a1.2,1.2,0,0,0,1.29-.83l4.57-14.13a1.2,1.2,0,0,0-1.14-1.57H4.15A1.21,1.21,0,0,0,3.08,40.52Z"/><path style="fill:#fff;" d="M53.07,32.75A1.2,1.2,0,0,0,55,32a27.81,27.81,0,0,0-8.2-24.23,1.19,1.19,0,0,0-1.53-.09l-12,8.73a1.21,1.21,0,0,0,0,1.95Z"/><path style="fill:#fff;" d="M30.67,53.51A1.21,1.21,0,0,0,32,55.08,27.58,27.58,0,0,0,52.42,39.76,1.21,1.21,0,0,0,52,38.27l-12-8.73a1.2,1.2,0,0,0-1.84.6Z"/></g></g></svg>