<?xml version="1.0" encoding="utf-8"?>
<svg xmlns="http://www.w3.org/2000/svg" viewBox="0 0 311.32 115.05">
  <title>capture-btn</title>
  <g id="Layer_2" data-name="Layer 2">
    <g id="icons">
      <rect style="fill:#5083f2;" width="311.32" height="115.05" rx="40" ry="40" />
      <path style="fill:#fff;" d="M125.59,57.82v-.05A9.53,9.53,0,0,1,135.31,48,9.82,9.82,0,0,1,142.69,51l-2.13,2.45a7.5,7.5,0,0,0-5.28-2.34,6.34,6.34,0,0,0-6.22,6.65v.05c0,3.69,2.61,6.68,6.22,6.68A7.36,7.36,0,0,0,140.7,62l2.13,2.15a9.72,9.72,0,0,1-7.64,3.34A9.48,9.48,0,0,1,125.59,57.82Z" />
      <path style="fill:#fff;" d="M155,48.21h3.07l8.29,19h-3.5l-1.91-4.55H152l-1.94,4.55h-3.39Zm4.74,11.49-3.26-7.54-3.23,7.54Z" />
      <path style="fill:#fff;" d="M171.59,48.35H179c4.41,0,7.16,2.5,7.16,6.3v.05c0,4.23-3.39,6.43-7.54,6.43H174.9v6.06h-3.31Zm7.16,9.8c2.5,0,4.06-1.4,4.06-3.36v-.05c0-2.21-1.59-3.37-4.06-3.37H174.9v6.78Z" />
      <path style="fill:#fff;" d="M196.21,51.42h-6V48.35h15.29v3.07h-6V67.19h-3.34Z" />
      <path style="fill:#fff;" d="M210.74,59.2V48.35h3.31V59.06c0,3.5,1.8,5.36,4.76,5.36s4.74-1.75,4.74-5.22V48.35h3.31V59c0,5.63-3.18,8.45-8.1,8.45S210.74,64.66,210.74,59.2Z" />
      <path style="fill:#fff;" d="M233.43,48.35h8.4a7.59,7.59,0,0,1,5.44,1.88,5.7,5.7,0,0,1,1.56,4.06v.05a5.66,5.66,0,0,1-4.47,5.71l5.09,7.13h-3.93l-4.63-6.57h-4.14v6.57h-3.31Zm8.16,9.34c2.37,0,3.88-1.24,3.88-3.15v-.05c0-2-1.45-3.12-3.9-3.12h-4.82v6.33Z" />
      <path style="fill:#fff;" d="M254.9,48.35h14v3H258.21v4.9h9.45v3h-9.45v5.06H269v3H254.9Z" />
      <path style="fill:#fff;" d="M51.21,45.27a3.88,3.88,0,0,0-3.88,3.88V72.56a3.88,3.88,0,0,0,3.88,3.88H87.46a3.88,3.88,0,0,0,3.88-3.88V49.15a3.88,3.88,0,0,0-3.88-3.88H82a3,3,0,0,1-2.19-.93L77,41.4a9.11,9.11,0,0,0-6.56-2.8H68.25a9.11,9.11,0,0,0-6.56,2.8l-2.82,2.94a3,3,0,0,1-2.19.93Z" />
      <circle style="fill:#5083f2;" cx="69.33" cy="60.08" r="7.2" />
      <path style="fill:#fff;" d="M52.77,46.18A1.18,1.18,0,0,1,51.58,45V42.56a1.18,1.18,0,0,1,2.37,0V45A1.18,1.18,0,0,1,52.77,46.18Z" />
      <rect style="fill:#5083f2;" x="82.2" y="50.07" width="4.44" height="4.4" rx="1.11" ry="1.11" />
    </g>
  </g>
</svg>