<svg xmlns="http://www.w3.org/2000/svg" viewBox="0 0 465.6 150.96">
   <title>capture</title>
   <g id="Layer_2" data-name="Layer 2">
      <g id="icons">
         <rect style="fill:#5083f2;" width="465.6" height="150.96" rx="75.48" ry="75.48"/>
         <path style="fill:#fff;" d="M187.83,75.93v-.08a14.26,14.26,0,0,1,14.53-14.57,14.69,14.69,0,0,1,11,4.39l-3.18,3.66c-2.25-2.09-4.67-3.5-7.89-3.5-5.35,0-9.3,4.43-9.3,9.94v.08c0,5.51,3.9,10,9.3,10,3.46,0,5.68-1.37,8.09-3.62l3.18,3.22a14.54,14.54,0,0,1-11.43,5A14.17,14.17,0,0,1,187.83,75.93Z"/>
         <path style="fill:#fff;" d="M231.78,61.56h4.59l12.4,28.38h-5.23l-2.86-6.8H227.36l-2.9,6.8h-5.07Zm7.08,17.19L234,67.47l-4.83,11.27Z"/>
         <path style="fill:#fff;" d="M256.61,61.76h11.11c6.6,0,10.71,3.74,10.71,9.42v.08c0,6.32-5.07,9.62-11.27,9.62h-5.6v9.06h-5Zm10.71,14.65c3.74,0,6.08-2.09,6.08-5V71.3c0-3.3-2.37-5-6.08-5h-5.76V76.41Z"/>
         <path style="fill:#fff;" d="M293.44,66.35H284.5V61.76h22.86v4.59h-8.94V89.93h-5Z"/>
         <path style="fill:#fff;" d="M315.17,78V61.76h5v16c0,5.23,2.7,8,7.13,8s7.08-2.62,7.08-7.81V61.76h5v16c0,8.41-4.75,12.64-12.12,12.64S315.17,86.15,315.17,78Z"/>
         <path style="fill:#fff;" d="M349.1,61.76h12.56c3.54,0,6.32,1,8.13,2.82a8.52,8.52,0,0,1,2.33,6.08v.08c0,4.63-2.78,7.41-6.68,8.53l7.61,10.67h-5.88l-6.92-9.82h-6.2v9.82h-5Zm12.2,14c3.54,0,5.8-1.85,5.8-4.71v-.08c0-3-2.17-4.67-5.84-4.67h-7.21v9.46Z"/>
         <path style="fill:#fff;" d="M381.22,61.76h20.89v4.43H386.17v7.33H400.3v4.43H386.17v7.57h16.14v4.43H381.22Z"/>
         <path style="fill:#fff;" d="M76.58,57.16a5.8,5.8,0,0,0-5.8,5.8V98a5.8,5.8,0,0,0,5.8,5.8H130.8a5.8,5.8,0,0,0,5.8-5.8V63a5.8,5.8,0,0,0-5.8-5.8H122.6a4.55,4.55,0,0,1-3.27-1.39l-4.22-4.4a13.62,13.62,0,0,0-9.81-4.18h-3.22a13.62,13.62,0,0,0-9.81,4.18L88,55.77a4.54,4.54,0,0,1-3.27,1.39Z"/>
         <circle style="fill:#5083f2;" cx="103.69" cy="79.3" r="10.77"/>
         <path style="fill:#fff;" d="M78.92,58.52a1.77,1.77,0,0,1-1.77-1.77V53.1a1.77,1.77,0,1,1,3.54,0v3.65A1.77,1.77,0,0,1,78.92,58.52Z"/>
         <rect style="fill:#5083f2;" x="122.93" y="64.34" width="6.64" height="6.57" rx="1.66" ry="1.66"/>
      </g>
   </g>
</svg>