<?xml version="1.0" encoding="utf-8"?>
<svg xmlns="http://www.w3.org/2000/svg" viewBox="0 0 39.72 39.72">
  <title>cloud-ico</title>
  <g id="Layer_2" data-name="Layer 2">
    <g id="icons">
      <path style="fill:#fff;" d="M12.67,14.25A4.74,4.74,0,0,1,9.3,12.77,5.31,5.31,0,0,1,8.19,8.4a1.53,1.53,0,0,1,3,.36,2.62,2.62,0,0,0,.35,2,1.72,1.72,0,0,0,1.08.47h0a1.53,1.53,0,0,1,0,3.06Z" />
      <path style="fill:#fff;" d="M11.38,27.93h-.93A10.45,10.45,0,1,1,12.91,7.31a1.53,1.53,0,1,1-.71,3,7.4,7.4,0,1,0-1.74,14.59h.93a1.53,1.53,0,0,1,0,3.06Z" />
      <path style="fill:#fff;" d="M12.67,14.25a1.53,1.53,0,0,1-1.48-1.14A10.62,10.62,0,0,1,11,12a10.86,10.86,0,0,1-.11-1.56,10.45,10.45,0,1,1,20.91,0,1.53,1.53,0,1,1-3.05,0,7.4,7.4,0,0,0-14.8,0A7.65,7.65,0,0,0,14,11.57a7.23,7.23,0,0,0,.16.77,1.53,1.53,0,0,1-1.48,1.92Z" />
      <path style="fill:#fff;" d="M30.24,27.88H28.9a1.53,1.53,0,0,1,0-3.06h1.34a6.42,6.42,0,1,0,0-12.84,1.53,1.53,0,0,1,0-3.06,9.48,9.48,0,1,1,0,19Z" />
      <path style="fill:#fff;" d="M15.07,31.89a1.52,1.52,0,0,1,1.08.45L19.86,36l3.71-3.71a1.53,1.53,0,0,1,2.16,2.16l-4.79,4.79a1.57,1.57,0,0,1-2.16,0L14,34.5a1.53,1.53,0,0,1,1.08-2.61Z" />
      <path style="fill:#fff;" d="M19.86,14.25a1.53,1.53,0,0,1,1.53,1.53V37.25a1.53,1.53,0,1,1-3.05,0V15.78A1.53,1.53,0,0,1,19.86,14.25Z" />
    </g>
  </g>
</svg>