<?xml version="1.0" encoding="utf-8"?>
<svg xmlns="http://www.w3.org/2000/svg" viewBox="0 0 281.23 115.05">
   <title>cloud-btn</title>
   <g id="Layer_2" data-name="Layer 2">
      <g id="icons">
         <rect style="fill:#6ecfff;" width="281.23" height="115.05" rx="40" ry="40" />
         <path style="fill:#fff;" d="M62.08,56s-3.46,0-3-4.14" />
         <path style="fill:#fff;" d="M62.08,57.48A4.74,4.74,0,0,1,58.72,56a5.31,5.31,0,0,1-1.11-4.36,1.53,1.53,0,0,1,3,.36A2.62,2.62,0,0,0,61,54a1.72,1.72,0,0,0,1.08.47h0a1.53,1.53,0,0,1,0,3.06Z" />
         <path style="fill:#fff;" d="M125.5,57.82v-.05A9.53,9.53,0,0,1,135.21,48,9.82,9.82,0,0,1,142.59,51l-2.13,2.45a7.5,7.5,0,0,0-5.28-2.34A6.34,6.34,0,0,0,129,57.72v.05c0,3.69,2.61,6.68,6.22,6.68A7.36,7.36,0,0,0,140.6,62l2.13,2.15a9.72,9.72,0,0,1-7.64,3.34A9.48,9.48,0,0,1,125.5,57.82Z" />
         <path style="fill:#fff;" d="M148.21,48.35h3.31V64.18h9.91v3H148.21Z" />
         <path style="fill:#fff;" d="M165,57.82v-.05a9.85,9.85,0,0,1,19.7-.05v.05a9.85,9.85,0,0,1-19.7.05Zm16.23,0v-.05a6.46,6.46,0,0,0-6.41-6.7,6.37,6.37,0,0,0-6.35,6.65v.05a6.43,6.43,0,0,0,6.41,6.68A6.34,6.34,0,0,0,181.21,57.82Z" />
         <path style="fill:#fff;" d="M190.41,59.2V48.35h3.31V59.06c0,3.5,1.8,5.36,4.76,5.36s4.74-1.75,4.74-5.22V48.35h3.31V59c0,5.63-3.18,8.45-8.1,8.45S190.41,64.66,190.41,59.2Z" />
         <path style="fill:#fff;" d="M213.09,48.35h7c5.92,0,10,4.06,10,9.37v.05c0,5.3-4.09,9.42-10,9.42h-7Zm3.31,3V64.18h3.71a6.14,6.14,0,0,0,6.54-6.35v-.05a6.18,6.18,0,0,0-6.54-6.41Z" />
         <path style="fill:#fff;" d="M61.8,71.17H59.87a10.45,10.45,0,1,1,2.45-20.62,1.53,1.53,0,1,1-.71,3,7.4,7.4,0,1,0-1.74,14.59H61.8a1.53,1.53,0,0,1,0,3.06Z" />
         <path style="fill:#fff;" d="M62.08,57.48a1.53,1.53,0,0,1-1.48-1.14,10.62,10.62,0,0,1-.22-1.09,10.86,10.86,0,0,1-.11-1.56,10.45,10.45,0,1,1,20.91,0,1.53,1.53,0,1,1-3.05,0,7.4,7.4,0,0,0-14.8,0,7.65,7.65,0,0,0,.08,1.11,7.23,7.23,0,0,0,.16.77,1.53,1.53,0,0,1-1.48,1.92Z" />
         <path style="fill:#fff;" d="M79.65,71.12H77.31a1.53,1.53,0,0,1,0-3.06h2.34a6.42,6.42,0,1,0,0-12.84,1.53,1.53,0,0,1,0-3.06,9.48,9.48,0,1,1,0,19Z" />
         <path style="fill:#fff;" d="M74.06,64.64A1.52,1.52,0,0,1,73,64.19l-3.71-3.71-3.71,3.71A1.53,1.53,0,1,1,63.4,62l4.79-4.79a1.57,1.57,0,0,1,2.16,0L75.14,62a1.53,1.53,0,0,1-1.08,2.61Z" />
         <path style="fill:#fff;" d="M69.27,71.17a1.53,1.53,0,0,1-1.53-1.53V59.28a1.53,1.53,0,1,1,3.05,0V69.64A1.53,1.53,0,0,1,69.27,71.17Z" />
      </g>
   </g>
</svg>