<?xml version="1.0" encoding="utf-8"?>
<svg version="1.1" id="Layer_1" xmlns="http://www.w3.org/2000/svg" xmlns:xlink="http://www.w3.org/1999/xlink" x="0px" y="0px"
    viewBox="0 0 465.6 151" style="enable-background:new 0 0 465.6 151;" xml:space="preserve">
<g>
   <path style="fill:#6ECFFF;" d="M75.3,0.1h314.9c41.6,0,75.3,33.7,75.3,75.3v0c0,41.6-33.7,75.3-75.3,75.3H75.3C33.7,150.8,0,117.1,0,75.5v0
      C0,33.9,33.7,0.1,75.3,0.1z"/>
   <g>
      <path style="fill:#FFFFFF;" d="M189.8,75.6L189.8,75.6c-0.2-8.1,6.1-14.7,14.1-14.9c0.2,0,0.4,0,0.6,0c4.2-0.1,8.3,1.5,11.2,4.5l-3.2,3.7
         c-2.1-2.2-5-3.5-8-3.5c-5.3,0.1-9.5,4.5-9.4,9.8c0,0.1,0,0.1,0,0.2v0.1c0,5.6,4,10.1,9.4,10.1c3.1,0,6.1-1.4,8.2-3.7l3.2,3.3
         c-2.9,3.3-7.2,5.2-11.6,5.1c-7.9,0.1-14.5-6.3-14.5-14.2C189.8,75.9,189.8,75.7,189.8,75.6z"/>
      <path style="fill:#FFFFFF;" d="M224.2,61.2h5v24h15v4.5h-20V61.2z"/>
      <path style="fill:#FFFFFF;" d="M249.7,75.6L249.7,75.6c0-8.3,6.6-15,14.9-15.1c8.2,0,15,6.6,15,14.9v0.1c0,8.2-6.6,15-14.9,15
         C256.4,90.5,249.7,83.8,249.7,75.6z M274.3,75.6L274.3,75.6c0.2-5.5-4-10-9.4-10.2c-0.1,0-0.2,0-0.3,0c-5.3,0-9.7,4.3-9.6,9.7
         c0,0.1,0,0.3,0,0.4v0.1c-0.2,5.4,4,9.9,9.4,10.1c0.1,0,0.2,0,0.4,0c5.3,0,9.6-4.3,9.6-9.6C274.3,75.8,274.3,75.7,274.3,75.6
         L274.3,75.6z"/>
      <path style="fill:#FFFFFF;" d="M288.2,77.6V61.2h5v16.2c0,5.3,2.7,8.1,7.2,8.1c4.5,0,7.2-2.7,7.2-7.9V61.2h5v16.2c0,8.5-4.8,12.8-12.3,12.8
         C292.9,90.2,288.2,85.9,288.2,77.6z"/>
      <path style="fill:#FFFFFF;" d="M322.6,61.2h10.6c9,0,15.2,6.2,15.2,14.2v0.1c0,8-6.2,14.3-15.2,14.3h-10.6V61.2z M327.6,65.7v19.5h5.6
         c5.1,0.3,9.6-3.5,9.9-8.7c0-0.3,0-0.6,0-1v-0.1c0.2-5.2-3.8-9.5-9-9.7c-0.3,0-0.6,0-0.9,0L327.6,65.7z"/>
   </g>
   <g>
      <path style="fill:#FFFFFF;" d="M92.6,73.7c0,0-5.1,0-4.4-6.1"/>
      <path style="fill:#FFFFFF;" d="M92.6,75.9c-1.9,0-3.7-0.8-5-2.2c-1.5-1.8-2.1-4.2-1.6-6.5c0.3-1.2,1.6-1.9,2.8-1.6c0.9,0.3,1.6,1.1,1.6,2.1
         c-0.2,1,0,2.1,0.6,3c0.4,0.4,1,0.7,1.6,0.7l0,0c1.3,0,2.3,1,2.3,2.3S93.8,75.9,92.6,75.9L92.6,75.9z"/>
      <path style="fill:#FFFFFF;" d="M92.2,96.2h-2.9c-8.6,0-15.5-7-15.4-15.6s7-15.5,15.6-15.4c1.2,0,2.3,0.1,3.5,0.4c1.2,0.3,2,1.5,1.7,2.7
         c-0.3,1.2-1.5,2-2.7,1.7c-5.9-1.4-11.8,2.2-13.3,8.1c-1.4,5.9,2.2,11.8,8.1,13.3c0.9,0.2,1.7,0.3,2.6,0.3h2.9c1.3,0,2.3,1,2.3,2.3
         C94.4,95.2,93.4,96.2,92.2,96.2L92.2,96.2z"/>
      <path style="fill:#FFFFFF;" d="M92.6,75.9c-1,0-1.9-0.7-2.2-1.7c-0.1-0.5-0.2-1.1-0.3-1.6c-0.1-0.8-0.2-1.5-0.2-2.3
         c0-8.6,6.9-15.5,15.5-15.5s15.5,6.9,15.5,15.5c0.1,1.2-0.8,2.3-2.1,2.4c-1.2,0.1-2.3-0.8-2.4-2.1c0-0.1,0-0.2,0-0.4
         c0-6.1-4.9-11-11-11c-6.1,0-11,4.9-11,11c0,0.6,0,1.1,0.1,1.6c0.1,0.4,0.1,0.8,0.2,1.1c0.3,1.2-0.4,2.5-1.6,2.8
         C93,75.9,92.8,75.9,92.6,75.9L92.6,75.9z"/>
      <path style="fill:#FFFFFF;" d="M118.6,96.1h-3.5c-1.3,0-2.3-1-2.3-2.3c0-1.3,1-2.3,2.3-2.3h3.5c5.3,0,9.5-4.3,9.5-9.5c0-5.3-4.3-9.5-9.5-9.5
         c-1.3,0-2.3-1-2.3-2.3s1-2.3,2.3-2.3c7.8,0,14.1,6.3,14.1,14.1S126.4,96.1,118.6,96.1L118.6,96.1z"/>
      <path style="fill:#FFFFFF;" d="M110.3,86.5c-0.6,0-1.2-0.2-1.6-0.7l-5.5-5.5l-5.5,5.5c-0.9,0.9-2.3,0.9-3.2,0c-0.9-0.9-0.9-2.3,0-3.2
         l7.1-7.1c0.9-0.9,2.3-0.9,3.2,0l7.1,7.1c0.9,0.9,0.9,2.3,0,3.2C111.5,86.2,110.9,86.4,110.3,86.5L110.3,86.5z"/>
      <path style="fill:#FFFFFF;" d="M103.2,96.2c-1.3,0-2.3-1-2.3-2.3V78.5c-0.1-1.2,0.8-2.3,2.1-2.4c1.2-0.1,2.3,0.8,2.4,2.1c0,0.1,0,0.2,0,0.4
         v15.4C105.5,95.1,104.5,96.2,103.2,96.2z"/>
   </g>
</g>
</svg>
