<svg xmlns="http://www.w3.org/2000/svg" viewBox="0 0 47.23 49.37"><g id="Layer_2" data-name="Layer 2"><g id="icons"><path style="fill:#5280df;stroke:#5280df;stroke-linecap:round;stroke-linejoin:round;stroke-width:4.49px;" d="M9.71,30.21,6.54,27a4.5,4.5,0,0,1,0-6.35L23.79,3.56a4.5,4.5,0,0,1,6.35,0l3.17,3.17a4.5,4.5,0,0,1,0,6.35L16.06,30.21A4.5,4.5,0,0,1,9.71,30.21Z"/><path style="fill:#5280df;stroke:#5280df;stroke-linecap:round;stroke-linejoin:round;stroke-width:4.49px;" d="M34.3,32.61h8a0,0,0,0,1,0,0V44.27a4,4,0,0,1-4,4h0a4,4,0,0,1-4-4V32.61A0,0,0,0,1,34.3,32.61Z" transform="translate(-17.38 38.92) rotate(-45)"/><path style="fill:none;stroke:#5280df;stroke-linecap:round;stroke-linejoin:round;stroke-width:4.49px;" d="M32.76,34.9,30,32.14a4.5,4.5,0,0,0-6.35,0L13.08,42.71a4.48,4.48,0,0,1-6.35,0L3.56,39.54a4.5,4.5,0,0,1,0-6.35l4.57-4.57"/></g></g></svg>