<svg xmlns="http://www.w3.org/2000/svg" viewBox="0 0 153.02 153.02"><title>company</title><g id="Layer_2" data-name="Layer 2"><g id="ICONS"><path style="fill:#57687f;" d="M143,3a7,7,0,0,1,7,7V143a7,7,0,0,1-7,7H10a7,7,0,0,1-7-7V10a7,7,0,0,1,7-7H143m0-3H10A10,10,0,0,0,0,10V143a10,10,0,0,0,10,10H143a10,10,0,0,0,10-10V10A10,10,0,0,0,143,0Z"/><path style="fill:#57687f;" d="M19.89,120.64v0a7.08,7.08,0,0,1,7.22-7.24,7.3,7.3,0,0,1,5.48,2.18L31,117.36a5.57,5.57,0,0,0-3.92-1.74,4.71,4.71,0,0,0-4.62,4.94v0a4.72,4.72,0,0,0,4.62,5,5.47,5.47,0,0,0,4-1.8l1.58,1.6A7.22,7.22,0,0,1,27,127.84,7,7,0,0,1,19.89,120.64Z"/><path style="fill:#57687f;" d="M35.75,120.64v0a7.32,7.32,0,0,1,14.64,0v0a7.32,7.32,0,0,1-14.64,0Zm12.06,0v0a4.8,4.8,0,0,0-4.76-5,4.73,4.73,0,0,0-4.72,4.94v0a4.78,4.78,0,0,0,4.76,5A4.71,4.71,0,0,0,47.81,120.64Z"/><path style="fill:#57687f;" d="M54.87,113.6h2.62l4.26,6.62L66,113.6h2.62v14H66.17v-10l-4.42,6.6h-.08l-4.38-6.56v10H54.87Z"/><path style="fill:#57687f;" d="M73.73,113.6h5.52c3.28,0,5.32,1.86,5.32,4.68v0c0,3.14-2.52,4.78-5.6,4.78H76.19v4.5H73.73Zm5.32,7.28c1.86,0,3-1,3-2.5v0c0-1.64-1.18-2.5-3-2.5H76.19v5Z"/><path style="fill:#57687f;" d="M92.15,113.5h2.28l6.16,14.1H98l-1.42-3.38H90l-1.44,3.38H86ZM95.67,122l-2.42-5.6-2.4,5.6Z"/><path style="fill:#57687f;" d="M104.49,113.6h2.28l7.5,9.68V113.6h2.42v14h-2.06l-7.72-10v10h-2.42Z"/><path style="fill:#57687f;" d="M125.91,122.08l-5.56-8.48h2.92l3.9,6.18,4-6.18H134L128.39,122v5.58h-2.48Z"/><path style="fill:#57687f;" d="M85,90.78H52.81a6.51,6.51,0,0,1-6.5-6.5V36.74a6.51,6.51,0,0,1,6.5-6.5H85a6.51,6.51,0,0,1,6.5,6.5V84.28A6.51,6.51,0,0,1,85,90.78ZM52.81,33.24a3.5,3.5,0,0,0-3.5,3.5V84.28a3.5,3.5,0,0,0,3.5,3.5H85a3.5,3.5,0,0,0,3.5-3.5V36.74a3.5,3.5,0,0,0-3.5-3.5Z"/><path style="fill:#57687f;" d="M79.24,90.78H58.58a1.5,1.5,0,0,1-1.5-1.5V69.67a1.5,1.5,0,0,1,1.5-1.5H79.24a1.5,1.5,0,0,1,1.5,1.5V89.28A1.5,1.5,0,0,1,79.24,90.78Zm-19.16-3H77.74V71.17H60.08Z"/><path style="fill:#57687f;" d="M100.21,90.78h-21a1.5,1.5,0,1,1,0-3h21a3.5,3.5,0,0,0,3.5-3.5V50a3.5,3.5,0,0,0-3.5-3.5H90a1.5,1.5,0,1,1,0-3h10.2a6.51,6.51,0,0,1,6.5,6.5V84.28A6.51,6.51,0,0,1,100.21,90.78Z"/><path style="fill:#57687f;" d="M79.24,44.11H58.58a1.5,1.5,0,0,1,0-3H79.24a1.5,1.5,0,0,1,0,3Z"/><path style="fill:#57687f;" d="M79.24,53H58.58a1.5,1.5,0,0,1,0-3H79.24a1.5,1.5,0,0,1,0,3Z"/><path style="fill:#57687f;" d="M79.24,61.94H58.58a1.5,1.5,0,0,1,0-3H79.24a1.5,1.5,0,1,1,0,3Z"/><path style="fill:#57687f;" d="M100.35,55.26H90a1.5,1.5,0,0,1,0-3h10.34a1.5,1.5,0,0,1,0,3Z"/><path style="fill:#57687f;" d="M100.35,64.18H90a1.5,1.5,0,1,1,0-3h10.34a1.5,1.5,0,1,1,0,3Z"/><path style="fill:#57687f;" d="M100.35,73.1H90a1.5,1.5,0,0,1,0-3h10.34a1.5,1.5,0,0,1,0,3Z"/><path style="fill:#57687f;" d="M100.35,82H90a1.5,1.5,0,0,1,0-3h10.34a1.5,1.5,0,0,1,0,3Z"/></g></g></svg>