<?xml version="1.0" encoding="utf-8"?>
<svg xmlns="http://www.w3.org/2000/svg" viewBox="0 0 487.23 145.95">
  <title>continue-btn</title>
  <g id="Layer_2" data-name="Layer 2">
    <g id="icons">
      <rect style="fill:#7ae8a9;" width="487.23" height="145.95" rx="72.98" ry="72.98" />
      <path style="fill:#fff;" d="M173.89,73.43v-.08a14.25,14.25,0,0,1,14.52-14.56,14.68,14.68,0,0,1,11,4.38l-3.18,3.66c-2.25-2.09-4.67-3.5-7.88-3.5-5.35,0-9.29,4.42-9.29,9.93v.08c0,5.51,3.9,10,9.29,10,3.46,0,5.67-1.37,8.08-3.62l3.18,3.22a14.53,14.53,0,0,1-11.42,5A14.16,14.16,0,0,1,173.89,73.43Z" />
      <path style="fill:#fff;" d="M205.79,73.43v-.08a14.72,14.72,0,0,1,29.44-.08v.08a14.72,14.72,0,0,1-29.44.08Zm24.25,0v-.08c0-5.47-4-10-9.57-10S211,67.79,211,73.26v.08c0,5.47,4,10,9.57,10S230,78.89,230,73.43Z" />
      <path style="fill:#fff;" d="M244.24,59.27h4.58l15.08,19.47V59.27h4.87V87.42h-4.14l-15.53-20v20h-4.87Z" />
      <path style="fill:#fff;" d="M285.95,63.85H277V59.27h22.85v4.58h-8.93V87.42h-5Z" />
      <path style="fill:#fff;" d="M308.39,59.27h4.95V87.42h-4.95Z" />
      <path style="fill:#fff;" d="M323.88,59.27h4.58l15.08,19.47V59.27h4.87V87.42h-4.14l-15.53-20v20h-4.87Z" />
      <path style="fill:#fff;" d="M358.23,75.48V59.27h4.95v16c0,5.23,2.69,8,7.12,8s7.08-2.61,7.08-7.8V59.27h4.95v16c0,8.41-4.75,12.63-12.11,12.63S358.23,83.64,358.23,75.48Z" />
      <path style="fill:#fff;" d="M392.13,59.27H413v4.42H397.08V71H411.2v4.42H397.08V83h16.13v4.42H392.13Z" />
      <path style="fill:#fff;" d="M106.11,73.55a2.27,2.27,0,0,1-1.61-.67l-7.14-7.14-7.14,7.14A2.28,2.28,0,0,1,87,69.65l8.75-8.75a2.35,2.35,0,0,1,3.23,0l8.75,8.75a2.28,2.28,0,0,1-1.61,3.9Z" />
      <path style="fill:#fff;" d="M97.36,85.73a2.28,2.28,0,0,1-2.28-2.28V62.51a2.28,2.28,0,1,1,4.57,0V83.45A2.28,2.28,0,0,1,97.36,85.73Z" />
      <path style="fill:#fff;" d="M97.36,102.66A29.68,29.68,0,1,1,127,73,29.71,29.71,0,0,1,97.36,102.66Zm0-54.8A25.12,25.12,0,1,0,122.47,73,25.14,25.14,0,0,0,97.36,47.86Z" />
    </g>
  </g>
</svg>