<svg xmlns="http://www.w3.org/2000/svg" viewBox="0 0 289.86 93.98"><g id="Layer_2" data-name="Layer 2"><g id="icons"><rect style="fill:#896edb;" width="289.86" height="93.98" rx="46.99"/><path style="fill:#fff;" d="M113,47.37v0a8.88,8.88,0,0,1,9-9.07A9.15,9.15,0,0,1,128.93,41l-2,2.28A7,7,0,0,0,122,41.08a5.9,5.9,0,0,0-5.78,6.19v0A5.91,5.91,0,0,0,122,53.53a6.85,6.85,0,0,0,5-2.25l2,2a9.06,9.06,0,0,1-7.12,3.11A8.83,8.83,0,0,1,113,47.37Z"/><path style="fill:#fff;" d="M132.89,47.37v0a9,9,0,0,1,9.2-9.07,8.89,8.89,0,0,1,9.14,9v0a9.17,9.17,0,0,1-18.34,0Zm15.11,0v0a6,6,0,0,0-6-6.24,5.92,5.92,0,0,0-5.91,6.19v0a6,6,0,0,0,6,6.21A5.9,5.9,0,0,0,148,47.37Z"/><path style="fill:#fff;" d="M156.85,38.55h2.85l9.4,12.12V38.55h3V56.09h-2.58l-9.67-12.48V56.09h-3Z"/><path style="fill:#fff;" d="M177,38.55h3.4L185.71,52,191,38.55h3.34L187,56.21h-2.73Z"/><path style="fill:#fff;" d="M199.19,38.55h13V41.3h-9.93v4.56h8.8v2.76h-8.8v4.71h10v2.76H199.19Z"/><path style="fill:#fff;" d="M217.86,38.55h7.82a7.09,7.09,0,0,1,5.06,1.75,5.34,5.34,0,0,1,1.45,3.79v0A5.27,5.27,0,0,1,228,49.45l4.74,6.64h-3.66L224.8,50h-3.86v6.12h-3.08Zm7.59,8.69c2.2,0,3.61-1.15,3.61-2.93v-.05c0-1.88-1.35-2.91-3.63-2.91h-4.49v5.89Z"/><path style="fill:#fff;" d="M242.09,41.4h-5.56V38.55h14.23V41.4H245.2V56.09h-3.11Z"/><polyline style="fill:none;stroke:#fff;stroke-linecap:round;stroke-linejoin:round;stroke-width:2.71px;" points="76.28 52.56 82.58 58.86 76.28 65.16"/><path style="fill:none;stroke:#fff;stroke-linecap:round;stroke-linejoin:round;stroke-width:2.71px;" d="M82.58,58.86h-8a7.22,7.22,0,0,1-6.31-3.71L59.23,39a7.24,7.24,0,0,0-6.31-3.7H46.44"/><polyline style="fill:none;stroke:#fff;stroke-linecap:round;stroke-linejoin:round;stroke-width:2.71px;" points="76.28 29.02 82.58 35.32 76.28 41.62"/><path style="fill:none;stroke:#fff;stroke-linecap:round;stroke-linejoin:round;stroke-width:2.71px;" d="M60.68,52.56l-1.45,2.59a7.23,7.23,0,0,1-6.31,3.71H46.44"/><path style="fill:none;stroke:#fff;stroke-linecap:round;stroke-linejoin:round;stroke-width:2.71px;" d="M82.58,35.32h-8A7.23,7.23,0,0,0,68.23,39l-1.47,2.63"/></g></g></svg>