<svg xmlns="http://www.w3.org/2000/svg" viewBox="0 0 47.04 47.04">
   <g id="Layer_2" data-name="Layer 2">
      <g id="icons">
         <path style="fill:#5280df;opacity:0.6;" d="M1.74,38.33A1.74,1.74,0,0,1,0,36.58V6.1A6.11,6.11,0,0,1,6.1,0H36.58a1.74,1.74,0,1,1,0,3.48H6.1A2.63,2.63,0,0,0,3.48,6.1V36.58A1.74,1.74,0,0,1,1.74,38.33Z"/>
         <path style="fill:#5280df;" d="M40.94,47H14.81a6.11,6.11,0,0,1-6.1-6.1v-27a6.11,6.11,0,0,1,6.1-6.1H40.94a6.11,6.11,0,0,1,6.1,6.1v27A6.11,6.11,0,0,1,40.94,47ZM14.81,11.32a2.63,2.63,0,0,0-2.62,2.62v27a2.62,2.62,0,0,0,2.62,2.61H40.94a2.61,2.61,0,0,0,2.61-2.61v-27a2.62,2.62,0,0,0-2.61-2.62Z"/>
      </g>
   </g>
</svg>