<svg xmlns="http://www.w3.org/2000/svg" viewBox="0 0 153.02 153.02"><title>date</title><g id="Layer_2" data-name="Layer 2"><g id="ICONS"><path style="fill:#57687f;" d="M143,3a7,7,0,0,1,7,7V143a7,7,0,0,1-7,7H10a7,7,0,0,1-7-7V10a7,7,0,0,1,7-7H143m0-3H10A10,10,0,0,0,0,10V143a10,10,0,0,0,10,10H143a10,10,0,0,0,10-10V10A10,10,0,0,0,143,0Z"/><path style="fill:#57687f;" d="M48.55,113.6h5.22c4.4,0,7.44,3,7.44,7v0c0,3.94-3,7-7.44,7H48.55ZM51,115.84v9.52h2.76a4.56,4.56,0,0,0,4.86-4.72v0a4.59,4.59,0,0,0-4.86-4.76Z"/><path style="fill:#57687f;" d="M69.67,113.5H72l6.16,14.1h-2.6l-1.42-3.38H67.47L66,127.6H63.51ZM73.19,122l-2.42-5.6-2.4,5.6Z"/><path style="fill:#57687f;" d="M83.65,115.88H79.21V113.6H90.57v2.28H86.13V127.6H83.65Z"/><path style="fill:#57687f;" d="M94.67,113.6h10.38v2.2H97.13v3.64h7v2.2h-7v3.76h8v2.2H94.67Z"/><path style="fill:#57687f;" d="M70.45,91.62H52.81a6.5,6.5,0,0,1-6.5-6.5V42a6.5,6.5,0,0,1,6.5-6.5h47.4a6.51,6.51,0,0,1,6.5,6.5V53a1.5,1.5,0,0,1-3,0V42a3.5,3.5,0,0,0-3.5-3.5H52.81a3.5,3.5,0,0,0-3.5,3.5V85.12a3.5,3.5,0,0,0,3.5,3.5H70.45a1.5,1.5,0,0,1,0,3Z"/><path style="fill:#57687f;" d="M58.13,42.78a1.5,1.5,0,0,1-1.5-1.5V32.72a1.5,1.5,0,0,1,3,0v8.56A1.5,1.5,0,0,1,58.13,42.78Z"/><path style="fill:#57687f;" d="M76.6,42.78a1.5,1.5,0,0,1-1.5-1.5V32.72a1.5,1.5,0,0,1,3,0v8.56A1.5,1.5,0,0,1,76.6,42.78Z"/><path style="fill:#57687f;" d="M95.08,42.78a1.5,1.5,0,0,1-1.5-1.5V32.72a1.5,1.5,0,0,1,3,0v8.56A1.51,1.51,0,0,1,95.08,42.78Z"/><path style="fill:#57687f;" d="M58.12,55a2.58,2.58,0,0,1-.39,0,2.29,2.29,0,0,1-.37-.12,1.83,1.83,0,0,1-.34-.18,1.89,1.89,0,0,1-.31-.25,2.42,2.42,0,0,1-.25-.31,1.59,1.59,0,0,1-.18-.34,2.65,2.65,0,0,1-.12-.37,2.58,2.58,0,0,1,0-.4,2,2,0,0,1,.59-1.41,1.81,1.81,0,0,1,.3-.25,2.31,2.31,0,0,1,.35-.18,2.65,2.65,0,0,1,.37-.12,2,2,0,0,1,1.81.55,1.81,1.81,0,0,1,.25.3,2.31,2.31,0,0,1,.18.35,1.58,1.58,0,0,1,.11.37,1.72,1.72,0,0,1,0,.39,2,2,0,0,1-2,2Z"/><path style="fill:#57687f;" d="M80.76,53a2,2,0,0,1,2-2h0a2,2,0,0,1,2,2h0a2,2,0,0,1-2,2h0A2,2,0,0,1,80.76,53ZM68.44,53a2,2,0,0,1,2-2h0a2,2,0,0,1,2,2h0a2,2,0,0,1-2,2h0A2,2,0,0,1,68.44,53Z"/><path style="fill:#57687f;" d="M95.07,55a2,2,0,0,1-1.41-.59,1.79,1.79,0,0,1-.25-.31,1.63,1.63,0,0,1-.19-.34,1.73,1.73,0,0,1-.11-.37,1.75,1.75,0,0,1,0-.4,2,2,0,0,1,.59-1.41,1.81,1.81,0,0,1,.3-.25,2.31,2.31,0,0,1,.35-.18,2.29,2.29,0,0,1,.37-.12,2,2,0,0,1,.78,0,2.4,2.4,0,0,1,.38.12,2.21,2.21,0,0,1,.34.18,1.81,1.81,0,0,1,.3.25A2,2,0,0,1,97.07,53a1.75,1.75,0,0,1,0,.4,1.73,1.73,0,0,1-.11.37,2.21,2.21,0,0,1-.18.34,2.51,2.51,0,0,1-.26.31,1.85,1.85,0,0,1-.64.43A2,2,0,0,1,95.07,55Z"/><path style="fill:#57687f;" d="M58.12,67.88a1.72,1.72,0,0,1-.39,0,1.58,1.58,0,0,1-.37-.11,1.41,1.41,0,0,1-.34-.19,1.48,1.48,0,0,1-.31-.25,1.81,1.81,0,0,1-.25-.3,1.59,1.59,0,0,1-.18-.34,2.4,2.4,0,0,1-.12-.38,2.45,2.45,0,0,1,0-.39,2.58,2.58,0,0,1,0-.39,2.4,2.4,0,0,1,.12-.38,2.21,2.21,0,0,1,.18-.34,1.81,1.81,0,0,1,.25-.3,1.42,1.42,0,0,1,.3-.25,2.37,2.37,0,0,1,.35-.19,1.73,1.73,0,0,1,.37-.11,2,2,0,0,1,.78,0,1.66,1.66,0,0,1,.38.11,2.37,2.37,0,0,1,.35.19,1.73,1.73,0,0,1,.3.25,2.48,2.48,0,0,1,.25.3,2.21,2.21,0,0,1,.18.34,2.4,2.4,0,0,1,.12.38,2.56,2.56,0,0,1,0,.39,2.47,2.47,0,0,1,0,.39,2.4,2.4,0,0,1-.12.38,2.21,2.21,0,0,1-.18.34,1.81,1.81,0,0,1-.25.3,1.48,1.48,0,0,1-.31.25,1.41,1.41,0,0,1-.34.19,1.58,1.58,0,0,1-.37.11A1.75,1.75,0,0,1,58.12,67.88Z"/><path style="fill:#57687f;" d="M80.76,65.88a2,2,0,0,1,2-2h0a2,2,0,0,1,2,2h0a2,2,0,0,1-2,2h0A2,2,0,0,1,80.76,65.88Zm-12.32,0a2,2,0,0,1,2-2h0a2,2,0,0,1,2,2h0a2,2,0,0,1-2,2h0A2,2,0,0,1,68.44,65.88Z"/><path style="fill:#57687f;" d="M95.07,67.88a2,2,0,0,1-.76-.15,1.92,1.92,0,0,1-.65-.44,1.42,1.42,0,0,1-.25-.3,1.63,1.63,0,0,1-.19-.34,2.38,2.38,0,0,1-.11-.38,2.45,2.45,0,0,1,0-.39,2.58,2.58,0,0,1,0-.39,2.4,2.4,0,0,1,.12-.38,2.21,2.21,0,0,1,.18-.34,1.81,1.81,0,0,1,.25-.3,1.42,1.42,0,0,1,.3-.25,2.37,2.37,0,0,1,.35-.19,1.58,1.58,0,0,1,.37-.11,2,2,0,0,1,1.81.55,1.76,1.76,0,0,1,.24.3,1.63,1.63,0,0,1,.19.34,1.66,1.66,0,0,1,.11.38,1.72,1.72,0,0,1,0,.39,2.2,2.2,0,0,1-.15.77,2.21,2.21,0,0,1-.18.34,2.48,2.48,0,0,1-.25.3A2,2,0,0,1,95.07,67.88Z"/><path style="fill:#57687f;" d="M58.12,80.76a2,2,0,0,1-1.41-.59,2.42,2.42,0,0,1-.25-.31,1.83,1.83,0,0,1-.18-.34,2.29,2.29,0,0,1-.12-.37,2.58,2.58,0,0,1,0-.39,2.71,2.71,0,0,1,0-.4,2.65,2.65,0,0,1,.12-.37,2.31,2.31,0,0,1,.18-.35,1.81,1.81,0,0,1,.25-.3,2.07,2.07,0,0,1,2.83,0,2.48,2.48,0,0,1,.25.3A2.31,2.31,0,0,1,60,78a2.65,2.65,0,0,1,.12.37,2.71,2.71,0,0,1,0,.4,2,2,0,0,1-.59,1.41,2.42,2.42,0,0,1-.31.25,1.83,1.83,0,0,1-.34.18,2.65,2.65,0,0,1-.37.12A2.58,2.58,0,0,1,58.12,80.76Z"/><path style="fill:#57687f;" d="M80.75,78.76a2,2,0,0,1,2-2h0a2,2,0,0,1,2,2h0a2,2,0,0,1-2,2h0A2,2,0,0,1,80.75,78.76Zm-12.31,0a2,2,0,0,1,2-2h0a2,2,0,0,1,2,2h0a2,2,0,0,1-2,2h0A2,2,0,0,1,68.44,78.76Z"/><path style="fill:#57687f;" d="M95.07,80.76a2.58,2.58,0,0,1-.39,0,2,2,0,0,1-.37-.12,2.31,2.31,0,0,1-.35-.18,1.81,1.81,0,0,1-.3-.25,2,2,0,0,1-.59-1.41,2.71,2.71,0,0,1,0-.4,2.59,2.59,0,0,1,.11-.37,2.37,2.37,0,0,1,.19-.35,1.81,1.81,0,0,1,.25-.3,2.08,2.08,0,0,1,2.83,0,1.76,1.76,0,0,1,.24.3,1.7,1.7,0,0,1,.19.35,1.73,1.73,0,0,1,.11.37,1.81,1.81,0,0,1,0,.4,2,2,0,0,1-2,2Z"/><circle style="fill:#fff;" cx="90.96" cy="75.87" r="14.25"/><path style="fill:#57687f;" d="M91,91.62a15.75,15.75,0,1,1,15.75-15.75A15.76,15.76,0,0,1,91,91.62Zm0-28.5a12.75,12.75,0,1,0,12.75,12.75A12.76,12.76,0,0,0,91,63.12Z"/><path style="fill:#57687f;" d="M88.34,82.19a1.5,1.5,0,0,1-1.5-1.5V71.05a1.5,1.5,0,1,1,3,0v9.64A1.5,1.5,0,0,1,88.34,82.19Z"/><path style="fill:#57687f;" d="M93.58,82.19H88.34a1.5,1.5,0,0,1,0-3h5.24a1.5,1.5,0,0,1,0,3Z"/></g></g></svg>