<?xml version="1.0" encoding="utf-8"?>
<svg xmlns="http://www.w3.org/2000/svg" viewBox="0 0 39.79 37.04">
  <title>del-ico</title>
  <g id="Layer_2" data-name="Layer 2">
    <g id="icons">
      <path style="fill:#fff;" d="M30.21,13.63H26.28v15.7a1.38,1.38,0,0,1-2.76,0V13.63H16.27v15.7a1.38,1.38,0,0,1-2.76,0V13.63H9.58a2,2,0,0,0-2,2V33.33a3.7,3.7,0,0,0,3.7,3.7H28.46a3.7,3.7,0,0,0,3.7-3.7V15.58A2,2,0,0,0,30.21,13.63ZM38.42,6.2h-8V5a5,5,0,0,0-5-5H14.3a5,5,0,0,0-5,5V6.2h-8A1.38,1.38,0,1,0,1.38,9h37a1.38,1.38,0,1,0,0-2.75Z" />
    </g>
  </g>
</svg>