<svg xmlns="http://www.w3.org/2000/svg" viewBox="0 0 164.27 164.27"><title>trash</title><g id="Layer_2" data-name="Layer 2"><g id="ICONS"><path style="fill:#57687f;" d="M154.27,3a7,7,0,0,1,7,7V154.27a7,7,0,0,1-7,7H10a7,7,0,0,1-7-7V10a7,7,0,0,1,7-7H154.27m0-3H10A10,10,0,0,0,0,10V154.27a10,10,0,0,0,10,10H154.27a10,10,0,0,0,10-10V10a10,10,0,0,0-10-10Z"/><path style="fill:#57687f;" d="M36.47,122h5.6c4.72,0,8,3.25,8,7.48v0c0,4.23-3.27,7.51-8,7.51h-5.6Zm2.64,2.41v10.22h3a4.9,4.9,0,0,0,5.22-5.07v0a4.93,4.93,0,0,0-5.22-5.11Z"/><path style="fill:#57687f;" d="M54.87,122H66v2.36h-8.5v3.91H65v2.36H57.51v4h8.61V137H54.87Z"/><path style="fill:#57687f;" d="M70.87,122h2.64v12.63h7.9V137H70.87Z"/><path style="fill:#57687f;" d="M85.77,122H96.91v2.36h-8.5v3.91h7.53v2.36H88.41v4H97V137H85.77Z"/><path style="fill:#57687f;" d="M105.46,124.41h-4.77V122h12.19v2.45h-4.76V137h-2.66Z"/><path style="fill:#57687f;" d="M117.29,122h11.14v2.36h-8.5v3.91h7.53v2.36h-7.53v4h8.61V137H117.29Z"/><path style="fill:#57687f;" d="M99.71,48.18H64.56a1.5,1.5,0,0,1-1.5-1.5v-7.6a6.51,6.51,0,0,1,6.5-6.5H94.71a6.5,6.5,0,0,1,6.5,6.5v7.6A1.5,1.5,0,0,1,99.71,48.18Zm-33.65-3H98.21v-6.1a3.5,3.5,0,0,0-3.5-3.5H69.56a3.5,3.5,0,0,0-3.5,3.5Z"/><path style="fill:#57687f;" d="M96.39,97.2H67.89a7.67,7.67,0,0,1-7.67-7.66V46.68a1.51,1.51,0,0,1,1.5-1.5h40.83a1.5,1.5,0,0,1,1.5,1.5V89.54A7.67,7.67,0,0,1,96.39,97.2Zm-33.17-49V89.54a4.67,4.67,0,0,0,4.67,4.66h28.5a4.66,4.66,0,0,0,4.66-4.66V48.18Z"/><path style="fill:#57687f;" d="M113,51.26a1.5,1.5,0,0,1-1.5-1.5,1.58,1.58,0,0,0-1.58-1.58H54.41a1.58,1.58,0,0,0-1.58,1.58,1.5,1.5,0,1,1-3,0,4.59,4.59,0,0,1,4.58-4.58h55.46a4.59,4.59,0,0,1,4.58,4.58A1.5,1.5,0,0,1,113,51.26Z"/><path style="fill:#57687f;" d="M73.81,84.37a1.5,1.5,0,0,1-1.5-1.5V56.75a1.5,1.5,0,0,1,3,0V82.87A1.51,1.51,0,0,1,73.81,84.37Z"/><path style="fill:#57687f;" d="M90.47,84.37a1.5,1.5,0,0,1-1.5-1.5V56.75a1.5,1.5,0,0,1,3,0V82.87A1.5,1.5,0,0,1,90.47,84.37Z"/></g></g></svg>