<svg xmlns="http://www.w3.org/2000/svg" viewBox="0 0 87.66 87.66"><title>trash-ico</title><g id="Layer_2" data-name="Layer 2"><g id="ICONS"><circle style="fill:#69a2fd;" cx="43.83" cy="43.83" r="43.83"/><path style="fill:#fff;" d="M54.47,34.31H33.19a1.5,1.5,0,0,1-1.5-1.5V30.18a6.51,6.51,0,0,1,6.5-6.5H49.47a6.51,6.51,0,0,1,6.5,6.5v2.63A1.5,1.5,0,0,1,54.47,34.31Zm-19.78-3H53V30.18a3.5,3.5,0,0,0-3.5-3.5H38.19a3.5,3.5,0,0,0-3.5,3.5Z"/><path style="fill:#fff;" d="M52.45,64H35.21A5.23,5.23,0,0,1,30,58.75V32.81a1.5,1.5,0,0,1,1.5-1.5h24.7a1.5,1.5,0,0,1,1.5,1.5V58.75A5.23,5.23,0,0,1,52.45,64ZM33,34.31V58.75A2.23,2.23,0,0,0,35.21,61H52.45a2.23,2.23,0,0,0,2.23-2.23V34.31Z"/><path style="fill:#fff;" d="M62.48,36.17a1.5,1.5,0,0,1-1.5-1.5.37.37,0,0,0-.37-.36H27.05a.37.37,0,0,0-.37.36,1.5,1.5,0,0,1-3,0,3.37,3.37,0,0,1,3.37-3.36H60.61A3.37,3.37,0,0,1,64,34.67,1.5,1.5,0,0,1,62.48,36.17Z"/><path style="fill:#fff;" d="M38.79,56.21a1.5,1.5,0,0,1-1.5-1.5V38.9a1.5,1.5,0,0,1,3,0V54.71A1.5,1.5,0,0,1,38.79,56.21Z"/><path style="fill:#fff;" d="M48.87,56.21a1.5,1.5,0,0,1-1.5-1.5V38.9a1.5,1.5,0,0,1,3,0V54.71A1.5,1.5,0,0,1,48.87,56.21Z"/></g></g></svg>