<?xml version="1.0" encoding="utf-8"?>
<svg xmlns="http://www.w3.org/2000/svg" viewBox="0 0 289.86 97.38">
  <title>delete-btn</title>
  <g id="Layer_2" data-name="Layer 2">
    <g id="icons">
      <rect style="fill:#ff6d68;" width="289.86" height="97.38" rx="48.69" ry="48.69" />
      <path style="fill:#fff;" d="M130.37,40.25h6.54c5.51,0,9.32,3.78,9.32,8.72v0c0,4.94-3.81,8.77-9.32,8.77h-6.54Zm3.08,2.81V55h3.46A5.72,5.72,0,0,0,143,49.07V49a5.76,5.76,0,0,0-6.09-6Z" />
      <path style="fill:#fff;" d="M151.84,40.25h13V43h-9.92v4.56h8.79v2.76h-8.79V55h10v2.76H151.84Z" />
      <path style="fill:#fff;" d="M170.51,40.25h3.08V55h9.22v2.81h-12.3Z" />
      <path style="fill:#fff;" d="M187.9,40.25h13V43H191v4.56h8.79v2.76H191V55h10v2.76H187.9Z" />
      <path style="fill:#fff;" d="M210.87,43.1h-5.56V40.25h14.23V43.1H214V57.79h-3.11Z" />
      <path style="fill:#fff;" d="M224.68,40.25h13V43h-9.92v4.56h8.79v2.76h-8.79V55h10v2.76H224.68Z" />
      <path style="fill:#fff;" d="M58.51,30.33H69.7a5,5,0,0,1,5,5v2.61a0,0,0,0,1,0,0H53.54a0,0,0,0,1,0,0V35.3A5,5,0,0,1,58.51,30.33Z" />
      <path style="fill:#fff;" d="M51.84,45.91V63.66a3.7,3.7,0,0,0,3.7,3.7H72.67a3.7,3.7,0,0,0,3.7-3.7V45.91a2,2,0,0,0-2-2H53.79A2,2,0,0,0,51.84,45.91Z" />
      <path style="fill:#fff;" d="M82.62,39.28h-37a1.38,1.38,0,1,1,0-2.75h37a1.38,1.38,0,1,1,0,2.75Z" />
      <path style="fill:#ff6d68;" d="M59.1,61a1.38,1.38,0,0,1-1.38-1.38V44a1.38,1.38,0,0,1,2.76,0v15.7A1.38,1.38,0,0,1,59.1,61Z" />
      <path style="fill:#ff6d68;" d="M69.11,61a1.38,1.38,0,0,1-1.38-1.38V44a1.38,1.38,0,0,1,2.76,0v15.7A1.38,1.38,0,0,1,69.11,61Z" />
    </g>
  </g>
</svg>