<?xml version="1.0" encoding="utf-8"?>
<svg xmlns="http://www.w3.org/2000/svg" viewBox="0 0 47.04 47">
  <title>deskew</title>
  <g id="Layer_2" data-name="Layer 2">
    <g id="icons">
      <path style="fill:#5280df;" d="M6.68,13.36a6.68,6.68,0,1,1,6.68-6.68A6.69,6.69,0,0,1,6.68,13.36Zm0-9.87A3.19,3.19,0,1,0,9.87,6.68,3.2,3.2,0,0,0,6.68,3.48Z" />
      <path style="fill:#5280df;" d="M40.36,17.62A6.68,6.68,0,1,1,47,10.94,6.69,6.69,0,0,1,40.36,17.62Zm0-9.87a3.19,3.19,0,1,0,3.19,3.19A3.2,3.2,0,0,0,40.36,7.75Z" />
      <path style="fill:#5280df;" d="M40.36,42.77A6.68,6.68,0,1,1,47,36.09,6.69,6.69,0,0,1,40.36,42.77Zm0-9.87a3.19,3.19,0,1,0,3.19,3.19A3.2,3.2,0,0,0,40.36,32.9Z" />
      <path style="fill:#5280df;" d="M6.68,47a6.68,6.68,0,1,1,6.68-6.68A6.69,6.69,0,0,1,6.68,47Zm0-9.87a3.19,3.19,0,1,0,3.19,3.19A3.2,3.2,0,0,0,6.68,37.13Z" />
      <g style="opacity:0.6;">
        <path style="fill:#5280df;" d="M12.91,9l-.26,0-1.29-.19a1.74,1.74,0,0,1,.52-3.45l1.29.19A1.74,1.74,0,0,1,12.91,9Z" />
        <path style="fill:#5280df;" d="M28.84,11.35l-.26,0-2.65-.4a1.74,1.74,0,0,1,.52-3.45l2.65.4a1.74,1.74,0,0,1-.26,3.46Zm-8-1.2-.26,0L18,9.74a1.74,1.74,0,1,1,.52-3.45l2.65.4a1.74,1.74,0,0,1-.26,3.46Z" />
        <path style="fill:#5280df;" d="M35.44,12.34l-.26,0-1.29-.19a1.74,1.74,0,0,1,.52-3.45l1.29.19a1.74,1.74,0,0,1-.26,3.46Z" />
      </g>
      <g style="opacity:0.6;">
        <path style="fill:#5280df;" d="M6.68,14.66a1.74,1.74,0,0,1-1.74-1.74V11.61a1.74,1.74,0,0,1,3.48,0v1.31A1.74,1.74,0,0,1,6.68,14.66Z" />
        <path style="fill:#5280df;" d="M6.68,30.53a1.74,1.74,0,0,1-1.74-1.74V26.15a1.74,1.74,0,1,1,3.48,0v2.64A1.74,1.74,0,0,1,6.68,30.53Zm0-7.93a1.74,1.74,0,0,1-1.74-1.74V18.21a1.74,1.74,0,0,1,3.48,0v2.65A1.74,1.74,0,0,1,6.68,22.6Z" />
        <path style="fill:#5280df;" d="M6.68,37.13a1.74,1.74,0,0,1-1.74-1.74V34.08a1.74,1.74,0,0,1,3.48,0v1.31A1.74,1.74,0,0,1,6.68,37.13Z" />
      </g>
      <g style="opacity:0.6;">
        <path style="fill:#5280df;" d="M11.61,42.07a1.74,1.74,0,0,1-.26-3.46l1.29-.2a1.74,1.74,0,0,1,.52,3.45l-1.29.2Z" />
        <path style="fill:#5280df;" d="M18.22,41.07A1.74,1.74,0,0,1,18,37.6l2.66-.4a1.74,1.74,0,1,1,.52,3.45l-2.66.4Zm8-1.2a1.74,1.74,0,0,1-.26-3.46L28.6,36a1.74,1.74,0,0,1,.52,3.45l-2.66.4Z" />
        <path style="fill:#5280df;" d="M34.17,38.66a1.74,1.74,0,0,1-.26-3.46L35.2,35a1.74,1.74,0,1,1,.52,3.45l-1.29.19Z" />
      </g>
      <g style="opacity:0.6;">
        <path style="fill:#5280df;" d="M40.36,18.93a1.74,1.74,0,0,1-1.74-1.74V15.88a1.74,1.74,0,0,1,3.48,0v1.31A1.74,1.74,0,0,1,40.36,18.93Z" />
        <path style="fill:#5280df;" d="M40.36,26.53a1.74,1.74,0,0,1-1.74-1.74V22.25a1.74,1.74,0,0,1,3.48,0v2.53A1.74,1.74,0,0,1,40.36,26.53Z" />
        <path style="fill:#5280df;" d="M40.36,32.9a1.74,1.74,0,0,1-1.74-1.74V29.85a1.74,1.74,0,0,1,3.48,0v1.31A1.74,1.74,0,0,1,40.36,32.9Z" />
      </g>
    </g>
  </g>
</svg>