<svg xmlns="http://www.w3.org/2000/svg" viewBox="0 0 53.77 26.08"><g id="Layer_2" data-name="Layer 2"><g id="icons"><rect style="fill:#5083f2;" width="53.77" height="26.08" rx="2.5"/><path style="fill:#fff;" d="M9.34,7.93h3.92a5.23,5.23,0,0,1,5.58,5.22v0a5.26,5.26,0,0,1-5.58,5.25H9.34Zm1.85,1.68v7.14h2.07a3.42,3.42,0,0,0,3.64-3.54v0a3.44,3.44,0,0,0-3.64-3.57Z"/><path style="fill:#fff;" d="M21.73,13.21v0a5.38,5.38,0,0,1,5.5-5.43,5.33,5.33,0,0,1,5.48,5.4v0a5.49,5.49,0,0,1-11,0Zm9,0v0A3.6,3.6,0,0,0,27.2,9.44a3.56,3.56,0,0,0-3.54,3.71v0a3.59,3.59,0,0,0,3.57,3.72A3.53,3.53,0,0,0,30.77,13.21Z"/><path style="fill:#fff;" d="M35.6,13.21v0A5.31,5.31,0,0,1,41,7.75a5.45,5.45,0,0,1,4.11,1.63l-1.18,1.37A4.18,4.18,0,0,0,41,9.44a3.54,3.54,0,0,0-3.47,3.71v0A3.54,3.54,0,0,0,41,16.9a4.09,4.09,0,0,0,3-1.35l1.19,1.2a5.43,5.43,0,0,1-4.26,1.86A5.28,5.28,0,0,1,35.6,13.21Z"/></g></g></svg>