<svg xmlns="http://www.w3.org/2000/svg" viewBox="0 0 44.39 49.14"><g id="Layer_2" data-name="Layer 2"><g id="icons"><path style="fill:none;stroke:#8d9cb7;stroke-linecap:round;stroke-linejoin:round;stroke-width:4.49px;" d="M42.15,33.43V15.71a4.62,4.62,0,0,0-2.3-4L24.5,2.86a4.63,4.63,0,0,0-4.61,0L4.55,11.72a4.61,4.61,0,0,0-2.31,4V33.43a4.6,4.6,0,0,0,2.31,4l15.34,8.86a4.63,4.63,0,0,0,4.61,0l15.35-8.86A4.61,4.61,0,0,0,42.15,33.43Z"/><line style="fill:none;stroke:#8d9cb7;stroke-linecap:round;stroke-linejoin:round;stroke-width:4.49px;" x1="22.2" y1="14.25" x2="22.2" y2="24.57"/><line style="fill:none;stroke:#8d9cb7;stroke-linecap:round;stroke-linejoin:round;stroke-width:4.49px;" x1="13.26" y1="19.41" x2="22.2" y2="24.57"/><line style="fill:none;stroke:#8d9cb7;stroke-linecap:round;stroke-linejoin:round;stroke-width:4.49px;" x1="13.26" y1="29.73" x2="22.2" y2="24.57"/><line style="fill:none;stroke:#8d9cb7;stroke-linecap:round;stroke-linejoin:round;stroke-width:4.49px;" x1="22.2" y1="34.89" x2="22.2" y2="24.57"/><line style="fill:none;stroke:#8d9cb7;stroke-linecap:round;stroke-linejoin:round;stroke-width:4.49px;" x1="31.14" y1="29.73" x2="22.2" y2="24.57"/><line style="fill:none;stroke:#8d9cb7;stroke-linecap:round;stroke-linejoin:round;stroke-width:4.49px;" x1="31.14" y1="19.41" x2="22.2" y2="24.57"/></g></g></svg>