<?xml version="1.0" encoding="utf-8"?>
<svg xmlns="http://www.w3.org/2000/svg" viewBox="0 0 84.5 84.5">
  <title>email-ico</title>
  <g id="Layer_2" data-name="Layer 2">
    <g id="icons">
      <g id="_Group_" data-name="&lt;Group&gt;">
        <rect style="fill:#ff6d68;" width="84.5" height="84.5" rx="10" ry="10" />
      </g>
      <path style="fill:#fff;" d="M62.25,63.75h-40a1.5,1.5,0,0,1-1.5-1.5V35a1.5,1.5,0,0,1,3,0v25.7h37V35a1.5,1.5,0,0,1,3,0v27.2A1.5,1.5,0,0,1,62.25,63.75Z" />
      <path style="fill:#fff;" d="M42.25,52.81a1.5,1.5,0,0,1-.95-.34l-20-16.27a1.5,1.5,0,1,1,1.89-2.33l19.05,15.5L61.3,33.88a1.5,1.5,0,0,1,1.89,2.33l-20,16.27A1.5,1.5,0,0,1,42.25,52.81Z" />
      <path style="fill:#fff;" d="M42.25,43.52a1.5,1.5,0,0,1-.95-.34l-6.58-5.35a1.5,1.5,0,1,1,1.89-2.33l5.64,4.58,5.63-4.58a1.5,1.5,0,1,1,1.89,2.33l-6.58,5.35A1.5,1.5,0,0,1,42.25,43.52Z" />
      <path style="fill:#fff;" d="M22.25,63.75a1.5,1.5,0,0,1-1-2.59l15.4-14.68a1.5,1.5,0,1,1,2.07,2.17L23.28,63.33A1.5,1.5,0,0,1,22.25,63.75Z" />
      <path style="fill:#fff;" d="M62.25,63.75a1.5,1.5,0,0,1-1-.41L45.82,48.66a1.5,1.5,0,0,1,2.07-2.17l15.4,14.68a1.5,1.5,0,0,1-1,2.59Z" />
      <path style="fill:#fff;" d="M42.25,43.52a1.5,1.5,0,0,1-1.5-1.5V22.25a1.5,1.5,0,0,1,3,0V42A1.5,1.5,0,0,1,42.25,43.52Z" />
      <path style="fill:#fff;" d="M29.68,36.55H22.25a1.5,1.5,0,0,1,0-3h7.43a1.5,1.5,0,0,1,0,3Z" />
      <path style="fill:#fff;" d="M62.25,36.55H54.82a1.5,1.5,0,0,1,0-3h7.43a1.5,1.5,0,1,1,0,3Z" />
    </g>
  </g>
</svg>