<svg xmlns="http://www.w3.org/2000/svg" viewBox="0 0 153.02 153.02"><title>email-roll</title><g id="Layer_2" data-name="Layer 2"><g id="ICONS"><rect style="fill:#dee9f7;" width="153.02" height="153.02" rx="10"/><path style="fill:#57687f;" d="M42.67,113.6H53.05v2.2H45.13v3.64h7v2.2h-7v3.76h8v2.2H42.67Z"/><path style="fill:#57687f;" d="M57.57,113.6h2.62l4.26,6.62,4.26-6.62h2.62v14H68.87v-10l-4.42,6.6h-.08L60,117.6v10H57.57Z"/><path style="fill:#57687f;" d="M81.39,113.5h2.28l6.16,14.1h-2.6l-1.42-3.38H79.19l-1.44,3.38H75.23ZM84.91,122l-2.42-5.6-2.4,5.6Z"/><path style="fill:#57687f;" d="M93.87,113.6h2.46v14H93.87Z"/><path style="fill:#57687f;" d="M101.57,113.6H104v11.76h7.36v2.24h-9.82Z"/><path style="fill:#57687f;" d="M76.51,73.63a6.53,6.53,0,0,1-4.07-1.42L48.27,52.8a1.5,1.5,0,1,1,1.88-2.34L74.32,69.87a3.52,3.52,0,0,0,4.38,0l24.16-19.41a1.5,1.5,0,0,1,1.88,2.34L80.58,72.21A6.55,6.55,0,0,1,76.51,73.63Z"/><path style="fill:#57687f;" d="M76.51,61A4,4,0,0,1,74,60.06L66.1,53.65A1.5,1.5,0,0,1,68,51.32l7.89,6.41a1,1,0,0,0,1.26,0L85,51.32a1.5,1.5,0,1,1,1.89,2.33L79,60.06A4,4,0,0,1,76.51,61Z"/><path style="fill:#57687f;" d="M49.38,89.21a1.5,1.5,0,0,1-1-2.59L68.77,67.16a1.5,1.5,0,1,1,2.07,2.17L50.41,88.79A1.48,1.48,0,0,1,49.38,89.21Z"/><path style="fill:#57687f;" d="M103.75,89.32a1.52,1.52,0,0,1-1-.41L82.27,69.42a1.5,1.5,0,0,1,2.07-2.17l20.44,19.48a1.5,1.5,0,0,1-1,2.59Z"/><path style="fill:#57687f;" d="M76.51,60.24a1.5,1.5,0,0,1-1.5-1.5v-27a1.5,1.5,0,1,1,3,0v27A1.5,1.5,0,0,1,76.51,60.24Z"/><path style="fill:#57687f;" d="M100.27,90.78H52.74a6.51,6.51,0,0,1-6.5-6.5V55.15a6.51,6.51,0,0,1,6.5-6.5h5.69a1.5,1.5,0,0,1,0,3H52.74a3.5,3.5,0,0,0-3.5,3.5V84.28a3.5,3.5,0,0,0,3.5,3.5h47.53a3.5,3.5,0,0,0,3.5-3.5V55.15a3.5,3.5,0,0,0-3.5-3.5H94.59a1.5,1.5,0,0,1,0-3h5.68a6.51,6.51,0,0,1,6.5,6.5V84.28A6.51,6.51,0,0,1,100.27,90.78Z"/></g></g></svg>