<?xml version="1.0" encoding="utf-8"?>
<svg xmlns="http://www.w3.org/2000/svg" viewBox="0 0 210.56 270.33">
  <title>empty-page</title>
  <g id="Layer_2" data-name="Layer 2">
    <g id="icons">
      <g style="opacity:0.2;">
        <path style="fill:#7689a5;" d="M197.09,270.33h-9.91a3.47,3.47,0,0,1,0-6.94h10a3.47,3.47,0,0,1,.06,6.94Zm0-3.42v0Zm-24.82,3.42H162.4a3.47,3.47,0,1,1,0-6.94h9.91a3.47,3.47,0,0,1,0,6.94Zm-24.78,0h-9.91a3.47,3.47,0,0,1,0-6.94h9.91a3.47,3.47,0,0,1,0,6.94Zm-24.78,0h-9.91a3.47,3.47,0,0,1,0-6.94h9.91a3.47,3.47,0,0,1,0,6.94Zm-24.78,0H88.06a3.47,3.47,0,0,1,0-6.94H98a3.47,3.47,0,1,1,0,6.94Zm-24.78,0H63.28a3.47,3.47,0,0,1,0-6.94h9.91a3.47,3.47,0,0,1,0,6.94Zm-24.78,0H38.5a3.47,3.47,0,0,1,0-6.94h9.91a3.47,3.47,0,0,1,0,6.94Zm-24.78,0H13.72a3.47,3.47,0,0,1,0-6.94h9.91a3.47,3.47,0,1,1,0,6.94Zm-20.11-8.9a3.47,3.47,0,0,1-3.45-3.1A14,14,0,0,1,0,256.87V248a3.47,3.47,0,0,1,6.94,0v8.81a6.94,6.94,0,0,0,0,.72,3.47,3.47,0,0,1-3.08,3.82Zm203.54-.29h-.28a3.47,3.47,0,0,1-3.18-3.74c0-.17,0-.35,0-.53v-9.1a3.47,3.47,0,0,1,6.94,0v9.1c0,.37,0,.73,0,1.08A3.47,3.47,0,0,1,207.06,261.14ZM3.47,236.65A3.47,3.47,0,0,1,0,233.18v-9.91a3.47,3.47,0,0,1,6.94,0v9.91A3.47,3.47,0,0,1,3.47,236.65Zm203.62-.29a3.47,3.47,0,0,1-3.47-3.47V223a3.47,3.47,0,0,1,6.94,0v9.91A3.47,3.47,0,0,1,207.09,236.36ZM3.47,211.87A3.47,3.47,0,0,1,0,208.4v-9.91a3.47,3.47,0,0,1,6.94,0v9.91A3.47,3.47,0,0,1,3.47,211.87Zm203.62-.29a3.47,3.47,0,0,1-3.47-3.47V198.2a3.47,3.47,0,0,1,6.94,0v9.91A3.47,3.47,0,0,1,207.09,211.58ZM3.47,187.09A3.47,3.47,0,0,1,0,183.62v-9.91a3.47,3.47,0,0,1,6.94,0v9.91A3.47,3.47,0,0,1,3.47,187.09Zm203.62-.29a3.47,3.47,0,0,1-3.47-3.47v-9.91a3.47,3.47,0,0,1,6.94,0v9.91A3.47,3.47,0,0,1,207.09,186.8ZM3.47,162.31A3.47,3.47,0,0,1,0,158.84v-9.91a3.47,3.47,0,0,1,6.94,0v9.91A3.47,3.47,0,0,1,3.47,162.31ZM207.09,162a3.47,3.47,0,0,1-3.47-3.47v-9.91a3.47,3.47,0,0,1,6.94,0v9.91A3.47,3.47,0,0,1,207.09,162ZM3.47,137.53A3.47,3.47,0,0,1,0,134.06v-9.91a3.47,3.47,0,0,1,6.94,0v9.91A3.47,3.47,0,0,1,3.47,137.53Zm203.62-.29a3.47,3.47,0,0,1-3.47-3.47v-9.91a3.47,3.47,0,0,1,6.94,0v9.91A3.47,3.47,0,0,1,207.09,137.24ZM3.47,112.75A3.47,3.47,0,0,1,0,109.28V99.37a3.47,3.47,0,0,1,6.94,0v9.91A3.47,3.47,0,0,1,3.47,112.75Zm203.62-.29a3.47,3.47,0,0,1-3.47-3.47V99.08a3.47,3.47,0,1,1,6.94,0V109A3.47,3.47,0,0,1,207.09,112.46ZM3.47,88A3.47,3.47,0,0,1,0,84.5V74.59a3.47,3.47,0,0,1,6.94,0V84.5A3.47,3.47,0,0,1,3.47,88Zm203.62-.29a3.47,3.47,0,0,1-3.47-3.47V74.3a3.47,3.47,0,0,1,6.94,0v9.91A3.47,3.47,0,0,1,207.09,87.68ZM3.47,63.19A3.47,3.47,0,0,1,0,59.72V49.81a3.47,3.47,0,0,1,6.94,0v9.91A3.47,3.47,0,0,1,3.47,63.19Zm203.62-.29a3.47,3.47,0,0,1-3.47-3.47V49.52a3.47,3.47,0,1,1,6.94,0v9.91A3.47,3.47,0,0,1,207.09,62.9ZM3.47,38.41A3.47,3.47,0,0,1,0,34.94V25a3.47,3.47,0,0,1,6.94,0v9.91A3.47,3.47,0,0,1,3.47,38.41Zm203.62-.29a3.47,3.47,0,0,1-3.47-3.47V24.74a3.47,3.47,0,1,1,6.94,0v9.91A3.47,3.47,0,0,1,207.09,38.12ZM4,13.7A3.47,3.47,0,0,1,.72,9.1,13.42,13.42,0,0,1,10.14.42a3.47,3.47,0,1,1,1.71,6.72,6.59,6.59,0,0,0-4.56,4.21A3.47,3.47,0,0,1,4,13.7Zm202.45-.28a3.47,3.47,0,0,1-3.25-2.25,6.59,6.59,0,0,0-4.68-4.08A3.47,3.47,0,1,1,200,.32a13.42,13.42,0,0,1,9.67,8.41,3.47,3.47,0,0,1-3.25,4.69Zm-22-6.48h-9.91a3.47,3.47,0,0,1,0-6.94h9.91a3.47,3.47,0,0,1,0,6.94Zm-24.78,0h-9.91a3.47,3.47,0,0,1,0-6.94h9.91a3.47,3.47,0,0,1,0,6.94Zm-24.78,0H125A3.47,3.47,0,0,1,125,0h9.91a3.47,3.47,0,0,1,0,6.94Zm-24.78,0h-9.91a3.47,3.47,0,1,1,0-6.94h9.91a3.47,3.47,0,0,1,0,6.94Zm-24.78,0H75.4A3.47,3.47,0,0,1,75.4,0h9.91a3.47,3.47,0,0,1,0,6.94Zm-24.78,0H50.62a3.47,3.47,0,0,1,0-6.94h9.91a3.47,3.47,0,0,1,0,6.94Zm-24.78,0H25.84a3.47,3.47,0,0,1,0-6.94h9.91a3.47,3.47,0,0,1,0,6.94Z" />
      </g>
    </g>
  </g>
</svg>