<?xml version="1.0" encoding="utf-8"?>
<svg xmlns="http://www.w3.org/2000/svg" viewBox="0 0 40.17 44.11">
  <title>flash-burn</title>
  <g id="Layer_2" data-name="Layer 2">
    <g id="icons">
      <path style="fill:#72849e;" d="M22.52.74,13.2,17.88a.5.5,0,0,0,.44.74H25a.5.5,0,0,1,.37.83L3.55,43.94a.5.5,0,0,1-.84-.52L9.78,25.61a.5.5,0,0,0-.46-.68H.5A.5.5,0,0,1,0,24.27L8.21.34A.5.5,0,0,1,8.69,0H22.08A.5.5,0,0,1,22.52.74Z" />
      <path style="fill:#72849e;" d="M38.42,39.37c-.58-.72-.94-1.19-.93-1.73a6.53,6.53,0,0,1,.36-1.58c.53-1.72,1.32-4.31-2.62-5.75a.9.9,0,0,0-1,.23.8.8,0,0,0-.19.64,2.88,2.88,0,0,1-.24,2.08.39.39,0,0,1-.33.14h-.12a.37.37,0,0,1-.31-.43c0-.2.09-.44.14-.63a5.43,5.43,0,0,0-.11-3.76,5.87,5.87,0,0,0-5.64-3.26l-.64,0a.8.8,0,0,0-.68.47.92.92,0,0,0,.15.93,6.33,6.33,0,0,1,.94,4.59,3.19,3.19,0,0,1-.61,1.75.93.93,0,0,1-.55.22,2,2,0,0,1-.76-.25,3.74,3.74,0,0,0-1.62-.44,3.05,3.05,0,0,0-1.14.23.82.82,0,0,0-.52.68.83.83,0,0,0,.37.78,2.2,2.2,0,0,1,.3,2.4,2.44,2.44,0,0,1-.51.57A4.46,4.46,0,0,0,20.56,41,7.07,7.07,0,0,0,21,43.5a.9.9,0,0,0,1,.61c.45-.07.44-.68,1.27-.72s.63.08,1,.4a1.1,1.1,0,0,0,.33.2,1,1,0,0,0,.7,0,.92.92,0,0,0,.28-.17,2,2,0,0,1,.28-.21,1,1,0,0,0,.45-1,3.23,3.23,0,0,1,0-.46c0-1.47,1.28-1.78,2.19-2.72.52-.54.72-2.19,1.24-2.44.08,0,.15,0,.14,0a8.23,8.23,0,0,1-.51,3.34,1.89,1.89,0,0,0,.15,1.86,2.37,2.37,0,0,0,2,1.21,2.12,2.12,0,0,0,1.74-.86c.13-.17.51-1.41.59-1.61s.23-.17.27,0a11.36,11.36,0,0,1-.26,2.11v.06a.88.88,0,0,0,.22.68,1,1,0,0,0,.71.31h4.52a.91.91,0,0,0,.68-.3,1,1,0,0,0,.25-.76A6.47,6.47,0,0,0,38.42,39.37Z" />
    </g>
  </g>
</svg>