<?xml version="1.0" encoding="utf-8"?>
<svg xmlns="http://www.w3.org/2000/svg" viewBox="0 0 39.74 44.9">
  <title>flash-sun</title>
  <g id="Layer_2" data-name="Layer 2">
    <g id="icons">
      <path style="fill:#72849e;" d="M22.52.74,13.2,17.88a.5.5,0,0,0,.44.74H25a.5.5,0,0,1,.37.83L3.55,43.94a.5.5,0,0,1-.84-.52L9.78,25.61a.5.5,0,0,0-.46-.68H.5A.5.5,0,0,1,0,24.27L8.21.34A.5.5,0,0,1,8.69,0H22.08A.5.5,0,0,1,22.52.74Z" />
      <path style="fill:#72849e;" d="M29.11,44.9a.79.79,0,0,1-.79-.79V41.53a.79.79,0,1,1,1.57,0v2.58A.79.79,0,0,1,29.11,44.9Z" />
      <path style="fill:#72849e;" d="M29.11,27.8a.79.79,0,0,1-.79-.79V24.43a.79.79,0,1,1,1.57,0V27A.79.79,0,0,1,29.11,27.8Z" />
      <path style="fill:#72849e;" d="M24,29.93a.79.79,0,0,1-.56-.23l-1.83-1.83a.79.79,0,0,1,1.11-1.11l1.83,1.83A.79.79,0,0,1,24,29.93Z" />
      <path style="fill:#72849e;" d="M36.07,42a.79.79,0,0,1-.56-.23L33.68,40a.79.79,0,0,1,1.11-1.11l1.83,1.83A.79.79,0,0,1,36.07,42Z" />
      <path style="fill:#72849e;" d="M34.24,29.93a.79.79,0,0,1-.56-1.34l1.83-1.83a.79.79,0,0,1,1.11,1.11L34.8,29.7A.79.79,0,0,1,34.24,29.93Z" />
      <path style="fill:#72849e;" d="M22.15,42a.79.79,0,0,1-.56-1.34l1.83-1.83A.79.79,0,0,1,24.53,40L22.7,41.79A.79.79,0,0,1,22.15,42Z" />
      <path style="fill:#72849e;" d="M39,35.06H36.37a.79.79,0,0,1,0-1.58H39a.79.79,0,0,1,0,1.58Z" />
      <path style="fill:#72849e;" d="M21.85,35.06H19.27a.79.79,0,0,1,0-1.58h2.58a.79.79,0,0,1,0,1.58Z" />
      <path style="fill:#72849e;" d="M29.11,39.14A4.87,4.87,0,1,1,34,34.27,4.88,4.88,0,0,1,29.11,39.14Zm0-8.17a3.3,3.3,0,1,0,3.3,3.3A3.3,3.3,0,0,0,29.11,31Z" />
    </g>
  </g>
</svg>