<svg xmlns="http://www.w3.org/2000/svg" viewBox="0 0 101.33 101.33"><title>flash</title><g id="Layer_2" data-name="Layer 2"><g id="ICONS"><path style="fill:#fff;" d="M70.14,44.78H55.78a1.49,1.49,0,0,1-1.42-2L61.8,20a1.49,1.49,0,0,0-2.59-1.39L30,55.05a1.49,1.49,0,0,0,1.17,2.42H47a1.49,1.49,0,0,1,1.43,1.92l-6.53,22a1.49,1.49,0,0,0,2.62,1.32L71.33,47.17A1.49,1.49,0,0,0,70.14,44.78ZM84.33,0H17A17,17,0,0,0,0,17V84.33a17,17,0,0,0,17,17H84.33a17,17,0,0,0,17-17V17A17,17,0,0,0,84.33,0Zm13,84.33a13,13,0,0,1-13,13H17a13,13,0,0,1-13-13V17A13,13,0,0,1,17,4H84.33a13,13,0,0,1,13,13Z"/></g></g></svg>