<?xml version="1.0" encoding="utf-8"?>
<svg xmlns="http://www.w3.org/2000/svg" viewBox="0 0 39.04 44.11">
  <title>flash-auto</title>
  <g id="Layer_2" data-name="Layer 2">
    <g id="icons">
      <path style="fill:#72849e;" d="M22.52.74,13.2,17.88a.5.5,0,0,0,.44.74H25a.5.5,0,0,1,.37.83L3.55,43.94a.5.5,0,0,1-.84-.52L9.78,25.61a.5.5,0,0,0-.46-.68H.5A.5.5,0,0,1,0,24.27L8.21.34A.5.5,0,0,1,8.69,0H22.08A.5.5,0,0,1,22.52.74Z" />
      <path style="fill:#72849e;" d="M39,42.89l-8.12-18a.87.87,0,0,0-.79-.51H28.17a.87.87,0,0,0-.79.51l-8.12,18A.87.87,0,0,0,20,44.11h2.06a.87.87,0,0,0,.79-.51l1.88-4.2h8.57l1.86,4.19a.87.87,0,0,0,.79.52h2.16A.87.87,0,0,0,39,42.89Zm-7.17-7.05H26.35l2.73-6.07Z" />
    </g>
  </g>
</svg>