<svg xmlns="http://www.w3.org/2000/svg" viewBox="0 0 101.33 101.33"><title>no-flash</title><g id="Layer_2" data-name="Layer 2"><g id="ICONS"><path style="fill:#fff;" d="M70.14,42.78H56.48l7.22-22.2a3.49,3.49,0,0,0-6.05-3.26h0L28.47,53.8a3.49,3.49,0,0,0,2.73,5.67H46.31L40,80.84A3.44,3.44,0,0,0,41.75,85a3.52,3.52,0,0,0,1.59.39,3.46,3.46,0,0,0,2.77-1.4L72.93,48.38a3.5,3.5,0,0,0-2.79-5.6ZM44.6,79.29,50.34,60A3.5,3.5,0,0,0,47,55.47H32.25L59,22,52.46,42.21a3.49,3.49,0,0,0,3.32,4.57H69.12ZM84.33,0H17A17,17,0,0,0,0,17V84.33a17,17,0,0,0,17,17H84.33a17,17,0,0,0,17-17V17A17,17,0,0,0,84.33,0Zm13,84.33a13,13,0,0,1-13,13H17a13,13,0,0,1-13-13V17A13,13,0,0,1,17,4H84.33a13,13,0,0,1,13,13Z"/></g></g></svg>