<svg xmlns="http://www.w3.org/2000/svg" xmlns:xlink="http://www.w3.org/1999/xlink" viewBox="0 0 50 50"><defs><linearGradient id="linear-gradient" x1="25" y1="55.67" x2="25" y2="-0.57" gradientUnits="userSpaceOnUse"><stop offset="0" stop-color="#51a1e1"/><stop offset="1" stop-color="#5dbdda"/></linearGradient></defs><title>toggleCamer</title><g id="Layer_2" data-name="Layer 2"><g id="Layer_1-2" data-name="Layer 1"><circle style="fill:url(#linear-gradient);" cx="25" cy="25" r="25"/><path style="fill:none;stroke:#fff;stroke-linecap:round;stroke-linejoin:round;" d="M35.78,32.1V21.17a2,2,0,0,0-2-2H31.9A2.73,2.73,0,0,1,30,18.43l-1.4-1.32a4.41,4.41,0,0,0-3-1.21H24.4a4.41,4.41,0,0,0-3,1.21L20,18.43a2.73,2.73,0,0,1-1.88.75H16.22a2,2,0,0,0-2,2V32.1a2,2,0,0,0,2,2H33.78A2,2,0,0,0,35.78,32.1Z"/><line style="fill:none;stroke:#fff;stroke-linecap:round;stroke-linejoin:round;" x1="15.65" y1="17.19" x2="17.98" y2="17.19"/><polyline style="fill:none;stroke:#fff;stroke-linecap:round;stroke-linejoin:round;" points="23.01 20.88 25 22.87 23.01 24.87"/><path style="fill:none;stroke:#fff;stroke-linecap:round;stroke-linejoin:round;" d="M22.18,29.42a3.27,3.27,0,0,1,0-6.54H25"/><polyline style="fill:none;stroke:#fff;stroke-linecap:round;stroke-linejoin:round;" points="26.99 31.69 25 29.7 26.99 27.71"/><path style="fill:none;stroke:#fff;stroke-linecap:round;stroke-linejoin:round;" d="M27.82,23.16a3.27,3.27,0,1,1,0,6.54H25"/></g></g></svg>