<?xml version="1.0" encoding="utf-8"?>
<svg xmlns="http://www.w3.org/2000/svg" viewBox="0 0 51.05 51.05">
  <title>gallery-cam</title>
  <g id="Layer_2" data-name="Layer 2">
    <g id="icons">
      <path style="fill:#72849e;" d="M44.55,51.05H6.5A6.5,6.5,0,0,1,0,44.55V6.5A6.5,6.5,0,0,1,6.5,0H44.55a6.5,6.5,0,0,1,6.5,6.5V44.55A6.5,6.5,0,0,1,44.55,51.05ZM6.5,5A1.5,1.5,0,0,0,5,6.5V44.55a1.5,1.5,0,0,0,1.5,1.5H44.55a1.5,1.5,0,0,0,1.5-1.5V6.5A1.5,1.5,0,0,0,44.55,5Z" />
      <circle style="fill:#72849e;" cx="24.11" cy="15.9" r="5.22" />
      <path style="fill:#72849e;" d="M36.84,51.05a2.49,2.49,0,0,1-1.77-.73L15.83,31.07a.5.5,0,0,0-.71,0L4.27,41.93A2.5,2.5,0,0,1,.73,38.4L11.59,27.54a5.51,5.51,0,0,1,7.77,0L38.61,46.78a2.5,2.5,0,0,1-1.77,4.27Z" />
      <path style="fill:#72849e;" d="M25.07,39.28A2.5,2.5,0,0,1,23.31,35L36.21,22.11a5.51,5.51,0,0,1,7.77,0l6.3,6.3a2.5,2.5,0,1,1-3.53,3.53l-6.3-6.3a.5.5,0,0,0-.71,0L26.84,38.55A2.49,2.49,0,0,1,25.07,39.28Z" />
    </g>
  </g>
</svg>