<svg xmlns="http://www.w3.org/2000/svg" viewBox="0 0 465.6 150.96">
   <title>gallery</title>
   <g id="Layer_2" data-name="Layer 2">
      <g id="icons">
         <rect style="fill:#ff6d68;" width="465.6" height="150.96" rx="75.48" ry="75.48"/>
         <path style="fill:#fff;" d="M189.8,75.93v-.08a14.36,14.36,0,0,1,14.53-14.57,15.22,15.22,0,0,1,10.83,3.82L212,68.84a11,11,0,0,0-7.89-3c-5.19,0-9.14,4.55-9.14,9.94v.08c0,5.8,3.82,10.06,9.58,10.06a11.5,11.5,0,0,0,6.8-2.13V78.5h-7.21V74.19h12V86a18,18,0,0,1-11.75,4.39C195.6,90.42,189.8,84.14,189.8,75.93Z"/>
         <path style="fill:#fff;" d="M235.61,61.56h4.59l12.4,28.38h-5.23l-2.86-6.8H231.18l-2.9,6.8h-5.07Zm7.08,17.19-4.87-11.27L233,78.74Z"/>
         <path style="fill:#fff;" d="M260.44,61.76h5V85.42H280.2v4.51H260.44Z"/>
         <path style="fill:#fff;" d="M288.37,61.76h5V85.42h14.81v4.51H288.37Z"/>
         <path style="fill:#fff;" d="M316.3,61.76h20.89v4.43H321.25v7.33h14.13v4.43H321.25v7.57h16.14v4.43H316.3Z"/>
         <path style="fill:#fff;" d="M346.29,61.76h12.56c3.54,0,6.32,1,8.13,2.82a8.52,8.52,0,0,1,2.33,6.08v.08c0,4.63-2.78,7.41-6.68,8.53l7.61,10.67h-5.88l-6.92-9.82h-6.2v9.82h-5Zm12.2,14c3.54,0,5.8-1.85,5.8-4.71v-.08c0-3-2.17-4.67-5.84-4.67h-7.21v9.46Z"/>
         <path style="fill:#fff;" d="M385.69,78.82,374.5,61.76h5.88l7.85,12.44,8-12.44h5.68L390.68,78.7V89.93h-5Z"/>
         <rect style="fill:none;stroke:#fff;stroke-linecap:round;stroke-linejoin:round;stroke-width:4.57px;" x="76.18" y="48.07" width="54.83" height="54.83" rx="4.76" ry="4.76"/>
         <circle style="fill:#fff;" cx="101.91" cy="64.02" r="6.21"/>
         <path style="fill:#fff;" d="M76.18,92.91,89.11,80a3.57,3.57,0,0,1,5,0l22.91,22.91H80.94a4.76,4.76,0,0,1-4.76-4.76Z"/>
         <path style="fill:#fff;" d="M131,81l-7.5-7.5a3.57,3.57,0,0,0-5,0L108.12,83.82l9,19.07h9.14A4.76,4.76,0,0,0,131,98.13Z"/>
      </g>
   </g>
</svg>