<?xml version="1.0" encoding="utf-8"?>
<svg xmlns="http://www.w3.org/2000/svg" viewBox="0 0 39.72 39.72">
  <title>gallery-ico</title>
  <g id="Layer_2" data-name="Layer 2">
    <g id="icons">
      <path style="fill:#fff;" d="M35,39.72H4.71A4.72,4.72,0,0,1,0,35V4.71A4.72,4.72,0,0,1,4.71,0H35a4.72,4.72,0,0,1,4.71,4.71V35A4.72,4.72,0,0,1,35,39.72ZM4.71,3.06A1.66,1.66,0,0,0,3.05,4.71V35a1.66,1.66,0,0,0,1.66,1.65H35A1.66,1.66,0,0,0,36.66,35V4.71A1.66,1.66,0,0,0,35,3.06Z" />
      <circle style="fill:#fff;" cx="18.73" cy="12.19" r="4.15" />
      <path style="fill:#fff;" d="M1.53,31.51l8.64-8.64a2.39,2.39,0,0,1,3.38,0L28.87,38.19H4.71A3.19,3.19,0,0,1,1.53,35Z" />
      <path style="fill:#fff;" d="M38.17,23.56l-5-5a2.39,2.39,0,0,0-3.38,0l-6.89,6.89,6,12.75H35A3.19,3.19,0,0,0,38.17,35Z" />
    </g>
  </g>
</svg>