<svg xmlns="http://www.w3.org/2000/svg" xmlns:xlink="http://www.w3.org/1999/xlink" viewBox="0 0 178 178"><defs><linearGradient id="linear-gradient" x1="130.52" y1="192.16" x2="52.49" y2="-1.69" gradientUnits="userSpaceOnUse"><stop offset="0" stop-color="#ff5782"/><stop offset="1" stop-color="#ff6d68"/></linearGradient></defs><title>gallery</title><g id="Layer_2" data-name="Layer 2"><g id="ICONS"><circle style="fill:url(#linear-gradient);" cx="89" cy="89" r="89"/><path style="fill:#fff;" d="M97.83,117a2,2,0,0,1-1.64-.86L79.33,92a5.1,5.1,0,0,0-4.23-2.21h0A5.1,5.1,0,0,0,70.86,92L58.57,109.43a2,2,0,0,1-3.27-2.3L67.58,89.65a9.19,9.19,0,0,1,7.51-3.9h0a9.17,9.17,0,0,1,7.51,3.92L99.47,113.8A2,2,0,0,1,97.83,117Z"/><path style="fill:#fff;" d="M118.56,115.16a2,2,0,0,1-1.64-.86L106.64,99.6a5.09,5.09,0,0,0-4.23-2.22h0a5.12,5.12,0,0,0-4.24,2.21L93,106.9a2,2,0,1,1-3.27-2.29l5.13-7.32a9.16,9.16,0,0,1,7.51-3.91h0a9.16,9.16,0,0,1,7.5,3.93L120.2,112a2,2,0,0,1-.5,2.78A1.92,1.92,0,0,1,118.56,115.16Z"/><path style="fill:#fff;" d="M107.15,76.5a5.91,5.91,0,1,1-5.91-5.92A5.91,5.91,0,0,1,107.15,76.5Z"/><path style="fill:#fff;" d="M115.41,118.61H62.58A7.65,7.65,0,0,1,54.94,111V67.13a7.65,7.65,0,0,1,7.64-7.65h52.83a7.66,7.66,0,0,1,7.65,7.65V111A7.66,7.66,0,0,1,115.41,118.61ZM62.58,63.48a3.64,3.64,0,0,0-3.64,3.65V111a3.64,3.64,0,0,0,3.64,3.65h52.83a3.64,3.64,0,0,0,3.65-3.65V67.13a3.64,3.64,0,0,0-3.65-3.65Z"/></g></g></svg>