<?xml version="1.0" encoding="utf-8"?>
<svg xmlns="http://www.w3.org/2000/svg" viewBox="0 0 311.32 115.05">
  <title>gallery-btn</title>
  <g id="Layer_2" data-name="Layer 2">
    <g id="icons">
      <rect style="fill:#ff6d68;" width="311.32" height="115.05" rx="40" ry="40" />
      <path style="fill:#fff;" d="M126.91,57.82v-.05A9.6,9.6,0,0,1,136.63,48a10.18,10.18,0,0,1,7.24,2.56l-2.1,2.5a7.38,7.38,0,0,0-5.28-2,6.37,6.37,0,0,0-6.11,6.65v.05c0,3.88,2.56,6.73,6.41,6.73a7.69,7.69,0,0,0,4.55-1.43V59.55h-4.82V56.67h8v7.91a12,12,0,0,1-7.86,2.93A9.35,9.35,0,0,1,126.91,57.82Z" />
      <path style="fill:#fff;" d="M157.54,48.21h3.07l8.29,19h-3.5l-1.91-4.55h-8.91l-1.94,4.55h-3.39Zm4.74,11.49L159,52.17l-3.23,7.54Z" />
      <path style="fill:#fff;" d="M174.14,48.35h3.31V64.18h9.91v3H174.14Z" />
      <path style="fill:#fff;" d="M192.82,48.35h3.31V64.18H206v3H192.82Z" />
      <path style="fill:#fff;" d="M211.5,48.35h14v3H214.81v4.9h9.45v3h-9.45v5.06H225.6v3H211.5Z" />
      <path style="fill:#fff;" d="M231.55,48.35h8.4a7.59,7.59,0,0,1,5.44,1.88,5.69,5.69,0,0,1,1.56,4.06v.05a5.66,5.66,0,0,1-4.47,5.71l5.09,7.13h-3.93L239,60.62h-4.14v6.57h-3.31Zm8.16,9.34c2.37,0,3.88-1.24,3.88-3.15v-.05c0-2-1.45-3.12-3.9-3.12h-4.82v6.33Z" />
      <path style="fill:#fff;" d="M257.89,59.76l-7.48-11.41h3.93l5.25,8.32,5.33-8.32h3.8l-7.48,11.33v7.51h-3.34Z" />
      <path style="fill:#fff;" d="M84.42,77.38H54.12a4.72,4.72,0,0,1-4.71-4.71V42.38a4.72,4.72,0,0,1,4.71-4.71h30.3a4.72,4.72,0,0,1,4.71,4.71V72.67A4.72,4.72,0,0,1,84.42,77.38ZM54.12,40.72a1.66,1.66,0,0,0-1.66,1.65v30.3a1.66,1.66,0,0,0,1.66,1.65H84.42a1.66,1.66,0,0,0,1.66-1.66V42.38a1.66,1.66,0,0,0-1.66-1.65Z" />
      <circle style="fill:#fff;" cx="68.14" cy="49.86" r="4.15" />
      <path style="fill:#fff;" d="M50.94,69.18l8.64-8.64a2.39,2.39,0,0,1,3.38,0L78.28,75.86H54.12a3.19,3.19,0,0,1-3.19-3.19Z" />
      <path style="fill:#fff;" d="M87.58,61.22l-5-5a2.39,2.39,0,0,0-3.38,0L72.29,63.1l6,12.75h6.11a3.19,3.19,0,0,0,3.19-3.19Z" />
    </g>
  </g>
</svg>