<svg xmlns="http://www.w3.org/2000/svg" viewBox="0 0 164.27 164.27"><title>group</title><g id="Layer_2" data-name="Layer 2"><g id="ICONS"><path style="fill:#57687f;" d="M154.27,3a7,7,0,0,1,7,7V154.27a7,7,0,0,1-7,7H10a7,7,0,0,1-7-7V10a7,7,0,0,1,7-7H154.27m0-3H10A10,10,0,0,0,0,10V154.27a10,10,0,0,0,10,10H154.27a10,10,0,0,0,10-10V10a10,10,0,0,0-10-10Z"/><path style="fill:#57687f;" d="M39.58,129.52v0a7.65,7.65,0,0,1,7.75-7.77,8.13,8.13,0,0,1,5.78,2l-1.68,2a5.88,5.88,0,0,0-4.21-1.61,5.08,5.08,0,0,0-4.87,5.31v0a5,5,0,0,0,5.11,5.37,6.18,6.18,0,0,0,3.63-1.14v-2.82H47.25V128.6h6.39v6.31a9.55,9.55,0,0,1-6.27,2.34A7.46,7.46,0,0,1,39.58,129.52Z"/><path style="fill:#57687f;" d="M58.69,122h6.7a6,6,0,0,1,4.34,1.51A4.54,4.54,0,0,1,71,126.71v0a4.51,4.51,0,0,1-3.56,4.55l4,5.69H68.33l-3.69-5.24H61.33V137H58.69Zm6.51,7.45c1.88,0,3.09-1,3.09-2.51v0c0-1.61-1.16-2.49-3.12-2.49H61.33v5Z"/><path style="fill:#57687f;" d="M75.16,129.52v0a7.86,7.86,0,0,1,15.71,0v0a7.86,7.86,0,0,1-15.71,0Zm12.94,0v0a5.15,5.15,0,0,0-5.1-5.35,5.08,5.08,0,0,0-5.07,5.31v0A5.12,5.12,0,0,0,83,134.8,5.06,5.06,0,0,0,88.1,129.52Z"/><path style="fill:#57687f;" d="M95.45,130.62V122h2.64v8.55c0,2.79,1.44,4.27,3.8,4.27s3.78-1.39,3.78-4.16V122h2.64v8.53c0,4.48-2.53,6.74-6.46,6.74S95.45,135,95.45,130.62Z"/><path style="fill:#57687f;" d="M113.55,122h5.93c3.52,0,5.71,2,5.71,5v0c0,3.37-2.71,5.13-6,5.13h-3V137h-2.64Zm5.71,7.82c2,0,3.24-1.12,3.24-2.69v0c0-1.76-1.26-2.68-3.24-2.68h-3.07v5.41Z"/><path style="fill:#57687f;" d="M92.32,69.84A11.65,11.65,0,1,1,104,58.19,11.66,11.66,0,0,1,92.32,69.84Zm0-20.3A8.65,8.65,0,1,0,101,58.19,8.66,8.66,0,0,0,92.32,49.54Z"/><path style="fill:#57687f;" d="M108.73,93a1.5,1.5,0,0,1-1.5-1.5,14.92,14.92,0,0,0-29.82,0,1.5,1.5,0,0,1-3,0,17.92,17.92,0,0,1,35.82,0A1.5,1.5,0,0,1,108.73,93Z"/><path style="fill:#57687f;" d="M62.84,49.83a8.63,8.63,0,1,1,8.62-8.63A8.63,8.63,0,0,1,62.84,49.83Zm0-14.25a5.63,5.63,0,1,0,5.62,5.62A5.62,5.62,0,0,0,62.84,35.58Z"/><path style="fill:#57687f;" d="M74.35,68.46a1.5,1.5,0,0,1-1.5-1.5,10,10,0,0,0-20,0,1.5,1.5,0,0,1-3,0,13,13,0,0,1,26,0A1.5,1.5,0,0,1,74.35,68.46Z"/><path style="fill:#57687f;" d="M62.84,86.59a1.5,1.5,0,0,1-1.5-1.5V69.18a1.5,1.5,0,0,1,3,0V85.09A1.5,1.5,0,0,1,62.84,86.59Z"/><path style="fill:#57687f;" d="M70.79,78.64H54.88a1.5,1.5,0,0,1,0-3H70.79a1.5,1.5,0,0,1,0,3Z"/></g></g></svg>