<?xml version="1.0" encoding="utf-8"?>
<svg xmlns="http://www.w3.org/2000/svg" viewBox="0 0 51.26 51.27">
  <title>home-cam</title>
  <g id="Layer_2" data-name="Layer 2">
    <g id="icons">
      <path style="fill:#72849e;" d="M43.76,51.27H7.5A7.51,7.51,0,0,1,0,43.78V24.1a7.51,7.51,0,0,1,2.44-5.53L20.57,2A7.46,7.46,0,0,1,30.69,2L48.82,18.57a7.51,7.51,0,0,1,2.44,5.53V43.78A7.51,7.51,0,0,1,43.76,51.27ZM25.63,5a2.49,2.49,0,0,0-1.69.66L5.81,22.26A2.51,2.51,0,0,0,5,24.1V43.78a2.5,2.5,0,0,0,2.5,2.5H43.76a2.5,2.5,0,0,0,2.5-2.5V24.1a2.5,2.5,0,0,0-.81-1.84h0L27.32,5.67A2.49,2.49,0,0,0,25.63,5Z" />
      <path style="fill:#72849e;" d="M22.88,31.75h5.5a5,5,0,0,1,5,5v12a0,0,0,0,1,0,0H17.88a0,0,0,0,1,0,0v-12a5,5,0,0,1,5-5Z" />
      <path style="fill:#72849e;" d="M33.38,51.27H17.88a2.5,2.5,0,0,1-2.5-2.5v-12a7.51,7.51,0,0,1,7.5-7.5h5.5a7.51,7.51,0,0,1,7.5,7.5v12A2.5,2.5,0,0,1,33.38,51.27Zm-13-5h10.5V36.75a2.5,2.5,0,0,0-2.5-2.5h-5.5a2.5,2.5,0,0,0-2.5,2.5Z" />
    </g>
  </g>
</svg>