<?xml version="1.0" encoding="utf-8"?>
<svg xmlns="http://www.w3.org/2000/svg" viewBox="0 0 47.04 47.04">
  <title>invert</title>
  <g id="Layer_2" data-name="Layer 2">
    <g id="icons">
      <path style="fill:#5280df;" d="M23.52,36.35a1.74,1.74,0,0,1-1.46-.79L8.81,15.12a1.74,1.74,0,0,1,1.46-2.69H36.76a1.74,1.74,0,0,1,1.46,2.69L25,35.55A1.74,1.74,0,0,1,23.52,36.35Zm-10-20.43,10,15.48,10-15.48Z" />
      <polygon style="fill:#5280df;" points="23.52 34.6 23.52 14.18 10.28 14.18 23.52 34.6" />
      <g style="opacity:0.6;">
        <path style="fill:#5280df;" d="M40.94,47H6.1A6.1,6.1,0,0,1,0,40.94V6.1A6.1,6.1,0,0,1,6.1,0H40.94A6.1,6.1,0,0,1,47,6.1V40.94A6.1,6.1,0,0,1,40.94,47ZM6.1,3.48A2.62,2.62,0,0,0,3.48,6.1V40.94A2.62,2.62,0,0,0,6.1,43.55H40.94a2.62,2.62,0,0,0,2.61-2.61V6.1a2.62,2.62,0,0,0-2.61-2.61Z" />
      </g>
    </g>
  </g>
</svg>