<?xml version="1.0" encoding="utf-8"?>
<svg xmlns="http://www.w3.org/2000/svg" viewBox="0 0 77.79 77.79">
  <title>linked-in-ico</title>
  <g id="Layer_2" data-name="Layer 2">
    <g id="icons">
      <g id="_Group_" data-name="&lt;Group&gt;">
        <rect id="_Rectangle_" data-name="&lt;Rectangle&gt;" style="fill:#187fb8;" width="77.79" height="77.79" rx="10" ry="10" />
      </g>
      <g id="LinkedIn">
        <rect style="fill:#fff;" x="21.38" y="39.62" width="7.19" height="22.78" />
        <path style="fill:#fff;" d="M48.22,39.4c-4.12,0-6.7,2.23-7.18,3.79V39.62H33c.1,1.9,0,22.78,0,22.78H41V50.08a5.19,5.19,0,0,1,.18-1.86,4.11,4.11,0,0,1,3.89-2.79c2.8,0,4.08,2.11,4.08,5.19V62.4h8.15V49.74C57.34,42.68,53.33,39.4,48.22,39.4Z" />
        <path style="fill:#fff;" d="M24.84,28.87c-2.65,0-4.39,1.71-4.39,4a4,4,0,0,0,4.29,3.95h.05c2.7,0,4.39-1.75,4.39-4A4,4,0,0,0,24.84,28.87Z" />
      </g>
    </g>
  </g>
</svg>