<svg xmlns="http://www.w3.org/2000/svg" viewBox="0 0 59.79 59.79"><title>load-disabled</title><g id="Layer_2" data-name="Layer 2"><g id="icons"><g style="opacity:0.5;"><path style="fill:#fff;" d="M57.54,59.79H2.25A2.25,2.25,0,0,1,0,57.54V2.25A2.25,2.25,0,0,1,2.25,0H18.1A9.61,9.61,0,0,1,24,2.05L31.56,8A5.1,5.1,0,0,0,34.7,9.08H57.54a2.25,2.25,0,0,1,2.25,2.25v46.2A2.25,2.25,0,0,1,57.54,59.79Zm-53-4.5H55.29V13.58H34.7a9.61,9.61,0,0,1-5.93-2.05L21.24,5.59A5.09,5.09,0,0,0,18.1,4.5H4.5Z"/><path style="fill:#fff;" d="M57.54,27.16H2.25a2.25,2.25,0,0,1,0-4.5H57.54a2.25,2.25,0,0,1,0,4.5Z"/><rect style="fill:#fff;" x="15.39" y="34.95" width="19.79" height="11.73"/><path style="fill:#fff;" d="M35.18,48.93H15.39a2.25,2.25,0,0,1-2.25-2.25V34.95a2.25,2.25,0,0,1,2.25-2.25H35.18a2.25,2.25,0,0,1,2.25,2.25V46.68A2.25,2.25,0,0,1,35.18,48.93Zm-17.54-4.5H32.93V37.2H17.64Z"/></g></g></g></svg>