<?xml version="1.0" encoding="utf-8"?>
<svg xmlns="http://www.w3.org/2000/svg" viewBox="0 0 398.51 123.56">
  <title>load-default-btn</title>
  <g id="Layer_2" data-name="Layer 2">
    <g id="icons">
      <path style="fill:#7689a5;" d="M357.31,123.56H41.19A41.24,41.24,0,0,1,0,82.36V41.19A41.24,41.24,0,0,1,41.19,0H357.31a41.24,41.24,0,0,1,41.19,41.19V82.36A41.24,41.24,0,0,1,357.31,123.56ZM41.19,5.44A35.8,35.8,0,0,0,5.44,41.19V82.36a35.8,35.8,0,0,0,35.76,35.76H357.31a35.8,35.8,0,0,0,35.76-35.76V41.19A35.8,35.8,0,0,0,357.31,5.44Z" />
      <path style="fill:#5280df;" d="M63,50.23h4V69.44H79V73.1H63Z" />
      <path style="fill:#5280df;" d="M82.51,61.73v-.07a12,12,0,0,1,23.91-.06v.06a12,12,0,0,1-23.91.07Zm19.7,0v-.07a7.84,7.84,0,0,0-7.78-8.13c-4.54,0-7.71,3.63-7.71,8.07v.06a7.81,7.81,0,0,0,7.78,8.1A7.7,7.7,0,0,0,102.21,61.73Z" />
      <path style="fill:#5280df;" d="M119.58,50.07h3.72l10.06,23h-4.25l-2.32-5.52H116l-2.35,5.52h-4.12ZM125.33,64l-4-9.15L117.46,64Z" />
      <path style="fill:#5280df;" d="M138.92,50.23h8.53c7.19,0,12.15,4.93,12.15,11.37v.06c0,6.44-5,11.43-12.15,11.43h-8.53Zm4,3.66V69.44h4.51c4.8,0,7.94-3.23,7.94-7.71v-.07c0-4.48-3.14-7.77-7.94-7.77Z" />
      <path style="fill:#5280df;" d="M177.53,50.23h8.53c7.19,0,12.15,4.93,12.15,11.37v.06c0,6.44-5,11.43-12.15,11.43h-8.53Zm4,3.66V69.44h4.51c4.8,0,7.94-3.23,7.94-7.71v-.07c0-4.48-3.14-7.77-7.94-7.77Z" />
      <path style="fill:#5280df;" d="M204.71,50.23h17v3.59H208.73v5.95h11.47v3.59H208.73V69.5h13.1V73.1H204.71Z" />
      <path style="fill:#5280df;" d="M228.23,50.23h17v3.66h-13v6.24h11.53v3.66H232.25V73.1h-4Z" />
      <path style="fill:#5280df;" d="M256.78,50.07h3.72l10.06,23h-4.25L264,67.58H253.18l-2.35,5.52h-4.12ZM262.53,64l-4-9.15L254.65,64Z" />
      <path style="fill:#5280df;" d="M274.94,63.39V50.23h4v13c0,4.25,2.19,6.5,5.78,6.5s5.75-2.12,5.75-6.34V50.23h4v13c0,6.83-3.85,10.26-9.83,10.26S274.94,70,274.94,63.39Z" />
      <path style="fill:#5280df;" d="M301.66,50.23h4V69.44h12V73.1h-16Z" />
      <path style="fill:#5280df;" d="M325.86,54h-7.25V50.23h18.56V54h-7.25V73.1h-4.05Z" />
    </g>
  </g>
</svg>