<svg xmlns="http://www.w3.org/2000/svg" viewBox="0 0 87.66 87.66"><title>mail-ico</title><g id="Layer_2" data-name="Layer 2"><g id="ICONS"><circle style="fill:#69a2fd;" cx="43.83" cy="43.83" r="43.83"/><path style="fill:#fff;" d="M62.58,59H25.08a1.5,1.5,0,0,1-1.5-1.5V32a1.5,1.5,0,0,1,3,0V56h34.5V32a1.5,1.5,0,0,1,3,0v25.5A1.5,1.5,0,0,1,62.58,59Z"/><path style="fill:#fff;" d="M43.83,48.7a1.52,1.52,0,0,1-.95-.33L24.13,33.12A1.5,1.5,0,0,1,26,30.79l17.8,14.48,17.8-14.48a1.5,1.5,0,0,1,1.9,2.33L44.78,48.37A1.55,1.55,0,0,1,43.83,48.7Z"/><path style="fill:#fff;" d="M25.08,59a1.5,1.5,0,0,1-1-2.58L38.48,42.61a1.5,1.5,0,0,1,2.07,2.17L26.11,58.54A1.47,1.47,0,0,1,25.08,59Z"/><path style="fill:#fff;" d="M62.58,59a1.51,1.51,0,0,1-1-.41L47.11,44.78a1.5,1.5,0,1,1,2.07-2.17L63.61,56.37a1.49,1.49,0,0,1-1,2.58Z"/><path style="fill:#fff;" d="M62.58,33.45H25.08a1.5,1.5,0,1,1,0-3h37.5a1.5,1.5,0,1,1,0,3Z"/></g></g></svg>