<svg xmlns="http://www.w3.org/2000/svg" viewBox="0 0 116.88 116.88"><title>message</title><g id="Layer_2" data-name="Layer 2"><g id="ICONS"><circle style="fill:#69a2fd;" cx="58.44" cy="58.44" r="58.44"/><path style="fill:#fff;" d="M42.39,71a1.67,1.67,0,0,1-.61-.13,1.5,1.5,0,0,1-.89-1.37l0-7.78H36.44a4.51,4.51,0,0,1-4.5-4.5V36.47a4.51,4.51,0,0,1,4.5-4.5H70a4.51,4.51,0,0,1,4.5,4.5V57.23a4.51,4.51,0,0,1-4.5,4.5H53.29l-9.9,8.89A1.51,1.51,0,0,1,42.39,71Zm-6-36a1.5,1.5,0,0,0-1.5,1.5V57.23a1.5,1.5,0,0,0,1.5,1.5h5.92a1.51,1.51,0,0,1,1.5,1.49l0,5.93,7.84-7a1.48,1.48,0,0,1,1-.39H70a1.5,1.5,0,0,0,1.5-1.5V36.47A1.5,1.5,0,0,0,70,35Z"/><path style="fill:#fff;" d="M74.49,84.9a1.49,1.49,0,0,1-1-.38l-9.91-8.89H53.2a1.5,1.5,0,0,1,0-3h11a1.47,1.47,0,0,1,1,.38l7.84,7,0-5.93a1.51,1.51,0,0,1,1.5-1.49h6.92a.51.51,0,0,0,.5-.5V49.37a.51.51,0,0,0-.5-.5H73a1.5,1.5,0,0,1,0-3h8.47a3.5,3.5,0,0,1,3.5,3.5V72.13a3.5,3.5,0,0,1-3.5,3.5H76l0,7.78a1.5,1.5,0,0,1-.89,1.37A1.66,1.66,0,0,1,74.49,84.9Z"/><path style="fill:#fff;" d="M64.38,53.06H42a1.5,1.5,0,0,1,0-3H64.38a1.5,1.5,0,0,1,0,3Z"/><path style="fill:#fff;" d="M59.69,43.57H42a1.5,1.5,0,0,1,0-3H59.69a1.5,1.5,0,0,1,0,3Z"/></g></g></svg>