<svg xmlns="http://www.w3.org/2000/svg" viewBox="0 0 53.83 10">
   <title>quick-actions</title>
   <g id="Layer_2" data-name="Layer 2">
      <g id="ICONS">
         <g style="opacity:0.5;">
            <path style="fill:#57687f;" d="M5,10a4.59,4.59,0,0,1-1-.1,5,5,0,0,1-.93-.28,5.14,5.14,0,0,1-.87-.46A4.86,4.86,0,0,1,.84,7.78a5.14,5.14,0,0,1-.46-.87A5,5,0,0,1,.09,6,5.33,5.33,0,0,1,0,5,5.5,5.5,0,0,1,.09,4a5.26,5.26,0,0,1,.29-.93,5.46,5.46,0,0,1,.46-.86,4.57,4.57,0,0,1,.62-.76A5,5,0,0,1,2.22.85,4.55,4.55,0,0,1,3.09.38,5,5,0,0,1,4,.1a4.92,4.92,0,0,1,2,0,5.08,5.08,0,0,1,.94.28,4.79,4.79,0,0,1,.86.47,4.57,4.57,0,0,1,.76.62,5.19,5.19,0,0,1,.63.76,4.69,4.69,0,0,1,.45.86A4.54,4.54,0,0,1,9.9,4,5.52,5.52,0,0,1,10,5a5.34,5.34,0,0,1-.1,1,4.36,4.36,0,0,1-.29.93,4.48,4.48,0,0,1-.45.87,5.78,5.78,0,0,1-.63.76A5,5,0,0,1,5,10Z"/>
            <path style="fill:#57687f;" d="M21.91,5a5,5,0,0,1,5-5h0a5,5,0,0,1,5,5h0a5,5,0,0,1-5,5h0A5,5,0,0,1,21.91,5Z"/>
            <path style="fill:#57687f;" d="M48.83,10a4.59,4.59,0,0,1-1-.1,5,5,0,0,1-.93-.28,5.14,5.14,0,0,1-.87-.46,4.86,4.86,0,0,1-1.38-1.38,5.14,5.14,0,0,1-.46-.87A5,5,0,0,1,43.93,6a4.59,4.59,0,0,1-.1-1,4.73,4.73,0,0,1,.1-1,5.22,5.22,0,0,1,.28-.93,5.46,5.46,0,0,1,.46-.86,4.57,4.57,0,0,1,.62-.76,5,5,0,0,1,.76-.62,4,4,0,0,1,.87-.46A4.36,4.36,0,0,1,47.85.1a5,5,0,0,1,2,0,4.36,4.36,0,0,1,.93.29,4.19,4.19,0,0,1,.86.46A4.86,4.86,0,0,1,53,2.23a4.19,4.19,0,0,1,.46.86,4.54,4.54,0,0,1,.29.93,4.73,4.73,0,0,1,.1,1,4.59,4.59,0,0,1-.1,1,4.36,4.36,0,0,1-.29.93,4,4,0,0,1-.46.87,5,5,0,0,1-.62.76,4.57,4.57,0,0,1-.76.62,5.46,5.46,0,0,1-.86.46,5,5,0,0,1-.93.28A4.66,4.66,0,0,1,48.83,10Z"/>
         </g>
      </g>
   </g>
</svg>