<svg xmlns="http://www.w3.org/2000/svg" viewBox="0 0 153.02 153.02"><title>name-roll</title><g id="Layer_2" data-name="Layer 2"><g id="ICONS"><rect style="fill:#dee9f7;" width="153.02" height="153.02" rx="10"/><path style="fill:#57687f;" d="M44.88,113.6h2.28l7.5,9.68V113.6h2.42v14H55l-7.72-10v10H44.88Z"/><path style="fill:#57687f;" d="M67.14,113.5h2.28l6.16,14.1H73l-1.42-3.38H64.94L63.5,127.6H61ZM70.66,122l-2.42-5.6-2.4,5.6Z"/><path style="fill:#57687f;" d="M79.48,113.6H82.1l4.26,6.62,4.26-6.62h2.62v14H90.78v-10l-4.42,6.6h-.08L81.9,117.6v10H79.48Z"/><path style="fill:#57687f;" d="M98.34,113.6h10.38v2.2H100.8v3.64h7v2.2h-7v3.76h8v2.2H98.34Z"/><path style="fill:#57687f;" d="M100.21,90.64H52.81a6.5,6.5,0,0,1-6.5-6.5V36.74a6.51,6.51,0,0,1,6.5-6.5h47.4a6.51,6.51,0,0,1,6.5,6.5v47.4A6.51,6.51,0,0,1,100.21,90.64Zm-47.4-57.4a3.5,3.5,0,0,0-3.5,3.5v47.4a3.5,3.5,0,0,0,3.5,3.5h47.4a3.5,3.5,0,0,0,3.5-3.5V36.74a3.5,3.5,0,0,0-3.5-3.5Z"/><path style="fill:#57687f;" d="M76.51,60.66a9.78,9.78,0,1,1,9.77-9.78A9.79,9.79,0,0,1,76.51,60.66Zm0-16.55a6.78,6.78,0,1,0,6.77,6.77A6.78,6.78,0,0,0,76.51,44.11Z"/><path style="fill:#57687f;" d="M89.42,79.78a1.5,1.5,0,0,1-1.5-1.5,11.42,11.42,0,1,0-22.83,0,1.5,1.5,0,0,1-3,0,14.42,14.42,0,1,1,28.83,0A1.5,1.5,0,0,1,89.42,79.78Z"/></g></g></svg>