<?xml version="1.0" encoding="utf-8"?>
<svg version="1.1" id="Layer_1" xmlns="http://www.w3.org/2000/svg" xmlns:xlink="http://www.w3.org/1999/xlink" x="0px" y="0px"
    viewBox="0 0 53.77 26.08" style="enable-background:new 0 0 53.77 26.08;" xml:space="preserve">
<g>
   <g>
      <path style="fill:#00BFDB;" d="M51.3,26.1H2.5C1.1,26.1,0,25,0,23.6V2.5C0,1.1,1.1,0,2.5,0h48.8c1.4,0,2.5,1.1,2.5,2.5v21.1
         C53.8,25,52.6,26.1,51.3,26.1z"/>
   </g>
   <g>
      <path style="fill:#FFFFFF;" d="M8.2,9h1.4l4.5,5.8V9h1.5v8.4h-1.2l-4.6-6v6H8.2V9z"/>
      <path style="fill:#FFFFFF;" d="M17.3,13.2L17.3,13.2c0-2.4,1.8-4.4,4.4-4.4s4.4,2,4.4,4.3v0c0,2.4-1.8,4.3-4.4,4.3S17.3,15.6,17.3,13.2z
          M24.5,13.2L24.5,13.2c0-1.7-1.2-3-2.9-3s-2.8,1.3-2.8,3v0c0,1.6,1.2,3,2.9,3C23.4,16.2,24.5,14.9,24.5,13.2z"/>
      <path style="fill:#FFFFFF;" d="M27.9,9h1.4l4.5,5.8V9h1.5v8.4h-1.2l-4.6-6v6h-1.5V9z"/>
      <path style="fill:#FFFFFF;" d="M37.3,9h6.2v1.3h-4.7v2.2H43v1.3h-4.2v2.3h4.8v1.3h-6.3V9z"/>
   </g>
</g>
</svg>
