<?xml version="1.0" encoding="utf-8"?>
<svg xmlns="http://www.w3.org/2000/svg" viewBox="0 0 322.72 159.14">
  <title>ocr-btn</title>
  <g id="Layer_2" data-name="Layer 2">
    <g id="icons">
      <rect style="fill:#5280df;" x="3.5" y="3.5" width="315.72" height="152.14" rx="49.56" ry="49.56" />
      <path style="fill:#5280df;" d="M269.66,159.14H53.06A53.12,53.12,0,0,1,0,106.09v-53A53.12,53.12,0,0,1,53.06,0h216.6a53.12,53.12,0,0,1,53.06,53.06v53A53.12,53.12,0,0,1,269.66,159.14ZM53.06,7A46.11,46.11,0,0,0,7,53.06v53a46.11,46.11,0,0,0,46.06,46.06h216.6a46.11,46.11,0,0,0,46.06-46.06v-53A46.11,46.11,0,0,0,269.66,7Z" />
      <path style="fill:#fff;" d="M157.61,80.16v-.1a18.38,18.38,0,0,1,36.76-.1v.1a18.38,18.38,0,0,1-36.76.1Zm30.28,0v-.1c0-6.83-5-12.5-12-12.5S164.09,73.13,164.09,80v.1c0,6.83,5,12.45,12,12.45S187.89,87,187.89,80.16Z" />
      <path style="fill:#fff;" d="M202.8,80.16v-.1a17.79,17.79,0,0,1,18.13-18.18,18.32,18.32,0,0,1,13.76,5.47l-4,4.57c-2.81-2.61-5.82-4.37-9.84-4.37-6.68,0-11.6,5.52-11.6,12.4v.1c0,6.88,4.87,12.45,11.6,12.45C225.2,92.51,228,90.8,231,88l4,4c-3.67,3.82-7.68,6.23-14.26,6.23A17.68,17.68,0,0,1,202.8,80.16Z" />
      <path style="fill:#fff;" d="M243.93,62.48H259.6c4.42,0,7.88,1.31,10.14,3.51a10.63,10.63,0,0,1,2.91,7.58v.1c0,5.77-3.46,9.24-8.34,10.65l9.49,13.31h-7.33l-8.64-12.25H250.1V97.63h-6.18ZM259.14,79.9c4.42,0,7.23-2.31,7.23-5.87v-.1c0-3.77-2.71-5.83-7.28-5.83h-9V79.9Z" />
      <path style="fill:#b5e8a9;" d="M83,65.25H60.85a3.5,3.5,0,0,1,0-7H83a3.5,3.5,0,0,1,0,7Z" />
      <path style="fill:#b5e8a9;" d="M83,80.3H60.85a3.5,3.5,0,0,1,0-7H83a3.5,3.5,0,0,1,0,7Z" />
      <path style="fill:#fff;" d="M106.08,117.68H56.24A13.21,13.21,0,0,1,43,104.49V50.91a9.46,9.46,0,0,1,9.45-9.45H91.36a9.46,9.46,0,0,1,9.45,9.45V76.8a3.5,3.5,0,0,1-7,0V50.91a2.45,2.45,0,0,0-2.45-2.45H52.49A2.45,2.45,0,0,0,50,50.91v53.58a6.19,6.19,0,1,0,12.38,0V98a9.46,9.46,0,0,1,9.45-9.45h37.95A9.46,9.46,0,0,1,119.27,98v6.51A13.21,13.21,0,0,1,106.08,117.68Zm-38.19-7h38.19a6.2,6.2,0,0,0,6.19-6.19V98a2.45,2.45,0,0,0-2.45-2.45H71.88A2.45,2.45,0,0,0,69.43,98v6.51A13.11,13.11,0,0,1,67.88,110.68Z" />
    </g>
  </g>
</svg>