<svg xmlns="http://www.w3.org/2000/svg" viewBox="0 0 53.77 26.08"><g id="Layer_2" data-name="Layer 2"><g id="icons"><rect style="fill:#ff6d68;" width="53.77" height="26.08" rx="2.5"/><path style="fill:#fff;" d="M11.32,7.93h4.14c2.46,0,4,1.39,4,3.51v0c0,2.35-1.89,3.58-4.2,3.58H13.17v3.38H11.32Zm4,5.46c1.4,0,2.27-.78,2.27-1.88v0c0-1.23-.89-1.87-2.27-1.87H13.17v3.78Z"/><path style="fill:#fff;" d="M22.46,7.93h3.92A5.23,5.23,0,0,1,32,13.15v0a5.26,5.26,0,0,1-5.58,5.25H22.46Zm1.85,1.68v7.14h2.07A3.42,3.42,0,0,0,30,13.21v0a3.44,3.44,0,0,0-3.64-3.57Z"/><path style="fill:#fff;" d="M35.31,7.93h7.82V9.61h-6v2.86h5.29v1.68H37.16v4.28H35.31Z"/></g></g></svg>