<svg xmlns="http://www.w3.org/2000/svg" viewBox="0 0 87.66 87.66"><title>phone-ico</title><g id="Layer_2" data-name="Layer 2"><g id="ICONS"><circle style="fill:#69a2fd;" cx="43.83" cy="43.83" r="43.83"/><path style="fill:#fff;" d="M50.06,64.05H37.59a6.51,6.51,0,0,1-6.5-6.5V30.11a6.51,6.51,0,0,1,6.5-6.5H50.06a6.5,6.5,0,0,1,6.5,6.5V57.55A6.5,6.5,0,0,1,50.06,64.05ZM37.59,26.61a3.5,3.5,0,0,0-3.5,3.5V57.55a3.5,3.5,0,0,0,3.5,3.5H50.06a3.5,3.5,0,0,0,3.5-3.5V30.11a3.5,3.5,0,0,0-3.5-3.5Z"/><path style="fill:#fff;" d="M43.83,58.93a2.53,2.53,0,1,1,2.52-2.53A2.52,2.52,0,0,1,43.83,58.93Z"/><path style="fill:#fff;" d="M46.2,31.63H41.46a1.5,1.5,0,0,1,0-3H46.2a1.5,1.5,0,0,1,0,3Z"/></g></g></svg>