<svg xmlns="http://www.w3.org/2000/svg" viewBox="0 0 76.85 76.84"><title>delete</title><g id="Layer_2" data-name="Layer 2"><g id="icons"><path style="fill:none;stroke:#5280df;stroke-linecap:round;stroke-linejoin:round;stroke-width:7px;" d="M27.87,3.5H49a9.36,9.36,0,0,1,9.36,9.36v4.92a0,0,0,0,1,0,0H18.5a0,0,0,0,1,0,0V12.86A9.36,9.36,0,0,1,27.87,3.5Z"/><path style="fill:none;stroke:#5280df;stroke-linecap:round;stroke-linejoin:round;stroke-width:7px;" d="M15.29,29.19V66.36a7,7,0,0,0,7,7h32.3a7,7,0,0,0,7-7V29.19"/><line style="fill:none;stroke:#5280df;stroke-linecap:round;stroke-linejoin:round;stroke-width:7px;" x1="3.5" y1="17.79" x2="73.35" y2="17.79"/><line style="fill:none;stroke:#5280df;stroke-linecap:round;stroke-linejoin:round;stroke-width:7px;" x1="29.98" y1="29.19" x2="29.98" y2="58.79"/><line style="fill:none;stroke:#5280df;stroke-linecap:round;stroke-linejoin:round;stroke-width:7px;" x1="46.87" y1="29.19" x2="46.87" y2="58.79"/></g></g></svg>