<svg xmlns="http://www.w3.org/2000/svg" viewBox="0 0 72.16 72.16"><g id="Layer_2" data-name="Layer 2"><g id="icons"><path style="fill:none;stroke:#57687f;stroke-linecap:round;stroke-linejoin:round;stroke-width:4.95px;" d="M25.92,2.47H46.24a9,9,0,0,1,9,9v4.74a0,0,0,0,1,0,0H16.91a0,0,0,0,1,0,0V11.49A9,9,0,0,1,25.92,2.47Z"/><path style="fill:none;stroke:#57687f;stroke-linecap:round;stroke-linejoin:round;stroke-width:4.95px;" d="M13.82,27.2V63a6.72,6.72,0,0,0,6.72,6.72H51.62A6.71,6.71,0,0,0,58.34,63V27.2"/><line style="fill:none;stroke:#57687f;stroke-linecap:round;stroke-linejoin:round;stroke-width:4.95px;" x1="2.47" y1="16.22" x2="69.69" y2="16.22"/><line style="fill:none;stroke:#57687f;stroke-linecap:round;stroke-linejoin:round;stroke-width:4.95px;" x1="27" y1="27.2" x2="27" y2="55.68"/><line style="fill:none;stroke:#57687f;stroke-linecap:round;stroke-linejoin:round;stroke-width:4.95px;" x1="45.17" y1="27.2" x2="45.17" y2="55.68"/></g></g></svg>