<?xml version="1.0" encoding="utf-8"?>
<svg xmlns="http://www.w3.org/2000/svg" viewBox="0 0 289.86 97.38">
  <title>remove-selected-btn</title>
  <g id="Layer_2" data-name="Layer 2">
    <g id="icons">
      <rect style="fill:#ff5e68;" width="289.86" height="97.38" rx="48.69" ry="48.69" />
      <path style="fill:#fff;" d="M86.73,26.62h7.82a7.06,7.06,0,0,1,5.06,1.75,5.3,5.3,0,0,1,1.45,3.78v0a5.27,5.27,0,0,1-4.16,5.31l4.74,6.64H98L93.67,38H89.81v6.11H86.73Zm7.59,8.69c2.21,0,3.61-1.15,3.61-2.93v-.05c0-1.88-1.35-2.91-3.63-2.91H89.81v5.89Z" />
      <path style="fill:#fff;" d="M106.72,26.62h13v2.76H109.8v4.56h8.79v2.76H109.8V41.4h10v2.76H106.72Z" />
      <path style="fill:#fff;" d="M125.39,26.62h3.28L134,34.91l5.34-8.29h3.28V44.15h-3.08V31.58L134,39.84h-.1l-5.49-8.22V44.15h-3Z" />
      <path style="fill:#fff;" d="M148.24,35.44v-.05a9.17,9.17,0,0,1,18.34,0v0a9.17,9.17,0,0,1-18.34.05Zm15.11,0v-.05a6,6,0,0,0-6-6.24,5.93,5.93,0,0,0-5.91,6.19v0a6,6,0,0,0,6,6.21A5.9,5.9,0,0,0,163.35,35.44Z" />
      <path style="fill:#fff;" d="M169.59,26.62H173l5.29,13.48,5.26-13.48h3.33l-7.27,17.66h-2.73Z" />
      <path style="fill:#fff;" d="M191.77,26.62h13v2.76h-9.92v4.56h8.79v2.76h-8.79V41.4h10v2.76H191.77Z" />
      <path style="fill:#fff;" d="M71.77,68.6l1.86-2.21a8.12,8.12,0,0,0,5.54,2.28c1.9,0,3.11-.9,3.11-2.21v0c0-1.25-.7-1.93-4-2.68-3.73-.9-5.84-2-5.84-5.24v-.05c0-3,2.5-5.09,6-5.09a9.72,9.72,0,0,1,6.37,2.21L83.17,57.9a8,8,0,0,0-4.76-1.8c-1.8,0-2.86.93-2.86,2.08v0c0,1.35.8,2,4.19,2.76,3.71.9,5.61,2.23,5.61,5.14v0c0,3.28-2.58,5.24-6.26,5.24A10.81,10.81,0,0,1,71.77,68.6Z" />
      <path style="fill:#fff;" d="M90.86,53.62h13v2.76H93.95v4.56h8.79v2.76H93.95V68.4h10v2.76H90.86Z" />
      <path style="fill:#fff;" d="M109.53,53.62h3.08V68.35h9.22v2.81h-12.3Z" />
      <path style="fill:#fff;" d="M126.92,53.62h13v2.76H130v4.56h8.79v2.76H130V68.4h10v2.76H126.92Z" />
      <path style="fill:#fff;" d="M144.81,62.44v-.05a8.87,8.87,0,0,1,9-9.07A9.14,9.14,0,0,1,160.72,56l-2,2.28a7,7,0,0,0-4.91-2.18A5.9,5.9,0,0,0,148,62.34v0a5.91,5.91,0,0,0,5.79,6.21,6.85,6.85,0,0,0,5-2.25l2,2a9.06,9.06,0,0,1-7.12,3.11A8.82,8.82,0,0,1,144.81,62.44Z" />
      <path style="fill:#fff;" d="M170.27,56.47h-5.56V53.62h14.23v2.86h-5.56V71.15h-3.11Z" />
      <path style="fill:#fff;" d="M184.07,53.62h13v2.76h-9.92v4.56h8.79v2.76h-8.79V68.4h10v2.76H184.07Z" />
      <path style="fill:#fff;" d="M202.74,53.62h6.54c5.51,0,9.32,3.78,9.32,8.72v0c0,4.94-3.81,8.77-9.32,8.77h-6.54Zm3.08,2.81V68.35h3.46a5.72,5.72,0,0,0,6.09-5.91v-.05a5.75,5.75,0,0,0-6.09-6Z" />
    </g>
  </g>
</svg>