<svg xmlns="http://www.w3.org/2000/svg" viewBox="0 0 153.02 153.02"><title>remove</title><g id="Layer_2" data-name="Layer 2"><g id="ICONS"><path style="fill:#57687f;" d="M143,3a7,7,0,0,1,7,7V143a7,7,0,0,1-7,7H10a7,7,0,0,1-7-7V10a7,7,0,0,1,7-7H143m0-3H10A10,10,0,0,0,0,10V143a10,10,0,0,0,10,10H143a10,10,0,0,0,10-10V10A10,10,0,0,0,143,0Z"/><path style="fill:#57687f;" d="M29.69,113.6h6.24a5.64,5.64,0,0,1,4,1.4,4.23,4.23,0,0,1,1.16,3v0a4.2,4.2,0,0,1-3.32,4.24l3.78,5.3H38.67l-3.44-4.88H32.15v4.88H29.69Zm6.06,6.94c1.76,0,2.88-.92,2.88-2.34v0c0-1.5-1.08-2.32-2.9-2.32H32.15v4.7Z"/><path style="fill:#57687f;" d="M45.65,113.6H56v2.2H48.11v3.64h7v2.2h-7v3.76h8v2.2H45.65Z"/><path style="fill:#57687f;" d="M60.55,113.6h2.62l4.26,6.62,4.26-6.62h2.62v14H71.85v-10l-4.42,6.6h-.08L63,117.6v10H60.55Z"/><path style="fill:#57687f;" d="M78.79,120.64v0a7.32,7.32,0,0,1,14.64,0v0a7.32,7.32,0,0,1-14.64,0Zm12.06,0v0a4.8,4.8,0,0,0-4.76-5,4.73,4.73,0,0,0-4.72,4.94v0a4.78,4.78,0,0,0,4.76,5A4.71,4.71,0,0,0,90.85,120.64Z"/><path style="fill:#57687f;" d="M95.83,113.6h2.72l4.22,10.76L107,113.6h2.66l-5.8,14.1h-2.18Z"/><path style="fill:#57687f;" d="M113.53,113.6h10.38v2.2H116v3.64h7v2.2h-7v3.76h8v2.2H113.53Z"/><path style="fill:#57687f;" d="M90.62,63.38H62.39a1.5,1.5,0,0,1,0-3H90.62a1.5,1.5,0,0,1,0,3Z"/><path style="fill:#57687f;" d="M76.51,92.15a30.27,30.27,0,1,1,30.26-30.27A30.31,30.31,0,0,1,76.51,92.15Zm0-57.54a27.27,27.27,0,1,0,27.26,27.27A27.3,27.3,0,0,0,76.51,34.61Z"/></g></g></svg>