<?xml version="1.0" encoding="utf-8"?>
<svg xmlns="http://www.w3.org/2000/svg" viewBox="0 0 289.86 97.38">
  <title>remove-all-btn</title>
  <g id="Layer_2" data-name="Layer 2">
    <g id="icons">
      <rect style="fill:#ff6d68;" width="289.86" height="97.38" rx="48.69" ry="48.69" />
      <path style="fill:#fff;" d="M53.6,40.25h7.82A7.06,7.06,0,0,1,66.48,42a5.3,5.3,0,0,1,1.45,3.78v0a5.27,5.27,0,0,1-4.16,5.31l4.74,6.64H64.85l-4.31-6.11H56.68v6.11H53.6Zm7.59,8.69c2.21,0,3.61-1.15,3.61-2.93V46c0-1.88-1.35-2.91-3.63-2.91H56.68v5.89Z" />
      <path style="fill:#fff;" d="M73.59,40.25h13V43H76.68v4.56h8.79v2.76H76.68V55h10v2.76H73.59Z" />
      <path style="fill:#fff;" d="M92.26,40.25h3.28l5.34,8.29,5.34-8.29h3.28V57.79h-3.08V45.21l-5.54,8.27h-.1l-5.49-8.22V57.79h-3Z" />
      <path style="fill:#fff;" d="M115.11,49.07V49a9.17,9.17,0,0,1,18.34,0v0a9.17,9.17,0,0,1-18.34.05Zm15.11,0V49a6,6,0,0,0-6-6.24A5.93,5.93,0,0,0,118.35,49v0a6,6,0,0,0,6,6.21A5.9,5.9,0,0,0,130.22,49.07Z" />
      <path style="fill:#fff;" d="M136.46,40.25h3.41l5.29,13.48,5.26-13.48h3.33l-7.27,17.66h-2.73Z" />
      <path style="fill:#fff;" d="M158.64,40.25h13V43h-9.92v4.56h8.79v2.76h-8.79V55h10v2.76H158.64Z" />
      <path style="fill:#fff;" d="M192.91,40.12h2.86l7.72,17.66h-3.26l-1.78-4.23h-8.29l-1.8,4.23H185.2Zm4.41,10.7-3-7-3,7Z" />
      <path style="fill:#fff;" d="M208.37,40.25h3.08V55h9.22v2.81h-12.3Z" />
      <path style="fill:#fff;" d="M225.76,40.25h3.08V55h9.22v2.81h-12.3Z" />
    </g>
  </g>
</svg>