<?xml version="1.0" encoding="utf-8"?>
<svg xmlns="http://www.w3.org/2000/svg" viewBox="0 0 47.04 47.04">
  <title>rotate</title>
  <g id="Layer_2" data-name="Layer 2">
    <g id="icons">
      <g style="opacity:0.6;">
        <path style="fill:#5280df;" d="M23.1,47A23.34,23.34,0,0,1,0,23.52,23.3,23.3,0,0,1,45.1,15.1a1.74,1.74,0,1,1-3.26,1.22A19.88,19.88,0,1,0,23.1,43.55,19.64,19.64,0,0,0,40,33.65a1.74,1.74,0,0,1,3,1.74A23.13,23.13,0,0,1,23.1,47Z" />
      </g>
      <path style="fill:#5280df;" d="M43.47,17.45h-.23l-14-1.83a1.74,1.74,0,0,1,.45-3.46L42,13.75l1.6-12.24A1.74,1.74,0,0,1,47,2l-1.83,14A1.74,1.74,0,0,1,43.47,17.45Z" />
    </g>
  </g>
</svg>