<svg xmlns="http://www.w3.org/2000/svg" viewBox="0 0 53.77 26.08"><g id="Layer_2" data-name="Layer 2"><g id="icons"><rect style="fill:#56d891;" width="53.77" height="26.08" rx="2.5"/><path style="fill:#fff;" d="M11.94,7.93h4.68a4.24,4.24,0,0,1,3,1.05,3.19,3.19,0,0,1,.87,2.26v0A3.15,3.15,0,0,1,18,14.45l2.83,4H18.67l-2.58-3.66H13.78v3.66H11.94Zm4.54,5.2c1.32,0,2.16-.69,2.16-1.75v0c0-1.13-.81-1.74-2.17-1.74H13.78v3.52Z"/><path style="fill:#fff;" d="M26.44,9.64H23.11V7.93h8.51V9.64H28.3v8.79H26.44Z"/><path style="fill:#fff;" d="M34.7,7.93h7.81V9.61h-6v2.86h5.3v1.68h-5.3v4.28H34.7Z"/></g></g></svg>