<svg xmlns="http://www.w3.org/2000/svg" viewBox="0 0 164.27 164.27"><title>contact</title><g id="Layer_2" data-name="Layer 2"><g id="ICONS"><path style="fill:#57687f;" d="M154.27,3a7,7,0,0,1,7,7V154.27a7,7,0,0,1-7,7H10a7,7,0,0,1-7-7V10a7,7,0,0,1,7-7H154.27m0-3H10A10,10,0,0,0,0,10V154.27a10,10,0,0,0,10,10H154.27a10,10,0,0,0,10-10V10a10,10,0,0,0-10-10Z"/><path style="fill:#57687f;" d="M16.86,129.52v0a7.61,7.61,0,0,1,7.75-7.77,7.83,7.83,0,0,1,5.89,2.34l-1.7,2a6,6,0,0,0-4.21-1.87,5.06,5.06,0,0,0-5,5.31v0a5.07,5.07,0,0,0,5,5.32,5.88,5.88,0,0,0,4.32-1.93l1.69,1.72a7.74,7.74,0,0,1-6.09,2.66A7.56,7.56,0,0,1,16.86,129.52Z"/><path style="fill:#57687f;" d="M33.89,129.52v0a7.86,7.86,0,0,1,15.72,0v0a7.86,7.86,0,0,1-15.72,0Zm13,0v0a5.16,5.16,0,0,0-5.11-5.35,5.08,5.08,0,0,0-5.07,5.31v0a5.13,5.13,0,0,0,5.11,5.32A5.06,5.06,0,0,0,46.84,129.52Z"/><path style="fill:#57687f;" d="M54.42,122h2.45l8.05,10.39V122h2.59v15H65.3L57,126.3V137h-2.6Z"/><path style="fill:#57687f;" d="M76.68,124.41H71.92V122H84.11v2.45H79.34V137H76.68Z"/><path style="fill:#57687f;" d="M91.91,121.86h2.44L101,137H98.17l-1.52-3.63H89.54L88,137H85.29ZM95.68,131l-2.59-6-2.58,6Z"/><path style="fill:#57687f;" d="M103.54,129.52v0a7.61,7.61,0,0,1,7.75-7.77,7.83,7.83,0,0,1,5.89,2.34l-1.7,2a6,6,0,0,0-4.21-1.87,5.06,5.06,0,0,0-5,5.31v0a5.07,5.07,0,0,0,5,5.32,5.88,5.88,0,0,0,4.32-1.93l1.69,1.72a7.74,7.74,0,0,1-6.09,2.66A7.56,7.56,0,0,1,103.54,129.52Z"/><path style="fill:#57687f;" d="M125.36,124.41h-4.77V122h12.2v2.45H128V137h-2.66Z"/><path style="fill:#57687f;" d="M135.86,134.8l1.59-1.89a6.91,6.91,0,0,0,4.74,2c1.63,0,2.66-.78,2.66-1.89v0c0-1.07-.6-1.65-3.39-2.29-3.2-.78-5-1.72-5-4.49v0c0-2.58,2.14-4.36,5.13-4.36a8.28,8.28,0,0,1,5.45,1.89l-1.41,2a6.9,6.9,0,0,0-4.08-1.54c-1.55,0-2.45.79-2.45,1.78v0c0,1.16.69,1.68,3.58,2.37,3.18.77,4.81,1.91,4.81,4.4v0c0,2.81-2.21,4.49-5.36,4.49A9.26,9.26,0,0,1,135.86,134.8Z"/><path style="fill:#57687f;" d="M82.14,97.35a1.49,1.49,0,0,1-1.06-.44l-9.44-9.44a1.5,1.5,0,0,1,2.12-2.12l8.38,8.37,8.38-8.37a1.49,1.49,0,0,1,2.12,0,1.51,1.51,0,0,1,0,2.12L83.2,96.91A1.53,1.53,0,0,1,82.14,97.35Z"/><path style="fill:#57687f;" d="M107.58,79.85H96.31a1.5,1.5,0,0,1,0-3h11.27A3.87,3.87,0,0,0,111.45,73V39.59a3.88,3.88,0,0,0-3.87-3.87H56.69a3.87,3.87,0,0,0-3.86,3.87V73a3.86,3.86,0,0,0,3.86,3.87H68a1.5,1.5,0,1,1,0,3H56.69A6.87,6.87,0,0,1,49.83,73V39.59a6.87,6.87,0,0,1,6.86-6.87h50.89a6.88,6.88,0,0,1,6.87,6.87V73A6.88,6.88,0,0,1,107.58,79.85Z"/><path style="fill:#57687f;" d="M82.14,97.35a1.5,1.5,0,0,1-1.5-1.5V78.35a1.5,1.5,0,0,1,3,0v17.5A1.51,1.51,0,0,1,82.14,97.35Z"/><path style="fill:#57687f;" d="M105.64,47.31H82.2a1.5,1.5,0,1,1,0-3h23.44a1.5,1.5,0,0,1,0,3Z"/><path style="fill:#57687f;" d="M105.64,57.62H82.2a1.5,1.5,0,0,1,0-3h23.44a1.5,1.5,0,0,1,0,3Z"/><path style="fill:#57687f;" d="M90.77,67.93H82.2a1.5,1.5,0,1,1,0-3h8.57a1.5,1.5,0,0,1,0,3Z"/><path style="fill:#57687f;" d="M66.15,55.31a6.2,6.2,0,1,1,6.19-6.19A6.2,6.2,0,0,1,66.15,55.31Zm0-9.39a3.2,3.2,0,1,0,3.19,3.2A3.2,3.2,0,0,0,66.15,45.92Z"/><path style="fill:#57687f;" d="M73.67,67.93a1.5,1.5,0,0,1-1.5-1.5,6,6,0,1,0-12,0,1.5,1.5,0,0,1-3,0,9,9,0,1,1,18,0A1.5,1.5,0,0,1,73.67,67.93Z"/></g></g></svg>