<svg xmlns="http://www.w3.org/2000/svg" viewBox="0 0 102.37 102.37">
   <title>save-xml-ann</title>
   <g id="Layer_2" data-name="Layer 2">
      <g id="icons">
         <path style="fill:#57687f;" d="M98.14,23.56l-21.5-20A13.23,13.23,0,0,0,67.6,0H3.79A3.79,3.79,0,0,0,0,3.79V98.58a3.79,3.79,0,0,0,3.79,3.79H98.58a3.79,3.79,0,0,0,3.79-3.79V33.27A13.31,13.31,0,0,0,98.14,23.56Zm-64.25-16H62.8V31.52H33.88Zm-8.77,87.2v-36H77.25v36Zm69.67,0h-10V55A3.79,3.79,0,0,0,81,51.18H21.33A3.79,3.79,0,0,0,17.54,55V94.79h-10V7.58h7.11V35.31a3.79,3.79,0,0,0,3.79,3.79h48.1a3.79,3.79,0,0,0,3.79-3.79v-27a5.68,5.68,0,0,1,1.09.78l21.5,20a5.7,5.7,0,0,1,1.81,4.16Z"/>
      </g>
   </g>
</svg>