<?xml version="1.0" encoding="utf-8"?>
<svg xmlns="http://www.w3.org/2000/svg" viewBox="0 0 103.41 182.82">
  <title>scroller</title>
  <g id="Layer_2" data-name="Layer 2">
    <g id="icons">
      <rect style="fill:#fff;" width="103.41" height="182.82" rx="51.7" ry="51.7" />
      <polygon style="fill:#7d899e;" points="76.99 68.16 64.35 53.5 51.7 38.85 39.06 53.5 26.42 68.16 51.7 54 76.99 68.16" />
      <path style="fill:#7d899e;" d="M77,72.16a4,4,0,0,1-2-.51L51.7,58.58,28.37,71.65a4,4,0,0,1-5-6.1L48.68,36.23a4,4,0,0,1,6.06,0L80,65.54a4,4,0,0,1-3,6.61ZM51.7,50a4,4,0,0,1,2,.51l5.47,3.06L51.7,45l-7.42,8.6,5.47-3.06A4,4,0,0,1,51.7,50Z" />
      <polygon style="fill:#7d899e;" points="26.42 114.66 39.06 129.32 51.7 143.97 64.35 129.32 76.99 114.66 51.7 128.82 26.42 114.66" />
      <path style="fill:#7d899e;" d="M51.7,148h0a4,4,0,0,1-3-1.39L23.39,117.28a4,4,0,0,1,5-6.1L51.7,124.24,75,111.17a4,4,0,0,1,5,6.1L54.73,146.59A4,4,0,0,1,51.7,148Zm-7.42-18.72,7.42,8.6,7.42-8.6-5.47,3.06a4,4,0,0,1-3.91,0Z" />
    </g>
  </g>
</svg>