<svg xmlns="http://www.w3.org/2000/svg" viewBox="0 0 47.04 47.04">
   <g id="Layer_2" data-name="Layer 2">
      <g id="icons">
         <path style="fill:#5280df;" d="M34.19,19.23a1.74,1.74,0,0,1-1.74-1.75V14.59H14.59v2.89a1.74,1.74,0,1,1-3.48,0V12.85a1.74,1.74,0,0,1,1.74-1.74H34.19a1.74,1.74,0,0,1,1.74,1.74v4.63A1.74,1.74,0,0,1,34.19,19.23Z"/>
         <path style="fill:#5280df;" d="M23.52,35.93a1.74,1.74,0,0,1-1.74-1.74V12.85a1.74,1.74,0,0,1,3.48,0V34.19A1.74,1.74,0,0,1,23.52,35.93Z"/>
         <path style="fill:#5280df;" d="M27.62,35.93H19.41a1.74,1.74,0,1,1,0-3.48h8.21a1.74,1.74,0,1,1,0,3.48Z"/>
         <g style="opacity:0.6;">
            <path style="fill:#5280df;" d="M40.94,47H6.1A6.11,6.11,0,0,1,0,40.94V6.1A6.11,6.11,0,0,1,6.1,0H40.94A6.11,6.11,0,0,1,47,6.1V40.94A6.11,6.11,0,0,1,40.94,47ZM6.1,3.48A2.63,2.63,0,0,0,3.48,6.1V40.94A2.62,2.62,0,0,0,6.1,43.55H40.94a2.61,2.61,0,0,0,2.61-2.61V6.1a2.62,2.62,0,0,0-2.61-2.62Z"/>
         </g>
      </g>
   </g>
</svg>