<?xml version="1.0" encoding="utf-8"?>
<svg xmlns="http://www.w3.org/2000/svg" viewBox="0 0 50.9 50.97">
  <title>selected-format</title>
  <g id="Layer_2" data-name="Layer 2">
    <g id="icons">
      <path style="fill:#ff5782;" d="M25.45,5.3a20.18,20.18,0,0,1,.77,40.35h-.77a20.18,20.18,0,0,1,0-40.35M27.72,0h0ZM25.45,0a25.48,25.48,0,0,0,0,51h.87a25.49,25.49,0,0,0-.87-51Zm0,0h0Zm.87,51h-.2c1.51,0,2.59,0,.2,0Zm-.2,0c-2.1,0-5,0-.67,0Z" />
      <path style="fill:#ff5782;" d="M25.45,13.61h0a11.88,11.88,0,0,0,0,23.75c3.66,0-3.66,0,0,0a11.88,11.88,0,0,0,0-23.76Z" />
    </g>
  </g>
</svg>