<?xml version="1.0" encoding="utf-8"?>
<svg xmlns="http://www.w3.org/2000/svg" viewBox="0 0 159.14 159.14">
  <title>select-area-btn</title>
  <g id="Layer_2" data-name="Layer 2">
    <g id="icons">
      <path style="fill:#7689a5;" d="M106.09,159.14h-53A53.12,53.12,0,0,1,0,106.09v-53A53.12,53.12,0,0,1,53.06,0h53a53.12,53.12,0,0,1,53.06,53.06v53A53.12,53.12,0,0,1,106.09,159.14ZM53.06,7A46.11,46.11,0,0,0,7,53.06v53a46.11,46.11,0,0,0,46.06,46.06h53a46.11,46.11,0,0,0,46.06-46.06v-53A46.11,46.11,0,0,0,106.09,7Z" />
      <path style="fill:#7689a5;" d="M58.57,71.77H50.5a9,9,0,0,1-9-9V50.5a9,9,0,0,1,9-9h15a3.5,3.5,0,0,1,0,7h-15a2,2,0,0,0-2,2V62.73a2,2,0,0,0,2,2h8.08a3.5,3.5,0,0,1,0,7Z" />
      <path style="fill:#7689a5;" d="M108.65,71.77h-8.08a3.5,3.5,0,0,1,0-7h8.08a2,2,0,0,0,2-2V50.5a2,2,0,0,0-2-2H90.88a3.5,3.5,0,0,1,0-7h17.77a9,9,0,0,1,9,9V62.73A9,9,0,0,1,108.65,71.77Z" />
      <path style="fill:#5280df;" d="M100.63,117.68H64a3.5,3.5,0,0,1-3.19-2.07L47,84.69a3.5,3.5,0,0,1,1.38-4.42L53.79,77a10.21,10.21,0,0,1,14.83,5.08L69,83.17V50.83a9.37,9.37,0,1,1,18.74,0v20l16.37,5.63a12.19,12.19,0,0,1,7.58,15.33L104,115.29A3.5,3.5,0,0,1,100.63,117.68Zm-34.35-7H98.1l7-21.06a5.17,5.17,0,0,0-3.22-6.5L83.14,76.69a3.5,3.5,0,0,1-2.36-3.31V50.83a2.37,2.37,0,1,0-4.74,0V94.09a5,5,0,0,1-9.64,1.78L62.08,84.56A3.2,3.2,0,0,0,57.42,83l-2.78,1.69Z" />
    </g>
  </g>
</svg>