<svg xmlns="http://www.w3.org/2000/svg" viewBox="0 0 59.75 59.75"><title>read-micr-disabled</title><g id="Layer_2" data-name="Layer 2"><g id="icons"><g style="opacity:0.5;"><path style="fill:#fff;" d="M57.5,59.75H2.25A2.25,2.25,0,0,1,0,57.5V2.25A2.25,2.25,0,0,1,2.25,0H57.5a2.25,2.25,0,0,1,2.25,2.25V57.5A2.25,2.25,0,0,1,57.5,59.75Zm-53-4.5H55.25V4.5H4.5Z"/><path style="fill:#fff;" d="M57.5,36.79H2.25a2.25,2.25,0,0,1,0-4.5H57.5a2.25,2.25,0,0,1,0,4.5Z"/><path style="fill:#fff;" d="M13.3,51a2.25,2.25,0,0,1-2.25-2.25V43.25a2.25,2.25,0,0,1,4.5,0v5.54A2.25,2.25,0,0,1,13.3,51Z"/><path style="fill:#fff;" d="M24.35,51a2.25,2.25,0,0,1-2.25-2.25V43.25a2.25,2.25,0,0,1,4.5,0v5.54A2.25,2.25,0,0,1,24.35,51Z"/><path style="fill:#fff;" d="M35.4,51a2.25,2.25,0,0,1-2.25-2.25V43.25a2.25,2.25,0,0,1,4.5,0v5.54A2.25,2.25,0,0,1,35.4,51Z"/><path style="fill:#fff;" d="M46.45,51a2.25,2.25,0,0,1-2.25-2.25V43.25a2.25,2.25,0,0,1,4.5,0v5.54A2.25,2.25,0,0,1,46.45,51Z"/><path style="fill:#fff;" d="M46.45,15.13H35.4a2.25,2.25,0,0,1,0-4.5H46.45a2.25,2.25,0,0,1,0,4.5Z"/><path style="fill:#fff;" d="M46.45,25.46H13.3a2.25,2.25,0,1,1,0-4.5H46.45a2.25,2.25,0,0,1,0,4.5Z"/></g></g></g></svg>