<svg xmlns="http://www.w3.org/2000/svg" xmlns:xlink="http://www.w3.org/1999/xlink" viewBox="0 0 120 120"><defs><linearGradient id="linear-gradient" x1="87.99" y1="129.54" x2="35.39" y2="-1.14" gradientUnits="userSpaceOnUse"><stop offset="0" stop-color="#896edb"/><stop offset="1" stop-color="#cb80e9"/></linearGradient></defs><title>settings-ico</title><g id="Layer_2" data-name="Layer 2"><g id="ICONS"><circle style="fill:url(#linear-gradient);" cx="60" cy="60" r="60"/><path style="fill:#fff;" d="M43.54,62H36a2,2,0,0,1,0-4h7.54a2,2,0,0,1,0,4Z"/><path style="fill:#fff;" d="M84,62H60a2,2,0,0,1,0-4H84a2,2,0,0,1,0,4Z"/><path style="fill:#fff;" d="M55.3,44.72H36a2,2,0,0,1,0-4H55.3a2,2,0,0,1,0,4Z"/><path style="fill:#fff;" d="M84,44.72H72.36a2,2,0,0,1,0-4H84a2,2,0,0,1,0,4Z"/><path style="fill:#fff;" d="M63,79.28H36a2,2,0,0,1,0-4H63a2,2,0,1,1,0,4Z"/><path style="fill:#fff;" d="M84,79.28H79.84a2,2,0,0,1,0-4H84a2,2,0,0,1,0,4Z"/><path style="fill:#fff;" d="M60,49.42a6.7,6.7,0,1,1,6.7-6.7A6.7,6.7,0,0,1,60,49.42ZM60,40a2.7,2.7,0,1,0,2.7,2.7A2.7,2.7,0,0,0,60,40Z"/><path style="fill:#fff;" d="M48.24,66.7a6.7,6.7,0,1,1,6.7-6.7A6.7,6.7,0,0,1,48.24,66.7Zm0-9.4a2.7,2.7,0,1,0,2.7,2.7A2.7,2.7,0,0,0,48.24,57.3Z"/><path style="fill:#fff;" d="M67.68,84a6.7,6.7,0,1,1,6.7-6.7A6.7,6.7,0,0,1,67.68,84Zm0-9.4a2.7,2.7,0,1,0,2.7,2.7A2.7,2.7,0,0,0,67.68,74.58Z"/></g></g></svg>