<svg xmlns="http://www.w3.org/2000/svg" viewBox="0 0 59.79 59.79"><title>settings</title><g id="Layer_2" data-name="Layer 2"><g id="icons"><path style="fill:#fff;" d="M29.89,39.26a9.37,9.37,0,1,1,9.37-9.37A9.38,9.38,0,0,1,29.89,39.26Zm0-14.24a4.87,4.87,0,1,0,4.87,4.87A4.87,4.87,0,0,0,29.89,25Z"/><path style="fill:#fff;" d="M33.26,59.79H26.53a2.25,2.25,0,0,1-2.15-1.6l-2.12-7q-1-.37-2-.84L13.79,53.8a2.25,2.25,0,0,1-2.65-.39L6.38,48.66A2.25,2.25,0,0,1,6,46l3.45-6.44q-.47-1-.84-2l-7-2.12A2.25,2.25,0,0,1,0,33.26V26.53a2.25,2.25,0,0,1,1.6-2.15l7-2.12q.37-1,.84-2L6,13.79a2.25,2.25,0,0,1,.39-2.65l4.75-4.75A2.25,2.25,0,0,1,13.79,6l6.44,3.45q1-.47,2-.84l2.12-7A2.25,2.25,0,0,1,26.53,0h6.72a2.25,2.25,0,0,1,2.15,1.6l2.12,7q1,.37,2,.84L46,6a2.25,2.25,0,0,1,2.65.39l4.75,4.75a2.25,2.25,0,0,1,.39,2.65l-3.45,6.44c.31.66.59,1.34.84,2l7,2.12a2.25,2.25,0,0,1,1.6,2.15v6.72a2.25,2.25,0,0,1-1.6,2.15l-7,2.12q-.37,1-.84,2L53.8,46a2.25,2.25,0,0,1-.39,2.65l-4.75,4.75A2.25,2.25,0,0,1,46,53.8l-6.44-3.45q-1,.47-2,.84l-2.12,7A2.25,2.25,0,0,1,33.26,59.79Zm-5.05-4.5h3.38l2-6.52a2.25,2.25,0,0,1,1.51-1.5,18.05,18.05,0,0,0,3.45-1.43,2.25,2.25,0,0,1,2.13,0l6,3.21L49,46.65l-3.21-6a2.25,2.25,0,0,1,0-2.13,18.07,18.07,0,0,0,1.43-3.45,2.25,2.25,0,0,1,1.5-1.51l6.52-2V28.2l-6.52-2a2.25,2.25,0,0,1-1.5-1.51,18.06,18.06,0,0,0-1.43-3.45,2.25,2.25,0,0,1,0-2.13l3.21-6-2.39-2.39-6,3.21a2.25,2.25,0,0,1-2.13,0,18,18,0,0,0-3.45-1.43A2.25,2.25,0,0,1,33.56,11l-2-6.51H28.2l-2,6.51a2.25,2.25,0,0,1-1.51,1.5,18,18,0,0,0-3.45,1.43,2.25,2.25,0,0,1-2.13,0l-6-3.21-2.39,2.39,3.21,6a2.25,2.25,0,0,1,0,2.13,18.08,18.08,0,0,0-1.43,3.45A2.25,2.25,0,0,1,11,26.23l-6.51,2v3.38l6.51,2a2.25,2.25,0,0,1,1.5,1.51,18.06,18.06,0,0,0,1.43,3.45,2.25,2.25,0,0,1,0,2.13l-3.21,6L13.13,49l6-3.21a2.25,2.25,0,0,1,2.13,0,18,18,0,0,0,3.45,1.43,2.25,2.25,0,0,1,1.51,1.5Zm29.34-22h0Z"/></g></g></svg>