<?xml version="1.0" encoding="utf-8"?>
<svg xmlns="http://www.w3.org/2000/svg" viewBox="0 0 159.14 159.14">
  <title>settings-btn</title>
  <g id="Layer_2" data-name="Layer 2">
    <g id="icons">
      <path style="fill:#7689a5;" d="M85.11,117.68H74a5.54,5.54,0,0,1-5.32-3.92L67,108.24a5.06,5.06,0,0,0-5.88-3.42l-5.78,1.27a5.55,5.55,0,0,1-6-2.65l-5.54-9.6a5.54,5.54,0,0,1,.74-6.56L48.46,83a5.05,5.05,0,0,0,0-6.8l-4-4.37a5.55,5.55,0,0,1-.71-6.54l5.54-9.6a5.54,5.54,0,0,1,6.05-2.65L61,54.36A5.05,5.05,0,0,0,66.93,51l1.79-5.64A5.55,5.55,0,0,1,74,41.46h11.1a5.55,5.55,0,0,1,5.31,3.88L92.22,51a5.06,5.06,0,0,0,5.9,3.38l5.64-1.28a5.54,5.54,0,0,1,6.05,2.65l5.54,9.6a5.55,5.55,0,0,1-.71,6.54l-4,4.37a5.05,5.05,0,0,0,0,6.8l3.93,4.24a5.54,5.54,0,0,1,.74,6.57l-5.54,9.6a5.55,5.55,0,0,1-6,2.65L98,104.82a5.05,5.05,0,0,0-5.87,3.42l-1.71,5.52A5.54,5.54,0,0,1,85.11,117.68Zm-10-7h9l1.4-4.51A12.1,12.1,0,0,1,99.51,98l4.75,1,4.49-7.78-3.21-3.47a12.1,12.1,0,0,1-.06-16.27l3.28-3.59-4.49-7.78-4.61,1A12.1,12.1,0,0,1,85.54,53.1l-1.47-4.64h-9L73.6,53.1a12.1,12.1,0,0,1-14.12,8.08l-4.61-1-4.49,7.78,3.28,3.59a12.1,12.1,0,0,1-.06,16.27l-3.21,3.47L54.88,99l4.75-1a12.09,12.09,0,0,1,14.06,8.19Zm34.2-41.86h0Z" />
      <path style="fill:#5280df;" d="M79.57,94.7A15.12,15.12,0,1,1,94.7,79.57a3.5,3.5,0,0,1-7,0,8.12,8.12,0,1,0-8.12,8.12,3.5,3.5,0,0,1,0,7Z" />
      <path style="fill:#7689a5;" d="M106.09,159.14h-53A53.12,53.12,0,0,1,0,106.09v-53A53.12,53.12,0,0,1,53.06,0h53a53.12,53.12,0,0,1,53.06,53.06v53A53.12,53.12,0,0,1,106.09,159.14ZM53.06,7A46.11,46.11,0,0,0,7,53.06v53a46.11,46.11,0,0,0,46.06,46.06h53a46.11,46.11,0,0,0,46.06-46.06v-53A46.11,46.11,0,0,0,106.09,7Z" />
    </g>
  </g>
</svg>