<svg xmlns="http://www.w3.org/2000/svg" viewBox="0 0 73.64 76.84"><title>settings</title><g id="Layer_2" data-name="Layer 2"><g id="icons"><path style="fill:none;stroke:#5280df;stroke-linecap:round;stroke-linejoin:round;stroke-width:7px;" d="M69.86,25.81l-5.59-9.69a2.08,2.08,0,0,0-2.27-1l-5.69,1.29a8.6,8.6,0,0,1-10.1-5.78L44.41,5a2.08,2.08,0,0,0-2-1.45H31.22a2.08,2.08,0,0,0-2,1.45l-1.81,5.69a8.6,8.6,0,0,1-10.1,5.78l-5.69-1.29a2.08,2.08,0,0,0-2.27,1L3.78,25.81A2.08,2.08,0,0,0,4,28.26l4,4.41A8.6,8.6,0,0,1,8,44.3l-4,4.28A2.08,2.08,0,0,0,3.79,51l5.59,9.69a2.08,2.08,0,0,0,2.25,1l5.83-1.28A8.6,8.6,0,0,1,27.52,66.3l1.73,5.57a2.08,2.08,0,0,0,2,1.47H42.41a2.08,2.08,0,0,0,2-1.47l1.73-5.57a8.6,8.6,0,0,1,10.06-5.86L62,61.72a2.08,2.08,0,0,0,2.25-1L69.86,51a2.08,2.08,0,0,0-.28-2.46l-4-4.28a8.6,8.6,0,0,1,0-11.64l4-4.41A2.08,2.08,0,0,0,69.86,25.81Z"/><path style="fill:none;stroke:#5280df;stroke-linecap:round;stroke-linejoin:round;stroke-width:7px;" d="M36.82,50.15A11.73,11.73,0,1,1,48.55,38.42"/></g></g></svg>