<svg xmlns="http://www.w3.org/2000/svg" xmlns:xlink="http://www.w3.org/1999/xlink" viewBox="0 0 120 120"><defs><linearGradient id="linear-gradient" x1="87.99" y1="129.54" x2="35.39" y2="-1.14" gradientUnits="userSpaceOnUse"><stop offset="0" stop-color="#ff5782"/><stop offset="1" stop-color="#ff6d68"/></linearGradient></defs><title>settings-ico_1</title><g id="Layer_2" data-name="Layer 2"><g id="ICONS"><circle style="fill:url(#linear-gradient);" cx="60" cy="60" r="60"/><path style="fill:#fff;" d="M60,68.18A8.18,8.18,0,1,1,68.18,60,8.19,8.19,0,0,1,60,68.18Zm0-12.36A4.18,4.18,0,1,0,64.18,60,4.18,4.18,0,0,0,60,55.82Z"/><path style="fill:#fff;" d="M62.92,86H57.08a2,2,0,0,1-1.91-1.42l-1.83-6c-.59-.21-1.17-.45-1.73-.71L46,80.8a2,2,0,0,1-2.36-.35l-4.13-4.13A2,2,0,0,1,39.2,74l3-5.57c-.26-.56-.5-1.14-.71-1.73l-6-1.83A2,2,0,0,1,34,62.92V57.08a2,2,0,0,1,1.42-1.91l6-1.83c.21-.59.45-1.17.71-1.73L39.2,46a2,2,0,0,1,.35-2.36l4.13-4.13A2,2,0,0,1,46,39.2l5.57,3c.56-.26,1.14-.5,1.73-.71l1.83-6A2,2,0,0,1,57.08,34h5.84a2,2,0,0,1,1.91,1.42l1.83,6c.59.21,1.17.45,1.73.71l5.57-3a2,2,0,0,1,2.36.35l4.13,4.13A2,2,0,0,1,80.8,46l-3,5.57c.26.56.5,1.14.71,1.73l6,1.83A2,2,0,0,1,86,57.08v5.84a2,2,0,0,1-1.42,1.91l-6,1.83c-.21.59-.45,1.17-.71,1.73l3,5.57a2,2,0,0,1-.35,2.36l-4.13,4.13A2,2,0,0,1,74,80.8l-5.57-3c-.56.26-1.14.5-1.73.71l-1.83,6A2,2,0,0,1,62.92,86Zm-4.36-4h2.88l1.7-5.62A2,2,0,0,1,64.48,75a15.7,15.7,0,0,0,3-1.24,2,2,0,0,1,1.9,0l5.17,2.77,2-2L73.8,69.36a2,2,0,0,1,0-1.89,15.7,15.7,0,0,0,1.24-3,2,2,0,0,1,1.34-1.34L82,61.43V58.57l-5.62-1.71A2,2,0,0,1,75,55.52a15.7,15.7,0,0,0-1.24-3,2,2,0,0,1,0-1.9l2.77-5.17-2-2L69.37,46.2a2,2,0,0,1-1.9,0,15.7,15.7,0,0,0-3-1.24,2,2,0,0,1-1.34-1.34L61.44,38H58.56l-1.7,5.62A2,2,0,0,1,55.52,45a15.44,15.44,0,0,0-3,1.24,2,2,0,0,1-1.9,0l-5.17-2.77-2,2,2.77,5.17a2,2,0,0,1,0,1.9,16.06,16.06,0,0,0-1.23,3,2,2,0,0,1-1.34,1.34L38,58.57v2.86l5.62,1.71A2,2,0,0,1,45,64.48a16.34,16.34,0,0,0,1.23,3,2,2,0,0,1,0,1.9l-2.77,5.17,2,2,5.17-2.77a2,2,0,0,1,1.9,0,15.7,15.7,0,0,0,3,1.24,2,2,0,0,1,1.34,1.34ZM84,62.92h0Z"/></g></g></svg>