<svg xmlns="http://www.w3.org/2000/svg" viewBox="0 0 164.27 164.27"><title>share</title><g id="Layer_2" data-name="Layer 2"><g id="ICONS"><path style="fill:#57687f;" d="M154.27,3a7,7,0,0,1,7,7V154.27a7,7,0,0,1-7,7H10a7,7,0,0,1-7-7V10a7,7,0,0,1,7-7H154.27m0-3H10A10,10,0,0,0,0,10V154.27a10,10,0,0,0,10,10H154.27a10,10,0,0,0,10-10V10a10,10,0,0,0-10-10Z"/><path style="fill:#57687f;" d="M41.37,134.8,43,132.91a7,7,0,0,0,4.75,2c1.63,0,2.66-.78,2.66-1.89v0c0-1.07-.6-1.65-3.39-2.29-3.2-.78-5-1.72-5-4.49v0c0-2.58,2.15-4.36,5.14-4.36a8.3,8.3,0,0,1,5.45,1.89l-1.42,2a6.86,6.86,0,0,0-4.08-1.54c-1.54,0-2.44.79-2.44,1.78v0c0,1.16.68,1.68,3.58,2.37,3.18.77,4.81,1.91,4.81,4.4v0c0,2.81-2.21,4.49-5.37,4.49A9.29,9.29,0,0,1,41.37,134.8Z"/><path style="fill:#57687f;" d="M57.73,122h2.65v6.25h7.17V122h2.64v15H67.55v-6.33H60.38V137H57.73Z"/><path style="fill:#57687f;" d="M81,121.86h2.45L90.05,137H87.26l-1.53-3.63h-7.1L77.08,137h-2.7ZM84.77,131l-2.6-6-2.58,6Z"/><path style="fill:#57687f;" d="M94.24,122h6.69a6,6,0,0,1,4.34,1.51,4.51,4.51,0,0,1,1.25,3.24v0A4.52,4.52,0,0,1,103,131.3L107,137h-3.13l-3.7-5.24h-3.3V137H94.24Zm6.5,7.45c1.89,0,3.09-1,3.09-2.51v0c0-1.61-1.16-2.49-3.11-2.49H96.88v5Z"/><path style="fill:#57687f;" d="M111.37,122h11.14v2.36H114v3.91h7.54v2.36H114v4h8.61V137H111.37Z"/><path style="fill:#57687f;" d="M106.79,97.2H57.49a7.67,7.67,0,0,1-7.67-7.66V40.24a7.68,7.68,0,0,1,7.67-7.66h49.3a7.67,7.67,0,0,1,7.66,7.66v49.3A7.67,7.67,0,0,1,106.79,97.2ZM57.49,35.58a4.67,4.67,0,0,0-4.67,4.66v49.3a4.67,4.67,0,0,0,4.67,4.66h49.3a4.66,4.66,0,0,0,4.66-4.66V40.24a4.66,4.66,0,0,0-4.66-4.66Z"/><path style="fill:#57687f;" d="M95.64,57.58a6.2,6.2,0,1,1,6.2-6.19A6.2,6.2,0,0,1,95.64,57.58Zm0-9.39a3.2,3.2,0,1,0,3.2,3.2A3.19,3.19,0,0,0,95.64,48.19Z"/><path style="fill:#57687f;" d="M68.63,71.09a6.2,6.2,0,1,1,6.2-6.2A6.2,6.2,0,0,1,68.63,71.09Zm0-9.39a3.2,3.2,0,1,0,3.2,3.19A3.19,3.19,0,0,0,68.63,61.7Z"/><path style="fill:#57687f;" d="M95.64,84.59a6.2,6.2,0,1,1,6.2-6.19A6.2,6.2,0,0,1,95.64,84.59Zm0-9.39a3.2,3.2,0,1,0,3.2,3.2A3.19,3.19,0,0,0,95.64,75.2Z"/><path style="fill:#57687f;" d="M72.83,64.29a1.5,1.5,0,0,1-.67-2.84l18.61-9.31a1.5,1.5,0,0,1,1.35,2.69L73.5,64.13A1.44,1.44,0,0,1,72.83,64.29Z"/><path style="fill:#57687f;" d="M91.45,77.8a1.44,1.44,0,0,1-.67-.16L72.16,68.33a1.5,1.5,0,0,1,1.34-2.68L92.12,75a1.5,1.5,0,0,1,.67,2A1.52,1.52,0,0,1,91.45,77.8Z"/></g></g></svg>