<svg xmlns="http://www.w3.org/2000/svg" viewBox="0 0 87.66 87.66"><title>share-ico</title><g id="Layer_2" data-name="Layer 2"><g id="ICONS"><circle style="fill:#69a2fd;" cx="43.83" cy="43.83" r="43.83"/><path style="fill:#fff;" d="M58.75,64H28.91a5.24,5.24,0,0,1-5.23-5.23V28.91a5.24,5.24,0,0,1,5.23-5.23H58.75A5.24,5.24,0,0,1,64,28.91V58.75A5.24,5.24,0,0,1,58.75,64ZM28.91,26.68a2.23,2.23,0,0,0-2.23,2.23V58.75A2.23,2.23,0,0,0,28.91,61H58.75A2.23,2.23,0,0,0,61,58.75V28.91a2.23,2.23,0,0,0-2.23-2.23Z"/><path style="fill:#fff;" d="M52,40a4.34,4.34,0,1,1,4.34-4.34A4.35,4.35,0,0,1,52,40Zm0-5.68a1.34,1.34,0,1,0,1.34,1.34A1.34,1.34,0,0,0,52,34.32Z"/><path style="fill:#fff;" d="M35.66,48.17A4.34,4.34,0,1,1,40,43.83,4.34,4.34,0,0,1,35.66,48.17Zm0-5.68A1.34,1.34,0,1,0,37,43.83,1.34,1.34,0,0,0,35.66,42.49Z"/><path style="fill:#fff;" d="M52,56.34A4.34,4.34,0,1,1,56.34,52,4.34,4.34,0,0,1,52,56.34Zm0-5.68A1.34,1.34,0,1,0,53.34,52,1.34,1.34,0,0,0,52,50.66Z"/><path style="fill:#fff;" d="M38.2,44.06a1.5,1.5,0,0,1-.67-2.84l11.26-5.64a1.5,1.5,0,0,1,1.34,2.69L38.87,43.9A1.5,1.5,0,0,1,38.2,44.06Z"/><path style="fill:#fff;" d="M49.46,52.23a1.5,1.5,0,0,1-.67-.16L37.52,46.44a1.5,1.5,0,1,1,1.35-2.68l11.26,5.63a1.49,1.49,0,0,1,.68,2A1.51,1.51,0,0,1,49.46,52.23Z"/></g></g></svg>