<svg xmlns="http://www.w3.org/2000/svg" viewBox="0 0 289.86 93.98"><g id="Layer_2" data-name="Layer 2"><g id="icons"><rect style="fill:#56d891;" width="289.86" height="93.98" rx="46.99"/><path style="fill:#fff;" d="M116.44,53.34l1.86-2.21a8.14,8.14,0,0,0,5.54,2.28c1.9,0,3.1-.9,3.1-2.2v-.05c0-1.26-.7-1.93-4-2.68-3.73-.91-5.83-2-5.83-5.24v-.05c0-3,2.5-5.09,6-5.09a9.73,9.73,0,0,1,6.37,2.21l-1.66,2.33a7.92,7.92,0,0,0-4.76-1.81c-1.8,0-2.85.93-2.85,2.08V43c0,1.36.8,2,4.18,2.76,3.71.9,5.61,2.23,5.61,5.14v0c0,3.28-2.58,5.23-6.26,5.23A10.86,10.86,0,0,1,116.44,53.34Z"/><path style="fill:#fff;" d="M135.54,38.35h3.08v7.29H147V38.35h3.08V55.89H147V48.5h-8.37v7.39h-3.08Z"/><path style="fill:#fff;" d="M162.67,38.23h2.86l7.72,17.66H170l-1.78-4.23h-8.29l-1.81,4.23H155Zm4.41,10.7-3-7-3,7Z"/><path style="fill:#fff;" d="M178.13,38.35H186A7,7,0,0,1,191,40.11a5.27,5.27,0,0,1,1.45,3.78v0a5.26,5.26,0,0,1-4.15,5.31L193,55.89h-3.66l-4.31-6.11h-3.85v6.11h-3.09Zm7.6,8.7c2.2,0,3.6-1.16,3.6-2.93v0c0-1.88-1.35-2.91-3.63-2.91h-4.48v5.89Z"/><path style="fill:#fff;" d="M198.13,38.35h13v2.76h-9.92v4.56H210v2.75h-8.79v4.72h10v2.75H198.13Z"/><path style="fill:#fff;" d="M81.86,46.89a17.3,17.3,0,1,1-17.29-17.3A17.29,17.29,0,0,1,81.86,46.89Z"/><polyline style="fill:none;stroke:#56d891;stroke-linecap:round;stroke-linejoin:round;stroke-width:2.57px;" points="70.09 45.81 64.57 40.28 59.04 45.81"/><line style="fill:none;stroke:#56d891;stroke-linecap:round;stroke-linejoin:round;stroke-width:2.57px;" x1="64.57" y1="40.29" x2="64.57" y2="53.5"/></g></g></svg>