<svg xmlns="http://www.w3.org/2000/svg" viewBox="0 0 102.51 102.51">
   <title>stop-speaking</title>
   <g id="Layer_2" data-name="Layer 2">
      <g id="icons">
         <path style="fill:#5280df;" d="M91.13,0H11.39A11.4,11.4,0,0,0,0,11.39V91.13a11.4,11.4,0,0,0,11.39,11.39H91.13a11.4,11.4,0,0,0,11.39-11.39V11.39A11.4,11.4,0,0,0,91.13,0Zm3.79,91.13a3.8,3.8,0,0,1-3.79,3.79H11.39a3.8,3.8,0,0,1-3.79-3.79V11.39a3.8,3.8,0,0,1,3.79-3.79H91.13a3.8,3.8,0,0,1,3.79,3.79Zm-23.55-64H31.14a4,4,0,0,0-4,4V71.37a4,4,0,0,0,4,4H71.37a4,4,0,0,0,4-4V31.14A4,4,0,0,0,71.37,27.14Z"/>
      </g>
   </g>
</svg>