<svg xmlns="http://www.w3.org/2000/svg" viewBox="0 0 53.77 26.08"><g id="Layer_2" data-name="Layer 2"><g id="icons"><rect style="fill:#896edb;" width="53.77" height="26.08" rx="2.5"/><path style="fill:#fff;" d="M10.66,16.9l1.11-1.32a4.88,4.88,0,0,0,3.32,1.36c1.14,0,1.86-.54,1.86-1.32v0c0-.75-.42-1.15-2.37-1.6-2.24-.54-3.5-1.2-3.5-3.14v0c0-1.8,1.5-3,3.59-3A5.8,5.8,0,0,1,18.48,9.1l-1,1.39a4.81,4.81,0,0,0-2.85-1.08c-1.08,0-1.71.56-1.71,1.25v0c0,.81.48,1.17,2.5,1.65,2.22.54,3.36,1.33,3.36,3.07v0c0,2-1.54,3.14-3.75,3.14A6.5,6.5,0,0,1,10.66,16.9Z"/><path style="fill:#fff;" d="M20.74,7.93h2L25.94,16l3.15-8.07h2L26.74,18.5H25.1Z"/><path style="fill:#fff;" d="M32.88,13.21v0A5.35,5.35,0,0,1,38.3,7.75a5.68,5.68,0,0,1,4,1.42l-1.17,1.4a4.11,4.11,0,0,0-2.94-1.13,3.56,3.56,0,0,0-3.4,3.71v0a3.5,3.5,0,0,0,3.57,3.75,4.26,4.26,0,0,0,2.53-.8v-2H38.24V12.56h4.47V17a6.68,6.68,0,0,1-4.38,1.64A5.21,5.21,0,0,1,32.88,13.21Z"/></g></g></svg>