<svg xmlns="http://www.w3.org/2000/svg" viewBox="0 0 87.66 87.66"><title>tools-ico</title><g id="Layer_2" data-name="Layer 2"><g id="ICONS"><circle style="fill:#69a2fd;" cx="43.83" cy="43.83" r="43.83"/><polygon style="fill:#fff;" points="41.76 39.07 32.57 29.86 31.32 25.98 25.64 22.45 22.55 25.55 26.07 31.23 29.95 32.48 39.14 41.7 41.76 39.07"/><path style="fill:#fff;" d="M39.14,43h0a1.3,1.3,0,0,1-.91-.38l-9-9-3.59-1.17A1.27,1.27,0,0,1,25,31.9l-3.52-5.67a1.27,1.27,0,0,1,.18-1.58l3.09-3.1a1.3,1.3,0,0,1,1.59-.19L32,24.89a1.3,1.3,0,0,1,.55.69l1.16,3.59,9,9a1.29,1.29,0,0,1,0,1.82L40.05,42.6A1.3,1.3,0,0,1,39.14,43ZM26.91,30.15l3.43,1.11a1.14,1.14,0,0,1,.51.32l8.29,8.3.81-.81-8.29-8.31a1.21,1.21,0,0,1-.31-.51l-1.11-3.43-4.41-2.74-1.66,1.66Z"/><path style="fill:#fff;" d="M59.92,66.49a4.58,4.58,0,0,1-3-1.08L40.65,49.17a1.29,1.29,0,0,1-.37-.91V46.65H38.4a1.3,1.3,0,0,1-.91-.38L36,44.81a1.29,1.29,0,0,1-.37-.91A1.26,1.26,0,0,1,36,43l7-7a1.29,1.29,0,0,1,1.82,0l1.46,1.46a1.3,1.3,0,0,1,.38.91v1.88h1.62a1.29,1.29,0,0,1,.91.37l16.21,16.2c1.1,1.22,2.24,4.3-1,7.56A6.37,6.37,0,0,1,59.92,66.49Zm-1.28-3c.33.26,1.8,1.19,4-1s1.25-3.64,1-4L47.8,42.77H45.43a1.3,1.3,0,0,1-.91-.37,1.29,1.29,0,0,1-.37-.91V38.86L44,38.68,38.75,43.9l.18.18h2.63a1.3,1.3,0,0,1,.91.38,1.26,1.26,0,0,1,.37.9v2.37Z"/><path style="fill:#fff;" d="M50,44.4a1.28,1.28,0,0,1-.91-2.18l3-3a1.28,1.28,0,0,1,1.4-.28,7.73,7.73,0,0,0,8.18-2,7.5,7.5,0,0,0,2.33-6l-3.21,3.21a1.32,1.32,0,0,1-1.81,0l-5.34-5.34a1.28,1.28,0,0,1,0-1.81l3.19-3.21a7.48,7.48,0,0,0-6,2.36,7.64,7.64,0,0,0-1.95,8.15,1.3,1.3,0,0,1-.28,1.4l-2.89,2.89a1.28,1.28,0,0,1-1.82-1.81l2.34-2.34A10.17,10.17,0,0,1,49,24.3a10,10,0,0,1,10.9-2.44,1.28,1.28,0,0,1,.39,2.07l-3.92,3.94,3.52,3.53,3.93-3.94a1.29,1.29,0,0,1,2.08.38,9.94,9.94,0,0,1-2.41,10.91,10.25,10.25,0,0,1-10.13,2.81L50.87,44A1.28,1.28,0,0,1,50,44.4Z"/><path style="fill:#fff;" d="M26.58,66.48A5.07,5.07,0,0,1,23,64.79a4.77,4.77,0,0,1-1.58-4.64,4.54,4.54,0,0,1,1.1-2L36.82,43.79a1.26,1.26,0,0,1,1.81,0,1.28,1.28,0,0,1,0,1.81L24.3,59.93c-.28.3-1.12,1.45.47,3s2.83.69,3.05.48L42.28,49A1.28,1.28,0,0,1,44.1,50.8L29.63,65.27A4.57,4.57,0,0,1,26.58,66.48Z"/><polygon style="fill:#fff;" points="35.88 46.54 36.96 47.53 40.12 47.52 40.12 50.42 41.35 51.65 42.81 50.28 41.56 48.26 41.56 45.36 38.4 45.37 37.72 44.69 35.88 46.54"/><path style="fill:#fff;" d="M41.35,52.93a1.27,1.27,0,0,1-.9-.37l-1.23-1.23a1.3,1.3,0,0,1-.38-.91V48.81H37a1.24,1.24,0,0,1-.86-.34l-1.09-1a1.21,1.21,0,0,1-.41-.91,1.27,1.27,0,0,1,.37-.94l1.85-1.84a1.3,1.3,0,0,1,1.81,0l.3.29h2.63a1.3,1.3,0,0,1,.91.38,1.26,1.26,0,0,1,.37.9V47.9l1.06,1.7a1.29,1.29,0,0,1-.21,1.61l-1.45,1.37A1.27,1.27,0,0,1,41.35,52.93Z"/><path style="fill:#fff;" d="M60.38,61.45a1.27,1.27,0,0,1-.9-.38L45.79,47.41a1.28,1.28,0,0,1,1.81-1.82L61.29,59.26a1.29,1.29,0,0,1-.91,2.19Z"/></g></g></svg>