<?xml version="1.0" encoding="utf-8"?>
<svg xmlns="http://www.w3.org/2000/svg" viewBox="0 0 84.5 84.5">
  <title>twitter-ico</title>
  <g id="Layer_2" data-name="Layer 2">
    <g id="icons">
      <rect id="_Rectangle_" data-name="&lt;Rectangle&gt;" style="fill:#29a9e1;" width="84.5" height="84.5" rx="10" ry="10" />
      <path id="_Path_" data-name="&lt;Path&gt;" style="fill:#fff;" d="M19.74,56.39A26.14,26.14,0,0,0,33.9,60.54c17.15,0,26.84-14.48,26.25-27.48a18.74,18.74,0,0,0,4.61-4.78,18.46,18.46,0,0,1-5.3,1.45,9.25,9.25,0,0,0,4.06-5.11,18.51,18.51,0,0,1-5.86,2.24A9.24,9.24,0,0,0,41.91,35.3a26.21,26.21,0,0,1-19-9.65A9.25,9.25,0,0,0,25.73,38a9.2,9.2,0,0,1-4.19-1.16A9.25,9.25,0,0,0,29,46a9.25,9.25,0,0,1-4.17.16,9.24,9.24,0,0,0,8.63,6.41A18.56,18.56,0,0,1,19.74,56.39Z" />
    </g>
  </g>
</svg>