<?xml version="1.0" encoding="utf-8"?>
<svg xmlns="http://www.w3.org/2000/svg" viewBox="0 0 57.32 57.32">
  <title>unselected</title>
  <g id="Layer_2" data-name="Layer 2">
    <g id="icons">
      <path style="fill:#2c2e44;" d="M48.72,3.44A5.17,5.17,0,0,1,53.88,8.6V48.72a5.17,5.17,0,0,1-5.16,5.16H8.6a5.17,5.17,0,0,1-5.16-5.16V8.6A5.17,5.17,0,0,1,8.6,3.44H48.72m0-3.44H8.6A8.6,8.6,0,0,0,0,8.6V48.72a8.6,8.6,0,0,0,8.6,8.6H48.72a8.6,8.6,0,0,0,8.6-8.6V8.6A8.6,8.6,0,0,0,48.72,0Z" />
    </g>
  </g>
</svg>