<svg xmlns="http://www.w3.org/2000/svg" viewBox="0 0 63.84 56.41"><title>warning</title><g id="Layer_2" data-name="Layer 2"><g id="ICONS"><path style="fill:#ff6d68;" d="M59.61,56.41H4.23A4.23,4.23,0,0,1,.57,50.07l27.69-48a4.23,4.23,0,0,1,7.32,0l27.69,48a4.23,4.23,0,0,1-3.66,6.34ZM31.73,4.11,4,52.07a.23.23,0,0,0,.19.34H59.61a.22.22,0,0,0,.2-.11.23.23,0,0,0,0-.23l-27.69-48a.22.22,0,0,0-.2-.11.2.2,0,0,0-.19.11Z"/><path style="fill:#ff6d68;" d="M29.14,24.44a2.79,2.79,0,1,1,5.56,0L33.5,35.72a1.59,1.59,0,0,1-3.16,0Zm0,18.08a2.72,2.72,0,0,1,2.73-2.72,2.76,2.76,0,0,1,2.79,2.72A2.72,2.72,0,0,1,32,45.24,2.76,2.76,0,0,1,29.16,42.52Z"/></g></g></svg>