<?xml version="1.0" encoding="utf-8"?>
<svg xmlns="http://www.w3.org/2000/svg" viewBox="0 0 59.36 59.36">
  <title>x-ico</title>
  <g id="Layer_2" data-name="Layer 2">
    <g id="icons">
      <path style="fill:#fff;" d="M52.32,59.36H7a7,7,0,0,1-7-7V7A7,7,0,0,1,7,0H52.32a7,7,0,0,1,7,7V52.32A7.05,7.05,0,0,1,52.32,59.36ZM7,4.57A2.48,2.48,0,0,0,4.57,7V52.32A2.48,2.48,0,0,0,7,54.8H52.32a2.48,2.48,0,0,0,2.48-2.48V7a2.48,2.48,0,0,0-2.47-2.47Z" />
      <path style="fill:#fff;" d="M43.58,45.86A2.27,2.27,0,0,1,42,45.19L14.17,17.4a2.28,2.28,0,1,1,3.23-3.23L45.19,42a2.28,2.28,0,0,1-1.61,3.9Z" />
      <path style="fill:#fff;" d="M15.79,45.86A2.28,2.28,0,0,1,14.17,42L42,14.17a2.28,2.28,0,1,1,3.23,3.23L17.4,45.19A2.27,2.27,0,0,1,15.79,45.86Z" />
    </g>
  </g>
</svg>