<svg xmlns="http://www.w3.org/2000/svg" viewBox="0 0 268.58 152.65"><title>yes</title><g id="Layer_2" data-name="Layer 2"><g id="icons"><rect style="fill:#5083f2;" width="268.58" height="152.65" rx="76.33" ry="76.33"/><path style="fill:#fff;" d="M102.05,79.71,90.74,62.46h5.94L104.62,75l8.06-12.57h5.74L107.1,79.59V90.94h-5Z"/><path style="fill:#fff;" d="M125.86,62.46H147v4.48H130.87v7.41h14.28v4.48H130.87v7.65h16.32v4.48H125.86Z"/><path style="fill:#fff;" d="M154.27,86.79l3-3.58a13.19,13.19,0,0,0,9,3.7c3.09,0,5-1.46,5-3.58v-.08c0-2-1.14-3.13-6.43-4.35-6.06-1.46-9.48-3.26-9.48-8.5v-.08c0-4.88,4.07-8.26,9.73-8.26a15.79,15.79,0,0,1,10.34,3.58l-2.69,3.79a12.94,12.94,0,0,0-7.73-2.93c-2.93,0-4.64,1.51-4.64,3.38v.08c0,2.2,1.3,3.17,6.8,4.48,6,1.46,9.12,3.62,9.12,8.34v.08c0,5.33-4.19,8.51-10.17,8.51A17.54,17.54,0,0,1,154.27,86.79Z"/></g></g></svg>