<?xml version="1.0" encoding="utf-8"?>
<svg xmlns="http://www.w3.org/2000/svg" viewBox="0 0 77.79 77.79">
  <title>youtube-ico</title>
  <g id="Layer_2" data-name="Layer 2">
    <g id="icons">
      <g id="_Group_" data-name="&lt;Group&gt;">
        <rect id="_Rectangle_" data-name="&lt;Rectangle&gt;" style="fill:#c3271a;" width="77.79" height="77.79" rx="10" ry="10" />
        <g id="_Group_2" data-name="&lt;Group&gt;">
          <path id="_Compound_Path_" data-name="&lt;Compound Path&gt;" style="fill:#fff;" d="M65.74,25.32a7,7,0,0,0-5-5c-4.37-1.18-21.89-1.18-21.89-1.18s-17.52,0-21.89,1.18a7,7,0,0,0-5,5c-1.17,4.4-1.17,13.57-1.17,13.57s0,9.18,1.17,13.57a7,7,0,0,0,5,5c4.37,1.18,21.89,1.18,21.89,1.18s17.52,0,21.89-1.18a7,7,0,0,0,5-5c1.17-4.4,1.17-13.57,1.17-13.57S66.91,29.72,65.74,25.32Z" />
          <polygon id="_Path_" data-name="&lt;Path&gt;" style="fill:#c3271a;" points="32.53 48.15 32.53 29.64 48.8 38.9 32.53 48.15" />
        </g>
      </g>
    </g>
  </g>
</svg>