<svg id="svg" version="1.1" xmlns="http://www.w3.org/2000/svg" xmlns:xlink="http://www.w3.org/1999/xlink" width="400" height="153.84615384615384" viewBox="0, 0, 400,153.84615384615384">
   <g id="svgg">
      <path id="path0" d="M0.000 76.917 L 0.000 153.833 200.000 153.833 L 400.000 153.833 400.000 76.917 L 400.000 0.000 200.000 0.000 L 0.000 0.000 0.000 76.917 M57.626 68.823 C 57.660 78.104,57.625 80.590,57.459 80.695 C 57.118 80.912,54.260 80.860,54.033 80.633 C 53.820 80.420,53.726 57.806,53.937 57.258 C 54.024 57.030,54.306 56.996,55.812 57.036 L 57.583 57.083 57.626 68.823 M73.066 57.264 C 73.329 57.951,73.172 94.970,72.905 95.238 C 72.521 95.622,69.899 95.611,69.471 95.224 C 69.088 94.877,68.985 57.582,69.367 57.200 C 69.694 56.873,72.937 56.928,73.066 57.264 M80.732 57.264 C 80.941 57.808,80.845 80.421,80.633 80.633 C 80.424 80.842,77.755 80.921,77.264 80.732 C 76.989 80.627,76.838 57.384,77.111 57.111 C 77.369 56.853,80.627 56.990,80.732 57.264 M88.399 57.264 C 88.609 57.811,88.512 95.088,88.300 95.300 C 88.029 95.571,85.138 95.571,84.867 95.300 C 84.648 95.082,84.561 57.328,84.778 57.111 C 85.036 56.853,88.294 56.990,88.399 57.264 M96.126 68.732 C 96.157 77.198,96.118 80.442,95.981 80.607 C 95.734 80.904,92.827 80.927,92.533 80.633 C 92.312 80.412,92.230 57.326,92.450 57.106 C 92.514 57.042,93.358 57.011,94.325 57.036 L 96.083 57.083 96.126 68.732 M103.792 76.065 C 103.823 89.954,103.784 95.108,103.647 95.274 C 103.401 95.571,100.493 95.593,100.200 95.300 C 99.987 95.087,99.892 57.809,100.103 57.258 C 100.191 57.030,100.473 56.996,101.978 57.036 L 103.750 57.083 103.792 76.065 M111.467 57.200 C 111.756 57.489,111.756 80.344,111.467 80.633 C 111.339 80.761,110.689 80.833,109.667 80.833 C 108.644 80.833,107.994 80.761,107.867 80.633 C 107.655 80.421,107.559 57.808,107.768 57.264 C 107.896 56.928,111.139 56.873,111.467 57.200 M119.232 57.264 C 119.496 57.951,119.339 94.970,119.071 95.238 C 118.873 95.437,118.453 95.500,117.333 95.500 C 116.214 95.500,115.794 95.437,115.595 95.238 C 115.328 94.970,115.171 57.951,115.434 57.264 C 115.518 57.046,115.848 57.000,117.333 57.000 C 118.819 57.000,119.149 57.046,119.232 57.264 M134.566 57.264 C 134.774 57.808,134.679 80.421,134.467 80.633 C 134.258 80.842,131.588 80.921,131.097 80.732 C 130.822 80.627,130.672 57.384,130.944 57.111 C 131.202 56.853,134.461 56.990,134.566 57.264 M142.292 76.065 C 142.323 89.954,142.284 95.108,142.147 95.274 C 141.901 95.571,138.993 95.593,138.700 95.300 C 138.478 95.078,138.396 57.327,138.616 57.106 C 138.680 57.042,139.524 57.011,140.491 57.036 L 142.250 57.083 142.292 76.065 M149.959 68.732 C 149.991 77.198,149.951 80.442,149.814 80.607 C 149.567 80.904,146.660 80.927,146.367 80.633 C 146.153 80.420,146.060 57.806,146.270 57.258 C 146.358 57.030,146.640 56.996,148.145 57.036 L 149.917 57.083 149.959 68.732 M157.626 68.823 C 157.660 78.104,157.625 80.590,157.459 80.695 C 157.118 80.912,154.260 80.860,154.033 80.633 C 153.820 80.420,153.726 57.806,153.937 57.258 C 154.024 57.030,154.306 56.996,155.812 57.036 L 157.583 57.083 157.626 68.823 M165.300 57.200 C 165.589 57.489,165.589 80.344,165.300 80.633 C 165.172 80.761,164.522 80.833,163.500 80.833 C 162.478 80.833,161.828 80.761,161.700 80.633 C 161.488 80.421,161.392 57.808,161.601 57.264 C 161.730 56.928,164.973 56.873,165.300 57.200 M188.399 57.264 C 188.609 57.811,188.512 95.088,188.300 95.300 C 188.029 95.571,185.138 95.571,184.867 95.300 C 184.648 95.082,184.561 57.328,184.778 57.111 C 185.036 56.853,188.294 56.990,188.399 57.264 M203.793 68.823 C 203.827 78.104,203.792 80.590,203.626 80.695 C 203.285 80.912,200.427 80.860,200.200 80.633 C 199.987 80.420,199.893 57.806,200.103 57.258 C 200.191 57.030,200.473 56.996,201.978 57.036 L 203.750 57.083 203.793 68.823 M234.566 57.264 C 234.774 57.808,234.679 80.421,234.467 80.633 C 234.258 80.842,231.588 80.921,231.097 80.732 C 230.822 80.627,230.672 57.384,230.944 57.111 C 231.202 56.853,234.461 56.990,234.566 57.264 M273.066 57.264 C 273.329 57.951,273.172 94.970,272.905 95.238 C 272.521 95.622,269.899 95.611,269.471 95.224 C 269.088 94.877,268.985 57.582,269.367 57.200 C 269.694 56.873,272.937 56.928,273.066 57.264 M280.732 57.264 C 280.941 57.808,280.845 80.421,280.633 80.633 C 280.424 80.842,277.755 80.921,277.264 80.732 C 276.989 80.627,276.838 57.384,277.111 57.111 C 277.369 56.853,280.627 56.990,280.732 57.264 M288.399 57.264 C 288.609 57.811,288.512 95.088,288.300 95.300 C 288.029 95.571,285.138 95.571,284.867 95.300 C 284.648 95.082,284.561 57.328,284.778 57.111 C 285.036 56.853,288.294 56.990,288.399 57.264 M303.792 76.065 C 303.823 89.954,303.784 95.108,303.647 95.274 C 303.401 95.571,300.493 95.593,300.200 95.300 C 299.987 95.087,299.892 57.809,300.103 57.258 C 300.191 57.030,300.473 56.996,301.978 57.036 L 303.750 57.083 303.792 76.065 M326.899 57.264 C 327.108 57.808,327.012 80.421,326.800 80.633 C 326.672 80.761,326.022 80.833,325.000 80.833 C 323.978 80.833,323.328 80.761,323.200 80.633 C 322.911 80.344,322.911 57.489,323.200 57.200 C 323.527 56.873,326.770 56.928,326.899 57.264 M65.300 71.033 C 65.585 71.319,65.585 80.348,65.300 80.633 C 65.172 80.761,64.522 80.833,63.500 80.833 C 62.478 80.833,61.828 80.761,61.700 80.633 C 61.488 80.422,61.397 71.628,61.601 71.097 C 61.730 70.762,64.973 70.706,65.300 71.033 M126.899 71.097 C 127.108 71.641,127.012 95.088,126.800 95.300 C 126.474 95.626,123.682 95.565,123.305 95.224 C 122.922 94.877,122.820 71.413,123.200 71.033 C 123.527 70.706,126.770 70.762,126.899 71.097 M173.066 71.097 C 173.327 71.778,173.173 94.970,172.905 95.238 C 172.521 95.622,169.899 95.611,169.471 95.224 C 169.088 94.877,168.987 71.413,169.367 71.033 C 169.694 70.706,172.937 70.762,173.066 71.097 M180.732 71.097 C 180.941 71.641,180.845 95.088,180.633 95.300 C 180.507 95.426,179.874 95.500,178.917 95.500 C 177.959 95.500,177.326 95.426,177.200 95.300 C 176.982 95.082,176.895 71.161,177.111 70.944 C 177.369 70.686,180.627 70.824,180.732 71.097 M196.126 82.982 C 196.157 91.756,196.118 95.108,195.981 95.273 C 195.734 95.571,192.827 95.593,192.533 95.300 C 192.312 95.079,192.230 71.159,192.450 70.939 C 192.514 70.875,193.358 70.844,194.325 70.870 L 196.083 70.917 196.126 82.982 M211.467 71.033 C 211.822 71.388,211.748 94.800,211.391 95.195 C 211.056 95.565,208.216 95.649,207.867 95.300 C 207.655 95.088,207.559 71.641,207.768 71.097 C 207.896 70.762,211.139 70.706,211.467 71.033 M219.232 71.097 C 219.288 71.242,219.333 76.674,219.333 83.168 C 219.333 96.883,219.558 95.500,217.333 95.500 C 215.109 95.500,215.333 96.883,215.333 83.168 C 215.333 76.674,215.379 71.242,215.434 71.097 C 215.518 70.879,215.848 70.833,217.333 70.833 C 218.819 70.833,219.149 70.879,219.232 71.097 M226.899 71.097 C 227.103 71.628,227.012 80.422,226.800 80.633 C 226.528 80.906,223.472 80.906,223.200 80.633 C 223.054 80.487,223.000 79.189,223.000 75.833 C 223.000 72.478,223.054 71.179,223.200 71.033 C 223.527 70.706,226.770 70.762,226.899 71.097 M242.293 82.982 C 242.324 91.756,242.284 95.108,242.147 95.273 C 241.901 95.571,238.993 95.593,238.700 95.300 C 238.479 95.079,238.396 71.159,238.616 70.939 C 238.680 70.875,239.524 70.844,240.491 70.870 L 242.250 70.917 242.293 82.982 M249.959 82.982 C 249.991 91.756,249.951 95.108,249.814 95.273 C 249.567 95.571,246.660 95.593,246.367 95.300 C 246.153 95.087,246.060 71.639,246.270 71.092 C 246.358 70.863,246.640 70.830,248.145 70.870 L 249.917 70.917 249.959 82.982 M257.626 82.982 C 257.657 91.756,257.618 95.108,257.481 95.273 C 257.234 95.571,254.327 95.593,254.033 95.300 C 253.820 95.087,253.726 71.639,253.937 71.092 C 254.024 70.863,254.306 70.830,255.812 70.870 L 257.583 70.917 257.626 82.982 M265.300 71.033 C 265.585 71.319,265.585 80.348,265.300 80.633 C 265.172 80.761,264.522 80.833,263.500 80.833 C 262.478 80.833,261.828 80.761,261.700 80.633 C 261.488 80.422,261.397 71.628,261.601 71.097 C 261.730 70.762,264.973 70.706,265.300 71.033 M296.128 75.646 C 296.159 78.997,296.117 80.443,295.982 80.605 C 295.734 80.904,292.828 80.928,292.533 80.633 C 292.313 80.413,292.233 71.156,292.450 70.939 C 292.514 70.875,293.358 70.844,294.325 70.870 L 296.083 70.917 296.128 75.646 M311.467 71.033 C 311.855 71.422,311.741 80.449,311.344 80.661 C 310.888 80.905,308.117 80.883,307.867 80.633 C 307.655 80.422,307.564 71.628,307.768 71.097 C 307.896 70.762,311.139 70.706,311.467 71.033 M319.232 71.097 C 319.436 71.628,319.345 80.422,319.133 80.633 C 319.006 80.761,318.356 80.833,317.333 80.833 C 315.173 80.833,315.333 81.228,315.333 75.897 C 315.333 70.299,315.122 70.833,317.333 70.833 C 318.819 70.833,319.149 70.879,319.232 71.097 M334.566 71.097 C 334.769 71.628,334.678 80.422,334.467 80.633 C 334.258 80.842,331.588 80.921,331.097 80.732 C 330.822 80.627,330.676 71.213,330.944 70.944 C 331.202 70.686,334.461 70.824,334.566 71.097 " stroke="none" fill="#ffffff" fill-rule="evenodd"></path>
      <path id="path1" d="M53.937 57.258 C 53.726 57.806,53.820 80.420,54.033 80.633 C 54.260 80.860,57.118 80.912,57.459 80.695 C 57.625 80.590,57.660 78.104,57.626 68.823 L 57.583 57.083 55.812 57.036 C 54.306 56.996,54.024 57.030,53.937 57.258 M69.367 57.200 C 68.985 57.582,69.088 94.877,69.471 95.224 C 69.899 95.611,72.521 95.622,72.905 95.238 C 73.172 94.970,73.329 57.951,73.066 57.264 C 72.937 56.928,69.694 56.873,69.367 57.200 M77.111 57.111 C 76.838 57.384,76.989 80.627,77.264 80.732 C 77.755 80.921,80.424 80.842,80.633 80.633 C 80.845 80.421,80.941 57.808,80.732 57.264 C 80.627 56.990,77.369 56.853,77.111 57.111 M84.778 57.111 C 84.561 57.328,84.648 95.082,84.867 95.300 C 85.138 95.571,88.029 95.571,88.300 95.300 C 88.512 95.088,88.609 57.811,88.399 57.264 C 88.294 56.990,85.036 56.853,84.778 57.111 M92.450 57.106 C 92.230 57.326,92.312 80.412,92.533 80.633 C 92.827 80.927,95.734 80.904,95.981 80.607 C 96.118 80.442,96.157 77.198,96.126 68.732 L 96.083 57.083 94.325 57.036 C 93.358 57.011,92.514 57.042,92.450 57.106 M100.103 57.258 C 99.892 57.809,99.987 95.087,100.200 95.300 C 100.493 95.593,103.401 95.571,103.647 95.274 C 103.784 95.108,103.823 89.954,103.792 76.065 L 103.750 57.083 101.978 57.036 C 100.473 56.996,100.191 57.030,100.103 57.258 M107.768 57.264 C 107.559 57.808,107.655 80.421,107.867 80.633 C 107.994 80.761,108.644 80.833,109.667 80.833 C 110.689 80.833,111.339 80.761,111.467 80.633 C 111.756 80.344,111.756 57.489,111.467 57.200 C 111.139 56.873,107.896 56.928,107.768 57.264 M115.434 57.264 C 115.171 57.951,115.328 94.970,115.595 95.238 C 115.794 95.437,116.214 95.500,117.333 95.500 C 118.453 95.500,118.873 95.437,119.071 95.238 C 119.339 94.970,119.496 57.951,119.232 57.264 C 119.149 57.046,118.819 57.000,117.333 57.000 C 115.848 57.000,115.518 57.046,115.434 57.264 M130.944 57.111 C 130.672 57.384,130.822 80.627,131.097 80.732 C 131.588 80.921,134.258 80.842,134.467 80.633 C 134.679 80.421,134.774 57.808,134.566 57.264 C 134.461 56.990,131.202 56.853,130.944 57.111 M138.616 57.106 C 138.396 57.327,138.478 95.078,138.700 95.300 C 138.993 95.593,141.901 95.571,142.147 95.274 C 142.284 95.108,142.323 89.954,142.292 76.065 L 142.250 57.083 140.491 57.036 C 139.524 57.011,138.680 57.042,138.616 57.106 M146.270 57.258 C 146.060 57.806,146.153 80.420,146.367 80.633 C 146.660 80.927,149.567 80.904,149.814 80.607 C 149.951 80.442,149.991 77.198,149.959 68.732 L 149.917 57.083 148.145 57.036 C 146.640 56.996,146.358 57.030,146.270 57.258 M153.937 57.258 C 153.726 57.806,153.820 80.420,154.033 80.633 C 154.260 80.860,157.118 80.912,157.459 80.695 C 157.625 80.590,157.660 78.104,157.626 68.823 L 157.583 57.083 155.812 57.036 C 154.306 56.996,154.024 57.030,153.937 57.258 M161.601 57.264 C 161.392 57.808,161.488 80.421,161.700 80.633 C 161.828 80.761,162.478 80.833,163.500 80.833 C 164.522 80.833,165.172 80.761,165.300 80.633 C 165.589 80.344,165.589 57.489,165.300 57.200 C 164.973 56.873,161.730 56.928,161.601 57.264 M184.778 57.111 C 184.561 57.328,184.648 95.082,184.867 95.300 C 185.138 95.571,188.029 95.571,188.300 95.300 C 188.512 95.088,188.609 57.811,188.399 57.264 C 188.294 56.990,185.036 56.853,184.778 57.111 M200.103 57.258 C 199.893 57.806,199.987 80.420,200.200 80.633 C 200.427 80.860,203.285 80.912,203.626 80.695 C 203.792 80.590,203.827 78.104,203.793 68.823 L 203.750 57.083 201.978 57.036 C 200.473 56.996,200.191 57.030,200.103 57.258 M230.944 57.111 C 230.672 57.384,230.822 80.627,231.097 80.732 C 231.588 80.921,234.258 80.842,234.467 80.633 C 234.679 80.421,234.774 57.808,234.566 57.264 C 234.461 56.990,231.202 56.853,230.944 57.111 M269.367 57.200 C 268.985 57.582,269.088 94.877,269.471 95.224 C 269.899 95.611,272.521 95.622,272.905 95.238 C 273.172 94.970,273.329 57.951,273.066 57.264 C 272.937 56.928,269.694 56.873,269.367 57.200 M277.111 57.111 C 276.838 57.384,276.989 80.627,277.264 80.732 C 277.755 80.921,280.424 80.842,280.633 80.633 C 280.845 80.421,280.941 57.808,280.732 57.264 C 280.627 56.990,277.369 56.853,277.111 57.111 M284.778 57.111 C 284.561 57.328,284.648 95.082,284.867 95.300 C 285.138 95.571,288.029 95.571,288.300 95.300 C 288.512 95.088,288.609 57.811,288.399 57.264 C 288.294 56.990,285.036 56.853,284.778 57.111 M300.103 57.258 C 299.892 57.809,299.987 95.087,300.200 95.300 C 300.493 95.593,303.401 95.571,303.647 95.274 C 303.784 95.108,303.823 89.954,303.792 76.065 L 303.750 57.083 301.978 57.036 C 300.473 56.996,300.191 57.030,300.103 57.258 M323.200 57.200 C 322.911 57.489,322.911 80.344,323.200 80.633 C 323.328 80.761,323.978 80.833,325.000 80.833 C 326.022 80.833,326.672 80.761,326.800 80.633 C 327.012 80.421,327.108 57.808,326.899 57.264 C 326.770 56.928,323.527 56.873,323.200 57.200 M61.601 71.097 C 61.397 71.628,61.488 80.422,61.700 80.633 C 61.828 80.761,62.478 80.833,63.500 80.833 C 64.522 80.833,65.172 80.761,65.300 80.633 C 65.585 80.348,65.585 71.319,65.300 71.033 C 64.973 70.706,61.730 70.762,61.601 71.097 M123.200 71.033 C 122.820 71.413,122.922 94.877,123.305 95.224 C 123.682 95.565,126.474 95.626,126.800 95.300 C 127.012 95.088,127.108 71.641,126.899 71.097 C 126.770 70.762,123.527 70.706,123.200 71.033 M169.367 71.033 C 168.987 71.413,169.088 94.877,169.471 95.224 C 169.899 95.611,172.521 95.622,172.905 95.238 C 173.173 94.970,173.327 71.778,173.066 71.097 C 172.937 70.762,169.694 70.706,169.367 71.033 M177.111 70.944 C 176.895 71.161,176.982 95.082,177.200 95.300 C 177.326 95.426,177.959 95.500,178.917 95.500 C 179.874 95.500,180.507 95.426,180.633 95.300 C 180.845 95.088,180.941 71.641,180.732 71.097 C 180.627 70.824,177.369 70.686,177.111 70.944 M192.450 70.939 C 192.230 71.159,192.312 95.079,192.533 95.300 C 192.827 95.593,195.734 95.571,195.981 95.273 C 196.118 95.108,196.157 91.756,196.126 82.982 L 196.083 70.917 194.325 70.870 C 193.358 70.844,192.514 70.875,192.450 70.939 M207.768 71.097 C 207.559 71.641,207.655 95.088,207.867 95.300 C 208.216 95.649,211.056 95.565,211.391 95.195 C 211.748 94.800,211.822 71.388,211.467 71.033 C 211.139 70.706,207.896 70.762,207.768 71.097 M215.434 71.097 C 215.379 71.242,215.333 76.674,215.333 83.168 C 215.333 96.883,215.109 95.500,217.333 95.500 C 219.558 95.500,219.333 96.883,219.333 83.168 C 219.333 76.674,219.288 71.242,219.232 71.097 C 219.149 70.879,218.819 70.833,217.333 70.833 C 215.848 70.833,215.518 70.879,215.434 71.097 M223.200 71.033 C 223.054 71.179,223.000 72.478,223.000 75.833 C 223.000 79.189,223.054 80.487,223.200 80.633 C 223.472 80.906,226.528 80.906,226.800 80.633 C 227.012 80.422,227.103 71.628,226.899 71.097 C 226.770 70.762,223.527 70.706,223.200 71.033 M238.616 70.939 C 238.396 71.159,238.479 95.079,238.700 95.300 C 238.993 95.593,241.901 95.571,242.147 95.273 C 242.284 95.108,242.324 91.756,242.293 82.982 L 242.250 70.917 240.491 70.870 C 239.524 70.844,238.680 70.875,238.616 70.939 M246.270 71.092 C 246.060 71.639,246.153 95.087,246.367 95.300 C 246.660 95.593,249.567 95.571,249.814 95.273 C 249.951 95.108,249.991 91.756,249.959 82.982 L 249.917 70.917 248.145 70.870 C 246.640 70.830,246.358 70.863,246.270 71.092 M253.937 71.092 C 253.726 71.639,253.820 95.087,254.033 95.300 C 254.327 95.593,257.234 95.571,257.481 95.273 C 257.618 95.108,257.657 91.756,257.626 82.982 L 257.583 70.917 255.812 70.870 C 254.306 70.830,254.024 70.863,253.937 71.092 M261.601 71.097 C 261.397 71.628,261.488 80.422,261.700 80.633 C 261.828 80.761,262.478 80.833,263.500 80.833 C 264.522 80.833,265.172 80.761,265.300 80.633 C 265.585 80.348,265.585 71.319,265.300 71.033 C 264.973 70.706,261.730 70.762,261.601 71.097 M292.450 70.939 C 292.233 71.156,292.313 80.413,292.533 80.633 C 292.828 80.928,295.734 80.904,295.982 80.605 C 296.117 80.443,296.159 78.997,296.128 75.646 L 296.083 70.917 294.325 70.870 C 293.358 70.844,292.514 70.875,292.450 70.939 M307.768 71.097 C 307.564 71.628,307.655 80.422,307.867 80.633 C 308.117 80.883,310.888 80.905,311.344 80.661 C 311.741 80.449,311.855 71.422,311.467 71.033 C 311.139 70.706,307.896 70.762,307.768 71.097 M315.434 71.097 C 315.231 71.628,315.322 80.422,315.533 80.633 C 315.661 80.761,316.311 80.833,317.333 80.833 C 319.493 80.833,319.333 81.228,319.333 75.897 C 319.333 70.299,319.544 70.833,317.333 70.833 C 315.848 70.833,315.518 70.879,315.434 71.097 M330.944 70.944 C 330.676 71.213,330.822 80.627,331.097 80.732 C 331.588 80.921,334.258 80.842,334.467 80.633 C 334.678 80.422,334.769 71.628,334.566 71.097 C 334.461 70.824,331.202 70.686,330.944 70.944 " stroke="none" fill="#000000" fill-rule="evenodd"></path>
   </g>
</svg>