<svg id="svg" version="1.1" xmlns="http://www.w3.org/2000/svg" xmlns:xlink="http://www.w3.org/1999/xlink" width="400" height="153.84615384615384" viewBox="0, 0, 400,153.84615384615384">
   <g id="svgg">
      <path id="path0" d="M0.000 76.917 L 0.000 153.833 200.000 153.833 L 400.000 153.833 400.000 76.917 L 400.000 0.000 200.000 0.000 L 0.000 0.000 0.000 76.917 M157.403 3.934 C 157.640 4.025,157.667 5.184,157.667 15.318 C 157.667 23.871,157.715 26.648,157.867 26.800 C 158.010 26.943,159.096 27.000,161.700 27.000 L 165.333 27.000 165.333 23.345 C 165.333 18.710,164.886 19.167,169.429 19.167 L 173.000 19.167 173.000 15.417 L 173.000 11.667 169.429 11.667 C 166.404 11.667,165.817 11.627,165.595 11.405 C 165.256 11.065,165.199 4.367,165.533 4.033 C 165.840 3.727,180.388 3.747,180.643 4.055 C 180.761 4.197,180.843 5.555,180.872 7.846 L 180.917 11.417 184.708 11.461 L 188.500 11.506 188.500 7.870 C 188.500 5.264,188.557 4.177,188.700 4.033 C 189.011 3.722,218.886 3.746,219.145 4.057 C 219.277 4.216,219.343 7.576,219.374 15.599 L 219.417 26.917 222.979 26.962 C 225.466 26.993,226.610 26.949,226.771 26.816 C 226.961 26.658,227.000 24.719,227.000 15.331 C 227.000 5.185,227.027 4.025,227.264 3.934 C 227.854 3.708,241.951 3.823,242.145 4.057 C 242.273 4.211,242.343 6.555,242.373 11.682 L 242.417 19.083 245.987 19.128 C 248.278 19.157,249.637 19.239,249.779 19.357 C 249.950 19.499,250.000 20.342,250.000 23.083 C 250.000 25.873,250.048 26.666,250.228 26.815 C 250.391 26.951,252.530 26.991,257.853 26.960 L 265.250 26.917 265.293 15.599 C 265.323 7.576,265.390 4.216,265.522 4.057 C 265.775 3.752,272.663 3.730,272.967 4.033 C 273.275 4.342,273.255 34.220,272.945 34.476 C 272.803 34.594,271.445 34.676,269.154 34.705 L 265.583 34.750 265.538 38.320 C 265.509 40.611,265.427 41.970,265.310 42.112 C 265.151 42.304,250.285 42.479,250.133 42.292 C 250.115 42.269,250.058 40.563,250.008 38.500 L 249.917 34.750 246.127 34.705 L 242.337 34.660 242.293 42.289 L 242.250 49.917 238.500 50.008 C 236.438 50.058,234.730 50.115,234.705 50.133 C 234.680 50.152,234.680 51.835,234.705 53.875 L 234.750 57.583 238.320 57.628 C 240.611 57.657,241.970 57.739,242.112 57.857 C 242.438 58.128,242.438 72.706,242.112 72.976 C 241.970 73.094,240.611 73.176,238.320 73.205 L 234.750 73.250 234.707 80.739 C 234.673 86.620,234.708 88.257,234.873 88.362 C 235.144 88.534,241.851 88.537,242.122 88.365 C 242.271 88.270,242.339 87.248,242.372 84.576 L 242.417 80.917 250.000 80.829 C 254.171 80.781,257.602 80.725,257.625 80.704 C 257.648 80.684,257.667 77.254,257.667 73.083 L 257.667 65.500 254.033 65.500 C 251.430 65.500,250.343 65.443,250.200 65.300 C 249.912 65.012,249.912 50.488,250.200 50.200 C 250.411 49.989,256.879 49.900,257.403 50.101 C 257.632 50.189,257.667 50.662,257.667 53.671 C 257.667 55.579,257.712 57.258,257.768 57.403 C 257.856 57.632,258.341 57.667,261.484 57.667 C 264.074 57.667,265.157 57.723,265.300 57.867 C 265.454 58.020,265.500 63.374,265.500 80.950 L 265.500 103.833 269.133 103.833 C 271.737 103.833,272.823 103.890,272.967 104.033 C 273.178 104.245,273.267 110.712,273.066 111.236 C 272.913 111.635,265.587 111.635,265.434 111.236 C 265.379 111.091,265.333 109.366,265.333 107.403 L 265.333 103.833 261.687 103.833 C 258.859 103.833,258.000 103.784,257.857 103.612 C 257.739 103.470,257.657 102.111,257.628 99.820 L 257.583 96.250 246.167 96.250 L 234.750 96.250 234.750 100.000 L 234.750 103.750 242.333 103.838 C 246.504 103.886,249.935 103.942,249.958 103.963 C 249.981 103.983,250.000 105.688,250.000 107.750 L 250.000 111.500 253.570 111.500 C 255.533 111.500,257.258 111.546,257.403 111.601 C 257.746 111.733,257.805 118.795,257.467 119.133 C 257.184 119.416,250.483 119.416,250.200 119.133 C 250.056 118.990,250.000 117.885,250.000 115.216 L 250.000 111.498 234.708 111.541 L 219.417 111.583 219.374 122.901 C 219.343 130.924,219.277 134.284,219.145 134.443 C 219.000 134.618,218.163 134.667,215.313 134.667 L 211.667 134.667 211.667 138.500 L 211.667 142.333 219.133 142.333 C 224.719 142.333,226.650 142.384,226.800 142.533 C 226.943 142.676,227.000 143.719,227.000 146.167 C 227.000 148.615,226.943 149.657,226.800 149.800 C 226.512 150.088,211.988 150.088,211.700 149.800 C 211.557 149.657,211.500 148.570,211.500 145.967 L 211.500 142.333 207.854 142.333 C 205.026 142.333,204.166 142.284,204.024 142.112 C 203.906 141.970,203.824 140.611,203.795 138.320 L 203.750 134.750 196.167 134.750 L 188.583 134.750 188.496 142.333 C 188.448 146.504,188.391 149.937,188.371 149.962 C 188.350 149.986,186.665 149.986,184.625 149.962 L 180.917 149.917 180.829 142.333 C 180.781 138.162,180.725 134.731,180.704 134.708 C 180.684 134.685,178.979 134.667,176.917 134.667 L 173.167 134.667 173.167 142.133 C 173.167 147.719,173.116 149.650,172.967 149.800 C 172.679 150.088,158.154 150.088,157.867 149.800 C 157.723 149.657,157.667 148.570,157.667 145.967 L 157.667 142.333 146.375 142.331 C 140.165 142.329,134.990 142.269,134.877 142.197 C 134.718 142.097,134.660 140.313,134.627 134.575 L 134.583 127.083 130.833 126.992 C 128.771 126.942,127.065 126.885,127.042 126.867 C 127.019 126.848,127.000 125.146,127.000 123.083 C 127.000 121.021,127.019 119.318,127.042 119.300 C 127.065 119.281,128.771 119.225,130.833 119.175 L 134.583 119.083 134.628 115.513 C 134.657 113.222,134.739 111.863,134.857 111.721 C 135.109 111.418,141.832 111.399,142.133 111.700 C 142.285 111.852,142.333 114.607,142.333 123.083 C 142.333 131.559,142.382 134.315,142.533 134.467 C 142.816 134.750,149.517 134.750,149.800 134.467 C 149.950 134.317,150.000 132.411,150.000 126.917 C 150.000 121.422,150.050 119.516,150.200 119.367 C 150.429 119.138,157.103 119.078,157.455 119.302 C 157.605 119.397,157.672 120.419,157.705 123.091 L 157.750 126.750 161.542 126.795 L 165.333 126.840 165.333 123.265 C 165.333 120.238,165.373 119.650,165.595 119.429 C 165.939 119.085,180.293 119.026,180.633 119.367 C 180.777 119.510,180.833 120.596,180.833 123.200 L 180.833 126.833 196.167 126.833 L 211.500 126.833 211.500 123.083 L 211.500 119.333 204.033 119.333 C 198.448 119.333,196.516 119.283,196.367 119.133 C 196.224 118.990,196.167 117.930,196.167 115.417 C 196.167 112.904,196.110 111.843,195.967 111.700 C 195.814 111.547,192.181 111.500,180.633 111.500 C 172.310 111.500,165.485 111.481,165.466 111.458 C 165.448 111.435,165.392 109.729,165.341 107.667 L 165.250 103.917 157.759 103.873 C 152.020 103.840,150.237 103.782,150.136 103.623 C 149.966 103.355,149.965 96.647,150.135 96.378 C 150.230 96.229,151.252 96.161,153.924 96.128 L 157.583 96.083 157.583 92.333 L 157.583 88.583 154.013 88.538 C 151.755 88.510,150.362 88.427,150.225 88.312 C 150.060 88.175,149.995 87.248,149.962 84.524 L 149.917 80.917 142.292 80.873 L 134.667 80.830 134.667 84.465 C 134.667 87.070,134.610 88.157,134.467 88.300 C 134.235 88.531,127.562 88.587,127.205 88.361 C 127.042 88.257,127.004 87.384,127.038 84.571 L 127.083 80.917 130.875 80.872 L 134.667 80.827 134.667 69.434 C 134.667 60.166,134.625 58.007,134.445 57.857 C 134.303 57.739,132.945 57.657,130.654 57.628 L 127.083 57.583 127.083 50.000 L 127.083 42.417 130.792 42.372 C 132.831 42.347,134.515 42.347,134.534 42.372 C 134.552 42.396,134.608 44.104,134.659 46.167 L 134.750 49.917 142.333 50.004 C 146.504 50.052,149.935 50.109,149.958 50.129 C 150.146 50.298,149.970 65.151,149.779 65.310 C 149.637 65.427,148.278 65.509,145.987 65.538 L 142.417 65.583 142.417 69.250 L 142.417 72.917 149.818 72.960 C 154.945 72.990,157.289 73.060,157.443 73.189 C 157.617 73.333,157.667 74.159,157.667 76.917 C 157.667 79.721,157.714 80.499,157.896 80.650 C 158.056 80.783,159.201 80.826,161.688 80.795 L 165.250 80.750 165.250 69.250 L 165.250 57.750 161.542 57.705 C 159.502 57.680,157.816 57.643,157.796 57.622 C 157.775 57.601,157.719 54.171,157.671 50.000 L 157.583 42.417 153.875 42.372 C 151.835 42.347,150.150 42.310,150.129 42.288 C 150.109 42.267,150.052 38.837,150.004 34.667 L 149.917 27.083 146.167 27.083 L 142.417 27.083 142.372 30.742 C 142.339 33.414,142.271 34.436,142.122 34.531 C 141.850 34.704,127.477 34.700,127.205 34.527 C 127.042 34.424,127.004 33.551,127.038 30.738 L 127.083 27.083 130.654 27.038 C 132.945 27.009,134.303 26.927,134.445 26.810 C 134.623 26.662,134.667 25.180,134.667 19.263 C 134.667 13.758,134.717 11.850,134.867 11.700 C 135.168 11.399,141.891 11.418,142.143 11.721 C 142.261 11.863,142.343 13.222,142.372 15.513 L 142.417 19.083 146.167 19.083 L 149.917 19.083 149.960 11.682 C 149.990 6.555,150.060 4.211,150.189 4.057 C 150.382 3.824,156.829 3.714,157.403 3.934 M257.403 3.934 C 257.746 4.066,257.805 11.128,257.467 11.467 C 257.082 11.852,250.384 11.739,250.173 11.344 C 249.918 10.868,249.942 4.291,250.200 4.033 C 250.411 3.822,256.879 3.733,257.403 3.934 M188.500 19.130 C 188.500 24.718,188.550 26.650,188.700 26.800 C 188.843 26.943,189.930 27.000,192.533 27.000 L 196.167 27.000 196.167 30.830 L 196.167 34.660 192.375 34.705 L 188.583 34.750 188.583 38.500 L 188.583 42.250 192.333 42.250 L 196.083 42.250 196.128 38.458 L 196.173 34.667 200.003 34.667 L 203.833 34.667 203.833 38.300 C 203.833 40.904,203.890 41.990,204.033 42.133 C 204.380 42.480,234.432 42.417,234.566 42.070 C 234.621 41.925,234.667 40.200,234.667 38.236 L 234.667 34.667 238.503 34.667 L 242.340 34.667 242.295 30.875 L 242.250 27.083 238.500 27.083 L 234.750 27.083 234.705 30.875 L 234.660 34.667 219.247 34.667 L 203.833 34.667 203.833 30.836 L 203.833 27.006 207.625 26.961 L 211.417 26.917 211.460 19.289 L 211.503 11.660 207.710 11.705 L 203.917 11.750 203.873 19.375 L 203.830 27.000 200.000 27.000 L 196.170 27.000 196.127 19.375 L 196.083 11.750 192.292 11.705 L 188.500 11.660 188.500 19.130 M173.167 22.964 C 173.167 25.570,173.110 26.657,172.967 26.800 C 172.823 26.943,171.736 27.000,169.130 27.000 L 165.494 27.000 165.539 30.792 L 165.583 34.583 169.154 34.628 C 171.412 34.657,172.804 34.740,172.942 34.854 C 173.107 34.991,173.171 35.918,173.205 38.643 L 173.250 42.250 176.852 42.295 C 179.753 42.331,180.491 42.295,180.645 42.110 C 180.785 41.941,180.824 38.897,180.793 30.648 L 180.750 19.417 176.958 19.372 L 173.167 19.327 173.167 22.964 M173.244 50.208 C 173.200 50.323,173.184 62.417,173.207 77.083 L 173.250 103.750 199.899 103.792 C 219.457 103.823,226.608 103.784,226.774 103.647 C 227.088 103.386,227.114 50.514,226.800 50.200 C 226.502 49.902,173.357 49.910,173.244 50.208 M219.133 57.867 C 219.447 58.180,219.421 95.720,219.107 95.980 C 218.942 96.118,213.787 96.157,199.899 96.126 L 180.917 96.083 180.874 77.010 C 180.841 61.862,180.875 57.910,181.041 57.804 C 181.405 57.573,218.901 57.634,219.133 57.867 M188.611 65.611 C 188.550 65.672,188.500 70.808,188.500 77.025 L 188.500 88.327 188.875 88.418 C 189.081 88.468,194.237 88.488,200.333 88.463 L 211.417 88.417 211.459 76.958 L 211.502 65.500 200.112 65.500 C 193.848 65.500,188.672 65.550,188.611 65.611 M203.633 73.200 C 203.972 73.539,203.912 80.601,203.570 80.732 C 203.045 80.933,196.578 80.845,196.367 80.633 C 196.084 80.350,196.084 73.483,196.367 73.200 C 196.650 72.917,203.350 72.917,203.633 73.200 M272.905 119.429 C 273.126 119.650,273.167 120.221,273.167 123.083 C 273.167 127.415,273.600 127.000,269.071 127.000 L 265.500 127.000 265.500 130.833 L 265.500 134.667 269.232 134.667 C 272.482 134.667,272.977 134.701,273.066 134.930 C 273.272 135.469,273.178 149.588,272.967 149.800 C 272.684 150.083,265.816 150.083,265.533 149.800 C 265.384 149.650,265.333 147.719,265.333 142.133 L 265.333 134.667 261.601 134.667 C 258.352 134.667,257.856 134.701,257.768 134.930 C 257.712 135.075,257.667 136.755,257.667 138.662 C 257.667 141.672,257.632 142.144,257.403 142.232 C 257.258 142.288,255.534 142.333,253.573 142.333 L 250.006 142.333 249.961 146.125 L 249.917 149.917 246.167 149.917 L 242.417 149.917 242.372 146.125 L 242.327 142.333 238.761 142.333 C 236.799 142.333,235.075 142.288,234.930 142.232 C 234.702 142.144,234.667 141.672,234.667 138.662 C 234.667 136.755,234.621 135.075,234.566 134.930 C 234.478 134.702,234.005 134.667,230.996 134.667 C 229.088 134.667,227.409 134.621,227.264 134.566 C 226.921 134.434,226.861 127.372,227.200 127.033 C 227.488 126.746,241.846 126.746,242.133 127.033 C 242.283 127.183,242.333 129.133,242.333 134.783 L 242.333 142.333 246.167 142.333 L 250.000 142.333 250.000 134.783 C 250.000 129.133,250.050 127.183,250.200 127.033 C 250.350 126.884,252.281 126.833,257.867 126.833 L 265.333 126.833 265.333 123.262 C 265.333 118.733,264.919 119.167,269.250 119.167 C 272.112 119.167,272.684 119.208,272.905 119.429 M165.500 130.833 L 165.500 134.667 169.250 134.667 L 173.000 134.667 173.000 130.833 L 173.000 127.000 169.250 127.000 L 165.500 127.000 165.500 130.833 M157.768 134.930 C 157.712 135.075,157.667 136.802,157.667 138.767 L 157.667 142.340 161.458 142.295 L 165.250 142.250 165.295 138.458 L 165.340 134.667 161.604 134.667 C 158.352 134.667,157.856 134.701,157.768 134.930 " stroke="none" fill="#ffffff" fill-rule="evenodd"></path>
      <path id="path1" d="M150.189 4.057 C 150.060 4.211,149.990 6.555,149.960 11.682 L 149.917 19.083 146.167 19.083 L 142.417 19.083 142.372 15.513 C 142.343 13.222,142.261 11.863,142.143 11.721 C 141.891 11.418,135.168 11.399,134.867 11.700 C 134.717 11.850,134.667 13.758,134.667 19.263 C 134.667 25.180,134.623 26.662,134.445 26.810 C 134.303 26.927,132.945 27.009,130.654 27.038 L 127.083 27.083 127.038 30.738 C 127.004 33.551,127.042 34.424,127.205 34.527 C 127.477 34.700,141.850 34.704,142.122 34.531 C 142.271 34.436,142.339 33.414,142.372 30.742 L 142.417 27.083 146.167 27.083 L 149.917 27.083 150.004 34.667 C 150.052 38.837,150.109 42.267,150.129 42.288 C 150.150 42.310,151.835 42.347,153.875 42.372 L 157.583 42.417 157.671 50.000 C 157.719 54.171,157.775 57.601,157.796 57.622 C 157.816 57.643,159.502 57.680,161.542 57.705 L 165.250 57.750 165.250 69.250 L 165.250 80.750 161.688 80.795 C 159.201 80.826,158.056 80.783,157.896 80.650 C 157.714 80.499,157.667 79.721,157.667 76.917 C 157.667 74.159,157.617 73.333,157.443 73.189 C 157.289 73.060,154.945 72.990,149.818 72.960 L 142.417 72.917 142.417 69.250 L 142.417 65.583 145.987 65.538 C 148.278 65.509,149.637 65.427,149.779 65.310 C 149.970 65.151,150.146 50.298,149.958 50.129 C 149.935 50.109,146.504 50.052,142.333 50.004 L 134.750 49.917 134.659 46.167 C 134.608 44.104,134.552 42.396,134.534 42.372 C 134.515 42.347,132.831 42.347,130.792 42.372 L 127.083 42.417 127.083 50.000 L 127.083 57.583 130.654 57.628 C 132.945 57.657,134.303 57.739,134.445 57.857 C 134.625 58.007,134.667 60.166,134.667 69.434 L 134.667 80.827 130.875 80.872 L 127.083 80.917 127.038 84.571 C 127.004 87.384,127.042 88.257,127.205 88.361 C 127.562 88.587,134.235 88.531,134.467 88.300 C 134.610 88.157,134.667 87.070,134.667 84.465 L 134.667 80.830 142.292 80.873 L 149.917 80.917 149.962 84.524 C 149.995 87.248,150.060 88.175,150.225 88.312 C 150.362 88.427,151.755 88.510,154.013 88.538 L 157.583 88.583 157.583 92.333 L 157.583 96.083 153.924 96.128 C 151.252 96.161,150.230 96.229,150.135 96.378 C 149.965 96.647,149.966 103.355,150.136 103.623 C 150.237 103.782,152.020 103.840,157.759 103.873 L 165.250 103.917 165.341 107.667 C 165.392 109.729,165.448 111.435,165.466 111.458 C 165.485 111.481,172.310 111.500,180.633 111.500 C 192.181 111.500,195.814 111.547,195.967 111.700 C 196.110 111.843,196.167 112.904,196.167 115.417 C 196.167 117.930,196.224 118.990,196.367 119.133 C 196.516 119.283,198.448 119.333,204.033 119.333 L 211.500 119.333 211.500 123.083 L 211.500 126.833 196.167 126.833 L 180.833 126.833 180.833 123.200 C 180.833 120.596,180.777 119.510,180.633 119.367 C 180.293 119.026,165.939 119.085,165.595 119.429 C 165.373 119.650,165.333 120.238,165.333 123.265 L 165.333 126.840 161.542 126.795 L 157.750 126.750 157.705 123.091 C 157.672 120.419,157.605 119.397,157.455 119.302 C 157.103 119.078,150.429 119.138,150.200 119.367 C 150.050 119.516,150.000 121.422,150.000 126.917 C 150.000 132.411,149.950 134.317,149.800 134.467 C 149.517 134.750,142.816 134.750,142.533 134.467 C 142.382 134.315,142.333 131.559,142.333 123.083 C 142.333 114.607,142.285 111.852,142.133 111.700 C 141.832 111.399,135.109 111.418,134.857 111.721 C 134.739 111.863,134.657 113.222,134.628 115.513 L 134.583 119.083 130.833 119.175 C 128.771 119.225,127.065 119.281,127.042 119.300 C 127.019 119.318,127.000 121.021,127.000 123.083 C 127.000 125.146,127.019 126.848,127.042 126.867 C 127.065 126.885,128.771 126.942,130.833 126.992 L 134.583 127.083 134.627 134.575 C 134.660 140.313,134.718 142.097,134.877 142.197 C 134.990 142.269,140.165 142.329,146.375 142.331 L 157.667 142.333 157.667 145.967 C 157.667 148.570,157.723 149.657,157.867 149.800 C 158.154 150.088,172.679 150.088,172.967 149.800 C 173.116 149.650,173.167 147.719,173.167 142.133 L 173.167 134.667 176.917 134.667 C 178.979 134.667,180.684 134.685,180.704 134.708 C 180.725 134.731,180.781 138.162,180.829 142.333 L 180.917 149.917 184.625 149.962 C 186.665 149.986,188.350 149.986,188.371 149.962 C 188.391 149.937,188.448 146.504,188.496 142.333 L 188.583 134.750 196.167 134.750 L 203.750 134.750 203.795 138.320 C 203.824 140.611,203.906 141.970,204.024 142.112 C 204.166 142.284,205.026 142.333,207.854 142.333 L 211.500 142.333 211.500 145.967 C 211.500 148.570,211.557 149.657,211.700 149.800 C 211.988 150.088,226.512 150.088,226.800 149.800 C 226.943 149.657,227.000 148.615,227.000 146.167 C 227.000 143.719,226.943 142.676,226.800 142.533 C 226.650 142.384,224.719 142.333,219.133 142.333 L 211.667 142.333 211.667 138.500 L 211.667 134.667 215.313 134.667 C 218.163 134.667,219.000 134.618,219.145 134.443 C 219.277 134.284,219.343 130.924,219.374 122.901 L 219.417 111.583 234.708 111.541 L 250.000 111.498 250.000 115.216 C 250.000 117.885,250.056 118.990,250.200 119.133 C 250.483 119.416,257.184 119.416,257.467 119.133 C 257.805 118.795,257.746 111.733,257.403 111.601 C 257.258 111.546,255.533 111.500,253.570 111.500 L 250.000 111.500 250.000 107.750 C 250.000 105.688,249.981 103.983,249.958 103.963 C 249.935 103.942,246.504 103.886,242.333 103.838 L 234.750 103.750 234.750 100.000 L 234.750 96.250 246.167 96.250 L 257.583 96.250 257.628 99.820 C 257.657 102.111,257.739 103.470,257.857 103.612 C 258.000 103.784,258.859 103.833,261.687 103.833 L 265.333 103.833 265.333 107.403 C 265.333 109.366,265.379 111.091,265.434 111.236 C 265.587 111.635,272.913 111.635,273.066 111.236 C 273.267 110.712,273.178 104.245,272.967 104.033 C 272.823 103.890,271.737 103.833,269.133 103.833 L 265.500 103.833 265.500 80.950 C 265.500 63.374,265.454 58.020,265.300 57.867 C 265.157 57.723,264.074 57.667,261.484 57.667 C 258.341 57.667,257.856 57.632,257.768 57.403 C 257.712 57.258,257.667 55.579,257.667 53.671 C 257.667 50.662,257.632 50.189,257.403 50.101 C 256.879 49.900,250.411 49.989,250.200 50.200 C 249.912 50.488,249.912 65.012,250.200 65.300 C 250.343 65.443,251.430 65.500,254.033 65.500 L 257.667 65.500 257.667 73.083 C 257.667 77.254,257.648 80.684,257.625 80.704 C 257.602 80.725,254.171 80.781,250.000 80.829 L 242.417 80.917 242.372 84.576 C 242.339 87.248,242.271 88.270,242.122 88.365 C 241.851 88.537,235.144 88.534,234.873 88.362 C 234.708 88.257,234.673 86.620,234.707 80.739 L 234.750 73.250 238.320 73.205 C 240.611 73.176,241.970 73.094,242.112 72.976 C 242.438 72.706,242.438 58.128,242.112 57.857 C 241.970 57.739,240.611 57.657,238.320 57.628 L 234.750 57.583 234.705 53.875 C 234.680 51.835,234.680 50.152,234.705 50.133 C 234.730 50.115,236.438 50.058,238.500 50.008 L 242.250 49.917 242.293 42.289 L 242.337 34.660 246.127 34.705 L 249.917 34.750 250.008 38.500 C 250.058 40.563,250.115 42.269,250.133 42.292 C 250.285 42.479,265.151 42.304,265.310 42.112 C 265.427 41.970,265.509 40.611,265.538 38.320 L 265.583 34.750 269.154 34.705 C 271.445 34.676,272.803 34.594,272.945 34.476 C 273.255 34.220,273.275 4.342,272.967 4.033 C 272.663 3.730,265.775 3.752,265.522 4.057 C 265.390 4.216,265.323 7.576,265.293 15.599 L 265.250 26.917 257.853 26.960 C 252.530 26.991,250.391 26.951,250.228 26.815 C 250.048 26.666,250.000 25.873,250.000 23.083 C 250.000 20.342,249.950 19.499,249.779 19.357 C 249.637 19.239,248.278 19.157,245.987 19.128 L 242.417 19.083 242.373 11.682 C 242.343 6.555,242.273 4.211,242.145 4.057 C 241.951 3.823,227.854 3.708,227.264 3.934 C 227.027 4.025,227.000 5.185,227.000 15.331 C 227.000 24.719,226.961 26.658,226.771 26.816 C 226.610 26.949,225.466 26.993,222.979 26.962 L 219.417 26.917 219.374 15.599 C 219.343 7.576,219.277 4.216,219.145 4.057 C 218.886 3.746,189.011 3.722,188.700 4.033 C 188.557 4.177,188.500 5.264,188.500 7.870 L 188.500 11.506 184.708 11.461 L 180.917 11.417 180.872 7.846 C 180.843 5.555,180.761 4.197,180.643 4.055 C 180.388 3.747,165.840 3.727,165.533 4.033 C 165.199 4.367,165.256 11.065,165.595 11.405 C 165.817 11.627,166.404 11.667,169.429 11.667 L 173.000 11.667 173.000 15.417 L 173.000 19.167 169.429 19.167 C 164.886 19.167,165.333 18.710,165.333 23.345 L 165.333 27.000 161.700 27.000 C 159.096 27.000,158.010 26.943,157.867 26.800 C 157.715 26.648,157.667 23.871,157.667 15.318 C 157.667 5.184,157.640 4.025,157.403 3.934 C 156.829 3.714,150.382 3.824,150.189 4.057 M250.200 4.033 C 249.942 4.291,249.918 10.868,250.173 11.344 C 250.384 11.739,257.082 11.852,257.467 11.467 C 257.805 11.128,257.746 4.066,257.403 3.934 C 256.879 3.733,250.411 3.822,250.200 4.033 M196.127 19.375 L 196.170 27.000 200.000 27.000 L 203.830 27.000 203.873 19.375 L 203.917 11.750 207.710 11.705 L 211.503 11.660 211.460 19.289 L 211.417 26.917 207.625 26.961 L 203.833 27.006 203.833 30.836 L 203.833 34.667 219.247 34.667 L 234.660 34.667 234.705 30.875 L 234.750 27.083 238.500 27.083 L 242.250 27.083 242.295 30.875 L 242.340 34.667 238.503 34.667 L 234.667 34.667 234.667 38.236 C 234.667 40.200,234.621 41.925,234.566 42.070 C 234.432 42.417,204.380 42.480,204.033 42.133 C 203.890 41.990,203.833 40.904,203.833 38.300 L 203.833 34.667 200.003 34.667 L 196.173 34.667 196.128 38.458 L 196.083 42.250 192.333 42.250 L 188.583 42.250 188.583 38.500 L 188.583 34.750 192.375 34.705 L 196.167 34.660 196.167 30.830 L 196.167 27.000 192.533 27.000 C 189.930 27.000,188.843 26.943,188.700 26.800 C 188.550 26.650,188.500 24.718,188.500 19.130 L 188.500 11.660 192.292 11.705 L 196.083 11.750 196.127 19.375 M180.793 30.648 C 180.824 38.897,180.785 41.941,180.645 42.110 C 180.491 42.295,179.753 42.331,176.852 42.295 L 173.250 42.250 173.205 38.643 C 173.171 35.918,173.107 34.991,172.942 34.854 C 172.804 34.740,171.412 34.657,169.154 34.628 L 165.583 34.583 165.539 30.792 L 165.494 27.000 169.130 27.000 C 171.736 27.000,172.823 26.943,172.967 26.800 C 173.110 26.657,173.167 25.570,173.167 22.964 L 173.167 19.327 176.958 19.372 L 180.750 19.417 180.793 30.648 M226.800 50.200 C 227.114 50.514,227.088 103.386,226.774 103.647 C 226.608 103.784,219.457 103.823,199.899 103.792 L 173.250 103.750 173.207 77.083 C 173.184 62.417,173.200 50.323,173.244 50.208 C 173.357 49.910,226.502 49.902,226.800 50.200 M181.041 57.804 C 180.875 57.910,180.841 61.862,180.874 77.010 L 180.917 96.083 199.899 96.126 C 213.787 96.157,218.942 96.118,219.107 95.980 C 219.421 95.720,219.447 58.180,219.133 57.867 C 218.901 57.634,181.405 57.573,181.041 57.804 M211.459 76.958 L 211.417 88.417 200.333 88.463 C 194.237 88.488,189.081 88.468,188.875 88.418 L 188.500 88.327 188.500 77.025 C 188.500 70.808,188.550 65.672,188.611 65.611 C 188.672 65.550,193.848 65.500,200.112 65.500 L 211.502 65.500 211.459 76.958 M196.367 73.200 C 196.084 73.483,196.084 80.350,196.367 80.633 C 196.578 80.845,203.045 80.933,203.570 80.732 C 203.912 80.601,203.972 73.539,203.633 73.200 C 203.350 72.917,196.650 72.917,196.367 73.200 M265.595 119.429 C 265.373 119.650,265.333 120.237,265.333 123.262 L 265.333 126.833 257.867 126.833 C 252.281 126.833,250.350 126.884,250.200 127.033 C 250.050 127.183,250.000 129.133,250.000 134.783 L 250.000 142.333 246.167 142.333 L 242.333 142.333 242.333 134.783 C 242.333 129.133,242.283 127.183,242.133 127.033 C 241.846 126.746,227.488 126.746,227.200 127.033 C 226.861 127.372,226.921 134.434,227.264 134.566 C 227.409 134.621,229.088 134.667,230.996 134.667 C 234.005 134.667,234.478 134.702,234.566 134.930 C 234.621 135.075,234.667 136.755,234.667 138.662 C 234.667 141.672,234.702 142.144,234.930 142.232 C 235.075 142.288,236.799 142.333,238.761 142.333 L 242.327 142.333 242.372 146.125 L 242.417 149.917 246.167 149.917 L 249.917 149.917 249.961 146.125 L 250.006 142.333 253.573 142.333 C 255.534 142.333,257.258 142.288,257.403 142.232 C 257.632 142.144,257.667 141.672,257.667 138.662 C 257.667 136.755,257.712 135.075,257.768 134.930 C 257.856 134.701,258.352 134.667,261.601 134.667 L 265.333 134.667 265.333 142.133 C 265.333 147.719,265.384 149.650,265.533 149.800 C 265.816 150.083,272.684 150.083,272.967 149.800 C 273.178 149.588,273.272 135.469,273.066 134.930 C 272.977 134.701,272.482 134.667,269.232 134.667 L 265.500 134.667 265.500 130.833 L 265.500 127.000 269.071 127.000 C 273.600 127.000,273.167 127.415,273.167 123.083 C 273.167 118.762,273.571 119.167,269.250 119.167 C 266.388 119.167,265.816 119.208,265.595 119.429 M173.000 130.833 L 173.000 134.667 169.250 134.667 L 165.500 134.667 165.500 130.833 L 165.500 127.000 169.250 127.000 L 173.000 127.000 173.000 130.833 M165.295 138.458 L 165.250 142.250 161.458 142.295 L 157.667 142.340 157.667 138.767 C 157.667 136.802,157.712 135.075,157.768 134.930 C 157.856 134.701,158.352 134.667,161.604 134.667 L 165.340 134.667 165.295 138.458 " stroke="none" fill="#000000" fill-rule="evenodd"></path>
   </g>
</svg>