<?xml version="1.0" encoding="utf-8"?>
<svg xmlns="http://www.w3.org/2000/svg" xml:space="preserve" xmlns:xlink="http://www.w3.org/1999/xlink" width="132" height="39.714" viewBox="0 0 132 39.714">
   <rect x="0" y="0" width="132" height="39.714" style="fill:#ffffff;" />
   <line fill="none" style="stroke:#000000; stroke-width:1;" x1="0.5" y1="0" x2="0.5" y2="30" />
   <line fill="none" style="stroke:#000000; stroke-width:2;" x1="3" y1="0" x2="3" y2="30" />
   <line fill="none" style="stroke:#000000; stroke-width:1;" x1="6.5" y1="0" x2="6.5" y2="30" />
   <line fill="none" style="stroke:#000000; stroke-width:1;" x1="9.5" y1="0" x2="9.5" y2="30" />
   <line fill="none" style="stroke:#000000; stroke-width:1;" x1="11.5" y1="0" x2="11.5" y2="30" />
   <line fill="none" style="stroke:#000000; stroke-width:1;" x1="13.5" y1="0" x2="13.5" y2="30" />
   <line fill="none" style="stroke:#000000; stroke-width:2;" x1="16" y1="0" x2="16" y2="30" />
   <line fill="none" style="stroke:#000000; stroke-width:1;" x1="19.5" y1="0" x2="19.5" y2="30" />
   <line fill="none" style="stroke:#000000; stroke-width:1;" x1="21.5" y1="0" x2="21.5" y2="30" />
   <line fill="none" style="stroke:#000000; stroke-width:1;" x1="23.5" y1="0" x2="23.5" y2="30" />
   <line fill="none" style="stroke:#000000; stroke-width:1;" x1="26.5" y1="0" x2="26.5" y2="30" />
   <line fill="none" style="stroke:#000000; stroke-width:2;" x1="29" y1="0" x2="29" y2="30" />
   <line fill="none" style="stroke:#000000; stroke-width:2;" x1="32" y1="0" x2="32" y2="30" />
   <line fill="none" style="stroke:#000000; stroke-width:1;" x1="35.5" y1="0" x2="35.5" y2="30" />
   <line fill="none" style="stroke:#000000; stroke-width:1;" x1="37.5" y1="0" x2="37.5" y2="30" />
   <line fill="none" style="stroke:#000000; stroke-width:1;" x1="39.5" y1="0" x2="39.5" y2="30" />
   <line fill="none" style="stroke:#000000; stroke-width:1;" x1="41.5" y1="0" x2="41.5" y2="30" />
   <line fill="none" style="stroke:#000000; stroke-width:2;" x1="44" y1="0" x2="44" y2="30" />
   <line fill="none" style="stroke:#000000; stroke-width:1;" x1="46.5" y1="0" x2="46.5" y2="30" />
   <line fill="none" style="stroke:#000000; stroke-width:1;" x1="49.5" y1="0" x2="49.5" y2="30" />
   <line fill="none" style="stroke:#000000; stroke-width:2;" x1="52" y1="0" x2="52" y2="30" />
   <line fill="none" style="stroke:#000000; stroke-width:1;" x1="54.5" y1="0" x2="54.5" y2="30" />
   <line fill="none" style="stroke:#000000; stroke-width:1;" x1="56.5" y1="0" x2="56.5" y2="30" />
   <line fill="none" style="stroke:#000000; stroke-width:1;" x1="59.5" y1="0" x2="59.5" y2="30" />
   <line fill="none" style="stroke:#000000; stroke-width:1;" x1="61.5" y1="0" x2="61.5" y2="30" />
   <line fill="none" style="stroke:#000000; stroke-width:1;" x1="64.5" y1="0" x2="64.5" y2="30" />
   <line fill="none" style="stroke:#000000; stroke-width:1;" x1="66.5" y1="0" x2="66.5" y2="30" />
   <line fill="none" style="stroke:#000000; stroke-width:2;" x1="69" y1="0" x2="69" y2="30" />
   <line fill="none" style="stroke:#000000; stroke-width:1;" x1="71.5" y1="0" x2="71.5" y2="30" />
   <line fill="none" style="stroke:#000000; stroke-width:1;" x1="74.5" y1="0" x2="74.5" y2="30" />
   <line fill="none" style="stroke:#000000; stroke-width:2;" x1="77" y1="0" x2="77" y2="30" />
   <line fill="none" style="stroke:#000000; stroke-width:1;" x1="79.5" y1="0" x2="79.5" y2="30" />
   <line fill="none" style="stroke:#000000; stroke-width:1;" x1="81.5" y1="0" x2="81.5" y2="30" />
   <line fill="none" style="stroke:#000000; stroke-width:2;" x1="85" y1="0" x2="85" y2="30" />
   <line fill="none" style="stroke:#000000; stroke-width:1;" x1="87.5" y1="0" x2="87.5" y2="30" />
   <line fill="none" style="stroke:#000000; stroke-width:1;" x1="89.5" y1="0" x2="89.5" y2="30" />
   <line fill="none" style="stroke:#000000; stroke-width:2;" x1="92" y1="0" x2="92" y2="30" />
   <line fill="none" style="stroke:#000000; stroke-width:1;" x1="94.5" y1="0" x2="94.5" y2="30" />
   <line fill="none" style="stroke:#000000; stroke-width:1;" x1="97.5" y1="0" x2="97.5" y2="30" />
   <line fill="none" style="stroke:#000000; stroke-width:1;" x1="99.5" y1="0" x2="99.5" y2="30" />
   <line fill="none" style="stroke:#000000; stroke-width:1;" x1="101.5" y1="0" x2="101.5" y2="30" />
   <line fill="none" style="stroke:#000000; stroke-width:1;" x1="103.5" y1="0" x2="103.5" y2="30" />
   <line fill="none" style="stroke:#000000; stroke-width:1;" x1="105.5" y1="0" x2="105.5" y2="30" />
   <line fill="none" style="stroke:#000000; stroke-width:2;" x1="109" y1="0" x2="109" y2="30" />
   <line fill="none" style="stroke:#000000; stroke-width:1;" x1="111.5" y1="0" x2="111.5" y2="30" />
   <line fill="none" style="stroke:#000000; stroke-width:2;" x1="114" y1="0" x2="114" y2="30" />
   <line fill="none" style="stroke:#000000; stroke-width:1;" x1="116.5" y1="0" x2="116.5" y2="30" />
   <line fill="none" style="stroke:#000000; stroke-width:1;" x1="119.5" y1="0" x2="119.5" y2="30" />
   <line fill="none" style="stroke:#000000; stroke-width:1;" x1="121.5" y1="0" x2="121.5" y2="30" />
   <line fill="none" style="stroke:#000000; stroke-width:2;" x1="124" y1="0" x2="124" y2="30" />
   <line fill="none" style="stroke:#000000; stroke-width:1;" x1="127.5" y1="0" x2="127.5" y2="30" />
   <line fill="none" style="stroke:#000000; stroke-width:1;" x1="130.5" y1="0" x2="130.5" y2="30" />
   <text x="66" y="37.763" text-anchor="middle" style="font-family: Tahoma; font-size: 9px; stroke: none; fill:#000000;">A12345678904A</text>
</svg>