<?xml version="1.0" encoding="utf-8"?>
<svg xmlns="http://www.w3.org/2000/svg" xml:space="preserve" xmlns:xlink="http://www.w3.org/1999/xlink" width="64" height="39.714" viewBox="0 0 64 39.714">
   <rect x="0" y="0" width="64" height="39.714" style="fill:#ffffff;" />
   <line fill="none" style="stroke:#000000; stroke-width:1;" x1="0.5" y1="0" x2="0.5" y2="30" />
   <line fill="none" style="stroke:#000000; stroke-width:1;" x1="2.5" y1="0" x2="2.5" y2="30" />
   <line fill="none" style="stroke:#000000; stroke-width:1;" x1="4.5" y1="0" x2="4.5" y2="30" />
   <line fill="none" style="stroke:#000000; stroke-width:1;" x1="7.5" y1="0" x2="7.5" y2="30" />
   <line fill="none" style="stroke:#000000; stroke-width:2;" x1="10" y1="0" x2="10" y2="30" />
   <line fill="none" style="stroke:#000000; stroke-width:2;" x1="13" y1="0" x2="13" y2="30" />
   <line fill="none" style="stroke:#000000; stroke-width:1;" x1="15.5" y1="0" x2="15.5" y2="30" />
   <line fill="none" style="stroke:#000000; stroke-width:1;" x1="18.5" y1="0" x2="18.5" y2="30" />
   <line fill="none" style="stroke:#000000; stroke-width:2;" x1="22" y1="0" x2="22" y2="30" />
   <line fill="none" style="stroke:#000000; stroke-width:1;" x1="25.5" y1="0" x2="25.5" y2="30" />
   <line fill="none" style="stroke:#000000; stroke-width:1;" x1="27.5" y1="0" x2="27.5" y2="30" />
   <line fill="none" style="stroke:#000000; stroke-width:2;" x1="30" y1="0" x2="30" y2="30" />
   <line fill="none" style="stroke:#000000; stroke-width:1;" x1="32.5" y1="0" x2="32.5" y2="30" />
   <line fill="none" style="stroke:#000000; stroke-width:1;" x1="35.5" y1="0" x2="35.5" y2="30" />
   <line fill="none" style="stroke:#000000; stroke-width:2;" x1="38" y1="0" x2="38" y2="30" />
   <line fill="none" style="stroke:#000000; stroke-width:1;" x1="41.5" y1="0" x2="41.5" y2="30" />
   <line fill="none" style="stroke:#000000; stroke-width:2;" x1="44" y1="0" x2="44" y2="30" />
   <line fill="none" style="stroke:#000000; stroke-width:1;" x1="46.5" y1="0" x2="46.5" y2="30" />
   <line fill="none" style="stroke:#000000; stroke-width:2;" x1="50" y1="0" x2="50" y2="30" />
   <line fill="none" style="stroke:#000000; stroke-width:2;" x1="53" y1="0" x2="53" y2="30" />
   <line fill="none" style="stroke:#000000; stroke-width:1;" x1="56.5" y1="0" x2="56.5" y2="30" />
   <line fill="none" style="stroke:#000000; stroke-width:1;" x1="58.5" y1="0" x2="58.5" y2="30" />
   <line fill="none" style="stroke:#000000; stroke-width:2;" x1="61" y1="0" x2="61" y2="30" />
   <line fill="none" style="stroke:#000000; stroke-width:1;" x1="63.5" y1="0" x2="63.5" y2="30" />
   <text x="32" y="37.763" text-anchor="middle" style="font-family: Tahoma; font-size: 9px; stroke: none; fill:#000000;">01234565</text>
</svg>