<?xml version="1.0" encoding="utf-8"?>
<svg xmlns="http://www.w3.org/2000/svg" xml:space="preserve" xmlns:xlink="http://www.w3.org/1999/xlink" width="182" height="39.714" viewBox="0 0 182 39.714">
   <rect x="0" y="0" width="182" height="39.714" style="fill:#ffffff;" />
   <line fill="none" style="stroke:#000000; stroke-width:1;" x1="0.5" y1="0" x2="0.5" y2="30" />
   <line fill="none" style="stroke:#000000; stroke-width:1;" x1="3.5" y1="0" x2="3.5" y2="30" />
   <line fill="none" style="stroke:#000000; stroke-width:2;" x1="6" y1="0" x2="6" y2="30" />
   <line fill="none" style="stroke:#000000; stroke-width:2;" x1="9" y1="0" x2="9" y2="30" />
   <line fill="none" style="stroke:#000000; stroke-width:1;" x1="11.5" y1="0" x2="11.5" y2="30" />
   <line fill="none" style="stroke:#000000; stroke-width:2;" x1="14" y1="0" x2="14" y2="30" />
   <line fill="none" style="stroke:#000000; stroke-width:2;" x1="17" y1="0" x2="17" y2="30" />
   <line fill="none" style="stroke:#000000; stroke-width:1;" x1="19.5" y1="0" x2="19.5" y2="30" />
   <line fill="none" style="stroke:#000000; stroke-width:1;" x1="22.5" y1="0" x2="22.5" y2="30" />
   <line fill="none" style="stroke:#000000; stroke-width:1;" x1="24.5" y1="0" x2="24.5" y2="30" />
   <line fill="none" style="stroke:#000000; stroke-width:2;" x1="27" y1="0" x2="27" y2="30" />
   <line fill="none" style="stroke:#000000; stroke-width:1;" x1="29.5" y1="0" x2="29.5" y2="30" />
   <line fill="none" style="stroke:#000000; stroke-width:2;" x1="32" y1="0" x2="32" y2="30" />
   <line fill="none" style="stroke:#000000; stroke-width:1;" x1="34.5" y1="0" x2="34.5" y2="30" />
   <line fill="none" style="stroke:#000000; stroke-width:1;" x1="37.5" y1="0" x2="37.5" y2="30" />
   <line fill="none" style="stroke:#000000; stroke-width:1;" x1="39.5" y1="0" x2="39.5" y2="30" />
   <line fill="none" style="stroke:#000000; stroke-width:1;" x1="41.5" y1="0" x2="41.5" y2="30" />
   <line fill="none" style="stroke:#000000; stroke-width:2;" x1="44" y1="0" x2="44" y2="30" />
   <line fill="none" style="stroke:#000000; stroke-width:1;" x1="47.5" y1="0" x2="47.5" y2="30" />
   <line fill="none" style="stroke:#000000; stroke-width:2;" x1="50" y1="0" x2="50" y2="30" />
   <line fill="none" style="stroke:#000000; stroke-width:2;" x1="53" y1="0" x2="53" y2="30" />
   <line fill="none" style="stroke:#000000; stroke-width:1;" x1="55.5" y1="0" x2="55.5" y2="30" />
   <line fill="none" style="stroke:#000000; stroke-width:2;" x1="58" y1="0" x2="58" y2="30" />
   <line fill="none" style="stroke:#000000; stroke-width:1;" x1="61.5" y1="0" x2="61.5" y2="30" />
   <line fill="none" style="stroke:#000000; stroke-width:1;" x1="63.5" y1="0" x2="63.5" y2="30" />
   <line fill="none" style="stroke:#000000; stroke-width:1;" x1="65.5" y1="0" x2="65.5" y2="30" />
   <line fill="none" style="stroke:#000000; stroke-width:2;" x1="69" y1="0" x2="69" y2="30" />
   <line fill="none" style="stroke:#000000; stroke-width:1;" x1="71.5" y1="0" x2="71.5" y2="30" />
   <line fill="none" style="stroke:#000000; stroke-width:2;" x1="74" y1="0" x2="74" y2="30" />
   <line fill="none" style="stroke:#000000; stroke-width:1;" x1="76.5" y1="0" x2="76.5" y2="30" />
   <line fill="none" style="stroke:#000000; stroke-width:2;" x1="79" y1="0" x2="79" y2="30" />
   <line fill="none" style="stroke:#000000; stroke-width:2;" x1="82" y1="0" x2="82" y2="30" />
   <line fill="none" style="stroke:#000000; stroke-width:1;" x1="85.5" y1="0" x2="85.5" y2="30" />
   <line fill="none" style="stroke:#000000; stroke-width:1;" x1="87.5" y1="0" x2="87.5" y2="30" />
   <line fill="none" style="stroke:#000000; stroke-width:1;" x1="89.5" y1="0" x2="89.5" y2="30" />
   <line fill="none" style="stroke:#000000; stroke-width:1;" x1="91.5" y1="0" x2="91.5" y2="30" />
   <line fill="none" style="stroke:#000000; stroke-width:2;" x1="95" y1="0" x2="95" y2="30" />
   <line fill="none" style="stroke:#000000; stroke-width:1;" x1="97.5" y1="0" x2="97.5" y2="30" />
   <line fill="none" style="stroke:#000000; stroke-width:2;" x1="100" y1="0" x2="100" y2="30" />
   <line fill="none" style="stroke:#000000; stroke-width:1;" x1="102.5" y1="0" x2="102.5" y2="30" />
   <line fill="none" style="stroke:#000000; stroke-width:2;" x1="105" y1="0" x2="105" y2="30" />
   <line fill="none" style="stroke:#000000; stroke-width:1;" x1="107.5" y1="0" x2="107.5" y2="30" />
   <line fill="none" style="stroke:#000000; stroke-width:2;" x1="110" y1="0" x2="110" y2="30" />
   <line fill="none" style="stroke:#000000; stroke-width:1;" x1="112.5" y1="0" x2="112.5" y2="30" />
   <line fill="none" style="stroke:#000000; stroke-width:1;" x1="115.5" y1="0" x2="115.5" y2="30" />
   <line fill="none" style="stroke:#000000; stroke-width:1;" x1="117.5" y1="0" x2="117.5" y2="30" />
   <line fill="none" style="stroke:#000000; stroke-width:2;" x1="120" y1="0" x2="120" y2="30" />
   <line fill="none" style="stroke:#000000; stroke-width:2;" x1="123" y1="0" x2="123" y2="30" />
   <line fill="none" style="stroke:#000000; stroke-width:1;" x1="126.5" y1="0" x2="126.5" y2="30" />
   <line fill="none" style="stroke:#000000; stroke-width:1;" x1="128.5" y1="0" x2="128.5" y2="30" />
   <line fill="none" style="stroke:#000000; stroke-width:1;" x1="130.5" y1="0" x2="130.5" y2="30" />
   <line fill="none" style="stroke:#000000; stroke-width:2;" x1="134" y1="0" x2="134" y2="30" />
   <line fill="none" style="stroke:#000000; stroke-width:1;" x1="136.5" y1="0" x2="136.5" y2="30" />
   <line fill="none" style="stroke:#000000; stroke-width:2;" x1="139" y1="0" x2="139" y2="30" />
   <line fill="none" style="stroke:#000000; stroke-width:1;" x1="141.5" y1="0" x2="141.5" y2="30" />
   <line fill="none" style="stroke:#000000; stroke-width:1;" x1="143.5" y1="0" x2="143.5" y2="30" />
   <line fill="none" style="stroke:#000000; stroke-width:2;" x1="146" y1="0" x2="146" y2="30" />
   <line fill="none" style="stroke:#000000; stroke-width:1;" x1="149.5" y1="0" x2="149.5" y2="30" />
   <line fill="none" style="stroke:#000000; stroke-width:2;" x1="152" y1="0" x2="152" y2="30" />
   <line fill="none" style="stroke:#000000; stroke-width:1;" x1="154.5" y1="0" x2="154.5" y2="30" />
   <line fill="none" style="stroke:#000000; stroke-width:1;" x1="156.5" y1="0" x2="156.5" y2="30" />
   <line fill="none" style="stroke:#000000; stroke-width:1;" x1="158.5" y1="0" x2="158.5" y2="30" />
   <line fill="none" style="stroke:#000000; stroke-width:2;" x1="161" y1="0" x2="161" y2="30" />
   <line fill="none" style="stroke:#000000; stroke-width:1;" x1="164.5" y1="0" x2="164.5" y2="30" />
   <line fill="none" style="stroke:#000000; stroke-width:2;" x1="167" y1="0" x2="167" y2="30" />
   <line fill="none" style="stroke:#000000; stroke-width:1;" x1="169.5" y1="0" x2="169.5" y2="30" />
   <line fill="none" style="stroke:#000000; stroke-width:1;" x1="172.5" y1="0" x2="172.5" y2="30" />
   <line fill="none" style="stroke:#000000; stroke-width:2;" x1="175" y1="0" x2="175" y2="30" />
   <line fill="none" style="stroke:#000000; stroke-width:2;" x1="178" y1="0" x2="178" y2="30" />
   <line fill="none" style="stroke:#000000; stroke-width:1;" x1="180.5" y1="0" x2="180.5" y2="30" />
   <text x="91" y="37.763" text-anchor="middle" style="font-family: Tahoma; font-size: 9px; stroke: none; fill:#000000;">CODE 3 OF 9</text>
</svg>