<svg id="svg" version="1.1" xmlns="http://www.w3.org/2000/svg" xmlns:xlink="http://www.w3.org/1999/xlink" width="400" height="153.84615384615384" viewBox="0, 0, 400,153.84615384615384">
   <g id="svgg">
      <path id="path0" d="M0.000 76.917 L 0.000 153.833 200.000 153.833 L 400.000 153.833 400.000 76.917 L 400.000 0.000 200.000 0.000 L 0.000 0.000 0.000 76.917 M30.125 70.740 C 30.159 107.555,30.125 116.923,29.959 117.029 C 29.611 117.250,25.595 117.195,25.367 116.967 C 25.153 116.753,25.057 25.313,25.270 24.759 C 25.359 24.527,25.690 24.497,27.728 24.537 L 30.083 24.583 30.125 70.740 M39.399 24.764 C 39.610 25.314,39.512 116.755,39.300 116.967 C 39.090 117.177,35.271 117.260,34.764 117.066 C 34.488 116.960,34.336 24.886,34.611 24.611 C 34.873 24.349,39.294 24.490,39.399 24.764 M46.292 70.740 C 46.325 107.555,46.292 116.923,46.125 117.029 C 45.799 117.236,44.089 117.189,43.867 116.967 C 43.653 116.753,43.557 25.312,43.770 24.757 C 43.855 24.535,44.090 24.495,45.062 24.535 L 46.250 24.583 46.292 70.740 M57.800 24.700 C 58.146 25.046,58.085 116.558,57.738 116.905 C 57.348 117.295,51.152 117.295,50.762 116.905 C 50.415 116.558,50.354 25.046,50.700 24.700 C 50.983 24.417,57.517 24.417,57.800 24.700 M64.792 70.649 C 64.823 104.564,64.785 116.775,64.647 116.941 C 64.410 117.226,62.646 117.246,62.367 116.967 C 62.144 116.744,62.062 24.827,62.284 24.605 C 62.349 24.540,62.930 24.509,63.576 24.535 L 64.750 24.583 64.792 70.649 M71.732 24.764 C 71.998 25.456,71.839 116.637,71.571 116.905 C 71.214 117.262,69.619 117.262,69.262 116.905 C 68.994 116.637,68.835 25.456,69.101 24.764 C 69.181 24.557,69.463 24.500,70.417 24.500 C 71.370 24.500,71.653 24.557,71.732 24.764 M78.625 70.649 C 78.656 104.564,78.618 116.775,78.480 116.941 C 78.243 117.226,76.479 117.246,76.200 116.967 C 75.977 116.744,75.895 24.827,76.118 24.605 C 76.182 24.540,76.764 24.509,77.409 24.535 L 78.583 24.583 78.625 70.649 M90.125 70.740 C 90.159 107.555,90.125 116.923,89.959 117.029 C 89.528 117.303,83.382 117.191,83.095 116.905 C 82.827 116.637,82.669 25.455,82.936 24.760 C 83.026 24.525,83.458 24.499,86.561 24.538 L 90.083 24.583 90.125 70.740 M97.066 24.764 C 97.277 25.314,97.179 116.755,96.967 116.967 C 96.759 117.174,95.226 117.243,94.764 117.066 C 94.488 116.960,94.336 24.886,94.611 24.611 C 94.861 24.361,96.961 24.492,97.066 24.764 M108.625 70.649 C 108.656 104.564,108.618 116.775,108.480 116.941 C 108.225 117.247,101.838 117.271,101.533 116.967 C 101.320 116.754,101.224 25.313,101.436 24.760 C 101.526 24.525,101.958 24.499,105.061 24.538 L 108.583 24.583 108.625 70.649 M115.566 24.764 C 115.831 25.456,115.672 116.637,115.405 116.905 C 115.047 117.262,113.453 117.262,113.095 116.905 C 112.828 116.637,112.669 25.456,112.934 24.764 C 113.014 24.557,113.296 24.500,114.250 24.500 C 115.204 24.500,115.486 24.557,115.566 24.764 M122.459 70.649 C 122.490 104.564,122.451 116.775,122.313 116.941 C 122.077 117.226,120.312 117.246,120.033 116.967 C 119.811 116.744,119.729 24.827,119.951 24.605 C 120.016 24.540,120.597 24.509,121.243 24.535 L 122.417 24.583 122.459 70.649 M133.967 24.700 C 134.313 25.046,134.251 116.558,133.905 116.905 C 133.515 117.295,127.319 117.295,126.929 116.905 C 126.582 116.558,126.521 25.046,126.867 24.700 C 127.149 24.417,133.684 24.417,133.967 24.700 M145.566 24.764 C 145.831 25.456,145.672 116.637,145.405 116.905 C 145.136 117.173,139.241 117.313,138.597 117.066 C 138.322 116.960,138.170 24.886,138.444 24.611 C 138.711 24.345,145.460 24.489,145.566 24.764 M157.066 24.764 C 157.277 25.314,157.179 116.755,156.967 116.967 C 156.825 117.109,155.819 117.167,153.500 117.167 C 151.181 117.167,150.175 117.109,150.033 116.967 C 149.815 116.748,149.726 24.829,149.944 24.611 C 150.211 24.345,156.960 24.489,157.066 24.764 M163.967 24.700 C 164.313 25.046,164.251 116.558,163.905 116.905 C 163.587 117.223,161.835 117.268,161.533 116.967 C 161.321 116.755,161.223 25.314,161.434 24.764 C 161.560 24.436,163.650 24.383,163.967 24.700 M170.899 24.764 C 171.110 25.314,171.012 116.755,170.800 116.967 C 170.593 117.174,169.059 117.243,168.597 117.066 C 168.322 116.960,168.170 24.886,168.444 24.611 C 168.694 24.361,170.795 24.492,170.899 24.764 M177.800 24.700 C 178.146 25.046,178.085 116.558,177.738 116.905 C 177.420 117.223,175.668 117.268,175.367 116.967 C 175.155 116.755,175.057 25.314,175.268 24.764 C 175.394 24.436,177.483 24.383,177.800 24.700 M184.792 70.649 C 184.823 104.564,184.785 116.775,184.647 116.941 C 184.410 117.226,182.646 117.246,182.367 116.967 C 182.144 116.744,182.062 24.827,182.284 24.605 C 182.349 24.540,182.930 24.509,183.576 24.535 L 184.750 24.583 184.792 70.649 M191.732 24.764 C 191.998 25.456,191.839 116.637,191.571 116.905 C 191.214 117.262,189.619 117.262,189.262 116.905 C 188.994 116.637,188.835 25.456,189.101 24.764 C 189.181 24.557,189.463 24.500,190.417 24.500 C 191.370 24.500,191.653 24.557,191.732 24.764 M203.232 24.764 C 203.443 25.314,203.345 116.755,203.133 116.967 C 202.991 117.109,201.985 117.167,199.667 117.167 C 197.348 117.167,196.342 117.109,196.200 116.967 C 195.982 116.748,195.893 24.829,196.111 24.611 C 196.378 24.345,203.127 24.489,203.232 24.764 M210.125 70.740 C 210.159 107.555,210.125 116.923,209.959 117.029 C 209.632 117.236,207.923 117.189,207.700 116.967 C 207.486 116.753,207.391 25.312,207.604 24.757 C 207.689 24.535,207.924 24.495,208.895 24.535 L 210.083 24.583 210.125 70.740 M221.732 24.764 C 221.998 25.456,221.839 116.637,221.571 116.905 C 221.303 117.173,215.408 117.313,214.764 117.066 C 214.488 116.960,214.336 24.886,214.611 24.611 C 214.878 24.345,221.627 24.489,221.732 24.764 M233.232 24.764 C 233.443 25.314,233.345 116.755,233.133 116.967 C 232.991 117.109,231.985 117.167,229.667 117.167 C 227.348 117.167,226.342 117.109,226.200 116.967 C 225.982 116.748,225.893 24.829,226.111 24.611 C 226.378 24.345,233.127 24.489,233.232 24.764 M240.125 70.740 C 240.159 107.555,240.125 116.923,239.959 117.029 C 239.632 117.236,237.923 117.189,237.700 116.967 C 237.486 116.753,237.391 25.312,237.604 24.757 C 237.689 24.535,237.924 24.495,238.895 24.535 L 240.083 24.583 240.125 70.740 M251.732 24.764 C 251.998 25.456,251.839 116.637,251.571 116.905 C 251.303 117.173,245.408 117.313,244.764 117.066 C 244.488 116.960,244.336 24.886,244.611 24.611 C 244.878 24.345,251.627 24.489,251.732 24.764 M258.625 70.649 C 258.656 104.564,258.618 116.775,258.480 116.941 C 258.243 117.226,256.479 117.246,256.200 116.967 C 255.977 116.744,255.895 24.827,256.118 24.605 C 256.182 24.540,256.764 24.509,257.409 24.535 L 258.583 24.583 258.625 70.649 M265.566 24.764 C 265.831 25.456,265.672 116.637,265.405 116.905 C 265.047 117.262,263.453 117.262,263.095 116.905 C 262.828 116.637,262.669 25.456,262.934 24.764 C 263.014 24.557,263.296 24.500,264.250 24.500 C 265.204 24.500,265.486 24.557,265.566 24.764 M272.459 70.649 C 272.490 104.564,272.451 116.775,272.313 116.941 C 272.077 117.226,270.312 117.246,270.033 116.967 C 269.811 116.744,269.729 24.827,269.951 24.605 C 270.016 24.540,270.597 24.509,271.243 24.535 L 272.417 24.583 272.459 70.649 M283.967 24.700 C 284.313 25.046,284.251 116.558,283.905 116.905 C 283.515 117.295,277.319 117.295,276.929 116.905 C 276.582 116.558,276.521 25.046,276.867 24.700 C 277.149 24.417,283.684 24.417,283.967 24.700 M295.566 24.764 C 295.831 25.456,295.672 116.637,295.405 116.905 C 295.136 117.173,289.241 117.313,288.597 117.066 C 288.322 116.960,288.170 24.886,288.444 24.611 C 288.711 24.345,295.460 24.489,295.566 24.764 M302.459 70.649 C 302.490 104.564,302.451 116.775,302.313 116.941 C 302.077 117.226,300.312 117.246,300.033 116.967 C 299.811 116.744,299.729 24.827,299.951 24.605 C 300.016 24.540,300.597 24.509,301.243 24.535 L 302.417 24.583 302.459 70.649 M309.399 24.764 C 309.610 25.314,309.512 116.755,309.300 116.967 C 308.998 117.268,307.246 117.223,306.929 116.905 C 306.582 116.558,306.521 25.046,306.867 24.700 C 307.183 24.383,309.273 24.436,309.399 24.764 M320.899 24.764 C 321.110 25.314,321.012 116.755,320.800 116.967 C 320.658 117.109,319.652 117.167,317.333 117.167 C 315.015 117.167,314.009 117.109,313.867 116.967 C 313.648 116.748,313.560 24.829,313.778 24.611 C 314.044 24.345,320.794 24.489,320.899 24.764 M327.800 24.700 C 328.146 25.046,328.085 116.558,327.738 116.905 C 327.420 117.223,325.668 117.268,325.367 116.967 C 325.155 116.755,325.057 25.314,325.268 24.764 C 325.394 24.436,327.483 24.383,327.800 24.700 M339.399 24.764 C 339.610 25.314,339.512 116.755,339.300 116.967 C 339.158 117.109,338.152 117.167,335.833 117.167 C 333.515 117.167,332.509 117.109,332.367 116.967 C 332.148 116.748,332.060 24.829,332.278 24.611 C 332.544 24.345,339.294 24.489,339.399 24.764 M346.292 70.649 C 346.323 104.564,346.285 116.775,346.147 116.941 C 345.910 117.226,344.146 117.246,343.867 116.967 C 343.644 116.744,343.562 24.827,343.784 24.605 C 343.849 24.540,344.430 24.509,345.076 24.535 L 346.250 24.583 346.292 70.649 M353.232 24.764 C 353.443 25.314,353.345 116.755,353.133 116.967 C 352.832 117.268,351.080 117.223,350.762 116.905 C 350.415 116.558,350.354 25.046,350.700 24.700 C 351.017 24.383,353.106 24.436,353.232 24.764 M362.459 70.649 C 362.490 104.564,362.451 116.775,362.313 116.941 C 362.063 117.243,357.999 117.265,357.700 116.967 C 357.487 116.753,357.390 25.313,357.603 24.759 C 357.692 24.527,358.023 24.497,360.061 24.537 L 362.417 24.583 362.459 70.649 M369.399 24.764 C 369.610 25.314,369.512 116.755,369.300 116.967 C 368.998 117.268,367.246 117.223,366.929 116.905 C 366.582 116.558,366.521 25.046,366.867 24.700 C 367.183 24.383,369.273 24.436,369.399 24.764 M378.625 70.649 C 378.656 104.564,378.618 116.775,378.480 116.941 C 378.229 117.243,374.165 117.265,373.867 116.967 C 373.653 116.753,373.557 25.313,373.770 24.759 C 373.859 24.527,374.190 24.497,376.228 24.537 L 378.583 24.583 378.625 70.649 M61.571 121.595 C 61.968 121.992,61.968 135.008,61.571 135.405 C 61.301 135.675,59.499 135.774,58.708 135.562 L 58.333 135.461 58.333 130.990 C 58.333 128.190,58.271 126.481,58.167 126.417 C 58.075 126.360,58.000 126.388,58.000 126.478 C 58.000 126.897,57.444 127.167,56.583 127.167 C 55.850 127.167,55.671 127.224,55.588 127.485 C 55.459 127.892,55.023 128.060,54.729 127.816 C 54.331 127.486,54.417 125.382,54.833 125.250 C 55.017 125.192,55.167 125.080,55.167 125.001 C 55.167 124.712,55.701 124.333,56.109 124.333 C 56.413 124.333,56.935 123.925,58.027 122.833 L 59.527 121.333 60.418 121.333 C 61.006 121.333,61.399 121.422,61.571 121.595 M105.531 121.750 C 105.779 122.035,106.065 122.167,106.435 122.167 C 106.826 122.167,107.006 122.257,107.081 122.491 C 107.137 122.670,107.330 122.863,107.509 122.919 C 107.687 122.976,107.833 123.093,107.833 123.179 C 107.833 123.265,108.021 123.499,108.250 123.698 C 108.825 124.198,108.887 126.693,108.333 127.039 C 108.133 127.164,108.000 127.427,108.000 127.700 C 108.000 128.294,105.336 131.000,104.751 131.000 C 104.434 131.000,102.667 132.495,102.667 132.764 C 102.667 132.802,103.872 132.833,105.344 132.833 C 108.648 132.833,108.667 132.841,108.667 134.250 C 108.667 135.139,108.612 135.351,108.344 135.494 C 107.765 135.804,98.079 135.722,97.762 135.405 C 97.339 134.982,97.425 134.057,97.917 133.735 C 98.199 133.550,98.333 133.309,98.333 132.989 C 98.333 132.333,100.793 129.833,101.438 129.833 C 101.843 129.833,103.000 128.822,103.000 128.467 C 103.000 128.394,103.078 128.333,103.172 128.333 C 103.390 128.333,104.500 127.233,104.500 127.017 C 104.500 126.928,104.650 126.808,104.833 126.750 C 105.314 126.597,105.329 124.907,104.851 124.756 C 104.678 124.701,104.497 124.508,104.450 124.328 C 104.163 123.230,101.007 124.310,101.002 125.508 C 100.999 126.198,100.712 126.333,99.250 126.333 C 98.422 126.333,97.823 126.256,97.700 126.133 C 97.255 125.688,97.615 124.333,98.179 124.333 C 98.264 124.333,98.333 124.045,98.333 123.693 C 98.333 123.173,98.411 123.018,98.750 122.864 C 98.979 122.759,99.167 122.560,99.167 122.420 C 99.167 122.236,99.348 122.167,99.833 122.167 C 100.200 122.167,100.500 122.097,100.500 122.012 C 100.500 121.182,104.841 120.956,105.531 121.750 M150.432 122.770 C 152.056 124.435,152.328 125.391,151.417 126.235 C 151.181 126.454,151.000 126.807,151.000 127.049 C 151.000 127.618,150.589 128.000,149.978 128.000 C 149.689 128.000,149.523 128.070,149.583 128.167 C 149.640 128.258,149.939 128.333,150.249 128.333 C 150.664 128.333,150.838 128.420,150.917 128.667 C 150.975 128.850,151.085 129.000,151.161 129.000 C 152.333 129.000,153.071 132.443,152.083 133.302 C 151.854 133.501,151.667 133.740,151.667 133.832 C 151.667 133.925,151.563 134.000,151.436 134.000 C 151.309 134.000,151.082 134.188,150.932 134.417 C 150.727 134.729,150.514 134.833,150.079 134.833 C 149.761 134.833,149.500 134.903,149.500 134.988 C 149.500 135.524,148.963 135.667,146.946 135.664 C 144.846 135.661,144.632 135.615,144.451 135.125 C 144.384 134.941,144.169 134.833,143.871 134.833 C 143.186 134.833,142.167 133.859,142.167 133.205 C 142.167 132.856,142.041 132.623,141.750 132.432 C 140.593 131.674,141.367 130.500,143.023 130.500 C 144.511 130.500,144.833 130.667,144.833 131.438 C 144.833 131.881,144.914 132.052,145.151 132.114 C 145.326 132.160,145.507 132.341,145.552 132.515 C 145.705 133.098,147.886 132.973,148.513 132.346 C 149.771 131.088,148.848 129.500,146.858 129.500 C 145.391 129.500,145.167 129.312,145.167 128.083 C 145.167 126.943,145.425 126.667,146.494 126.667 C 148.078 126.667,148.743 125.565,147.756 124.578 C 146.864 123.687,146.164 123.755,145.136 124.833 L 144.341 125.667 143.099 125.667 C 141.046 125.667,140.650 124.677,142.167 123.333 C 142.625 122.927,143.000 122.499,143.000 122.381 C 143.000 122.242,143.236 122.167,143.672 122.167 C 144.160 122.167,144.373 122.087,144.451 121.875 C 144.633 121.384,144.846 121.339,146.973 121.336 L 149.030 121.333 150.432 122.770 M193.905 121.595 C 194.128 121.819,194.167 122.441,194.167 125.837 L 194.167 129.817 195.208 129.867 L 196.250 129.917 196.250 131.167 L 196.250 132.417 195.208 132.466 L 194.167 132.516 194.167 133.829 C 194.167 135.554,194.054 135.667,192.333 135.667 C 190.611 135.667,190.500 135.555,190.500 133.825 L 190.500 132.508 187.542 132.462 L 184.583 132.417 184.536 130.805 C 184.492 129.321,184.515 129.184,184.819 129.088 C 185.001 129.030,185.196 128.837,185.253 128.658 C 185.309 128.479,185.433 128.333,185.528 128.333 C 185.850 128.333,186.667 127.299,186.667 126.891 C 186.667 126.597,187.110 126.043,188.250 124.912 C 189.576 123.597,189.833 123.257,189.833 122.822 C 189.833 122.442,189.923 122.279,190.167 122.215 C 190.350 122.167,190.500 122.067,190.500 121.992 C 190.500 121.541,191.076 121.333,192.333 121.333 C 193.302 121.333,193.711 121.402,193.905 121.595 M239.300 121.533 C 239.521 121.754,239.570 123.465,239.365 123.788 C 239.273 123.933,238.398 124.005,236.326 124.038 L 233.417 124.083 233.364 124.625 L 233.312 125.167 235.069 125.167 C 236.759 125.167,236.836 125.183,237.099 125.583 C 237.282 125.863,237.525 126.000,237.836 126.000 C 238.478 126.000,239.500 127.030,239.500 127.677 C 239.500 127.984,239.619 128.219,239.833 128.333 C 240.137 128.496,240.167 128.682,240.167 130.417 C 240.167 132.151,240.137 132.338,239.833 132.500 C 239.643 132.602,239.500 132.849,239.500 133.076 C 239.500 133.633,239.335 134.000,239.085 134.000 C 238.968 134.000,238.749 134.188,238.599 134.417 C 238.415 134.697,238.173 134.833,237.860 134.833 C 237.570 134.833,237.256 134.991,237.031 135.250 C 236.682 135.651,236.595 135.667,234.660 135.667 C 232.731 135.667,232.635 135.650,232.265 135.250 C 232.046 135.014,231.693 134.833,231.451 134.833 C 231.042 134.833,230.500 134.458,230.500 134.174 C 230.500 134.100,230.350 134.000,230.167 133.952 C 229.920 133.887,229.833 133.724,229.833 133.326 C 229.833 132.966,229.695 132.660,229.417 132.402 C 228.379 131.441,229.009 130.500,230.690 130.500 C 232.177 130.500,232.500 130.667,232.500 131.438 C 232.500 131.888,232.579 132.052,232.828 132.117 C 233.008 132.164,233.201 132.345,233.256 132.518 C 233.409 133.002,235.739 132.987,236.000 132.500 C 236.098 132.317,236.288 132.167,236.423 132.167 C 236.914 132.167,236.759 128.941,236.242 128.424 C 235.650 127.832,232.597 127.765,232.415 128.339 C 232.229 128.926,229.318 128.758,229.105 128.148 C 228.899 127.563,229.093 126.879,229.500 126.750 C 229.805 126.653,229.833 126.497,229.833 124.911 C 229.833 123.349,229.866 123.161,230.167 123.000 C 230.382 122.885,230.500 122.651,230.500 122.339 C 230.500 121.360,230.623 121.333,235.062 121.333 C 237.980 121.333,239.155 121.389,239.300 121.533 M282.320 122.347 C 282.877 122.904,283.333 123.429,283.333 123.513 C 283.333 123.598,283.443 123.667,283.577 123.667 C 283.882 123.667,284.167 124.179,284.167 124.727 C 284.167 125.466,283.776 125.667,282.333 125.667 C 280.944 125.667,280.994 125.691,280.083 124.604 C 279.592 124.017,278.000 123.675,278.000 124.155 C 278.000 124.240,277.625 124.672,277.168 125.113 C 276.330 125.922,275.988 127.100,276.500 127.417 C 276.592 127.473,276.667 127.446,276.667 127.355 C 276.667 126.529,280.185 126.301,280.864 127.083 C 281.089 127.342,281.403 127.500,281.693 127.500 C 282.006 127.500,282.249 127.637,282.432 127.917 C 282.582 128.146,282.804 128.333,282.925 128.333 C 283.045 128.333,283.192 128.483,283.250 128.667 C 283.308 128.850,283.420 129.000,283.499 129.000 C 283.994 129.000,284.167 129.562,284.167 131.167 C 284.167 132.772,283.994 133.333,283.499 133.333 C 283.420 133.333,283.308 133.483,283.250 133.667 C 283.192 133.850,283.045 134.000,282.925 134.000 C 282.804 134.000,282.582 134.188,282.432 134.417 C 282.249 134.697,282.006 134.833,281.693 134.833 C 281.403 134.833,281.089 134.991,280.864 135.250 C 280.516 135.651,280.428 135.667,278.505 135.667 L 276.508 135.667 275.087 134.268 C 273.909 133.108,273.667 132.781,273.667 132.351 C 273.667 132.067,273.597 131.833,273.512 131.833 C 272.936 131.833,272.833 131.329,272.833 128.500 C 272.833 125.671,272.936 125.167,273.512 125.167 C 273.597 125.167,273.667 124.906,273.667 124.587 C 273.667 124.153,273.771 123.939,274.083 123.735 C 274.313 123.585,274.500 123.363,274.500 123.242 C 274.500 123.121,274.646 122.976,274.825 122.919 C 275.003 122.863,275.196 122.670,275.253 122.491 C 275.332 122.242,275.508 122.167,276.011 122.167 C 276.372 122.167,276.667 122.097,276.667 122.012 C 276.667 121.474,277.203 121.333,279.249 121.333 L 281.307 121.333 282.320 122.347 M326.967 121.533 C 327.188 121.754,327.237 123.465,327.032 123.788 C 326.939 123.933,326.065 124.005,323.993 124.038 L 321.083 124.083 321.031 124.625 L 320.979 125.167 322.736 125.167 C 324.426 125.167,324.503 125.183,324.765 125.583 C 324.956 125.875,325.189 126.000,325.538 126.000 C 326.178 126.000,327.167 127.020,327.167 127.680 C 327.167 127.974,327.310 128.222,327.583 128.401 C 327.982 128.662,328.000 128.747,328.000 130.345 C 328.000 131.913,327.974 132.040,327.583 132.402 C 327.354 132.614,327.167 132.942,327.167 133.130 C 327.167 133.636,326.993 134.000,326.751 134.000 C 326.634 134.000,326.415 134.188,326.265 134.417 C 326.089 134.685,325.837 134.833,325.557 134.833 C 325.307 134.833,324.957 135.010,324.735 135.250 C 324.365 135.650,324.270 135.667,322.333 135.667 C 320.397 135.667,320.302 135.650,319.931 135.250 C 319.719 135.021,319.366 134.832,319.148 134.831 C 318.666 134.828,318.428 134.679,318.285 134.292 C 318.226 134.131,318.070 134.000,317.940 134.000 C 317.676 134.000,317.500 133.652,317.500 133.130 C 317.500 132.942,317.313 132.614,317.083 132.402 C 316.024 131.421,316.706 130.500,318.492 130.500 C 319.932 130.500,320.167 130.635,320.167 131.466 C 320.167 131.888,320.250 132.053,320.494 132.117 C 320.675 132.164,320.867 132.345,320.922 132.518 C 321.058 132.945,323.667 133.003,323.667 132.579 C 323.667 132.439,323.854 132.254,324.083 132.167 C 324.792 131.897,324.717 129.170,323.982 128.484 C 323.290 127.837,320.278 127.725,320.117 128.340 C 319.963 128.929,316.985 128.758,316.771 128.148 C 316.566 127.563,316.759 126.879,317.167 126.750 C 317.470 126.654,317.500 126.497,317.500 124.988 C 317.500 123.428,317.524 123.310,317.917 122.969 C 318.201 122.722,318.333 122.435,318.333 122.067 C 318.333 121.771,318.427 121.490,318.542 121.444 C 319.020 121.251,326.767 121.333,326.967 121.533 M190.278 125.778 C 190.217 125.839,190.167 126.134,190.167 126.433 C 190.167 126.826,190.076 127.006,189.842 127.081 C 189.663 127.137,189.471 127.330,189.414 127.509 C 189.357 127.687,189.248 127.833,189.172 127.833 C 188.991 127.833,187.833 128.991,187.833 129.172 C 187.833 129.248,187.682 129.359,187.498 129.417 C 186.779 129.646,187.424 129.833,188.927 129.833 L 190.500 129.833 190.500 127.750 C 190.500 126.604,190.475 125.667,190.444 125.667 C 190.414 125.667,190.339 125.717,190.278 125.778 M277.089 129.815 C 277.034 129.989,276.841 130.169,276.661 130.216 C 276.388 130.288,276.333 130.447,276.333 131.167 C 276.333 131.886,276.388 132.046,276.661 132.117 C 276.841 132.164,277.034 132.345,277.089 132.518 C 277.244 133.008,279.753 132.991,279.882 132.500 C 279.930 132.317,280.088 132.167,280.234 132.167 C 280.678 132.167,280.614 130.235,280.167 130.118 C 279.983 130.070,279.833 129.912,279.833 129.766 C 279.833 129.331,277.228 129.378,277.089 129.815 " stroke="none" fill="#ffffff" fill-rule="evenodd"></path>
      <path id="path1" d="M25.708 24.804 C 25.542 24.910,25.508 34.228,25.541 70.843 L 25.583 116.750 27.654 116.797 C 29.198 116.832,29.758 116.790,29.859 116.630 C 30.093 116.261,30.034 25.101,29.800 24.867 C 29.572 24.639,26.053 24.585,25.708 24.804 M34.867 24.867 C 34.632 25.101,34.573 116.261,34.807 116.630 C 34.909 116.790,35.469 116.832,37.013 116.797 L 39.083 116.750 39.125 70.843 C 39.159 34.228,39.125 24.910,38.959 24.804 C 38.614 24.585,35.094 24.639,34.867 24.867 M44.077 24.875 C 44.034 24.990,44.017 45.708,44.041 70.917 L 44.083 116.750 44.984 116.801 C 45.592 116.836,45.930 116.782,46.023 116.635 C 46.259 116.263,46.203 25.103,45.967 24.867 C 45.698 24.598,44.180 24.605,44.077 24.875 M51.041 24.804 C 50.875 24.910,50.841 34.228,50.875 70.843 L 50.917 116.750 54.250 116.750 L 57.583 116.750 57.625 70.843 C 57.659 34.228,57.625 24.910,57.459 24.804 C 57.344 24.731,55.900 24.672,54.250 24.672 C 52.600 24.672,51.156 24.731,51.041 24.804 M62.541 24.859 C 62.322 25.078,62.217 116.002,62.434 116.570 C 62.511 116.769,62.776 116.833,63.518 116.833 L 64.501 116.833 64.459 70.792 L 64.417 24.750 63.582 24.701 C 63.077 24.671,62.666 24.734,62.541 24.859 M69.541 24.804 C 69.375 24.910,69.341 34.228,69.375 70.843 L 69.417 116.750 70.417 116.750 L 71.417 116.750 71.459 70.843 C 71.492 34.228,71.458 24.910,71.292 24.804 C 71.177 24.731,70.783 24.672,70.417 24.672 C 70.050 24.672,69.656 24.731,69.541 24.804 M76.452 24.770 C 76.387 24.836,76.333 45.576,76.333 70.861 L 76.333 116.833 77.334 116.833 L 78.334 116.833 78.292 70.792 L 78.250 24.750 77.410 24.701 C 76.948 24.674,76.517 24.705,76.452 24.770 M83.375 24.804 C 83.208 24.910,83.175 34.228,83.208 70.843 L 83.250 116.750 86.488 116.795 C 88.967 116.830,89.757 116.791,89.860 116.629 C 90.094 116.261,90.034 25.100,89.800 24.867 C 89.570 24.637,83.728 24.580,83.375 24.804 M94.874 24.859 C 94.631 25.102,94.568 116.253,94.810 116.635 C 94.903 116.782,95.241 116.836,95.849 116.801 L 96.750 116.750 96.750 70.750 L 96.750 24.750 95.916 24.701 C 95.411 24.671,94.999 24.734,94.874 24.859 M101.875 24.802 C 101.708 24.909,101.675 34.229,101.708 70.843 L 101.750 116.750 105.042 116.795 L 108.334 116.840 108.292 70.795 L 108.250 24.750 105.167 24.709 C 103.471 24.686,101.989 24.728,101.875 24.802 M113.375 24.804 C 113.208 24.910,113.175 34.228,113.208 70.843 L 113.250 116.750 114.250 116.750 L 115.250 116.750 115.292 70.843 C 115.325 34.228,115.292 24.910,115.125 24.804 C 115.011 24.731,114.617 24.672,114.250 24.672 C 113.883 24.672,113.489 24.731,113.375 24.804 M120.278 24.778 C 120.217 24.839,120.167 45.576,120.167 70.861 L 120.167 116.833 121.149 116.833 C 121.891 116.833,122.156 116.769,122.232 116.570 C 122.443 116.019,122.345 25.079,122.133 24.867 C 121.923 24.657,120.469 24.587,120.278 24.778 M127.208 24.804 C 127.042 24.910,127.008 34.228,127.041 70.843 L 127.083 116.750 130.417 116.750 L 133.750 116.750 133.792 70.843 C 133.825 34.228,133.792 24.910,133.625 24.804 C 133.511 24.731,132.067 24.672,130.417 24.672 C 128.767 24.672,127.323 24.731,127.208 24.804 M138.700 24.867 C 138.466 25.100,138.406 116.261,138.640 116.629 C 138.743 116.791,139.533 116.830,142.012 116.795 L 145.250 116.750 145.292 70.843 C 145.325 34.228,145.292 24.910,145.125 24.804 C 144.772 24.580,138.930 24.637,138.700 24.867 M150.281 24.774 C 150.218 24.837,150.167 45.578,150.167 70.865 L 150.167 116.840 153.458 116.795 L 156.750 116.750 156.750 70.750 L 156.750 24.750 153.573 24.705 C 151.826 24.680,150.344 24.711,150.281 24.774 M161.875 24.804 C 161.708 24.910,161.675 34.228,161.708 70.843 L 161.750 116.750 162.651 116.801 C 163.259 116.836,163.597 116.782,163.690 116.635 C 163.926 116.263,163.870 25.103,163.633 24.867 C 163.409 24.643,162.197 24.600,161.875 24.804 M168.707 24.859 C 168.465 25.102,168.401 116.253,168.643 116.635 C 168.737 116.782,169.075 116.836,169.682 116.801 L 170.583 116.750 170.583 70.750 L 170.583 24.750 169.749 24.701 C 169.244 24.671,168.833 24.734,168.707 24.859 M175.708 24.804 C 175.542 24.910,175.508 34.228,175.541 70.843 L 175.583 116.750 176.583 116.750 L 177.583 116.750 177.625 70.843 C 177.659 34.228,177.625 24.910,177.459 24.804 C 177.344 24.731,176.950 24.672,176.583 24.672 C 176.217 24.672,175.823 24.731,175.708 24.804 M182.541 24.859 C 182.322 25.078,182.217 116.002,182.434 116.570 C 182.511 116.769,182.776 116.833,183.518 116.833 L 184.501 116.833 184.459 70.792 L 184.417 24.750 183.582 24.701 C 183.077 24.671,182.666 24.734,182.541 24.859 M189.541 24.804 C 189.375 24.910,189.341 34.228,189.375 70.843 L 189.417 116.750 190.417 116.750 L 191.417 116.750 191.459 70.843 C 191.492 34.228,191.458 24.910,191.292 24.804 C 191.177 24.731,190.783 24.672,190.417 24.672 C 190.050 24.672,189.656 24.731,189.541 24.804 M196.444 24.778 C 196.383 24.839,196.333 45.578,196.333 70.865 L 196.333 116.840 199.625 116.795 L 202.917 116.750 202.959 70.843 C 202.992 34.228,202.958 24.910,202.792 24.804 C 202.540 24.644,196.603 24.620,196.444 24.778 M207.910 24.875 C 207.867 24.990,207.851 45.708,207.874 70.917 L 207.917 116.750 208.818 116.801 C 209.425 116.836,209.763 116.782,209.857 116.635 C 210.092 116.263,210.036 25.103,209.800 24.867 C 209.531 24.598,208.013 24.605,207.910 24.875 M214.867 24.867 C 214.633 25.100,214.573 116.261,214.806 116.629 C 214.909 116.791,215.700 116.830,218.179 116.795 L 221.417 116.750 221.459 70.843 C 221.492 34.228,221.458 24.910,221.292 24.804 C 220.939 24.580,215.096 24.637,214.867 24.867 M226.444 24.778 C 226.383 24.839,226.333 45.578,226.333 70.865 L 226.333 116.840 229.625 116.795 L 232.917 116.750 232.959 70.843 C 232.992 34.228,232.958 24.910,232.792 24.804 C 232.540 24.644,226.603 24.620,226.444 24.778 M237.910 24.875 C 237.867 24.990,237.851 45.708,237.874 70.917 L 237.917 116.750 238.818 116.801 C 239.425 116.836,239.763 116.782,239.857 116.635 C 240.092 116.263,240.036 25.103,239.800 24.867 C 239.531 24.598,238.013 24.605,237.910 24.875 M244.867 24.867 C 244.633 25.100,244.573 116.261,244.806 116.629 C 244.909 116.791,245.700 116.830,248.179 116.795 L 251.417 116.750 251.459 70.843 C 251.492 34.228,251.458 24.910,251.292 24.804 C 250.939 24.580,245.096 24.637,244.867 24.867 M256.374 24.859 C 256.155 25.078,256.050 116.002,256.268 116.570 C 256.344 116.769,256.609 116.833,257.351 116.833 L 258.334 116.833 258.292 70.792 L 258.250 24.750 257.416 24.701 C 256.911 24.671,256.499 24.734,256.374 24.859 M263.375 24.804 C 263.208 24.910,263.175 34.228,263.208 70.843 L 263.250 116.750 264.250 116.750 L 265.250 116.750 265.292 70.843 C 265.325 34.228,265.292 24.910,265.125 24.804 C 265.011 24.731,264.617 24.672,264.250 24.672 C 263.883 24.672,263.489 24.731,263.375 24.804 M270.278 24.778 C 270.217 24.839,270.167 45.576,270.167 70.861 L 270.167 116.833 271.149 116.833 C 271.891 116.833,272.156 116.769,272.232 116.570 C 272.443 116.019,272.345 25.079,272.133 24.867 C 271.923 24.657,270.469 24.587,270.278 24.778 M277.208 24.804 C 277.042 24.910,277.008 34.228,277.041 70.843 L 277.083 116.750 280.321 116.795 C 282.800 116.830,283.591 116.791,283.694 116.629 C 283.927 116.261,283.867 25.100,283.633 24.867 C 283.404 24.637,277.561 24.580,277.208 24.804 M288.700 24.867 C 288.466 25.100,288.406 116.261,288.640 116.629 C 288.743 116.791,289.533 116.830,292.012 116.795 L 295.250 116.750 295.292 70.843 C 295.325 34.228,295.292 24.910,295.125 24.804 C 294.772 24.580,288.930 24.637,288.700 24.867 M300.278 24.778 C 300.217 24.839,300.167 45.576,300.167 70.861 L 300.167 116.833 301.149 116.833 C 301.891 116.833,302.156 116.769,302.232 116.570 C 302.443 116.019,302.345 25.079,302.133 24.867 C 301.923 24.657,300.469 24.587,300.278 24.778 M307.208 24.804 C 307.042 24.910,307.008 34.228,307.041 70.843 L 307.083 116.750 308.083 116.750 L 309.083 116.750 309.125 70.843 C 309.159 34.228,309.125 24.910,308.959 24.804 C 308.844 24.731,308.450 24.672,308.083 24.672 C 307.717 24.672,307.323 24.731,307.208 24.804 M314.078 24.871 C 314.034 24.988,314.017 45.708,314.041 70.917 L 314.083 116.750 317.333 116.750 L 320.583 116.750 320.583 70.750 L 320.583 24.750 317.371 24.705 C 314.892 24.670,314.141 24.708,314.078 24.871 M325.708 24.804 C 325.542 24.910,325.508 34.228,325.541 70.843 L 325.583 116.750 326.583 116.750 L 327.583 116.750 327.625 70.843 C 327.659 34.228,327.625 24.910,327.459 24.804 C 327.344 24.731,326.950 24.672,326.583 24.672 C 326.217 24.672,325.823 24.731,325.708 24.804 M332.533 24.867 C 332.300 25.100,332.240 116.261,332.473 116.629 C 332.576 116.791,333.367 116.830,335.845 116.795 L 339.083 116.750 339.125 70.843 C 339.159 34.228,339.125 24.910,338.959 24.804 C 338.606 24.580,332.763 24.637,332.533 24.867 M344.077 24.875 C 344.034 24.990,344.017 45.708,344.041 70.917 L 344.083 116.750 344.984 116.801 C 345.592 116.836,345.930 116.782,346.023 116.635 C 346.259 116.263,346.203 25.103,345.967 24.867 C 345.698 24.598,344.180 24.605,344.077 24.875 M351.041 24.804 C 350.875 24.910,350.841 34.228,350.875 70.843 L 350.917 116.750 351.917 116.750 L 352.917 116.750 352.959 70.843 C 352.992 34.228,352.958 24.910,352.792 24.804 C 352.677 24.731,352.283 24.672,351.917 24.672 C 351.550 24.672,351.156 24.731,351.041 24.804 M357.910 24.875 C 357.867 24.990,357.851 45.708,357.874 70.917 L 357.917 116.750 359.987 116.797 C 361.531 116.832,362.091 116.790,362.193 116.630 C 362.427 116.261,362.368 25.101,362.133 24.867 C 361.848 24.581,358.019 24.589,357.910 24.875 M367.208 24.804 C 367.042 24.910,367.008 34.228,367.041 70.843 L 367.083 116.750 368.083 116.750 L 369.083 116.750 369.125 70.843 C 369.159 34.228,369.125 24.910,368.959 24.804 C 368.844 24.731,368.450 24.672,368.083 24.672 C 367.717 24.672,367.323 24.731,367.208 24.804 M374.079 24.870 C 374.034 24.987,374.017 45.708,374.041 70.917 L 374.083 116.750 376.209 116.797 L 378.334 116.843 378.292 70.797 L 378.250 24.750 376.205 24.703 C 374.661 24.668,374.140 24.709,374.079 24.870 M58.127 123.163 C 57.020 124.305,56.565 124.667,56.233 124.667 C 55.534 124.667,54.666 125.726,54.669 126.574 C 54.673 127.600,54.922 127.862,55.350 127.292 C 55.650 126.893,55.809 126.833,56.577 126.833 C 57.298 126.833,57.503 126.767,57.700 126.471 C 58.384 125.441,58.500 126.045,58.500 130.641 C 58.500 135.662,58.394 135.372,60.193 135.299 L 61.417 135.250 61.417 128.500 L 61.417 121.750 60.500 121.704 L 59.583 121.659 58.127 123.163 M100.833 122.000 C 100.723 122.207,100.483 122.334,100.202 122.335 C 99.554 122.337,98.500 123.371,98.500 124.005 C 98.500 124.322,98.382 124.551,98.157 124.672 C 97.889 124.815,97.826 124.988,97.866 125.469 L 97.917 126.083 99.247 126.083 L 100.578 126.083 100.674 125.500 C 101.087 122.998,105.506 123.260,105.497 125.786 C 105.494 126.699,102.343 130.167,101.517 130.167 C 100.955 130.167,98.500 132.643,98.500 133.210 C 98.500 133.464,98.355 133.749,98.155 133.890 C 97.898 134.069,97.823 134.275,97.863 134.691 L 97.917 135.250 103.083 135.250 L 108.250 135.250 108.250 134.250 L 108.250 133.250 105.333 133.157 C 103.729 133.105,102.398 133.049,102.375 133.032 C 102.040 132.777,104.064 130.672,104.648 130.669 C 105.247 130.666,107.657 128.233,107.663 127.626 C 107.665 127.353,107.801 127.086,108.000 126.961 C 108.286 126.783,108.333 126.573,108.333 125.479 L 108.333 124.204 107.442 123.269 C 106.758 122.551,106.437 122.333,106.065 122.333 C 105.761 122.333,105.503 122.209,105.372 122.000 C 105.182 121.696,104.983 121.667,103.088 121.667 C 101.182 121.667,100.997 121.694,100.833 122.000 M144.667 122.000 C 144.556 122.206,144.315 122.335,144.036 122.337 C 143.303 122.342,141.633 124.053,141.699 124.731 L 141.750 125.250 142.988 125.300 L 144.226 125.349 144.952 124.591 C 145.634 123.880,145.732 123.833,146.556 123.833 C 149.118 123.833,149.038 126.886,146.473 127.032 L 145.583 127.083 145.583 128.083 L 145.583 129.083 146.918 129.167 C 148.637 129.274,149.333 129.853,149.333 131.175 C 149.333 133.732,144.745 133.961,144.471 131.417 L 144.417 130.917 143.083 130.917 L 141.750 130.917 141.696 131.476 C 141.657 131.892,141.731 132.097,141.988 132.277 C 142.191 132.419,142.334 132.704,142.335 132.968 C 142.337 133.553,143.293 134.500,143.881 134.500 C 144.139 134.500,144.439 134.665,144.637 134.917 C 144.953 135.319,145.033 135.333,146.922 135.333 C 148.795 135.333,148.895 135.316,149.265 134.917 C 149.477 134.688,149.824 134.500,150.035 134.500 C 150.275 134.500,150.777 134.153,151.376 133.573 L 152.333 132.646 152.333 131.548 L 152.333 130.451 151.349 129.475 C 150.682 128.815,150.231 128.500,149.952 128.500 C 148.970 128.500,149.081 127.753,150.081 127.640 C 150.515 127.591,150.593 127.501,150.682 126.950 C 150.742 126.575,150.930 126.214,151.142 126.065 C 151.974 125.482,151.665 124.459,150.209 122.979 L 148.917 121.667 146.881 121.667 C 145.016 121.667,144.830 121.695,144.667 122.000 M190.625 122.160 C 190.373 122.427,190.165 122.819,190.162 123.031 C 190.158 123.417,189.141 124.667,188.831 124.667 C 188.741 124.667,188.667 124.726,188.667 124.797 C 188.667 124.869,188.293 125.301,187.837 125.756 C 187.315 126.276,187.006 126.730,187.004 126.978 C 187.001 127.242,186.612 127.759,185.826 128.541 L 184.653 129.710 184.701 130.897 L 184.750 132.083 187.571 132.129 C 190.919 132.184,190.806 132.123,190.869 133.890 L 190.917 135.250 192.333 135.250 L 193.750 135.250 193.799 133.925 C 193.859 132.311,193.946 132.196,195.139 132.133 L 196.083 132.083 196.083 131.167 L 196.083 130.250 195.139 130.200 C 193.810 130.131,193.845 130.248,193.795 125.737 L 193.750 121.750 192.417 121.712 C 191.138 121.676,191.064 121.695,190.625 122.160 M230.947 121.775 C 230.885 121.838,230.833 122.121,230.833 122.404 C 230.833 122.739,230.717 122.993,230.500 123.128 C 230.205 123.313,230.167 123.517,230.167 124.926 C 230.167 126.420,230.141 126.540,229.738 126.913 C 229.432 127.197,229.324 127.445,229.363 127.780 C 229.436 128.421,232.003 128.617,232.330 128.007 C 232.495 127.698,232.670 127.667,234.214 127.668 L 235.917 127.670 236.458 128.228 C 236.994 128.780,237.000 128.802,237.000 130.412 L 237.000 132.038 236.384 132.603 C 235.100 133.778,232.341 133.126,232.335 131.645 C 232.332 130.965,232.001 130.813,230.640 130.867 L 229.417 130.917 229.367 131.422 C 229.331 131.789,229.434 132.036,229.742 132.326 C 229.976 132.545,230.167 132.905,230.167 133.125 C 230.167 133.661,231.024 134.500,231.572 134.500 C 231.823 134.500,232.153 134.673,232.364 134.917 C 232.712 135.316,232.805 135.333,234.667 135.333 C 236.528 135.333,236.621 135.316,236.969 134.917 C 237.169 134.686,237.512 134.500,237.736 134.500 C 238.264 134.500,239.167 133.597,239.167 133.069 C 239.167 132.845,239.353 132.503,239.583 132.302 C 239.971 131.965,240.000 131.834,240.000 130.416 C 240.000 129.005,239.969 128.862,239.583 128.500 C 239.354 128.285,239.167 127.923,239.167 127.697 C 239.167 127.094,238.209 126.171,237.582 126.168 C 237.262 126.167,237.005 126.046,236.872 125.833 C 236.687 125.537,236.483 125.500,235.032 125.500 C 233.269 125.500,233.000 125.390,233.000 124.667 C 233.000 123.890,233.209 123.834,236.075 123.831 C 239.227 123.828,239.202 123.837,239.135 122.651 L 239.083 121.750 235.072 121.705 C 232.866 121.681,231.010 121.712,230.947 121.775 M277.000 122.000 C 276.886 122.213,276.651 122.333,276.349 122.333 C 275.722 122.333,274.000 123.999,274.000 124.606 C 274.000 124.831,273.813 125.190,273.583 125.402 C 273.171 125.784,273.167 125.819,273.167 128.542 C 273.167 131.295,273.167 131.295,273.583 131.568 C 273.862 131.750,274.000 131.994,274.000 132.302 C 274.000 132.658,274.299 133.058,275.309 134.049 L 276.617 135.333 278.528 135.333 C 280.360 135.333,280.455 135.316,280.802 134.917 C 281.012 134.676,281.344 134.500,281.590 134.500 C 281.888 134.500,282.284 134.219,282.924 133.554 L 283.833 132.607 283.833 131.167 L 283.833 129.726 282.924 128.780 C 282.284 128.114,281.888 127.833,281.590 127.833 C 281.344 127.833,281.012 127.657,280.802 127.417 C 280.250 126.782,277.351 126.778,276.936 127.411 C 276.489 128.093,276.167 127.785,276.167 126.675 C 276.167 124.308,278.984 122.924,280.431 124.579 L 281.083 125.324 282.357 125.329 C 283.667 125.333,283.833 125.246,283.833 124.555 C 283.833 124.417,283.245 123.710,282.525 122.985 L 281.218 121.667 279.198 121.667 C 277.349 121.667,277.163 121.695,277.000 122.000 M318.614 121.775 C 318.551 121.838,318.500 122.121,318.500 122.404 C 318.500 122.739,318.383 122.993,318.167 123.128 C 317.871 123.313,317.833 123.517,317.833 124.926 C 317.833 126.420,317.807 126.540,317.405 126.913 C 317.098 127.197,316.991 127.445,317.030 127.780 C 317.103 128.421,319.670 128.617,319.996 128.007 C 320.161 127.698,320.337 127.667,321.881 127.668 L 323.583 127.670 324.125 128.228 C 324.660 128.779,324.667 128.804,324.667 130.398 L 324.667 132.011 324.089 132.589 C 322.895 133.783,320.007 133.107,319.997 131.631 C 319.993 130.905,319.806 130.815,318.402 130.867 C 316.858 130.925,316.495 131.439,317.403 132.281 C 317.648 132.508,317.833 132.863,317.833 133.103 C 317.833 133.661,318.677 134.500,319.238 134.500 C 319.490 134.500,319.819 134.673,320.031 134.917 C 320.379 135.316,320.472 135.333,322.333 135.333 C 324.195 135.333,324.288 135.316,324.636 134.917 C 324.847 134.673,325.177 134.500,325.428 134.500 C 325.682 134.500,326.059 134.300,326.346 134.013 C 326.633 133.726,326.833 133.349,326.833 133.095 C 326.833 132.843,327.007 132.514,327.250 132.302 C 327.639 131.964,327.667 131.837,327.667 130.369 C 327.667 128.892,327.642 128.778,327.250 128.470 C 326.999 128.272,326.833 127.973,326.833 127.714 C 326.833 127.126,325.886 126.171,325.301 126.168 C 325.046 126.167,324.754 126.026,324.623 125.839 C 324.425 125.556,324.162 125.506,322.659 125.464 C 320.925 125.417,320.924 125.416,320.760 124.950 C 320.427 124.000,320.634 123.926,323.851 123.833 L 326.750 123.750 326.750 122.750 L 326.750 121.750 322.739 121.705 C 320.533 121.681,318.677 121.712,318.614 121.775 M190.833 127.651 C 190.833 130.222,190.874 130.167,188.980 130.167 C 186.491 130.167,186.458 130.015,188.500 127.973 C 189.684 126.789,190.000 126.373,190.000 126.000 C 190.000 125.525,190.239 125.317,190.625 125.459 C 190.777 125.515,190.833 126.111,190.833 127.651 M280.256 129.744 C 281.701 131.190,280.687 133.167,278.500 133.167 C 276.338 133.167,275.314 131.217,276.708 129.757 C 277.538 128.888,279.393 128.881,280.256 129.744 " stroke="none" fill="#000000" fill-rule="evenodd"></path>
   </g>
</svg>