<svg id="svg" version="1.1" xmlns="http://www.w3.org/2000/svg" xmlns:xlink="http://www.w3.org/1999/xlink" width="400" height="153.84615384615384" viewBox="0, 0, 400,153.84615384615384">
   <g id="svgg">
      <path id="path0" d="M0.000 76.917 L 0.000 153.833 200.000 153.833 L 400.000 153.833 400.000 76.917 L 400.000 0.000 200.000 0.000 L 0.000 0.000 0.000 76.917 M98.467 13.867 C 98.866 14.266,98.744 129.113,98.344 129.327 C 98.167 129.422,97.712 129.500,97.333 129.500 C 96.955 129.500,96.500 129.422,96.322 129.327 C 96.002 129.156,95.782 14.761,96.101 13.930 C 96.226 13.604,98.153 13.553,98.467 13.867 M107.827 13.989 C 108.149 14.589,108.060 128.916,107.738 129.238 C 107.348 129.628,101.152 129.628,100.762 129.238 C 100.440 128.916,100.351 14.589,100.673 13.989 C 100.939 13.491,107.561 13.491,107.827 13.989 M116.967 13.867 C 117.313 14.213,117.251 128.891,116.905 129.238 C 116.640 129.503,115.298 129.604,114.764 129.399 C 114.488 129.293,114.336 14.053,114.611 13.778 C 114.805 13.584,116.757 13.657,116.967 13.867 M126.292 71.522 L 126.334 129.294 125.959 129.395 C 125.054 129.637,119.532 129.508,119.262 129.238 C 118.938 128.915,118.852 14.589,119.174 13.986 C 119.340 13.676,119.521 13.662,122.799 13.705 L 126.250 13.750 126.292 71.522 M130.800 13.867 C 131.146 14.213,131.085 128.891,130.738 129.238 C 130.471 129.505,129.421 129.586,128.708 129.395 L 128.333 129.294 128.333 71.592 C 128.333 39.855,128.383 13.839,128.444 13.778 C 128.639 13.584,130.591 13.657,130.800 13.867 M140.125 71.490 C 140.159 117.572,140.125 129.257,139.959 129.362 C 139.528 129.636,133.382 129.525,133.095 129.238 C 132.772 128.915,132.685 14.589,133.008 13.986 C 133.173 13.676,133.355 13.662,136.633 13.705 L 140.083 13.750 140.125 71.490 M144.633 13.867 C 145.033 14.266,144.911 129.113,144.511 129.327 C 144.334 129.422,143.879 129.500,143.500 129.500 C 143.121 129.500,142.666 129.422,142.489 129.327 C 142.168 129.156,141.949 14.761,142.268 13.930 C 142.393 13.604,144.319 13.553,144.633 13.867 M153.994 13.989 C 154.315 14.589,154.227 128.916,153.905 129.238 C 153.547 129.596,151.953 129.596,151.595 129.238 C 151.249 128.891,151.187 14.213,151.533 13.867 C 151.886 13.514,153.791 13.609,153.994 13.989 M163.133 13.867 C 163.480 14.213,163.418 128.891,163.071 129.238 C 162.757 129.552,156.888 129.630,156.322 129.327 C 156.002 129.156,155.782 14.761,156.101 13.930 C 156.232 13.588,162.796 13.529,163.133 13.867 M167.827 13.989 C 168.149 14.589,168.060 128.916,167.738 129.238 C 167.381 129.596,165.786 129.596,165.429 129.238 C 165.082 128.891,165.020 14.213,165.367 13.867 C 165.719 13.514,167.624 13.609,167.827 13.989 M176.967 13.867 C 177.313 14.213,177.251 128.891,176.905 129.238 C 176.591 129.552,170.721 129.630,170.156 129.327 C 169.756 129.113,169.634 14.266,170.033 13.867 C 170.316 13.584,176.684 13.584,176.967 13.867 M186.232 13.930 C 186.551 14.761,186.332 129.156,186.011 129.327 C 185.446 129.630,179.576 129.552,179.262 129.238 C 178.940 128.916,178.851 14.589,179.173 13.989 C 179.413 13.539,186.061 13.484,186.232 13.930 M195.494 13.989 C 195.815 14.589,195.727 128.916,195.405 129.238 C 195.136 129.507,189.241 129.646,188.597 129.399 C 188.322 129.293,188.170 14.053,188.444 13.778 C 188.757 13.465,195.319 13.662,195.494 13.989 M204.633 13.867 C 205.033 14.266,204.911 129.113,204.511 129.327 C 203.946 129.630,198.076 129.552,197.762 129.238 C 197.415 128.891,197.354 14.213,197.700 13.867 C 197.982 13.584,204.351 13.584,204.633 13.867 M209.300 13.867 C 209.646 14.213,209.585 128.891,209.238 129.238 C 208.881 129.596,207.286 129.596,206.929 129.238 C 206.607 128.916,206.518 14.589,206.839 13.989 C 207.043 13.609,208.948 13.514,209.300 13.867 M213.994 13.989 C 214.315 14.589,214.227 128.916,213.905 129.238 C 213.547 129.596,211.953 129.596,211.595 129.238 C 211.249 128.891,211.187 14.213,211.533 13.867 C 211.886 13.514,213.791 13.609,213.994 13.989 M218.467 13.867 C 218.866 14.266,218.744 129.113,218.344 129.327 C 217.929 129.550,216.738 129.550,216.322 129.327 C 215.922 129.113,215.801 14.266,216.200 13.867 C 216.310 13.757,216.820 13.667,217.333 13.667 C 217.847 13.667,218.357 13.757,218.467 13.867 M232.399 13.930 C 232.718 14.761,232.498 129.156,232.178 129.327 C 231.612 129.630,225.743 129.552,225.429 129.238 C 225.082 128.891,225.020 14.213,225.367 13.867 C 225.704 13.529,232.268 13.588,232.399 13.930 M241.661 13.989 C 241.982 14.589,241.893 128.916,241.571 129.238 C 241.303 129.507,235.408 129.646,234.764 129.399 C 234.488 129.293,234.336 14.053,234.611 13.778 C 234.924 13.465,241.486 13.662,241.661 13.989 M246.292 71.522 L 246.334 129.294 245.959 129.395 C 245.246 129.586,244.195 129.505,243.929 129.238 C 243.576 128.885,243.521 14.212,243.873 13.860 C 244.007 13.727,244.465 13.670,245.165 13.702 L 246.250 13.750 246.292 71.522 M255.494 13.989 C 255.815 14.589,255.727 128.916,255.405 129.238 C 255.047 129.596,253.453 129.596,253.095 129.238 C 252.773 128.916,252.685 14.589,253.006 13.989 C 253.149 13.722,253.361 13.667,254.250 13.667 C 255.139 13.667,255.351 13.722,255.494 13.989 M264.633 13.867 C 265.033 14.266,264.911 129.113,264.511 129.327 C 263.946 129.630,258.076 129.552,257.762 129.238 C 257.415 128.891,257.354 14.213,257.700 13.867 C 257.982 13.584,264.351 13.584,264.633 13.867 M273.994 13.989 C 274.315 14.589,274.227 128.916,273.905 129.238 C 273.547 129.596,271.953 129.596,271.595 129.238 C 271.249 128.891,271.187 14.213,271.533 13.867 C 271.886 13.514,273.791 13.609,273.994 13.989 M278.467 13.867 C 278.866 14.266,278.744 129.113,278.344 129.327 C 278.167 129.422,277.712 129.500,277.333 129.500 C 276.955 129.500,276.500 129.422,276.322 129.327 C 276.002 129.156,275.782 14.761,276.101 13.930 C 276.226 13.604,278.153 13.553,278.467 13.867 M283.133 13.867 C 283.480 14.213,283.418 128.891,283.071 129.238 C 282.714 129.596,281.119 129.596,280.762 129.238 C 280.440 128.916,280.351 14.589,280.673 13.989 C 280.876 13.609,282.781 13.514,283.133 13.867 M292.399 13.930 C 292.718 14.761,292.498 129.156,292.178 129.327 C 291.612 129.630,285.743 129.552,285.429 129.238 C 285.082 128.891,285.020 14.213,285.367 13.867 C 285.704 13.529,292.268 13.588,292.399 13.930 M301.661 13.989 C 301.982 14.589,301.893 128.916,301.571 129.238 C 301.214 129.596,299.619 129.596,299.262 129.238 C 298.940 128.916,298.851 14.589,299.173 13.989 C 299.316 13.722,299.528 13.667,300.417 13.667 C 301.306 13.667,301.518 13.722,301.661 13.989 M130.127 140.647 C 130.177 148.599,130.309 148.000,128.505 148.000 C 126.585 148.000,126.682 148.259,126.624 142.990 C 126.596 140.462,126.517 138.737,126.439 138.943 C 126.283 139.353,125.886 139.494,124.881 139.498 C 124.350 139.499,124.135 139.582,124.000 139.833 C 123.750 140.300,123.067 140.273,122.938 139.792 C 122.567 138.406,123.493 136.667,124.602 136.667 C 124.881 136.667,125.427 136.225,126.457 135.164 L 127.917 133.661 129.000 133.706 L 130.083 133.750 130.127 140.647 M153.205 134.000 C 153.320 134.183,153.588 134.333,153.801 134.333 C 154.324 134.333,154.833 134.624,154.833 134.923 C 154.833 135.057,154.894 135.167,154.967 135.167 C 155.041 135.167,155.379 135.421,155.717 135.731 L 156.333 136.295 156.333 137.725 C 156.333 138.984,156.294 139.176,156.000 139.333 C 155.788 139.447,155.667 139.682,155.667 139.981 C 155.667 140.699,153.072 143.333,152.364 143.333 C 152.002 143.333,151.825 143.429,151.750 143.667 C 151.692 143.850,151.567 144.000,151.472 144.000 C 151.315 144.000,150.333 144.949,150.333 145.101 C 150.333 145.137,151.593 145.167,153.133 145.167 C 155.089 145.167,155.994 145.227,156.133 145.367 C 156.486 145.719,156.391 147.624,156.011 147.827 C 155.432 148.137,145.746 148.056,145.429 147.738 C 145.006 147.316,145.092 146.390,145.583 146.068 C 145.868 145.882,146.000 145.643,146.000 145.317 C 146.000 144.684,148.463 142.167,149.082 142.167 C 149.876 142.167,152.833 138.950,152.833 138.086 C 152.833 136.517,150.250 135.502,149.432 136.750 C 149.282 136.979,149.048 137.167,148.913 137.167 C 148.745 137.167,148.667 137.343,148.667 137.717 C 148.667 138.539,148.432 138.667,146.917 138.667 C 145.116 138.667,144.473 137.768,145.583 136.802 C 145.816 136.600,146.000 136.259,146.000 136.031 C 146.000 135.406,147.120 134.334,147.772 134.333 C 148.154 134.333,148.318 134.244,148.382 134.000 C 148.463 133.687,148.609 133.667,150.733 133.667 C 152.817 133.667,153.014 133.693,153.205 134.000 M176.977 133.888 C 177.096 134.033,177.176 135.497,177.205 138.097 L 177.250 142.083 178.246 142.134 C 179.414 142.194,179.494 142.283,179.497 143.521 C 179.501 144.654,179.358 144.797,178.162 144.865 L 177.250 144.917 177.167 146.298 C 177.067 147.944,177.016 147.994,175.407 147.997 C 173.800 148.001,173.687 147.890,173.630 146.250 L 173.583 144.917 170.762 144.871 C 167.390 144.816,167.500 144.875,167.500 143.118 L 167.500 141.777 168.667 140.655 C 169.634 139.726,169.833 139.443,169.833 139.001 C 169.833 138.609,169.921 138.446,170.167 138.382 C 170.350 138.334,170.500 138.238,170.500 138.169 C 170.500 138.100,171.025 137.515,171.667 136.868 C 172.495 136.033,172.833 135.570,172.833 135.269 C 172.833 135.037,172.951 134.750,173.095 134.632 C 173.239 134.513,173.515 134.248,173.708 134.042 C 174.131 133.591,176.632 133.474,176.977 133.888 M201.661 133.989 C 201.899 134.435,201.877 135.711,201.625 136.049 C 201.447 136.288,201.008 136.335,198.583 136.373 L 195.750 136.417 195.698 136.958 L 195.646 137.500 197.402 137.500 C 199.092 137.500,199.169 137.516,199.432 137.917 C 199.632 138.223,199.852 138.333,200.258 138.333 C 200.664 138.333,200.839 138.422,200.917 138.667 C 200.975 138.850,201.087 139.000,201.166 139.000 C 201.471 139.000,201.833 139.546,201.833 140.006 C 201.833 140.318,201.951 140.551,202.167 140.667 C 202.469 140.828,202.500 141.016,202.500 142.671 C 202.500 144.317,202.467 144.518,202.167 144.705 C 201.968 144.829,201.833 145.094,201.833 145.359 C 201.833 146.041,200.711 147.167,200.032 147.167 C 199.739 147.167,199.500 147.236,199.500 147.321 C 199.500 148.150,195.093 148.384,194.568 147.583 C 194.389 147.310,194.141 147.167,193.847 147.167 C 193.186 147.167,192.167 146.178,192.167 145.538 C 192.167 145.189,192.041 144.956,191.750 144.765 C 190.593 144.007,191.367 142.833,193.023 142.833 C 194.495 142.833,194.833 143.003,194.833 143.745 C 194.833 144.160,194.920 144.338,195.158 144.414 C 195.337 144.471,195.529 144.663,195.586 144.842 C 195.772 145.428,197.882 145.311,198.513 144.679 C 199.144 144.048,199.278 141.111,198.685 140.922 C 198.511 140.867,198.331 140.675,198.284 140.494 C 198.136 139.930,195.144 140.006,194.765 140.583 C 194.455 141.056,191.957 141.224,191.533 140.800 C 191.157 140.423,191.288 139.370,191.750 139.068 C 192.148 138.807,192.167 138.721,192.167 137.149 C 192.167 135.683,192.203 135.480,192.500 135.295 C 192.683 135.180,192.833 134.912,192.833 134.699 C 192.833 133.653,192.775 133.667,197.333 133.667 C 201.271 133.667,201.497 133.684,201.661 133.989 M225.494 133.989 C 225.929 134.801,225.710 135.787,224.917 136.592 C 224.504 137.011,224.167 137.503,224.167 137.687 C 224.167 138.164,223.864 138.667,223.577 138.667 C 223.443 138.667,223.333 138.742,223.333 138.834 C 223.333 138.927,223.146 139.165,222.917 139.364 C 222.657 139.590,222.500 139.903,222.500 140.195 C 222.500 140.483,222.372 140.744,222.167 140.872 C 221.962 141.000,221.833 141.261,221.833 141.548 C 221.833 141.833,221.670 142.167,221.417 142.402 C 221.077 142.717,221.000 142.946,221.000 143.640 C 221.000 144.365,220.938 144.533,220.583 144.765 C 220.199 145.017,220.167 145.137,220.167 146.319 C 220.167 147.922,220.090 148.000,218.521 148.000 C 216.821 148.000,216.667 147.846,216.667 146.153 C 216.667 144.970,216.703 144.829,217.083 144.530 C 217.425 144.261,217.500 144.056,217.503 143.393 C 217.505 142.507,217.601 142.281,218.042 142.118 C 218.243 142.044,218.333 141.831,218.333 141.428 C 218.333 141.016,218.431 140.793,218.667 140.667 C 218.882 140.551,219.000 140.318,219.000 140.006 C 219.000 139.539,219.363 139.000,219.679 139.000 C 219.764 139.000,219.833 138.751,219.833 138.447 C 219.833 138.064,219.962 137.782,220.250 137.531 C 220.479 137.332,220.667 137.098,220.667 137.012 C 220.667 136.926,220.824 136.806,221.017 136.745 C 221.856 136.478,220.860 136.338,217.829 136.295 L 214.583 136.250 214.533 135.184 C 214.455 133.528,213.958 133.667,219.989 133.667 C 225.091 133.667,225.329 133.681,225.494 133.989 M246.284 133.994 C 246.331 134.175,246.507 134.366,246.676 134.420 C 246.845 134.473,247.028 134.659,247.083 134.833 C 247.139 135.007,247.326 135.195,247.500 135.250 C 247.674 135.305,247.861 135.493,247.917 135.667 C 247.972 135.841,248.163 136.029,248.342 136.086 C 248.881 136.257,248.813 138.146,248.250 138.636 C 248.021 138.835,247.833 139.068,247.833 139.154 C 247.833 139.240,247.687 139.357,247.509 139.414 C 247.330 139.471,247.140 139.655,247.086 139.824 C 247.033 139.993,246.823 140.188,246.619 140.257 C 246.296 140.368,246.322 140.393,246.833 140.455 C 247.608 140.549,248.000 140.931,248.000 141.590 C 248.000 141.988,248.087 142.150,248.333 142.215 C 248.634 142.294,248.667 142.442,248.667 143.730 L 248.667 145.158 247.684 146.162 C 246.900 146.964,246.597 147.167,246.184 147.167 C 245.899 147.167,245.667 147.236,245.667 147.321 C 245.667 148.151,241.323 148.379,240.696 147.583 C 240.501 147.335,240.198 147.167,239.948 147.167 C 239.655 147.167,239.218 146.858,238.513 146.153 L 237.500 145.140 237.503 143.862 C 237.505 142.511,237.573 142.291,238.042 142.118 C 238.243 142.044,238.333 141.831,238.333 141.432 C 238.333 140.787,238.472 140.656,239.328 140.485 C 239.839 140.384,239.869 140.353,239.557 140.252 C 239.359 140.188,239.159 139.987,239.111 139.806 C 239.064 139.624,238.869 139.435,238.679 139.385 C 238.489 139.335,238.333 139.199,238.333 139.083 C 238.333 138.967,238.146 138.749,237.917 138.599 C 237.549 138.358,237.500 138.208,237.500 137.333 C 237.500 136.459,237.549 136.309,237.917 136.068 C 238.146 135.918,238.333 135.696,238.333 135.575 C 238.333 135.455,238.479 135.309,238.658 135.253 C 238.837 135.196,239.029 135.003,239.086 134.825 C 239.143 134.646,239.260 134.500,239.346 134.500 C 239.432 134.500,239.665 134.313,239.864 134.083 C 240.374 133.497,246.133 133.418,246.284 133.994 M268.636 134.083 C 268.835 134.313,269.068 134.500,269.154 134.500 C 269.240 134.500,269.357 134.646,269.414 134.825 C 269.471 135.003,269.663 135.196,269.842 135.253 C 270.021 135.309,270.167 135.455,270.167 135.575 C 270.167 135.696,270.354 135.918,270.583 136.068 C 271.199 136.472,271.205 138.191,270.593 138.593 C 270.306 138.780,270.170 139.041,270.134 139.471 C 270.087 140.038,270.040 140.087,269.500 140.137 C 268.704 140.210,268.438 140.500,269.167 140.500 C 269.631 140.500,269.874 140.650,270.515 141.333 C 270.946 141.792,271.372 142.167,271.463 142.167 C 271.707 142.167,271.829 142.780,271.831 144.030 C 271.833 145.204,271.844 145.184,270.770 146.083 C 270.442 146.358,270.172 146.669,270.170 146.774 C 270.166 147.016,269.775 147.167,269.153 147.167 C 268.837 147.167,268.667 147.252,268.667 147.411 C 268.667 147.854,268.045 148.000,266.167 148.000 C 264.288 148.000,263.667 147.854,263.667 147.411 C 263.667 147.249,263.492 147.167,263.147 147.167 C 262.492 147.167,261.333 146.080,261.333 145.466 C 261.333 145.241,261.148 144.899,260.917 144.698 C 259.822 143.746,260.516 142.833,262.333 142.833 C 263.806 142.833,264.167 143.031,264.167 143.839 C 264.167 144.151,264.285 144.385,264.500 144.500 C 264.683 144.598,264.833 144.788,264.833 144.923 C 264.833 145.346,267.445 145.269,267.581 144.842 C 267.637 144.663,267.830 144.471,268.009 144.414 C 268.581 144.232,268.460 142.919,267.816 142.317 C 267.344 141.876,267.192 141.833,266.099 141.833 C 264.609 141.833,264.500 141.730,264.500 140.318 C 264.500 139.062,264.559 139.000,265.746 139.000 C 266.985 139.000,268.177 137.404,267.175 137.086 C 266.997 137.029,266.804 136.837,266.747 136.658 C 266.519 135.939,265.233 136.214,264.369 137.167 L 263.613 138.000 262.361 138.000 C 260.938 138.000,260.500 137.758,260.500 136.971 C 260.500 136.297,262.454 134.333,263.123 134.333 C 263.406 134.333,263.668 134.203,263.795 134.000 C 264.150 133.430,268.127 133.499,268.636 134.083 M241.698 136.750 C 241.499 136.979,241.260 137.167,241.168 137.167 C 240.833 137.167,240.980 138.193,241.328 138.284 C 241.508 138.331,241.701 138.511,241.756 138.685 C 241.939 139.261,244.055 139.137,244.679 138.513 C 245.245 137.947,245.330 137.241,244.851 137.089 C 244.678 137.034,244.497 136.841,244.450 136.661 C 244.307 136.113,242.192 136.182,241.698 136.750 M173.333 138.488 C 173.333 138.978,170.726 141.833,170.278 141.833 C 170.155 141.833,170.153 141.887,170.273 142.007 C 170.376 142.109,171.085 142.160,172.015 142.132 L 173.583 142.083 173.630 140.042 C 173.660 138.721,173.616 138.000,173.505 138.000 C 173.411 138.000,173.333 138.220,173.333 138.488 M241.458 142.331 C 240.872 142.946,240.789 144.244,241.325 144.414 C 241.503 144.471,241.696 144.663,241.753 144.842 C 241.945 145.449,244.066 145.310,244.683 144.649 C 245.295 143.994,245.379 142.792,244.833 142.500 C 244.650 142.402,244.500 142.212,244.500 142.077 C 244.500 141.557,241.997 141.765,241.458 142.331 " stroke="none" fill="#ffffff" fill-rule="evenodd"></path>
      <path id="path1" d="M96.278 14.111 C 96.027 14.362,96.152 128.780,96.404 128.989 C 96.536 129.099,96.995 129.163,97.445 129.135 L 98.250 129.083 98.292 71.542 L 98.334 14.000 97.361 14.000 C 96.826 14.000,96.339 14.050,96.278 14.111 M100.912 14.205 C 100.868 14.321,100.851 40.217,100.874 71.750 L 100.917 129.083 104.250 129.083 L 107.583 129.083 107.583 71.583 L 107.583 14.083 104.288 14.038 C 101.742 14.003,100.974 14.041,100.912 14.205 M114.785 14.104 C 114.617 14.272,114.642 128.703,114.810 128.968 C 114.903 129.115,115.241 129.169,115.849 129.135 L 116.750 129.083 116.750 71.583 L 116.750 14.083 115.827 14.034 C 115.319 14.007,114.850 14.039,114.785 14.104 M119.412 14.205 C 119.368 14.321,119.351 40.217,119.374 71.750 L 119.417 129.083 122.602 129.129 C 125.143 129.165,125.825 129.127,125.977 128.944 C 126.119 128.774,126.156 114.153,126.125 71.399 L 126.083 14.083 122.788 14.038 C 120.242 14.003,119.474 14.041,119.412 14.205 M128.618 14.104 C 128.362 14.360,128.481 128.776,128.737 128.989 C 128.870 129.099,129.328 129.163,129.779 129.135 L 130.583 129.083 130.583 71.583 L 130.583 14.083 129.660 14.034 C 129.152 14.007,128.683 14.039,128.618 14.104 M133.245 14.205 C 133.201 14.321,133.184 40.217,133.207 71.750 L 133.250 129.083 136.538 129.129 L 139.825 129.174 139.916 128.795 C 139.967 128.587,139.987 102.692,139.962 71.250 L 139.917 14.083 136.621 14.038 C 134.075 14.003,133.307 14.041,133.245 14.205 M142.444 14.111 C 142.193 14.362,142.319 128.780,142.570 128.989 C 142.703 129.099,143.162 129.163,143.612 129.135 L 144.417 129.083 144.459 71.542 L 144.500 14.000 143.528 14.000 C 142.993 14.000,142.506 14.050,142.444 14.111 M151.747 14.200 C 151.702 14.319,151.684 40.217,151.707 71.750 L 151.750 129.083 152.703 129.133 C 153.579 129.179,153.664 129.152,153.749 128.800 C 153.799 128.589,153.820 102.692,153.795 71.250 L 153.750 14.083 152.790 14.033 C 152.117 13.998,151.805 14.048,151.747 14.200 M156.281 14.108 C 156.034 14.355,156.149 128.778,156.397 128.983 C 156.556 129.116,157.593 129.160,159.772 129.129 L 162.917 129.083 162.917 71.583 L 162.917 14.083 159.656 14.038 C 157.863 14.013,156.344 14.045,156.281 14.108 M165.580 14.200 C 165.535 14.319,165.517 40.217,165.541 71.750 L 165.583 129.083 166.583 129.083 L 167.583 129.083 167.583 71.583 L 167.583 14.083 166.623 14.033 C 165.951 13.998,165.638 14.048,165.580 14.200 M170.208 71.538 L 170.250 129.083 173.500 129.083 L 176.750 129.083 176.750 71.583 L 176.750 14.083 173.458 14.038 L 170.166 13.993 170.208 71.538 M179.412 14.205 C 179.368 14.321,179.351 40.217,179.374 71.750 L 179.417 129.083 182.602 129.129 C 185.143 129.165,185.825 129.127,185.977 128.944 C 186.119 128.774,186.156 114.153,186.125 71.399 L 186.083 14.083 182.788 14.038 C 180.242 14.003,179.474 14.041,179.412 14.205 M188.615 14.108 C 188.452 14.271,188.477 128.705,188.640 128.962 C 188.743 129.124,189.533 129.163,192.012 129.129 L 195.250 129.083 195.250 71.583 L 195.250 14.083 191.990 14.038 C 190.196 14.013,188.678 14.045,188.615 14.108 M197.910 14.208 C 197.867 14.323,197.851 40.217,197.874 71.750 L 197.917 129.083 201.167 129.083 L 204.417 129.083 204.459 71.542 L 204.500 14.000 201.245 14.000 C 198.794 14.000,197.970 14.051,197.910 14.208 M207.080 14.200 C 207.035 14.319,207.017 40.217,207.041 71.750 L 207.083 129.083 208.083 129.083 L 209.083 129.083 209.083 71.583 L 209.083 14.083 208.123 14.033 C 207.451 13.998,207.138 14.048,207.080 14.200 M211.747 14.200 C 211.702 14.319,211.684 40.217,211.707 71.750 L 211.750 129.083 212.750 129.083 L 213.750 129.083 213.750 71.583 L 213.750 14.083 212.790 14.033 C 212.117 13.998,211.805 14.048,211.747 14.200 M216.375 71.542 L 216.417 129.083 217.333 129.083 L 218.250 129.083 218.292 71.542 L 218.334 14.000 217.333 14.000 L 216.333 14.000 216.375 71.542 M225.578 14.205 C 225.534 14.321,225.517 40.217,225.541 71.750 L 225.583 129.083 228.768 129.129 C 231.310 129.165,231.992 129.127,232.144 128.944 C 232.285 128.774,232.323 114.153,232.292 71.399 L 232.250 14.083 228.954 14.038 C 226.409 14.003,225.641 14.041,225.578 14.205 M234.781 14.108 C 234.618 14.271,234.643 128.705,234.806 128.962 C 234.909 129.124,235.700 129.163,238.179 129.129 L 241.417 129.083 241.417 71.583 L 241.417 14.083 238.156 14.038 C 236.363 14.013,234.844 14.045,234.781 14.108 M244.080 14.200 C 244.035 14.319,244.017 40.217,244.041 71.750 L 244.083 129.083 244.931 129.133 C 245.506 129.166,245.842 129.107,245.973 128.949 C 246.120 128.772,246.157 114.763,246.125 71.399 L 246.083 14.083 245.123 14.033 C 244.451 13.998,244.138 14.048,244.080 14.200 M253.247 14.200 C 253.202 14.319,253.184 40.217,253.207 71.750 L 253.250 129.083 254.250 129.083 L 255.250 129.083 255.250 71.583 L 255.250 14.083 254.290 14.033 C 253.617 13.998,253.305 14.048,253.247 14.200 M257.910 14.208 C 257.867 14.323,257.851 40.217,257.874 71.750 L 257.917 129.083 261.167 129.083 L 264.417 129.083 264.459 71.542 L 264.500 14.000 261.245 14.000 C 258.794 14.000,257.970 14.051,257.910 14.208 M271.747 14.200 C 271.702 14.319,271.684 40.217,271.707 71.750 L 271.750 129.083 272.703 129.133 C 273.579 129.179,273.664 129.152,273.749 128.800 C 273.799 128.589,273.820 102.692,273.795 71.250 L 273.750 14.083 272.790 14.033 C 272.117 13.998,271.805 14.048,271.747 14.200 M276.278 14.111 C 276.027 14.362,276.152 128.780,276.404 128.989 C 276.536 129.099,276.995 129.163,277.445 129.135 L 278.250 129.083 278.292 71.542 L 278.334 14.000 277.361 14.000 C 276.826 14.000,276.339 14.050,276.278 14.111 M280.914 14.200 C 280.868 14.319,280.851 40.217,280.874 71.750 L 280.917 129.083 281.917 129.083 L 282.917 129.083 282.917 71.583 L 282.917 14.083 281.956 14.033 C 281.284 13.998,280.971 14.048,280.914 14.200 M285.578 14.205 C 285.534 14.321,285.517 40.217,285.541 71.750 L 285.583 129.083 288.768 129.129 C 291.310 129.165,291.992 129.127,292.144 128.944 C 292.285 128.774,292.323 114.153,292.292 71.399 L 292.250 14.083 288.954 14.038 C 286.409 14.003,285.641 14.041,285.578 14.205 M299.414 14.200 C 299.368 14.319,299.351 40.217,299.374 71.750 L 299.417 129.083 300.417 129.083 L 301.417 129.083 301.417 71.583 L 301.417 14.083 300.456 14.033 C 299.784 13.998,299.471 14.048,299.414 14.200 M126.500 135.508 C 125.491 136.568,124.968 136.997,124.684 136.998 C 123.952 137.001,123.170 137.964,123.168 138.865 C 123.166 139.784,123.398 140.006,123.853 139.518 C 124.097 139.255,124.381 139.167,124.977 139.167 C 125.612 139.167,125.855 139.082,126.165 138.752 C 126.923 137.945,126.990 138.283,127.039 143.143 L 127.083 147.583 128.453 147.632 C 130.172 147.692,130.020 148.409,129.963 140.500 L 129.917 134.083 128.917 134.051 L 127.917 134.020 126.500 135.508 M148.500 134.333 C 148.381 134.555,148.151 134.667,147.811 134.667 C 147.192 134.667,146.333 135.500,146.333 136.102 C 146.333 136.322,146.146 136.665,145.917 136.864 C 145.629 137.115,145.500 137.398,145.500 137.780 L 145.500 138.333 146.917 138.333 L 148.333 138.333 148.333 137.839 C 148.333 136.245,151.388 135.454,152.625 136.728 C 153.712 137.847,153.495 138.555,151.435 140.608 C 150.246 141.792,149.583 142.333,149.321 142.333 C 148.773 142.333,146.333 144.834,146.333 145.395 C 146.333 145.641,146.160 145.946,145.905 146.146 C 145.572 146.408,145.489 146.603,145.530 147.033 L 145.583 147.583 150.647 147.627 C 156.222 147.676,156.167 147.686,156.167 146.660 C 156.167 145.459,156.272 145.500,153.169 145.500 C 149.608 145.500,149.497 145.425,150.929 143.994 C 151.572 143.352,152.055 143.006,152.312 143.004 C 152.873 142.998,155.333 140.524,155.333 139.966 C 155.333 139.742,155.521 139.382,155.750 139.167 C 156.111 138.827,156.167 138.632,156.167 137.696 L 156.167 136.618 155.182 135.642 C 154.492 134.958,154.069 134.667,153.767 134.667 C 153.517 134.667,153.249 134.527,153.128 134.333 C 152.938 134.028,152.739 134.000,150.799 134.000 C 148.849 134.000,148.664 134.027,148.500 134.333 M173.625 134.502 C 173.369 134.759,173.167 135.146,173.167 135.380 C 173.167 135.683,172.756 136.211,171.667 137.306 C 170.661 138.318,170.165 138.941,170.162 139.199 C 170.158 139.527,169.159 140.833,168.912 140.833 C 168.350 140.833,167.837 141.987,167.876 143.167 L 167.917 144.417 170.778 144.500 C 174.109 144.597,173.894 144.482,174.000 146.222 L 174.083 147.583 175.417 147.583 L 176.750 147.583 176.833 146.222 C 176.932 144.606,176.931 144.609,178.138 144.501 L 179.083 144.417 179.135 143.516 C 179.195 142.462,179.076 142.340,177.992 142.336 C 176.814 142.332,176.833 142.406,176.833 137.967 L 176.833 134.000 175.458 134.021 C 174.194 134.041,174.047 134.080,173.625 134.502 M193.281 134.108 C 193.218 134.171,193.167 134.421,193.167 134.664 C 193.167 134.928,192.999 135.253,192.750 135.469 C 192.359 135.809,192.333 135.930,192.333 137.459 C 192.333 138.922,192.299 139.108,191.990 139.301 C 191.736 139.459,191.660 139.655,191.698 140.049 L 191.750 140.583 193.062 140.632 C 194.227 140.676,194.402 140.643,194.614 140.341 C 194.827 140.036,195.029 140.000,196.515 140.000 L 198.178 140.000 198.756 140.578 L 199.333 141.156 199.333 142.734 L 199.333 144.312 198.708 144.905 C 197.376 146.167,194.664 145.423,194.473 143.742 L 194.417 143.250 193.083 143.250 L 191.750 143.250 191.698 143.784 C 191.660 144.179,191.736 144.374,191.990 144.532 C 192.212 144.671,192.334 144.924,192.335 145.248 C 192.337 145.886,193.261 146.833,193.881 146.833 C 194.139 146.833,194.439 146.999,194.637 147.250 C 194.954 147.653,195.030 147.667,196.963 147.667 C 198.911 147.667,198.969 147.656,199.235 147.250 C 199.415 146.975,199.663 146.833,199.962 146.832 C 200.548 146.829,201.500 145.877,201.500 145.293 C 201.500 145.027,201.654 144.771,201.917 144.599 C 202.312 144.340,202.333 144.245,202.333 142.776 C 202.333 141.331,202.305 141.202,201.917 140.864 C 201.675 140.655,201.500 140.323,201.500 140.076 C 201.500 139.509,200.519 138.500,199.967 138.500 C 199.739 138.500,199.416 138.350,199.250 138.167 C 198.991 137.881,198.737 137.833,197.463 137.833 C 195.797 137.833,195.333 137.672,195.333 137.091 C 195.333 136.160,195.312 136.167,198.331 136.167 C 201.525 136.167,201.549 136.157,201.468 134.888 L 201.417 134.083 197.406 134.039 C 195.200 134.014,193.343 134.046,193.281 134.108 M214.780 134.109 C 214.587 134.301,214.655 135.755,214.867 135.967 C 215.008 136.108,216.001 136.167,218.269 136.167 C 221.930 136.167,222.014 136.202,220.894 137.289 C 220.408 137.760,220.167 138.136,220.167 138.422 C 220.167 138.664,219.986 139.017,219.750 139.235 C 219.508 139.460,219.333 139.806,219.333 140.062 C 219.333 140.324,219.165 140.649,218.917 140.864 C 218.659 141.089,218.500 141.404,218.500 141.691 C 218.500 141.984,218.377 142.221,218.167 142.333 C 217.896 142.478,217.833 142.682,217.833 143.419 C 217.833 144.206,217.777 144.362,217.410 144.603 C 217.007 144.867,216.990 144.944,217.035 146.232 L 217.083 147.583 218.402 147.633 C 219.976 147.691,219.994 147.673,219.997 146.067 C 220.000 145.099,220.060 144.830,220.333 144.583 C 220.579 144.361,220.667 144.070,220.667 143.473 C 220.667 142.818,220.746 142.596,221.083 142.302 C 221.336 142.083,221.500 141.762,221.500 141.489 C 221.500 141.192,221.642 140.945,221.917 140.765 C 222.208 140.575,222.333 140.342,222.333 139.993 C 222.333 139.620,222.521 139.314,223.083 138.776 C 223.563 138.316,223.835 137.912,223.837 137.654 C 223.839 137.399,224.119 136.973,224.594 136.501 C 225.311 135.789,225.346 135.712,225.299 134.918 L 225.250 134.083 220.072 134.039 C 217.224 134.015,214.843 134.046,214.780 134.109 M239.042 135.270 C 237.314 137.031,237.308 137.628,238.999 139.260 C 240.231 140.450,240.316 140.833,239.346 140.833 C 238.775 140.833,238.500 141.113,238.500 141.694 C 238.500 141.984,238.377 142.221,238.167 142.333 C 237.877 142.488,237.834 142.680,237.837 143.798 L 237.841 145.083 238.731 145.958 C 239.347 146.564,239.755 146.833,240.056 146.833 C 240.337 146.833,240.589 146.981,240.765 147.250 C 241.032 147.657,241.086 147.667,243.083 147.667 C 245.081 147.667,245.135 147.657,245.401 147.250 C 245.580 146.977,245.831 146.832,246.129 146.830 C 246.455 146.827,246.831 146.574,247.458 145.936 L 248.333 145.046 248.333 143.779 C 248.333 142.695,248.286 142.487,248.010 142.339 C 247.797 142.225,247.669 141.952,247.635 141.541 C 247.586 140.949,247.551 140.914,246.949 140.864 C 245.971 140.784,246.028 140.466,247.236 139.258 C 248.863 137.631,248.840 136.996,247.093 135.244 L 245.853 134.000 243.052 134.019 L 240.250 134.038 239.042 135.270 M263.872 134.333 C 263.747 134.533,263.481 134.668,263.207 134.670 C 262.512 134.675,260.789 136.470,260.863 137.113 C 260.916 137.579,260.929 137.584,262.200 137.632 L 263.484 137.680 264.196 136.924 C 265.181 135.877,266.378 135.814,267.272 136.762 C 268.306 137.858,267.408 139.333,265.707 139.333 C 264.785 139.333,264.667 139.456,264.667 140.417 C 264.667 141.442,264.745 141.500,266.125 141.500 C 268.389 141.500,269.406 143.438,267.922 144.922 C 266.728 146.116,263.841 145.440,263.831 143.964 C 263.826 143.238,263.639 143.149,262.236 143.201 L 260.917 143.250 260.865 143.781 C 260.825 144.199,260.905 144.372,261.240 144.592 C 261.530 144.782,261.667 145.022,261.667 145.340 C 261.667 145.969,262.531 146.833,263.160 146.833 C 263.476 146.833,263.717 146.969,263.901 147.250 C 264.167 147.656,264.225 147.667,266.167 147.667 C 268.108 147.667,268.166 147.656,268.432 147.250 C 268.616 146.969,268.858 146.833,269.175 146.833 C 269.517 146.833,269.896 146.590,270.572 145.935 L 271.500 145.036 271.497 143.893 L 271.493 142.750 270.566 141.792 C 269.872 141.075,269.521 140.833,269.173 140.833 C 268.601 140.833,268.251 140.482,268.537 140.196 C 268.645 140.088,268.928 140.000,269.167 140.000 C 269.726 140.000,270.000 139.716,270.000 139.135 C 270.000 138.850,270.129 138.589,270.333 138.461 C 271.185 137.930,270.813 136.649,269.402 135.252 L 268.138 134.000 266.109 134.000 C 264.261 134.000,264.062 134.030,263.872 134.333 M244.958 136.728 C 246.706 138.527,243.128 140.471,241.311 138.708 C 240.522 137.943,240.500 137.519,241.208 136.771 C 242.033 135.900,244.131 135.876,244.958 136.728 M173.800 137.867 C 174.076 138.142,174.076 141.858,173.800 142.133 C 173.493 142.440,170.185 142.407,170.065 142.096 C 170.008 141.947,170.539 141.308,171.487 140.382 C 172.600 139.295,173.000 138.793,173.000 138.485 C 173.000 138.099,173.264 137.667,173.500 137.667 C 173.555 137.667,173.690 137.757,173.800 137.867 M244.936 142.116 C 246.903 144.264,243.384 146.923,241.314 144.853 C 240.432 143.971,240.395 143.011,241.208 142.125 C 242.057 141.201,244.093 141.196,244.936 142.116 " stroke="none" fill="#000000" fill-rule="evenodd"></path>
   </g>
</svg>