<?xml version="1.0" encoding="utf-8"?>
<svg xmlns="http://www.w3.org/2000/svg" xml:space="preserve" xmlns:xlink="http://www.w3.org/1999/xlink" width="100" height="39.714" viewBox="0 0 100 39.714">
   <rect x="0" y="0" width="100" height="39.714" style="fill:#ffffff;" />
   <line fill="none" style="stroke:#000000; stroke-width:1;" x1="0.5" y1="0" x2="0.5" y2="30" />
   <line fill="none" style="stroke:#000000; stroke-width:1;" x1="2.5" y1="0" x2="2.5" y2="30" />
   <line fill="none" style="stroke:#000000; stroke-width:4;" x1="6" y1="0" x2="6" y2="30" />
   <line fill="none" style="stroke:#000000; stroke-width:2;" x1="10" y1="0" x2="10" y2="30" />
   <line fill="none" style="stroke:#000000; stroke-width:1;" x1="12.5" y1="0" x2="12.5" y2="30" />
   <line fill="none" style="stroke:#000000; stroke-width:1;" x1="16.5" y1="0" x2="16.5" y2="30" />
   <line fill="none" style="stroke:#000000; stroke-width:1;" x1="18.5" y1="0" x2="18.5" y2="30" />
   <line fill="none" style="stroke:#000000; stroke-width:1;" x1="21.5" y1="0" x2="21.5" y2="30" />
   <line fill="none" style="stroke:#000000; stroke-width:2;" x1="24" y1="0" x2="24" y2="30" />
   <line fill="none" style="stroke:#000000; stroke-width:2;" x1="28" y1="0" x2="28" y2="30" />
   <line fill="none" style="stroke:#000000; stroke-width:1;" x1="31.5" y1="0" x2="31.5" y2="30" />
   <line fill="none" style="stroke:#000000; stroke-width:1;" x1="33.5" y1="0" x2="33.5" y2="30" />
   <line fill="none" style="stroke:#000000; stroke-width:2;" x1="37" y1="0" x2="37" y2="30" />
   <line fill="none" style="stroke:#000000; stroke-width:1;" x1="40.5" y1="0" x2="40.5" y2="30" />
   <line fill="none" style="stroke:#000000; stroke-width:1;" x1="43.5" y1="0" x2="43.5" y2="30" />
   <line fill="none" style="stroke:#000000; stroke-width:3;" x1="46.5" y1="0" x2="46.5" y2="30" />
   <line fill="none" style="stroke:#000000; stroke-width:1;" x1="49.5" y1="0" x2="49.5" y2="30" />
   <line fill="none" style="stroke:#000000; stroke-width:1;" x1="52.5" y1="0" x2="52.5" y2="30" />
   <line fill="none" style="stroke:#000000; stroke-width:1;" x1="54.5" y1="0" x2="54.5" y2="30" />
   <line fill="none" style="stroke:#000000; stroke-width:1;" x1="59.5" y1="0" x2="59.5" y2="30" />
   <line fill="none" style="stroke:#000000; stroke-width:1;" x1="61.5" y1="0" x2="61.5" y2="30" />
   <line fill="none" style="stroke:#000000; stroke-width:1;" x1="63.5" y1="0" x2="63.5" y2="30" />
   <line fill="none" style="stroke:#000000; stroke-width:1;" x1="65.5" y1="0" x2="65.5" y2="30" />
   <line fill="none" style="stroke:#000000; stroke-width:1;" x1="70.5" y1="0" x2="70.5" y2="30" />
   <line fill="none" style="stroke:#000000; stroke-width:2;" x1="73" y1="0" x2="73" y2="30" />
   <line fill="none" style="stroke:#000000; stroke-width:1;" x1="76.5" y1="0" x2="76.5" y2="30" />
   <line fill="none" style="stroke:#000000; stroke-width:1;" x1="79.5" y1="0" x2="79.5" y2="30" />
   <line fill="none" style="stroke:#000000; stroke-width:1;" x1="81.5" y1="0" x2="81.5" y2="30" />
   <line fill="none" style="stroke:#000000; stroke-width:1;" x1="85.5" y1="0" x2="85.5" y2="30" />
   <line fill="none" style="stroke:#000000; stroke-width:1;" x1="87.5" y1="0" x2="87.5" y2="30" />
   <line fill="none" style="stroke:#000000; stroke-width:1;" x1="90.5" y1="0" x2="90.5" y2="30" />
   <line fill="none" style="stroke:#000000; stroke-width:1;" x1="92.5" y1="0" x2="92.5" y2="30" />
   <line fill="none" style="stroke:#000000; stroke-width:4;" x1="96" y1="0" x2="96" y2="30" />
   <line fill="none" style="stroke:#000000; stroke-width:1;" x1="99.5" y1="0" x2="99.5" y2="30" />
   <text x="50" y="37.763" text-anchor="middle" style="font-family: Tahoma; font-size: 9px; stroke: none; fill:#000000;">CODE 93</text>
</svg>