<?xml version="1.0" encoding="utf-8"?>
<svg xmlns="http://www.w3.org/2000/svg" xml:space="preserve" xmlns:xlink="http://www.w3.org/1999/xlink" width="123" height="39.714" viewBox="0 0 123 39.714">
   <rect x="0" y="0" width="123" height="39.714" style="fill:#ffffff;" />
   <line fill="none" style="stroke:#000000; stroke-width:2;" x1="1" y1="0" x2="1" y2="30" />
   <line fill="none" style="stroke:#000000; stroke-width:1;" x1="3.5" y1="0" x2="3.5" y2="30" />
   <line fill="none" style="stroke:#000000; stroke-width:1;" x1="6.5" y1="0" x2="6.5" y2="30" />
   <line fill="none" style="stroke:#000000; stroke-width:1;" x1="11.5" y1="0" x2="11.5" y2="30" />
   <line fill="none" style="stroke:#000000; stroke-width:1;" x1="15.5" y1="0" x2="15.5" y2="30" />
   <line fill="none" style="stroke:#000000; stroke-width:2;" x1="20" y1="0" x2="20" y2="30" />
   <line fill="none" style="stroke:#000000; stroke-width:1;" x1="22.5" y1="0" x2="22.5" y2="30" />
   <line fill="none" style="stroke:#000000; stroke-width:4;" x1="28" y1="0" x2="28" y2="30" />
   <line fill="none" style="stroke:#000000; stroke-width:1;" x1="31.5" y1="0" x2="31.5" y2="30" />
   <line fill="none" style="stroke:#000000; stroke-width:1;" x1="33.5" y1="0" x2="33.5" y2="30" />
   <line fill="none" style="stroke:#000000; stroke-width:1;" x1="38.5" y1="0" x2="38.5" y2="30" />
   <line fill="none" style="stroke:#000000; stroke-width:2;" x1="42" y1="0" x2="42" y2="30" />
   <line fill="none" style="stroke:#000000; stroke-width:1;" x1="44.5" y1="0" x2="44.5" y2="30" />
   <line fill="none" style="stroke:#000000; stroke-width:2;" x1="47" y1="0" x2="47" y2="30" />
   <line fill="none" style="stroke:#000000; stroke-width:1;" x1="50.5" y1="0" x2="50.5" y2="30" />
   <line fill="none" style="stroke:#000000; stroke-width:2;" x1="56" y1="0" x2="56" y2="30" />
   <line fill="none" style="stroke:#000000; stroke-width:2;" x1="59" y1="0" x2="59" y2="30" />
   <line fill="none" style="stroke:#000000; stroke-width:2;" x1="63" y1="0" x2="63" y2="30" />
   <line fill="none" style="stroke:#000000; stroke-width:1;" x1="66.5" y1="0" x2="66.5" y2="30" />
   <line fill="none" style="stroke:#000000; stroke-width:3;" x1="70.5" y1="0" x2="70.5" y2="30" />
   <line fill="none" style="stroke:#000000; stroke-width:2;" x1="75" y1="0" x2="75" y2="30" />
   <line fill="none" style="stroke:#000000; stroke-width:2;" x1="78" y1="0" x2="78" y2="30" />
   <line fill="none" style="stroke:#000000; stroke-width:3;" x1="82.5" y1="0" x2="82.5" y2="30" />
   <line fill="none" style="stroke:#000000; stroke-width:1;" x1="86.5" y1="0" x2="86.5" y2="30" />
   <line fill="none" style="stroke:#000000; stroke-width:3;" x1="89.5" y1="0" x2="89.5" y2="30" />
   <line fill="none" style="stroke:#000000; stroke-width:1;" x1="92.5" y1="0" x2="92.5" y2="30" />
   <line fill="none" style="stroke:#000000; stroke-width:2;" x1="96" y1="0" x2="96" y2="30" />
   <line fill="none" style="stroke:#000000; stroke-width:1;" x1="99.5" y1="0" x2="99.5" y2="30" />
   <line fill="none" style="stroke:#000000; stroke-width:1;" x1="101.5" y1="0" x2="101.5" y2="30" />
   <line fill="none" style="stroke:#000000; stroke-width:2;" x1="107" y1="0" x2="107" y2="30" />
   <line fill="none" style="stroke:#000000; stroke-width:2;" x1="111" y1="0" x2="111" y2="30" />
   <line fill="none" style="stroke:#000000; stroke-width:3;" x1="116.5" y1="0" x2="116.5" y2="30" />
   <line fill="none" style="stroke:#000000; stroke-width:1;" x1="119.5" y1="0" x2="119.5" y2="30" />
   <line fill="none" style="stroke:#000000; stroke-width:2;" x1="122" y1="0" x2="122" y2="30" />
   <text x="61.5" y="37.763" text-anchor="middle" style="font-family: Tahoma; font-size: 9px; stroke: none; fill:#000000;">Code 128</text>
</svg>