<?xml version="1.0" standalone="no"?>
<svg width="96" height="96" version="1.1" xmlns="http://www.w3.org/2000/svg">
  <rect x="0" y="0" width="96" height="96" style="fill:#ffffff;" />
  <g id="elements" fill="#000000" stroke="none">
    <rect x="0" y="0" width="6" height="6" />
    <rect x="12" y="0" width="6" height="6" />
    <rect x="24" y="0" width="6" height="6" />
    <rect x="36" y="0" width="6" height="6" />
    <rect x="48" y="0" width="6" height="6" />
    <rect x="60" y="0" width="6" height="6" />
    <rect x="72" y="0" width="6" height="6" />
    <rect x="84" y="0" width="6" height="6" />
    <rect x="0" y="6" width="6" height="6" />
    <rect x="12" y="6" width="6" height="6" />
    <rect x="18" y="6" width="6" height="6" />
    <rect x="30" y="6" width="6" height="6" />
    <rect x="36" y="6" width="6" height="6" />
    <rect x="90" y="6" width="6" height="6" />
    <rect x="0" y="12" width="6" height="6" />
    <rect x="6" y="12" width="6" height="6" />
    <rect x="30" y="12" width="6" height="6" />
    <rect x="42" y="12" width="6" height="6" />
    <rect x="60" y="12" width="6" height="6" />
    <rect x="66" y="12" width="6" height="6" />
    <rect x="72" y="12" width="6" height="6" />
    <rect x="84" y="12" width="6" height="6" />
    <rect x="0" y="18" width="6" height="6" />
    <rect x="12" y="18" width="6" height="6" />
    <rect x="36" y="18" width="6" height="6" />
    <rect x="42" y="18" width="6" height="6" />
    <rect x="78" y="18" width="6" height="6" />
    <rect x="90" y="18" width="6" height="6" />
    <rect x="0" y="24" width="6" height="6" />
    <rect x="18" y="24" width="6" height="6" />
    <rect x="24" y="24" width="6" height="6" />
    <rect x="30" y="24" width="6" height="6" />
    <rect x="66" y="24" width="6" height="6" />
    <rect x="78" y="24" width="6" height="6" />
    <rect x="0" y="30" width="6" height="6" />
    <rect x="6" y="30" width="6" height="6" />
    <rect x="12" y="30" width="6" height="6" />
    <rect x="30" y="30" width="6" height="6" />
    <rect x="54" y="30" width="6" height="6" />
    <rect x="60" y="30" width="6" height="6" />
    <rect x="84" y="30" width="6" height="6" />
    <rect x="90" y="30" width="6" height="6" />
    <rect x="0" y="36" width="6" height="6" />
    <rect x="6" y="36" width="6" height="6" />
    <rect x="18" y="36" width="6" height="6" />
    <rect x="30" y="36" width="6" height="6" />
    <rect x="66" y="36" width="6" height="6" />
    <rect x="72" y="36" width="6" height="6" />
    <rect x="0" y="42" width="6" height="6" />
    <rect x="6" y="42" width="6" height="6" />
    <rect x="24" y="42" width="6" height="6" />
    <rect x="36" y="42" width="6" height="6" />
    <rect x="60" y="42" width="6" height="6" />
    <rect x="78" y="42" width="6" height="6" />
    <rect x="90" y="42" width="6" height="6" />
    <rect x="0" y="48" width="6" height="6" />
    <rect x="12" y="48" width="6" height="6" />
    <rect x="18" y="48" width="6" height="6" />
    <rect x="24" y="48" width="6" height="6" />
    <rect x="30" y="48" width="6" height="6" />
    <rect x="36" y="48" width="6" height="6" />
    <rect x="48" y="48" width="6" height="6" />
    <rect x="60" y="48" width="6" height="6" />
    <rect x="66" y="48" width="6" height="6" />
    <rect x="0" y="54" width="6" height="6" />
    <rect x="6" y="54" width="6" height="6" />
    <rect x="30" y="54" width="6" height="6" />
    <rect x="42" y="54" width="6" height="6" />
    <rect x="54" y="54" width="6" height="6" />
    <rect x="60" y="54" width="6" height="6" />
    <rect x="66" y="54" width="6" height="6" />
    <rect x="72" y="54" width="6" height="6" />
    <rect x="78" y="54" width="6" height="6" />
    <rect x="84" y="54" width="6" height="6" />
    <rect x="90" y="54" width="6" height="6" />
    <rect x="0" y="60" width="6" height="6" />
    <rect x="6" y="60" width="6" height="6" />
    <rect x="30" y="60" width="6" height="6" />
    <rect x="54" y="60" width="6" height="6" />
    <rect x="60" y="60" width="6" height="6" />
    <rect x="78" y="60" width="6" height="6" />
    <rect x="84" y="60" width="6" height="6" />
    <rect x="0" y="66" width="6" height="6" />
    <rect x="12" y="66" width="6" height="6" />
    <rect x="24" y="66" width="6" height="6" />
    <rect x="30" y="66" width="6" height="6" />
    <rect x="42" y="66" width="6" height="6" />
    <rect x="48" y="66" width="6" height="6" />
    <rect x="54" y="66" width="6" height="6" />
    <rect x="66" y="66" width="6" height="6" />
    <rect x="90" y="66" width="6" height="6" />
    <rect x="0" y="72" width="6" height="6" />
    <rect x="18" y="72" width="6" height="6" />
    <rect x="48" y="72" width="6" height="6" />
    <rect x="54" y="72" width="6" height="6" />
    <rect x="66" y="72" width="6" height="6" />
    <rect x="78" y="72" width="6" height="6" />
    <rect x="84" y="72" width="6" height="6" />
    <rect x="0" y="78" width="6" height="6" />
    <rect x="12" y="78" width="6" height="6" />
    <rect x="18" y="78" width="6" height="6" />
    <rect x="24" y="78" width="6" height="6" />
    <rect x="36" y="78" width="6" height="6" />
    <rect x="48" y="78" width="6" height="6" />
    <rect x="54" y="78" width="6" height="6" />
    <rect x="72" y="78" width="6" height="6" />
    <rect x="78" y="78" width="6" height="6" />
    <rect x="90" y="78" width="6" height="6" />
    <rect x="0" y="84" width="6" height="6" />
    <rect x="6" y="84" width="6" height="6" />
    <rect x="12" y="84" width="6" height="6" />
    <rect x="24" y="84" width="6" height="6" />
    <rect x="30" y="84" width="6" height="6" />
    <rect x="36" y="84" width="6" height="6" />
    <rect x="54" y="84" width="6" height="6" />
    <rect x="66" y="84" width="6" height="6" />
    <rect x="72" y="84" width="6" height="6" />
    <rect x="84" y="84" width="6" height="6" />
    <rect x="0" y="90" width="6" height="6" />
    <rect x="6" y="90" width="6" height="6" />
    <rect x="12" y="90" width="6" height="6" />
    <rect x="18" y="90" width="6" height="6" />
    <rect x="24" y="90" width="6" height="6" />
    <rect x="30" y="90" width="6" height="6" />
    <rect x="36" y="90" width="6" height="6" />
    <rect x="42" y="90" width="6" height="6" />
    <rect x="48" y="90" width="6" height="6" />
    <rect x="54" y="90" width="6" height="6" />
    <rect x="60" y="90" width="6" height="6" />
    <rect x="66" y="90" width="6" height="6" />
    <rect x="72" y="90" width="6" height="6" />
    <rect x="78" y="90" width="6" height="6" />
    <rect x="84" y="90" width="6" height="6" />
    <rect x="90" y="90" width="6" height="6" />
  </g>
</svg>