<?xml version="1.0" encoding="utf-8"?>
<svg xmlns="http://www.w3.org/2000/svg" xml:space="preserve" xmlns:xlink="http://www.w3.org/1999/xlink" width="67" height="39.714" viewBox="0 0 67 39.714">
   <rect x="0" y="0" width="67" height="39.714" style="fill:#ffffff;" />
   <line fill="none" style="stroke:#000000; stroke-width:1;" x1="0.5" y1="0" x2="0.5" y2="35" />
   <line fill="none" style="stroke:#000000; stroke-width:1;" x1="2.5" y1="0" x2="2.5" y2="35" />
   <line fill="none" style="stroke:#000000; stroke-width:2;" x1="7" y1="0" x2="7" y2="30" />
   <line fill="none" style="stroke:#000000; stroke-width:1;" x1="9.5" y1="0" x2="9.5" y2="30" />
   <line fill="none" style="stroke:#000000; stroke-width:2;" x1="13" y1="0" x2="13" y2="30" />
   <line fill="none" style="stroke:#000000; stroke-width:1;" x1="16.5" y1="0" x2="16.5" y2="30" />
   <line fill="none" style="stroke:#000000; stroke-width:1;" x1="19.5" y1="0" x2="19.5" y2="30" />
   <line fill="none" style="stroke:#000000; stroke-width:2;" x1="23" y1="0" x2="23" y2="30" />
   <line fill="none" style="stroke:#000000; stroke-width:4;" x1="27" y1="0" x2="27" y2="30" />
   <line fill="none" style="stroke:#000000; stroke-width:1;" x1="30.5" y1="0" x2="30.5" y2="30" />
   <line fill="none" style="stroke:#000000; stroke-width:1;" x1="32.5" y1="0" x2="32.5" y2="35" />
   <line fill="none" style="stroke:#000000; stroke-width:1;" x1="34.5" y1="0" x2="34.5" y2="35" />
   <line fill="none" style="stroke:#000000; stroke-width:1;" x1="36.5" y1="0" x2="36.5" y2="30" />
   <line fill="none" style="stroke:#000000; stroke-width:3;" x1="39.5" y1="0" x2="39.5" y2="30" />
   <line fill="none" style="stroke:#000000; stroke-width:1;" x1="43.5" y1="0" x2="43.5" y2="30" />
   <line fill="none" style="stroke:#000000; stroke-width:3;" x1="47.5" y1="0" x2="47.5" y2="30" />
   <line fill="none" style="stroke:#000000; stroke-width:1;" x1="50.5" y1="0" x2="50.5" y2="30" />
   <line fill="none" style="stroke:#000000; stroke-width:1;" x1="52.5" y1="0" x2="52.5" y2="30" />
   <line fill="none" style="stroke:#000000; stroke-width:1;" x1="57.5" y1="0" x2="57.5" y2="30" />
   <line fill="none" style="stroke:#000000; stroke-width:3;" x1="61.5" y1="0" x2="61.5" y2="30" />
   <line fill="none" style="stroke:#000000; stroke-width:1;" x1="64.5" y1="0" x2="64.5" y2="35" />
   <line fill="none" style="stroke:#000000; stroke-width:1;" x1="66.5" y1="0" x2="66.5" y2="35" />
   <text x="16.75" y="37.763" text-anchor="middle" style="font-family: Tahoma; font-size: 9px; stroke: none; fill:#000000;">0123</text>
   <text x="50.25" y="37.763" text-anchor="middle" style="font-family: Tahoma; font-size: 9px; stroke: none; fill:#000000;">4565</text>
</svg>