<svg id="svg" version="1.1" xmlns="http://www.w3.org/2000/svg" xmlns:xlink="http://www.w3.org/1999/xlink" width="400" height="153.84615384615384" viewBox="0, 0, 400,153.84615384615384">
   <g id="svgg">
      <path id="path0" d="M0.000 76.917 L 0.000 153.833 200.000 153.833 L 400.000 153.833 400.000 76.917 L 400.000 0.000 200.000 0.000 L 0.000 0.000 0.000 76.917 M167.735 16.583 C 167.936 16.891,168.154 17.000,168.569 17.000 C 169.161 17.000,169.333 17.208,169.333 17.924 C 169.333 18.151,169.476 18.398,169.667 18.500 C 169.885 18.617,170.000 18.849,170.000 19.174 C 170.000 19.494,170.147 19.797,170.417 20.031 C 170.829 20.390,170.833 20.422,170.833 23.083 C 170.833 25.745,170.829 25.777,170.417 26.136 C 170.147 26.370,170.000 26.673,170.000 26.993 C 170.000 27.318,169.885 27.550,169.667 27.667 C 169.451 27.782,169.333 28.016,169.333 28.327 C 169.333 28.942,168.942 29.333,168.327 29.333 C 168.016 29.333,167.782 29.451,167.667 29.667 C 167.503 29.973,167.318 30.000,165.412 30.000 C 163.517 30.000,163.318 29.971,163.128 29.667 C 163.004 29.468,162.739 29.333,162.472 29.333 C 161.900 29.333,161.500 28.934,161.500 28.362 C 161.500 28.094,161.366 27.830,161.167 27.705 C 160.962 27.577,160.833 27.317,160.833 27.029 C 160.833 26.737,160.676 26.424,160.417 26.198 C 160.004 25.839,160.000 25.809,160.000 23.113 C 160.000 20.425,160.005 20.387,160.417 20.000 C 160.670 19.762,160.833 19.424,160.833 19.139 C 160.833 18.850,160.961 18.589,161.167 18.461 C 161.350 18.347,161.500 18.090,161.500 17.890 C 161.500 17.215,161.681 17.000,162.249 17.000 C 162.648 17.000,162.869 16.888,163.068 16.583 C 163.335 16.176,163.388 16.167,165.401 16.167 C 167.415 16.167,167.468 16.176,167.735 16.583 M188.399 16.430 C 188.531 16.775,188.531 29.392,188.399 29.736 C 188.272 30.067,185.854 30.121,185.533 29.800 C 185.388 29.655,185.333 28.424,185.333 25.310 C 185.333 20.734,185.268 20.374,184.591 21.223 C 184.291 21.599,184.108 21.667,183.389 21.667 C 182.696 21.667,182.495 21.735,182.293 22.039 C 181.914 22.610,181.500 22.176,181.500 21.210 C 181.500 20.320,182.464 19.167,183.207 19.167 C 183.512 19.167,183.988 18.775,185.018 17.679 L 186.417 16.192 187.357 16.179 C 188.069 16.170,188.322 16.231,188.399 16.430 M209.265 16.583 C 209.450 16.865,209.691 17.000,210.008 17.000 C 210.350 17.000,210.729 17.244,211.405 17.899 L 212.333 18.797 212.333 20.064 C 212.333 21.150,212.286 21.360,212.000 21.539 C 211.806 21.660,211.667 21.927,211.667 22.177 C 211.667 22.775,208.970 25.500,208.379 25.500 C 207.934 25.500,206.333 27.012,206.333 27.432 C 206.333 27.624,206.840 27.667,209.146 27.667 C 212.387 27.667,212.379 27.663,212.301 29.028 L 212.250 29.917 207.103 29.961 C 203.445 29.992,201.891 29.950,201.728 29.815 C 201.369 29.517,201.461 28.888,201.917 28.530 C 202.175 28.327,202.333 28.033,202.333 27.758 C 202.333 27.161,204.788 24.667,205.375 24.667 C 205.653 24.667,206.275 24.166,207.468 22.983 L 209.167 21.299 209.167 20.412 C 209.167 19.644,209.098 19.457,208.654 19.013 C 207.516 17.875,204.674 18.584,204.668 20.008 C 204.666 20.680,204.371 20.833,203.083 20.833 C 201.470 20.833,200.946 20.146,201.917 19.302 C 202.157 19.093,202.334 18.759,202.335 18.512 C 202.337 17.942,203.306 17.000,203.889 17.000 C 204.171 17.000,204.422 16.852,204.599 16.583 C 204.866 16.176,204.918 16.167,206.932 16.167 C 208.946 16.167,208.998 16.176,209.265 16.583 M230.991 17.491 C 232.482 18.962,232.861 20.168,232.000 20.705 C 231.785 20.840,231.667 21.094,231.667 21.423 C 231.667 22.075,231.402 22.333,230.734 22.333 C 230.432 22.333,230.164 22.434,230.113 22.567 C 229.992 22.883,230.139 23.000,230.656 23.000 C 230.969 23.000,231.380 23.295,232.129 24.058 L 233.167 25.115 233.167 26.206 L 233.167 27.296 232.145 28.315 C 231.376 29.082,231.007 29.333,230.651 29.333 C 230.349 29.333,230.114 29.454,230.000 29.667 C 229.836 29.972,229.651 30.000,227.770 30.000 C 225.930 30.000,225.687 29.966,225.417 29.667 C 225.251 29.483,224.930 29.333,224.705 29.333 C 224.110 29.333,223.000 28.178,223.000 27.560 C 223.000 27.261,222.875 27.002,222.667 26.872 C 221.678 26.254,222.389 25.333,223.855 25.333 C 225.100 25.333,225.500 25.563,225.500 26.278 C 225.500 27.659,228.444 28.283,229.497 27.125 C 230.832 25.658,229.784 23.833,227.607 23.833 C 226.218 23.833,226.167 23.789,226.167 22.603 C 226.167 21.703,226.385 21.500,227.349 21.500 C 228.953 21.500,229.706 20.065,228.654 19.013 C 227.811 18.170,226.740 18.262,225.786 19.258 L 225.060 20.015 223.738 19.966 L 222.417 19.917 222.364 19.368 C 222.295 18.647,223.891 17.000,224.659 17.000 C 224.976 17.000,225.217 16.865,225.401 16.583 C 225.667 16.177,225.726 16.167,227.661 16.167 L 229.649 16.167 230.991 17.491 M251.477 16.388 C 251.596 16.533,251.676 17.997,251.705 20.597 L 251.750 24.583 252.750 24.667 L 253.750 24.750 253.801 25.735 C 253.861 26.898,253.765 26.994,252.542 26.997 L 251.667 27.000 251.667 28.313 C 251.667 29.963,251.595 30.029,249.891 29.966 L 248.583 29.917 248.541 28.833 C 248.462 26.829,248.742 27.000,245.530 27.000 C 242.248 27.000,242.333 27.042,242.333 25.416 L 242.333 24.232 243.500 23.107 C 244.338 22.298,244.667 21.863,244.667 21.562 C 244.667 21.254,245.069 20.741,246.167 19.649 C 247.169 18.651,247.667 18.031,247.667 17.781 C 247.667 16.558,250.698 15.450,251.477 16.388 M164.033 18.700 C 163.923 18.810,163.833 19.107,163.833 19.361 C 163.833 19.651,163.710 19.888,163.500 20.000 C 163.186 20.168,163.167 20.349,163.167 23.083 C 163.167 25.818,163.186 25.999,163.500 26.167 C 163.690 26.268,163.833 26.516,163.833 26.742 C 163.833 27.604,163.941 27.667,165.417 27.667 C 166.892 27.667,167.000 27.604,167.000 26.742 C 167.000 26.516,167.143 26.268,167.333 26.167 C 167.647 25.999,167.667 25.818,167.667 23.118 C 167.667 20.427,167.646 20.234,167.333 20.039 C 167.129 19.911,167.000 19.650,167.000 19.365 C 167.000 19.109,166.910 18.810,166.800 18.700 C 166.535 18.435,164.299 18.435,164.033 18.700 M247.863 20.204 C 247.755 20.312,247.666 20.591,247.665 20.825 C 247.664 21.125,247.358 21.550,246.623 22.270 C 244.175 24.670,244.176 24.660,246.592 24.664 C 248.534 24.667,248.500 24.709,248.500 22.320 C 248.500 20.318,248.326 19.741,247.863 20.204 M149.959 86.490 C 149.992 127.772,149.958 138.257,149.792 138.362 C 149.468 138.568,148.090 138.523,147.867 138.300 C 147.569 138.002,147.576 35.157,147.874 34.860 C 148.002 34.731,148.429 34.671,148.999 34.701 L 149.917 34.750 149.959 86.490 M156.800 34.867 C 157.091 35.158,157.091 138.009,156.800 138.300 C 156.590 138.510,153.101 138.592,152.597 138.399 C 152.322 138.293,152.170 35.052,152.444 34.778 C 152.650 34.572,156.586 34.652,156.800 34.867 M168.399 34.930 C 168.610 35.481,168.512 138.088,168.300 138.300 C 168.024 138.576,164.309 138.576,164.033 138.300 C 163.742 138.009,163.742 35.158,164.033 34.867 C 164.364 34.536,168.269 34.593,168.399 34.930 M172.967 34.867 C 173.258 35.158,173.258 138.009,172.967 138.300 C 172.757 138.509,171.551 138.573,171.097 138.399 C 170.822 138.293,170.670 35.052,170.944 34.778 C 171.136 34.586,172.757 34.657,172.967 34.867 M177.625 86.490 C 177.659 127.772,177.625 138.257,177.459 138.362 C 177.135 138.568,175.757 138.523,175.533 138.300 C 175.236 138.002,175.243 35.157,175.540 34.860 C 175.669 34.731,176.095 34.671,176.665 34.701 L 177.583 34.750 177.625 86.490 M184.566 34.930 C 184.777 35.481,184.679 138.088,184.467 138.300 C 184.191 138.576,180.476 138.576,180.200 138.300 C 179.988 138.088,179.890 35.481,180.101 34.930 C 180.186 34.709,180.544 34.667,182.333 34.667 C 184.123 34.667,184.481 34.709,184.566 34.930 M193.792 86.490 C 193.825 127.772,193.792 138.257,193.625 138.362 C 193.280 138.582,189.595 138.528,189.367 138.300 C 189.071 138.004,189.076 35.158,189.371 34.862 C 189.517 34.717,190.181 34.671,191.663 34.704 L 193.750 34.750 193.792 86.490 M198.399 34.930 C 198.610 35.481,198.512 138.088,198.300 138.300 C 198.041 138.559,196.626 138.559,196.367 138.300 C 196.155 138.088,196.056 35.481,196.268 34.930 C 196.413 34.552,198.254 34.552,198.399 34.930 M207.625 86.490 C 207.659 127.772,207.625 138.257,207.459 138.362 C 207.113 138.582,203.428 138.528,203.200 138.300 C 202.904 138.004,202.909 35.158,203.205 34.862 C 203.350 34.717,204.015 34.671,205.496 34.704 L 207.583 34.750 207.625 86.490 M214.566 34.930 C 214.777 35.481,214.679 138.088,214.467 138.300 C 214.191 138.576,210.476 138.576,210.200 138.300 C 209.988 138.088,209.890 35.481,210.101 34.930 C 210.186 34.709,210.544 34.667,212.333 34.667 C 214.123 34.667,214.481 34.709,214.566 34.930 M219.133 34.867 C 219.425 35.158,219.425 138.009,219.133 138.300 C 218.924 138.509,217.718 138.573,217.264 138.399 C 216.988 138.293,216.836 35.052,217.111 34.778 C 217.303 34.586,218.924 34.657,219.133 34.867 M230.633 34.867 C 230.925 35.158,230.925 138.009,230.633 138.300 C 230.349 138.585,221.985 138.585,221.700 138.300 C 221.409 138.009,221.409 35.158,221.700 34.867 C 221.985 34.582,230.349 34.582,230.633 34.867 M235.300 34.867 C 235.591 35.158,235.591 138.009,235.300 138.300 C 235.040 138.560,233.460 138.560,233.200 138.300 C 232.909 138.009,232.909 35.158,233.200 34.867 C 233.310 34.757,233.783 34.667,234.250 34.667 C 234.717 34.667,235.190 34.757,235.300 34.867 M239.959 86.490 C 239.992 127.772,239.958 138.257,239.792 138.362 C 239.468 138.568,238.090 138.523,237.867 138.300 C 237.569 138.002,237.576 35.157,237.874 34.860 C 238.002 34.731,238.429 34.671,238.999 34.701 L 239.917 34.750 239.959 86.490 M244.566 34.930 C 244.777 35.481,244.679 138.088,244.467 138.300 C 244.257 138.509,243.051 138.573,242.597 138.399 C 242.322 138.293,242.170 35.052,242.444 34.778 C 242.690 34.532,244.462 34.659,244.566 34.930 M256.125 86.490 C 256.159 127.772,256.125 138.257,255.959 138.362 C 255.613 138.582,251.928 138.528,251.700 138.300 C 251.404 138.004,251.409 35.158,251.705 34.862 C 251.850 34.717,252.515 34.671,253.996 34.704 L 256.083 34.750 256.125 86.490 " stroke="none" fill="#ffffff" fill-rule="evenodd"></path>
      <path id="path1" d="M163.068 16.583 C 162.869 16.888,162.648 17.000,162.249 17.000 C 161.681 17.000,161.500 17.215,161.500 17.890 C 161.500 18.090,161.350 18.347,161.167 18.461 C 160.961 18.589,160.833 18.850,160.833 19.139 C 160.833 19.424,160.670 19.762,160.417 20.000 C 160.005 20.387,160.000 20.425,160.000 23.113 C 160.000 25.809,160.004 25.839,160.417 26.198 C 160.676 26.424,160.833 26.737,160.833 27.029 C 160.833 27.317,160.962 27.577,161.167 27.705 C 161.366 27.830,161.500 28.094,161.500 28.362 C 161.500 28.934,161.900 29.333,162.472 29.333 C 162.739 29.333,163.004 29.468,163.128 29.667 C 163.318 29.971,163.517 30.000,165.412 30.000 C 167.318 30.000,167.503 29.973,167.667 29.667 C 167.782 29.451,168.016 29.333,168.327 29.333 C 168.942 29.333,169.333 28.942,169.333 28.327 C 169.333 28.016,169.451 27.782,169.667 27.667 C 169.885 27.550,170.000 27.318,170.000 26.993 C 170.000 26.673,170.147 26.370,170.417 26.136 C 170.829 25.777,170.833 25.745,170.833 23.083 C 170.833 20.422,170.829 20.390,170.417 20.031 C 170.147 19.797,170.000 19.494,170.000 19.174 C 170.000 18.849,169.885 18.617,169.667 18.500 C 169.476 18.398,169.333 18.151,169.333 17.924 C 169.333 17.208,169.161 17.000,168.569 17.000 C 168.154 17.000,167.936 16.891,167.735 16.583 C 167.468 16.176,167.415 16.167,165.401 16.167 C 163.388 16.167,163.335 16.176,163.068 16.583 M185.018 17.679 C 183.988 18.775,183.512 19.167,183.207 19.167 C 182.464 19.167,181.500 20.320,181.500 21.210 C 181.500 22.176,181.914 22.610,182.293 22.039 C 182.495 21.735,182.696 21.667,183.389 21.667 C 184.108 21.667,184.291 21.599,184.591 21.223 C 185.268 20.374,185.333 20.734,185.333 25.310 C 185.333 30.291,185.229 30.000,187.016 30.000 C 188.642 30.000,188.500 30.662,188.500 23.083 C 188.500 15.650,188.585 16.163,187.357 16.179 L 186.417 16.192 185.018 17.679 M204.599 16.583 C 204.422 16.852,204.171 17.000,203.889 17.000 C 203.306 17.000,202.337 17.942,202.335 18.512 C 202.334 18.759,202.157 19.093,201.917 19.302 C 200.946 20.146,201.470 20.833,203.083 20.833 C 204.371 20.833,204.666 20.680,204.668 20.008 C 204.674 18.584,207.516 17.875,208.654 19.013 C 209.098 19.457,209.167 19.644,209.167 20.412 L 209.167 21.299 207.468 22.983 C 206.275 24.166,205.653 24.667,205.375 24.667 C 204.788 24.667,202.333 27.161,202.333 27.758 C 202.333 28.033,202.175 28.327,201.917 28.530 C 201.461 28.888,201.369 29.517,201.728 29.815 C 201.891 29.950,203.445 29.992,207.103 29.961 L 212.250 29.917 212.301 29.028 C 212.379 27.663,212.387 27.667,209.146 27.667 C 206.840 27.667,206.333 27.624,206.333 27.432 C 206.333 27.012,207.934 25.500,208.379 25.500 C 208.970 25.500,211.667 22.775,211.667 22.177 C 211.667 21.927,211.806 21.660,212.000 21.539 C 212.286 21.360,212.333 21.150,212.333 20.064 L 212.333 18.797 211.405 17.899 C 210.729 17.244,210.350 17.000,210.008 17.000 C 209.691 17.000,209.450 16.865,209.265 16.583 C 208.998 16.176,208.946 16.167,206.932 16.167 C 204.918 16.167,204.866 16.176,204.599 16.583 M225.401 16.583 C 225.217 16.865,224.976 17.000,224.659 17.000 C 223.891 17.000,222.295 18.647,222.364 19.368 L 222.417 19.917 223.738 19.966 L 225.060 20.015 225.786 19.258 C 226.740 18.262,227.811 18.170,228.654 19.013 C 229.706 20.065,228.953 21.500,227.349 21.500 C 226.385 21.500,226.167 21.703,226.167 22.603 C 226.167 23.789,226.218 23.833,227.607 23.833 C 229.784 23.833,230.832 25.658,229.497 27.125 C 228.444 28.283,225.500 27.659,225.500 26.278 C 225.500 25.563,225.100 25.333,223.855 25.333 C 222.389 25.333,221.678 26.254,222.667 26.872 C 222.875 27.002,223.000 27.261,223.000 27.560 C 223.000 28.178,224.110 29.333,224.705 29.333 C 224.930 29.333,225.251 29.483,225.417 29.667 C 225.687 29.966,225.930 30.000,227.770 30.000 C 229.651 30.000,229.836 29.972,230.000 29.667 C 230.114 29.454,230.349 29.333,230.651 29.333 C 231.007 29.333,231.376 29.082,232.145 28.315 L 233.167 27.296 233.167 26.206 L 233.167 25.115 232.129 24.058 C 231.380 23.295,230.969 23.000,230.656 23.000 C 230.139 23.000,229.992 22.883,230.113 22.567 C 230.164 22.434,230.432 22.333,230.734 22.333 C 231.402 22.333,231.667 22.075,231.667 21.423 C 231.667 21.094,231.785 20.840,232.000 20.705 C 232.861 20.168,232.482 18.962,230.991 17.491 L 229.649 16.167 227.661 16.167 C 225.726 16.167,225.667 16.177,225.401 16.583 M248.208 16.792 C 247.910 17.129,247.667 17.574,247.667 17.781 C 247.667 18.031,247.169 18.651,246.167 19.649 C 245.069 20.741,244.667 21.254,244.667 21.562 C 244.667 21.863,244.338 22.298,243.500 23.107 L 242.333 24.232 242.333 25.416 C 242.333 27.042,242.248 27.000,245.530 27.000 C 248.742 27.000,248.462 26.829,248.541 28.833 L 248.583 29.917 249.891 29.966 C 251.595 30.029,251.667 29.963,251.667 28.313 L 251.667 27.000 252.542 26.997 C 253.765 26.994,253.861 26.898,253.801 25.735 L 253.750 24.750 252.750 24.667 L 251.750 24.583 251.705 20.597 C 251.653 15.934,251.741 16.165,250.021 16.172 C 248.768 16.178,248.742 16.187,248.208 16.792 M166.800 18.700 C 166.910 18.810,167.000 19.109,167.000 19.365 C 167.000 19.650,167.129 19.911,167.333 20.039 C 167.646 20.234,167.667 20.427,167.667 23.118 C 167.667 25.818,167.647 25.999,167.333 26.167 C 167.143 26.268,167.000 26.516,167.000 26.742 C 167.000 27.604,166.892 27.667,165.417 27.667 C 163.941 27.667,163.833 27.604,163.833 26.742 C 163.833 26.516,163.690 26.268,163.500 26.167 C 163.186 25.999,163.167 25.818,163.167 23.083 C 163.167 20.349,163.186 20.168,163.500 20.000 C 163.710 19.888,163.833 19.651,163.833 19.361 C 163.833 19.107,163.923 18.810,164.033 18.700 C 164.299 18.435,166.535 18.435,166.800 18.700 M248.500 22.320 C 248.500 24.709,248.534 24.667,246.592 24.664 C 244.176 24.660,244.175 24.670,246.623 22.270 C 247.358 21.550,247.664 21.125,247.665 20.825 C 247.667 20.266,247.980 19.943,248.279 20.191 C 248.439 20.324,248.500 20.909,248.500 22.320 M147.874 34.860 C 147.576 35.157,147.569 138.002,147.867 138.300 C 148.090 138.523,149.468 138.568,149.792 138.362 C 149.958 138.257,149.992 127.772,149.959 86.490 L 149.917 34.750 148.999 34.701 C 148.429 34.671,148.002 34.731,147.874 34.860 M152.444 34.778 C 152.170 35.052,152.322 138.293,152.597 138.399 C 153.101 138.592,156.590 138.510,156.800 138.300 C 157.091 138.009,157.091 35.158,156.800 34.867 C 156.586 34.652,152.650 34.572,152.444 34.778 M164.033 34.867 C 163.742 35.158,163.742 138.009,164.033 138.300 C 164.309 138.576,168.024 138.576,168.300 138.300 C 168.512 138.088,168.610 35.481,168.399 34.930 C 168.269 34.593,164.364 34.536,164.033 34.867 M170.944 34.778 C 170.670 35.052,170.822 138.293,171.097 138.399 C 171.551 138.573,172.757 138.509,172.967 138.300 C 173.258 138.009,173.258 35.158,172.967 34.867 C 172.757 34.657,171.136 34.586,170.944 34.778 M175.540 34.860 C 175.243 35.157,175.236 138.002,175.533 138.300 C 175.757 138.523,177.135 138.568,177.459 138.362 C 177.625 138.257,177.659 127.772,177.625 86.490 L 177.583 34.750 176.665 34.701 C 176.095 34.671,175.669 34.731,175.540 34.860 M180.101 34.930 C 179.890 35.481,179.988 138.088,180.200 138.300 C 180.476 138.576,184.191 138.576,184.467 138.300 C 184.679 138.088,184.777 35.481,184.566 34.930 C 184.481 34.709,184.123 34.667,182.333 34.667 C 180.544 34.667,180.186 34.709,180.101 34.930 M189.371 34.862 C 189.076 35.158,189.071 138.004,189.367 138.300 C 189.595 138.528,193.280 138.582,193.625 138.362 C 193.792 138.257,193.825 127.772,193.792 86.490 L 193.750 34.750 191.663 34.704 C 190.181 34.671,189.517 34.717,189.371 34.862 M196.268 34.930 C 196.056 35.481,196.155 138.088,196.367 138.300 C 196.626 138.559,198.041 138.559,198.300 138.300 C 198.512 138.088,198.610 35.481,198.399 34.930 C 198.254 34.552,196.413 34.552,196.268 34.930 M203.205 34.862 C 202.909 35.158,202.904 138.004,203.200 138.300 C 203.428 138.528,207.113 138.582,207.459 138.362 C 207.625 138.257,207.659 127.772,207.625 86.490 L 207.583 34.750 205.496 34.704 C 204.015 34.671,203.350 34.717,203.205 34.862 M210.101 34.930 C 209.890 35.481,209.988 138.088,210.200 138.300 C 210.476 138.576,214.191 138.576,214.467 138.300 C 214.679 138.088,214.777 35.481,214.566 34.930 C 214.481 34.709,214.123 34.667,212.333 34.667 C 210.544 34.667,210.186 34.709,210.101 34.930 M217.111 34.778 C 216.836 35.052,216.988 138.293,217.264 138.399 C 217.718 138.573,218.924 138.509,219.133 138.300 C 219.425 138.009,219.425 35.158,219.133 34.867 C 218.924 34.657,217.303 34.586,217.111 34.778 M221.700 34.867 C 221.409 35.158,221.409 138.009,221.700 138.300 C 221.985 138.585,230.349 138.585,230.633 138.300 C 230.925 138.009,230.925 35.158,230.633 34.867 C 230.349 34.582,221.985 34.582,221.700 34.867 M233.200 34.867 C 232.909 35.158,232.909 138.009,233.200 138.300 C 233.460 138.560,235.040 138.560,235.300 138.300 C 235.591 138.009,235.591 35.158,235.300 34.867 C 235.190 34.757,234.717 34.667,234.250 34.667 C 233.783 34.667,233.310 34.757,233.200 34.867 M237.874 34.860 C 237.576 35.157,237.569 138.002,237.867 138.300 C 238.090 138.523,239.468 138.568,239.792 138.362 C 239.958 138.257,239.992 127.772,239.959 86.490 L 239.917 34.750 238.999 34.701 C 238.429 34.671,238.002 34.731,237.874 34.860 M242.444 34.778 C 242.170 35.052,242.322 138.293,242.597 138.399 C 243.051 138.573,244.257 138.509,244.467 138.300 C 244.679 138.088,244.777 35.481,244.566 34.930 C 244.462 34.659,242.690 34.532,242.444 34.778 M251.705 34.862 C 251.409 35.158,251.404 138.004,251.700 138.300 C 251.928 138.528,255.613 138.582,255.959 138.362 C 256.125 138.257,256.159 127.772,256.125 86.490 L 256.083 34.750 253.996 34.704 C 252.515 34.671,251.850 34.717,251.705 34.862 " stroke="none" fill="#000000" fill-rule="evenodd"></path>
   </g>
</svg>