<svg id="svg" version="1.1" xmlns="http://www.w3.org/2000/svg" xmlns:xlink="http://www.w3.org/1999/xlink" width="400" height="153.84615384615384" viewBox="0, 0, 400,153.84615384615384">
   <g id="svgg">
      <path id="path0" d="M0.000 76.917 L 0.000 153.833 200.000 153.833 L 400.000 153.833 400.000 76.917 L 400.000 0.000 200.000 0.000 L 0.000 0.000 0.000 76.917 M190.127 20.647 C 190.177 28.588,190.304 28.000,188.534 28.000 C 186.565 28.000,186.668 28.273,186.661 23.016 L 186.656 18.583 186.314 19.042 C 186.018 19.439,185.857 19.500,185.110 19.500 C 184.427 19.500,184.203 19.570,184.039 19.833 C 183.791 20.231,183.077 20.276,182.934 19.903 C 182.457 18.660,183.470 16.667,184.579 16.667 C 184.880 16.667,185.390 16.259,186.455 15.168 L 187.917 13.669 189.000 13.710 L 190.083 13.750 190.127 20.647 M210.932 14.083 C 211.122 14.374,211.356 14.500,211.703 14.500 C 212.092 14.500,212.416 14.720,213.184 15.504 L 214.167 16.508 214.167 17.742 C 214.167 18.940,213.950 19.500,213.488 19.500 C 213.403 19.500,213.333 19.728,213.333 20.007 C 213.333 20.742,210.751 23.333,210.018 23.333 C 209.669 23.333,209.491 23.432,209.417 23.667 C 209.358 23.850,209.252 24.000,209.180 24.000 C 209.037 24.000,208.000 24.953,208.000 25.085 C 208.000 25.130,209.270 25.167,210.821 25.167 C 214.109 25.167,214.167 25.190,214.167 26.540 C 214.167 28.056,214.383 28.000,208.486 28.000 C 204.046 28.000,203.322 27.965,203.095 27.738 C 202.694 27.336,202.768 26.544,203.250 26.098 C 203.479 25.886,203.667 25.558,203.667 25.370 C 203.667 24.849,203.843 24.500,204.105 24.500 C 204.235 24.500,204.413 24.313,204.500 24.083 C 204.587 23.854,204.773 23.667,204.913 23.667 C 205.052 23.667,205.167 23.599,205.167 23.517 C 205.167 23.192,206.381 22.167,206.767 22.167 C 207.580 22.167,210.500 18.993,210.500 18.109 C 210.500 15.742,206.530 15.661,206.304 18.024 L 206.250 18.583 204.671 18.583 C 203.119 18.583,203.089 18.576,202.938 18.148 C 202.732 17.563,202.926 16.879,203.334 16.750 C 203.572 16.674,203.667 16.498,203.667 16.131 C 203.667 15.442,204.614 14.500,205.306 14.500 C 205.644 14.500,205.879 14.371,206.068 14.083 C 206.336 13.674,206.381 13.667,208.500 13.667 C 210.619 13.667,210.664 13.674,210.932 14.083 M172.417 84.250 L 172.417 136.250 171.509 136.302 C 171.010 136.330,170.428 136.310,170.217 136.257 L 169.833 136.160 169.833 84.261 C 169.833 42.899,169.876 32.343,170.042 32.274 C 170.156 32.225,170.737 32.200,171.333 32.218 L 172.417 32.250 172.417 84.250 M179.300 32.367 C 179.619 32.686,179.588 135.886,179.269 136.151 C 179.113 136.281,178.310 136.328,176.810 136.297 L 174.583 136.250 174.541 84.417 C 174.517 55.908,174.534 32.490,174.577 32.375 C 174.686 32.087,179.013 32.079,179.300 32.367 M188.403 32.268 C 188.808 32.423,188.808 136.077,188.403 136.232 C 188.060 136.364,184.273 136.364,183.930 136.232 C 183.575 136.096,183.519 32.421,183.875 32.277 C 184.176 32.156,188.090 32.148,188.403 32.268 M195.494 32.489 C 195.612 32.709,195.667 49.111,195.667 84.250 C 195.667 119.389,195.612 135.791,195.494 136.011 C 195.240 136.486,193.260 136.486,193.006 136.011 C 192.764 135.560,192.764 32.940,193.006 32.489 C 193.149 32.222,193.361 32.167,194.250 32.167 C 195.139 32.167,195.351 32.222,195.494 32.489 M200.083 84.250 L 200.083 136.250 199.027 136.300 C 198.392 136.330,197.877 136.272,197.735 136.155 C 197.406 135.881,197.378 32.689,197.707 32.360 C 197.840 32.227,198.298 32.170,198.998 32.202 L 200.083 32.250 200.083 84.250 M206.967 32.367 C 207.290 32.690,207.254 135.886,206.931 136.155 C 206.790 136.272,206.275 136.330,205.640 136.300 L 204.583 136.250 204.541 84.417 C 204.517 55.908,204.534 32.490,204.577 32.375 C 204.681 32.100,206.693 32.093,206.967 32.367 M216.250 84.250 L 216.250 136.250 214.023 136.297 C 212.523 136.328,211.721 136.281,211.565 136.151 C 211.241 135.883,211.214 32.686,211.538 32.362 C 211.684 32.216,212.384 32.171,213.996 32.204 L 216.250 32.250 216.250 84.250 " stroke="none" fill="#ffffff" fill-rule="evenodd"></path>
      <path id="path1" d="M186.578 15.488 C 185.508 16.563,184.965 16.992,184.667 16.997 C 183.901 17.009,183.167 17.978,183.167 18.976 C 183.167 19.922,183.392 20.079,183.917 19.500 C 184.141 19.252,184.430 19.167,185.044 19.167 C 185.728 19.167,185.925 19.095,186.201 18.744 C 186.902 17.853,186.991 18.317,187.039 23.143 L 187.083 27.583 188.453 27.632 C 190.172 27.692,190.020 28.409,189.963 20.500 L 189.917 14.083 188.995 14.034 L 188.073 13.986 186.578 15.488 M206.205 14.333 C 206.078 14.538,205.817 14.667,205.531 14.667 C 204.920 14.667,204.000 15.595,204.000 16.212 C 204.000 16.507,203.855 16.754,203.575 16.938 C 203.244 17.154,203.160 17.332,203.200 17.733 L 203.250 18.250 204.667 18.250 L 206.083 18.250 206.167 17.736 C 206.567 15.272,210.833 15.616,210.833 18.114 C 210.833 19.094,207.914 22.333,207.031 22.333 C 206.451 22.333,204.000 24.818,204.000 25.405 C 204.000 25.637,203.810 25.996,203.570 26.219 C 203.258 26.508,203.155 26.750,203.195 27.100 L 203.250 27.583 208.500 27.583 L 213.750 27.583 213.750 26.583 L 213.750 25.583 210.892 25.538 C 207.287 25.480,207.201 25.423,208.603 24.001 C 209.271 23.324,209.716 23.005,210.000 23.001 C 210.605 22.992,213.000 20.556,213.000 19.949 C 213.000 19.662,213.146 19.412,213.417 19.235 C 213.796 18.986,213.833 18.856,213.833 17.790 L 213.833 16.618 212.875 15.646 C 212.201 14.962,211.788 14.673,211.484 14.670 C 211.246 14.668,210.916 14.517,210.750 14.333 C 210.480 14.035,210.237 14.000,208.431 14.000 C 206.594 14.000,206.395 14.030,206.205 14.333 M170.244 32.542 C 170.200 32.656,170.184 56.000,170.207 84.417 L 170.250 136.083 171.055 136.135 C 171.505 136.163,171.964 136.099,172.096 135.989 C 172.421 135.720,172.458 32.858,172.133 32.533 C 171.865 32.265,170.346 32.271,170.244 32.542 M174.867 32.533 C 174.575 32.825,174.575 135.675,174.867 135.967 C 175.077 136.177,178.401 136.258,178.903 136.066 C 179.308 135.910,179.308 32.590,178.903 32.434 C 178.401 32.242,175.077 32.323,174.867 32.533 M184.079 32.537 C 184.034 32.654,184.017 56.000,184.041 84.417 L 184.083 136.083 186.167 136.083 L 188.250 136.083 188.250 84.250 L 188.250 32.417 186.205 32.370 C 184.661 32.334,184.140 32.375,184.079 32.537 M193.367 32.533 C 193.075 32.825,193.075 135.675,193.367 135.967 C 193.626 136.226,194.874 136.226,195.133 135.967 C 195.425 135.675,195.425 32.825,195.133 32.533 C 195.023 32.423,194.626 32.333,194.250 32.333 C 193.874 32.333,193.477 32.423,193.367 32.533 M197.910 32.542 C 197.867 32.656,197.851 56.000,197.874 84.417 L 197.917 136.083 198.721 136.135 C 199.172 136.163,199.630 136.099,199.763 135.989 C 200.088 135.720,200.124 32.858,199.800 32.533 C 199.531 32.265,198.013 32.271,197.910 32.542 M204.874 32.526 C 204.543 32.857,204.573 135.714,204.904 135.989 C 205.036 136.099,205.495 136.163,205.945 136.135 L 206.750 136.083 206.750 84.250 L 206.750 32.417 205.916 32.368 C 205.411 32.338,204.999 32.401,204.874 32.526 M211.875 32.444 C 211.519 32.587,211.575 135.929,211.930 136.066 C 212.432 136.258,215.757 136.177,215.967 135.967 C 216.258 135.675,216.258 32.825,215.967 32.533 C 215.768 32.335,212.331 32.260,211.875 32.444 " stroke="none" fill="#000000" fill-rule="evenodd"></path>
   </g>
</svg>