<svg id="svg" version="1.1" xmlns="http://www.w3.org/2000/svg" xmlns:xlink="http://www.w3.org/1999/xlink" width="400" height="153.84615384615384" viewBox="0, 0, 400,153.84615384615384">
   <g id="svgg">
      <path id="path0" d="M0.000 76.917 L 0.000 153.833 200.000 153.833 L 400.000 153.833 400.000 76.917 L 400.000 0.000 200.000 0.000 L 0.000 0.000 0.000 76.917 M86.295 67.000 C 86.320 102.613,86.300 131.919,86.251 132.125 C 86.147 132.556,84.261 132.694,83.867 132.300 C 83.569 132.003,83.576 2.657,83.873 2.360 C 84.007 2.227,84.465 2.170,85.165 2.202 L 86.250 2.250 86.295 67.000 M95.494 2.489 C 95.768 3.001,95.732 131.846,95.458 132.222 C 95.271 132.478,94.898 132.503,91.833 132.462 L 88.417 132.417 88.374 67.500 C 88.351 31.796,88.367 2.490,88.410 2.375 C 88.561 1.979,95.279 2.087,95.494 2.489 M100.083 67.333 L 100.083 132.417 99.027 132.467 C 98.392 132.497,97.877 132.439,97.735 132.321 C 97.406 132.048,97.378 2.689,97.707 2.360 C 97.840 2.227,98.298 2.170,98.998 2.202 L 100.083 2.250 100.083 67.333 M106.967 2.367 C 107.290 2.690,107.254 132.053,106.931 132.321 C 106.790 132.439,106.275 132.497,105.640 132.467 L 104.583 132.417 104.541 67.500 C 104.517 31.796,104.534 2.490,104.577 2.375 C 104.681 2.100,106.693 2.093,106.967 2.367 M123.133 2.367 C 123.425 2.658,123.425 132.009,123.133 132.300 C 122.781 132.652,120.876 132.558,120.673 132.178 C 120.431 131.726,120.431 2.940,120.673 2.489 C 120.876 2.109,122.781 2.014,123.133 2.367 M134.570 2.268 C 134.918 2.401,134.981 131.952,134.633 132.300 C 134.351 132.582,127.982 132.582,127.700 132.300 C 127.409 132.009,127.409 2.658,127.700 2.367 C 127.911 2.155,134.047 2.067,134.570 2.268 M155.494 2.489 C 155.736 2.940,155.736 131.726,155.494 132.178 C 155.240 132.653,153.260 132.653,153.006 132.178 C 152.764 131.726,152.764 2.940,153.006 2.489 C 153.260 2.014,155.240 2.014,155.494 2.489 M160.083 67.333 L 160.083 132.417 159.027 132.467 C 158.392 132.497,157.877 132.439,157.735 132.321 C 157.406 132.048,157.378 2.689,157.707 2.360 C 157.840 2.227,158.298 2.170,158.998 2.202 L 160.083 2.250 160.083 67.333 M171.661 2.489 C 171.779 2.710,171.833 23.175,171.833 67.333 C 171.833 111.491,171.779 131.957,171.661 132.178 C 171.406 132.653,169.427 132.653,169.173 132.178 C 168.931 131.726,168.931 2.940,169.173 2.489 C 169.427 2.014,171.406 2.014,171.661 2.489 M185.494 2.489 C 185.612 2.710,185.667 23.175,185.667 67.333 C 185.667 111.491,185.612 131.957,185.494 132.178 C 185.282 132.575,174.257 132.691,173.867 132.300 C 173.568 132.001,173.576 2.398,173.875 2.277 C 174.607 1.982,185.327 2.177,185.494 2.489 M190.083 67.333 L 190.083 132.417 189.027 132.467 C 188.392 132.497,187.877 132.439,187.735 132.321 C 187.406 132.048,187.378 2.689,187.707 2.360 C 187.840 2.227,188.298 2.170,188.998 2.202 L 190.083 2.250 190.083 67.333 M196.967 2.367 C 197.258 2.658,197.258 132.009,196.967 132.300 C 196.635 132.632,192.398 132.575,192.268 132.236 C 192.129 131.875,192.139 2.417,192.278 2.278 C 192.485 2.071,196.752 2.152,196.967 2.367 M201.661 2.489 C 201.779 2.710,201.833 23.175,201.833 67.333 C 201.833 111.491,201.779 131.957,201.661 132.178 C 201.406 132.653,199.427 132.653,199.173 132.178 C 199.054 131.957,199.000 111.491,199.000 67.333 C 199.000 23.175,199.054 2.710,199.173 2.489 C 199.427 2.014,201.406 2.014,201.661 2.489 M213.133 2.367 C 213.453 2.686,213.422 132.053,213.102 132.318 C 212.946 132.447,212.143 132.495,210.644 132.463 L 208.417 132.417 208.374 67.500 C 208.351 31.796,208.367 2.490,208.410 2.375 C 208.520 2.087,212.846 2.079,213.133 2.367 M222.462 67.000 C 222.487 102.613,222.467 131.919,222.417 132.125 C 222.311 132.565,218.120 132.720,217.700 132.300 C 217.405 132.005,217.409 2.658,217.704 2.362 C 217.851 2.216,218.551 2.171,220.163 2.204 L 222.417 2.250 222.462 67.000 M229.300 2.367 C 229.591 2.658,229.591 132.009,229.300 132.300 C 228.948 132.652,227.043 132.558,226.839 132.178 C 226.721 131.957,226.667 111.491,226.667 67.333 C 226.667 23.175,226.721 2.710,226.839 2.489 C 227.043 2.109,228.948 2.014,229.300 2.367 M252.462 67.000 C 252.487 102.613,252.467 131.919,252.417 132.125 L 252.327 132.500 242.030 132.500 C 234.244 132.500,231.685 132.451,231.533 132.300 C 231.241 132.007,231.242 2.658,231.535 2.365 C 231.688 2.212,234.172 2.174,242.076 2.207 L 252.417 2.250 252.462 67.000 M261.661 2.489 C 261.779 2.710,261.833 23.175,261.833 67.333 C 261.833 111.491,261.779 131.957,261.661 132.178 C 261.406 132.653,259.427 132.653,259.173 132.178 C 259.054 131.957,259.000 111.491,259.000 67.333 C 259.000 23.175,259.054 2.710,259.173 2.489 C 259.427 2.014,261.406 2.014,261.661 2.489 M268.403 2.268 C 268.751 2.401,268.815 131.952,268.467 132.300 C 268.190 132.577,264.144 132.577,263.867 132.300 C 263.568 132.001,263.576 2.398,263.875 2.277 C 264.176 2.156,268.090 2.148,268.403 2.268 M275.494 2.489 C 275.612 2.710,275.667 23.175,275.667 67.333 C 275.667 111.491,275.612 131.957,275.494 132.178 C 275.230 132.671,270.936 132.671,270.673 132.178 C 270.554 131.957,270.500 111.491,270.500 67.333 C 270.500 23.175,270.554 2.710,270.673 2.489 C 270.936 1.996,275.230 1.996,275.494 2.489 M289.300 2.367 C 289.591 2.658,289.591 132.009,289.300 132.300 C 288.962 132.638,282.399 132.578,282.268 132.236 C 282.129 131.875,282.139 2.417,282.278 2.278 C 282.489 2.067,289.084 2.150,289.300 2.367 M298.403 2.268 C 298.751 2.401,298.815 131.952,298.467 132.300 C 298.153 132.614,296.226 132.562,296.101 132.236 C 295.962 131.875,295.972 2.417,296.111 2.278 C 296.250 2.139,298.047 2.131,298.403 2.268 M303.133 2.367 C 303.425 2.658,303.425 132.009,303.133 132.300 C 302.781 132.652,300.876 132.558,300.673 132.178 C 300.554 131.957,300.500 111.491,300.500 67.333 C 300.500 23.175,300.554 2.710,300.673 2.489 C 300.876 2.109,302.781 2.014,303.133 2.367 M149.903 139.101 C 150.048 139.157,150.167 139.298,150.167 139.415 C 150.167 139.532,150.354 139.751,150.583 139.901 C 150.863 140.085,151.000 140.327,151.000 140.640 C 151.000 140.930,151.158 141.244,151.417 141.469 C 152.213 142.162,151.993 147.167,151.166 147.167 C 151.087 147.167,150.976 147.313,150.919 147.491 C 150.863 147.670,150.678 147.860,150.509 147.914 C 150.341 147.967,150.164 148.159,150.117 148.339 C 149.969 148.904,146.535 148.829,146.031 148.250 C 145.832 148.021,145.598 147.833,145.512 147.833 C 145.426 147.833,145.309 147.687,145.253 147.509 C 145.196 147.330,145.003 147.137,144.825 147.081 C 144.519 146.983,144.500 146.805,144.500 143.965 L 144.500 140.953 145.458 139.985 L 146.417 139.016 148.028 139.008 C 148.914 139.004,149.758 139.046,149.903 139.101 M157.738 139.262 C 158.055 139.578,158.135 147.769,157.827 148.344 C 157.602 148.765,156.258 148.811,156.101 148.403 C 156.046 148.258,156.000 146.575,156.000 144.663 C 156.000 141.475,155.870 140.431,155.584 141.331 C 155.525 141.516,155.411 141.667,155.329 141.667 C 155.247 141.667,154.996 141.865,154.772 142.107 C 154.346 142.566,153.909 142.559,153.729 142.089 C 153.370 141.153,157.041 138.565,157.738 139.262 M167.684 140.004 C 168.646 140.988,168.667 141.028,168.667 141.941 L 168.667 142.874 166.417 145.098 C 165.179 146.322,164.167 147.360,164.167 147.406 C 164.167 147.452,165.115 147.511,166.274 147.537 C 168.536 147.587,169.030 147.779,168.509 148.406 C 168.175 148.808,161.706 148.721,161.447 148.311 C 161.306 148.086,161.749 147.566,163.971 145.352 C 167.056 142.278,167.263 141.840,166.183 140.684 C 165.581 140.040,164.268 139.919,164.086 140.491 C 164.029 140.670,163.837 140.863,163.658 140.919 C 163.479 140.976,163.333 141.087,163.333 141.166 C 163.333 141.470,162.789 141.833,162.333 141.833 C 161.542 141.833,161.096 141.211,161.591 140.798 C 161.733 140.680,161.939 140.488,162.050 140.372 C 162.160 140.255,162.501 139.899,162.808 139.580 L 163.367 139.000 165.034 139.000 L 166.701 139.000 167.684 140.004 M174.765 139.417 C 174.965 139.721,175.186 139.833,175.585 139.833 C 176.234 139.833,176.333 140.024,176.333 141.265 C 176.333 141.964,176.257 142.235,176.000 142.455 C 175.611 142.789,175.542 143.667,175.905 143.667 C 176.037 143.667,176.192 143.817,176.250 144.000 C 176.308 144.183,176.420 144.333,176.499 144.333 C 177.634 144.333,177.421 146.453,176.162 147.684 L 175.158 148.667 173.454 148.663 L 171.750 148.660 170.792 147.688 C 169.530 146.408,169.547 146.000,170.863 146.000 C 171.243 146.000,171.540 146.183,172.075 146.750 C 172.900 147.623,174.269 147.867,174.450 147.172 C 174.497 146.992,174.678 146.799,174.851 146.744 C 175.109 146.662,175.167 146.481,175.167 145.750 C 175.167 145.019,175.109 144.838,174.851 144.756 C 174.678 144.701,174.497 144.508,174.450 144.328 C 174.383 144.071,174.221 144.000,173.700 144.000 C 172.789 144.000,172.522 143.174,173.349 142.912 C 173.524 142.856,173.667 142.702,173.667 142.568 C 173.667 142.434,173.854 142.254,174.083 142.167 C 174.669 141.944,174.612 141.434,173.922 140.744 C 173.195 140.017,172.877 140.022,172.250 140.770 C 171.422 141.758,171.326 141.833,170.894 141.833 C 169.599 141.833,169.568 141.287,170.792 140.013 L 171.750 139.014 173.121 139.007 C 174.404 139.000,174.510 139.027,174.765 139.417 M183.905 139.262 C 184.122 139.479,184.167 140.003,184.167 142.345 L 184.167 145.167 184.655 145.167 C 185.312 145.167,185.724 145.582,185.494 146.012 C 185.375 146.234,185.144 146.333,184.744 146.333 L 184.167 146.333 184.167 147.178 C 184.167 148.404,183.975 148.667,183.081 148.667 C 182.256 148.667,182.211 148.596,182.127 147.167 L 182.083 146.417 180.011 146.370 C 178.832 146.343,177.843 146.244,177.719 146.141 C 177.245 145.748,177.605 144.333,178.179 144.333 C 178.264 144.333,178.333 144.214,178.333 144.068 C 178.333 143.922,178.481 143.764,178.661 143.716 C 178.841 143.669,179.033 143.493,179.086 143.324 C 179.140 143.155,179.330 142.971,179.509 142.914 C 179.687 142.857,179.833 142.696,179.833 142.556 C 179.833 142.417,179.983 142.263,180.167 142.215 C 180.350 142.167,180.500 142.070,180.500 142.000 C 180.500 141.930,180.810 141.573,181.188 141.208 C 182.004 140.420,182.042 140.382,182.787 139.604 C 183.440 138.923,183.537 138.894,183.905 139.262 M193.160 139.242 C 193.710 139.905,193.248 140.153,191.368 140.203 C 189.734 140.246,189.583 140.277,189.537 140.583 C 189.409 141.436,189.309 141.652,188.997 141.751 C 188.264 141.984,188.938 142.167,190.529 142.167 L 192.205 142.167 192.769 142.783 C 193.079 143.121,193.333 143.459,193.333 143.533 C 193.333 143.606,193.443 143.667,193.577 143.667 C 193.979 143.667,194.167 144.243,194.167 145.477 C 194.167 146.596,193.941 147.167,193.499 147.167 C 193.420 147.167,193.309 147.313,193.253 147.491 C 193.196 147.670,193.007 147.861,192.833 147.917 C 192.659 147.972,192.471 148.163,192.414 148.342 C 192.255 148.843,188.514 148.840,188.383 148.339 C 188.336 148.159,188.159 147.967,187.991 147.914 C 187.822 147.860,187.637 147.670,187.581 147.491 C 187.524 147.313,187.413 147.167,187.334 147.167 C 186.975 147.167,186.668 146.642,186.840 146.322 C 187.108 145.820,188.667 145.906,188.667 146.423 C 188.667 146.545,188.813 146.691,188.991 146.747 C 189.170 146.804,189.363 146.997,189.419 147.175 C 189.532 147.530,191.333 147.678,191.333 147.332 C 191.333 147.240,191.521 147.001,191.750 146.802 C 192.318 146.308,192.387 144.193,191.839 144.050 C 191.659 144.003,191.466 143.822,191.411 143.649 C 191.256 143.159,188.747 143.175,188.618 143.667 C 188.517 144.054,187.220 144.153,186.867 143.800 C 186.476 143.409,186.619 141.873,187.083 141.469 C 187.426 141.171,187.500 140.956,187.500 140.253 C 187.500 139.784,187.590 139.310,187.700 139.200 C 188.014 138.886,192.895 138.923,193.160 139.242 M201.517 140.004 C 202.566 141.076,202.690 141.387,202.178 141.661 C 201.519 142.013,201.075 141.857,200.298 141.000 C 199.284 139.883,198.000 139.736,198.000 140.738 C 198.000 141.149,197.883 141.401,197.583 141.637 C 197.329 141.837,197.167 142.134,197.167 142.399 C 197.167 142.912,197.432 142.976,197.583 142.500 C 197.743 141.998,200.755 141.990,200.914 142.491 C 200.971 142.670,201.159 142.861,201.333 142.917 C 201.507 142.972,201.696 143.163,201.753 143.342 C 201.809 143.521,201.955 143.667,202.077 143.667 C 202.667 143.667,202.707 146.577,202.125 147.128 C 201.653 147.575,201.409 147.820,200.962 148.292 C 200.638 148.634,200.454 148.667,198.881 148.667 L 197.156 148.667 196.578 148.089 C 196.182 147.694,196.000 147.357,196.000 147.025 C 196.000 146.690,195.870 146.453,195.583 146.265 C 195.174 145.997,195.167 145.952,195.167 143.833 C 195.167 141.714,195.174 141.669,195.583 141.401 C 195.857 141.222,196.000 140.974,196.000 140.681 C 196.000 140.112,196.279 139.833,196.847 139.833 C 197.141 139.833,197.389 139.690,197.568 139.417 C 197.822 139.029,197.935 139.000,199.188 139.000 L 200.535 139.000 201.517 140.004 M210.827 139.242 C 211.092 139.562,210.906 140.109,210.494 140.216 C 210.249 140.281,210.167 140.446,210.167 140.874 C 210.167 141.343,210.032 141.563,209.421 142.098 C 208.821 142.623,208.675 142.858,208.671 143.307 C 208.668 143.722,208.582 143.887,208.333 143.952 C 208.052 144.025,208.000 144.179,208.000 144.944 C 208.000 145.696,207.929 145.915,207.583 146.235 C 207.247 146.547,207.167 146.781,207.167 147.444 C 207.167 148.424,206.968 148.667,206.167 148.667 C 205.075 148.667,204.631 146.692,205.583 146.068 C 205.942 145.833,206.000 145.671,206.000 144.899 C 206.000 144.183,206.067 143.961,206.333 143.795 C 206.538 143.667,206.667 143.406,206.667 143.119 C 206.667 142.760,206.938 142.383,207.823 141.510 C 209.243 140.110,209.306 140.167,206.317 140.167 C 203.983 140.167,203.850 140.149,203.747 139.825 C 203.508 139.071,203.814 139.000,207.333 139.000 C 210.008 139.000,210.664 139.045,210.827 139.242 M217.702 139.253 C 217.979 139.580,218.920 140.521,219.247 140.798 C 219.752 141.227,219.558 142.002,218.749 142.776 L 217.999 143.496 218.500 143.956 C 218.775 144.209,219.113 144.513,219.250 144.632 C 219.929 145.216,219.582 146.622,218.496 147.684 L 217.492 148.667 215.776 148.667 C 214.213 148.667,214.028 148.633,213.705 148.292 C 213.258 147.820,213.014 147.575,212.542 147.128 C 211.804 146.429,211.996 144.961,212.943 144.067 C 213.370 143.663,213.640 143.333,213.543 143.333 C 213.446 143.333,213.097 143.063,212.767 142.733 C 211.849 141.816,211.922 141.267,213.125 140.013 L 214.083 139.014 215.785 139.007 C 217.109 139.002,217.535 139.056,217.702 139.253 M226.070 139.101 C 226.215 139.157,226.333 139.298,226.333 139.415 C 226.333 139.532,226.521 139.751,226.750 139.901 C 227.030 140.085,227.167 140.327,227.167 140.640 C 227.167 140.930,227.325 141.244,227.583 141.469 C 228.380 142.162,228.160 147.167,227.333 147.167 C 227.254 147.167,227.143 147.313,227.086 147.491 C 227.029 147.670,226.845 147.860,226.676 147.914 C 226.507 147.967,226.331 148.159,226.284 148.339 C 226.153 148.840,222.412 148.843,222.253 148.342 C 222.196 148.163,222.007 147.972,221.833 147.917 C 221.659 147.861,221.471 147.670,221.414 147.491 C 221.357 147.313,221.246 147.167,221.167 147.167 C 220.809 147.167,220.502 146.642,220.673 146.322 C 221.086 145.550,223.333 146.432,223.333 147.366 C 223.333 147.440,223.746 147.500,224.250 147.500 C 224.754 147.500,225.167 147.425,225.167 147.332 C 225.167 147.240,225.354 147.001,225.583 146.802 C 226.021 146.421,226.191 145.138,225.833 144.917 C 225.742 144.860,225.667 144.888,225.667 144.978 C 225.667 145.450,225.114 145.667,223.912 145.667 L 222.680 145.667 221.590 144.608 L 220.500 143.550 220.500 142.330 L 220.500 141.110 221.542 140.064 L 222.583 139.017 224.195 139.009 C 225.081 139.004,225.925 139.046,226.070 139.101 M235.032 139.681 C 235.459 140.139,235.667 140.516,235.667 140.836 C 235.667 141.164,235.769 141.343,236.000 141.417 C 236.510 141.579,236.518 146.919,236.009 147.081 C 235.830 147.137,235.637 147.330,235.581 147.509 C 235.524 147.687,235.407 147.833,235.321 147.833 C 235.235 147.833,235.001 148.021,234.802 148.250 C 234.459 148.644,234.347 148.667,232.714 148.667 L 230.989 148.667 230.411 148.089 C 230.093 147.771,229.833 147.434,229.833 147.339 C 229.833 147.244,229.764 147.167,229.679 147.167 C 228.972 147.167,228.585 141.365,229.253 140.798 C 229.580 140.521,230.521 139.580,230.798 139.253 C 230.964 139.057,231.397 139.000,232.705 139.000 L 234.397 139.000 235.032 139.681 M242.300 139.200 C 242.512 139.412,242.602 147.873,242.399 148.403 C 242.242 148.811,240.898 148.765,240.673 148.344 C 240.569 148.151,240.500 146.606,240.500 144.491 L 240.500 140.961 239.777 141.748 C 238.965 142.633,238.452 142.714,238.365 141.971 C 238.328 141.648,238.404 141.500,238.648 141.422 C 238.832 141.364,239.029 141.170,239.086 140.991 C 239.143 140.813,239.252 140.667,239.328 140.667 C 239.453 140.667,240.245 139.905,240.798 139.253 C 241.054 138.951,242.017 138.917,242.300 139.200 M251.858 139.580 C 252.165 139.899,252.507 140.255,252.617 140.372 C 252.727 140.488,252.933 140.680,253.075 140.798 C 253.250 140.944,253.333 141.305,253.333 141.923 L 253.333 142.832 251.083 145.074 C 249.846 146.307,248.833 147.356,248.833 147.403 C 248.833 147.451,249.782 147.511,250.940 147.537 C 253.203 147.587,253.696 147.779,253.175 148.406 C 252.829 148.823,246.372 148.719,246.103 148.292 C 245.955 148.058,246.000 147.921,246.334 147.592 C 246.563 147.367,246.835 147.085,246.940 146.966 C 247.044 146.847,247.399 146.525,247.728 146.250 C 248.057 145.975,248.328 145.661,248.330 145.553 C 248.332 145.444,248.479 145.309,248.658 145.253 C 248.837 145.196,249.029 145.003,249.086 144.825 C 249.143 144.646,249.252 144.500,249.328 144.500 C 249.509 144.500,250.667 143.342,250.667 143.161 C 250.667 143.085,250.817 142.975,251.000 142.917 C 251.488 142.762,251.495 141.074,251.009 140.919 C 250.830 140.863,250.637 140.670,250.581 140.491 C 250.353 139.773,249.066 140.048,248.202 141.000 C 247.425 141.857,246.981 142.013,246.322 141.661 C 245.814 141.389,245.932 141.082,246.958 140.013 L 247.917 139.014 249.608 139.007 L 251.300 139.000 251.858 139.580 M259.432 139.417 C 259.611 139.690,259.859 139.833,260.153 139.833 C 261.108 139.833,261.445 141.867,260.583 142.432 C 260.001 142.814,260.065 143.326,260.770 143.917 C 261.820 144.797,261.833 144.819,261.833 145.750 C 261.833 146.595,261.564 147.167,261.166 147.167 C 261.087 147.167,260.976 147.313,260.919 147.491 C 260.863 147.670,260.678 147.860,260.509 147.914 C 260.341 147.967,260.164 148.159,260.117 148.339 C 259.986 148.840,256.245 148.843,256.086 148.342 C 256.029 148.163,255.841 147.972,255.667 147.917 C 255.493 147.861,255.305 147.674,255.250 147.500 C 255.195 147.326,254.999 147.136,254.815 147.078 C 254.116 146.856,254.474 146.091,255.305 146.031 C 255.978 145.983,256.074 146.032,256.710 146.740 C 257.503 147.622,258.860 147.871,259.081 147.175 C 259.137 146.997,259.330 146.804,259.509 146.747 C 260.564 146.412,259.424 144.006,258.208 144.002 C 257.910 144.001,257.667 143.969,257.667 143.930 C 257.667 143.892,257.625 143.752,257.574 143.619 C 257.518 143.474,257.783 143.076,258.241 142.619 C 259.068 141.792,259.248 141.101,258.685 140.922 C 258.511 140.867,258.331 140.675,258.284 140.494 C 258.136 139.929,257.537 140.116,256.667 141.000 C 255.822 141.859,255.144 142.077,254.700 141.633 C 254.343 141.276,254.484 140.970,255.458 139.985 L 256.417 139.016 257.788 139.008 C 259.071 139.001,259.177 139.027,259.432 139.417 M146.875 140.757 L 146.333 141.324 146.333 143.853 L 146.333 146.381 146.875 146.939 C 147.540 147.623,148.892 147.768,149.081 147.175 C 149.137 146.997,149.330 146.804,149.509 146.747 C 149.813 146.651,149.833 146.475,149.832 143.947 L 149.830 141.250 149.272 140.708 C 148.488 139.946,147.633 139.963,146.875 140.757 M214.625 140.694 C 214.107 141.276,213.990 142.167,214.432 142.167 C 214.578 142.167,214.737 142.317,214.785 142.500 C 214.935 143.072,216.388 142.971,217.013 142.346 C 217.610 141.749,217.629 141.339,217.083 140.864 C 216.854 140.665,216.667 140.427,216.667 140.334 C 216.667 139.896,215.088 140.174,214.625 140.694 M223.042 140.757 C 221.785 142.073,222.548 144.333,224.250 144.333 C 225.977 144.333,226.724 142.046,225.422 140.744 C 224.625 139.947,223.811 139.951,223.042 140.757 M231.542 140.728 L 231.000 141.285 231.000 143.965 C 231.000 146.474,231.021 146.651,231.325 146.747 C 231.503 146.804,231.696 146.997,231.753 147.175 C 231.941 147.768,233.293 147.623,233.958 146.939 L 234.500 146.381 234.500 143.852 L 234.500 141.322 233.922 140.744 C 233.123 139.945,232.307 139.939,231.542 140.728 M181.729 142.910 C 181.678 143.044,181.497 143.198,181.326 143.252 C 181.156 143.306,180.971 143.497,180.914 143.675 C 180.857 143.854,180.696 144.000,180.556 144.000 C 180.417 144.000,180.264 144.148,180.216 144.328 C 180.169 144.508,179.989 144.701,179.815 144.756 C 179.079 144.989,179.569 145.178,180.792 145.132 L 182.083 145.083 182.132 143.875 C 182.178 142.738,181.979 142.260,181.729 142.910 M197.625 143.836 C 197.021 144.441,196.923 146.567,197.491 146.747 C 197.670 146.804,197.863 146.997,197.919 147.175 C 198.095 147.728,199.398 147.627,200.013 147.013 C 200.600 146.426,200.778 144.000,200.234 144.000 C 200.088 144.000,199.930 143.850,199.882 143.667 C 199.738 143.117,198.229 143.230,197.625 143.836 M214.625 144.527 C 213.559 145.724,214.316 147.500,215.893 147.500 C 216.491 147.500,216.665 147.434,216.747 147.175 C 216.804 146.997,216.997 146.804,217.175 146.747 C 217.698 146.581,217.635 145.177,217.083 144.698 C 216.854 144.499,216.667 144.260,216.667 144.168 C 216.667 143.729,215.088 144.007,214.625 144.527 " stroke="none" fill="#ffffff" fill-rule="evenodd"></path>
      <path id="path1" d="M84.111 2.444 C 84.050 2.506,84.000 31.722,84.000 67.369 L 84.000 132.183 85.042 132.133 L 86.083 132.083 86.125 67.434 C 86.156 19.779,86.118 2.725,85.980 2.559 C 85.788 2.328,84.318 2.238,84.111 2.444 M88.687 2.559 C 88.549 2.725,88.511 19.779,88.541 67.434 L 88.583 132.083 91.917 132.083 L 95.250 132.083 95.292 67.434 C 95.323 19.779,95.285 2.725,95.146 2.559 C 94.875 2.231,88.959 2.231,88.687 2.559 M97.944 2.444 C 97.883 2.506,97.833 31.722,97.833 67.369 L 97.833 132.183 98.875 132.133 L 99.917 132.083 99.959 67.434 C 99.989 19.779,99.951 2.725,99.813 2.559 C 99.621 2.328,98.151 2.238,97.944 2.444 M104.860 2.551 C 104.713 2.728,104.676 18.503,104.708 67.434 L 104.750 132.083 105.792 132.133 L 106.834 132.183 106.792 67.300 L 106.750 2.417 105.902 2.367 C 105.328 2.334,104.991 2.393,104.860 2.551 M121.020 2.559 C 120.882 2.725,120.844 19.779,120.875 67.434 L 120.917 132.083 121.958 132.133 L 123.000 132.183 123.000 67.359 C 123.000 8.402,122.976 2.527,122.736 2.434 C 122.262 2.252,121.212 2.328,121.020 2.559 M127.948 2.441 C 127.885 2.504,127.833 31.718,127.833 67.361 L 127.833 132.167 131.167 132.167 L 134.500 132.167 134.459 67.292 L 134.417 2.417 131.240 2.372 C 129.492 2.347,128.011 2.378,127.948 2.441 M153.354 2.559 C 153.215 2.725,153.177 19.779,153.208 67.434 L 153.250 132.083 154.250 132.083 L 155.250 132.083 155.292 67.434 C 155.323 19.779,155.285 2.725,155.146 2.559 C 155.043 2.434,154.643 2.333,154.250 2.333 C 153.857 2.333,153.457 2.434,153.354 2.559 M157.944 2.444 C 157.883 2.506,157.833 31.722,157.833 67.369 L 157.833 132.183 158.875 132.133 L 159.917 132.083 159.959 67.434 C 159.989 19.779,159.951 2.725,159.813 2.559 C 159.621 2.328,158.151 2.238,157.944 2.444 M169.520 2.559 C 169.382 2.725,169.344 19.779,169.375 67.434 L 169.417 132.083 170.417 132.083 L 171.417 132.083 171.459 67.434 C 171.489 19.779,171.451 2.725,171.313 2.559 C 171.209 2.434,170.810 2.333,170.417 2.333 C 170.024 2.333,169.624 2.434,169.520 2.559 M174.111 2.444 C 174.050 2.506,174.000 31.719,174.000 67.363 L 174.000 132.171 179.625 132.127 L 185.250 132.083 185.292 67.434 C 185.323 19.779,185.285 2.725,185.146 2.559 C 184.947 2.318,174.347 2.208,174.111 2.444 M187.944 2.444 C 187.883 2.506,187.833 31.722,187.833 67.369 L 187.833 132.183 188.875 132.133 L 189.917 132.083 189.959 67.434 C 189.989 19.779,189.951 2.725,189.813 2.559 C 189.621 2.328,188.151 2.238,187.944 2.444 M192.524 2.554 C 192.381 2.727,192.343 18.960,192.375 67.434 L 192.417 132.083 194.625 132.130 L 196.834 132.176 196.792 67.297 L 196.750 2.417 194.733 2.370 C 193.174 2.334,192.672 2.376,192.524 2.554 M199.520 2.559 C 199.382 2.725,199.344 19.779,199.375 67.434 L 199.417 132.083 200.417 132.083 L 201.417 132.083 201.459 67.434 C 201.489 19.779,201.451 2.725,201.313 2.559 C 201.209 2.434,200.810 2.333,200.417 2.333 C 200.024 2.333,199.624 2.434,199.520 2.559 M208.687 2.559 C 208.549 2.725,208.511 19.779,208.541 67.434 L 208.583 132.083 210.792 132.130 L 213.000 132.176 213.000 67.356 C 213.000 8.402,212.976 2.527,212.736 2.434 C 212.185 2.223,208.882 2.324,208.687 2.559 M217.944 2.444 C 217.883 2.506,217.833 31.720,217.833 67.366 L 217.833 132.176 220.042 132.130 L 222.250 132.083 222.292 67.434 C 222.323 19.779,222.285 2.725,222.146 2.559 C 221.949 2.321,218.171 2.218,217.944 2.444 M227.187 2.559 C 227.049 2.725,227.011 19.779,227.041 67.434 L 227.083 132.083 228.125 132.133 L 229.167 132.183 229.167 67.359 C 229.167 8.402,229.143 2.527,228.903 2.434 C 228.428 2.252,227.378 2.328,227.187 2.559 M231.875 2.444 C 231.709 2.511,231.667 15.648,231.667 67.348 L 231.667 132.169 241.958 132.126 L 252.250 132.083 252.292 67.434 C 252.323 19.779,252.285 2.725,252.146 2.559 C 251.961 2.335,232.420 2.224,231.875 2.444 M259.520 2.559 C 259.382 2.725,259.344 19.779,259.375 67.434 L 259.417 132.083 260.417 132.083 L 261.417 132.083 261.459 67.434 C 261.489 19.779,261.451 2.725,261.313 2.559 C 261.209 2.434,260.810 2.333,260.417 2.333 C 260.024 2.333,259.624 2.434,259.520 2.559 M264.116 2.440 C 264.052 2.503,264.000 31.718,264.000 67.361 L 264.000 132.167 266.167 132.167 L 268.334 132.167 268.292 67.292 L 268.250 2.417 266.241 2.370 C 265.136 2.345,264.180 2.376,264.116 2.440 M271.020 2.559 C 270.882 2.725,270.844 19.779,270.875 67.434 L 270.917 132.083 273.083 132.083 L 275.250 132.083 275.292 67.434 C 275.323 19.779,275.285 2.725,275.146 2.559 C 274.880 2.238,271.287 2.238,271.020 2.559 M282.520 2.559 C 282.382 2.725,282.344 19.779,282.375 67.434 L 282.417 132.083 285.792 132.128 L 289.167 132.174 289.167 67.355 C 289.167 8.402,289.143 2.527,288.903 2.434 C 288.329 2.214,282.715 2.324,282.520 2.559 M296.360 2.551 C 296.213 2.728,296.176 18.503,296.208 67.434 L 296.250 132.083 297.292 132.133 L 298.334 132.183 298.292 67.300 L 298.250 2.417 297.402 2.367 C 296.828 2.334,296.491 2.393,296.360 2.551 M301.020 2.559 C 300.882 2.725,300.844 19.779,300.875 67.434 L 300.917 132.083 301.958 132.133 L 303.000 132.183 303.000 67.359 C 303.000 8.402,302.976 2.527,302.736 2.434 C 302.262 2.252,301.212 2.328,301.020 2.559 M145.542 140.290 L 144.667 141.208 144.667 143.835 L 144.667 146.463 145.587 147.398 L 146.507 148.333 148.098 148.333 L 149.688 148.333 150.594 147.428 L 151.500 146.522 151.500 144.208 C 151.500 141.947,151.490 141.885,151.083 141.531 C 150.853 141.331,150.667 140.988,150.667 140.764 C 150.667 139.789,149.811 139.331,148.029 139.353 L 146.417 139.373 145.542 140.290 M155.958 139.859 C 155.413 140.448,155.390 140.609,155.830 140.749 C 156.144 140.849,156.163 141.032,156.205 144.552 L 156.250 148.250 156.917 148.250 L 157.583 148.250 157.583 143.833 L 157.583 139.417 157.000 139.390 C 156.547 139.369,156.314 139.474,155.958 139.859 M162.534 140.256 C 161.614 141.212,161.557 141.500,162.285 141.500 C 162.581 141.500,162.940 141.264,163.425 140.750 C 164.875 139.216,167.000 139.994,167.000 142.059 C 167.000 142.576,166.937 143.000,166.860 143.000 C 166.783 143.000,165.752 143.984,164.568 145.188 C 163.385 146.391,162.248 147.529,162.042 147.718 C 161.405 148.299,161.569 148.333,165.000 148.333 C 167.852 148.333,168.333 148.297,168.333 148.083 C 168.333 147.875,167.993 147.833,166.270 147.833 C 163.204 147.833,163.229 147.648,166.726 144.355 C 168.421 142.759,168.333 142.888,168.333 141.991 C 168.333 141.202,168.280 141.098,167.445 140.243 L 166.557 139.333 164.987 139.336 L 163.417 139.338 162.534 140.256 M171.034 140.256 C 170.114 141.212,170.057 141.500,170.785 141.500 C 171.081 141.500,171.440 141.264,171.925 140.750 C 172.818 139.805,173.364 139.755,174.134 140.550 C 174.909 141.349,174.850 141.859,173.880 142.776 C 173.055 143.556,173.076 143.825,173.964 143.831 C 174.674 143.836,175.500 144.877,175.500 145.767 C 175.500 147.799,173.354 148.535,171.900 147.000 C 171.387 146.457,170.974 146.167,170.717 146.167 C 170.020 146.167,170.112 146.596,170.997 147.481 L 171.849 148.333 173.448 148.333 L 175.046 148.333 175.936 147.458 C 177.182 146.233,177.224 145.319,176.083 144.241 C 175.205 143.412,175.117 142.881,175.760 142.284 C 176.448 141.646,176.307 140.272,175.546 140.198 C 175.218 140.166,174.883 139.987,174.688 139.740 C 174.401 139.374,174.245 139.334,173.143 139.336 L 171.917 139.338 171.034 140.256 M180.615 142.182 C 178.037 144.788,177.817 145.057,177.865 145.549 L 177.917 146.083 180.083 146.167 L 182.250 146.250 182.333 147.250 L 182.417 148.250 183.083 148.250 L 183.750 148.250 183.833 147.250 C 183.914 146.285,183.934 146.248,184.417 146.194 C 185.366 146.086,185.598 145.500,184.690 145.500 C 183.889 145.500,183.833 145.303,183.833 142.480 C 183.833 139.992,183.767 139.323,183.524 139.342 C 183.465 139.346,182.156 140.624,180.615 142.182 M187.944 139.444 C 187.883 139.506,187.833 139.919,187.833 140.362 C 187.833 141.015,187.754 141.238,187.417 141.531 C 186.905 141.976,186.796 143.553,187.264 143.732 C 187.781 143.931,188.163 143.827,188.432 143.417 C 188.899 142.703,191.048 142.796,191.792 143.561 C 192.636 144.431,192.611 146.377,191.744 147.244 C 190.808 148.181,189.908 148.105,188.849 147.000 C 188.060 146.177,187.579 145.988,187.211 146.355 C 187.071 146.496,187.251 146.773,187.917 147.439 L 188.812 148.333 190.413 148.333 L 192.015 148.333 192.924 147.417 L 193.833 146.500 193.833 145.401 L 193.833 144.302 192.858 143.318 L 191.882 142.333 190.295 142.333 C 188.474 142.333,187.963 142.084,188.739 141.575 C 189.022 141.390,189.167 141.144,189.167 140.847 C 189.167 140.120,189.436 140.000,191.075 139.997 C 192.601 139.995,193.137 139.856,192.928 139.519 C 192.803 139.316,188.142 139.247,187.944 139.444 M197.917 139.500 C 197.711 139.833,198.038 140.000,198.899 140.000 C 199.733 140.000,199.813 140.039,200.431 140.745 C 200.896 141.277,201.212 141.492,201.532 141.495 C 202.288 141.503,202.231 141.194,201.305 140.247 L 200.417 139.338 199.218 139.336 C 198.559 139.334,197.973 139.408,197.917 139.500 M204.083 139.500 C 203.830 139.910,204.294 140.000,206.659 140.000 C 209.714 140.000,209.760 140.050,208.158 141.604 C 207.266 142.469,207.000 142.834,207.000 143.195 C 207.000 143.483,206.872 143.744,206.667 143.872 C 206.403 144.037,206.333 144.261,206.333 144.945 C 206.333 145.668,206.265 145.863,205.917 146.137 C 205.561 146.417,205.500 146.601,205.500 147.399 L 205.500 148.333 206.167 148.333 L 206.833 148.333 206.833 147.416 C 206.833 146.644,206.900 146.440,207.250 146.136 C 207.596 145.835,207.667 145.624,207.667 144.892 C 207.667 144.182,207.731 143.977,208.000 143.833 C 208.208 143.722,208.333 143.484,208.333 143.200 C 208.333 142.872,208.565 142.524,209.167 141.949 C 209.784 141.360,210.000 141.030,210.000 140.680 C 210.000 140.380,210.132 140.120,210.362 139.967 C 211.142 139.449,210.590 139.333,207.333 139.333 C 205.415 139.333,204.146 139.398,204.083 139.500 M213.292 140.312 C 212.137 141.483,212.112 141.752,213.079 142.598 C 214.006 143.409,214.007 143.500,213.083 144.369 C 211.962 145.425,212.001 146.126,213.254 147.398 L 214.174 148.333 215.761 148.333 L 217.348 148.333 218.257 147.445 C 219.536 146.197,219.568 145.333,218.375 144.236 L 217.583 143.508 218.375 142.748 C 219.429 141.737,219.412 141.419,218.246 140.254 L 217.326 139.333 215.788 139.337 L 214.250 139.340 213.292 140.312 M221.708 140.268 L 220.833 141.155 220.833 142.411 C 220.833 143.101,220.891 143.667,220.961 143.667 C 221.032 143.667,221.474 144.045,221.944 144.508 L 222.798 145.349 224.024 145.299 C 225.590 145.236,225.829 144.783,224.341 144.698 C 221.535 144.539,221.447 140.018,224.250 140.006 C 226.045 139.999,227.254 142.752,225.917 143.804 C 225.501 144.131,225.362 144.500,225.655 144.500 C 226.568 144.500,226.576 146.210,225.667 147.147 C 224.654 148.190,223.792 148.148,222.698 147.000 C 221.918 146.183,221.416 145.984,221.050 146.350 C 220.917 146.483,221.110 146.779,221.759 147.433 L 222.652 148.333 224.254 148.333 L 225.855 148.333 226.761 147.428 L 227.667 146.522 227.667 144.208 C 227.667 141.947,227.657 141.885,227.250 141.531 C 227.019 141.331,226.833 140.988,226.833 140.764 C 226.833 139.787,225.978 139.331,224.196 139.357 L 222.583 139.381 221.708 140.268 M230.208 140.269 L 229.333 141.173 229.333 143.847 L 229.333 146.522 230.239 147.428 L 231.145 148.333 232.736 148.333 L 234.326 148.333 235.246 147.398 L 236.167 146.463 236.167 144.152 C 236.167 141.871,236.161 141.837,235.750 141.568 C 235.483 141.393,235.332 141.137,235.328 140.856 C 235.326 140.608,235.109 140.181,234.831 139.875 L 234.338 139.333 232.711 139.349 L 231.083 139.364 230.208 140.269 M240.625 139.861 C 240.078 140.475,240.071 140.527,240.497 140.793 C 240.807 140.986,240.830 141.217,240.872 144.624 L 240.917 148.250 241.583 148.250 L 242.250 148.250 242.297 144.167 C 242.323 141.921,242.303 139.915,242.252 139.708 C 242.108 139.120,241.210 139.205,240.625 139.861 M247.201 140.256 C 246.276 141.217,246.222 141.503,246.968 141.495 C 247.288 141.492,247.604 141.277,248.069 140.745 C 249.374 139.253,251.667 140.008,251.667 141.931 L 251.667 142.707 249.000 145.354 C 247.533 146.810,246.333 148.076,246.333 148.167 C 246.333 148.272,247.566 148.333,249.681 148.333 C 252.284 148.333,253.012 148.287,252.959 148.125 C 252.910 147.979,252.347 147.904,251.070 147.876 C 247.831 147.802,247.837 147.862,250.750 144.962 L 253.000 142.722 253.000 141.937 C 253.000 141.214,252.930 141.081,252.112 140.243 L 251.224 139.333 249.654 139.336 L 248.083 139.338 247.201 140.256 M255.625 140.200 C 254.714 141.147,254.623 141.502,255.292 141.497 C 255.610 141.494,255.976 141.266,256.492 140.747 C 257.430 139.802,257.941 139.764,258.756 140.578 C 259.549 141.372,259.511 141.805,258.565 142.725 C 257.744 143.522,257.726 143.833,258.502 143.833 C 260.043 143.833,260.686 145.981,259.500 147.167 C 258.484 148.182,257.648 148.135,256.553 147.001 C 255.750 146.169,255.083 145.923,254.903 146.392 C 254.855 146.518,255.183 146.998,255.643 147.476 L 256.470 148.333 258.079 148.333 L 259.688 148.333 260.594 147.428 C 261.850 146.172,261.893 145.269,260.745 144.265 C 259.889 143.515,259.714 142.681,260.333 142.295 C 260.953 141.907,260.816 140.167,260.166 140.167 C 259.839 140.167,259.538 140.022,259.302 139.750 C 258.972 139.370,258.830 139.335,257.678 139.355 L 256.417 139.376 255.625 140.200 M149.575 140.609 L 150.167 141.218 150.167 143.859 L 150.167 146.500 149.500 147.167 C 148.578 148.089,147.673 148.114,146.776 147.242 L 146.167 146.651 146.167 143.875 L 146.167 141.099 146.699 140.550 C 147.505 139.718,148.735 139.744,149.575 140.609 M217.269 140.616 C 217.983 141.395,217.977 141.762,217.238 142.542 C 216.123 143.718,213.833 143.061,213.833 141.565 C 213.833 140.072,216.178 139.425,217.269 140.616 M234.117 140.533 L 234.667 141.065 234.667 143.858 L 234.667 146.651 234.058 147.242 C 233.160 148.114,232.256 148.089,231.333 147.167 L 230.667 146.500 230.667 143.858 L 230.667 141.215 231.208 140.625 C 231.989 139.775,233.293 139.734,234.117 140.533 M196.333 140.668 C 196.333 140.995,196.188 141.295,195.917 141.531 C 195.516 141.880,195.500 141.969,195.500 143.881 C 195.500 145.803,195.514 145.880,195.917 146.196 C 196.163 146.390,196.333 146.695,196.333 146.942 C 196.333 147.901,197.131 148.333,198.900 148.333 L 200.493 148.333 201.413 147.398 L 202.333 146.463 202.333 145.385 L 202.333 144.307 201.339 143.313 L 200.345 142.318 199.133 142.368 C 197.517 142.433,197.168 143.000,198.743 143.000 C 200.223 143.000,200.833 143.702,200.833 145.403 C 200.833 147.716,198.920 148.710,197.468 147.153 C 196.618 146.241,196.513 144.443,197.273 143.845 L 197.714 143.498 197.273 143.090 C 196.707 142.566,196.697 141.930,197.250 141.568 C 198.006 141.072,197.845 140.167,197.000 140.167 C 196.370 140.167,196.333 140.194,196.333 140.668 M154.775 141.078 C 154.658 141.384,154.970 141.597,155.200 141.367 C 155.378 141.189,155.250 140.833,155.008 140.833 C 154.932 140.833,154.827 140.943,154.775 141.078 M239.408 141.015 C 239.346 141.114,239.382 141.282,239.488 141.388 C 239.697 141.597,240.056 141.226,239.896 140.966 C 239.779 140.778,239.539 140.802,239.408 141.015 M154.111 141.778 C 153.919 141.970,153.990 142.167,154.250 142.167 C 154.387 142.167,154.500 142.054,154.500 141.917 C 154.500 141.656,154.303 141.586,154.111 141.778 M238.616 141.773 C 238.460 141.929,238.648 142.167,238.927 142.167 C 239.059 142.167,239.167 142.054,239.167 141.917 C 239.167 141.666,238.815 141.574,238.616 141.773 M182.299 143.821 C 182.357 145.486,182.350 145.494,180.729 145.497 C 178.895 145.501,178.863 145.300,180.445 143.692 C 182.108 142.003,182.236 142.012,182.299 143.821 M217.269 144.449 C 219.024 146.365,216.305 149.051,214.442 147.242 C 213.082 145.921,213.918 143.839,215.811 143.835 C 216.630 143.833,216.752 143.885,217.269 144.449 " stroke="none" fill="#000000" fill-rule="evenodd"></path>
   </g>
</svg>