<svg id="svg" version="1.1" xmlns="http://www.w3.org/2000/svg" xmlns:xlink="http://www.w3.org/1999/xlink" width="400" height="153.84615384615384" viewBox="0, 0, 400,153.84615384615384">
   <g id="svgg">
      <path id="path0" d="M0.000 76.917 L 0.000 153.833 200.000 153.833 L 400.000 153.833 400.000 76.917 L 400.000 0.000 200.000 0.000 L 0.000 0.000 0.000 76.917 M85.405 16.929 C 85.673 17.197,85.826 128.803,85.560 129.797 C 85.462 130.165,85.402 130.177,83.854 130.131 L 82.250 130.083 82.207 73.583 C 82.167 20.610,82.182 17.070,82.448 16.875 C 82.875 16.560,85.076 16.600,85.405 16.929 M94.552 16.875 C 94.818 17.070,94.833 20.610,94.793 73.583 L 94.750 130.083 91.583 130.083 L 88.417 130.083 88.375 73.601 C 88.344 31.984,88.382 17.059,88.520 16.892 C 88.778 16.582,94.133 16.566,94.552 16.875 M100.738 16.929 C 101.005 17.196,101.165 129.210,100.899 129.903 C 100.750 130.292,97.750 130.292,97.601 129.903 C 97.335 129.210,97.495 17.196,97.762 16.929 C 97.953 16.738,98.358 16.667,99.250 16.667 C 100.142 16.667,100.547 16.738,100.738 16.929 M109.980 16.892 C 110.118 17.059,110.156 31.984,110.125 73.601 L 110.083 130.083 106.917 130.083 L 103.750 130.083 103.707 73.583 C 103.667 20.610,103.682 17.070,103.948 16.875 C 104.367 16.566,109.722 16.582,109.980 16.892 M119.238 16.929 C 119.528 17.219,119.648 129.509,119.359 129.965 C 119.259 130.122,118.796 130.167,117.653 130.132 L 116.083 130.083 116.041 73.583 C 116.001 20.610,116.016 17.070,116.281 16.875 C 116.708 16.560,118.910 16.600,119.238 16.929 M125.405 16.929 C 125.673 17.197,125.826 128.803,125.560 129.797 C 125.462 130.165,125.402 130.177,123.854 130.131 L 122.250 130.083 122.207 73.583 C 122.167 20.610,122.182 17.070,122.448 16.875 C 122.875 16.560,125.076 16.600,125.405 16.929 M143.862 16.942 C 144.222 17.268,144.353 129.174,143.994 129.844 C 143.843 130.126,143.634 130.167,142.333 130.167 C 141.032 130.167,140.823 130.126,140.673 129.844 C 140.339 129.222,140.442 17.341,140.776 16.971 C 141.157 16.551,143.405 16.529,143.862 16.942 M165.405 16.929 C 165.673 17.197,165.826 128.803,165.560 129.797 C 165.462 130.165,165.402 130.177,163.854 130.131 L 162.250 130.083 162.207 73.583 C 162.167 20.610,162.182 17.070,162.448 16.875 C 162.875 16.560,165.076 16.600,165.405 16.929 M171.571 16.929 C 171.839 17.197,171.993 128.803,171.727 129.797 C 171.628 130.165,171.569 130.177,170.021 130.131 L 168.417 130.083 168.375 73.601 C 168.344 31.984,168.382 17.059,168.520 16.892 C 168.801 16.553,171.225 16.582,171.571 16.929 M177.695 16.942 C 178.090 17.300,178.183 129.353,177.789 129.892 C 177.610 130.136,177.345 130.173,176.080 130.132 L 174.583 130.083 174.541 73.601 C 174.511 31.984,174.549 17.059,174.687 16.892 C 174.974 16.546,177.300 16.585,177.695 16.942 M186.905 16.929 C 187.172 17.196,187.332 129.210,187.066 129.903 C 186.895 130.348,180.913 130.293,180.673 129.844 C 180.339 129.222,180.442 17.341,180.776 16.971 C 181.163 16.544,186.483 16.506,186.905 16.929 M196.052 16.875 C 196.318 17.070,196.333 20.610,196.293 73.583 L 196.250 130.083 193.083 130.083 L 189.917 130.083 189.874 73.583 C 189.834 20.610,189.849 17.070,190.114 16.875 C 190.313 16.729,191.196 16.667,193.083 16.667 C 194.970 16.667,195.854 16.729,196.052 16.875 M202.219 16.875 C 202.484 17.070,202.499 20.610,202.459 73.583 L 202.417 130.083 200.813 130.131 C 199.264 130.177,199.205 130.165,199.107 129.797 C 198.840 128.803,198.994 17.197,199.262 16.929 C 199.590 16.600,201.792 16.560,202.219 16.875 M214.552 16.875 C 214.818 17.070,214.833 20.610,214.793 73.583 L 214.750 130.083 213.181 130.132 C 212.037 130.167,211.574 130.122,211.475 129.965 C 211.185 129.509,211.305 17.219,211.595 16.929 C 211.924 16.600,214.125 16.560,214.552 16.875 M220.738 16.929 C 221.005 17.196,221.165 129.210,220.899 129.903 C 220.750 130.292,217.750 130.292,217.601 129.903 C 217.335 129.210,217.495 17.196,217.762 16.929 C 217.953 16.738,218.358 16.667,219.250 16.667 C 220.142 16.667,220.547 16.738,220.738 16.929 M226.905 16.929 C 227.172 17.196,227.332 129.210,227.066 129.903 C 226.916 130.292,223.917 130.292,223.768 129.903 C 223.502 129.210,223.661 17.196,223.929 16.929 C 224.119 16.738,224.524 16.667,225.417 16.667 C 226.309 16.667,226.714 16.738,226.905 16.929 M239.238 16.929 C 239.527 17.217,239.649 129.508,239.361 129.961 C 239.257 130.125,238.185 130.162,234.572 130.128 L 229.917 130.083 229.874 73.583 C 229.834 20.610,229.849 17.070,230.114 16.875 C 230.580 16.532,238.890 16.581,239.238 16.929 M251.571 16.929 C 251.839 17.196,251.994 128.802,251.728 129.792 C 251.595 130.288,245.456 130.394,245.268 129.903 C 245.002 129.210,245.161 17.196,245.429 16.929 C 245.817 16.540,251.183 16.540,251.571 16.929 M266.905 16.929 C 267.172 17.196,267.332 129.210,267.066 129.903 C 266.912 130.303,257.755 130.303,257.601 129.903 C 257.335 129.210,257.495 17.196,257.762 16.929 C 258.155 16.536,266.512 16.536,266.905 16.929 M273.071 16.929 C 273.362 17.219,273.481 129.509,273.192 129.965 C 273.093 130.122,272.629 130.167,271.486 130.132 L 269.917 130.083 269.874 73.583 C 269.834 20.610,269.849 17.070,270.114 16.875 C 270.541 16.560,272.743 16.600,273.071 16.929 M291.571 16.929 C 291.839 17.197,291.993 128.803,291.727 129.797 C 291.628 130.165,291.569 130.177,290.021 130.131 L 288.417 130.083 288.375 73.601 C 288.344 31.984,288.382 17.059,288.520 16.892 C 288.801 16.553,291.225 16.582,291.571 16.929 M300.738 16.929 C 301.027 17.218,301.149 129.508,300.860 129.962 C 300.757 130.124,300.000 130.164,297.654 130.129 L 294.583 130.083 294.541 73.601 C 294.511 31.984,294.549 17.059,294.687 16.892 C 294.982 16.537,300.379 16.569,300.738 16.929 M306.905 16.929 C 307.195 17.219,307.315 129.509,307.025 129.965 C 306.926 130.122,306.463 130.167,305.319 130.132 L 303.750 130.083 303.707 73.583 C 303.667 20.610,303.682 17.070,303.948 16.875 C 304.375 16.560,306.576 16.600,306.905 16.929 M141.858 139.580 C 142.165 139.899,142.507 140.255,142.617 140.372 C 142.727 140.488,142.933 140.680,143.075 140.798 C 143.217 140.916,143.333 141.208,143.333 141.446 C 143.333 141.693,143.512 142.044,143.750 142.265 C 144.157 142.642,144.167 142.704,144.167 145.063 C 144.167 147.438,144.160 147.481,143.750 147.804 C 143.502 147.999,143.333 148.302,143.333 148.552 C 143.333 148.845,143.025 149.282,142.320 149.987 L 141.307 151.000 138.824 151.000 C 136.359 151.000,136.339 150.997,136.068 150.583 C 135.918 150.354,135.696 150.167,135.575 150.167 C 135.455 150.167,135.309 150.021,135.253 149.842 C 135.196 149.663,135.003 149.471,134.825 149.414 C 134.575 149.335,134.500 149.159,134.500 148.655 C 134.500 148.295,134.430 148.000,134.345 148.000 C 133.785 148.000,133.667 147.480,133.669 145.030 C 133.672 142.513,133.711 142.302,134.208 142.118 C 134.402 142.047,134.500 141.833,134.500 141.482 C 134.500 141.062,134.697 140.754,135.458 139.985 L 136.417 139.016 138.858 139.008 L 141.300 139.000 141.858 139.580 M153.851 140.004 C 154.618 140.788,154.833 141.121,154.833 141.520 C 154.833 141.883,154.926 142.055,155.151 142.114 C 156.037 142.346,155.880 148.000,154.988 148.000 C 154.903 148.000,154.833 148.223,154.833 148.496 C 154.833 148.876,154.604 149.225,153.851 149.996 L 152.868 151.000 150.417 151.000 L 147.965 151.000 146.983 149.996 C 146.229 149.225,146.000 148.876,146.000 148.496 C 146.000 148.223,145.930 148.000,145.845 148.000 C 145.285 148.000,145.167 147.480,145.169 145.030 C 145.172 142.513,145.211 142.302,145.708 142.118 C 145.897 142.048,146.000 141.835,146.000 141.511 C 146.000 141.130,146.227 140.775,146.958 140.013 L 147.917 139.014 150.392 139.007 L 152.868 139.000 153.851 140.004 M165.351 140.004 C 166.109 140.779,166.333 141.123,166.333 141.509 C 166.333 141.834,166.436 142.048,166.625 142.118 C 167.122 142.302,167.161 142.513,167.164 145.030 C 167.167 147.480,167.048 148.000,166.488 148.000 C 166.403 148.000,166.333 148.254,166.333 148.564 C 166.333 148.982,166.225 149.199,165.917 149.401 C 165.688 149.551,165.500 149.785,165.500 149.921 C 165.500 150.056,165.396 150.167,165.269 150.167 C 165.142 150.167,164.915 150.354,164.765 150.583 C 164.494 150.997,164.474 151.000,162.009 151.000 L 159.527 151.000 158.513 149.987 C 157.808 149.282,157.500 148.845,157.500 148.552 C 157.500 148.302,157.331 147.999,157.083 147.804 C 156.673 147.481,156.667 147.438,156.667 145.063 C 156.667 142.704,156.676 142.642,157.083 142.265 C 157.319 142.046,157.500 141.693,157.500 141.451 C 157.500 141.029,157.878 140.500,158.179 140.500 C 158.264 140.500,158.333 140.416,158.333 140.314 C 158.333 140.212,158.610 139.874,158.949 139.564 L 159.565 139.000 161.967 139.000 L 164.368 139.000 165.351 140.004 M175.405 139.262 C 175.800 139.657,175.800 150.343,175.405 150.738 C 175.085 151.057,174.110 151.083,173.857 150.778 C 173.737 150.634,173.657 149.169,173.628 146.570 L 173.583 142.583 173.150 142.533 C 172.836 142.497,172.640 142.600,172.438 142.908 C 172.126 143.383,170.441 143.541,170.033 143.133 C 169.722 142.822,169.797 142.312,170.167 142.215 C 170.350 142.167,170.500 142.067,170.500 141.992 C 170.500 141.705,171.044 141.333,171.470 141.329 C 171.805 141.326,172.188 141.035,173.000 140.167 C 174.157 138.930,174.822 138.679,175.405 139.262 M187.099 139.417 C 187.278 139.691,187.526 139.833,187.822 139.833 C 188.075 139.833,188.428 139.999,188.625 140.208 C 188.819 140.415,189.095 140.680,189.238 140.798 C 189.697 141.175,189.582 143.995,189.107 144.004 C 189.002 144.006,188.692 144.276,188.417 144.606 C 188.142 144.935,187.821 145.289,187.703 145.394 C 187.352 145.706,185.600 147.470,185.368 147.745 C 185.250 147.885,184.934 148.000,184.666 148.000 C 184.349 148.000,184.116 148.117,184.000 148.333 C 183.874 148.568,183.651 148.667,183.244 148.667 C 182.927 148.667,182.667 148.742,182.667 148.833 C 182.667 148.939,183.850 149.000,185.883 149.000 C 189.429 149.000,189.500 149.020,189.500 150.000 C 189.500 151.006,189.531 151.000,184.667 151.000 C 179.819 151.000,179.833 151.003,179.833 150.025 C 179.833 149.234,181.531 147.500,182.307 147.500 C 182.660 147.500,182.842 147.403,182.914 147.175 C 182.971 146.997,183.163 146.804,183.342 146.747 C 183.521 146.691,183.667 146.545,183.667 146.423 C 183.667 146.179,184.024 146.000,184.512 146.000 C 185.183 146.000,187.500 143.433,187.500 142.691 C 187.500 141.389,186.840 141.000,184.629 141.000 L 182.783 141.000 182.075 141.750 C 180.996 142.893,179.833 142.786,179.833 141.544 C 179.833 140.807,180.768 139.833,181.475 139.833 C 181.810 139.833,182.047 139.704,182.235 139.417 C 182.503 139.008,182.548 139.000,184.667 139.000 C 186.786 139.000,186.831 139.008,187.099 139.417 M198.599 139.417 C 198.803 139.729,199.017 139.833,199.451 139.833 C 199.891 139.833,200.052 139.914,200.118 140.167 C 200.166 140.350,200.266 140.500,200.341 140.500 C 201.310 140.500,201.267 142.691,200.280 143.566 L 199.559 144.205 200.696 145.352 C 202.294 146.962,202.319 147.645,200.834 149.152 C 200.069 149.930,199.723 150.167,199.354 150.167 C 199.023 150.167,198.786 150.298,198.599 150.583 C 198.178 151.226,194.161 151.234,193.741 150.593 C 193.553 150.306,193.292 150.170,192.862 150.134 C 192.296 150.087,192.246 150.040,192.196 149.500 C 192.161 149.112,191.993 148.795,191.696 148.553 C 191.102 148.068,191.349 147.606,192.243 147.531 C 192.799 147.484,192.951 147.563,193.598 148.239 L 194.328 149.000 196.241 149.000 C 197.965 149.000,198.172 148.968,198.328 148.677 C 198.442 148.464,198.714 148.336,199.125 148.302 C 199.744 148.250,199.750 148.243,199.801 147.455 C 199.889 146.088,199.293 145.667,197.275 145.667 C 195.483 145.667,195.167 145.507,195.167 144.605 C 195.167 143.799,195.408 143.667,196.882 143.667 C 198.036 143.667,198.208 143.628,198.281 143.349 C 198.327 143.174,198.507 142.993,198.682 142.948 C 199.174 142.819,199.087 142.061,198.513 141.487 C 198.033 141.008,197.997 141.000,196.185 141.000 L 194.345 141.000 193.615 141.762 C 192.964 142.441,192.817 142.517,192.251 142.470 C 191.342 142.394,191.099 141.933,191.708 141.441 C 191.960 141.237,192.167 140.911,192.167 140.716 C 192.167 140.048,192.349 139.833,192.915 139.833 C 193.314 139.833,193.535 139.721,193.735 139.417 C 194.003 139.008,194.048 139.000,196.167 139.000 C 198.286 139.000,198.331 139.008,198.599 139.417 M211.500 139.163 C 211.704 139.291,211.765 139.933,211.833 142.619 L 211.917 145.917 212.417 145.973 C 213.757 146.124,213.669 148.000,212.321 148.000 L 211.833 148.000 211.833 149.238 C 211.833 150.657,211.626 151.000,210.771 151.000 C 209.967 151.000,209.833 150.757,209.833 149.300 L 209.833 148.000 206.595 148.000 C 202.825 148.000,202.833 148.003,202.833 146.583 C 202.833 145.739,203.103 145.167,203.501 145.167 C 203.580 145.167,203.691 145.021,203.747 144.842 C 203.804 144.663,203.997 144.471,204.175 144.414 C 204.354 144.357,204.500 144.196,204.500 144.056 C 204.500 143.917,204.650 143.763,204.833 143.715 C 205.017 143.667,205.167 143.576,205.167 143.513 C 205.167 143.314,206.286 142.167,206.481 142.167 C 206.583 142.167,206.667 142.100,206.667 142.020 C 206.667 141.828,207.995 140.500,208.186 140.500 C 208.267 140.500,208.333 140.416,208.333 140.314 C 208.333 139.455,210.636 138.618,211.500 139.163 M223.905 139.262 C 224.049 139.406,224.166 139.725,224.164 139.970 C 224.159 140.897,224.115 140.910,220.548 141.000 L 217.250 141.083 217.201 142.292 C 217.150 143.559,217.241 143.716,217.711 143.167 C 218.311 142.467,221.833 142.762,221.833 143.512 C 221.833 143.597,222.069 143.667,222.358 143.667 C 222.773 143.667,223.086 143.867,223.854 144.625 L 224.826 145.583 224.830 146.928 C 224.833 148.157,224.797 148.304,224.417 148.636 C 224.188 148.835,224.000 149.068,224.000 149.154 C 224.000 149.240,223.854 149.357,223.675 149.414 C 223.497 149.471,223.304 149.663,223.247 149.842 C 223.173 150.076,222.993 150.167,222.602 150.167 C 222.232 150.167,221.945 150.299,221.698 150.583 C 221.008 151.377,216.667 151.151,216.667 150.321 C 216.667 150.236,216.375 150.167,216.018 150.167 C 215.318 150.167,215.167 149.990,215.167 149.172 C 215.167 148.846,215.067 148.679,214.833 148.618 C 214.426 148.512,214.374 147.751,214.764 147.601 C 215.468 147.331,216.193 147.528,216.382 148.042 C 216.441 148.202,216.599 148.333,216.734 148.333 C 216.868 148.333,217.025 148.483,217.083 148.667 C 217.244 149.172,221.253 149.181,221.414 148.676 C 221.486 148.447,221.697 148.338,222.133 148.301 L 222.750 148.250 222.799 147.036 C 222.846 145.883,222.824 145.798,222.354 145.328 L 221.859 144.833 219.626 144.833 C 217.452 144.833,217.384 144.844,217.031 145.250 C 216.667 145.669,215.469 145.836,214.764 145.566 C 214.335 145.401,214.395 143.830,214.833 143.715 C 215.131 143.637,215.167 143.488,215.167 142.326 C 215.167 141.059,215.375 140.500,215.845 140.500 C 215.930 140.500,216.000 140.252,216.000 139.950 C 216.000 139.016,216.067 139.000,220.021 139.000 C 223.091 139.000,223.683 139.040,223.905 139.262 M233.905 139.262 C 234.049 139.406,234.167 139.593,234.167 139.679 C 234.167 139.764,234.427 139.833,234.744 139.833 C 235.377 139.833,235.667 140.167,235.667 140.894 C 235.667 141.168,235.784 141.348,236.010 141.420 C 236.263 141.500,236.339 141.644,236.301 141.973 C 236.231 142.581,234.703 142.758,234.551 142.176 C 234.501 141.988,234.394 141.833,234.313 141.833 C 234.231 141.833,234.001 141.646,233.802 141.417 C 233.294 140.832,229.598 140.762,229.417 141.333 C 229.358 141.517,229.252 141.667,229.180 141.667 C 228.670 141.667,228.000 142.708,228.000 143.501 C 228.000 143.959,228.075 144.333,228.167 144.333 C 228.258 144.333,228.333 144.214,228.333 144.068 C 228.333 143.922,228.483 143.763,228.667 143.715 C 228.850 143.667,229.000 143.567,229.000 143.492 C 229.000 142.815,233.331 142.454,233.868 143.087 C 234.422 143.739,235.214 144.500,235.339 144.500 C 235.415 144.500,235.524 144.646,235.581 144.825 C 235.637 145.003,235.830 145.196,236.009 145.253 C 236.506 145.411,236.503 148.487,236.006 148.617 C 235.825 148.664,235.634 148.841,235.580 149.009 C 235.527 149.178,235.345 149.360,235.176 149.414 C 235.007 149.467,234.831 149.659,234.784 149.839 C 234.736 150.019,234.578 150.167,234.432 150.167 C 234.286 150.167,234.167 150.236,234.167 150.321 C 234.167 151.151,229.826 151.377,229.136 150.583 C 228.888 150.299,228.602 150.167,228.231 150.167 C 227.836 150.167,227.661 150.077,227.583 149.833 C 227.525 149.650,227.413 149.500,227.334 149.500 C 227.029 149.500,226.667 148.954,226.667 148.494 C 226.667 148.182,226.549 147.949,226.333 147.833 C 226.021 147.666,226.000 147.484,226.000 144.979 C 226.000 142.442,226.017 142.298,226.333 142.215 C 226.577 142.151,226.667 141.988,226.667 141.606 C 226.667 140.953,227.740 139.833,228.364 139.833 C 228.593 139.833,228.933 139.649,229.136 139.417 C 229.594 138.889,233.408 138.765,233.905 139.262 M246.967 139.200 C 247.509 139.742,247.209 140.507,246.000 141.667 C 245.026 142.601,244.833 142.875,244.833 143.325 C 244.833 143.721,244.746 143.887,244.506 143.950 C 244.325 143.997,244.134 144.174,244.080 144.343 C 244.027 144.512,243.837 144.696,243.658 144.753 C 243.420 144.828,243.333 145.007,243.333 145.424 C 243.333 145.846,243.226 146.062,242.917 146.265 C 242.568 146.494,242.500 146.669,242.500 147.339 C 242.500 148.296,242.379 148.667,242.066 148.667 C 241.896 148.667,241.833 148.909,241.833 149.571 C 241.833 150.827,240.779 151.546,240.033 150.800 C 239.667 150.434,239.775 148.484,240.167 148.382 C 240.448 148.308,240.500 148.154,240.500 147.389 C 240.500 146.638,240.571 146.418,240.917 146.098 C 241.152 145.879,241.333 145.526,241.333 145.284 C 241.333 144.870,241.710 144.333,242.001 144.333 C 242.080 144.333,242.192 144.183,242.250 144.000 C 242.308 143.817,242.458 143.667,242.583 143.667 C 242.708 143.667,242.857 143.521,242.914 143.342 C 242.971 143.163,243.163 142.971,243.342 142.914 C 243.581 142.838,243.667 142.660,243.667 142.240 C 243.667 141.850,243.772 141.604,244.000 141.461 C 244.649 141.056,244.299 141.000,241.117 141.000 C 237.571 141.000,237.500 140.980,237.500 140.000 C 237.500 138.994,237.469 139.000,242.333 139.000 C 245.559 139.000,246.821 139.054,246.967 139.200 M256.265 139.417 C 256.453 139.704,256.690 139.833,257.025 139.833 C 258.074 139.833,258.667 140.770,258.667 142.427 C 258.667 143.724,258.634 143.873,258.333 143.952 C 257.716 144.113,257.904 144.914,258.750 145.724 C 259.688 146.623,259.863 148.088,259.093 148.593 C 258.806 148.780,258.670 149.041,258.634 149.471 C 258.587 150.045,258.545 150.087,257.971 150.134 C 257.541 150.170,257.280 150.306,257.093 150.593 C 256.829 150.996,256.798 151.000,254.250 151.000 C 251.702 151.000,251.671 150.996,251.407 150.593 C 251.220 150.306,250.959 150.170,250.529 150.134 C 249.964 150.087,249.912 150.039,249.862 149.507 C 249.829 149.164,249.644 148.779,249.404 148.557 C 248.553 147.769,248.801 146.700,250.155 145.322 C 251.316 144.140,251.332 144.055,250.417 143.965 L 249.917 143.917 249.869 142.459 L 249.820 141.002 250.405 140.418 C 250.806 140.017,251.141 139.833,251.475 139.833 C 251.810 139.833,252.047 139.704,252.235 139.417 C 252.497 139.016,252.575 139.000,254.250 139.000 C 255.925 139.000,256.003 139.016,256.265 139.417 M267.738 139.262 C 267.882 139.406,268.000 139.593,268.000 139.679 C 268.000 139.764,268.236 139.833,268.524 139.833 C 269.267 139.833,270.162 140.723,270.165 141.464 C 270.166 141.831,270.262 142.046,270.458 142.118 C 270.956 142.302,270.995 142.513,270.997 145.030 C 271.000 147.480,270.882 148.000,270.321 148.000 C 270.236 148.000,270.167 148.295,270.167 148.655 C 270.167 149.159,270.091 149.335,269.842 149.414 C 269.663 149.471,269.471 149.663,269.414 149.842 C 269.335 150.091,269.159 150.167,268.655 150.167 C 268.295 150.167,268.000 150.236,268.000 150.321 C 268.000 151.151,263.659 151.377,262.969 150.583 C 262.723 150.301,262.435 150.167,262.071 150.167 C 261.507 150.167,261.333 149.949,261.333 149.242 C 261.333 149.024,261.192 148.770,261.020 148.677 C 260.241 148.260,260.610 147.500,261.591 147.500 C 262.013 147.500,262.229 147.607,262.432 147.917 C 262.582 148.146,262.804 148.333,262.925 148.333 C 263.045 148.333,263.192 148.483,263.250 148.667 C 263.408 149.165,267.420 149.182,267.578 148.685 C 267.633 148.511,267.825 148.331,268.006 148.284 C 268.186 148.236,268.333 148.083,268.333 147.944 C 268.333 147.804,268.488 147.640,268.676 147.580 C 269.238 147.402,269.064 146.434,268.458 146.364 C 268.206 146.335,268.000 146.386,268.000 146.477 C 268.000 147.026,267.474 147.167,265.417 147.167 L 263.357 147.167 261.929 145.728 L 260.500 144.290 260.500 143.081 C 260.500 141.883,260.506 141.867,261.188 141.208 C 262.004 140.420,262.042 140.382,262.787 139.604 L 263.367 139.000 265.421 139.000 C 267.067 139.000,267.528 139.052,267.738 139.262 M279.903 139.101 C 280.048 139.157,280.168 139.288,280.170 139.393 C 280.172 139.498,280.442 139.808,280.770 140.083 C 281.768 140.920,281.833 141.007,281.833 141.506 C 281.833 141.818,281.951 142.051,282.167 142.167 C 282.479 142.334,282.500 142.516,282.500 145.000 C 282.500 147.484,282.479 147.666,282.167 147.833 C 281.951 147.949,281.833 148.182,281.833 148.494 C 281.833 148.954,281.471 149.500,281.166 149.500 C 281.087 149.500,280.975 149.650,280.917 149.833 C 280.858 150.017,280.701 150.167,280.567 150.167 C 280.433 150.167,280.274 150.298,280.215 150.458 C 280.032 150.954,279.821 150.995,277.389 150.997 C 274.891 151.000,274.500 150.941,274.500 150.561 C 274.500 150.431,274.313 150.254,274.083 150.167 C 273.854 150.080,273.667 149.894,273.667 149.754 C 273.667 149.614,273.597 149.500,273.512 149.500 C 273.197 149.500,272.833 148.961,272.833 148.494 C 272.833 148.182,272.715 147.949,272.500 147.833 C 272.188 147.666,272.167 147.484,272.167 145.000 C 272.167 142.516,272.188 142.334,272.500 142.167 C 272.715 142.051,272.833 141.818,272.833 141.506 C 272.833 141.007,272.898 140.920,273.896 140.083 C 274.224 139.808,274.494 139.496,274.496 139.389 C 274.503 139.036,279.097 138.792,279.903 139.101 M137.031 141.417 C 136.832 141.646,136.593 141.833,136.501 141.833 C 136.409 141.833,136.333 141.943,136.333 142.077 C 136.333 142.212,136.183 142.402,136.000 142.500 C 135.501 142.767,135.484 147.420,135.982 147.578 C 136.155 147.633,136.336 147.825,136.383 148.006 C 136.430 148.186,136.583 148.333,136.723 148.333 C 136.863 148.333,137.025 148.483,137.083 148.667 C 137.179 148.969,137.336 149.000,138.746 149.000 L 140.304 149.000 141.235 148.091 L 142.167 147.181 142.167 145.004 L 142.167 142.826 141.224 141.913 L 140.281 141.000 138.837 141.000 C 137.505 141.000,137.365 141.032,137.031 141.417 M148.042 141.916 L 147.167 142.814 147.167 145.043 C 147.167 147.214,147.178 147.283,147.583 147.636 C 147.813 147.835,148.000 148.065,148.000 148.146 C 148.000 148.228,148.150 148.334,148.333 148.382 C 148.517 148.430,148.667 148.588,148.667 148.734 C 148.667 148.959,148.913 149.000,150.257 149.000 L 151.848 149.000 152.757 148.112 L 153.667 147.224 153.667 145.018 L 153.667 142.812 152.761 141.906 L 151.855 141.000 150.386 141.010 L 148.917 141.019 148.042 141.916 M159.542 141.935 L 158.667 142.840 158.667 145.003 L 158.667 147.167 159.576 148.083 L 160.485 149.000 162.076 149.000 C 163.390 149.000,163.667 148.956,163.667 148.746 C 163.667 148.606,163.854 148.420,164.083 148.333 C 164.313 148.246,164.500 148.066,164.500 147.932 C 164.500 147.798,164.650 147.642,164.833 147.583 C 165.146 147.484,165.167 147.331,165.167 145.078 C 165.167 142.849,165.143 142.666,164.833 142.500 C 164.650 142.402,164.500 142.217,164.500 142.089 C 164.500 141.961,164.350 141.808,164.166 141.750 C 163.983 141.692,163.755 141.499,163.661 141.322 C 163.508 141.038,163.309 141.002,161.952 141.015 L 160.417 141.031 159.542 141.935 M209.422 141.317 C 209.361 141.509,209.248 141.667,209.172 141.667 C 208.991 141.667,207.833 142.825,207.833 143.005 C 207.833 143.082,207.687 143.191,207.509 143.247 C 207.330 143.304,207.140 143.488,207.086 143.657 C 207.033 143.826,206.841 144.003,206.661 144.050 C 206.481 144.097,206.333 144.250,206.333 144.390 C 206.333 144.530,206.187 144.691,206.009 144.747 C 205.830 144.804,205.639 144.993,205.583 145.167 C 205.528 145.341,205.329 145.532,205.141 145.591 C 204.319 145.852,205.269 146.007,207.430 145.963 L 209.750 145.917 209.797 143.597 C 209.840 141.427,209.686 140.486,209.422 141.317 M252.292 141.497 C 251.704 142.114,251.712 142.571,252.321 143.179 C 253.429 144.288,256.667 143.658,256.667 142.333 C 256.667 141.011,253.357 140.379,252.292 141.497 M263.375 141.935 C 262.220 143.105,262.064 144.333,263.071 144.333 C 263.482 144.333,263.735 144.450,263.970 144.750 C 264.310 145.182,267.500 145.419,267.500 145.012 C 267.500 144.695,268.040 144.333,268.512 144.333 L 269.000 144.333 269.000 143.083 L 269.000 141.833 268.499 141.833 C 268.172 141.833,267.872 141.688,267.636 141.417 C 267.295 141.025,267.181 141.001,265.762 141.024 L 264.250 141.048 263.375 141.935 M275.583 141.333 C 275.525 141.517,275.419 141.667,275.347 141.667 C 275.275 141.667,274.980 141.892,274.691 142.168 L 274.167 142.670 274.167 144.984 L 274.167 147.298 274.650 147.816 C 274.916 148.100,275.211 148.333,275.306 148.333 C 275.400 148.333,275.525 148.483,275.583 148.667 C 275.680 148.970,275.836 149.000,277.333 149.000 C 278.831 149.000,278.987 148.970,279.083 148.667 C 279.142 148.483,279.266 148.333,279.361 148.333 C 279.456 148.333,279.751 148.100,280.016 147.816 L 280.500 147.298 280.500 144.984 L 280.500 142.670 279.975 142.168 C 279.687 141.892,279.392 141.667,279.320 141.667 C 279.248 141.667,279.142 141.517,279.083 141.333 C 278.987 141.030,278.831 141.000,277.333 141.000 C 275.836 141.000,275.680 141.030,275.583 141.333 M229.500 144.988 C 229.500 145.305,228.960 145.667,228.488 145.667 C 228.015 145.667,228.000 145.692,228.000 146.482 C 228.000 147.290,228.642 148.333,229.139 148.333 C 229.234 148.333,229.358 148.483,229.417 148.667 C 229.576 149.169,232.755 149.178,232.914 148.676 C 232.990 148.435,233.197 148.339,233.717 148.301 L 234.417 148.250 234.466 147.109 C 234.514 146.015,234.493 145.945,233.966 145.403 L 233.417 144.837 231.458 144.835 C 230.363 144.834,229.500 144.902,229.500 144.988 M251.458 146.164 C 250.868 146.784,250.785 148.142,251.328 148.284 C 251.508 148.331,251.701 148.511,251.756 148.685 C 251.848 148.974,252.046 149.000,254.160 149.000 L 256.465 149.000 256.982 148.516 C 257.702 147.844,257.715 146.856,257.013 146.154 L 256.526 145.667 254.221 145.675 L 251.917 145.683 251.458 146.164 " stroke="none" fill="#ffffff" fill-rule="evenodd"></path>
      <path id="path1" d="M82.540 17.194 C 82.243 17.491,82.236 129.503,82.533 129.800 C 82.817 130.084,84.907 130.063,85.147 129.774 C 85.285 129.608,85.323 114.748,85.292 73.316 L 85.250 17.083 83.998 17.035 C 83.167 17.004,82.677 17.057,82.540 17.194 M88.603 17.260 C 88.363 17.884,88.490 129.618,88.730 129.817 C 88.889 129.948,89.819 129.994,91.689 129.963 L 94.417 129.917 94.417 73.500 L 94.417 17.083 91.561 17.038 C 89.066 16.998,88.692 17.026,88.603 17.260 M97.913 17.201 C 97.868 17.320,97.851 42.729,97.874 73.667 L 97.917 129.917 99.250 129.917 L 100.583 129.917 100.583 73.500 L 100.583 17.083 99.289 17.035 C 98.348 16.999,97.973 17.045,97.913 17.201 M104.077 17.208 C 104.034 17.323,104.017 42.729,104.041 73.667 L 104.083 129.917 106.811 129.963 C 108.681 129.994,109.611 129.948,109.770 129.817 C 110.009 129.618,110.137 17.885,109.899 17.264 C 109.765 16.915,104.209 16.862,104.077 17.208 M116.413 17.201 C 116.368 17.320,116.351 42.729,116.374 73.667 L 116.417 129.917 117.410 129.968 C 117.956 129.996,118.575 129.976,118.785 129.923 L 119.167 129.827 119.125 73.455 L 119.083 17.083 117.789 17.035 C 116.848 16.999,116.473 17.045,116.413 17.201 M122.540 17.194 C 122.243 17.491,122.236 129.503,122.533 129.800 C 122.817 130.084,124.907 130.063,125.147 129.774 C 125.285 129.608,125.323 114.748,125.292 73.316 L 125.250 17.083 123.998 17.035 C 123.167 17.004,122.677 17.057,122.540 17.194 M140.951 17.105 C 140.728 17.327,140.811 129.577,141.033 129.800 C 141.317 130.084,143.407 130.063,143.647 129.774 C 143.785 129.608,143.823 114.748,143.792 73.316 L 143.750 17.083 142.409 17.035 C 141.671 17.009,141.015 17.040,140.951 17.105 M162.540 17.194 C 162.243 17.491,162.236 129.503,162.533 129.800 C 162.817 130.084,164.907 130.063,165.147 129.774 C 165.285 129.608,165.323 114.748,165.292 73.316 L 165.250 17.083 163.998 17.035 C 163.167 17.004,162.677 17.057,162.540 17.194 M168.604 17.257 C 168.391 17.812,168.486 129.586,168.700 129.800 C 168.984 130.084,171.073 130.063,171.313 129.774 C 171.451 129.608,171.489 114.748,171.459 73.316 L 171.417 17.083 170.062 17.035 C 168.938 16.995,168.690 17.033,168.604 17.257 M174.770 17.257 C 174.557 17.812,174.653 129.586,174.867 129.800 C 175.151 130.084,177.240 130.063,177.480 129.774 C 177.618 129.608,177.656 114.748,177.625 73.316 L 177.583 17.083 176.229 17.035 C 175.104 16.995,174.856 17.033,174.770 17.257 M180.948 17.107 C 180.700 17.355,180.816 129.611,181.064 129.817 C 181.222 129.948,182.152 129.994,184.022 129.963 L 186.750 129.917 186.750 73.500 L 186.750 17.083 183.907 17.038 C 182.343 17.013,181.011 17.044,180.948 17.107 M190.244 17.208 C 190.200 17.323,190.184 42.729,190.207 73.667 L 190.250 129.917 192.978 129.963 C 194.848 129.994,195.778 129.948,195.936 129.817 C 196.255 129.553,196.285 17.519,195.967 17.200 C 195.677 16.910,190.354 16.918,190.244 17.208 M199.444 17.111 C 199.226 17.329,199.315 129.581,199.533 129.800 C 199.797 130.063,201.870 130.063,202.133 129.800 C 202.425 129.509,202.425 17.491,202.133 17.200 C 201.922 16.989,199.642 16.914,199.444 17.111 M211.784 17.105 C 211.720 17.169,211.667 42.558,211.667 73.525 L 211.667 129.827 212.049 129.923 C 212.259 129.976,212.877 129.996,213.424 129.968 L 214.417 129.917 214.417 73.500 L 214.417 17.083 213.159 17.035 C 212.468 17.009,211.849 17.040,211.784 17.105 M217.913 17.201 C 217.868 17.320,217.851 42.729,217.874 73.667 L 217.917 129.917 219.250 129.917 L 220.583 129.917 220.583 73.500 L 220.583 17.083 219.289 17.035 C 218.348 16.999,217.973 17.045,217.913 17.201 M224.080 17.201 C 224.035 17.320,224.017 42.729,224.041 73.667 L 224.083 129.917 225.417 129.917 L 226.750 129.917 226.750 73.500 L 226.750 17.083 225.456 17.035 C 224.515 16.999,224.139 17.045,224.080 17.201 M230.245 17.206 C 230.201 17.322,230.184 42.729,230.207 73.667 L 230.250 129.917 234.333 129.964 C 236.579 129.989,238.586 129.969,238.792 129.919 L 239.167 129.827 239.125 73.455 L 239.083 17.083 234.704 17.039 C 231.291 17.004,230.307 17.041,230.245 17.206 M245.615 17.107 C 245.338 17.385,245.486 129.792,245.764 129.899 C 246.332 130.117,251.118 130.009,251.313 129.774 C 251.451 129.608,251.489 114.748,251.459 73.316 L 251.417 17.083 248.573 17.038 C 247.009 17.013,245.678 17.044,245.615 17.107 M257.912 17.206 C 257.867 17.322,257.851 42.729,257.874 73.667 L 257.917 129.917 262.333 129.917 L 266.750 129.917 266.750 73.500 L 266.750 17.083 262.371 17.039 C 258.957 17.004,257.974 17.041,257.912 17.206 M270.246 17.201 C 270.201 17.320,270.184 42.729,270.207 73.667 L 270.250 129.917 271.243 129.968 C 271.789 129.996,272.408 129.976,272.618 129.923 L 273.000 129.827 272.959 73.455 L 272.917 17.083 271.622 17.035 C 270.681 16.999,270.306 17.045,270.246 17.201 M288.604 17.257 C 288.391 17.812,288.486 129.586,288.700 129.800 C 288.984 130.084,291.073 130.063,291.313 129.774 C 291.451 129.608,291.489 114.748,291.459 73.316 L 291.417 17.083 290.062 17.035 C 288.938 16.995,288.690 17.033,288.604 17.257 M294.769 17.260 C 294.530 17.884,294.657 129.618,294.897 129.817 C 295.055 129.948,295.985 129.994,297.855 129.963 L 300.583 129.917 300.583 73.500 L 300.583 17.083 297.728 17.038 C 295.233 16.998,294.859 17.026,294.769 17.260 M304.080 17.201 C 304.035 17.320,304.017 42.729,304.041 73.667 L 304.083 129.917 305.417 129.917 L 306.750 129.917 306.750 73.500 L 306.750 17.083 305.456 17.035 C 304.515 16.999,304.139 17.045,304.080 17.201 M135.542 140.290 C 134.907 140.956,134.667 141.337,134.667 141.681 C 134.667 141.984,134.547 142.219,134.333 142.333 C 134.023 142.499,134.000 142.682,134.000 145.000 C 134.000 147.318,134.023 147.501,134.333 147.667 C 134.546 147.781,134.667 148.016,134.667 148.317 C 134.667 148.668,134.907 149.032,135.598 149.728 L 136.529 150.667 138.889 150.663 L 141.250 150.659 142.125 149.769 C 142.731 149.153,143.000 148.745,143.000 148.444 C 143.000 148.163,143.148 147.911,143.417 147.735 C 143.829 147.465,143.833 147.436,143.833 145.093 C 143.833 142.782,143.823 142.715,143.417 142.333 C 143.188 142.118,143.000 141.764,143.000 141.547 C 143.000 141.295,142.679 140.824,142.112 140.243 L 141.224 139.333 138.820 139.353 L 136.417 139.373 135.542 140.290 M147.208 140.248 C 146.637 140.841,146.333 141.300,146.333 141.567 C 146.333 141.805,146.159 142.113,145.917 142.304 C 145.506 142.626,145.500 142.669,145.500 145.046 C 145.500 147.439,145.504 147.464,145.917 147.735 C 146.185 147.910,146.333 148.163,146.333 148.442 C 146.333 148.741,146.605 149.157,147.203 149.772 L 148.073 150.667 150.417 150.667 L 152.761 150.667 153.630 149.772 C 154.228 149.157,154.500 148.741,154.500 148.442 C 154.500 148.163,154.648 147.910,154.917 147.735 C 155.329 147.465,155.333 147.436,155.333 145.093 C 155.333 142.782,155.323 142.715,154.917 142.333 C 154.688 142.118,154.500 141.764,154.500 141.547 C 154.500 141.295,154.179 140.824,153.612 140.243 L 152.724 139.333 150.404 139.336 L 148.083 139.338 147.208 140.248 M158.708 140.248 C 158.158 140.820,157.833 141.303,157.833 141.550 C 157.833 141.765,157.646 142.118,157.417 142.333 C 157.010 142.715,157.000 142.782,157.000 145.093 C 157.000 147.436,157.005 147.465,157.417 147.735 C 157.690 147.914,157.835 148.164,157.837 148.462 C 157.840 148.788,158.092 149.164,158.731 149.792 L 159.620 150.667 161.963 150.667 L 164.305 150.667 165.233 149.708 C 165.890 149.029,166.161 148.618,166.163 148.298 C 166.165 148.018,166.294 147.777,166.500 147.667 C 166.810 147.501,166.833 147.318,166.833 145.000 C 166.833 142.682,166.810 142.499,166.500 142.333 C 166.294 142.223,166.165 141.982,166.163 141.702 C 166.160 141.384,165.913 141.004,165.330 140.422 C 164.873 139.967,164.500 139.536,164.500 139.464 C 164.500 139.392,163.394 139.334,162.042 139.336 L 159.583 139.338 158.708 140.248 M173.114 140.492 C 172.299 141.337,171.864 141.667,171.561 141.667 C 171.141 141.667,170.167 142.472,170.167 142.821 C 170.167 143.228,172.013 143.029,172.363 142.583 C 172.748 142.094,173.337 142.044,173.721 142.468 C 173.954 142.726,174.000 143.335,174.039 146.676 L 174.083 150.583 174.667 150.583 L 175.250 150.583 175.250 145.000 L 175.250 139.417 174.748 139.367 C 174.318 139.325,174.086 139.485,173.114 140.492 M182.284 139.755 C 182.102 140.005,181.819 140.167,181.563 140.167 C 180.959 140.167,180.167 141.011,180.167 141.654 C 180.167 142.500,181.041 142.384,181.966 141.416 L 182.681 140.667 184.610 140.667 L 186.539 140.667 187.186 141.314 C 188.311 142.439,188.172 143.133,186.484 144.819 C 185.501 145.801,185.019 146.167,184.709 146.167 C 184.416 146.167,184.035 146.426,183.484 147.000 C 182.981 147.525,182.543 147.834,182.301 147.835 C 181.634 147.838,180.167 149.387,180.167 150.088 L 180.167 150.672 184.625 150.628 L 189.083 150.583 189.083 150.000 L 189.083 149.417 185.805 149.333 C 184.002 149.287,182.467 149.190,182.394 149.117 C 182.153 148.875,182.608 148.418,183.142 148.364 C 183.451 148.334,183.737 148.180,183.839 147.989 C 183.950 147.781,184.188 147.667,184.507 147.667 C 184.919 147.667,185.349 147.317,187.084 145.566 L 189.167 143.465 189.167 142.300 C 189.167 141.004,188.603 140.167,187.731 140.167 C 187.511 140.167,187.168 139.979,186.969 139.750 C 186.412 139.110,182.750 139.114,182.284 139.755 M193.935 139.692 C 193.786 139.903,193.425 140.091,193.050 140.152 C 192.473 140.245,192.412 140.305,192.362 140.829 C 192.330 141.159,192.171 141.499,191.987 141.628 C 191.502 141.967,191.601 142.167,192.253 142.167 C 192.730 142.167,192.973 142.027,193.558 141.417 L 194.276 140.667 196.180 140.668 L 198.083 140.670 198.708 141.262 C 200.052 142.535,199.017 144.000,196.775 144.000 L 195.480 144.000 195.532 144.625 L 195.583 145.250 197.250 145.298 L 198.916 145.346 199.541 145.957 C 200.543 146.935,200.412 148.500,199.329 148.500 C 199.078 148.500,198.725 148.677,198.500 148.917 C 198.126 149.315,198.024 149.333,196.179 149.330 L 194.250 149.327 193.508 148.580 C 192.989 148.057,192.630 147.833,192.310 147.833 C 191.706 147.833,191.544 148.133,191.982 148.439 C 192.194 148.588,192.333 148.867,192.333 149.143 C 192.333 149.719,192.609 150.000,193.174 150.000 C 193.417 150.000,193.751 150.150,193.917 150.333 C 194.187 150.632,194.430 150.667,196.236 150.667 C 198.073 150.667,198.272 150.637,198.461 150.333 C 198.586 150.134,198.853 149.999,199.126 149.997 C 200.589 149.985,202.108 147.113,201.125 146.219 C 200.919 146.031,200.397 145.505,199.965 145.051 L 199.180 144.223 199.923 143.494 C 201.162 142.278,200.750 140.167,199.275 140.167 C 199.028 140.167,198.723 139.996,198.530 139.750 C 198.056 139.147,194.349 139.100,193.935 139.692 M206.366 142.587 L 203.149 145.837 203.200 146.710 L 203.250 147.583 206.487 147.629 C 210.322 147.682,210.167 147.609,210.167 149.364 L 210.167 150.687 210.792 150.635 L 211.417 150.583 211.459 149.500 C 211.526 147.804,211.575 147.694,212.292 147.635 C 213.421 147.542,213.265 146.176,212.125 146.169 C 211.542 146.166,211.615 146.572,211.509 142.750 L 211.417 139.417 210.500 139.377 L 209.583 139.338 206.366 142.587 M216.333 139.910 C 216.333 140.347,216.230 140.560,215.917 140.765 C 215.531 141.018,215.500 141.136,215.500 142.333 C 215.500 143.531,215.469 143.649,215.083 143.901 C 214.673 144.170,214.569 144.553,214.768 145.070 C 214.947 145.538,216.524 145.428,216.969 144.917 C 217.323 144.509,217.384 144.500,219.655 144.500 L 221.979 144.500 222.571 145.125 C 223.517 146.123,223.453 148.500,222.481 148.500 C 222.173 148.500,221.866 148.651,221.636 148.917 C 221.287 149.318,221.198 149.333,219.287 149.333 L 217.300 149.333 216.592 148.583 C 216.049 148.009,215.763 147.833,215.368 147.833 C 214.683 147.833,214.559 148.088,215.078 148.429 C 215.387 148.631,215.500 148.851,215.500 149.251 C 215.500 149.827,215.714 150.000,216.424 150.000 C 216.651 150.000,216.898 150.143,217.000 150.333 C 217.164 150.639,217.349 150.667,219.254 150.667 C 221.150 150.667,221.349 150.638,221.539 150.333 C 221.662 150.136,221.927 150.000,222.188 150.000 C 222.500 150.000,222.906 149.729,223.565 149.080 L 224.500 148.160 224.500 146.921 L 224.500 145.683 223.659 144.841 C 223.097 144.279,222.679 144.000,222.401 144.000 C 222.170 144.000,221.811 143.814,221.598 143.583 C 221.062 143.005,218.144 142.941,217.795 143.500 C 217.260 144.356,216.832 143.811,216.836 142.278 C 216.840 140.689,216.677 140.762,220.452 140.667 L 223.750 140.583 223.750 140.000 L 223.750 139.417 220.042 139.372 L 216.333 139.327 216.333 139.910 M229.198 139.750 C 228.999 139.979,228.655 140.167,228.435 140.167 C 227.834 140.167,227.000 141.025,227.000 141.644 C 227.000 141.984,226.889 142.215,226.667 142.333 C 226.356 142.499,226.333 142.682,226.333 145.000 C 226.333 147.318,226.356 147.501,226.667 147.667 C 226.887 147.784,227.000 148.016,227.000 148.347 C 227.000 149.035,227.935 150.000,228.602 150.000 C 228.906 150.000,229.164 150.124,229.295 150.333 C 229.484 150.637,229.683 150.667,231.508 150.667 L 233.513 150.667 234.840 149.347 L 236.167 148.027 236.167 146.951 L 236.167 145.875 234.834 144.521 L 233.501 143.167 231.559 143.167 L 229.617 143.167 228.891 143.934 C 227.949 144.932,227.667 144.844,227.667 143.554 C 227.667 142.602,227.671 142.594,228.675 141.632 L 229.684 140.667 231.579 140.667 L 233.474 140.667 234.224 141.417 C 234.781 141.974,235.103 142.167,235.477 142.167 C 236.147 142.167,236.272 141.910,235.765 141.578 C 235.498 141.403,235.334 141.121,235.301 140.779 C 235.256 140.316,235.182 140.243,234.705 140.198 C 234.349 140.163,234.068 140.004,233.894 139.739 C 233.478 139.103,229.753 139.112,229.198 139.750 M237.899 139.568 C 237.849 139.701,237.832 139.983,237.862 140.196 L 237.917 140.583 241.108 140.629 C 244.663 140.679,245.073 140.796,244.358 141.557 C 244.161 141.767,244.000 142.104,244.000 142.306 C 244.000 142.541,243.578 143.089,242.833 143.822 C 241.983 144.658,241.667 145.088,241.667 145.403 C 241.667 145.657,241.494 145.985,241.250 146.198 C 240.904 146.499,240.833 146.709,240.833 147.441 C 240.833 148.151,240.769 148.356,240.500 148.500 C 240.223 148.648,240.167 148.849,240.167 149.683 L 240.167 150.687 240.792 150.635 L 241.417 150.583 241.466 149.639 C 241.508 148.850,241.583 148.651,241.925 148.427 C 242.276 148.197,242.333 148.031,242.333 147.248 C 242.333 146.517,242.399 146.295,242.667 146.128 C 242.874 145.999,243.000 145.739,243.000 145.443 C 243.000 145.095,243.201 144.777,243.750 144.259 C 244.245 143.791,244.500 143.410,244.500 143.139 C 244.500 142.851,244.850 142.383,245.671 141.572 C 246.667 140.590,246.836 140.342,246.796 139.917 L 246.750 139.417 242.371 139.372 C 238.679 139.335,237.977 139.366,237.899 139.568 M252.284 139.755 C 252.102 140.005,251.819 140.167,251.563 140.167 C 250.640 140.167,250.146 140.995,250.201 142.453 L 250.250 143.750 250.750 143.806 C 251.763 143.921,251.730 144.128,250.496 145.384 C 249.136 146.768,248.908 147.709,249.741 148.492 C 249.965 148.702,250.171 149.109,250.199 149.396 C 250.243 149.845,250.322 149.924,250.774 149.968 C 251.063 149.996,251.430 150.164,251.592 150.343 C 251.856 150.635,252.119 150.667,254.250 150.667 C 256.381 150.667,256.644 150.635,256.908 150.343 C 257.070 150.164,257.437 149.996,257.726 149.968 C 258.182 149.923,258.257 149.847,258.302 149.379 C 258.334 149.051,258.513 148.716,258.760 148.522 C 259.508 147.933,259.350 146.675,258.417 145.797 C 257.559 144.991,257.384 144.163,258.000 143.833 C 259.037 143.279,258.138 140.167,256.942 140.167 C 256.695 140.167,256.390 139.996,256.196 139.750 C 255.697 139.115,252.747 139.119,252.284 139.755 M262.125 140.665 L 260.833 141.985 260.833 143.091 L 260.833 144.196 262.141 145.515 L 263.449 146.833 265.469 146.833 C 267.318 146.833,267.503 146.805,267.667 146.500 C 267.894 146.074,269.075 146.022,269.232 146.430 C 269.458 147.019,269.288 147.379,268.333 148.333 L 267.333 149.333 265.360 149.333 L 263.388 149.333 262.735 148.588 C 262.222 148.001,261.970 147.841,261.552 147.838 C 260.852 147.832,260.720 148.085,261.245 148.429 C 261.554 148.631,261.667 148.851,261.667 149.251 C 261.667 149.819,261.881 150.000,262.557 150.000 C 262.756 150.000,263.013 150.150,263.128 150.333 C 263.318 150.638,263.517 150.667,265.412 150.667 C 267.318 150.667,267.503 150.639,267.667 150.333 C 267.781 150.119,268.016 150.000,268.323 150.000 C 268.649 150.000,268.990 149.810,269.400 149.400 C 269.810 148.990,270.000 148.649,270.000 148.323 C 270.000 148.016,270.119 147.781,270.333 147.667 C 270.644 147.501,270.667 147.318,270.667 145.000 C 270.667 142.682,270.644 142.499,270.333 142.333 C 270.121 142.220,270.000 141.984,270.000 141.686 C 270.000 141.029,269.150 140.167,268.502 140.167 C 268.159 140.167,267.924 140.040,267.735 139.750 C 267.468 139.343,267.416 139.333,265.439 139.339 L 263.417 139.345 262.125 140.665 M274.042 140.268 C 273.448 140.870,273.167 141.291,273.167 141.578 C 273.167 141.823,272.990 142.156,272.750 142.364 C 272.344 142.718,272.333 142.783,272.333 145.000 C 272.333 147.217,272.344 147.282,272.750 147.636 C 272.993 147.846,273.167 148.177,273.167 148.426 C 273.167 148.723,273.445 149.134,274.072 149.761 L 274.978 150.667 277.333 150.667 L 279.688 150.667 280.594 149.761 C 281.221 149.134,281.500 148.723,281.500 148.426 C 281.500 148.177,281.674 147.846,281.917 147.636 C 282.323 147.282,282.333 147.217,282.333 145.000 C 282.333 142.783,282.323 142.718,281.917 142.364 C 281.678 142.157,281.500 141.823,281.500 141.581 C 281.500 141.287,281.214 140.882,280.557 140.246 L 279.615 139.333 277.266 139.357 L 274.917 139.381 274.042 140.268 M141.349 141.642 L 142.333 142.618 142.333 145.142 C 142.333 146.531,142.274 147.667,142.203 147.667 C 142.131 147.667,141.699 148.040,141.244 148.496 L 140.417 149.326 138.875 149.330 L 137.333 149.333 136.333 148.333 L 135.333 147.333 135.333 145.013 L 135.333 142.693 136.347 141.680 L 137.360 140.667 138.862 140.667 L 140.364 140.667 141.349 141.642 M152.989 141.708 L 153.999 142.750 154.000 145.020 L 154.000 147.290 152.982 148.312 L 151.963 149.333 150.388 149.333 L 148.813 149.333 147.823 148.309 L 146.833 147.285 146.833 144.989 L 146.833 142.693 147.847 141.680 L 148.860 140.667 150.419 140.667 L 151.978 140.667 152.989 141.708 M164.487 141.680 L 165.500 142.693 165.500 145.013 L 165.500 147.333 164.500 148.333 L 163.500 149.333 161.958 149.331 L 160.417 149.329 159.375 148.312 L 158.333 147.295 158.333 145.038 L 158.333 142.782 159.375 141.727 L 160.417 140.673 161.945 140.670 L 163.473 140.667 164.487 141.680 M256.384 141.231 C 257.831 142.556,256.730 143.988,254.257 143.995 L 252.764 144.000 252.132 143.383 C 251.308 142.579,251.301 142.066,252.100 141.267 L 252.700 140.667 254.234 140.667 C 255.745 140.667,255.778 140.675,256.384 141.231 M267.698 141.083 C 267.944 141.366,268.232 141.500,268.596 141.500 C 269.246 141.500,269.333 141.687,269.333 143.083 C 269.333 144.492,269.249 144.667,268.569 144.667 C 268.154 144.667,267.936 144.775,267.735 145.083 C 267.321 145.715,264.367 145.724,263.873 145.096 C 263.673 144.841,263.345 144.672,262.986 144.638 L 262.417 144.583 262.366 143.613 L 262.316 142.642 263.283 141.657 L 264.250 140.671 265.793 140.669 C 267.232 140.667,267.360 140.695,267.698 141.083 M279.825 141.632 L 280.833 142.598 280.833 144.990 L 280.833 147.382 279.875 148.354 L 278.917 149.326 277.333 149.326 L 275.750 149.326 274.792 148.354 L 273.833 147.382 273.833 144.990 L 273.833 142.598 274.842 141.632 L 275.850 140.667 277.333 140.667 L 278.816 140.667 279.825 141.632 M210.066 141.097 C 210.261 141.607,210.177 145.756,209.967 145.967 C 209.657 146.276,204.853 146.245,204.733 145.933 C 204.624 145.647,209.289 140.856,209.691 140.843 C 209.841 140.838,210.010 140.952,210.066 141.097 M234.064 145.098 L 234.680 145.695 234.632 147.054 L 234.583 148.412 233.950 148.514 C 233.576 148.575,233.213 148.764,233.065 148.975 C 232.838 149.300,232.665 149.333,231.199 149.330 L 229.583 149.326 228.625 148.354 C 227.242 146.951,227.194 145.333,228.536 145.333 C 228.724 145.333,229.052 145.146,229.265 144.917 C 229.633 144.519,229.738 144.500,231.550 144.500 L 233.449 144.500 234.064 145.098 M257.233 145.933 C 258.117 146.817,258.101 147.823,257.189 148.708 L 256.544 149.333 254.250 149.333 L 251.956 149.333 251.311 148.708 C 250.386 147.810,250.378 146.794,251.292 145.929 L 251.917 145.336 254.275 145.335 L 256.633 145.333 257.233 145.933 " stroke="none" fill="#000000" fill-rule="evenodd"></path>
   </g>
</svg>