<svg id="svg" version="1.1" xmlns="http://www.w3.org/2000/svg" xmlns:xlink="http://www.w3.org/1999/xlink" width="400" height="153.84615384615384" viewBox="0, 0, 400,153.84615384615384">
   <g id="svgg">
      <path id="path0" d="M0.000 76.917 L 0.000 153.833 200.000 153.833 L 400.000 153.833 400.000 76.917 L 400.000 0.000 200.000 0.000 L 0.000 0.000 0.000 76.917 M29.238 0.762 C 29.505 1.029,29.665 133.043,29.399 133.736 C 29.273 134.064,27.183 134.117,26.867 133.800 C 26.508 133.441,26.583 1.202,26.942 0.805 C 27.304 0.406,28.853 0.377,29.238 0.762 M33.862 0.776 C 34.246 1.124,34.351 133.416,33.967 133.800 C 33.650 134.117,31.560 134.064,31.434 133.736 C 31.168 133.043,31.328 1.029,31.595 0.762 C 31.958 0.399,33.456 0.408,33.862 0.776 M40.738 0.762 C 41.029 1.053,41.148 133.342,40.858 133.800 C 40.761 133.952,40.377 134.002,39.568 133.967 L 38.417 133.917 38.375 67.434 C 38.344 18.424,38.382 0.892,38.520 0.726 C 38.790 0.401,40.404 0.427,40.738 0.762 M56.905 0.762 C 57.172 1.029,57.332 133.043,57.066 133.736 C 56.912 134.136,47.755 134.136,47.601 133.736 C 47.335 133.043,47.495 1.029,47.762 0.762 C 48.155 0.369,56.512 0.369,56.905 0.762 M68.386 0.708 C 68.651 0.904,68.666 5.042,68.626 67.417 L 68.583 133.917 67.333 133.917 L 66.083 133.917 66.041 67.417 C 66.001 5.042,66.016 0.904,66.281 0.708 C 66.646 0.439,68.020 0.439,68.386 0.708 M89.238 0.762 C 89.505 1.029,89.665 133.043,89.399 133.736 C 89.266 134.083,71.045 134.145,70.700 133.800 C 70.341 133.441,70.417 1.202,70.776 0.805 C 71.171 0.369,88.804 0.328,89.238 0.762 M100.738 0.762 C 101.029 1.053,101.148 133.342,100.858 133.800 C 100.761 133.952,100.377 134.002,99.568 133.967 L 98.417 133.917 98.375 67.434 C 98.344 18.424,98.382 0.892,98.520 0.726 C 98.790 0.401,100.404 0.427,100.738 0.762 M105.405 0.762 C 105.672 1.029,105.832 133.043,105.566 133.736 C 105.418 134.120,103.082 134.120,102.934 133.736 C 102.668 133.043,102.828 1.029,103.095 0.762 C 103.453 0.404,105.047 0.404,105.405 0.762 M116.905 0.762 C 117.194 1.051,117.315 133.341,117.027 133.795 C 116.924 133.958,116.084 133.996,113.405 133.962 L 109.917 133.917 109.874 67.417 C 109.834 5.042,109.849 0.904,110.114 0.708 C 110.574 0.370,116.560 0.417,116.905 0.762 M126.052 0.708 C 126.318 0.904,126.333 5.042,126.293 67.417 L 126.250 133.917 125.098 133.967 C 124.290 134.002,123.906 133.952,123.809 133.800 C 123.519 133.342,123.638 1.053,123.929 0.762 C 124.248 0.443,125.644 0.408,126.052 0.708 M139.980 0.726 C 140.118 0.892,140.156 18.424,140.125 67.434 L 140.083 133.917 137.763 133.963 C 136.018 133.998,135.409 133.957,135.307 133.797 C 135.018 133.341,135.139 1.051,135.429 0.762 C 135.784 0.407,139.689 0.376,139.980 0.726 M144.552 0.708 C 144.818 0.904,144.833 5.042,144.793 67.417 L 144.750 133.917 143.500 133.917 L 142.250 133.917 142.207 67.417 C 142.167 5.042,142.182 0.904,142.448 0.708 C 142.813 0.439,144.187 0.439,144.552 0.708 M156.052 0.708 C 156.318 0.904,156.333 5.042,156.293 67.417 L 156.250 133.917 151.687 133.961 C 148.460 133.992,147.057 133.950,146.895 133.816 C 146.511 133.497,146.558 1.230,146.942 0.805 C 147.293 0.418,155.540 0.331,156.052 0.708 M165.405 0.762 C 165.694 1.051,165.815 133.341,165.527 133.795 C 165.424 133.958,164.584 133.996,161.905 133.962 L 158.417 133.917 158.375 67.434 C 158.344 18.424,158.382 0.892,158.520 0.726 C 158.817 0.368,165.044 0.401,165.405 0.762 M174.552 0.708 C 174.818 0.904,174.833 5.042,174.793 67.417 L 174.750 133.917 172.333 133.917 L 169.917 133.917 169.874 67.417 C 169.834 5.042,169.849 0.904,170.114 0.708 C 170.504 0.421,174.163 0.421,174.552 0.708 M183.862 0.776 C 184.246 1.124,184.351 133.416,183.967 133.800 C 183.650 134.117,181.560 134.064,181.434 133.736 C 181.168 133.043,181.328 1.029,181.595 0.762 C 181.958 0.399,183.456 0.408,183.862 0.776 M195.405 0.762 C 195.693 1.051,195.816 133.341,195.528 133.794 C 195.424 133.958,194.352 133.995,190.739 133.961 L 186.083 133.917 186.041 67.417 C 186.001 5.042,186.016 0.904,186.281 0.708 C 186.746 0.365,195.057 0.414,195.405 0.762 M216.052 0.708 C 216.318 0.904,216.333 5.042,216.293 67.417 L 216.250 133.917 212.762 133.962 C 210.083 133.996,209.243 133.958,209.140 133.795 C 208.851 133.341,208.973 1.051,209.262 0.762 C 209.607 0.417,215.593 0.370,216.052 0.708 M223.071 0.762 C 223.339 1.029,223.498 133.043,223.232 133.736 C 223.106 134.064,221.017 134.117,220.700 133.800 C 220.341 133.441,220.417 1.202,220.776 0.805 C 221.137 0.406,222.686 0.377,223.071 0.762 M232.219 0.708 C 232.484 0.904,232.499 5.042,232.459 67.417 L 232.417 133.917 228.929 133.962 C 226.250 133.996,225.409 133.958,225.306 133.795 C 225.018 133.341,225.140 1.051,225.429 0.762 C 225.774 0.417,231.759 0.370,232.219 0.708 M246.052 0.708 C 246.318 0.904,246.333 5.042,246.293 67.417 L 246.250 133.917 242.762 133.962 C 240.083 133.996,239.243 133.958,239.140 133.795 C 238.851 133.341,238.973 1.051,239.262 0.762 C 239.607 0.417,245.593 0.370,246.052 0.708 M255.405 0.762 C 255.694 1.051,255.815 133.341,255.527 133.795 C 255.424 133.958,254.584 133.996,251.905 133.962 L 248.417 133.917 248.374 67.417 C 248.334 5.042,248.349 0.904,248.614 0.708 C 249.074 0.370,255.060 0.417,255.405 0.762 M266.905 0.762 C 267.172 1.029,267.332 133.043,267.066 133.736 C 266.912 134.136,257.755 134.136,257.601 133.736 C 257.335 133.043,257.495 1.029,257.762 0.762 C 258.155 0.369,266.512 0.369,266.905 0.762 M271.571 0.762 C 271.839 1.029,271.998 133.043,271.732 133.736 C 271.585 134.120,269.249 134.120,269.101 133.736 C 268.835 133.043,268.995 1.029,269.262 0.762 C 269.435 0.589,269.827 0.500,270.417 0.500 C 271.006 0.500,271.399 0.589,271.571 0.762 M283.071 0.762 C 283.360 1.051,283.482 133.341,283.194 133.794 C 283.090 133.958,282.018 133.995,278.405 133.961 L 273.750 133.917 273.707 67.417 C 273.667 5.042,273.682 0.904,273.948 0.708 C 274.413 0.365,282.724 0.414,283.071 0.762 M294.552 0.708 C 294.818 0.904,294.833 5.042,294.793 67.417 L 294.750 133.917 292.333 133.917 L 289.917 133.917 289.874 67.417 C 289.834 5.042,289.849 0.904,290.114 0.708 C 290.504 0.421,294.163 0.421,294.552 0.708 M315.405 0.762 C 315.672 1.029,315.832 133.043,315.566 133.736 C 315.411 134.138,301.589 134.138,301.434 133.736 C 301.168 133.043,301.328 1.029,301.595 0.762 C 301.992 0.366,315.008 0.366,315.405 0.762 M326.905 0.762 C 327.196 1.053,327.314 133.342,327.024 133.800 C 326.928 133.952,326.544 134.002,325.735 133.967 L 324.583 133.917 324.541 67.434 C 324.511 18.424,324.549 0.892,324.687 0.726 C 324.956 0.401,326.570 0.427,326.905 0.762 M333.862 0.776 C 334.246 1.124,334.351 133.416,333.967 133.800 C 333.634 134.133,329.231 134.075,329.101 133.736 C 328.835 133.043,328.995 1.029,329.262 0.762 C 329.654 0.370,333.426 0.381,333.862 0.776 M345.405 0.762 C 345.672 1.029,345.832 133.043,345.566 133.736 C 345.418 134.120,343.082 134.120,342.934 133.736 C 342.668 133.043,342.828 1.029,343.095 0.762 C 343.453 0.404,345.047 0.404,345.405 0.762 M359.238 0.762 C 359.505 1.029,359.665 133.043,359.399 133.736 C 359.273 134.064,357.183 134.117,356.867 133.800 C 356.508 133.441,356.583 1.202,356.942 0.805 C 357.304 0.406,358.853 0.377,359.238 0.762 M363.862 0.776 C 364.246 1.124,364.351 133.416,363.967 133.800 C 363.650 134.117,361.560 134.064,361.434 133.736 C 361.168 133.043,361.328 1.029,361.595 0.762 C 361.958 0.399,363.456 0.408,363.862 0.776 M370.738 0.762 C 371.029 1.053,371.148 133.342,370.858 133.800 C 370.761 133.952,370.377 134.002,369.568 133.967 L 368.417 133.917 368.374 67.417 C 368.334 5.042,368.349 0.904,368.614 0.708 C 369.022 0.408,370.419 0.443,370.738 0.762 M99.238 140.762 C 99.565 141.089,99.568 141.262,99.250 141.535 C 98.201 142.438,98.000 142.700,98.000 143.164 C 98.000 143.508,97.873 143.742,97.583 143.932 C 97.148 144.217,96.901 149.000,97.321 149.000 C 97.623 149.000,98.000 149.530,98.000 149.955 C 98.000 150.256,98.238 150.605,98.790 151.111 C 99.715 151.961,99.656 152.380,98.596 152.469 C 97.849 152.532,97.500 152.280,97.500 151.676 C 97.500 151.405,97.335 151.084,97.083 150.864 C 96.854 150.665,96.667 150.435,96.667 150.354 C 96.667 150.272,96.517 150.166,96.333 150.118 C 96.081 150.052,96.000 149.891,96.000 149.451 C 96.000 149.017,95.896 148.803,95.583 148.599 C 94.796 148.083,95.026 144.333,95.845 144.333 C 95.930 144.333,96.000 144.101,96.000 143.817 C 96.000 143.421,96.175 143.135,96.750 142.592 C 97.262 142.108,97.500 141.747,97.500 141.454 C 97.500 140.889,97.908 140.500,98.500 140.500 C 98.762 140.500,99.094 140.618,99.238 140.762 M106.486 141.135 C 107.008 141.621,107.167 141.894,107.167 142.301 C 107.167 142.594,107.236 142.833,107.321 142.833 C 107.878 142.833,108.000 143.356,108.000 145.747 L 108.000 148.138 107.001 149.152 L 106.002 150.167 104.250 150.167 L 102.498 150.167 101.499 149.152 L 100.500 148.138 100.500 145.399 L 100.500 142.660 101.580 141.580 L 102.660 140.500 104.233 140.500 L 105.805 140.500 106.486 141.135 M113.862 140.776 C 114.142 141.029,114.167 141.397,114.167 145.327 C 114.167 150.226,114.168 150.220,112.994 150.136 L 112.250 150.083 112.205 146.375 C 112.164 142.946,112.046 142.086,111.729 142.910 C 111.678 143.044,111.497 143.198,111.326 143.252 C 111.156 143.306,110.969 143.501,110.911 143.685 C 110.833 143.929,110.686 144.006,110.362 143.968 C 109.549 143.874,109.747 143.412,111.238 141.924 C 112.751 140.415,113.231 140.205,113.862 140.776 M119.238 140.762 C 119.382 140.906,119.500 141.212,119.500 141.442 C 119.500 141.715,119.760 142.120,120.250 142.610 C 120.797 143.156,121.000 143.492,121.000 143.846 C 121.000 144.114,121.070 144.333,121.155 144.333 C 121.973 144.333,122.190 147.852,121.417 148.569 C 121.188 148.781,120.999 149.134,120.997 149.352 C 120.994 149.834,120.845 150.072,120.458 150.215 C 120.298 150.274,120.167 150.433,120.167 150.567 C 120.167 150.701,120.017 150.858,119.833 150.917 C 119.588 150.994,119.500 151.169,119.500 151.574 C 119.500 152.277,119.184 152.535,118.404 152.469 C 117.344 152.380,117.285 151.961,118.210 151.111 C 118.762 150.605,119.000 150.256,119.000 149.955 C 119.000 149.530,119.377 149.000,119.679 149.000 C 120.001 149.000,119.867 144.169,119.542 144.049 C 119.144 143.902,119.006 143.666,119.003 143.131 C 119.001 142.851,118.873 142.610,118.667 142.500 C 118.483 142.402,118.333 142.212,118.333 142.077 C 118.333 141.943,118.264 141.833,118.179 141.833 C 117.984 141.833,117.500 141.358,117.500 141.167 C 117.500 140.863,118.045 140.500,118.500 140.500 C 118.762 140.500,119.094 140.618,119.238 140.762 M128.819 141.135 C 129.335 141.616,129.500 141.896,129.500 142.290 C 129.500 142.664,129.594 142.841,129.833 142.917 C 130.149 143.017,130.167 143.169,130.167 145.777 C 130.167 148.391,130.150 148.536,129.833 148.618 C 129.650 148.666,129.500 148.757,129.500 148.820 C 129.500 148.883,129.246 149.212,128.936 149.551 L 128.372 150.167 126.601 150.167 L 124.831 150.167 123.832 149.152 C 122.695 147.997,122.752 148.105,123.095 147.762 C 123.518 147.339,124.443 147.425,124.765 147.917 C 124.915 148.146,125.137 148.333,125.258 148.333 C 125.379 148.333,125.525 148.483,125.583 148.667 C 125.736 149.147,127.426 149.163,127.578 148.685 C 127.633 148.511,127.825 148.331,128.006 148.284 C 128.367 148.189,128.502 146.624,128.167 146.417 C 128.075 146.360,128.000 146.388,128.000 146.478 C 128.000 147.245,124.511 147.539,124.496 146.774 C 124.494 146.669,124.224 146.358,123.896 146.083 C 122.823 145.184,122.833 145.204,122.836 144.030 C 122.838 142.746,122.959 142.169,123.228 142.161 C 123.332 142.158,123.754 141.783,124.166 141.328 L 124.915 140.500 126.527 140.500 L 128.139 140.500 128.819 141.135 M137.314 141.186 C 137.796 141.669,138.000 142.013,138.000 142.347 C 138.000 142.651,138.120 142.886,138.333 143.000 C 138.909 143.308,138.838 148.125,138.250 148.636 C 138.021 148.835,137.833 149.068,137.833 149.154 C 137.833 149.240,137.687 149.357,137.509 149.414 C 137.330 149.471,137.137 149.663,137.081 149.842 C 136.952 150.248,133.000 150.355,133.000 149.952 C 133.000 149.835,132.625 149.406,132.167 149.000 L 131.333 148.262 131.333 145.478 C 131.333 142.641,131.389 142.169,131.726 142.163 C 131.831 142.161,132.142 141.891,132.417 141.563 C 132.692 141.235,133.016 140.861,133.137 140.733 C 133.297 140.564,133.807 140.500,134.992 140.500 L 136.627 140.500 137.314 141.186 M145.405 140.762 C 145.549 140.906,145.667 141.088,145.667 141.167 C 145.667 141.246,145.817 141.358,146.000 141.417 C 146.243 141.494,146.333 141.669,146.333 142.065 C 146.333 142.435,146.465 142.721,146.750 142.969 C 147.160 143.325,147.167 143.372,147.167 145.828 C 147.167 148.308,147.164 148.328,146.750 148.599 C 146.521 148.749,146.333 148.967,146.333 149.083 C 146.333 149.199,146.178 149.335,145.988 149.385 C 145.797 149.435,145.601 149.631,145.552 149.821 C 145.416 150.338,141.583 150.358,141.419 149.842 C 141.363 149.663,141.170 149.471,140.991 149.414 C 140.813 149.357,140.667 149.240,140.667 149.154 C 140.667 149.068,140.479 148.835,140.250 148.636 C 139.664 148.126,139.584 142.367,140.161 142.216 C 140.341 142.169,140.533 141.993,140.586 141.824 C 140.640 141.655,140.830 141.471,141.009 141.414 C 141.187 141.357,141.333 141.246,141.333 141.167 C 141.333 140.673,141.895 140.500,143.500 140.500 C 144.771 140.500,145.202 140.559,145.405 140.762 M153.071 140.762 C 153.340 141.030,153.484 149.246,153.232 149.903 C 153.159 150.093,152.907 150.167,152.333 150.167 C 151.299 150.167,151.333 150.305,151.333 146.153 C 151.333 144.236,151.296 142.667,151.250 142.667 C 151.204 142.667,150.875 142.967,150.519 143.333 C 150.163 143.700,149.722 144.000,149.537 144.000 C 148.911 144.000,148.893 143.109,149.515 142.912 C 149.690 142.856,149.833 142.696,149.833 142.556 C 149.833 142.417,149.983 142.263,150.167 142.215 C 150.350 142.167,150.500 142.070,150.500 142.000 C 150.500 141.182,152.519 140.210,153.071 140.762 M163.086 141.580 C 164.254 142.748,164.593 143.965,163.909 144.535 C 163.767 144.653,163.561 144.846,163.450 144.963 C 162.349 146.136,161.280 147.167,161.165 147.167 C 161.086 147.167,160.976 147.313,160.919 147.491 C 160.863 147.670,160.670 147.863,160.491 147.919 C 160.313 147.976,160.167 148.137,160.167 148.277 C 160.167 148.417,160.017 148.570,159.833 148.618 C 158.973 148.843,159.686 149.000,161.571 149.000 C 163.845 149.000,164.351 149.177,163.994 149.845 C 163.728 150.342,157.106 150.342,156.840 149.845 C 156.668 149.525,156.975 149.000,157.334 149.000 C 157.413 149.000,157.525 148.850,157.583 148.667 C 157.642 148.483,157.804 148.333,157.944 148.333 C 158.083 148.333,158.236 148.186,158.284 148.006 C 158.331 147.825,158.507 147.634,158.676 147.580 C 158.845 147.527,159.028 147.341,159.083 147.167 C 159.139 146.993,159.330 146.804,159.509 146.747 C 159.687 146.691,159.833 146.542,159.833 146.417 C 159.833 146.292,159.979 146.143,160.158 146.086 C 160.337 146.029,160.528 145.841,160.583 145.667 C 160.639 145.493,160.826 145.305,161.000 145.250 C 161.174 145.195,161.361 145.007,161.417 144.833 C 161.472 144.659,161.663 144.471,161.842 144.414 C 162.414 144.232,162.294 142.919,161.649 142.317 C 160.804 141.528,159.865 141.620,158.942 142.583 C 158.160 143.400,157.433 143.575,156.927 143.070 C 156.610 142.753,156.653 142.677,157.827 141.465 L 158.750 140.513 160.378 140.506 L 162.006 140.500 163.086 141.580 M170.099 140.917 C 170.283 141.198,170.524 141.333,170.841 141.333 C 171.959 141.333,172.346 143.660,171.292 144.049 C 170.998 144.157,170.856 145.167,171.134 145.167 C 171.208 145.167,171.545 145.421,171.884 145.731 C 172.671 146.452,172.817 148.667,172.077 148.667 C 171.955 148.667,171.809 148.813,171.753 148.991 C 171.696 149.170,171.507 149.361,171.333 149.417 C 171.159 149.472,170.971 149.663,170.914 149.842 C 170.820 150.138,170.649 150.167,168.993 150.167 L 167.175 150.167 166.139 149.153 C 164.965 148.004,164.951 147.625,166.076 147.531 C 166.632 147.484,166.784 147.563,167.432 148.239 C 168.229 149.071,169.833 149.402,169.833 148.734 C 169.833 148.588,169.983 148.430,170.167 148.382 C 170.452 148.307,170.500 148.154,170.500 147.325 C 170.500 146.502,170.450 146.340,170.167 146.250 C 169.983 146.192,169.833 146.037,169.833 145.905 C 169.833 145.753,169.658 145.667,169.347 145.667 C 168.090 145.667,167.986 145.046,169.082 144.078 C 169.960 143.303,170.008 142.982,169.346 142.321 C 168.658 141.632,168.209 141.694,167.422 142.585 C 166.710 143.391,165.777 143.618,165.340 143.091 C 165.118 142.824,165.254 142.167,165.532 142.167 C 165.629 142.167,166.049 141.792,166.464 141.333 L 167.220 140.500 168.523 140.500 C 169.729 140.500,169.846 140.531,170.099 140.917 M179.238 140.762 C 179.456 140.979,179.500 141.503,179.500 143.845 L 179.500 146.667 179.988 146.667 C 180.453 146.667,181.000 147.027,181.000 147.333 C 181.000 147.639,180.453 148.000,179.988 148.000 C 179.515 148.000,179.500 148.024,179.500 148.820 C 179.500 150.056,179.418 150.167,178.500 150.167 C 177.582 150.167,177.500 150.056,177.500 148.820 L 177.500 148.000 175.429 148.000 C 171.751 148.000,171.788 147.549,175.792 143.507 C 178.999 140.269,178.858 140.382,179.238 140.762 M188.344 140.673 C 189.428 141.252,188.468 141.833,186.428 141.833 L 184.833 141.833 184.833 142.415 C 184.833 142.817,184.730 143.062,184.500 143.205 C 183.898 143.581,184.145 143.667,185.839 143.667 L 187.511 143.667 188.089 144.244 C 188.407 144.562,188.667 144.882,188.667 144.955 C 188.667 145.028,188.835 145.162,189.042 145.252 C 189.381 145.401,189.421 145.549,189.465 146.802 L 189.514 148.188 188.503 149.177 L 187.492 150.167 185.647 150.167 C 183.953 150.167,183.795 150.140,183.716 149.839 C 183.669 149.659,183.493 149.467,183.324 149.414 C 183.155 149.360,182.971 149.170,182.914 148.991 C 182.857 148.813,182.708 148.667,182.583 148.667 C 182.265 148.667,182.098 148.033,182.340 147.742 C 182.740 147.260,184.167 147.586,184.167 148.159 C 184.167 148.234,184.317 148.334,184.500 148.382 C 184.683 148.430,184.833 148.588,184.833 148.734 C 184.833 149.244,186.370 149.088,186.982 148.516 C 187.643 147.899,187.782 145.779,187.175 145.586 C 186.997 145.529,186.804 145.337,186.747 145.158 C 186.590 144.662,184.241 144.670,184.083 145.166 C 183.954 145.574,183.271 145.767,182.685 145.562 C 182.079 145.350,181.925 143.308,182.493 143.004 C 182.771 142.855,182.833 142.658,182.833 141.923 C 182.833 140.548,182.929 140.500,185.690 140.500 C 186.979 140.500,188.166 140.577,188.344 140.673 M196.920 141.580 C 198.134 142.795,198.092 142.718,197.738 143.071 C 197.234 143.576,196.506 143.399,195.724 142.583 C 195.060 141.890,194.943 141.833,194.169 141.833 L 193.333 141.833 193.333 142.413 C 193.333 142.847,193.229 143.061,192.917 143.265 C 192.665 143.430,192.500 143.696,192.500 143.936 C 192.500 144.420,192.757 144.453,193.000 144.000 C 193.269 143.498,196.152 143.493,196.284 143.994 C 196.331 144.175,196.507 144.366,196.676 144.420 C 196.845 144.473,197.029 144.663,197.086 144.842 C 197.143 145.021,197.254 145.167,197.333 145.167 C 197.782 145.167,198.000 145.737,198.000 146.914 L 198.000 148.138 197.001 149.152 L 196.002 150.167 194.232 150.167 L 192.462 150.167 191.897 149.551 C 191.583 149.207,191.333 148.757,191.333 148.533 C 191.333 148.303,191.155 147.991,190.917 147.804 C 190.121 147.177,190.349 142.833,191.179 142.833 C 191.264 142.833,191.333 142.586,191.333 142.283 C 191.333 141.588,191.588 141.333,192.283 141.333 C 192.586 141.333,192.833 141.264,192.833 141.179 C 192.833 140.715,193.394 140.500,194.598 140.500 L 195.840 140.500 196.920 141.580 M206.011 140.673 C 206.430 140.897,206.424 141.440,206.000 141.667 C 205.785 141.782,205.667 142.016,205.667 142.327 C 205.667 142.782,205.306 143.333,205.008 143.333 C 204.933 143.333,204.833 143.483,204.785 143.667 C 204.737 143.850,204.578 144.000,204.432 144.000 C 204.241 144.000,204.167 144.160,204.167 144.571 C 204.167 145.114,203.824 145.667,203.488 145.667 C 203.403 145.667,203.333 146.074,203.333 146.571 C 203.333 147.431,203.066 148.000,202.663 148.000 C 202.582 148.000,202.494 148.469,202.466 149.042 L 202.417 150.083 201.673 150.136 C 200.750 150.202,200.500 149.920,200.500 148.813 C 200.500 148.063,200.791 147.500,201.179 147.500 C 201.264 147.500,201.333 147.052,201.333 146.504 C 201.333 145.625,201.382 145.475,201.750 145.235 C 201.995 145.074,202.167 144.803,202.167 144.578 C 202.167 144.028,202.334 143.667,202.590 143.667 C 202.711 143.667,202.857 143.521,202.914 143.342 C 202.971 143.163,203.159 142.972,203.333 142.917 C 203.507 142.861,203.693 142.678,203.747 142.509 C 203.801 142.341,204.011 142.143,204.214 142.069 C 204.442 141.987,203.574 141.900,201.952 141.843 C 199.362 141.751,199.015 141.668,199.003 141.137 C 198.989 140.527,204.995 140.129,206.011 140.673 M213.071 140.762 C 213.215 140.906,213.333 141.088,213.333 141.167 C 213.333 141.246,213.479 141.357,213.658 141.414 C 213.837 141.471,214.027 141.655,214.080 141.824 C 214.134 141.993,214.325 142.169,214.506 142.216 C 214.773 142.286,214.833 142.447,214.833 143.083 C 214.833 143.720,214.773 143.880,214.506 143.950 C 214.325 143.997,214.134 144.174,214.080 144.343 C 214.027 144.512,213.837 144.696,213.658 144.753 C 213.479 144.809,213.333 144.921,213.333 145.000 C 213.333 145.079,213.479 145.191,213.658 145.247 C 213.837 145.304,214.028 145.493,214.083 145.667 C 214.139 145.841,214.330 146.029,214.509 146.086 C 215.047 146.257,214.979 148.146,214.417 148.636 C 214.188 148.835,214.000 149.068,214.000 149.154 C 214.000 149.240,213.854 149.357,213.675 149.414 C 213.497 149.471,213.304 149.663,213.247 149.842 C 213.084 150.358,209.250 150.338,209.115 149.821 C 209.065 149.631,208.869 149.435,208.679 149.385 C 208.489 149.335,208.333 149.199,208.333 149.083 C 208.333 148.967,208.146 148.749,207.917 148.599 C 207.549 148.358,207.500 148.208,207.500 147.333 C 207.500 146.459,207.549 146.309,207.917 146.068 C 208.146 145.918,208.333 145.696,208.333 145.575 C 208.333 145.455,208.483 145.308,208.667 145.250 C 208.850 145.192,209.000 145.079,209.000 145.000 C 209.000 144.921,208.850 144.808,208.667 144.750 C 208.483 144.692,208.333 144.534,208.333 144.400 C 208.333 144.266,208.202 144.108,208.042 144.049 C 207.636 143.899,207.505 143.664,207.505 143.083 C 207.505 142.503,207.636 142.268,208.042 142.118 C 208.202 142.059,208.333 141.901,208.333 141.766 C 208.333 141.632,208.483 141.475,208.667 141.417 C 208.850 141.358,209.000 141.246,209.000 141.167 C 209.000 140.673,209.562 140.500,211.167 140.500 C 212.438 140.500,212.869 140.559,213.071 140.762 M221.535 140.762 C 221.653 140.905,221.919 141.181,222.125 141.375 C 222.331 141.568,222.500 141.925,222.500 142.167 C 222.500 142.428,222.669 142.753,222.917 142.969 C 223.326 143.325,223.333 143.374,223.333 145.796 L 223.333 148.262 222.500 149.000 C 222.042 149.406,221.667 149.835,221.667 149.952 C 221.667 150.355,217.715 150.248,217.586 149.842 C 217.529 149.663,217.337 149.471,217.158 149.414 C 216.979 149.357,216.833 149.244,216.833 149.162 C 216.833 149.080,216.628 148.823,216.376 148.590 C 216.005 148.246,215.954 148.111,216.102 147.875 C 216.448 147.321,217.730 147.410,217.917 148.000 C 217.975 148.184,218.127 148.333,218.255 148.333 C 218.383 148.333,218.569 148.483,218.667 148.667 C 219.250 149.756,221.333 148.662,221.333 147.266 C 221.333 146.437,221.199 146.310,220.872 146.833 C 220.692 147.122,220.483 147.167,219.315 147.167 L 217.965 147.167 216.983 146.162 L 216.000 145.158 216.000 143.730 C 216.000 142.442,216.033 142.294,216.333 142.215 C 216.517 142.167,216.667 142.070,216.667 142.000 C 216.667 141.930,216.975 141.564,217.353 141.186 L 218.039 140.500 219.680 140.500 C 220.968 140.500,221.366 140.556,221.535 140.762 M230.353 141.147 C 230.828 141.622,231.000 141.932,231.000 142.314 C 231.000 142.600,231.070 142.833,231.155 142.833 C 231.712 142.833,231.833 143.356,231.833 145.747 L 231.833 148.138 230.834 149.152 L 229.836 150.167 228.065 150.167 L 226.295 150.167 225.731 149.551 C 225.421 149.212,225.167 148.883,225.167 148.820 C 225.167 148.757,225.017 148.666,224.833 148.618 C 224.515 148.535,224.500 148.391,224.500 145.498 L 224.500 142.465 225.504 141.483 L 226.508 140.500 228.107 140.500 L 229.706 140.500 230.353 141.147 M239.162 141.483 C 240.459 142.751,240.530 143.353,239.500 144.353 L 238.833 145.000 239.500 145.647 C 240.307 146.431,240.532 148.436,239.833 148.618 C 239.650 148.666,239.500 148.757,239.500 148.820 C 239.500 148.883,239.246 149.212,238.936 149.551 L 238.372 150.167 236.601 150.167 L 234.831 150.167 233.832 149.152 C 232.479 147.778,232.414 146.927,233.570 145.755 L 234.307 145.007 233.837 144.504 C 233.578 144.227,233.289 144.000,233.194 144.000 C 232.756 144.000,232.777 142.173,233.216 142.161 C 233.326 142.158,233.754 141.783,234.166 141.328 L 234.915 140.500 236.537 140.500 L 238.158 140.500 239.162 141.483 M245.405 140.762 C 245.732 141.089,245.734 141.262,245.417 141.535 C 244.368 142.438,244.167 142.700,244.167 143.164 C 244.167 143.508,244.040 143.742,243.750 143.932 C 243.315 144.217,243.067 149.000,243.488 149.000 C 243.786 149.000,244.167 149.528,244.167 149.942 C 244.167 150.215,244.426 150.619,244.916 151.109 C 245.828 152.021,245.752 152.500,244.694 152.500 C 243.955 152.500,243.667 152.264,243.667 151.660 C 243.667 151.348,243.451 151.032,242.921 150.569 C 242.340 150.060,242.175 149.802,242.171 149.394 C 242.168 149.024,242.045 148.792,241.750 148.599 C 240.963 148.083,241.193 144.333,242.012 144.333 C 242.097 144.333,242.167 144.079,242.167 143.769 C 242.167 143.351,242.275 143.134,242.583 142.932 C 242.813 142.782,243.000 142.557,243.000 142.432 C 243.000 142.308,243.150 142.166,243.333 142.118 C 243.574 142.055,243.667 141.891,243.667 141.528 C 243.667 140.895,244.051 140.500,244.667 140.500 C 244.929 140.500,245.261 140.618,245.405 140.762 M251.571 140.762 C 251.715 140.906,251.833 141.093,251.833 141.179 C 251.833 141.264,252.081 141.333,252.383 141.333 C 253.501 141.333,253.851 143.658,252.792 144.049 C 252.278 144.238,252.473 144.820,253.333 145.667 C 254.381 146.698,254.541 148.667,253.577 148.667 C 253.443 148.667,253.333 148.727,253.333 148.801 C 253.333 148.875,253.079 149.212,252.769 149.551 L 252.205 150.167 250.435 150.167 L 248.664 150.167 247.666 149.152 C 246.528 147.997,246.585 148.105,246.929 147.762 C 247.351 147.339,248.277 147.425,248.599 147.917 C 248.749 148.146,248.970 148.333,249.091 148.333 C 249.212 148.333,249.358 148.483,249.417 148.667 C 249.569 149.147,251.259 149.163,251.411 148.685 C 251.466 148.511,251.659 148.331,251.839 148.284 C 252.781 148.037,251.844 145.667,250.805 145.667 C 250.332 145.667,249.833 145.361,249.833 145.072 C 249.833 144.791,250.895 143.667,251.161 143.667 C 251.524 143.667,251.320 142.795,250.846 142.321 C 250.176 141.651,249.784 141.705,248.942 142.583 C 248.161 143.399,247.433 143.576,246.929 143.071 C 246.575 142.718,246.532 142.795,247.747 141.580 L 248.827 140.500 250.068 140.500 C 250.974 140.500,251.380 140.571,251.571 140.762 M261.467 141.495 L 262.500 142.490 262.500 143.465 C 262.500 144.261,262.431 144.505,262.125 144.792 C 261.919 144.985,261.665 145.243,261.560 145.363 C 261.456 145.484,261.101 145.808,260.772 146.083 C 260.443 146.358,260.172 146.672,260.170 146.780 C 260.168 146.889,260.021 147.024,259.842 147.081 C 259.663 147.137,259.471 147.330,259.414 147.509 C 259.357 147.687,259.252 147.833,259.180 147.833 C 259.040 147.833,258.000 148.785,258.000 148.913 C 258.000 148.955,258.948 149.011,260.107 149.037 C 262.319 149.086,262.704 149.227,262.448 149.894 C 262.267 150.368,255.398 150.300,255.247 149.823 C 255.136 149.474,256.090 148.333,256.492 148.333 C 256.588 148.333,256.667 148.268,256.667 148.188 C 256.667 147.992,259.483 145.167,259.679 145.167 C 259.764 145.167,259.833 145.057,259.833 144.923 C 259.833 144.788,259.983 144.598,260.167 144.500 C 260.694 144.218,260.637 142.819,260.076 142.258 C 259.331 141.513,258.251 141.646,257.422 142.585 C 256.710 143.391,255.777 143.618,255.340 143.091 C 255.118 142.824,255.254 142.167,255.532 142.167 C 255.629 142.167,256.049 141.792,256.464 141.333 L 257.220 140.500 258.828 140.500 L 260.435 140.500 261.467 141.495 M269.238 140.762 C 269.382 140.906,269.500 141.088,269.500 141.167 C 269.500 141.246,269.650 141.358,269.833 141.417 C 270.077 141.494,270.167 141.669,270.167 142.065 C 270.167 142.435,270.299 142.721,270.583 142.969 C 270.993 143.325,271.000 143.372,271.000 145.828 C 271.000 148.308,270.997 148.328,270.583 148.599 C 270.354 148.749,270.167 148.970,270.167 149.091 C 270.167 149.212,270.021 149.357,269.842 149.414 C 269.663 149.471,269.471 149.663,269.414 149.842 C 269.256 150.340,265.411 150.340,265.253 149.842 C 265.196 149.663,265.003 149.471,264.825 149.414 C 264.646 149.357,264.500 149.212,264.500 149.091 C 264.500 148.970,264.313 148.749,264.083 148.599 L 263.667 148.326 263.667 145.325 L 263.667 142.325 264.083 142.167 C 264.313 142.080,264.500 141.899,264.500 141.765 C 264.500 141.632,264.650 141.475,264.833 141.417 C 265.017 141.358,265.167 141.246,265.167 141.167 C 265.167 140.673,265.728 140.500,267.333 140.500 C 268.605 140.500,269.035 140.559,269.238 140.762 M278.202 141.333 C 278.618 141.792,279.035 142.167,279.128 142.167 C 279.382 142.167,279.500 142.598,279.500 143.526 L 279.500 144.359 277.154 146.679 L 274.808 149.000 276.967 149.000 C 279.281 149.000,279.642 149.122,279.418 149.829 C 279.256 150.340,272.293 150.284,272.194 149.770 C 272.159 149.589,272.317 149.287,272.567 149.055 C 272.805 148.834,273.000 148.581,273.000 148.493 C 273.000 148.405,273.077 148.333,273.172 148.333 C 273.267 148.333,273.604 148.073,273.922 147.756 C 274.240 147.438,274.500 147.100,274.500 147.006 C 274.500 146.911,274.569 146.833,274.652 146.833 C 275.192 146.833,277.500 144.109,277.500 143.471 C 277.500 142.496,276.798 141.833,275.764 141.833 C 274.995 141.833,274.878 141.910,273.868 143.084 C 273.611 143.383,272.648 143.414,272.367 143.133 C 272.014 142.781,272.145 142.519,273.181 141.499 L 274.196 140.500 275.821 140.500 L 277.446 140.500 278.202 141.333 M282.178 140.673 C 282.404 140.793,282.500 141.022,282.500 141.438 C 282.500 141.888,282.579 142.052,282.828 142.117 C 283.008 142.164,283.201 142.345,283.256 142.518 C 283.311 142.691,283.420 142.833,283.499 142.833 C 283.805 142.833,284.167 143.379,284.167 143.839 C 284.167 144.151,284.285 144.385,284.500 144.500 C 284.802 144.662,284.833 144.849,284.833 146.504 C 284.833 148.150,284.800 148.351,284.500 148.539 C 284.296 148.666,284.167 148.927,284.167 149.213 C 284.167 149.553,283.939 149.903,283.333 150.500 C 282.875 150.951,282.500 151.467,282.500 151.647 C 282.500 152.336,282.321 152.500,281.571 152.500 C 280.442 152.500,280.314 152.059,281.189 151.183 C 281.565 150.807,281.939 150.500,282.020 150.500 C 282.100 150.500,282.167 150.238,282.167 149.918 C 282.167 149.517,282.270 149.272,282.500 149.128 C 282.808 148.936,282.833 148.739,282.833 146.549 C 282.833 144.349,282.809 144.166,282.500 144.000 C 282.278 143.881,282.167 143.651,282.167 143.311 C 282.167 142.910,281.981 142.629,281.296 141.996 C 280.159 140.945,280.823 139.948,282.178 140.673 M291.535 140.762 C 291.653 140.905,291.919 141.181,292.125 141.375 C 292.331 141.568,292.500 141.925,292.500 142.167 C 292.500 142.428,292.669 142.753,292.917 142.969 C 293.326 143.325,293.333 143.374,293.333 145.796 L 293.333 148.262 292.500 149.000 C 292.042 149.406,291.667 149.835,291.667 149.952 C 291.667 150.355,287.715 150.248,287.586 149.842 C 287.529 149.663,287.341 149.472,287.167 149.417 C 286.993 149.361,286.804 149.170,286.747 148.991 C 286.691 148.813,286.545 148.667,286.423 148.667 C 285.843 148.667,285.755 142.366,286.333 142.215 C 286.517 142.167,286.667 142.070,286.667 142.000 C 286.667 141.930,286.975 141.564,287.353 141.186 L 288.039 140.500 289.680 140.500 C 290.968 140.500,291.366 140.556,291.535 140.762 M300.353 141.147 C 300.828 141.622,301.000 141.932,301.000 142.314 C 301.000 142.600,301.070 142.833,301.155 142.833 C 301.712 142.833,301.833 143.356,301.833 145.747 L 301.833 148.138 300.834 149.152 L 299.836 150.167 298.065 150.167 L 296.295 150.167 295.731 149.551 C 295.421 149.212,295.167 148.883,295.167 148.820 C 295.167 148.757,295.017 148.666,294.833 148.618 C 294.515 148.535,294.500 148.391,294.500 145.498 L 294.500 142.465 295.504 141.483 L 296.508 140.500 298.107 140.500 L 299.706 140.500 300.353 141.147 M308.819 141.135 C 309.335 141.616,309.500 141.896,309.500 142.290 C 309.500 142.664,309.594 142.841,309.833 142.917 C 310.346 143.079,310.351 148.483,309.839 148.617 C 309.659 148.664,309.467 148.841,309.414 149.009 C 309.360 149.178,309.178 149.360,309.009 149.414 C 308.841 149.467,308.664 149.659,308.617 149.839 C 308.538 150.140,308.381 150.167,306.676 150.167 L 304.821 150.167 303.827 149.160 L 302.833 148.154 302.836 145.535 C 302.838 142.804,302.912 142.170,303.228 142.161 C 303.332 142.158,303.754 141.783,304.166 141.328 L 304.915 140.500 306.527 140.500 L 308.139 140.500 308.819 141.135 M316.054 140.708 C 316.313 140.897,316.335 141.339,316.294 145.500 L 316.250 150.083 315.417 150.083 L 314.583 150.083 314.538 146.422 C 314.497 143.032,314.363 141.952,314.091 142.808 C 314.032 142.996,313.841 143.195,313.667 143.250 C 313.493 143.305,313.303 143.501,313.244 143.685 C 313.167 143.930,313.019 144.006,312.694 143.968 C 312.078 143.897,312.010 143.308,312.575 142.937 C 312.809 142.784,313.000 142.548,313.000 142.413 C 313.000 142.277,313.094 142.164,313.208 142.161 C 313.323 142.158,313.754 141.783,314.166 141.328 C 314.949 140.462,315.480 140.288,316.054 140.708 M326.011 140.673 C 327.094 141.252,326.135 141.833,324.094 141.833 L 322.500 141.833 322.500 142.415 C 322.500 142.817,322.397 143.062,322.167 143.205 C 321.565 143.581,321.812 143.667,323.496 143.667 L 325.158 143.667 326.162 144.649 L 327.167 145.632 327.167 146.947 L 327.167 148.262 326.333 149.000 C 325.875 149.406,325.500 149.835,325.500 149.952 C 325.500 150.355,321.548 150.248,321.419 149.842 C 321.363 149.663,321.170 149.471,320.991 149.414 C 320.813 149.357,320.667 149.244,320.667 149.162 C 320.667 149.080,320.461 148.823,320.209 148.590 C 319.630 148.052,319.837 147.607,320.703 147.533 C 321.208 147.489,321.395 147.588,322.048 148.241 C 323.017 149.210,323.892 149.300,324.679 148.513 C 325.304 147.889,325.428 145.772,324.851 145.589 C 324.678 145.534,324.497 145.341,324.450 145.161 C 324.320 144.662,321.909 144.666,321.750 145.166 C 321.621 145.574,320.938 145.767,320.352 145.562 C 319.745 145.350,319.592 143.308,320.159 143.004 C 320.435 142.857,320.500 142.657,320.500 141.966 C 320.500 140.569,320.635 140.500,323.370 140.500 C 324.650 140.500,325.833 140.577,326.011 140.673 M334.369 141.333 C 334.785 141.792,335.201 142.167,335.293 142.167 C 335.580 142.167,335.650 142.826,335.390 143.086 C 334.889 143.587,334.126 143.394,333.411 142.585 C 332.786 141.877,332.702 141.836,331.875 141.835 L 331.000 141.833 331.000 142.413 C 331.000 142.847,330.896 143.061,330.583 143.265 C 330.332 143.430,330.167 143.696,330.167 143.936 C 330.167 144.420,330.424 144.453,330.667 144.000 C 331.187 143.028,334.833 143.898,334.833 144.994 C 334.833 145.089,334.903 145.167,334.988 145.167 C 335.450 145.167,335.667 145.727,335.667 146.922 L 335.667 148.154 334.673 149.160 L 333.679 150.167 331.824 150.167 C 330.109 150.167,329.962 150.141,329.882 149.833 C 329.834 149.650,329.734 149.500,329.659 149.500 C 329.370 149.500,329.000 148.955,329.000 148.528 C 329.000 148.261,328.866 147.996,328.667 147.872 C 328.359 147.680,328.333 147.483,328.333 145.343 C 328.333 143.169,328.354 143.016,328.667 142.917 C 328.898 142.843,329.000 142.664,329.000 142.334 C 329.000 141.744,329.389 141.333,329.946 141.333 C 330.198 141.333,330.501 141.165,330.696 140.917 C 330.996 140.536,331.136 140.500,332.319 140.500 L 333.613 140.500 334.369 141.333 M102.958 142.336 L 102.500 142.795 102.500 145.496 C 102.500 148.043,102.519 148.203,102.828 148.284 C 103.008 148.331,103.201 148.511,103.256 148.685 C 103.338 148.942,103.519 149.000,104.250 149.000 C 104.981 149.000,105.162 148.942,105.244 148.685 C 105.299 148.511,105.492 148.331,105.672 148.284 C 105.981 148.203,106.000 148.043,106.000 145.499 L 106.000 142.800 105.482 142.317 C 104.769 141.650,103.634 141.659,102.958 142.336 M125.292 142.331 C 124.814 142.832,124.575 145.167,125.001 145.167 C 125.093 145.167,125.332 145.354,125.531 145.583 C 126.549 146.754,128.333 145.633,128.333 143.822 C 128.333 141.984,126.485 141.077,125.292 142.331 M133.792 142.331 L 133.333 142.812 133.333 145.423 L 133.333 148.033 133.851 148.516 C 134.506 149.128,135.708 149.212,136.000 148.667 C 136.098 148.483,136.288 148.333,136.423 148.333 C 136.929 148.333,136.765 142.780,136.242 142.258 C 135.614 141.629,134.426 141.665,133.792 142.331 M142.422 142.151 C 142.366 142.326,142.211 142.511,142.077 142.563 C 141.877 142.639,141.833 143.139,141.833 145.341 L 141.833 148.026 142.321 148.513 C 142.703 148.895,142.957 149.000,143.500 149.000 C 144.043 149.000,144.297 148.895,144.679 148.513 L 145.167 148.026 145.167 145.352 C 145.167 142.849,145.145 142.667,144.833 142.500 C 144.650 142.402,144.500 142.212,144.500 142.077 C 144.500 141.666,142.554 141.735,142.422 142.151 M210.167 142.077 C 210.167 142.212,210.017 142.402,209.833 142.500 C 209.620 142.614,209.500 142.849,209.500 143.153 C 209.500 143.488,209.598 143.654,209.833 143.715 C 210.017 143.763,210.167 143.922,210.167 144.068 C 210.167 144.510,212.108 144.447,212.250 144.000 C 212.308 143.817,212.463 143.667,212.595 143.667 C 212.919 143.667,212.914 142.687,212.590 142.563 C 212.456 142.511,212.301 142.326,212.245 142.151 C 212.113 141.735,210.167 141.666,210.167 142.077 M218.375 142.273 C 217.766 142.932,217.828 144.781,218.484 145.482 C 219.086 146.127,220.399 146.248,220.581 145.675 C 220.637 145.497,220.830 145.304,221.009 145.247 C 221.594 145.061,221.477 142.952,220.846 142.321 C 220.194 141.669,218.957 141.645,218.375 142.273 M226.792 142.336 L 226.333 142.795 226.333 145.496 C 226.333 148.043,226.352 148.203,226.661 148.284 C 226.841 148.331,227.034 148.511,227.089 148.685 C 227.171 148.942,227.353 149.000,228.083 149.000 C 228.814 149.000,228.996 148.942,229.078 148.685 C 229.133 148.511,229.325 148.331,229.506 148.284 C 229.814 148.203,229.833 148.043,229.833 145.503 L 229.833 142.808 229.346 142.321 C 228.670 141.645,227.474 141.652,226.792 142.336 M235.292 142.331 C 234.709 142.943,234.715 143.240,235.321 143.846 C 236.218 144.744,238.333 144.209,238.333 143.083 C 238.333 141.955,236.161 141.417,235.292 142.331 M266.255 142.151 C 266.199 142.326,266.044 142.511,265.910 142.563 C 265.711 142.639,265.667 143.139,265.667 145.341 L 265.667 148.026 266.154 148.513 C 266.536 148.895,266.790 149.000,267.333 149.000 C 267.876 149.000,268.131 148.895,268.513 148.513 L 269.000 148.026 269.000 145.352 C 269.000 142.849,268.979 142.667,268.667 142.500 C 268.483 142.402,268.333 142.212,268.333 142.077 C 268.333 141.666,266.387 141.735,266.255 142.151 M288.375 142.273 C 287.879 142.809,287.779 148.333,288.266 148.333 C 288.412 148.333,288.570 148.483,288.618 148.667 C 288.766 149.230,290.153 149.135,290.816 148.516 L 291.333 148.033 291.333 145.420 L 291.333 142.808 290.846 142.321 C 290.194 141.669,288.957 141.645,288.375 142.273 M296.792 142.336 L 296.333 142.795 296.333 145.496 C 296.333 148.043,296.352 148.203,296.661 148.284 C 296.841 148.331,297.034 148.511,297.089 148.685 C 297.171 148.942,297.353 149.000,298.083 149.000 C 298.814 149.000,298.996 148.942,299.078 148.685 C 299.133 148.511,299.325 148.331,299.506 148.284 C 299.814 148.203,299.833 148.043,299.833 145.503 L 299.833 142.808 299.346 142.321 C 298.670 141.645,297.474 141.652,296.792 142.336 M305.292 142.331 L 304.833 142.812 304.833 145.505 C 304.833 148.043,304.852 148.203,305.161 148.284 C 305.341 148.331,305.534 148.511,305.589 148.685 C 305.671 148.942,305.853 149.000,306.583 149.000 C 307.314 149.000,307.496 148.942,307.578 148.685 C 307.633 148.511,307.825 148.331,308.006 148.284 C 308.314 148.203,308.333 148.043,308.333 145.499 L 308.333 142.800 307.816 142.317 C 307.082 141.631,305.952 141.638,305.292 142.331 M176.024 145.435 L 174.798 146.667 176.149 146.667 L 177.500 146.667 177.500 145.417 C 177.500 143.908,177.544 143.907,176.024 145.435 M193.333 145.001 C 193.333 145.093,193.146 145.332,192.917 145.531 C 192.348 146.025,192.280 148.140,192.828 148.284 C 193.008 148.331,193.201 148.511,193.256 148.685 C 193.338 148.942,193.519 149.000,194.250 149.000 C 194.981 149.000,195.162 148.942,195.244 148.685 C 195.299 148.511,195.492 148.331,195.672 148.284 C 196.220 148.140,196.152 146.025,195.583 145.531 C 195.354 145.332,195.167 145.093,195.167 145.001 C 195.167 144.909,194.754 144.833,194.250 144.833 C 193.746 144.833,193.333 144.909,193.333 145.001 M330.708 145.395 C 330.024 146.099,329.875 148.122,330.494 148.284 C 330.675 148.331,330.867 148.511,330.922 148.685 C 331.004 148.942,331.186 149.000,331.917 149.000 C 332.647 149.000,332.829 148.942,332.911 148.685 C 332.966 148.511,333.159 148.331,333.339 148.284 C 333.832 148.155,333.835 145.742,333.342 145.586 C 333.163 145.529,332.971 145.337,332.914 145.158 C 332.726 144.565,331.373 144.710,330.708 145.395 M209.958 146.164 C 208.923 147.251,209.669 149.000,211.167 149.000 C 211.710 149.000,211.964 148.895,212.346 148.513 C 213.434 147.425,212.682 145.658,211.138 145.675 C 210.566 145.681,210.322 145.782,209.958 146.164 M235.292 146.164 C 234.701 146.784,234.618 148.142,235.161 148.284 C 235.341 148.331,235.534 148.511,235.589 148.685 C 235.671 148.942,235.853 149.000,236.583 149.000 C 237.314 149.000,237.496 148.942,237.578 148.685 C 237.633 148.511,237.825 148.331,238.006 148.284 C 238.273 148.214,238.333 148.053,238.333 147.416 C 238.333 145.812,236.389 145.012,235.292 146.164 " stroke="none" fill="#ffffff" fill-rule="evenodd"></path>
      <path id="path1" d="M27.118 0.937 C 26.839 1.217,26.984 133.625,27.264 133.732 C 27.638 133.876,28.711 133.853,28.959 133.696 C 29.125 133.590,29.159 120.189,29.125 67.240 L 29.083 0.917 28.160 0.868 C 27.652 0.841,27.183 0.872,27.118 0.937 M31.778 0.944 C 31.503 1.219,31.655 133.627,31.930 133.732 C 32.379 133.904,33.423 133.844,33.633 133.633 C 33.845 133.421,33.944 1.648,33.732 1.097 C 33.628 0.827,32.021 0.701,31.778 0.944 M38.604 1.089 C 38.358 1.731,38.490 133.451,38.737 133.656 C 38.870 133.766,39.328 133.830,39.779 133.801 L 40.583 133.750 40.583 67.333 L 40.583 0.917 39.646 0.867 C 38.903 0.828,38.687 0.874,38.604 1.089 M47.912 1.039 C 47.867 1.155,47.851 31.063,47.874 67.500 L 47.917 133.750 52.333 133.750 L 56.750 133.750 56.750 67.333 L 56.750 0.917 52.371 0.872 C 48.957 0.838,47.974 0.874,47.912 1.039 M66.414 1.033 C 66.368 1.152,66.351 31.063,66.374 67.500 L 66.417 133.750 67.333 133.750 L 68.250 133.750 68.250 67.333 L 68.250 0.917 67.373 0.866 C 66.768 0.831,66.471 0.883,66.414 1.033 M70.946 0.943 C 70.670 1.219,70.821 133.626,71.097 133.732 C 71.493 133.884,88.717 133.849,88.959 133.696 C 89.125 133.590,89.159 120.189,89.125 67.240 L 89.083 0.917 80.071 0.874 C 75.114 0.850,71.008 0.881,70.946 0.943 M98.604 1.089 C 98.358 1.731,98.490 133.451,98.737 133.656 C 98.870 133.766,99.328 133.830,99.779 133.801 L 100.583 133.750 100.583 67.333 L 100.583 0.917 99.646 0.867 C 98.903 0.828,98.687 0.874,98.604 1.089 M103.285 0.937 C 103.005 1.217,103.150 133.625,103.430 133.732 C 103.805 133.876,104.878 133.853,105.125 133.696 C 105.292 133.590,105.325 120.189,105.292 67.240 L 105.250 0.917 104.327 0.868 C 103.819 0.841,103.350 0.872,103.285 0.937 M110.245 1.038 C 110.201 1.155,110.184 31.063,110.207 67.500 L 110.250 133.750 113.500 133.750 L 116.750 133.750 116.750 67.333 L 116.750 0.917 113.538 0.871 C 111.059 0.836,110.307 0.874,110.245 1.038 M124.077 1.042 C 124.034 1.156,124.017 31.063,124.041 67.500 L 124.083 133.750 124.888 133.801 C 125.338 133.830,125.797 133.766,125.930 133.656 C 126.254 133.386,126.291 1.358,125.967 1.033 C 125.698 0.765,124.180 0.771,124.077 1.042 M135.611 0.944 C 135.336 1.219,135.488 133.627,135.764 133.732 C 136.265 133.925,139.590 133.843,139.800 133.633 C 140.012 133.421,140.110 1.648,139.899 1.097 C 139.794 0.823,135.872 0.684,135.611 0.944 M142.541 1.026 C 142.210 1.357,142.239 133.381,142.570 133.656 C 142.703 133.766,143.162 133.830,143.612 133.801 L 144.417 133.750 144.417 67.333 L 144.417 0.917 143.582 0.868 C 143.077 0.838,142.666 0.901,142.541 1.026 M147.111 0.944 C 146.836 1.219,146.988 133.627,147.264 133.732 C 147.793 133.935,155.755 133.845,155.967 133.633 C 156.258 133.342,156.258 1.325,155.967 1.033 C 155.750 0.817,147.324 0.732,147.111 0.944 M158.602 1.094 C 158.390 1.647,158.487 133.420,158.700 133.633 C 158.930 133.863,164.772 133.920,165.125 133.696 C 165.292 133.590,165.325 120.189,165.292 67.240 L 165.250 0.917 161.977 0.872 C 159.103 0.832,158.693 0.859,158.602 1.094 M170.246 1.037 C 170.201 1.154,170.184 31.063,170.207 67.500 L 170.250 133.750 172.333 133.750 L 174.417 133.750 174.417 67.333 L 174.417 0.917 172.372 0.870 C 170.828 0.834,170.307 0.875,170.246 1.037 M181.778 0.944 C 181.503 1.219,181.655 133.627,181.930 133.732 C 182.379 133.904,183.423 133.844,183.633 133.633 C 183.845 133.421,183.944 1.648,183.732 1.097 C 183.628 0.827,182.021 0.701,181.778 0.944 M186.369 1.031 C 186.075 1.325,186.073 133.339,186.367 133.633 C 186.597 133.864,194.769 133.922,195.125 133.696 C 195.292 133.590,195.325 120.189,195.292 67.240 L 195.250 0.917 190.911 0.872 C 187.676 0.839,186.520 0.880,186.369 1.031 M209.444 0.944 C 209.170 1.219,209.322 133.627,209.597 133.732 C 210.117 133.932,215.756 133.844,215.967 133.633 C 216.258 133.342,216.258 1.325,215.967 1.033 C 215.751 0.817,209.655 0.734,209.444 0.944 M220.952 0.937 C 220.672 1.217,220.817 133.625,221.097 133.732 C 221.471 133.876,222.545 133.853,222.792 133.696 C 222.958 133.590,222.992 120.189,222.959 67.240 L 222.917 0.917 221.993 0.868 C 221.486 0.841,221.017 0.872,220.952 0.937 M225.611 0.944 C 225.336 1.219,225.488 133.627,225.764 133.732 C 226.284 133.932,231.922 133.844,232.133 133.633 C 232.425 133.342,232.425 1.325,232.133 1.033 C 231.917 0.817,225.821 0.734,225.611 0.944 M239.444 0.944 C 239.170 1.219,239.322 133.627,239.597 133.732 C 240.117 133.932,245.756 133.844,245.967 133.633 C 246.258 133.342,246.258 1.325,245.967 1.033 C 245.751 0.817,239.655 0.734,239.444 0.944 M248.703 1.030 C 248.409 1.324,248.405 133.339,248.700 133.633 C 248.930 133.863,254.772 133.920,255.125 133.696 C 255.292 133.590,255.325 120.189,255.292 67.240 L 255.250 0.917 252.078 0.872 C 249.752 0.838,248.853 0.881,248.703 1.030 M257.912 1.039 C 257.867 1.155,257.851 31.063,257.874 67.500 L 257.917 133.750 262.333 133.750 L 266.750 133.750 266.750 67.333 L 266.750 0.917 262.371 0.872 C 258.957 0.838,257.974 0.874,257.912 1.039 M269.452 0.937 C 269.172 1.217,269.317 133.625,269.597 133.732 C 269.971 133.876,271.045 133.853,271.292 133.696 C 271.458 133.590,271.492 120.189,271.459 67.240 L 271.417 0.917 270.493 0.868 C 269.986 0.841,269.517 0.872,269.452 0.937 M274.078 1.039 C 274.034 1.155,274.017 31.063,274.041 67.500 L 274.083 133.750 278.167 133.797 C 280.412 133.823,282.419 133.803,282.625 133.752 L 283.000 133.660 282.959 67.288 L 282.917 0.917 278.538 0.872 C 275.124 0.838,274.141 0.874,274.078 1.039 M290.246 1.037 C 290.201 1.154,290.184 31.063,290.207 67.500 L 290.250 133.750 292.333 133.750 L 294.417 133.750 294.417 67.333 L 294.417 0.917 292.372 0.870 C 290.828 0.834,290.307 0.875,290.246 1.037 M301.780 0.943 C 301.504 1.219,301.654 133.626,301.930 133.732 C 302.325 133.884,314.884 133.849,315.125 133.696 C 315.292 133.590,315.325 120.189,315.292 67.240 L 315.250 0.917 308.571 0.873 C 304.898 0.849,301.842 0.880,301.780 0.943 M324.771 1.089 C 324.524 1.731,324.656 133.451,324.904 133.656 C 325.036 133.766,325.495 133.830,325.945 133.801 L 326.750 133.750 326.750 67.333 L 326.750 0.917 325.812 0.867 C 325.070 0.828,324.853 0.874,324.771 1.089 M329.444 0.944 C 329.170 1.219,329.322 133.627,329.597 133.732 C 330.099 133.925,333.423 133.843,333.633 133.633 C 333.845 133.421,333.944 1.648,333.732 1.097 C 333.627 0.823,329.705 0.684,329.444 0.944 M343.285 0.937 C 343.005 1.217,343.150 133.625,343.430 133.732 C 343.805 133.876,344.878 133.853,345.125 133.696 C 345.292 133.590,345.325 120.189,345.292 67.240 L 345.250 0.917 344.327 0.868 C 343.819 0.841,343.350 0.872,343.285 0.937 M357.118 0.937 C 356.839 1.217,356.984 133.625,357.264 133.732 C 357.638 133.876,358.711 133.853,358.959 133.696 C 359.125 133.590,359.159 120.189,359.125 67.240 L 359.083 0.917 358.160 0.868 C 357.652 0.841,357.183 0.872,357.118 0.937 M361.785 0.937 C 361.505 1.217,361.650 133.625,361.930 133.732 C 362.305 133.876,363.378 133.853,363.625 133.696 C 363.792 133.590,363.825 120.189,363.792 67.240 L 363.750 0.917 362.827 0.868 C 362.319 0.841,361.850 0.872,361.785 0.937 M368.707 1.026 C 368.376 1.357,368.406 133.381,368.737 133.656 C 368.870 133.766,369.328 133.830,369.779 133.801 L 370.583 133.750 370.583 67.333 L 370.583 0.917 369.749 0.868 C 369.244 0.838,368.833 0.901,368.707 1.026 M97.944 140.944 C 97.778 141.111,97.811 142.167,97.982 142.167 C 98.255 142.167,99.194 141.179,99.086 141.005 C 98.969 140.815,98.119 140.770,97.944 140.944 M101.792 141.798 L 100.833 142.756 100.833 145.393 L 100.833 148.031 101.809 149.015 L 102.784 150.000 104.267 149.997 L 105.750 149.993 106.708 149.021 L 107.667 148.049 107.667 145.752 C 107.667 143.516,107.656 143.445,107.250 143.069 C 107.021 142.856,106.833 142.506,106.833 142.291 C 106.833 141.362,105.891 140.833,104.242 140.837 L 102.750 140.841 101.792 141.798 M112.179 141.419 L 111.609 142.011 111.971 142.265 C 112.324 142.512,112.333 142.613,112.333 146.059 C 112.333 149.788,112.374 150.000,113.096 150.000 C 113.808 150.000,113.841 149.769,113.795 145.229 L 113.750 140.917 113.250 140.872 C 112.863 140.837,112.621 140.960,112.179 141.419 M117.921 140.992 C 117.800 141.189,118.696 142.167,118.997 142.167 C 119.114 142.167,119.167 141.928,119.135 141.542 C 119.082 140.900,118.219 140.510,117.921 140.992 M124.042 141.825 L 123.167 142.778 123.167 143.907 L 123.167 145.036 124.101 145.941 L 125.036 146.847 126.310 146.798 C 127.951 146.736,128.188 146.282,126.622 146.200 C 123.721 146.049,123.646 141.496,126.544 141.502 C 128.290 141.505,129.346 144.151,128.125 145.466 L 127.750 145.870 128.125 146.122 C 128.777 146.560,128.665 148.013,127.922 148.756 C 127.015 149.662,125.994 149.602,125.036 148.583 C 124.523 148.038,124.202 147.833,123.860 147.833 C 123.085 147.833,123.124 148.006,124.127 149.023 L 125.083 149.993 126.566 149.997 L 128.049 150.000 129.025 149.015 L 130.000 148.031 130.000 145.764 C 130.000 143.554,129.990 143.489,129.583 143.136 C 129.350 142.932,129.167 142.593,129.167 142.363 C 129.167 142.125,128.939 141.717,128.625 141.395 L 128.083 140.837 126.500 140.854 L 124.917 140.871 124.042 141.825 M132.542 141.770 L 131.667 142.693 131.667 145.416 L 131.667 148.138 132.625 149.066 L 133.583 149.993 135.067 149.997 L 136.550 150.000 137.442 149.065 L 138.333 148.129 138.333 145.733 C 138.333 143.517,138.308 143.320,138.000 143.128 C 137.791 142.997,137.667 142.739,137.667 142.436 C 137.667 141.351,136.805 140.836,135.000 140.842 L 133.417 140.847 132.542 141.770 M141.042 141.750 L 140.167 142.647 140.167 145.403 L 140.167 148.160 141.102 149.080 L 142.037 150.000 143.477 149.997 L 144.917 149.993 145.875 149.066 L 146.833 148.138 146.833 145.737 C 146.833 143.517,146.808 143.321,146.500 143.128 C 146.291 142.997,146.167 142.739,146.167 142.435 C 146.167 141.374,145.248 140.832,143.467 140.843 L 141.917 140.852 141.042 141.750 M151.333 141.446 C 150.954 141.837,150.824 142.074,150.961 142.122 C 151.629 142.357,151.667 142.577,151.667 146.251 C 151.667 150.132,151.692 150.226,152.669 149.916 C 152.997 149.812,153.004 149.694,152.961 145.363 L 152.917 140.917 152.417 140.880 C 152.034 140.852,151.779 140.986,151.333 141.446 M157.875 141.824 C 156.954 142.828,156.927 143.000,157.693 143.000 C 158.035 143.000,158.356 142.795,158.869 142.250 C 160.277 140.754,162.333 141.487,162.333 143.486 L 162.333 144.354 159.669 146.992 C 157.531 149.110,157.050 149.668,157.233 149.819 C 157.649 150.165,163.566 149.985,163.635 149.625 C 163.686 149.360,163.503 149.333,161.616 149.333 C 158.624 149.333,158.626 149.366,161.488 146.535 C 164.417 143.638,164.492 143.379,162.856 141.786 L 161.878 140.833 160.314 140.852 L 158.750 140.871 157.875 141.824 M166.375 141.777 C 165.447 142.753,165.402 143.000,166.149 143.000 C 166.489 143.000,166.786 142.802,167.265 142.255 C 168.265 141.111,170.158 141.653,170.158 143.083 C 170.158 143.429,169.121 144.667,168.831 144.667 C 168.741 144.667,168.667 144.817,168.667 145.000 C 168.667 145.260,168.778 145.333,169.172 145.333 C 170.040 145.333,170.833 146.288,170.833 147.333 C 170.833 149.314,168.794 150.042,167.342 148.580 C 166.823 148.057,166.463 147.833,166.143 147.833 C 165.436 147.833,165.425 148.111,166.108 148.706 C 166.452 149.005,166.882 149.419,167.063 149.625 C 167.359 149.961,167.547 150.000,168.877 150.000 L 170.360 150.000 171.347 149.013 C 172.705 147.655,172.737 146.982,171.500 145.802 C 170.540 144.887,170.433 144.375,171.092 143.856 C 171.793 143.305,171.642 141.772,170.879 141.698 C 170.551 141.666,170.216 141.487,170.022 141.240 C 169.733 140.873,169.584 140.834,168.476 140.844 L 167.250 140.855 166.375 141.777 M178.642 140.981 C 178.577 141.161,177.584 142.189,174.918 144.833 C 173.369 146.369,173.159 146.644,173.201 147.083 L 173.250 147.583 175.323 147.630 C 177.745 147.685,177.833 147.732,177.833 148.942 C 177.833 149.927,178.010 150.117,178.750 149.931 C 179.130 149.836,179.167 149.747,179.167 148.934 C 179.167 147.950,179.326 147.725,180.083 147.640 C 180.774 147.562,180.752 147.100,180.054 147.032 C 179.228 146.952,179.179 146.777,179.129 143.752 C 179.088 141.224,178.912 140.222,178.642 140.981 M183.282 140.940 C 183.219 141.004,183.167 141.442,183.167 141.915 C 183.167 142.617,183.090 142.847,182.750 143.167 C 182.290 143.599,182.162 144.762,182.533 145.133 C 182.867 145.467,183.513 145.362,183.863 144.917 C 184.469 144.146,186.375 144.297,187.199 145.181 C 188.641 146.728,187.736 149.333,185.756 149.333 C 185.037 149.333,184.904 149.267,184.259 148.583 C 183.727 148.020,183.426 147.833,183.053 147.833 C 182.256 147.833,182.291 147.984,183.327 149.021 L 184.307 150.000 185.778 149.996 L 187.250 149.993 188.078 149.163 C 188.533 148.707,188.964 148.333,189.036 148.333 C 189.108 148.333,189.167 147.766,189.167 147.072 L 189.167 145.812 188.261 144.906 L 187.355 144.000 185.781 144.000 C 183.964 144.000,183.430 143.729,184.130 143.163 C 184.362 142.975,184.500 142.678,184.500 142.369 C 184.500 141.635,184.771 141.518,186.593 141.465 C 187.933 141.426,188.250 141.369,188.250 141.167 C 188.250 140.901,183.536 140.686,183.282 140.940 M193.250 141.000 C 193.045 141.332,193.371 141.500,194.222 141.500 C 195.037 141.500,195.136 141.547,195.797 142.250 C 196.310 142.795,196.632 143.000,196.974 143.000 C 197.757 143.000,197.717 142.811,196.718 141.801 L 195.760 140.833 194.557 140.833 C 193.895 140.833,193.307 140.908,193.250 141.000 M199.417 141.000 C 199.163 141.411,199.628 141.500,202.015 141.500 C 205.114 141.500,205.158 141.549,203.517 143.139 C 202.585 144.042,202.333 144.388,202.333 144.769 C 202.333 145.073,202.209 145.331,202.000 145.461 C 201.734 145.628,201.667 145.850,201.667 146.566 C 201.667 147.337,201.609 147.499,201.250 147.735 C 200.467 148.248,200.725 150.000,201.583 150.000 C 202.137 150.000,202.333 149.666,202.333 148.723 C 202.333 148.016,202.398 147.810,202.667 147.667 C 202.937 147.522,203.000 147.318,203.000 146.581 C 203.000 145.798,203.057 145.637,203.417 145.401 C 203.707 145.211,203.833 144.978,203.833 144.631 C 203.833 144.258,204.020 143.957,204.583 143.425 C 205.100 142.937,205.333 142.581,205.333 142.282 C 205.333 142.042,205.491 141.699,205.684 141.519 C 205.877 141.339,205.986 141.111,205.925 141.013 C 205.778 140.776,199.562 140.764,199.417 141.000 M208.708 141.750 C 207.573 142.914,207.559 143.291,208.615 144.289 L 209.398 145.028 208.615 145.746 C 207.407 146.855,207.456 147.773,208.792 149.066 L 209.750 149.993 211.190 149.997 L 212.630 150.000 213.565 149.080 C 214.876 147.790,214.921 146.833,213.722 145.733 L 212.945 145.019 213.722 144.285 C 214.783 143.283,214.764 142.909,213.594 141.739 L 212.688 140.833 211.136 140.843 L 209.583 140.852 208.708 141.750 M217.208 141.748 L 216.333 142.658 216.337 143.870 L 216.341 145.083 217.238 145.966 L 218.136 146.849 219.360 146.799 C 220.924 146.736,221.161 146.283,219.674 146.198 C 216.832 146.037,216.820 141.500,219.662 141.500 C 221.033 141.500,221.667 142.272,221.667 143.945 C 221.667 145.056,221.631 145.182,221.250 145.432 C 220.760 145.753,220.721 145.969,221.125 146.118 C 221.961 146.427,221.904 147.852,221.022 148.708 C 220.049 149.652,219.140 149.613,218.110 148.583 C 216.652 147.125,215.812 147.582,217.225 149.065 L 218.117 150.000 219.600 149.997 L 221.083 149.993 222.042 149.066 L 223.000 148.138 223.000 145.737 C 223.000 143.517,222.975 143.321,222.667 143.128 C 222.457 142.997,222.333 142.739,222.333 142.435 C 222.333 141.377,221.415 140.833,219.633 140.836 L 218.083 140.838 217.208 141.748 M225.625 141.798 L 224.667 142.756 224.667 145.393 L 224.667 148.031 225.642 149.015 L 226.618 150.000 228.100 149.997 L 229.583 149.993 230.542 149.021 L 231.500 148.049 231.500 145.752 C 231.500 143.516,231.489 143.445,231.083 143.069 C 230.854 142.856,230.664 142.510,230.662 142.300 C 230.649 141.316,229.812 140.833,228.127 140.837 L 226.583 140.841 225.625 141.798 M234.042 141.825 C 232.966 142.996,232.951 143.294,233.917 144.184 C 234.830 145.027,234.830 144.938,233.920 145.842 C 232.782 146.972,232.829 147.707,234.125 149.021 L 235.083 149.993 236.566 149.997 L 238.049 150.000 239.025 149.015 C 240.344 147.684,240.397 146.948,239.250 145.869 C 238.838 145.481,238.500 145.091,238.500 145.002 C 238.500 144.913,238.838 144.529,239.250 144.149 C 240.244 143.233,240.216 142.948,239.022 141.786 L 238.045 140.833 236.481 140.852 L 234.917 140.871 234.042 141.825 M244.111 140.944 C 243.944 141.111,243.977 142.167,244.149 142.167 C 244.422 142.167,245.360 141.179,245.253 141.005 C 245.135 140.815,244.286 140.770,244.111 140.944 M247.949 141.801 C 246.950 142.811,246.909 143.000,247.693 143.000 C 248.035 143.000,248.356 142.795,248.869 142.250 C 249.783 141.280,250.308 141.248,251.103 142.116 C 251.872 142.956,251.833 143.376,250.901 144.257 C 250.092 145.021,250.063 145.332,250.802 145.335 C 252.230 145.341,252.893 147.703,251.772 148.792 C 250.876 149.662,249.813 149.586,248.869 148.583 C 248.356 148.038,248.035 147.833,247.693 147.833 C 246.919 147.833,246.958 148.006,247.960 149.023 L 248.917 149.993 250.400 149.997 L 251.882 150.000 252.858 149.015 C 254.177 147.684,254.230 146.948,253.083 145.869 C 252.215 145.052,252.052 144.216,252.676 143.779 C 253.323 143.326,253.078 141.795,252.334 141.644 C 252.014 141.579,251.649 141.370,251.522 141.179 C 251.325 140.883,251.122 140.833,250.099 140.833 L 248.906 140.833 247.949 141.801 M256.375 141.777 C 255.447 142.753,255.402 143.000,256.149 143.000 C 256.489 143.000,256.786 142.802,257.265 142.255 C 258.608 140.719,260.833 141.478,260.833 143.472 L 260.833 144.326 258.130 147.006 C 255.998 149.119,255.479 149.718,255.672 149.842 C 256.162 150.156,262.071 149.957,262.135 149.625 C 262.186 149.360,262.003 149.333,260.116 149.333 C 257.075 149.333,257.076 149.352,259.975 146.513 C 262.911 143.637,262.982 143.396,261.354 141.792 L 260.382 140.833 258.816 140.844 L 257.250 140.855 256.375 141.777 M264.875 141.750 L 264.000 142.647 264.000 145.392 L 264.000 148.138 264.939 149.069 L 265.877 150.000 267.333 150.000 L 268.790 150.000 269.728 149.069 L 270.667 148.138 270.667 145.737 C 270.667 143.517,270.642 143.321,270.333 143.128 C 270.124 142.997,270.000 142.739,270.000 142.435 C 270.000 141.374,269.081 140.832,267.300 140.843 L 265.750 140.852 264.875 141.750 M273.375 141.733 C 272.371 142.760,272.300 143.000,272.998 143.000 C 273.373 143.000,273.672 142.814,274.203 142.250 C 275.599 140.766,277.833 141.517,277.833 143.470 C 277.833 144.201,277.808 144.234,275.161 146.885 C 273.612 148.438,272.524 149.655,272.572 149.781 C 272.673 150.045,278.589 150.097,278.999 149.838 C 279.521 149.508,278.861 149.343,276.832 149.297 C 274.124 149.236,274.123 149.268,276.911 146.474 C 279.716 143.663,279.799 143.371,278.254 141.776 L 277.341 140.833 275.795 140.836 L 274.250 140.838 273.375 141.733 M280.914 141.005 C 280.770 141.237,281.829 142.204,282.109 142.096 C 282.387 141.990,282.403 141.303,282.133 141.033 C 281.889 140.789,281.059 140.769,280.914 141.005 M287.125 141.824 L 286.167 142.807 286.167 145.399 L 286.167 147.992 287.149 148.996 L 288.132 150.000 289.608 149.997 L 291.083 149.993 292.042 149.066 L 293.000 148.138 293.000 145.737 C 293.000 143.517,292.975 143.321,292.667 143.128 C 292.457 142.997,292.333 142.739,292.333 142.435 C 292.333 141.376,291.415 140.833,289.633 140.838 L 288.083 140.842 287.125 141.824 M295.625 141.798 L 294.667 142.756 294.667 145.393 L 294.667 148.031 295.642 149.015 L 296.618 150.000 298.100 149.997 L 299.583 149.993 300.542 149.021 L 301.500 148.049 301.500 145.752 C 301.500 143.516,301.489 143.445,301.083 143.069 C 300.854 142.856,300.664 142.510,300.662 142.300 C 300.649 141.316,299.812 140.833,298.127 140.837 L 296.583 140.841 295.625 141.798 M304.042 141.825 L 303.167 142.778 303.167 145.437 L 303.167 148.096 304.144 149.048 L 305.122 150.000 306.574 150.000 L 308.027 150.000 309.013 149.013 L 310.000 148.027 310.000 145.762 C 310.000 143.555,309.990 143.489,309.583 143.136 C 309.350 142.932,309.167 142.593,309.167 142.363 C 309.167 142.125,308.939 141.717,308.625 141.395 L 308.083 140.837 306.500 140.854 L 304.917 140.871 304.042 141.825 M314.434 141.438 L 313.951 142.018 314.309 142.268 C 314.656 142.511,314.667 142.628,314.667 146.059 C 314.667 149.776,314.709 150.000,315.417 150.000 C 316.136 150.000,316.167 149.810,316.167 145.417 C 316.167 142.385,316.112 141.178,315.967 141.033 C 315.592 140.659,314.939 140.831,314.434 141.438 M320.949 140.940 C 320.885 141.004,320.833 141.475,320.833 141.988 C 320.833 142.747,320.770 142.959,320.492 143.133 C 319.902 143.502,320.083 145.231,320.720 145.304 C 321.055 145.342,321.303 145.235,321.587 144.929 C 322.284 144.177,324.048 144.292,324.875 145.145 C 326.323 146.637,325.411 149.333,323.459 149.333 C 322.755 149.333,322.614 149.263,321.966 148.584 C 321.405 147.997,321.133 147.835,320.708 147.834 C 319.963 147.833,320.021 148.017,321.102 149.080 L 322.037 150.000 323.477 149.997 L 324.917 149.993 325.875 149.066 L 326.833 148.138 326.830 146.944 L 326.826 145.750 325.936 144.875 L 325.046 144.000 323.555 144.000 C 321.716 144.000,321.150 143.726,321.819 143.159 C 322.051 142.963,322.264 142.558,322.321 142.201 L 322.421 141.583 324.169 141.500 C 325.574 141.433,325.917 141.368,325.917 141.167 C 325.917 140.901,321.203 140.686,320.949 140.940 M330.917 141.000 C 330.709 141.335,331.040 141.500,331.923 141.500 C 332.780 141.500,332.862 141.538,333.518 142.250 C 334.022 142.797,334.336 143.000,334.678 143.000 C 335.420 143.000,335.374 142.798,334.399 141.783 L 333.486 140.833 332.253 140.833 C 331.575 140.833,330.973 140.908,330.917 141.000 M105.689 142.125 L 106.333 142.750 106.333 145.417 L 106.333 148.083 105.689 148.708 C 104.786 149.584,103.688 149.609,102.875 148.772 L 102.333 148.215 102.333 145.417 L 102.333 142.619 102.875 142.061 C 103.688 141.224,104.786 141.249,105.689 142.125 M136.439 142.042 L 136.996 142.583 136.998 145.394 L 137.000 148.205 136.384 148.769 C 135.482 149.595,134.537 149.575,133.645 148.708 L 133.000 148.083 133.000 145.411 L 133.000 142.739 133.542 142.125 C 134.312 141.252,135.588 141.216,136.439 142.042 M144.936 142.116 L 145.500 142.732 145.500 145.401 L 145.500 148.069 144.883 148.701 C 144.004 149.601,142.980 149.613,142.100 148.733 L 141.500 148.133 141.500 145.436 L 141.500 142.739 142.042 142.125 C 142.846 141.213,144.105 141.209,144.936 142.116 M212.603 142.116 C 213.320 142.899,213.317 143.361,212.589 144.089 C 210.958 145.720,208.197 143.837,209.708 142.125 C 210.513 141.213,211.772 141.209,212.603 142.116 M229.577 142.125 L 230.158 142.750 230.162 145.417 L 230.166 148.083 229.522 148.708 C 228.614 149.589,227.595 149.606,226.744 148.756 L 226.167 148.178 226.167 145.398 L 226.167 142.619 226.708 142.061 C 227.533 141.212,228.753 141.239,229.577 142.125 M237.939 142.042 C 238.676 142.758,238.682 143.360,237.958 144.105 C 237.133 144.955,235.914 144.927,235.090 144.042 C 233.546 142.381,236.299 140.449,237.939 142.042 M268.769 142.116 L 269.333 142.732 269.333 145.439 L 269.333 148.146 268.708 148.738 C 267.806 149.593,266.792 149.592,265.933 148.733 L 265.333 148.133 265.333 145.436 L 265.333 142.739 265.875 142.125 C 266.680 141.213,267.939 141.209,268.769 142.116 M291.103 142.116 L 291.667 142.732 291.667 145.408 L 291.666 148.083 291.022 148.708 C 290.114 149.589,289.095 149.606,288.244 148.756 L 287.667 148.178 287.667 145.398 L 287.667 142.619 288.208 142.061 C 289.032 141.213,290.297 141.237,291.103 142.116 M299.577 142.125 L 300.158 142.750 300.162 145.417 L 300.166 148.083 299.522 148.708 C 298.614 149.589,297.595 149.606,296.744 148.756 L 296.167 148.178 296.167 145.398 L 296.167 142.619 296.708 142.061 C 297.533 141.212,298.753 141.239,299.577 142.125 M307.939 142.042 L 308.496 142.583 308.498 145.381 L 308.500 148.178 307.922 148.756 C 307.072 149.606,306.052 149.589,305.145 148.708 L 304.500 148.083 304.500 145.437 L 304.500 142.791 305.042 142.159 C 305.811 141.263,307.084 141.212,307.939 142.042 M191.778 141.778 C 191.717 141.839,191.667 142.100,191.667 142.357 C 191.667 142.673,191.531 142.915,191.250 143.099 C 190.843 143.365,190.833 143.419,190.833 145.417 C 190.833 147.414,190.843 147.468,191.250 147.735 C 191.525 147.915,191.667 148.163,191.668 148.462 C 191.672 149.457,192.584 150.000,194.251 150.000 L 195.716 150.000 196.688 149.042 L 197.660 148.083 197.663 146.947 L 197.667 145.812 196.754 144.899 L 195.841 143.986 194.559 144.035 C 192.991 144.094,192.564 144.500,194.070 144.500 C 196.186 144.500,197.230 147.213,195.689 148.708 C 194.786 149.584,193.688 149.609,192.875 148.772 C 192.183 148.060,192.042 145.762,192.667 145.372 C 192.850 145.258,193.000 145.061,193.000 144.935 C 193.000 144.809,192.850 144.666,192.667 144.618 C 192.406 144.550,192.333 144.391,192.333 143.889 C 192.333 143.427,192.427 143.188,192.667 143.039 C 193.287 142.651,193.128 141.667,192.444 141.667 C 192.139 141.667,191.839 141.717,191.778 141.778 M329.444 141.778 C 329.383 141.839,329.333 142.088,329.333 142.331 C 329.333 142.595,329.165 142.919,328.917 143.136 C 328.520 143.481,328.500 143.584,328.500 145.319 C 328.500 147.253,328.573 147.667,328.917 147.667 C 329.157 147.667,329.333 148.029,329.333 148.522 C 329.333 149.422,330.343 150.000,331.914 150.000 L 333.378 150.000 334.356 149.048 L 335.333 148.096 335.333 146.954 L 335.333 145.812 334.420 144.899 L 333.508 143.986 332.225 144.035 C 330.657 144.094,330.231 144.500,331.736 144.500 C 333.865 144.500,334.906 147.204,333.355 148.708 C 332.448 149.589,331.428 149.606,330.578 148.756 C 329.851 148.029,329.688 145.775,330.333 145.372 C 330.517 145.258,330.667 145.061,330.667 144.935 C 330.667 144.809,330.517 144.666,330.333 144.618 C 330.082 144.553,330.000 144.391,330.000 143.958 C 330.000 143.597,330.123 143.274,330.333 143.083 C 330.929 142.544,330.791 141.667,330.111 141.667 C 329.806 141.667,329.506 141.717,329.444 141.778 M96.787 142.984 C 96.385 143.388,96.167 143.763,96.167 144.048 C 96.167 144.318,96.038 144.557,95.833 144.667 C 95.533 144.827,95.500 145.016,95.500 146.549 C 95.500 148.073,95.535 148.275,95.833 148.461 C 96.030 148.584,96.167 148.850,96.167 149.110 C 96.167 149.547,97.119 150.667,97.492 150.667 C 97.849 150.667,97.674 149.628,97.250 149.235 C 96.844 148.859,96.833 148.790,96.833 146.520 C 96.833 144.234,96.841 144.185,97.250 143.863 C 97.532 143.642,97.667 143.371,97.667 143.028 C 97.667 142.291,97.485 142.282,96.787 142.984 M111.033 142.533 C 110.923 142.643,110.833 142.793,110.833 142.867 C 110.833 143.065,111.296 143.028,111.426 142.819 C 111.597 142.541,111.266 142.300,111.033 142.533 M119.443 142.446 C 119.171 142.718,119.351 143.549,119.750 143.863 C 120.159 144.185,120.167 144.234,120.167 146.520 C 120.167 148.790,120.156 148.859,119.750 149.235 C 119.323 149.631,119.152 150.667,119.513 150.667 C 119.867 150.667,120.667 149.693,120.667 149.262 C 120.667 149.010,120.840 148.681,121.083 148.469 C 121.474 148.129,121.500 148.007,121.500 146.489 C 121.500 144.948,121.480 144.859,121.083 144.599 C 120.809 144.419,120.666 144.171,120.665 143.871 C 120.663 143.403,119.658 142.231,119.443 142.446 M150.235 142.563 C 150.175 142.719,150.174 142.896,150.232 142.954 C 150.291 143.013,150.428 142.972,150.536 142.864 C 150.686 142.714,150.687 142.620,150.539 142.472 C 150.391 142.324,150.318 142.345,150.235 142.563 M242.944 142.972 C 242.549 143.376,242.333 143.755,242.333 144.043 C 242.333 144.318,242.206 144.557,242.000 144.667 C 241.700 144.827,241.667 145.016,241.667 146.549 C 241.667 148.073,241.702 148.275,242.000 148.461 C 242.201 148.587,242.334 148.851,242.335 149.126 C 242.337 149.590,243.251 150.667,243.643 150.667 C 244.035 150.667,243.856 149.553,243.417 149.265 C 243.004 148.995,243.000 148.968,243.000 146.592 C 243.000 144.229,243.007 144.186,243.417 143.863 C 243.698 143.642,243.833 143.371,243.833 143.028 C 243.833 142.284,243.628 142.272,242.944 142.972 M313.367 142.533 C 313.094 142.806,313.115 143.000,313.417 143.000 C 313.556 143.000,313.667 142.852,313.667 142.667 C 313.667 142.278,313.636 142.264,313.367 142.533 M282.444 142.611 C 282.201 142.855,282.356 143.460,282.750 143.802 C 283.158 144.157,283.167 144.213,283.167 146.552 C 283.167 148.891,283.158 148.947,282.750 149.302 C 282.322 149.675,282.191 150.392,282.514 150.592 C 282.819 150.781,283.833 149.660,283.833 149.135 C 283.833 148.850,283.962 148.589,284.167 148.461 C 284.465 148.275,284.500 148.073,284.500 146.549 C 284.500 145.016,284.467 144.827,284.167 144.667 C 283.954 144.553,283.833 144.318,283.833 144.019 C 283.833 143.331,282.786 142.270,282.444 142.611 M110.250 143.333 C 110.114 143.553,110.313 143.865,110.512 143.743 C 110.714 143.618,110.713 143.167,110.510 143.167 C 110.424 143.167,110.307 143.242,110.250 143.333 M149.410 143.344 C 149.256 143.593,149.434 143.728,149.753 143.605 C 149.901 143.549,149.974 143.427,149.917 143.335 C 149.782 143.116,149.548 143.120,149.410 143.344 M312.611 143.278 C 312.419 143.470,312.490 143.667,312.750 143.667 C 312.887 143.667,313.000 143.554,313.000 143.417 C 313.000 143.156,312.803 143.086,312.611 143.278 M177.633 144.033 C 177.902 144.302,177.893 146.354,177.622 146.726 C 177.310 147.152,174.750 147.064,174.750 146.628 C 174.750 146.363,177.084 143.833,177.328 143.833 C 177.386 143.833,177.523 143.923,177.633 144.033 M212.567 145.933 C 213.854 147.221,213.004 149.333,211.199 149.333 C 209.368 149.333,208.478 147.222,209.767 145.933 C 210.289 145.411,210.470 145.333,211.167 145.333 C 211.863 145.333,212.044 145.411,212.567 145.933 M237.922 145.911 C 239.205 147.194,238.357 149.333,236.567 149.333 C 235.440 149.333,234.500 148.428,234.500 147.340 C 234.500 145.546,236.657 144.645,237.922 145.911 M97.833 151.500 L 97.833 152.167 98.500 152.167 C 99.309 152.167,99.322 152.071,98.605 151.375 C 97.894 150.684,97.833 150.693,97.833 151.500 M118.366 151.383 C 117.681 152.089,117.695 152.167,118.500 152.167 L 119.167 152.167 119.167 151.500 C 119.167 150.691,119.053 150.674,118.366 151.383 M244.000 151.500 C 244.000 152.144,244.019 152.167,244.556 152.167 C 245.354 152.167,245.399 152.019,244.790 151.393 C 244.096 150.678,244.000 150.691,244.000 151.500 M281.354 151.425 C 280.738 152.047,280.854 152.243,281.778 152.137 C 282.194 152.090,282.250 152.015,282.250 151.514 C 282.250 150.759,282.033 150.738,281.354 151.425 " stroke="none" fill="#000000" fill-rule="evenodd"></path>
   </g>
</svg>