<svg id="svg" version="1.1" xmlns="http://www.w3.org/2000/svg" xmlns:xlink="http://www.w3.org/1999/xlink" width="400" height="153.84615384615384" viewBox="0, 0, 400,153.84615384615384">
   <g id="svgg">
      <path id="path0" d="M0.000 76.917 L 0.000 153.833 200.000 153.833 L 400.000 153.833 400.000 76.917 L 400.000 0.000 200.000 0.000 L 0.000 0.000 0.000 76.917 M80.633 1.700 C 80.924 1.991,80.924 75.009,80.633 75.300 C 80.351 75.582,79.830 75.548,79.471 75.224 C 79.032 74.827,78.990 2.201,79.429 1.762 C 79.739 1.451,80.353 1.420,80.633 1.700 M86.800 1.700 C 86.954 1.854,87.000 10.281,87.000 38.617 L 87.000 75.333 89.250 75.333 L 91.500 75.333 91.500 38.679 C 91.500 -1.076,91.442 1.500,92.333 1.500 C 93.224 1.500,93.167 -1.076,93.167 38.679 L 93.167 75.333 95.417 75.333 L 97.667 75.333 97.667 38.617 C 97.667 10.281,97.712 1.854,97.867 1.700 C 98.147 1.420,103.353 1.420,103.633 1.700 C 103.788 1.854,103.833 10.281,103.833 38.617 L 103.833 75.333 104.583 75.333 L 105.333 75.333 105.333 38.679 C 105.333 -1.338,105.265 1.500,106.229 1.500 C 107.038 1.500,107.000 -0.308,107.000 38.617 L 107.000 75.333 107.750 75.333 L 108.500 75.333 108.500 38.617 C 108.500 10.281,108.546 1.854,108.700 1.700 C 108.987 1.413,120.347 1.413,120.633 1.700 C 120.788 1.854,120.833 10.281,120.833 38.617 L 120.833 75.333 121.383 75.333 C 122.079 75.333,122.333 75.588,122.333 76.283 C 122.333 76.824,122.346 76.833,123.083 76.833 C 123.821 76.833,123.833 76.824,123.833 76.283 C 123.833 75.642,124.084 75.333,124.605 75.333 C 125.116 75.333,125.500 75.763,125.500 76.335 C 125.500 76.767,125.560 76.818,126.122 76.865 C 127.220 76.956,127.343 78.342,126.265 78.470 C 125.650 78.544,125.333 78.235,125.333 77.563 C 125.333 77.008,125.323 77.000,124.590 77.000 L 123.846 77.000 123.798 78.458 L 123.750 79.917 123.042 79.968 L 122.333 80.019 122.333 116.075 C 122.333 148.800,122.309 152.140,122.070 152.232 C 121.534 152.438,110.412 152.345,110.200 152.133 C 110.046 151.979,110.000 143.719,110.000 115.967 L 110.000 80.000 109.250 80.000 L 108.501 80.000 108.459 116.024 C 108.412 155.665,108.500 152.537,107.442 152.271 L 107.000 152.160 107.000 116.080 L 107.000 80.000 105.417 80.000 L 103.833 80.000 103.833 116.066 C 103.833 148.799,103.809 152.140,103.570 152.232 C 103.228 152.363,101.439 152.363,101.097 152.232 C 100.858 152.140,100.833 148.799,100.833 116.066 L 100.833 80.000 100.083 80.000 L 99.333 80.000 99.333 115.967 C 99.333 143.719,99.288 151.979,99.133 152.133 C 98.923 152.343,95.434 152.425,94.930 152.232 C 94.691 152.140,94.667 148.799,94.667 116.066 L 94.667 80.000 92.333 80.000 L 90.000 80.000 90.000 116.066 C 90.000 148.799,89.976 152.140,89.736 152.232 C 89.395 152.363,87.605 152.363,87.264 152.232 C 87.024 152.140,87.000 148.799,87.000 116.066 L 87.000 80.000 85.617 80.000 C 84.151 80.000,83.833 79.864,83.833 79.237 C 83.833 78.779,84.113 78.545,84.748 78.473 C 85.183 78.424,85.259 78.335,85.350 77.774 C 85.469 77.035,85.700 76.839,86.458 76.836 C 86.979 76.833,87.000 76.807,87.000 76.167 L 87.000 75.500 84.867 75.500 C 83.430 75.500,82.668 75.435,82.533 75.300 C 82.242 75.009,82.242 1.991,82.533 1.700 C 82.809 1.424,86.524 1.424,86.800 1.700 M128.300 1.700 C 128.454 1.854,128.500 10.281,128.500 38.617 L 128.500 75.333 129.250 75.333 L 130.000 75.333 130.000 38.617 C 130.000 10.281,130.046 1.854,130.200 1.700 C 130.508 1.392,132.583 1.440,132.905 1.762 C 133.141 1.998,133.167 5.578,133.167 38.679 L 133.167 75.333 135.417 75.333 L 137.667 75.333 137.667 38.617 C 137.667 -0.308,137.629 1.500,138.438 1.500 C 139.402 1.500,139.333 -1.338,139.333 38.679 L 139.333 75.333 141.583 75.333 L 143.833 75.333 143.833 38.617 C 143.833 -0.308,143.796 1.500,144.605 1.500 C 145.568 1.500,145.500 -1.338,145.500 38.679 L 145.500 75.333 146.250 75.333 L 147.000 75.333 147.000 38.518 C 147.000 5.101,147.024 1.693,147.264 1.601 C 147.875 1.367,151.136 1.493,151.405 1.762 C 151.641 1.998,151.667 5.578,151.667 38.679 L 151.667 75.333 153.916 75.333 L 156.166 75.333 156.208 38.560 C 156.254 -1.908,156.166 1.296,157.224 1.562 L 157.667 1.673 157.667 38.503 L 157.667 75.333 158.417 75.333 L 159.167 75.333 159.167 38.679 C 159.167 5.578,159.192 1.998,159.429 1.762 C 159.816 1.375,164.851 1.375,165.238 1.762 C 165.475 1.998,165.500 5.578,165.500 38.679 L 165.500 75.333 167.000 75.333 L 168.500 75.333 168.500 38.617 C 168.500 10.281,168.546 1.854,168.700 1.700 C 169.008 1.392,171.083 1.440,171.405 1.762 C 171.641 1.998,171.667 5.578,171.667 38.679 L 171.667 75.333 172.333 75.333 L 173.000 75.333 173.000 38.679 C 173.000 5.578,173.025 1.998,173.262 1.762 C 173.601 1.422,180.299 1.366,180.633 1.700 C 180.788 1.854,180.833 10.281,180.833 38.617 L 180.833 75.333 181.583 75.333 L 182.333 75.333 182.333 38.617 C 182.333 -0.180,182.299 1.500,183.083 1.500 C 183.867 1.500,183.833 -0.180,183.833 38.617 L 183.833 75.333 184.583 75.333 L 185.333 75.333 185.333 38.679 C 185.333 5.578,185.359 1.998,185.595 1.762 C 185.986 1.371,192.514 1.371,192.905 1.762 C 193.141 1.998,193.167 5.578,193.167 38.679 L 193.167 75.333 193.717 75.333 C 194.583 75.333,194.667 75.533,194.667 77.603 C 194.667 79.859,194.624 80.000,193.932 80.000 C 193.074 80.000,193.000 79.805,193.000 77.550 L 193.000 75.500 189.250 75.500 L 185.500 75.500 185.500 77.000 L 185.500 78.500 186.250 78.500 L 187.000 78.500 187.000 77.854 C 187.000 76.763,188.065 76.408,188.407 77.384 C 188.634 78.032,188.360 78.404,187.608 78.468 C 187.007 78.519,187.000 78.529,187.000 79.260 L 187.000 80.000 188.500 80.000 L 190.000 80.000 190.000 78.739 C 190.000 77.322,190.180 76.833,190.701 76.833 C 191.400 76.833,191.667 77.292,191.667 78.492 C 191.667 79.776,191.513 80.000,190.633 80.000 L 190.000 80.000 190.000 116.066 C 190.000 148.799,189.976 152.140,189.736 152.232 C 189.395 152.363,187.605 152.363,187.264 152.232 C 187.024 152.140,187.000 148.799,187.000 116.066 L 187.000 80.000 186.367 80.000 C 185.589 80.000,185.333 79.765,185.333 79.050 C 185.333 78.510,185.319 78.500,184.593 78.500 L 183.852 78.500 183.801 79.208 C 183.750 79.913,183.747 79.917,183.042 79.968 L 182.333 80.019 182.333 116.075 C 182.333 148.800,182.309 152.140,182.070 152.232 C 181.594 152.415,179.574 152.341,179.367 152.133 C 179.212 151.979,179.167 143.719,179.167 115.967 L 179.167 80.000 176.167 80.000 L 173.167 80.000 173.167 115.967 C 173.167 143.719,173.121 151.979,172.967 152.133 C 172.709 152.391,171.958 152.391,171.700 152.133 C 171.546 151.979,171.500 143.719,171.500 115.967 L 171.500 80.000 167.667 80.000 L 163.833 80.000 163.833 116.072 L 163.833 152.144 163.488 152.254 C 163.298 152.314,162.961 152.318,162.738 152.262 L 162.333 152.160 162.333 116.080 L 162.333 80.000 160.833 80.000 L 159.333 80.000 159.333 115.967 C 159.333 143.719,159.288 151.979,159.133 152.133 C 158.876 152.391,158.124 152.391,157.867 152.133 C 157.712 151.979,157.667 143.719,157.667 115.967 L 157.667 80.000 156.917 80.000 L 156.167 80.000 156.167 116.072 L 156.167 152.144 155.821 152.254 C 155.631 152.314,155.294 152.318,155.071 152.262 L 154.667 152.160 154.667 116.080 L 154.667 80.000 150.833 80.000 L 147.000 80.000 147.000 115.967 C 147.000 143.719,146.954 151.979,146.800 152.133 C 146.542 152.391,145.791 152.391,145.533 152.133 C 145.379 151.979,145.333 143.719,145.333 115.967 L 145.333 80.000 144.583 80.000 L 143.833 80.000 143.833 116.072 L 143.833 152.144 143.488 152.254 C 143.298 152.314,142.961 152.318,142.738 152.262 L 142.333 152.160 142.333 116.080 L 142.333 80.000 140.833 80.000 L 139.333 80.000 139.333 115.967 C 139.333 143.719,139.288 151.979,139.133 152.133 C 138.923 152.343,135.434 152.425,134.930 152.232 C 134.691 152.140,134.667 148.799,134.667 116.066 L 134.667 80.000 132.333 80.000 L 130.000 80.000 130.000 116.066 C 130.000 148.799,129.976 152.140,129.736 152.232 C 129.233 152.425,125.743 152.343,125.533 152.133 C 125.242 151.842,125.242 80.491,125.533 80.200 C 125.668 80.065,126.430 80.000,127.867 80.000 L 130.000 80.000 130.000 79.250 C 130.000 78.532,129.979 78.500,129.514 78.500 C 128.551 78.500,128.500 78.419,128.500 76.899 L 128.500 75.500 127.950 75.500 C 127.647 75.500,127.310 75.410,127.200 75.300 C 126.901 75.001,126.910 1.731,127.208 1.610 C 127.591 1.456,128.098 1.498,128.300 1.700 M205.238 1.762 C 205.475 1.998,205.500 5.578,205.500 38.679 L 205.500 75.333 207.750 75.333 L 210.000 75.333 210.000 38.617 C 210.000 -0.308,209.962 1.500,210.771 1.500 C 211.735 1.500,211.667 -1.338,211.667 38.679 L 211.667 75.333 212.333 75.333 L 213.000 75.333 213.000 38.679 C 213.000 5.578,213.025 1.998,213.262 1.762 C 213.584 1.440,215.659 1.392,215.967 1.700 C 216.121 1.854,216.167 10.281,216.167 38.617 L 216.167 75.333 219.250 75.333 L 222.333 75.333 222.333 38.617 C 222.333 10.281,222.379 1.854,222.533 1.700 C 222.841 1.392,224.916 1.440,225.238 1.762 C 225.475 1.998,225.500 5.578,225.500 38.679 L 225.500 75.333 226.250 75.333 L 227.000 75.333 227.000 38.518 C 227.000 5.101,227.024 1.693,227.264 1.601 C 227.875 1.367,231.136 1.493,231.405 1.762 C 231.641 1.998,231.667 5.578,231.667 38.679 L 231.667 75.333 233.917 75.333 L 236.167 75.333 236.167 38.617 C 236.167 10.281,236.212 1.854,236.367 1.700 C 236.647 1.420,241.853 1.420,242.133 1.700 C 242.288 1.854,242.333 10.281,242.333 38.617 L 242.333 75.333 243.083 75.333 L 243.833 75.333 243.833 38.617 C 243.833 10.281,243.879 1.854,244.033 1.700 C 244.299 1.435,246.535 1.435,246.800 1.700 C 246.954 1.854,247.000 10.281,247.000 38.617 L 247.000 75.333 247.750 75.333 L 248.500 75.333 248.500 38.617 C 248.500 -0.180,248.466 1.500,249.250 1.500 C 250.034 1.500,250.000 -0.180,250.000 38.617 L 250.000 75.333 250.750 75.333 L 251.500 75.333 251.500 38.679 C 251.500 5.578,251.525 1.998,251.762 1.762 C 252.031 1.493,256.770 1.358,257.403 1.601 C 257.642 1.693,257.667 5.101,257.667 38.518 L 257.667 75.333 258.238 75.333 C 259.141 75.333,259.333 75.658,259.333 77.179 L 259.333 78.500 260.083 78.500 L 260.833 78.500 260.833 77.018 C 260.833 75.407,260.877 75.333,261.847 75.333 L 262.333 75.333 262.333 38.617 C 262.333 10.281,262.379 1.854,262.533 1.700 C 262.870 1.364,271.064 1.421,271.405 1.762 C 271.641 1.998,271.667 5.578,271.667 38.679 L 271.667 75.333 272.155 75.333 C 272.777 75.333,273.167 75.723,273.167 76.345 C 273.167 76.813,273.199 76.833,273.917 76.833 C 274.654 76.833,274.667 76.824,274.667 76.283 C 274.667 75.650,274.917 75.333,275.417 75.333 C 275.917 75.333,276.167 75.650,276.167 76.283 C 276.167 76.794,276.206 76.833,276.717 76.833 C 277.408 76.833,277.667 77.088,277.667 77.766 C 277.667 78.342,277.451 78.500,276.663 78.500 C 276.221 78.500,276.182 78.552,276.135 79.208 C 276.084 79.913,276.080 79.917,275.375 79.968 L 274.667 80.019 274.667 115.976 C 274.667 143.721,274.621 151.979,274.467 152.133 C 274.255 152.345,261.634 152.438,261.097 152.232 C 260.858 152.140,260.833 148.799,260.833 116.066 L 260.833 80.000 260.083 80.000 L 259.333 80.000 259.333 115.967 C 259.333 143.719,259.288 151.979,259.133 152.133 C 259.023 152.243,258.738 152.333,258.500 152.333 C 258.262 152.333,257.977 152.243,257.867 152.133 C 257.712 151.979,257.667 143.719,257.667 115.967 L 257.667 80.000 256.167 80.000 L 254.667 80.000 254.667 115.967 C 254.667 143.719,254.621 151.979,254.467 152.133 C 254.191 152.409,250.476 152.409,250.200 152.133 C 250.046 151.979,250.000 143.719,250.000 115.967 L 250.000 80.000 249.250 80.000 L 248.500 80.000 248.500 115.967 C 248.500 143.719,248.454 151.979,248.300 152.133 C 248.089 152.344,243.114 152.430,242.597 152.232 C 242.358 152.140,242.333 148.799,242.333 116.066 L 242.333 80.000 241.583 80.000 L 240.833 80.000 240.833 115.967 C 240.833 143.719,240.788 151.979,240.633 152.133 C 240.368 152.399,238.132 152.399,237.867 152.133 C 237.712 151.979,237.667 143.719,237.667 115.967 L 237.667 80.000 235.417 80.000 L 233.167 80.000 233.167 115.967 C 233.167 143.719,233.121 151.979,232.967 152.133 C 232.709 152.391,231.958 152.391,231.700 152.133 C 231.546 151.979,231.500 143.719,231.500 115.967 L 231.500 80.000 230.750 80.000 L 230.000 80.000 230.000 116.066 C 230.000 148.799,229.976 152.140,229.736 152.232 C 229.233 152.425,225.743 152.343,225.533 152.133 C 225.379 151.979,225.333 143.719,225.333 115.967 L 225.333 80.000 224.583 80.000 L 223.833 80.000 223.833 116.072 L 223.833 152.144 223.488 152.254 C 223.298 152.314,222.961 152.318,222.738 152.262 L 222.333 152.160 222.333 116.080 L 222.333 80.000 220.833 80.000 L 219.333 80.000 219.333 115.967 C 219.333 143.719,219.288 151.979,219.133 152.133 C 218.853 152.414,213.481 152.414,213.200 152.133 C 213.046 151.979,213.000 143.719,213.000 115.967 L 213.000 80.000 211.500 80.000 L 210.000 80.000 210.000 116.066 C 210.000 148.799,209.976 152.140,209.736 152.232 C 209.233 152.425,205.743 152.343,205.533 152.133 C 205.379 151.979,205.333 143.719,205.333 115.967 L 205.333 80.000 204.583 80.000 L 203.833 80.000 203.833 116.072 L 203.833 152.144 203.488 152.254 C 203.298 152.314,202.961 152.318,202.738 152.262 L 202.333 152.160 202.333 116.181 C 202.333 83.527,202.358 80.193,202.597 80.101 C 202.742 80.046,203.079 80.000,203.347 80.000 C 203.812 80.000,203.833 79.968,203.833 79.250 C 203.833 78.532,203.812 78.500,203.347 78.500 C 202.385 78.500,201.915 77.652,202.533 77.033 C 203.098 76.469,203.833 76.940,203.833 77.867 L 203.833 78.500 204.583 78.500 L 205.333 78.500 205.333 77.000 L 205.333 75.500 204.033 75.500 C 203.244 75.500,202.655 75.421,202.533 75.300 C 202.242 75.009,202.242 1.991,202.533 1.700 C 202.841 1.392,204.916 1.440,205.238 1.762 M279.071 1.762 C 279.308 1.998,279.333 5.578,279.333 38.679 L 279.333 75.333 280.083 75.333 L 280.833 75.333 280.833 38.503 L 280.833 1.673 281.276 1.562 C 282.334 1.296,282.246 -1.908,282.292 38.560 L 282.334 75.333 284.667 75.333 L 287.000 75.333 287.000 38.503 L 287.000 1.673 287.442 1.562 C 288.500 1.296,288.412 -1.908,288.459 38.560 L 288.501 75.333 293.084 75.333 L 297.667 75.333 297.667 38.617 C 297.667 -0.308,297.629 1.500,298.438 1.500 C 299.402 1.500,299.333 -1.338,299.333 38.679 L 299.333 75.333 300.833 75.333 L 302.333 75.333 302.333 38.617 C 302.333 10.281,302.379 1.854,302.533 1.700 C 302.841 1.392,304.916 1.440,305.238 1.762 C 305.651 2.175,305.638 74.738,305.224 75.195 C 305.002 75.441,304.696 75.500,303.641 75.500 L 302.333 75.500 302.333 77.750 L 302.333 80.000 304.467 80.000 C 305.904 80.000,306.665 80.065,306.800 80.200 C 307.091 80.491,307.091 151.842,306.800 152.133 C 306.590 152.343,303.101 152.425,302.597 152.232 C 302.358 152.140,302.333 148.799,302.333 116.066 L 302.333 80.000 301.583 80.000 L 300.833 80.000 300.833 115.967 C 300.833 143.719,300.788 151.979,300.633 152.133 C 300.376 152.391,299.624 152.391,299.367 152.133 C 299.212 151.979,299.167 143.719,299.167 115.967 L 299.167 80.000 296.167 80.000 L 293.167 80.000 293.167 115.967 C 293.167 143.719,293.121 151.979,292.967 152.133 C 292.684 152.416,285.816 152.416,285.533 152.133 C 285.379 151.979,285.333 143.719,285.333 115.967 L 285.333 80.000 284.583 80.000 L 283.833 80.000 283.833 116.080 L 283.833 152.160 283.429 152.262 C 283.206 152.318,282.869 152.314,282.679 152.254 L 282.333 152.144 282.333 116.072 L 282.333 80.000 281.583 80.000 L 280.833 80.000 280.833 115.967 C 280.833 143.719,280.788 151.979,280.633 152.133 C 280.368 152.399,278.132 152.399,277.867 152.133 C 277.576 151.842,277.576 80.491,277.867 80.200 C 277.990 80.077,278.596 80.000,279.450 80.000 L 280.833 80.000 280.833 79.250 L 280.833 78.500 280.200 78.500 C 279.294 78.500,279.167 78.290,279.167 76.800 L 279.167 75.500 278.617 75.500 C 278.314 75.500,277.977 75.410,277.867 75.300 C 277.576 75.009,277.576 1.991,277.867 1.700 C 278.147 1.420,278.761 1.451,279.071 1.762 M308.300 1.700 C 308.591 1.991,308.591 75.009,308.300 75.300 C 308.043 75.557,307.457 75.557,307.200 75.300 C 306.901 75.001,306.910 1.731,307.208 1.610 C 307.591 1.456,308.098 1.498,308.300 1.700 M197.464 75.474 C 197.623 75.575,197.665 76.152,197.630 77.763 L 197.583 79.917 197.017 79.971 C 196.236 80.045,196.172 79.870,196.169 77.658 C 196.166 75.431,196.502 74.864,197.464 75.474 M200.633 75.533 C 200.909 75.809,200.909 79.524,200.633 79.800 C 200.523 79.910,200.238 80.000,200.000 80.000 C 199.261 80.000,199.167 79.744,199.167 77.729 C 199.167 75.520,199.749 74.649,200.633 75.533 M91.667 76.167 L 91.667 76.833 92.333 76.833 L 93.000 76.833 93.000 76.167 L 93.000 75.500 92.333 75.500 L 91.667 75.500 91.667 76.167 M97.667 76.167 C 97.667 76.815,97.683 76.833,98.238 76.833 C 98.552 76.833,98.927 76.951,99.071 77.095 C 99.215 77.239,99.333 77.614,99.333 77.929 C 99.333 78.495,99.340 78.500,100.083 78.500 L 100.833 78.500 100.833 79.250 L 100.833 80.000 102.333 80.000 L 103.833 80.000 103.833 77.750 L 103.833 75.500 100.750 75.500 L 97.667 75.500 97.667 76.167 M105.535 76.958 L 105.583 78.417 106.292 78.468 L 107.000 78.519 107.000 79.260 L 107.000 80.000 107.750 80.000 L 108.500 80.000 108.500 79.250 L 108.500 78.500 109.250 78.500 L 110.000 78.500 110.000 79.250 L 110.000 80.000 116.167 80.000 L 122.333 80.000 122.333 78.500 L 122.333 77.000 121.583 77.000 C 120.846 77.000,120.833 77.009,120.833 77.550 C 120.833 78.212,120.581 78.500,120.000 78.500 C 119.473 78.500,119.167 78.221,119.167 77.742 C 119.167 77.243,119.679 76.833,120.305 76.833 C 120.810 76.833,120.833 76.804,120.833 76.167 L 120.833 75.500 114.667 75.500 L 108.500 75.500 108.500 77.000 L 108.500 78.500 107.750 78.500 L 107.000 78.500 107.000 77.000 L 107.000 75.500 106.244 75.500 L 105.487 75.500 105.535 76.958 M130.000 77.010 L 130.000 78.519 130.706 78.468 C 131.385 78.419,131.417 78.391,131.516 77.774 C 131.632 77.056,131.868 76.840,132.542 76.836 C 132.965 76.834,133.000 76.782,133.000 76.167 L 133.000 75.500 131.500 75.500 L 130.000 75.500 130.000 77.010 M137.667 76.167 L 137.667 76.833 138.417 76.833 L 139.167 76.833 139.167 76.167 L 139.167 75.500 138.417 75.500 L 137.667 75.500 137.667 76.167 M143.833 76.167 L 143.833 76.833 144.583 76.833 L 145.333 76.833 145.333 76.167 L 145.333 75.500 144.583 75.500 L 143.833 75.500 143.833 76.167 M147.000 76.167 C 147.000 76.816,147.015 76.833,147.577 76.833 C 148.212 76.833,148.500 77.167,148.500 77.903 C 148.500 78.213,148.609 78.354,148.905 78.429 C 149.547 78.590,150.000 78.369,150.000 77.894 C 150.000 77.167,150.290 76.833,150.923 76.833 C 151.485 76.833,151.500 76.816,151.500 76.167 L 151.500 75.500 149.250 75.500 L 147.000 75.500 147.000 76.167 M156.167 76.167 L 156.167 76.833 156.917 76.833 L 157.667 76.833 157.667 76.167 L 157.667 75.500 156.917 75.500 L 156.167 75.500 156.167 76.167 M159.333 76.167 C 159.333 76.816,159.348 76.833,159.911 76.833 C 160.542 76.833,160.833 77.167,160.833 77.888 C 160.833 78.337,161.103 78.500,161.847 78.500 C 162.312 78.500,162.333 78.532,162.333 79.250 L 162.333 80.000 163.083 80.000 L 163.833 80.000 163.833 79.260 L 163.833 78.519 164.542 78.468 L 165.250 78.417 165.298 76.958 L 165.346 75.500 162.340 75.500 L 159.333 75.500 159.333 76.167 M168.500 76.167 C 168.500 76.810,168.519 76.833,169.050 76.833 C 169.712 76.833,170.000 77.086,170.000 77.667 C 170.000 78.248,170.288 78.500,170.950 78.500 L 171.500 78.500 171.500 77.000 L 171.500 75.500 170.000 75.500 L 168.500 75.500 168.500 76.167 M173.167 77.000 L 173.167 78.500 173.717 78.500 C 174.379 78.500,174.667 78.248,174.667 77.667 C 174.667 77.143,174.945 76.833,175.417 76.833 C 175.916 76.833,176.167 77.150,176.167 77.780 C 176.167 78.220,176.246 78.347,176.571 78.429 C 177.213 78.590,177.667 78.369,177.667 77.894 C 177.667 77.260,177.966 76.833,178.411 76.833 C 179.134 76.833,179.333 77.232,179.333 78.679 L 179.333 80.000 180.833 80.000 L 182.333 80.000 182.333 79.250 L 182.333 78.500 183.083 78.500 L 183.833 78.500 183.833 77.000 L 183.833 75.500 183.083 75.500 L 182.333 75.500 182.333 77.000 L 182.333 78.500 181.847 78.500 C 180.885 78.500,180.833 78.419,180.833 76.899 L 180.833 75.500 177.000 75.500 L 173.167 75.500 173.167 77.000 M210.000 77.000 L 210.000 78.500 209.514 78.500 C 208.758 78.500,208.500 78.337,208.497 77.857 C 208.492 76.831,207.140 76.580,207.027 77.583 C 206.948 78.279,206.716 78.500,206.063 78.500 C 205.507 78.500,205.500 78.509,205.500 79.250 L 205.500 80.000 207.750 80.000 L 210.000 80.000 210.000 79.260 L 210.000 78.519 210.708 78.468 L 211.417 78.417 211.465 76.958 L 211.513 75.500 210.756 75.500 L 210.000 75.500 210.000 77.000 M213.167 77.750 L 213.167 80.000 216.167 80.000 L 219.167 80.000 219.167 79.250 C 219.167 78.509,219.160 78.500,218.604 78.500 C 217.950 78.500,217.718 78.279,217.640 77.583 C 217.588 77.125,217.525 77.079,216.875 77.032 L 216.167 76.981 216.167 77.646 C 216.167 78.381,215.833 78.620,215.071 78.429 C 214.166 78.201,214.634 76.833,215.617 76.833 C 216.147 76.833,216.167 76.810,216.167 76.167 L 216.167 75.500 214.667 75.500 L 213.167 75.500 213.167 77.750 M222.333 77.750 L 222.333 80.000 223.083 80.000 L 223.833 80.000 223.833 78.739 C 223.833 77.163,223.993 76.833,224.756 76.833 C 225.318 76.833,225.333 76.816,225.333 76.167 L 225.333 75.500 223.833 75.500 L 222.333 75.500 222.333 77.750 M227.000 76.167 C 227.000 76.816,227.015 76.833,227.577 76.833 C 228.211 76.833,228.562 77.241,228.469 77.867 C 228.321 78.860,227.000 78.678,227.000 77.663 L 227.000 77.000 226.250 77.000 L 225.500 77.000 225.500 78.500 L 225.500 80.000 227.750 80.000 L 230.000 80.000 230.000 78.739 C 230.000 77.163,230.160 76.833,230.923 76.833 C 231.485 76.833,231.500 76.816,231.500 76.167 L 231.500 75.500 229.250 75.500 L 227.000 75.500 227.000 76.167 M236.167 76.167 C 236.167 76.810,236.186 76.833,236.717 76.833 C 237.543 76.833,237.667 77.066,237.667 78.617 L 237.667 80.000 239.250 80.000 L 240.833 80.000 240.833 79.250 L 240.833 78.500 241.583 78.500 L 242.333 78.500 242.333 79.250 L 242.333 80.000 245.417 80.000 L 248.500 80.000 248.500 78.500 L 248.500 77.000 247.750 77.000 C 247.013 77.000,247.000 77.009,247.000 77.550 C 247.000 78.212,246.748 78.500,246.167 78.500 C 245.635 78.500,245.333 78.221,245.333 77.729 C 245.333 77.192,245.772 76.833,246.429 76.833 C 246.984 76.833,247.000 76.815,247.000 76.167 L 247.000 75.500 245.417 75.500 L 243.833 75.500 243.833 76.899 C 243.833 78.419,243.782 78.500,242.820 78.500 L 242.333 78.500 242.333 77.000 L 242.333 75.500 239.250 75.500 L 236.167 75.500 236.167 76.167 M248.500 76.167 L 248.500 76.833 249.250 76.833 L 250.000 76.833 250.000 76.167 L 250.000 75.500 249.250 75.500 L 248.500 75.500 248.500 76.167 M251.667 76.167 C 251.667 76.793,251.696 76.833,252.155 76.833 C 252.989 76.833,253.504 77.763,252.967 78.300 C 252.399 78.868,251.500 78.408,251.500 77.550 C 251.500 77.009,251.487 77.000,250.750 77.000 L 250.000 77.000 250.000 78.500 L 250.000 80.000 252.333 80.000 L 254.667 80.000 254.667 78.617 C 254.667 77.159,254.804 76.833,255.417 76.833 C 255.913 76.833,256.167 77.149,256.167 77.766 C 256.167 78.344,256.382 78.500,257.180 78.500 C 257.646 78.500,257.667 78.532,257.667 79.250 L 257.667 80.000 258.417 80.000 L 259.167 80.000 259.167 79.250 L 259.167 78.500 258.417 78.500 L 257.667 78.500 257.667 77.000 L 257.667 75.500 254.667 75.500 L 251.667 75.500 251.667 76.167 M262.333 76.899 C 262.333 78.419,262.282 78.500,261.320 78.500 C 260.854 78.500,260.833 78.532,260.833 79.250 L 260.833 80.000 267.750 80.000 L 274.667 80.000 274.667 79.250 L 274.667 78.500 275.417 78.500 L 276.167 78.500 276.167 77.750 L 276.167 77.000 275.417 77.000 L 274.667 77.000 274.667 77.750 L 274.667 78.500 274.033 78.500 C 273.256 78.500,273.000 78.265,273.000 77.550 C 273.000 76.637,271.711 76.705,271.635 77.622 C 271.550 78.649,270.179 78.858,270.031 77.867 C 269.938 77.241,270.289 76.833,270.923 76.833 C 271.485 76.833,271.500 76.816,271.500 76.167 L 271.500 75.500 266.917 75.500 L 262.333 75.500 262.333 76.899 M280.833 77.000 L 280.833 78.500 281.583 78.500 L 282.333 78.500 282.333 79.250 L 282.333 80.000 283.083 80.000 L 283.833 80.000 283.833 79.250 L 283.833 78.500 284.593 78.500 L 285.352 78.500 285.301 77.792 C 285.210 76.528,283.842 76.683,283.836 77.958 C 283.833 78.489,283.818 78.500,283.083 78.500 L 282.333 78.500 282.333 77.000 L 282.333 75.500 281.583 75.500 L 280.833 75.500 280.833 77.000 M287.000 76.800 C 287.000 78.262,286.867 78.500,286.050 78.500 C 285.509 78.500,285.500 78.513,285.500 79.250 L 285.500 80.000 289.250 80.000 L 293.000 80.000 293.000 79.250 C 293.000 78.509,292.993 78.500,292.437 78.500 C 291.784 78.500,291.552 78.279,291.473 77.583 C 291.359 76.575,290.008 76.832,290.003 77.864 C 290.000 78.370,289.564 78.594,288.905 78.429 C 288.516 78.331,288.500 78.271,288.500 76.913 L 288.500 75.500 287.750 75.500 L 287.000 75.500 287.000 76.800 M297.667 76.167 L 297.667 76.833 298.417 76.833 L 299.167 76.833 299.167 76.167 L 299.167 75.500 298.417 75.500 L 297.667 75.500 297.667 76.167 M102.133 77.033 C 102.429 77.329,102.385 78.278,102.070 78.399 C 101.262 78.709,100.833 78.524,100.833 77.867 C 100.833 77.155,101.067 76.833,101.583 76.833 C 101.776 76.833,102.023 76.923,102.133 77.033 M111.362 77.109 C 112.040 77.723,111.633 78.500,110.633 78.500 C 110.038 78.500,110.000 78.470,110.000 77.989 C 110.000 76.930,110.679 76.491,111.362 77.109 M114.574 77.384 C 114.783 77.982,114.537 78.398,113.931 78.470 C 113.078 78.572,112.695 77.780,113.283 77.130 C 113.698 76.672,114.371 76.804,114.574 77.384 M117.467 77.033 C 117.577 77.143,117.667 77.479,117.667 77.780 C 117.667 78.694,116.333 78.772,116.198 77.867 C 116.077 77.058,116.931 76.497,117.467 77.033 M163.633 77.033 C 163.743 77.143,163.833 77.518,163.833 77.867 L 163.833 78.500 163.083 78.500 L 162.333 78.500 162.333 77.867 C 162.333 77.155,162.567 76.833,163.083 76.833 C 163.276 76.833,163.523 76.923,163.633 77.033 M240.661 77.156 C 241.079 77.937,240.886 78.500,240.200 78.500 C 239.497 78.500,239.167 78.267,239.167 77.771 C 239.167 76.973,240.311 76.501,240.661 77.156 M265.195 77.109 C 265.800 77.657,265.480 78.500,264.667 78.500 C 263.913 78.500,263.613 77.889,264.006 77.156 C 264.217 76.761,264.785 76.738,265.195 77.109 M268.338 77.175 C 268.749 77.943,268.253 78.641,267.442 78.438 C 267.076 78.346,267.000 78.233,267.000 77.780 C 267.000 76.860,267.942 76.435,268.338 77.175 M87.000 78.500 L 87.000 80.000 88.500 80.000 L 90.000 80.000 90.000 79.250 C 90.000 78.532,90.021 78.500,90.486 78.500 C 91.324 78.500,91.500 78.352,91.500 77.649 C 91.500 77.006,91.494 77.000,90.851 77.000 C 90.148 77.000,90.000 77.176,90.000 78.014 C 90.000 78.440,89.940 78.500,89.514 78.500 C 88.779 78.500,88.500 78.338,88.500 77.912 C 88.500 77.181,88.331 77.000,87.649 77.000 L 87.000 77.000 87.000 78.500 M93.199 77.708 C 93.250 78.413,93.253 78.417,93.958 78.468 L 94.667 78.519 94.667 79.260 L 94.667 80.000 96.917 80.000 L 99.167 80.000 99.167 79.250 C 99.167 78.513,99.157 78.500,98.617 78.500 C 97.919 78.500,97.667 78.245,97.667 77.540 C 97.667 76.651,96.280 76.768,96.195 77.665 C 96.102 78.648,94.667 78.975,94.667 78.014 C 94.667 77.173,94.520 77.000,93.806 77.000 L 93.148 77.000 93.199 77.708 M133.199 77.708 C 133.250 78.413,133.253 78.417,133.958 78.468 L 134.667 78.519 134.667 79.260 L 134.667 80.000 136.917 80.000 L 139.167 80.000 139.167 79.250 C 139.167 78.513,139.157 78.500,138.617 78.500 C 137.921 78.500,137.667 78.245,137.667 77.550 C 137.667 77.022,137.641 77.000,137.018 77.000 C 136.336 77.000,136.167 77.181,136.167 77.912 C 136.167 78.338,135.887 78.500,135.153 78.500 C 134.727 78.500,134.667 78.440,134.667 78.014 C 134.667 77.173,134.520 77.000,133.806 77.000 L 133.148 77.000 133.199 77.708 M139.333 77.760 L 139.333 78.520 139.941 78.468 C 141.146 78.366,141.198 77.000,139.997 77.000 L 139.333 77.000 139.333 77.760 M142.444 77.111 C 142.383 77.172,142.333 77.847,142.333 78.611 L 142.333 80.000 143.083 80.000 L 143.833 80.000 143.833 78.500 L 143.833 77.000 143.194 77.000 C 142.843 77.000,142.506 77.050,142.444 77.111 M145.500 78.500 L 145.500 80.000 146.250 80.000 L 147.000 80.000 147.000 78.500 L 147.000 77.000 146.250 77.000 L 145.500 77.000 145.500 78.500 M151.699 77.708 C 151.749 78.397,151.766 78.417,152.333 78.417 C 152.900 78.417,152.918 78.397,152.968 77.708 L 153.019 77.000 152.333 77.000 L 151.648 77.000 151.699 77.708 M154.778 77.111 C 154.717 77.172,154.667 77.847,154.667 78.611 L 154.667 80.000 155.417 80.000 L 156.167 80.000 156.167 78.500 L 156.167 77.000 155.528 77.000 C 155.176 77.000,154.839 77.050,154.778 77.111 M157.667 78.500 L 157.667 80.000 158.417 80.000 L 159.167 80.000 159.167 78.500 L 159.167 77.000 158.417 77.000 L 157.667 77.000 157.667 78.500 M167.111 77.111 C 167.050 77.172,167.000 77.471,167.000 77.775 C 167.000 78.881,168.373 78.725,168.468 77.608 C 168.519 77.015,167.559 76.663,167.111 77.111 M219.444 77.111 C 218.997 77.559,219.348 78.519,219.941 78.468 C 221.058 78.373,221.214 77.000,220.108 77.000 C 219.804 77.000,219.506 77.050,219.444 77.111 M231.667 78.500 L 231.667 80.000 232.333 80.000 L 233.000 80.000 233.000 78.500 L 233.000 77.000 232.333 77.000 L 231.667 77.000 231.667 78.500 M234.778 77.111 C 234.470 77.419,234.673 78.328,235.071 78.429 C 235.829 78.619,236.167 78.380,236.167 77.655 C 236.167 77.016,235.237 76.652,234.778 77.111 M293.278 77.111 C 292.830 77.559,293.182 78.519,293.775 78.468 C 294.892 78.373,295.048 77.000,293.941 77.000 C 293.637 77.000,293.339 77.050,293.278 77.111 M296.278 77.111 C 295.970 77.419,296.173 78.328,296.571 78.429 C 297.329 78.619,297.667 78.380,297.667 77.655 C 297.667 77.016,296.737 76.652,296.278 77.111 M299.333 78.500 L 299.333 80.000 300.083 80.000 L 300.833 80.000 300.833 78.764 C 300.833 77.125,300.773 77.000,299.982 77.000 L 299.333 77.000 299.333 78.500 M171.667 79.250 L 171.667 80.000 172.333 80.000 L 173.000 80.000 173.000 79.250 L 173.000 78.500 172.333 78.500 L 171.667 78.500 171.667 79.250 M79.133 80.200 C 79.424 80.491,79.424 151.842,79.133 152.133 C 78.876 152.391,78.124 152.391,77.867 152.133 C 77.576 151.842,77.576 80.491,77.867 80.200 C 77.977 80.090,78.262 80.000,78.500 80.000 C 78.738 80.000,79.023 80.090,79.133 80.200 M82.070 80.101 C 82.309 80.193,82.333 83.527,82.333 116.181 L 82.333 152.160 81.929 152.262 C 81.706 152.318,81.369 152.314,81.179 152.254 L 80.833 152.144 80.833 116.169 C 80.833 87.545,80.876 80.177,81.042 80.110 C 81.343 79.989,81.767 79.985,82.070 80.101 " stroke="none" fill="#ffffff" fill-rule="evenodd"></path>
      <path id="path1" d="M79.429 1.762 C 78.990 2.201,79.032 74.827,79.471 75.224 C 79.830 75.548,80.351 75.582,80.633 75.300 C 80.924 75.009,80.924 1.991,80.633 1.700 C 80.353 1.420,79.739 1.451,79.429 1.762 M82.533 1.700 C 82.242 1.991,82.242 75.009,82.533 75.300 C 82.668 75.435,83.430 75.500,84.867 75.500 L 87.000 75.500 87.000 76.167 C 87.000 76.807,86.979 76.833,86.458 76.836 C 85.700 76.839,85.469 77.035,85.350 77.774 C 85.259 78.335,85.183 78.424,84.748 78.473 C 84.113 78.545,83.833 78.779,83.833 79.237 C 83.833 79.864,84.151 80.000,85.617 80.000 L 87.000 80.000 87.000 116.066 C 87.000 148.799,87.024 152.140,87.264 152.232 C 87.605 152.363,89.395 152.363,89.736 152.232 C 89.976 152.140,90.000 148.799,90.000 116.066 L 90.000 80.000 92.333 80.000 L 94.667 80.000 94.667 116.066 C 94.667 148.799,94.691 152.140,94.930 152.232 C 95.434 152.425,98.923 152.343,99.133 152.133 C 99.288 151.979,99.333 143.719,99.333 115.967 L 99.333 80.000 100.083 80.000 L 100.833 80.000 100.833 116.066 C 100.833 148.799,100.858 152.140,101.097 152.232 C 101.439 152.363,103.228 152.363,103.570 152.232 C 103.809 152.140,103.833 148.799,103.833 116.066 L 103.833 80.000 105.417 80.000 L 107.000 80.000 107.000 116.080 L 107.000 152.160 107.442 152.271 C 108.500 152.537,108.412 155.665,108.459 116.024 L 108.501 80.000 109.250 80.000 L 110.000 80.000 110.000 115.967 C 110.000 143.719,110.046 151.979,110.200 152.133 C 110.412 152.345,121.534 152.438,122.070 152.232 C 122.309 152.140,122.333 148.800,122.333 116.075 L 122.333 80.019 123.042 79.968 L 123.750 79.917 123.798 78.458 L 123.846 77.000 124.590 77.000 C 125.323 77.000,125.333 77.008,125.333 77.563 C 125.333 78.235,125.650 78.544,126.265 78.470 C 127.343 78.342,127.220 76.956,126.122 76.865 C 125.560 76.818,125.500 76.767,125.500 76.335 C 125.500 75.763,125.116 75.333,124.605 75.333 C 124.084 75.333,123.833 75.642,123.833 76.283 C 123.833 76.824,123.821 76.833,123.083 76.833 C 122.346 76.833,122.333 76.824,122.333 76.283 C 122.333 75.588,122.079 75.333,121.383 75.333 L 120.833 75.333 120.833 38.617 C 120.833 10.281,120.788 1.854,120.633 1.700 C 120.347 1.413,108.987 1.413,108.700 1.700 C 108.546 1.854,108.500 10.281,108.500 38.617 L 108.500 75.333 107.750 75.333 L 107.000 75.333 107.000 38.617 C 107.000 -0.308,107.038 1.500,106.229 1.500 C 105.265 1.500,105.333 -1.338,105.333 38.679 L 105.333 75.333 104.583 75.333 L 103.833 75.333 103.833 38.617 C 103.833 10.281,103.788 1.854,103.633 1.700 C 103.353 1.420,98.147 1.420,97.867 1.700 C 97.712 1.854,97.667 10.281,97.667 38.617 L 97.667 75.333 95.417 75.333 L 93.167 75.333 93.167 38.679 C 93.167 -1.076,93.224 1.500,92.333 1.500 C 91.442 1.500,91.500 -1.076,91.500 38.679 L 91.500 75.333 89.250 75.333 L 87.000 75.333 87.000 38.617 C 87.000 10.281,86.954 1.854,86.800 1.700 C 86.524 1.424,82.809 1.424,82.533 1.700 M127.208 1.610 C 126.910 1.731,126.901 75.001,127.200 75.300 C 127.310 75.410,127.647 75.500,127.950 75.500 L 128.500 75.500 128.500 76.899 C 128.500 78.419,128.551 78.500,129.514 78.500 C 129.979 78.500,130.000 78.532,130.000 79.250 L 130.000 80.000 127.867 80.000 C 126.430 80.000,125.668 80.065,125.533 80.200 C 125.242 80.491,125.242 151.842,125.533 152.133 C 125.743 152.343,129.233 152.425,129.736 152.232 C 129.976 152.140,130.000 148.799,130.000 116.066 L 130.000 80.000 132.333 80.000 L 134.667 80.000 134.667 116.066 C 134.667 148.799,134.691 152.140,134.930 152.232 C 135.434 152.425,138.923 152.343,139.133 152.133 C 139.288 151.979,139.333 143.719,139.333 115.967 L 139.333 80.000 140.833 80.000 L 142.333 80.000 142.333 116.080 L 142.333 152.160 142.738 152.262 C 142.961 152.318,143.298 152.314,143.488 152.254 L 143.833 152.144 143.833 116.072 L 143.833 80.000 144.583 80.000 L 145.333 80.000 145.333 115.967 C 145.333 143.719,145.379 151.979,145.533 152.133 C 145.791 152.391,146.542 152.391,146.800 152.133 C 146.954 151.979,147.000 143.719,147.000 115.967 L 147.000 80.000 150.833 80.000 L 154.667 80.000 154.667 116.080 L 154.667 152.160 155.071 152.262 C 155.294 152.318,155.631 152.314,155.821 152.254 L 156.167 152.144 156.167 116.072 L 156.167 80.000 156.917 80.000 L 157.667 80.000 157.667 115.967 C 157.667 143.719,157.712 151.979,157.867 152.133 C 158.124 152.391,158.876 152.391,159.133 152.133 C 159.288 151.979,159.333 143.719,159.333 115.967 L 159.333 80.000 160.833 80.000 L 162.333 80.000 162.333 116.080 L 162.333 152.160 162.738 152.262 C 162.961 152.318,163.298 152.314,163.488 152.254 L 163.833 152.144 163.833 116.072 L 163.833 80.000 167.667 80.000 L 171.500 80.000 171.500 115.967 C 171.500 143.719,171.546 151.979,171.700 152.133 C 171.958 152.391,172.709 152.391,172.967 152.133 C 173.121 151.979,173.167 143.719,173.167 115.967 L 173.167 80.000 176.167 80.000 L 179.167 80.000 179.167 115.967 C 179.167 143.719,179.212 151.979,179.367 152.133 C 179.574 152.341,181.594 152.415,182.070 152.232 C 182.309 152.140,182.333 148.800,182.333 116.075 L 182.333 80.019 183.042 79.968 C 183.747 79.917,183.750 79.913,183.801 79.208 L 183.852 78.500 184.593 78.500 C 185.319 78.500,185.333 78.510,185.333 79.050 C 185.333 79.765,185.589 80.000,186.367 80.000 L 187.000 80.000 187.000 116.066 C 187.000 148.799,187.024 152.140,187.264 152.232 C 187.605 152.363,189.395 152.363,189.736 152.232 C 189.976 152.140,190.000 148.799,190.000 116.066 L 190.000 80.000 190.633 80.000 C 191.513 80.000,191.667 79.776,191.667 78.492 C 191.667 77.292,191.400 76.833,190.701 76.833 C 190.180 76.833,190.000 77.322,190.000 78.739 L 190.000 80.000 188.500 80.000 L 187.000 80.000 187.000 79.260 C 187.000 78.529,187.007 78.519,187.608 78.468 C 188.360 78.404,188.634 78.032,188.407 77.384 C 188.065 76.408,187.000 76.763,187.000 77.854 L 187.000 78.500 186.250 78.500 L 185.500 78.500 185.500 77.000 L 185.500 75.500 189.250 75.500 L 193.000 75.500 193.000 77.550 C 193.000 79.805,193.074 80.000,193.932 80.000 C 194.624 80.000,194.667 79.859,194.667 77.603 C 194.667 75.533,194.583 75.333,193.717 75.333 L 193.167 75.333 193.167 38.679 C 193.167 5.578,193.141 1.998,192.905 1.762 C 192.514 1.371,185.986 1.371,185.595 1.762 C 185.359 1.998,185.333 5.578,185.333 38.679 L 185.333 75.333 184.583 75.333 L 183.833 75.333 183.833 38.617 C 183.833 -0.180,183.867 1.500,183.083 1.500 C 182.299 1.500,182.333 -0.180,182.333 38.617 L 182.333 75.333 181.583 75.333 L 180.833 75.333 180.833 38.617 C 180.833 10.281,180.788 1.854,180.633 1.700 C 180.299 1.366,173.601 1.422,173.262 1.762 C 173.025 1.998,173.000 5.578,173.000 38.679 L 173.000 75.333 172.333 75.333 L 171.667 75.333 171.667 38.679 C 171.667 5.578,171.641 1.998,171.405 1.762 C 171.083 1.440,169.008 1.392,168.700 1.700 C 168.546 1.854,168.500 10.281,168.500 38.617 L 168.500 75.333 167.000 75.333 L 165.500 75.333 165.500 38.679 C 165.500 5.578,165.475 1.998,165.238 1.762 C 164.851 1.375,159.816 1.375,159.429 1.762 C 159.192 1.998,159.167 5.578,159.167 38.679 L 159.167 75.333 158.417 75.333 L 157.667 75.333 157.667 38.503 L 157.667 1.673 157.224 1.562 C 156.166 1.296,156.254 -1.908,156.208 38.560 L 156.166 75.333 153.916 75.333 L 151.667 75.333 151.667 38.679 C 151.667 5.578,151.641 1.998,151.405 1.762 C 151.136 1.493,147.875 1.367,147.264 1.601 C 147.024 1.693,147.000 5.101,147.000 38.518 L 147.000 75.333 146.250 75.333 L 145.500 75.333 145.500 38.679 C 145.500 -1.338,145.568 1.500,144.605 1.500 C 143.796 1.500,143.833 -0.308,143.833 38.617 L 143.833 75.333 141.583 75.333 L 139.333 75.333 139.333 38.679 C 139.333 -1.338,139.402 1.500,138.438 1.500 C 137.629 1.500,137.667 -0.308,137.667 38.617 L 137.667 75.333 135.417 75.333 L 133.167 75.333 133.167 38.679 C 133.167 5.578,133.141 1.998,132.905 1.762 C 132.583 1.440,130.508 1.392,130.200 1.700 C 130.046 1.854,130.000 10.281,130.000 38.617 L 130.000 75.333 129.250 75.333 L 128.500 75.333 128.500 38.617 C 128.500 10.281,128.454 1.854,128.300 1.700 C 128.098 1.498,127.591 1.456,127.208 1.610 M202.533 1.700 C 202.242 1.991,202.242 75.009,202.533 75.300 C 202.655 75.421,203.244 75.500,204.033 75.500 L 205.333 75.500 205.333 77.000 L 205.333 78.500 204.583 78.500 L 203.833 78.500 203.833 77.867 C 203.833 76.940,203.098 76.469,202.533 77.033 C 201.915 77.652,202.385 78.500,203.347 78.500 C 203.812 78.500,203.833 78.532,203.833 79.250 C 203.833 79.968,203.812 80.000,203.347 80.000 C 203.079 80.000,202.742 80.046,202.597 80.101 C 202.358 80.193,202.333 83.527,202.333 116.181 L 202.333 152.160 202.738 152.262 C 202.961 152.318,203.298 152.314,203.488 152.254 L 203.833 152.144 203.833 116.072 L 203.833 80.000 204.583 80.000 L 205.333 80.000 205.333 115.967 C 205.333 143.719,205.379 151.979,205.533 152.133 C 205.743 152.343,209.233 152.425,209.736 152.232 C 209.976 152.140,210.000 148.799,210.000 116.066 L 210.000 80.000 211.500 80.000 L 213.000 80.000 213.000 115.967 C 213.000 143.719,213.046 151.979,213.200 152.133 C 213.481 152.414,218.853 152.414,219.133 152.133 C 219.288 151.979,219.333 143.719,219.333 115.967 L 219.333 80.000 220.833 80.000 L 222.333 80.000 222.333 116.080 L 222.333 152.160 222.738 152.262 C 222.961 152.318,223.298 152.314,223.488 152.254 L 223.833 152.144 223.833 116.072 L 223.833 80.000 224.583 80.000 L 225.333 80.000 225.333 115.967 C 225.333 143.719,225.379 151.979,225.533 152.133 C 225.743 152.343,229.233 152.425,229.736 152.232 C 229.976 152.140,230.000 148.799,230.000 116.066 L 230.000 80.000 230.750 80.000 L 231.500 80.000 231.500 115.967 C 231.500 143.719,231.546 151.979,231.700 152.133 C 231.958 152.391,232.709 152.391,232.967 152.133 C 233.121 151.979,233.167 143.719,233.167 115.967 L 233.167 80.000 235.417 80.000 L 237.667 80.000 237.667 115.967 C 237.667 143.719,237.712 151.979,237.867 152.133 C 238.132 152.399,240.368 152.399,240.633 152.133 C 240.788 151.979,240.833 143.719,240.833 115.967 L 240.833 80.000 241.583 80.000 L 242.333 80.000 242.333 116.066 C 242.333 148.799,242.358 152.140,242.597 152.232 C 243.114 152.430,248.089 152.344,248.300 152.133 C 248.454 151.979,248.500 143.719,248.500 115.967 L 248.500 80.000 249.250 80.000 L 250.000 80.000 250.000 115.967 C 250.000 143.719,250.046 151.979,250.200 152.133 C 250.476 152.409,254.191 152.409,254.467 152.133 C 254.621 151.979,254.667 143.719,254.667 115.967 L 254.667 80.000 256.167 80.000 L 257.667 80.000 257.667 115.967 C 257.667 143.719,257.712 151.979,257.867 152.133 C 257.977 152.243,258.262 152.333,258.500 152.333 C 258.738 152.333,259.023 152.243,259.133 152.133 C 259.288 151.979,259.333 143.719,259.333 115.967 L 259.333 80.000 260.083 80.000 L 260.833 80.000 260.833 116.066 C 260.833 148.799,260.858 152.140,261.097 152.232 C 261.634 152.438,274.255 152.345,274.467 152.133 C 274.621 151.979,274.667 143.721,274.667 115.976 L 274.667 80.019 275.375 79.968 C 276.080 79.917,276.084 79.913,276.135 79.208 C 276.182 78.552,276.221 78.500,276.663 78.500 C 277.451 78.500,277.667 78.342,277.667 77.766 C 277.667 77.088,277.408 76.833,276.717 76.833 C 276.206 76.833,276.167 76.794,276.167 76.283 C 276.167 75.650,275.917 75.333,275.417 75.333 C 274.917 75.333,274.667 75.650,274.667 76.283 C 274.667 76.824,274.654 76.833,273.917 76.833 C 273.199 76.833,273.167 76.813,273.167 76.345 C 273.167 75.723,272.777 75.333,272.155 75.333 L 271.667 75.333 271.667 38.679 C 271.667 5.578,271.641 1.998,271.405 1.762 C 271.064 1.421,262.870 1.364,262.533 1.700 C 262.379 1.854,262.333 10.281,262.333 38.617 L 262.333 75.333 261.847 75.333 C 260.877 75.333,260.833 75.407,260.833 77.018 L 260.833 78.500 260.083 78.500 L 259.333 78.500 259.333 77.179 C 259.333 75.658,259.141 75.333,258.238 75.333 L 257.667 75.333 257.667 38.518 C 257.667 5.101,257.642 1.693,257.403 1.601 C 256.770 1.358,252.031 1.493,251.762 1.762 C 251.525 1.998,251.500 5.578,251.500 38.679 L 251.500 75.333 250.750 75.333 L 250.000 75.333 250.000 38.617 C 250.000 -0.180,250.034 1.500,249.250 1.500 C 248.466 1.500,248.500 -0.180,248.500 38.617 L 248.500 75.333 247.750 75.333 L 247.000 75.333 247.000 38.617 C 247.000 10.281,246.954 1.854,246.800 1.700 C 246.535 1.435,244.299 1.435,244.033 1.700 C 243.879 1.854,243.833 10.281,243.833 38.617 L 243.833 75.333 243.083 75.333 L 242.333 75.333 242.333 38.617 C 242.333 10.281,242.288 1.854,242.133 1.700 C 241.853 1.420,236.647 1.420,236.367 1.700 C 236.212 1.854,236.167 10.281,236.167 38.617 L 236.167 75.333 233.917 75.333 L 231.667 75.333 231.667 38.679 C 231.667 5.578,231.641 1.998,231.405 1.762 C 231.136 1.493,227.875 1.367,227.264 1.601 C 227.024 1.693,227.000 5.101,227.000 38.518 L 227.000 75.333 226.250 75.333 L 225.500 75.333 225.500 38.679 C 225.500 5.578,225.475 1.998,225.238 1.762 C 224.916 1.440,222.841 1.392,222.533 1.700 C 222.379 1.854,222.333 10.281,222.333 38.617 L 222.333 75.333 219.250 75.333 L 216.167 75.333 216.167 38.617 C 216.167 10.281,216.121 1.854,215.967 1.700 C 215.659 1.392,213.584 1.440,213.262 1.762 C 213.025 1.998,213.000 5.578,213.000 38.679 L 213.000 75.333 212.333 75.333 L 211.667 75.333 211.667 38.679 C 211.667 -1.338,211.735 1.500,210.771 1.500 C 209.962 1.500,210.000 -0.308,210.000 38.617 L 210.000 75.333 207.750 75.333 L 205.500 75.333 205.500 38.679 C 205.500 5.578,205.475 1.998,205.238 1.762 C 204.916 1.440,202.841 1.392,202.533 1.700 M277.867 1.700 C 277.576 1.991,277.576 75.009,277.867 75.300 C 277.977 75.410,278.314 75.500,278.617 75.500 L 279.167 75.500 279.167 76.800 C 279.167 78.290,279.294 78.500,280.200 78.500 L 280.833 78.500 280.833 79.250 L 280.833 80.000 279.450 80.000 C 278.596 80.000,277.990 80.077,277.867 80.200 C 277.576 80.491,277.576 151.842,277.867 152.133 C 278.132 152.399,280.368 152.399,280.633 152.133 C 280.788 151.979,280.833 143.719,280.833 115.967 L 280.833 80.000 281.583 80.000 L 282.333 80.000 282.333 116.072 L 282.333 152.144 282.679 152.254 C 282.869 152.314,283.206 152.318,283.429 152.262 L 283.833 152.160 283.833 116.080 L 283.833 80.000 284.583 80.000 L 285.333 80.000 285.333 115.967 C 285.333 143.719,285.379 151.979,285.533 152.133 C 285.816 152.416,292.684 152.416,292.967 152.133 C 293.121 151.979,293.167 143.719,293.167 115.967 L 293.167 80.000 296.167 80.000 L 299.167 80.000 299.167 115.967 C 299.167 143.719,299.212 151.979,299.367 152.133 C 299.624 152.391,300.376 152.391,300.633 152.133 C 300.788 151.979,300.833 143.719,300.833 115.967 L 300.833 80.000 301.583 80.000 L 302.333 80.000 302.333 116.066 C 302.333 148.799,302.358 152.140,302.597 152.232 C 303.101 152.425,306.590 152.343,306.800 152.133 C 307.091 151.842,307.091 80.491,306.800 80.200 C 306.665 80.065,305.904 80.000,304.467 80.000 L 302.333 80.000 302.333 77.750 L 302.333 75.500 303.641 75.500 C 304.696 75.500,305.002 75.441,305.224 75.195 C 305.638 74.738,305.651 2.175,305.238 1.762 C 304.916 1.440,302.841 1.392,302.533 1.700 C 302.379 1.854,302.333 10.281,302.333 38.617 L 302.333 75.333 300.833 75.333 L 299.333 75.333 299.333 38.679 C 299.333 -1.338,299.402 1.500,298.438 1.500 C 297.629 1.500,297.667 -0.308,297.667 38.617 L 297.667 75.333 293.084 75.333 L 288.501 75.333 288.459 38.560 C 288.412 -1.908,288.500 1.296,287.442 1.562 L 287.000 1.673 287.000 38.503 L 287.000 75.333 284.667 75.333 L 282.334 75.333 282.292 38.560 C 282.246 -1.908,282.334 1.296,281.276 1.562 L 280.833 1.673 280.833 38.503 L 280.833 75.333 280.083 75.333 L 279.333 75.333 279.333 38.679 C 279.333 5.578,279.308 1.998,279.071 1.762 C 278.761 1.451,278.147 1.420,277.867 1.700 M307.208 1.610 C 306.910 1.731,306.901 75.001,307.200 75.300 C 307.457 75.557,308.043 75.557,308.300 75.300 C 308.591 75.009,308.591 1.991,308.300 1.700 C 308.098 1.498,307.591 1.456,307.208 1.610 M196.367 75.533 C 196.134 75.766,196.087 79.449,196.312 79.804 C 196.396 79.937,196.677 80.003,197.017 79.971 L 197.583 79.917 197.630 77.763 C 197.680 75.496,197.634 75.341,196.908 75.336 C 196.720 75.334,196.477 75.423,196.367 75.533 M199.429 75.595 C 199.222 75.802,199.167 76.249,199.167 77.729 C 199.167 79.744,199.261 80.000,200.000 80.000 C 200.238 80.000,200.523 79.910,200.633 79.800 C 200.909 79.524,200.909 75.809,200.633 75.533 C 200.353 75.253,199.739 75.284,199.429 75.595 M93.000 76.167 L 93.000 76.833 92.333 76.833 L 91.667 76.833 91.667 76.167 L 91.667 75.500 92.333 75.500 L 93.000 75.500 93.000 76.167 M103.833 77.750 L 103.833 80.000 102.333 80.000 L 100.833 80.000 100.833 79.250 L 100.833 78.500 100.083 78.500 C 99.340 78.500,99.333 78.495,99.333 77.929 C 99.333 77.614,99.215 77.239,99.071 77.095 C 98.927 76.951,98.552 76.833,98.238 76.833 C 97.683 76.833,97.667 76.815,97.667 76.167 L 97.667 75.500 100.750 75.500 L 103.833 75.500 103.833 77.750 M107.000 77.000 L 107.000 78.500 107.750 78.500 L 108.500 78.500 108.500 77.000 L 108.500 75.500 114.667 75.500 L 120.833 75.500 120.833 76.167 C 120.833 76.804,120.810 76.833,120.305 76.833 C 119.398 76.833,118.814 77.747,119.367 78.300 C 119.935 78.868,120.833 78.408,120.833 77.550 C 120.833 77.009,120.846 77.000,121.583 77.000 L 122.333 77.000 122.333 78.500 L 122.333 80.000 116.167 80.000 L 110.000 80.000 110.000 79.250 L 110.000 78.500 109.250 78.500 L 108.500 78.500 108.500 79.250 L 108.500 80.000 107.750 80.000 L 107.000 80.000 107.000 79.260 L 107.000 78.519 106.292 78.468 L 105.583 78.417 105.535 76.958 L 105.487 75.500 106.244 75.500 L 107.000 75.500 107.000 77.000 M133.000 76.167 C 133.000 76.782,132.965 76.834,132.542 76.836 C 131.868 76.840,131.632 77.056,131.516 77.774 C 131.417 78.391,131.385 78.419,130.706 78.468 L 130.000 78.519 130.000 77.010 L 130.000 75.500 131.500 75.500 L 133.000 75.500 133.000 76.167 M139.167 76.167 L 139.167 76.833 138.417 76.833 L 137.667 76.833 137.667 76.167 L 137.667 75.500 138.417 75.500 L 139.167 75.500 139.167 76.167 M145.333 76.167 L 145.333 76.833 144.583 76.833 L 143.833 76.833 143.833 76.167 L 143.833 75.500 144.583 75.500 L 145.333 75.500 145.333 76.167 M151.500 76.167 C 151.500 76.816,151.485 76.833,150.923 76.833 C 150.290 76.833,150.000 77.167,150.000 77.894 C 150.000 78.369,149.547 78.590,148.905 78.429 C 148.609 78.354,148.500 78.213,148.500 77.903 C 148.500 77.167,148.212 76.833,147.577 76.833 C 147.015 76.833,147.000 76.816,147.000 76.167 L 147.000 75.500 149.250 75.500 L 151.500 75.500 151.500 76.167 M157.667 76.167 L 157.667 76.833 156.917 76.833 L 156.167 76.833 156.167 76.167 L 156.167 75.500 156.917 75.500 L 157.667 75.500 157.667 76.167 M165.298 76.958 L 165.250 78.417 164.542 78.468 L 163.833 78.519 163.833 79.260 L 163.833 80.000 163.083 80.000 L 162.333 80.000 162.333 79.250 C 162.333 78.532,162.312 78.500,161.847 78.500 C 161.103 78.500,160.833 78.337,160.833 77.888 C 160.833 77.167,160.542 76.833,159.911 76.833 C 159.348 76.833,159.333 76.816,159.333 76.167 L 159.333 75.500 162.340 75.500 L 165.346 75.500 165.298 76.958 M171.500 77.000 L 171.500 78.500 170.950 78.500 C 170.288 78.500,170.000 78.248,170.000 77.667 C 170.000 77.086,169.712 76.833,169.050 76.833 C 168.519 76.833,168.500 76.810,168.500 76.167 L 168.500 75.500 170.000 75.500 L 171.500 75.500 171.500 77.000 M180.833 76.899 C 180.833 78.419,180.885 78.500,181.847 78.500 L 182.333 78.500 182.333 77.000 L 182.333 75.500 183.083 75.500 L 183.833 75.500 183.833 77.000 L 183.833 78.500 183.083 78.500 L 182.333 78.500 182.333 79.250 L 182.333 80.000 180.833 80.000 L 179.333 80.000 179.333 78.679 C 179.333 77.232,179.134 76.833,178.411 76.833 C 177.966 76.833,177.667 77.260,177.667 77.894 C 177.667 78.369,177.213 78.590,176.571 78.429 C 176.246 78.347,176.167 78.220,176.167 77.780 C 176.167 77.150,175.916 76.833,175.417 76.833 C 174.945 76.833,174.667 77.143,174.667 77.667 C 174.667 78.248,174.379 78.500,173.717 78.500 L 173.167 78.500 173.167 77.000 L 173.167 75.500 177.000 75.500 L 180.833 75.500 180.833 76.899 M211.465 76.958 L 211.417 78.417 210.708 78.468 L 210.000 78.519 210.000 79.260 L 210.000 80.000 207.750 80.000 L 205.500 80.000 205.500 79.250 C 205.500 78.509,205.507 78.500,206.063 78.500 C 206.716 78.500,206.948 78.279,207.027 77.583 C 207.140 76.580,208.492 76.831,208.497 77.857 C 208.500 78.337,208.758 78.500,209.514 78.500 L 210.000 78.500 210.000 77.000 L 210.000 75.500 210.756 75.500 L 211.513 75.500 211.465 76.958 M216.167 76.167 C 216.167 76.810,216.147 76.833,215.617 76.833 C 214.634 76.833,214.166 78.201,215.071 78.429 C 215.833 78.620,216.167 78.381,216.167 77.646 L 216.167 76.981 216.875 77.032 C 217.525 77.079,217.588 77.125,217.640 77.583 C 217.718 78.279,217.950 78.500,218.604 78.500 C 219.160 78.500,219.167 78.509,219.167 79.250 L 219.167 80.000 216.167 80.000 L 213.167 80.000 213.167 77.750 L 213.167 75.500 214.667 75.500 L 216.167 75.500 216.167 76.167 M225.333 76.167 C 225.333 76.816,225.318 76.833,224.756 76.833 C 223.993 76.833,223.833 77.163,223.833 78.739 L 223.833 80.000 223.083 80.000 L 222.333 80.000 222.333 77.750 L 222.333 75.500 223.833 75.500 L 225.333 75.500 225.333 76.167 M231.500 76.167 C 231.500 76.816,231.485 76.833,230.923 76.833 C 230.160 76.833,230.000 77.163,230.000 78.739 L 230.000 80.000 227.750 80.000 L 225.500 80.000 225.500 78.500 L 225.500 77.000 226.250 77.000 L 227.000 77.000 227.000 77.663 C 227.000 78.678,228.321 78.860,228.469 77.867 C 228.562 77.241,228.211 76.833,227.577 76.833 C 227.015 76.833,227.000 76.816,227.000 76.167 L 227.000 75.500 229.250 75.500 L 231.500 75.500 231.500 76.167 M242.333 77.000 L 242.333 78.500 242.820 78.500 C 243.782 78.500,243.833 78.419,243.833 76.899 L 243.833 75.500 245.417 75.500 L 247.000 75.500 247.000 76.167 C 247.000 76.815,246.984 76.833,246.429 76.833 C 245.519 76.833,244.968 77.735,245.533 78.300 C 246.101 78.868,247.000 78.408,247.000 77.550 C 247.000 77.009,247.013 77.000,247.750 77.000 L 248.500 77.000 248.500 78.500 L 248.500 80.000 245.417 80.000 L 242.333 80.000 242.333 79.250 L 242.333 78.500 241.583 78.500 L 240.833 78.500 240.833 79.250 L 240.833 80.000 239.250 80.000 L 237.667 80.000 237.667 78.617 C 237.667 77.066,237.543 76.833,236.717 76.833 C 236.186 76.833,236.167 76.810,236.167 76.167 L 236.167 75.500 239.250 75.500 L 242.333 75.500 242.333 77.000 M250.000 76.167 L 250.000 76.833 249.250 76.833 L 248.500 76.833 248.500 76.167 L 248.500 75.500 249.250 75.500 L 250.000 75.500 250.000 76.167 M257.667 77.000 L 257.667 78.500 258.417 78.500 L 259.167 78.500 259.167 79.250 L 259.167 80.000 258.417 80.000 L 257.667 80.000 257.667 79.250 C 257.667 78.532,257.646 78.500,257.180 78.500 C 256.382 78.500,256.167 78.344,256.167 77.766 C 256.167 77.149,255.913 76.833,255.417 76.833 C 254.804 76.833,254.667 77.159,254.667 78.617 L 254.667 80.000 252.333 80.000 L 250.000 80.000 250.000 78.500 L 250.000 77.000 250.750 77.000 C 251.487 77.000,251.500 77.009,251.500 77.550 C 251.500 78.212,251.752 78.500,252.333 78.500 C 252.865 78.500,253.167 78.221,253.167 77.729 C 253.167 77.215,252.736 76.833,252.155 76.833 C 251.696 76.833,251.667 76.793,251.667 76.167 L 251.667 75.500 254.667 75.500 L 257.667 75.500 257.667 77.000 M271.500 76.167 C 271.500 76.816,271.485 76.833,270.923 76.833 C 270.289 76.833,269.938 77.241,270.031 77.867 C 270.179 78.858,271.550 78.649,271.635 77.622 C 271.711 76.705,273.000 76.637,273.000 77.550 C 273.000 78.265,273.256 78.500,274.033 78.500 L 274.667 78.500 274.667 77.750 L 274.667 77.000 275.417 77.000 L 276.167 77.000 276.167 77.750 L 276.167 78.500 275.417 78.500 L 274.667 78.500 274.667 79.250 L 274.667 80.000 267.750 80.000 L 260.833 80.000 260.833 79.250 C 260.833 78.532,260.854 78.500,261.320 78.500 C 262.282 78.500,262.333 78.419,262.333 76.899 L 262.333 75.500 266.917 75.500 L 271.500 75.500 271.500 76.167 M282.333 77.000 L 282.333 78.500 283.083 78.500 C 283.818 78.500,283.833 78.489,283.836 77.958 C 283.842 76.683,285.210 76.528,285.301 77.792 L 285.352 78.500 284.593 78.500 L 283.833 78.500 283.833 79.250 L 283.833 80.000 283.083 80.000 L 282.333 80.000 282.333 79.250 L 282.333 78.500 281.583 78.500 L 280.833 78.500 280.833 77.000 L 280.833 75.500 281.583 75.500 L 282.333 75.500 282.333 77.000 M288.500 76.913 C 288.500 78.271,288.516 78.331,288.905 78.429 C 289.564 78.594,290.000 78.370,290.003 77.864 C 290.008 76.832,291.359 76.575,291.473 77.583 C 291.552 78.279,291.784 78.500,292.437 78.500 C 292.993 78.500,293.000 78.509,293.000 79.250 L 293.000 80.000 289.250 80.000 L 285.500 80.000 285.500 79.250 C 285.500 78.513,285.509 78.500,286.050 78.500 C 286.867 78.500,287.000 78.262,287.000 76.800 L 287.000 75.500 287.750 75.500 L 288.500 75.500 288.500 76.913 M299.167 76.167 L 299.167 76.833 298.417 76.833 L 297.667 76.833 297.667 76.167 L 297.667 75.500 298.417 75.500 L 299.167 75.500 299.167 76.167 M101.033 77.033 C 100.281 77.785,101.045 78.792,102.070 78.399 C 102.699 78.157,102.288 76.833,101.583 76.833 C 101.391 76.833,101.143 76.923,101.033 77.033 M110.173 77.156 C 109.755 77.937,109.948 78.500,110.633 78.500 C 111.348 78.500,111.667 78.266,111.667 77.742 C 111.667 76.968,110.515 76.515,110.173 77.156 M113.283 77.130 C 112.695 77.780,113.078 78.572,113.931 78.470 C 114.537 78.398,114.783 77.982,114.574 77.384 C 114.371 76.804,113.698 76.672,113.283 77.130 M116.329 77.175 C 115.918 77.943,116.414 78.641,117.224 78.438 C 117.591 78.346,117.667 78.233,117.667 77.780 C 117.667 76.860,116.725 76.435,116.329 77.175 M162.533 77.033 C 162.423 77.143,162.333 77.518,162.333 77.867 L 162.333 78.500 163.083 78.500 L 163.833 78.500 163.833 77.867 C 163.833 77.155,163.600 76.833,163.083 76.833 C 162.891 76.833,162.643 76.923,162.533 77.033 M239.442 77.138 C 238.829 77.816,239.210 78.500,240.200 78.500 C 240.796 78.500,240.833 78.470,240.833 77.989 C 240.833 76.921,240.064 76.451,239.442 77.138 M264.006 77.156 C 263.613 77.889,263.913 78.500,264.667 78.500 C 265.193 78.500,265.500 78.221,265.500 77.742 C 265.500 76.968,264.348 76.515,264.006 77.156 M267.200 77.033 C 267.090 77.143,267.000 77.479,267.000 77.780 C 267.000 78.694,268.334 78.772,268.469 77.867 C 268.589 77.058,267.736 76.497,267.200 77.033 M88.399 77.264 C 88.454 77.409,88.500 77.701,88.500 77.912 C 88.500 78.338,88.779 78.500,89.514 78.500 C 89.940 78.500,90.000 78.440,90.000 78.014 C 90.000 77.176,90.148 77.000,90.851 77.000 C 91.494 77.000,91.500 77.006,91.500 77.649 C 91.500 78.352,91.324 78.500,90.486 78.500 C 90.021 78.500,90.000 78.532,90.000 79.250 L 90.000 80.000 88.500 80.000 L 87.000 80.000 87.000 78.500 L 87.000 77.000 87.649 77.000 C 88.087 77.000,88.331 77.086,88.399 77.264 M94.566 77.264 C 94.621 77.409,94.667 77.746,94.667 78.014 C 94.667 78.975,96.102 78.648,96.195 77.665 C 96.280 76.768,97.667 76.651,97.667 77.540 C 97.667 78.245,97.919 78.500,98.617 78.500 C 99.157 78.500,99.167 78.513,99.167 79.250 L 99.167 80.000 96.917 80.000 L 94.667 80.000 94.667 79.260 L 94.667 78.519 93.958 78.468 C 93.253 78.417,93.250 78.413,93.199 77.708 L 93.148 77.000 93.806 77.000 C 94.253 77.000,94.497 77.085,94.566 77.264 M134.566 77.264 C 134.621 77.409,134.667 77.746,134.667 78.014 C 134.667 78.440,134.727 78.500,135.153 78.500 C 135.887 78.500,136.167 78.338,136.167 77.912 C 136.167 77.181,136.336 77.000,137.018 77.000 C 137.641 77.000,137.667 77.022,137.667 77.550 C 137.667 78.245,137.921 78.500,138.617 78.500 C 139.157 78.500,139.167 78.513,139.167 79.250 L 139.167 80.000 136.917 80.000 L 134.667 80.000 134.667 79.260 L 134.667 78.519 133.958 78.468 C 133.253 78.417,133.250 78.413,133.199 77.708 L 133.148 77.000 133.806 77.000 C 134.253 77.000,134.497 77.085,134.566 77.264 M140.771 77.442 C 140.928 78.065,140.650 78.408,139.941 78.468 L 139.333 78.520 139.333 77.760 L 139.333 77.000 139.997 77.000 C 140.576 77.000,140.674 77.056,140.771 77.442 M143.833 78.500 L 143.833 80.000 143.083 80.000 L 142.333 80.000 142.333 78.611 C 142.333 77.015,142.341 77.000,143.194 77.000 L 143.833 77.000 143.833 78.500 M147.000 78.500 L 147.000 80.000 146.250 80.000 L 145.500 80.000 145.500 78.500 L 145.500 77.000 146.250 77.000 L 147.000 77.000 147.000 78.500 M152.968 77.708 C 152.918 78.397,152.900 78.417,152.333 78.417 C 151.766 78.417,151.749 78.397,151.699 77.708 L 151.648 77.000 152.333 77.000 L 153.019 77.000 152.968 77.708 M156.167 78.500 L 156.167 80.000 155.417 80.000 L 154.667 80.000 154.667 78.611 C 154.667 77.015,154.675 77.000,155.528 77.000 L 156.167 77.000 156.167 78.500 M159.167 78.500 L 159.167 80.000 158.417 80.000 L 157.667 80.000 157.667 78.500 L 157.667 77.000 158.417 77.000 L 159.167 77.000 159.167 78.500 M168.468 77.608 C 168.373 78.725,167.000 78.881,167.000 77.775 C 167.000 77.072,167.081 77.000,167.871 77.000 C 168.516 77.000,168.520 77.004,168.468 77.608 M220.771 77.442 C 220.928 78.065,220.650 78.408,219.941 78.468 C 219.337 78.520,219.333 78.516,219.333 77.871 C 219.333 76.855,220.534 76.497,220.771 77.442 M233.000 78.500 L 233.000 80.000 232.333 80.000 L 231.667 80.000 231.667 78.500 L 231.667 77.000 232.333 77.000 L 233.000 77.000 233.000 78.500 M236.167 77.655 C 236.167 78.380,235.829 78.619,235.071 78.429 C 234.166 78.201,234.550 77.000,235.528 77.000 C 236.160 77.000,236.167 77.007,236.167 77.655 M294.605 77.442 C 294.761 78.065,294.483 78.408,293.775 78.468 C 293.170 78.520,293.167 78.516,293.167 77.871 C 293.167 76.855,294.367 76.497,294.605 77.442 M297.667 77.655 C 297.667 78.380,297.329 78.619,296.571 78.429 C 295.666 78.201,296.050 77.000,297.028 77.000 C 297.660 77.000,297.667 77.007,297.667 77.655 M300.732 77.264 C 300.788 77.409,300.833 78.084,300.833 78.764 L 300.833 80.000 300.083 80.000 L 299.333 80.000 299.333 78.500 L 299.333 77.000 299.982 77.000 C 300.420 77.000,300.664 77.086,300.732 77.264 M173.000 79.250 L 173.000 80.000 172.333 80.000 L 171.667 80.000 171.667 79.250 L 171.667 78.500 172.333 78.500 L 173.000 78.500 173.000 79.250 M77.867 80.200 C 77.576 80.491,77.576 151.842,77.867 152.133 C 78.124 152.391,78.876 152.391,79.133 152.133 C 79.424 151.842,79.424 80.491,79.133 80.200 C 79.023 80.090,78.738 80.000,78.500 80.000 C 78.262 80.000,77.977 80.090,77.867 80.200 M81.042 80.110 C 80.876 80.177,80.833 87.545,80.833 116.169 L 80.833 152.144 81.179 152.254 C 81.369 152.314,81.706 152.318,81.929 152.262 L 82.333 152.160 82.333 116.181 C 82.333 83.527,82.309 80.193,82.070 80.101 C 81.767 79.985,81.343 79.989,81.042 80.110 " stroke="none" fill="#000000" fill-rule="evenodd"></path>
   </g>
</svg>