<svg id="svg" version="1.1" xmlns="http://www.w3.org/2000/svg" xmlns:xlink="http://www.w3.org/1999/xlink" width="400" height="153.84615384615384" viewBox="0, 0, 400,153.84615384615384">
   <g id="svgg">
      <path id="path0" d="M0.000 76.917 L 0.000 153.833 200.000 153.833 L 400.000 153.833 400.000 76.917 L 400.000 0.000 200.000 0.000 L 0.000 0.000 0.000 76.917 M122.905 19.429 C 123.306 19.829,123.306 74.837,122.905 75.238 C 122.583 75.560,120.508 75.608,120.200 75.300 C 119.909 75.009,119.909 19.658,120.200 19.367 C 120.508 19.059,122.583 19.106,122.905 19.429 M135.195 19.442 C 135.488 19.708,135.500 20.798,135.500 47.526 L 135.500 75.333 137.000 75.333 L 138.500 75.333 138.500 47.450 C 138.500 25.985,138.546 19.521,138.700 19.367 C 139.014 19.053,140.993 19.109,141.362 19.442 C 141.655 19.708,141.667 20.798,141.667 47.526 L 141.667 75.333 142.967 75.333 C 144.612 75.333,144.667 75.391,144.667 77.117 L 144.667 78.500 147.750 78.500 L 150.833 78.500 150.833 77.000 L 150.833 75.500 149.450 75.500 C 148.596 75.500,147.990 75.423,147.867 75.300 C 147.576 75.009,147.576 19.658,147.867 19.367 C 148.132 19.101,150.368 19.101,150.633 19.367 C 150.787 19.521,150.833 25.985,150.833 47.450 L 150.833 75.333 153.717 75.333 C 157.139 75.333,157.000 75.258,157.000 77.117 L 157.000 78.500 158.236 78.500 C 160.024 78.500,160.000 78.520,160.000 77.016 C 160.000 75.227,159.698 75.333,164.783 75.333 L 169.167 75.333 169.167 47.555 C 169.167 15.801,168.970 19.167,170.826 19.167 C 171.465 19.167,172.018 19.251,172.133 19.367 C 172.287 19.521,172.333 25.985,172.333 47.450 L 172.333 75.333 173.655 75.333 C 175.391 75.333,175.500 75.443,175.500 77.179 L 175.500 78.500 181.320 78.500 C 188.292 78.500,187.667 78.658,187.667 76.899 L 187.667 75.500 183.283 75.500 C 180.096 75.500,178.845 75.445,178.700 75.300 C 178.409 75.009,178.409 19.658,178.700 19.367 C 178.985 19.082,187.182 19.082,187.467 19.367 C 187.621 19.521,187.667 25.985,187.667 47.450 L 187.667 75.333 189.050 75.333 C 190.773 75.333,190.833 75.390,190.833 77.016 C 190.833 78.492,190.841 78.500,192.333 78.500 C 193.826 78.500,193.833 78.492,193.833 77.016 C 193.833 75.422,193.916 75.333,195.417 75.333 C 196.917 75.333,197.000 75.422,197.000 77.016 C 197.000 78.492,197.008 78.500,198.500 78.500 C 199.992 78.500,200.000 78.492,200.000 77.016 C 200.000 75.202,199.502 75.333,206.367 75.333 L 212.333 75.333 212.333 47.450 C 212.333 25.985,212.379 19.521,212.533 19.367 C 212.847 19.053,214.827 19.109,215.195 19.442 C 215.488 19.708,215.500 20.798,215.500 47.526 L 215.500 75.333 217.000 75.333 L 218.500 75.333 218.500 47.450 C 218.500 25.985,218.546 19.521,218.700 19.367 C 219.014 19.053,220.993 19.109,221.362 19.442 C 221.655 19.708,221.667 20.798,221.667 47.526 L 221.667 75.333 224.403 75.333 C 227.909 75.333,227.667 75.208,227.667 77.018 L 227.667 78.500 229.050 78.500 C 230.773 78.500,230.833 78.443,230.833 76.818 C 230.833 75.313,230.810 75.333,232.597 75.333 L 233.833 75.333 233.833 47.450 C 233.833 25.985,233.879 19.521,234.033 19.367 C 234.299 19.101,236.535 19.101,236.800 19.367 C 236.954 19.521,237.000 25.985,237.000 47.450 L 237.000 75.333 238.500 75.333 L 240.000 75.333 240.000 47.450 C 240.000 25.985,240.046 19.521,240.200 19.367 C 240.552 19.014,254.802 19.087,255.195 19.442 C 255.488 19.708,255.500 20.798,255.500 47.526 L 255.500 75.333 257.000 75.333 L 258.500 75.333 258.500 47.450 C 258.500 25.985,258.546 19.521,258.700 19.367 C 259.014 19.053,260.993 19.109,261.362 19.442 C 261.813 19.851,261.841 74.697,261.391 75.195 C 261.168 75.441,260.863 75.500,259.808 75.500 L 258.500 75.500 258.500 76.800 C 258.500 78.563,258.622 78.500,255.217 78.500 L 252.333 78.500 252.333 106.383 C 252.333 127.848,252.287 134.313,252.133 134.467 C 251.849 134.751,243.485 134.751,243.200 134.467 C 242.909 134.176,242.909 78.991,243.200 78.700 C 243.346 78.554,244.616 78.500,247.873 78.500 L 252.346 78.500 252.298 77.042 L 252.250 75.583 246.125 75.540 L 240.000 75.496 240.000 76.897 C 240.000 78.507,240.007 78.500,238.500 78.500 C 236.994 78.500,237.000 78.507,237.000 76.899 L 237.000 75.500 235.417 75.500 L 233.833 75.500 233.833 104.982 C 233.833 131.712,233.809 134.474,233.570 134.566 C 233.053 134.764,228.078 134.678,227.867 134.467 C 227.713 134.313,227.667 127.847,227.667 106.377 L 227.667 78.487 226.208 78.535 L 224.750 78.583 224.708 106.400 C 224.677 126.623,224.615 134.278,224.479 134.442 C 224.227 134.746,219.001 134.768,218.700 134.467 C 218.546 134.313,218.500 127.848,218.500 106.383 L 218.500 78.500 217.000 78.500 L 215.500 78.500 215.500 106.383 C 215.500 127.848,215.454 134.313,215.300 134.467 C 215.035 134.732,212.799 134.732,212.533 134.467 C 212.379 134.313,212.333 127.848,212.333 106.381 L 212.333 78.495 207.792 78.539 L 203.250 78.583 203.208 106.400 C 203.177 126.623,203.115 134.278,202.979 134.442 C 202.720 134.754,175.845 134.778,175.533 134.467 C 175.379 134.313,175.333 127.848,175.333 106.383 L 175.333 78.500 173.833 78.500 L 172.333 78.500 172.333 106.383 C 172.333 127.848,172.287 134.313,172.133 134.467 C 171.868 134.732,169.632 134.732,169.367 134.467 C 169.213 134.313,169.167 127.847,169.167 106.379 L 169.167 78.492 166.208 78.538 L 163.250 78.583 163.208 106.400 C 163.177 126.623,163.115 134.278,162.979 134.442 C 162.785 134.676,157.831 134.783,157.264 134.566 C 157.025 134.474,157.000 131.844,157.000 106.482 L 157.000 78.500 153.917 78.500 L 150.833 78.500 150.833 106.383 C 150.833 127.848,150.787 134.313,150.633 134.467 C 150.353 134.747,145.147 134.747,144.867 134.467 C 144.713 134.313,144.667 127.848,144.667 106.383 L 144.667 78.500 143.283 78.500 C 141.558 78.500,141.500 78.445,141.500 76.800 L 141.500 75.500 140.000 75.500 L 138.500 75.500 138.500 76.800 C 138.500 78.433,138.433 78.500,136.800 78.500 L 135.500 78.500 135.500 106.383 C 135.500 127.848,135.454 134.313,135.300 134.467 C 135.035 134.732,132.799 134.732,132.533 134.467 C 132.379 134.313,132.333 127.848,132.333 106.383 L 132.333 78.500 130.833 78.500 L 129.333 78.500 129.333 106.383 C 129.333 127.848,129.287 134.313,129.133 134.467 C 128.853 134.747,123.481 134.747,123.200 134.467 C 122.909 134.176,122.909 78.991,123.200 78.700 C 123.340 78.560,124.263 78.500,126.283 78.500 L 129.167 78.500 129.167 77.000 L 129.167 75.500 127.867 75.500 C 127.078 75.500,126.488 75.421,126.367 75.300 C 126.076 75.009,126.076 19.658,126.367 19.367 C 126.714 19.020,134.805 19.089,135.195 19.442 M267.467 19.367 C 267.758 19.658,267.758 75.009,267.467 75.300 C 267.203 75.563,265.130 75.563,264.867 75.300 C 264.576 75.009,264.576 19.658,264.867 19.367 C 264.982 19.252,265.533 19.167,266.167 19.167 C 266.800 19.167,267.352 19.252,267.467 19.367 M132.444 75.611 C 132.383 75.672,132.333 76.347,132.333 77.111 L 132.333 78.500 133.833 78.500 L 135.333 78.500 135.333 77.000 L 135.333 75.500 133.944 75.500 C 133.181 75.500,132.506 75.550,132.444 75.611 M169.333 77.000 L 169.333 78.500 170.833 78.500 L 172.333 78.500 172.333 77.000 L 172.333 75.500 170.833 75.500 L 169.333 75.500 169.333 77.000 M212.333 77.000 L 212.333 78.500 213.833 78.500 L 215.333 78.500 215.333 77.000 L 215.333 75.500 213.833 75.500 L 212.333 75.500 212.333 77.000 M218.500 77.006 L 218.500 78.513 219.958 78.465 L 221.417 78.417 221.465 76.958 L 221.513 75.500 220.006 75.500 L 218.500 75.500 218.500 77.006 M119.959 106.399 C 119.990 126.819,119.951 134.275,119.813 134.441 C 119.620 134.674,117.781 134.764,117.264 134.566 C 116.984 134.458,116.839 78.883,117.117 78.605 C 117.182 78.540,117.838 78.509,118.576 78.535 L 119.917 78.583 119.959 106.399 M264.566 78.764 C 264.776 79.313,264.679 134.255,264.467 134.467 C 264.201 134.732,261.965 134.732,261.700 134.467 C 261.409 134.176,261.409 78.991,261.700 78.700 C 262.021 78.379,264.439 78.433,264.566 78.764 M270.633 78.700 C 270.924 78.991,270.924 134.176,270.633 134.467 C 270.368 134.732,268.132 134.732,267.867 134.467 C 267.576 134.176,267.576 78.991,267.867 78.700 C 268.132 78.435,270.368 78.435,270.633 78.700 " stroke="none" fill="#ffffff" fill-rule="evenodd"></path>
      <path id="path1" d="M120.200 19.367 C 119.909 19.658,119.909 75.009,120.200 75.300 C 120.508 75.608,122.583 75.560,122.905 75.238 C 123.306 74.837,123.306 19.829,122.905 19.429 C 122.583 19.106,120.508 19.059,120.200 19.367 M126.367 19.367 C 126.076 19.658,126.076 75.009,126.367 75.300 C 126.488 75.421,127.078 75.500,127.867 75.500 L 129.167 75.500 129.167 77.000 L 129.167 78.500 126.283 78.500 C 124.263 78.500,123.340 78.560,123.200 78.700 C 122.909 78.991,122.909 134.176,123.200 134.467 C 123.481 134.747,128.853 134.747,129.133 134.467 C 129.287 134.313,129.333 127.848,129.333 106.383 L 129.333 78.500 130.833 78.500 L 132.333 78.500 132.333 106.383 C 132.333 127.848,132.379 134.313,132.533 134.467 C 132.799 134.732,135.035 134.732,135.300 134.467 C 135.454 134.313,135.500 127.848,135.500 106.383 L 135.500 78.500 136.800 78.500 C 138.433 78.500,138.500 78.433,138.500 76.800 L 138.500 75.500 140.000 75.500 L 141.500 75.500 141.500 76.800 C 141.500 78.445,141.558 78.500,143.283 78.500 L 144.667 78.500 144.667 106.383 C 144.667 127.848,144.713 134.313,144.867 134.467 C 145.147 134.747,150.353 134.747,150.633 134.467 C 150.787 134.313,150.833 127.848,150.833 106.383 L 150.833 78.500 153.917 78.500 L 157.000 78.500 157.000 106.482 C 157.000 131.844,157.025 134.474,157.264 134.566 C 157.831 134.783,162.785 134.676,162.979 134.442 C 163.115 134.278,163.177 126.623,163.208 106.400 L 163.250 78.583 166.208 78.538 L 169.167 78.492 169.167 106.379 C 169.167 127.847,169.213 134.313,169.367 134.467 C 169.632 134.732,171.868 134.732,172.133 134.467 C 172.287 134.313,172.333 127.848,172.333 106.383 L 172.333 78.500 173.833 78.500 L 175.333 78.500 175.333 106.383 C 175.333 127.848,175.379 134.313,175.533 134.467 C 175.845 134.778,202.720 134.754,202.979 134.442 C 203.115 134.278,203.177 126.623,203.208 106.400 L 203.250 78.583 207.792 78.539 L 212.333 78.495 212.333 106.381 C 212.333 127.848,212.379 134.313,212.533 134.467 C 212.799 134.732,215.035 134.732,215.300 134.467 C 215.454 134.313,215.500 127.848,215.500 106.383 L 215.500 78.500 217.000 78.500 L 218.500 78.500 218.500 106.383 C 218.500 127.848,218.546 134.313,218.700 134.467 C 219.001 134.768,224.227 134.746,224.479 134.442 C 224.615 134.278,224.677 126.623,224.708 106.400 L 224.750 78.583 226.208 78.535 L 227.667 78.487 227.667 106.377 C 227.667 127.847,227.713 134.313,227.867 134.467 C 228.078 134.678,233.053 134.764,233.570 134.566 C 233.809 134.474,233.833 131.712,233.833 104.982 L 233.833 75.500 235.417 75.500 L 237.000 75.500 237.000 76.899 C 237.000 78.507,236.994 78.500,238.500 78.500 C 240.007 78.500,240.000 78.507,240.000 76.897 L 240.000 75.496 246.125 75.540 L 252.250 75.583 252.298 77.042 L 252.346 78.500 247.873 78.500 C 244.616 78.500,243.346 78.554,243.200 78.700 C 242.909 78.991,242.909 134.176,243.200 134.467 C 243.485 134.751,251.849 134.751,252.133 134.467 C 252.287 134.313,252.333 127.848,252.333 106.383 L 252.333 78.500 255.217 78.500 C 258.622 78.500,258.500 78.563,258.500 76.800 L 258.500 75.500 259.808 75.500 C 260.863 75.500,261.168 75.441,261.391 75.195 C 261.841 74.697,261.813 19.851,261.362 19.442 C 260.993 19.109,259.014 19.053,258.700 19.367 C 258.546 19.521,258.500 25.985,258.500 47.450 L 258.500 75.333 257.000 75.333 L 255.500 75.333 255.500 47.526 C 255.500 20.798,255.488 19.708,255.195 19.442 C 254.802 19.087,240.552 19.014,240.200 19.367 C 240.046 19.521,240.000 25.985,240.000 47.450 L 240.000 75.333 238.500 75.333 L 237.000 75.333 237.000 47.450 C 237.000 25.985,236.954 19.521,236.800 19.367 C 236.535 19.101,234.299 19.101,234.033 19.367 C 233.879 19.521,233.833 25.985,233.833 47.450 L 233.833 75.333 232.597 75.333 C 230.810 75.333,230.833 75.313,230.833 76.818 C 230.833 78.443,230.773 78.500,229.050 78.500 L 227.667 78.500 227.667 77.018 C 227.667 75.208,227.909 75.333,224.403 75.333 L 221.667 75.333 221.667 47.526 C 221.667 20.798,221.655 19.708,221.362 19.442 C 220.993 19.109,219.014 19.053,218.700 19.367 C 218.546 19.521,218.500 25.985,218.500 47.450 L 218.500 75.333 217.000 75.333 L 215.500 75.333 215.500 47.526 C 215.500 20.798,215.488 19.708,215.195 19.442 C 214.827 19.109,212.847 19.053,212.533 19.367 C 212.379 19.521,212.333 25.985,212.333 47.450 L 212.333 75.333 206.367 75.333 C 199.502 75.333,200.000 75.202,200.000 77.016 C 200.000 78.492,199.992 78.500,198.500 78.500 C 197.008 78.500,197.000 78.492,197.000 77.016 C 197.000 75.422,196.917 75.333,195.417 75.333 C 193.916 75.333,193.833 75.422,193.833 77.016 C 193.833 78.492,193.826 78.500,192.333 78.500 C 190.841 78.500,190.833 78.492,190.833 77.016 C 190.833 75.390,190.773 75.333,189.050 75.333 L 187.667 75.333 187.667 47.450 C 187.667 25.985,187.621 19.521,187.467 19.367 C 187.182 19.082,178.985 19.082,178.700 19.367 C 178.409 19.658,178.409 75.009,178.700 75.300 C 178.845 75.445,180.096 75.500,183.283 75.500 L 187.667 75.500 187.667 76.899 C 187.667 78.658,188.292 78.500,181.320 78.500 L 175.500 78.500 175.500 77.179 C 175.500 75.443,175.391 75.333,173.655 75.333 L 172.333 75.333 172.333 47.450 C 172.333 25.985,172.287 19.521,172.133 19.367 C 172.018 19.251,171.465 19.167,170.826 19.167 C 168.970 19.167,169.167 15.801,169.167 47.555 L 169.167 75.333 164.783 75.333 C 159.698 75.333,160.000 75.227,160.000 77.016 C 160.000 78.520,160.024 78.500,158.236 78.500 L 157.000 78.500 157.000 77.117 C 157.000 75.258,157.139 75.333,153.717 75.333 L 150.833 75.333 150.833 47.450 C 150.833 25.985,150.787 19.521,150.633 19.367 C 150.368 19.101,148.132 19.101,147.867 19.367 C 147.576 19.658,147.576 75.009,147.867 75.300 C 147.990 75.423,148.596 75.500,149.450 75.500 L 150.833 75.500 150.833 77.000 L 150.833 78.500 147.750 78.500 L 144.667 78.500 144.667 77.117 C 144.667 75.391,144.612 75.333,142.967 75.333 L 141.667 75.333 141.667 47.526 C 141.667 20.798,141.655 19.708,141.362 19.442 C 140.993 19.109,139.014 19.053,138.700 19.367 C 138.546 19.521,138.500 25.985,138.500 47.450 L 138.500 75.333 137.000 75.333 L 135.500 75.333 135.500 47.526 C 135.500 20.798,135.488 19.708,135.195 19.442 C 134.805 19.089,126.714 19.020,126.367 19.367 M264.867 19.367 C 264.576 19.658,264.576 75.009,264.867 75.300 C 265.130 75.563,267.203 75.563,267.467 75.300 C 267.758 75.009,267.758 19.658,267.467 19.367 C 267.352 19.252,266.800 19.167,266.167 19.167 C 265.533 19.167,264.982 19.252,264.867 19.367 M135.333 77.000 L 135.333 78.500 133.833 78.500 L 132.333 78.500 132.333 77.111 C 132.333 75.418,132.251 75.500,133.944 75.500 L 135.333 75.500 135.333 77.000 M172.333 77.000 L 172.333 78.500 170.833 78.500 L 169.333 78.500 169.333 77.000 L 169.333 75.500 170.833 75.500 L 172.333 75.500 172.333 77.000 M215.333 77.000 L 215.333 78.500 213.833 78.500 L 212.333 78.500 212.333 77.000 L 212.333 75.500 213.833 75.500 L 215.333 75.500 215.333 77.000 M221.465 76.958 L 221.417 78.417 219.958 78.465 L 218.500 78.513 218.500 77.006 L 218.500 75.500 220.006 75.500 L 221.513 75.500 221.465 76.958 M117.117 78.605 C 116.839 78.883,116.984 134.458,117.264 134.566 C 117.781 134.764,119.620 134.674,119.813 134.441 C 119.951 134.275,119.990 126.819,119.959 106.399 L 119.917 78.583 118.576 78.535 C 117.838 78.509,117.182 78.540,117.117 78.605 M261.700 78.700 C 261.409 78.991,261.409 134.176,261.700 134.467 C 261.965 134.732,264.201 134.732,264.467 134.467 C 264.679 134.255,264.776 79.313,264.566 78.764 C 264.439 78.433,262.021 78.379,261.700 78.700 M267.867 78.700 C 267.576 78.991,267.576 134.176,267.867 134.467 C 268.132 134.732,270.368 134.732,270.633 134.467 C 270.924 134.176,270.924 78.991,270.633 78.700 C 270.368 78.435,268.132 78.435,267.867 78.700 " stroke="none" fill="#000000" fill-rule="evenodd"></path>
   </g>
</svg>