<svg id="svg" version="1.1" xmlns="http://www.w3.org/2000/svg" xmlns:xlink="http://www.w3.org/1999/xlink" width="400" height="153.84615384615384" viewBox="0, 0, 400,153.84615384615384">
   <g id="svgg">
      <path id="path0" d="M0.000 76.917 L 0.000 153.833 200.000 153.833 L 400.000 153.833 400.000 76.917 L 400.000 0.000 200.000 0.000 L 0.000 0.000 0.000 76.917 M106.967 10.033 C 107.258 10.325,107.258 132.842,106.967 133.133 C 106.690 133.410,102.644 133.410,102.367 133.133 C 102.155 132.921,102.056 10.648,102.268 10.097 C 102.398 9.759,106.635 9.701,106.967 10.033 M110.125 71.490 C 110.159 120.639,110.125 133.090,109.959 133.196 C 109.710 133.354,108.966 133.374,108.597 133.232 C 108.317 133.125,108.172 10.217,108.452 9.937 C 108.517 9.871,108.911 9.840,109.327 9.867 L 110.083 9.917 110.125 71.490 M116.292 71.490 C 116.325 120.639,116.292 133.090,116.125 133.196 C 115.876 133.354,115.132 133.374,114.764 133.232 C 114.483 133.125,114.339 10.217,114.619 9.937 C 114.684 9.871,115.078 9.840,115.494 9.867 L 116.250 9.917 116.292 71.490 M122.399 10.097 C 122.610 10.648,122.512 132.921,122.300 133.133 C 122.015 133.419,121.071 133.381,120.762 133.071 C 120.440 132.750,120.351 10.756,120.673 10.156 C 120.898 9.735,122.242 9.689,122.399 10.097 M131.661 10.156 C 131.982 10.756,131.893 132.750,131.571 133.071 C 131.189 133.454,127.311 133.454,126.929 133.071 C 126.607 132.750,126.518 10.756,126.839 10.156 C 127.103 9.663,131.397 9.663,131.661 10.156 M134.633 10.033 C 134.925 10.325,134.925 132.842,134.633 133.133 C 134.348 133.419,133.404 133.381,133.095 133.071 C 132.773 132.750,132.685 10.756,133.006 10.156 C 133.205 9.783,134.301 9.701,134.633 10.033 M140.800 10.033 C 141.091 10.325,141.091 132.842,140.800 133.133 C 140.515 133.419,139.571 133.381,139.262 133.071 C 138.940 132.750,138.851 10.756,139.173 10.156 C 139.372 9.783,140.468 9.701,140.800 10.033 M150.125 71.490 C 150.159 120.639,150.125 133.090,149.959 133.196 C 149.611 133.416,145.595 133.362,145.367 133.133 C 145.071 132.838,145.076 10.324,145.371 10.029 C 145.517 9.883,146.218 9.838,147.829 9.871 L 150.083 9.917 150.125 71.490 M153.133 10.033 C 153.425 10.325,153.425 132.842,153.133 133.133 C 152.875 133.392,151.792 133.392,151.533 133.133 C 151.242 132.842,151.242 10.325,151.533 10.033 C 151.643 9.923,152.003 9.833,152.333 9.833 C 152.663 9.833,153.023 9.923,153.133 10.033 M159.300 10.033 C 159.591 10.325,159.591 132.842,159.300 133.133 C 159.041 133.392,157.959 133.392,157.700 133.133 C 157.409 132.842,157.409 10.325,157.700 10.033 C 157.810 9.923,158.170 9.833,158.500 9.833 C 158.830 9.833,159.190 9.923,159.300 10.033 M168.467 10.033 C 168.758 10.325,168.758 132.842,168.467 133.133 C 168.190 133.410,164.144 133.410,163.867 133.133 C 163.575 132.842,163.575 10.325,163.867 10.033 C 164.144 9.756,168.190 9.756,168.467 10.033 M171.661 10.156 C 171.982 10.756,171.893 132.750,171.571 133.071 C 171.262 133.381,170.319 133.419,170.033 133.133 C 169.742 132.842,169.742 10.325,170.033 10.033 C 170.366 9.701,171.461 9.783,171.661 10.156 M177.827 10.156 C 178.149 10.756,178.060 132.750,177.738 133.071 C 177.429 133.381,176.485 133.419,176.200 133.133 C 175.988 132.921,175.890 10.648,176.101 10.097 C 176.258 9.689,177.602 9.735,177.827 10.156 M183.994 10.156 C 184.315 10.756,184.227 132.750,183.905 133.071 C 183.596 133.381,182.652 133.419,182.367 133.133 C 182.155 132.921,182.056 10.648,182.268 10.097 C 182.424 9.689,183.769 9.735,183.994 10.156 M193.133 10.033 C 193.425 10.325,193.425 132.842,193.133 133.133 C 192.923 133.344,189.104 133.427,188.597 133.232 C 188.322 133.127,188.170 10.219,188.444 9.944 C 188.651 9.738,192.919 9.819,193.133 10.033 M196.292 71.490 C 196.325 120.639,196.292 133.090,196.125 133.196 C 195.876 133.354,195.132 133.374,194.764 133.232 C 194.483 133.125,194.339 10.217,194.619 9.937 C 194.684 9.871,195.078 9.840,195.494 9.867 L 196.250 9.917 196.292 71.490 M205.494 10.156 C 205.815 10.756,205.727 132.750,205.405 133.071 C 205.022 133.454,201.145 133.454,200.762 133.071 C 200.440 132.750,200.351 10.756,200.673 10.156 C 200.936 9.663,205.230 9.663,205.494 10.156 M208.467 10.033 C 208.758 10.325,208.758 132.842,208.467 133.133 C 208.181 133.419,207.238 133.381,206.929 133.071 C 206.607 132.750,206.518 10.756,206.839 10.156 C 207.039 9.783,208.134 9.701,208.467 10.033 M217.827 10.156 C 218.149 10.756,218.060 132.750,217.738 133.071 C 217.355 133.454,213.478 133.454,213.095 133.071 C 212.773 132.750,212.685 10.756,213.006 10.156 C 213.270 9.663,217.564 9.663,217.827 10.156 M223.994 10.156 C 224.315 10.756,224.227 132.750,223.905 133.071 C 223.522 133.454,219.645 133.454,219.262 133.071 C 218.940 132.750,218.851 10.756,219.173 10.156 C 219.436 9.663,223.730 9.663,223.994 10.156 M230.125 71.490 C 230.159 120.639,230.125 133.090,229.959 133.196 C 229.611 133.416,225.595 133.362,225.367 133.133 C 225.071 132.838,225.076 10.324,225.371 10.029 C 225.517 9.883,226.218 9.838,227.829 9.871 L 230.083 9.917 230.125 71.490 M236.292 71.490 C 236.325 120.639,236.292 133.090,236.125 133.196 C 235.778 133.416,231.762 133.362,231.533 133.133 C 231.238 132.838,231.242 10.324,231.538 10.029 C 231.684 9.883,232.384 9.838,233.996 9.871 L 236.250 9.917 236.292 71.490 M239.300 10.033 C 239.591 10.325,239.591 132.842,239.300 133.133 C 239.041 133.392,237.959 133.392,237.700 133.133 C 237.409 132.842,237.409 10.325,237.700 10.033 C 237.810 9.923,238.170 9.833,238.500 9.833 C 238.830 9.833,239.190 9.923,239.300 10.033 M245.494 10.156 C 245.815 10.756,245.727 132.750,245.405 133.071 C 245.096 133.381,244.152 133.419,243.867 133.133 C 243.575 132.842,243.575 10.325,243.867 10.033 C 244.199 9.701,245.295 9.783,245.494 10.156 M251.661 10.156 C 251.982 10.756,251.893 132.750,251.571 133.071 C 251.262 133.381,250.319 133.419,250.033 133.133 C 249.742 132.842,249.742 10.325,250.033 10.033 C 250.366 9.701,251.461 9.783,251.661 10.156 M257.827 10.156 C 258.149 10.756,258.060 132.750,257.738 133.071 C 257.429 133.381,256.485 133.419,256.200 133.133 C 255.988 132.921,255.890 10.648,256.101 10.097 C 256.258 9.689,257.602 9.735,257.827 10.156 M266.967 10.033 C 267.258 10.325,267.258 132.842,266.967 133.133 C 266.690 133.410,262.644 133.410,262.367 133.133 C 262.155 132.921,262.056 10.648,262.268 10.097 C 262.398 9.759,266.635 9.701,266.967 10.033 M273.133 10.033 C 273.425 10.325,273.425 132.842,273.133 133.133 C 272.923 133.344,269.104 133.427,268.597 133.232 C 268.322 133.127,268.170 10.219,268.444 9.944 C 268.651 9.738,272.919 9.819,273.133 10.033 M276.232 10.097 C 276.444 10.648,276.345 132.921,276.133 133.133 C 275.920 133.347,275.198 133.399,274.764 133.232 C 274.488 133.127,274.336 10.219,274.611 9.944 C 274.848 9.708,276.129 9.829,276.232 10.097 M282.399 10.097 C 282.610 10.648,282.512 132.921,282.300 133.133 C 282.015 133.419,281.071 133.381,280.762 133.071 C 280.440 132.750,280.351 10.756,280.673 10.156 C 280.898 9.735,282.242 9.689,282.399 10.097 M288.467 10.033 C 288.758 10.325,288.758 132.842,288.467 133.133 C 288.181 133.419,287.238 133.381,286.929 133.071 C 286.607 132.750,286.518 10.756,286.839 10.156 C 287.039 9.783,288.134 9.701,288.467 10.033 M116.070 135.268 C 116.470 135.421,116.470 144.579,116.070 144.732 C 115.607 144.910,114.074 144.841,113.867 144.633 C 113.725 144.492,113.667 143.496,113.667 141.217 C 113.667 139.447,113.634 138.000,113.593 138.000 C 113.553 138.000,113.177 138.337,112.759 138.750 C 111.936 139.561,111.252 139.728,110.762 139.238 C 110.432 138.908,110.422 138.094,110.744 137.804 C 111.241 137.356,111.422 137.177,111.632 136.925 C 111.750 136.783,112.050 136.666,112.298 136.665 C 112.623 136.664,112.935 136.454,113.411 135.915 C 114.082 135.156,115.119 134.903,116.070 135.268 M141.517 136.171 C 142.700 137.380,142.954 138.831,142.083 139.401 C 141.854 139.551,141.667 139.785,141.667 139.921 C 141.667 140.056,141.590 140.167,141.496 140.167 C 141.342 140.167,138.833 142.620,138.833 142.770 C 138.833 142.805,139.513 142.833,140.344 142.833 C 142.204 142.833,142.500 142.967,142.500 143.806 C 142.500 144.818,142.447 144.833,138.833 144.833 C 135.281 144.833,135.167 144.805,135.167 143.916 C 135.167 143.390,136.086 142.167,136.481 142.167 C 136.583 142.167,136.667 142.100,136.667 142.020 C 136.667 141.939,136.975 141.564,137.353 141.186 C 137.730 140.809,138.105 140.500,138.186 140.500 C 138.267 140.500,138.333 140.416,138.333 140.314 C 138.333 140.109,139.486 139.000,139.699 139.000 C 139.773 139.000,139.833 138.587,139.833 138.083 L 139.833 137.167 138.917 137.167 C 138.044 137.167,138.000 137.187,138.000 137.594 C 138.000 138.472,137.747 138.667,136.611 138.667 C 135.426 138.667,135.167 138.499,135.167 137.733 C 135.167 137.221,135.265 137.088,136.538 135.883 C 136.655 135.773,136.847 135.567,136.965 135.425 C 137.133 135.223,137.547 135.167,138.857 135.167 L 140.535 135.167 141.517 136.171 M166.142 135.387 C 166.255 135.523,166.343 136.693,166.371 138.426 L 166.417 141.245 167.059 141.349 C 167.766 141.464,167.995 141.704,167.995 142.333 C 167.995 142.963,167.766 143.203,167.059 143.317 C 166.498 143.407,166.410 143.484,166.360 143.919 C 166.274 144.683,166.053 144.833,165.013 144.833 C 163.924 144.833,163.667 144.651,163.667 143.883 L 163.667 143.333 161.595 143.333 C 159.934 143.333,159.472 143.281,159.262 143.071 C 158.908 142.717,158.902 141.096,159.253 140.798 C 159.905 140.245,160.667 139.453,160.667 139.328 C 160.667 139.252,160.813 139.143,160.991 139.086 C 161.170 139.029,161.360 138.845,161.414 138.676 C 161.467 138.507,161.659 138.331,161.839 138.284 C 162.075 138.222,162.167 138.055,162.167 137.688 C 162.167 136.218,165.318 134.394,166.142 135.387 M190.800 135.367 C 190.910 135.477,191.000 135.837,191.000 136.167 C 191.000 137.037,190.779 137.167,189.300 137.167 L 188.000 137.167 188.000 137.750 L 188.000 138.333 188.934 138.333 C 189.856 138.333,189.880 138.346,190.851 139.338 L 191.833 140.342 191.833 141.576 C 191.833 142.763,191.617 143.333,191.166 143.333 C 191.087 143.333,190.975 143.483,190.917 143.667 C 190.858 143.850,190.701 144.000,190.567 144.000 C 190.433 144.000,190.274 144.131,190.215 144.292 C 189.943 145.030,186.537 145.133,186.068 144.417 C 185.918 144.188,185.696 144.000,185.575 144.000 C 185.455 144.000,185.309 143.854,185.253 143.675 C 185.196 143.497,185.003 143.304,184.825 143.247 C 184.396 143.111,184.344 141.595,184.764 141.434 C 185.714 141.070,186.751 141.322,187.422 142.082 C 187.907 142.631,188.207 142.831,188.549 142.832 L 189.014 142.833 188.965 141.542 L 188.917 140.250 188.149 140.200 C 187.483 140.157,187.346 140.206,187.104 140.575 C 186.823 141.005,185.512 141.186,184.764 140.899 C 184.338 140.736,184.396 139.222,184.833 139.083 C 185.113 138.995,185.167 138.831,185.167 138.071 C 185.167 137.312,185.234 137.106,185.583 136.802 C 185.830 136.588,186.000 136.261,186.000 136.003 C 186.000 135.247,186.241 135.167,188.500 135.167 C 189.911 135.167,190.666 135.232,190.800 135.367 M216.070 135.268 C 216.489 135.429,216.438 136.944,216.009 137.081 C 215.830 137.137,215.639 137.326,215.583 137.500 C 215.528 137.674,215.337 137.863,215.158 137.919 C 214.930 137.992,214.833 138.173,214.833 138.528 C 214.833 138.911,214.652 139.205,214.083 139.741 C 213.384 140.402,213.333 140.508,213.333 141.304 C 213.333 142.032,213.271 142.200,212.917 142.432 C 212.561 142.665,212.500 142.831,212.500 143.569 C 212.500 144.662,212.319 144.833,211.167 144.833 C 209.977 144.833,209.833 144.675,209.833 143.368 C 209.833 142.442,209.877 142.291,210.167 142.215 C 210.449 142.141,210.500 141.988,210.500 141.218 L 210.500 140.308 212.109 138.737 L 213.719 137.167 211.621 137.167 C 209.303 137.167,209.000 137.051,209.000 136.167 C 209.000 135.224,209.211 135.167,212.665 135.167 C 214.393 135.167,215.925 135.212,216.070 135.268 M240.027 136.195 C 241.465 137.716,241.422 139.484,239.946 139.509 L 239.417 139.517 239.792 139.779 C 239.998 139.923,240.167 140.144,240.167 140.270 C 240.167 140.397,240.236 140.500,240.321 140.500 C 241.454 140.500,241.261 142.599,240.013 143.847 L 239.027 144.833 237.333 144.833 L 235.640 144.833 234.653 143.847 C 233.406 142.599,233.212 140.500,234.345 140.500 C 234.430 140.500,234.500 140.397,234.500 140.270 C 234.500 140.144,234.669 139.923,234.875 139.779 L 235.250 139.517 234.720 139.509 C 233.254 139.485,233.203 137.726,234.625 136.201 L 235.583 135.173 237.319 135.170 L 239.054 135.167 240.027 136.195 M263.905 135.429 C 264.049 135.573,264.167 135.755,264.167 135.834 C 264.167 135.913,264.317 136.025,264.500 136.083 C 264.683 136.142,264.833 136.297,264.833 136.428 C 264.833 136.559,264.903 136.667,264.988 136.667 C 265.183 136.667,265.667 137.142,265.667 137.333 C 265.667 137.731,265.094 138.000,264.250 138.000 C 263.397 138.000,262.833 137.730,262.833 137.321 C 262.833 137.236,262.416 137.167,261.906 137.167 L 260.979 137.167 261.031 137.708 L 261.083 138.250 262.417 138.299 L 263.750 138.349 264.708 139.350 L 265.667 140.350 265.667 141.580 C 265.667 142.773,265.450 143.333,264.988 143.333 C 264.903 143.333,264.833 143.453,264.833 143.599 C 264.833 143.745,264.683 143.904,264.500 143.952 C 264.317 144.000,264.167 144.100,264.167 144.174 C 264.167 144.976,260.408 145.190,259.901 144.417 C 259.751 144.188,259.532 144.000,259.415 144.000 C 259.165 144.000,259.000 143.633,259.000 143.076 C 259.000 142.849,258.857 142.602,258.667 142.500 C 258.358 142.335,258.333 142.151,258.333 140.005 C 258.333 137.836,258.354 137.682,258.667 137.583 C 258.883 137.515,259.000 137.331,259.000 137.061 C 259.000 136.334,259.290 136.000,259.923 136.000 C 260.240 136.000,260.500 135.930,260.500 135.845 C 260.500 135.374,261.059 135.167,262.333 135.167 C 263.302 135.167,263.711 135.235,263.905 135.429 M236.404 137.390 C 236.353 137.523,236.335 137.921,236.364 138.274 L 236.417 138.917 237.333 138.917 L 238.250 138.917 238.250 138.083 L 238.250 137.250 237.373 137.200 C 236.727 137.162,236.472 137.213,236.404 137.390 M163.333 138.790 C 163.333 138.894,162.846 139.463,162.250 140.053 C 160.910 141.380,160.907 141.358,162.375 141.299 L 163.583 141.250 163.633 140.100 C 163.661 139.449,163.607 138.874,163.508 138.775 C 163.386 138.653,163.333 138.657,163.333 138.790 M261.119 140.270 C 260.833 140.556,260.992 142.029,261.318 142.114 C 261.493 142.160,261.673 142.341,261.719 142.515 C 261.778 142.743,261.951 142.833,262.325 142.833 L 262.847 142.833 262.799 141.542 L 262.750 140.250 261.994 140.201 C 261.578 140.174,261.184 140.205,261.119 140.270 M236.404 141.224 C 236.353 141.356,236.335 141.754,236.364 142.107 L 236.417 142.750 237.333 142.750 L 238.250 142.750 238.250 141.917 L 238.250 141.083 237.373 141.033 C 236.727 140.996,236.472 141.046,236.404 141.224 " stroke="none" fill="#ffffff" fill-rule="evenodd"></path>
      <path id="path1" d="M102.444 10.278 C 102.283 10.439,102.313 132.543,102.474 132.797 C 102.575 132.956,103.136 132.999,104.680 132.964 L 106.750 132.917 106.792 71.542 L 106.834 10.167 104.695 10.167 C 103.518 10.167,102.506 10.217,102.444 10.278 M108.619 10.270 C 108.475 10.414,108.457 132.361,108.601 132.736 C 108.769 133.175,109.806 133.087,109.917 132.625 C 109.967 132.419,109.987 104.800,109.962 71.250 L 109.917 10.250 109.327 10.200 C 109.003 10.173,108.685 10.204,108.619 10.270 M114.786 10.270 C 114.642 10.414,114.624 132.361,114.768 132.736 C 114.936 133.175,115.973 133.087,116.084 132.625 C 116.134 132.419,116.154 104.800,116.129 71.250 L 116.083 10.250 115.494 10.200 C 115.170 10.173,114.851 10.204,114.786 10.270 M120.914 10.365 C 120.869 10.485,120.851 38.108,120.874 71.750 L 120.917 132.917 121.536 132.968 C 122.066 133.012,122.169 132.964,122.248 132.635 C 122.299 132.423,122.320 104.800,122.295 71.250 L 122.250 10.250 121.624 10.198 C 121.220 10.165,120.968 10.224,120.914 10.365 M127.079 10.370 C 127.034 10.487,127.017 38.108,127.041 71.750 L 127.083 132.917 129.250 132.917 L 131.417 132.917 131.417 71.583 L 131.417 10.250 129.288 10.203 C 127.678 10.168,127.140 10.209,127.079 10.370 M133.244 10.375 C 133.200 10.490,133.184 38.108,133.207 71.750 L 133.250 132.917 133.875 132.968 L 134.500 133.020 134.500 71.593 L 134.500 10.167 133.911 10.167 C 133.588 10.167,133.287 10.260,133.244 10.375 M139.410 10.375 C 139.367 10.490,139.351 38.108,139.374 71.750 L 139.417 132.917 140.000 132.917 L 140.583 132.917 140.625 71.542 L 140.667 10.167 140.078 10.167 C 139.754 10.167,139.454 10.260,139.410 10.375 M145.541 71.537 L 145.583 132.917 147.704 132.963 C 149.791 133.009,149.826 133.004,149.916 132.630 C 149.966 132.421,149.987 104.800,149.962 71.250 L 149.917 10.250 147.708 10.203 L 145.500 10.157 145.541 71.537 M151.708 71.542 L 151.750 132.917 152.333 132.917 L 152.917 132.917 152.959 71.542 L 153.000 10.167 152.333 10.167 L 151.666 10.167 151.708 71.542 M157.875 71.542 L 157.917 132.917 158.500 132.917 L 159.083 132.917 159.125 71.542 L 159.167 10.167 158.500 10.167 L 157.833 10.167 157.875 71.542 M164.041 71.542 L 164.083 132.917 166.208 132.963 L 168.333 133.010 168.333 71.588 L 168.333 10.167 166.166 10.167 L 164.000 10.167 164.041 71.542 M170.167 71.583 L 170.167 133.020 170.792 132.968 L 171.417 132.917 171.417 71.583 L 171.417 10.250 170.792 10.198 L 170.167 10.147 170.167 71.583 M176.286 10.270 C 176.116 10.439,176.142 132.537,176.312 132.804 C 176.396 132.937,176.677 133.003,177.017 132.971 L 177.583 132.917 177.583 71.583 L 177.583 10.250 176.994 10.200 C 176.670 10.173,176.351 10.204,176.286 10.270 M182.452 10.270 C 182.308 10.414,182.291 132.361,182.434 132.736 C 182.603 133.175,183.639 133.087,183.751 132.625 C 183.800 132.419,183.820 104.800,183.795 71.250 L 183.750 10.250 183.161 10.200 C 182.837 10.173,182.518 10.204,182.452 10.270 M188.611 10.278 C 188.450 10.439,188.479 132.543,188.641 132.797 C 188.742 132.956,189.302 132.999,190.846 132.964 L 192.917 132.917 192.959 71.542 L 193.000 10.167 190.861 10.167 C 189.685 10.167,188.672 10.217,188.611 10.278 M194.786 10.270 C 194.642 10.414,194.624 132.361,194.768 132.736 C 194.936 133.175,195.973 133.087,196.084 132.625 C 196.134 132.419,196.154 104.800,196.129 71.250 L 196.083 10.250 195.494 10.200 C 195.170 10.173,194.851 10.204,194.786 10.270 M200.912 10.370 C 200.868 10.487,200.851 38.108,200.874 71.750 L 200.917 132.917 203.083 132.917 L 205.250 132.917 205.250 71.583 L 205.250 10.250 203.122 10.203 C 201.511 10.168,200.974 10.209,200.912 10.370 M207.077 10.375 C 207.034 10.490,207.017 38.108,207.041 71.750 L 207.083 132.917 207.708 132.968 L 208.333 133.020 208.333 71.593 L 208.333 10.167 207.745 10.167 C 207.421 10.167,207.121 10.260,207.077 10.375 M213.246 10.370 C 213.201 10.487,213.184 38.108,213.207 71.750 L 213.250 132.917 215.417 132.917 L 217.583 132.917 217.583 71.583 L 217.583 10.250 215.455 10.203 C 213.845 10.168,213.307 10.209,213.246 10.370 M219.412 10.370 C 219.368 10.487,219.351 38.108,219.374 71.750 L 219.417 132.917 221.583 132.917 L 223.750 132.917 223.750 71.583 L 223.750 10.250 221.622 10.203 C 220.011 10.168,219.474 10.209,219.412 10.370 M225.541 71.537 L 225.583 132.917 227.704 132.963 C 229.791 133.009,229.826 133.004,229.916 132.630 C 229.966 132.421,229.987 104.800,229.962 71.250 L 229.917 10.250 227.708 10.203 L 225.500 10.157 225.541 71.537 M231.708 71.537 L 231.750 132.917 233.871 132.963 C 235.958 133.009,235.993 133.004,236.083 132.630 C 236.133 132.421,236.154 104.800,236.129 71.250 L 236.083 10.250 233.875 10.203 L 231.666 10.157 231.708 71.537 M237.875 71.542 L 237.917 132.917 238.500 132.917 L 239.083 132.917 239.125 71.542 L 239.167 10.167 238.500 10.167 L 237.833 10.167 237.875 71.542 M244.041 71.532 L 244.083 132.917 244.667 132.917 L 245.250 132.917 245.250 71.583 L 245.250 10.250 244.625 10.198 L 244.000 10.147 244.041 71.532 M250.167 71.583 L 250.167 133.020 250.792 132.968 L 251.417 132.917 251.417 71.583 L 251.417 10.250 250.792 10.198 L 250.167 10.147 250.167 71.583 M256.286 10.270 C 256.116 10.439,256.142 132.537,256.312 132.804 C 256.396 132.937,256.677 133.003,257.017 132.971 L 257.583 132.917 257.583 71.583 L 257.583 10.250 256.994 10.200 C 256.670 10.173,256.351 10.204,256.286 10.270 M262.444 10.278 C 262.283 10.439,262.313 132.543,262.474 132.797 C 262.575 132.956,263.136 132.999,264.680 132.964 L 266.750 132.917 266.792 71.542 L 266.834 10.167 264.695 10.167 C 263.518 10.167,262.506 10.217,262.444 10.278 M268.611 10.278 C 268.450 10.439,268.479 132.543,268.641 132.797 C 268.742 132.956,269.302 132.999,270.846 132.964 L 272.917 132.917 272.959 71.542 L 273.000 10.167 270.861 10.167 C 269.685 10.167,268.672 10.217,268.611 10.278 M274.786 10.270 C 274.642 10.414,274.624 132.361,274.768 132.736 C 274.936 133.175,275.973 133.087,276.084 132.625 C 276.134 132.419,276.154 104.800,276.129 71.250 L 276.083 10.250 275.494 10.200 C 275.170 10.173,274.851 10.204,274.786 10.270 M280.914 10.365 C 280.869 10.485,280.851 38.108,280.874 71.750 L 280.917 132.917 281.536 132.968 C 282.066 133.012,282.169 132.964,282.248 132.635 C 282.299 132.423,282.320 104.800,282.295 71.250 L 282.250 10.250 281.624 10.198 C 281.220 10.165,280.968 10.224,280.914 10.365 M287.077 10.375 C 287.034 10.490,287.017 38.108,287.041 71.750 L 287.083 132.917 287.708 132.968 L 288.333 133.020 288.333 71.593 L 288.333 10.167 287.745 10.167 C 287.421 10.167,287.121 10.260,287.077 10.375 M113.508 136.253 C 113.049 136.716,112.618 137.000,112.375 137.000 C 111.766 137.000,110.796 138.033,110.863 138.612 C 110.957 139.439,111.746 139.349,112.706 138.401 C 113.916 137.205,113.983 137.346,114.038 141.226 L 114.083 144.417 115.083 144.417 L 116.083 144.417 116.130 140.333 C 116.188 135.269,116.236 135.499,115.122 135.503 C 114.312 135.506,114.197 135.560,113.508 136.253 M136.375 136.399 C 135.683 137.094,135.500 137.389,135.500 137.813 L 135.500 138.349 136.542 138.300 C 137.562 138.251,137.584 138.240,137.640 137.750 C 137.747 136.796,139.557 136.339,139.994 137.156 C 140.565 138.222,140.324 138.664,137.821 141.150 C 135.776 143.180,135.483 143.539,135.530 143.948 L 135.583 144.417 138.917 144.417 L 142.250 144.417 142.304 144.032 C 142.405 143.322,142.081 143.167,140.493 143.167 C 137.952 143.167,137.952 143.144,140.422 140.667 C 142.841 138.239,142.903 137.960,141.356 136.452 L 140.378 135.500 138.814 135.511 L 137.250 135.522 136.375 136.399 M163.286 136.463 C 162.658 137.098,162.333 137.563,162.333 137.827 C 162.333 138.112,161.897 138.653,160.825 139.702 L 159.316 141.176 159.366 142.046 L 159.417 142.917 161.580 143.000 L 163.743 143.083 163.894 143.583 C 163.977 143.858,164.072 144.181,164.104 144.300 C 164.146 144.454,164.442 144.502,165.123 144.467 L 166.083 144.417 166.135 143.792 C 166.188 143.156,166.242 143.115,167.250 142.963 C 167.510 142.923,167.583 142.784,167.583 142.333 C 167.583 141.882,167.510 141.743,167.250 141.704 C 166.071 141.526,166.167 141.786,166.167 138.760 C 166.167 135.409,166.196 135.500,165.102 135.500 C 164.273 135.500,164.203 135.537,163.286 136.463 M186.270 135.759 C 186.213 135.906,186.167 136.191,186.167 136.390 C 186.167 136.590,186.017 136.847,185.833 136.961 C 185.568 137.127,185.500 137.350,185.500 138.055 C 185.500 138.797,185.431 139.000,185.073 139.311 C 184.772 139.573,184.661 139.815,184.698 140.133 C 184.769 140.751,186.400 140.905,186.910 140.341 C 187.311 139.898,189.069 139.839,189.232 140.264 C 189.415 140.740,189.341 142.759,189.133 142.967 C 188.706 143.394,188.042 143.191,187.309 142.409 C 186.614 141.668,186.579 141.653,185.674 141.701 C 184.342 141.772,184.315 142.241,185.569 143.546 L 186.485 144.500 188.087 144.500 L 189.688 144.500 190.594 143.594 L 191.500 142.688 191.500 141.572 L 191.500 140.455 190.555 139.485 C 189.650 138.556,189.571 138.513,188.680 138.466 L 187.750 138.417 187.700 137.819 C 187.632 137.009,187.875 136.858,189.341 136.800 L 190.583 136.750 190.583 136.167 L 190.583 135.583 188.478 135.537 C 186.668 135.497,186.358 135.528,186.270 135.759 M209.398 135.738 C 209.055 136.633,209.276 136.745,211.581 136.833 C 214.326 136.939,214.340 136.978,212.344 138.938 L 210.838 140.417 210.836 141.286 C 210.834 141.983,210.767 142.190,210.500 142.333 C 210.223 142.481,210.167 142.682,210.167 143.514 L 210.167 144.516 211.208 144.466 L 212.250 144.417 212.300 143.454 C 212.339 142.716,212.426 142.445,212.675 142.289 C 212.928 142.132,213.000 141.899,213.000 141.243 C 213.000 140.466,213.058 140.342,213.747 139.658 C 214.209 139.199,214.495 138.766,214.497 138.519 C 214.499 138.266,214.802 137.825,215.333 137.302 C 216.159 136.489,216.261 136.274,216.066 135.764 C 215.921 135.388,209.542 135.363,209.398 135.738 M234.866 136.407 C 233.733 137.558,233.596 139.036,234.613 139.135 C 235.561 139.227,235.597 139.544,234.755 140.385 C 233.614 141.526,233.648 142.414,234.880 143.631 L 235.760 144.500 237.344 144.500 L 238.928 144.500 239.797 143.620 C 241.014 142.387,241.045 141.519,239.911 140.385 C 239.070 139.544,239.106 139.227,240.054 139.135 C 241.071 139.036,240.934 137.558,239.801 136.407 L 238.917 135.508 237.333 135.508 L 235.750 135.508 234.866 136.407 M260.833 135.833 C 260.721 136.043,260.484 136.167,260.194 136.167 C 259.613 136.167,259.333 136.442,259.333 137.014 C 259.333 137.308,259.190 137.556,258.917 137.735 C 258.511 138.000,258.500 138.061,258.500 139.974 C 258.500 141.863,258.516 141.954,258.917 142.302 C 259.147 142.503,259.333 142.845,259.333 143.069 C 259.333 144.029,260.192 144.500,261.940 144.500 L 263.522 144.500 264.428 143.594 L 265.333 142.688 265.333 141.540 L 265.333 140.392 264.421 139.488 L 263.509 138.583 262.230 138.500 C 260.772 138.405,260.480 138.183,260.760 137.384 C 261.003 136.690,262.665 136.589,263.093 137.242 C 263.334 137.609,263.492 137.667,264.259 137.667 C 265.481 137.667,265.507 137.466,264.419 136.411 L 263.478 135.500 262.245 135.500 C 261.182 135.500,260.987 135.546,260.833 135.833 M238.300 137.033 C 238.410 137.143,238.500 137.616,238.500 138.083 C 238.500 139.131,238.311 139.333,237.333 139.333 C 236.356 139.333,236.167 139.131,236.167 138.083 C 236.167 137.036,236.356 136.833,237.333 136.833 C 237.755 136.833,238.190 136.923,238.300 137.033 M163.800 138.700 C 163.916 138.816,164.000 139.371,164.000 140.021 C 164.000 141.480,163.821 141.667,162.418 141.667 C 160.446 141.667,160.411 141.492,162.042 139.790 C 163.302 138.474,163.470 138.370,163.800 138.700 M263.066 140.264 C 263.513 141.431,263.085 143.167,262.349 143.167 C 261.230 143.167,260.121 140.946,260.867 140.200 C 261.178 139.889,262.941 139.940,263.066 140.264 M238.300 140.867 C 238.410 140.977,238.500 141.494,238.500 142.016 C 238.500 143.074,238.406 143.167,237.333 143.167 C 236.261 143.167,236.167 143.074,236.167 142.016 C 236.167 140.867,236.340 140.667,237.333 140.667 C 237.755 140.667,238.190 140.757,238.300 140.867 " stroke="none" fill="#000000" fill-rule="evenodd"></path>
   </g>
</svg>