<svg id="svg" version="1.1" xmlns="http://www.w3.org/2000/svg" xmlns:xlink="http://www.w3.org/1999/xlink" width="400" height="153.84615384615384" viewBox="0, 0, 400,153.84615384615384">
   <g id="svgg">
      <path id="path0" d="M0.000 76.917 L 0.000 153.833 200.000 153.833 L 400.000 153.833 400.000 76.917 L 400.000 0.000 200.000 0.000 L 0.000 0.000 0.000 76.917 M182.459 76.833 C 182.499 146.809,182.484 151.430,182.219 151.625 C 181.732 151.984,167.373 151.921,166.971 151.558 C 166.611 151.231,166.480 3.159,166.840 2.487 C 167.009 2.173,167.234 2.165,174.715 2.207 L 182.417 2.250 182.459 76.833 M203.994 2.489 C 204.328 3.112,204.225 151.159,203.891 151.529 C 203.545 151.911,188.910 152.010,188.533 151.633 C 188.315 151.415,188.226 2.496,188.444 2.278 C 188.765 1.957,203.819 2.162,203.994 2.489 M216.293 76.833 C 216.333 146.809,216.318 151.430,216.052 151.625 C 215.697 151.887,210.636 151.918,210.156 151.661 C 209.748 151.443,209.634 2.443,210.042 2.275 C 210.156 2.228,211.600 2.203,213.250 2.220 L 216.250 2.250 216.293 76.833 M228.403 2.268 C 228.859 2.443,228.801 151.416,228.344 151.661 C 227.921 151.887,222.913 151.887,222.489 151.661 C 222.162 151.486,221.952 2.604,222.278 2.278 C 222.417 2.139,228.043 2.130,228.403 2.268 " stroke="none" fill="#ffffff" fill-rule="evenodd"></path>
      <path id="path1" d="M167.187 2.559 C 167.049 2.725,167.011 22.298,167.041 77.101 L 167.083 151.417 174.481 151.460 C 179.804 151.491,181.942 151.451,182.106 151.315 C 182.422 151.052,182.449 2.849,182.133 2.533 C 181.823 2.223,167.445 2.248,167.187 2.559 M188.700 2.533 C 188.467 2.766,188.406 150.927,188.638 151.293 C 188.743 151.458,190.380 151.494,196.261 151.460 L 203.750 151.417 203.792 77.101 C 203.823 22.298,203.785 2.725,203.646 2.559 C 203.388 2.248,189.010 2.223,188.700 2.533 M210.244 2.542 C 210.200 2.656,210.184 36.200,210.207 77.083 L 210.250 151.417 212.978 151.463 C 214.848 151.494,215.778 151.448,215.936 151.317 C 216.255 151.052,216.285 2.852,215.967 2.533 C 215.677 2.244,210.354 2.252,210.244 2.542 M222.537 2.529 C 222.215 2.852,222.241 151.050,222.564 151.317 C 222.722 151.448,223.652 151.494,225.522 151.463 L 228.250 151.417 228.250 76.917 L 228.250 2.417 225.496 2.371 C 223.494 2.338,222.685 2.381,222.537 2.529 " stroke="none" fill="#000000" fill-rule="evenodd"></path>
   </g>
</svg>