<svg id="svg" version="1.1" xmlns="http://www.w3.org/2000/svg" xmlns:xlink="http://www.w3.org/1999/xlink" width="400" height="153.84615384615384" viewBox="0, 0, 400,153.84615384615384">
   <g id="svgg">
      <path id="path0" d="M0.000 76.917 L 0.000 153.833 200.000 153.833 L 400.000 153.833 400.000 76.917 L 400.000 0.000 200.000 0.000 L 0.000 0.000 0.000 76.917 M83.792 77.657 C 83.825 127.872,83.792 140.590,83.625 140.696 C 83.264 140.925,65.765 140.865,65.533 140.633 C 65.241 140.341,65.242 15.158,65.535 14.865 C 65.688 14.712,67.876 14.674,74.743 14.707 L 83.750 14.750 83.792 77.657 M102.292 77.566 C 102.323 123.865,102.285 140.441,102.146 140.608 C 101.894 140.912,96.669 140.935,96.367 140.633 C 96.146 140.412,96.061 14.995,96.281 14.774 C 96.345 14.711,97.713 14.680,99.323 14.705 L 102.250 14.750 102.292 77.566 M132.967 14.867 C 133.258 15.158,133.258 140.342,132.967 140.633 C 132.678 140.922,115.155 140.922,114.867 140.633 C 114.648 140.415,114.560 14.996,114.778 14.778 C 114.993 14.562,132.749 14.649,132.967 14.867 M151.467 14.867 C 151.866 15.266,151.744 140.447,151.344 140.661 C 150.874 140.912,145.788 140.888,145.533 140.633 C 145.242 140.342,145.242 15.158,145.533 14.867 C 145.814 14.586,151.186 14.586,151.467 14.867 M182.292 77.566 C 182.323 123.865,182.285 140.441,182.146 140.608 C 181.888 140.920,164.344 140.944,164.033 140.633 C 163.741 140.341,163.742 15.158,164.035 14.865 C 164.188 14.712,166.376 14.674,173.243 14.707 L 182.250 14.750 182.292 77.566 M200.633 14.867 C 200.925 15.158,200.925 140.342,200.633 140.633 C 200.353 140.914,195.147 140.914,194.867 140.633 C 194.648 140.415,194.560 14.996,194.778 14.778 C 194.987 14.569,200.418 14.651,200.633 14.867 M231.467 14.867 C 231.758 15.158,231.758 140.342,231.467 140.633 C 231.178 140.922,213.489 140.922,213.200 140.633 C 212.909 140.342,212.909 15.158,213.200 14.867 C 213.489 14.578,231.178 14.578,231.467 14.867 M249.959 77.566 C 249.989 123.865,249.951 140.441,249.813 140.608 C 249.560 140.912,244.335 140.935,244.033 140.633 C 243.738 140.338,243.742 15.158,244.037 14.863 C 244.185 14.715,245.012 14.671,247.079 14.705 L 249.917 14.750 249.959 77.566 M280.633 14.867 C 280.925 15.158,280.925 140.342,280.633 140.633 C 280.345 140.922,262.822 140.922,262.533 140.633 C 262.315 140.415,262.226 14.996,262.444 14.778 C 262.660 14.562,280.416 14.649,280.633 14.867 M299.133 14.867 C 299.425 15.158,299.425 140.342,299.133 140.633 C 298.853 140.914,293.481 140.914,293.200 140.633 C 292.909 140.342,292.909 15.158,293.200 14.867 C 293.481 14.586,298.853 14.586,299.133 14.867 M329.959 77.566 C 329.989 123.865,329.951 140.441,329.813 140.608 C 329.554 140.920,312.011 140.944,311.700 140.633 C 311.407 140.341,311.409 15.158,311.701 14.865 C 311.855 14.712,314.043 14.674,320.910 14.707 L 329.917 14.750 329.959 77.566 " stroke="none" fill="#ffffff" fill-rule="evenodd"></path>
      <path id="path1" d="M65.535 14.865 C 65.242 15.158,65.241 140.341,65.533 140.633 C 65.765 140.865,83.264 140.925,83.625 140.696 C 83.792 140.590,83.825 127.872,83.792 77.657 L 83.750 14.750 74.743 14.707 C 67.876 14.674,65.688 14.712,65.535 14.865 M96.281 14.774 C 96.061 14.995,96.146 140.412,96.367 140.633 C 96.669 140.935,101.894 140.912,102.146 140.608 C 102.285 140.441,102.323 123.865,102.292 77.566 L 102.250 14.750 99.323 14.705 C 97.713 14.680,96.345 14.711,96.281 14.774 M114.778 14.778 C 114.560 14.996,114.648 140.415,114.867 140.633 C 115.155 140.922,132.678 140.922,132.967 140.633 C 133.258 140.342,133.258 15.158,132.967 14.867 C 132.749 14.649,114.993 14.562,114.778 14.778 M145.533 14.867 C 145.242 15.158,145.242 140.342,145.533 140.633 C 145.788 140.888,150.874 140.912,151.344 140.661 C 151.744 140.447,151.866 15.266,151.467 14.867 C 151.186 14.586,145.814 14.586,145.533 14.867 M164.035 14.865 C 163.742 15.158,163.741 140.341,164.033 140.633 C 164.344 140.944,181.888 140.920,182.146 140.608 C 182.285 140.441,182.323 123.865,182.292 77.566 L 182.250 14.750 173.243 14.707 C 166.376 14.674,164.188 14.712,164.035 14.865 M194.778 14.778 C 194.560 14.996,194.648 140.415,194.867 140.633 C 195.147 140.914,200.353 140.914,200.633 140.633 C 200.925 140.342,200.925 15.158,200.633 14.867 C 200.418 14.651,194.987 14.569,194.778 14.778 M213.200 14.867 C 212.909 15.158,212.909 140.342,213.200 140.633 C 213.489 140.922,231.178 140.922,231.467 140.633 C 231.758 140.342,231.758 15.158,231.467 14.867 C 231.178 14.578,213.489 14.578,213.200 14.867 M244.037 14.863 C 243.742 15.158,243.738 140.338,244.033 140.633 C 244.335 140.935,249.560 140.912,249.813 140.608 C 249.951 140.441,249.989 123.865,249.959 77.566 L 249.917 14.750 247.079 14.705 C 245.012 14.671,244.185 14.715,244.037 14.863 M262.444 14.778 C 262.226 14.996,262.315 140.415,262.533 140.633 C 262.822 140.922,280.345 140.922,280.633 140.633 C 280.925 140.342,280.925 15.158,280.633 14.867 C 280.416 14.649,262.660 14.562,262.444 14.778 M293.200 14.867 C 292.909 15.158,292.909 140.342,293.200 140.633 C 293.481 140.914,298.853 140.914,299.133 140.633 C 299.425 140.342,299.425 15.158,299.133 14.867 C 298.853 14.586,293.481 14.586,293.200 14.867 M311.701 14.865 C 311.409 15.158,311.407 140.341,311.700 140.633 C 312.011 140.944,329.554 140.920,329.813 140.608 C 329.951 140.441,329.989 123.865,329.959 77.566 L 329.917 14.750 320.910 14.707 C 314.043 14.674,311.855 14.712,311.701 14.865 " stroke="none" fill="#000000" fill-rule="evenodd"></path>
   </g>
</svg>