<svg id="svg" version="1.1" xmlns="http://www.w3.org/2000/svg" xmlns:xlink="http://www.w3.org/1999/xlink" width="400" height="153.84615384615384" viewBox="0, 0, 400,153.84615384615384">
   <g id="svgg">
      <path id="path0" d="M0.000 76.917 L 0.000 153.833 200.000 153.833 L 400.000 153.833 400.000 76.917 L 400.000 0.000 200.000 0.000 L 0.000 0.000 0.000 76.917 M15.566 68.597 C 15.828 69.282,15.672 98.970,15.405 99.238 C 15.098 99.545,13.015 99.609,12.489 99.327 C 12.162 99.152,11.954 68.768,12.278 68.444 C 12.534 68.188,15.461 68.324,15.566 68.597 M27.800 68.533 C 28.144 68.877,28.084 98.893,27.738 99.238 C 27.470 99.506,25.342 99.621,24.764 99.399 C 24.488 99.293,24.338 68.718,24.611 68.444 C 24.812 68.243,27.588 68.321,27.800 68.533 M40.126 83.823 C 40.160 96.038,40.125 99.257,39.959 99.362 C 39.556 99.618,37.212 99.522,36.929 99.238 C 36.578 98.888,36.523 68.877,36.872 68.528 C 37.013 68.387,37.555 68.337,38.581 68.369 L 40.083 68.417 40.126 83.823 M46.293 83.855 L 46.335 99.294 45.959 99.395 C 45.167 99.607,43.365 99.508,43.095 99.238 C 42.826 98.969,42.673 69.280,42.937 68.591 C 43.024 68.364,43.292 68.329,44.645 68.369 L 46.250 68.417 46.293 83.855 M52.460 83.750 C 52.509 101.328,52.710 99.500,50.730 99.500 C 48.811 99.500,49.000 101.205,49.000 83.918 C 49.000 75.637,49.047 68.739,49.103 68.591 C 49.191 68.364,49.459 68.329,50.812 68.369 L 52.417 68.417 52.460 83.750 M64.793 83.750 C 64.843 101.328,65.043 99.500,63.063 99.500 C 61.144 99.500,61.333 101.205,61.333 83.918 C 61.333 75.637,61.380 68.739,61.437 68.591 C 61.524 68.364,61.792 68.329,63.145 68.369 L 64.750 68.417 64.793 83.750 M70.899 68.597 C 71.162 69.282,71.006 98.970,70.738 99.238 C 70.368 99.608,68.132 99.608,67.762 99.238 C 67.494 98.970,67.338 69.282,67.601 68.597 C 67.683 68.383,67.992 68.333,69.250 68.333 C 70.508 68.333,70.817 68.383,70.899 68.597 M83.232 68.597 C 83.495 69.282,83.339 98.970,83.071 99.238 C 82.765 99.545,80.681 99.609,80.156 99.327 C 79.829 99.152,79.621 68.768,79.944 68.444 C 80.201 68.188,83.127 68.324,83.232 68.597 M95.566 68.597 C 95.828 69.282,95.672 98.970,95.405 99.238 C 95.098 99.545,93.015 99.609,92.489 99.327 C 92.162 99.152,91.954 68.768,92.278 68.444 C 92.534 68.188,95.461 68.324,95.566 68.597 M107.800 68.533 C 108.144 68.877,108.084 98.893,107.738 99.238 C 107.470 99.506,105.342 99.621,104.764 99.399 C 104.488 99.293,104.338 68.718,104.611 68.444 C 104.812 68.243,107.588 68.321,107.800 68.533 M126.293 83.855 L 126.335 99.294 125.959 99.395 C 125.167 99.607,123.365 99.508,123.095 99.238 C 122.826 98.969,122.673 69.280,122.937 68.591 C 123.024 68.364,123.292 68.329,124.645 68.369 L 126.250 68.417 126.293 83.855 M132.460 83.750 C 132.509 101.328,132.710 99.500,130.730 99.500 C 128.811 99.500,129.000 101.205,129.000 83.918 C 129.000 75.637,129.047 68.739,129.103 68.591 C 129.191 68.364,129.459 68.329,130.812 68.369 L 132.417 68.417 132.460 83.750 M138.626 83.750 C 138.676 101.328,138.877 99.500,136.897 99.500 C 134.977 99.500,135.167 101.205,135.167 83.918 C 135.167 75.637,135.213 68.739,135.270 68.591 C 135.357 68.364,135.626 68.329,136.978 68.369 L 138.583 68.417 138.626 83.750 M144.793 83.750 C 144.843 101.328,145.043 99.500,143.063 99.500 C 141.144 99.500,141.333 101.205,141.333 83.918 C 141.333 75.637,141.380 68.739,141.437 68.591 C 141.524 68.364,141.792 68.329,143.145 68.369 L 144.750 68.417 144.793 83.750 M150.899 68.597 C 151.162 69.282,151.006 98.970,150.738 99.238 C 150.368 99.608,148.132 99.608,147.762 99.238 C 147.494 98.970,147.338 69.282,147.601 68.597 C 147.683 68.383,147.992 68.333,149.250 68.333 C 150.508 68.333,150.817 68.383,150.899 68.597 M157.066 68.597 C 157.328 69.282,157.172 98.970,156.905 99.238 C 156.598 99.545,154.515 99.609,153.989 99.327 C 153.662 99.152,153.454 68.768,153.778 68.444 C 154.034 68.188,156.961 68.324,157.066 68.597 M175.566 68.597 C 175.828 69.282,175.672 98.970,175.405 99.238 C 175.098 99.545,173.015 99.609,172.489 99.327 C 172.162 99.152,171.954 68.768,172.278 68.444 C 172.534 68.188,175.461 68.324,175.566 68.597 M181.732 68.597 C 181.995 69.282,181.839 98.970,181.571 99.238 C 181.304 99.506,179.175 99.621,178.597 99.399 C 178.322 99.293,178.171 68.718,178.444 68.444 C 178.701 68.188,181.627 68.324,181.732 68.597 M200.126 83.823 C 200.160 96.038,200.125 99.257,199.959 99.362 C 199.556 99.618,197.212 99.522,196.929 99.238 C 196.578 98.888,196.523 68.877,196.872 68.528 C 197.013 68.387,197.555 68.337,198.581 68.369 L 200.083 68.417 200.126 83.823 M206.293 83.855 L 206.335 99.294 205.959 99.395 C 205.167 99.607,203.365 99.508,203.095 99.238 C 202.826 98.969,202.673 69.280,202.937 68.591 C 203.024 68.364,203.292 68.329,204.645 68.369 L 206.250 68.417 206.293 83.855 M218.626 83.750 C 218.676 101.328,218.877 99.500,216.897 99.500 C 214.977 99.500,215.167 101.205,215.167 83.918 C 215.167 75.637,215.213 68.739,215.270 68.591 C 215.357 68.364,215.626 68.329,216.978 68.369 L 218.583 68.417 218.626 83.750 M230.899 68.597 C 231.162 69.282,231.006 98.970,230.738 99.238 C 230.368 99.608,228.132 99.608,227.762 99.238 C 227.494 98.970,227.338 69.282,227.601 68.597 C 227.683 68.383,227.992 68.333,229.250 68.333 C 230.508 68.333,230.817 68.383,230.899 68.597 M237.066 68.597 C 237.328 69.282,237.172 98.970,236.905 99.238 C 236.535 99.608,234.298 99.608,233.929 99.238 C 233.661 98.970,233.505 69.282,233.768 68.597 C 233.850 68.383,234.159 68.333,235.417 68.333 C 236.674 68.333,236.983 68.383,237.066 68.597 M243.232 68.597 C 243.495 69.282,243.339 98.970,243.071 99.238 C 242.765 99.545,240.681 99.609,240.156 99.327 C 239.829 99.152,239.621 68.768,239.944 68.444 C 240.201 68.188,243.127 68.324,243.232 68.597 M249.399 68.597 C 249.662 69.282,249.506 98.970,249.238 99.238 C 248.931 99.545,246.848 99.609,246.322 99.327 C 245.995 99.152,245.787 68.768,246.111 68.444 C 246.367 68.188,249.294 68.324,249.399 68.597 M267.800 68.533 C 268.144 68.877,268.084 98.893,267.738 99.238 C 267.470 99.506,265.342 99.621,264.764 99.399 C 264.488 99.293,264.338 68.718,264.611 68.444 C 264.812 68.243,267.588 68.321,267.800 68.533 M273.967 68.533 C 274.311 68.877,274.250 98.893,273.905 99.238 C 273.533 99.610,271.134 99.610,270.762 99.238 C 270.416 98.893,270.356 68.877,270.700 68.533 C 270.970 68.263,273.697 68.263,273.967 68.533 M280.126 83.823 C 280.160 96.038,280.125 99.257,279.959 99.362 C 279.556 99.618,277.212 99.522,276.929 99.238 C 276.578 98.888,276.523 68.877,276.872 68.528 C 277.013 68.387,277.555 68.337,278.581 68.369 L 280.083 68.417 280.126 83.823 M298.626 83.750 C 298.676 101.328,298.877 99.500,296.897 99.500 C 294.977 99.500,295.167 101.205,295.167 83.918 C 295.167 75.637,295.213 68.739,295.270 68.591 C 295.357 68.364,295.626 68.329,296.978 68.369 L 298.583 68.417 298.626 83.750 M310.899 68.597 C 311.162 69.282,311.006 98.970,310.738 99.238 C 310.368 99.608,308.132 99.608,307.762 99.238 C 307.494 98.970,307.338 69.282,307.601 68.597 C 307.683 68.383,307.992 68.333,309.250 68.333 C 310.508 68.333,310.817 68.383,310.899 68.597 M323.232 68.597 C 323.495 69.282,323.339 98.970,323.071 99.238 C 322.765 99.545,320.681 99.609,320.156 99.327 C 319.829 99.152,319.621 68.768,319.944 68.444 C 320.201 68.188,323.127 68.324,323.232 68.597 M329.399 68.597 C 329.662 69.282,329.506 98.970,329.238 99.238 C 328.931 99.545,326.848 99.609,326.322 99.327 C 325.995 99.152,325.787 68.768,326.111 68.444 C 326.367 68.188,329.294 68.324,329.399 68.597 M341.732 68.597 C 341.995 69.282,341.839 98.970,341.571 99.238 C 341.304 99.506,339.175 99.621,338.597 99.399 C 338.322 99.293,338.171 68.718,338.444 68.444 C 338.701 68.188,341.627 68.324,341.732 68.597 M347.800 68.533 C 348.144 68.877,348.084 98.893,347.738 99.238 C 347.470 99.506,345.342 99.621,344.764 99.399 C 344.488 99.293,344.338 68.718,344.611 68.444 C 344.812 68.243,347.588 68.321,347.800 68.533 M360.126 83.823 C 360.160 96.038,360.125 99.257,359.959 99.362 C 359.556 99.618,357.212 99.522,356.929 99.238 C 356.578 98.888,356.523 68.877,356.872 68.528 C 357.013 68.387,357.555 68.337,358.581 68.369 L 360.083 68.417 360.126 83.823 M366.293 83.855 L 366.335 99.294 365.959 99.395 C 365.167 99.607,363.365 99.508,363.095 99.238 C 362.826 98.969,362.673 69.280,362.937 68.591 C 363.024 68.364,363.292 68.329,364.645 68.369 L 366.250 68.417 366.293 83.855 M378.626 83.750 C 378.676 101.328,378.877 99.500,376.897 99.500 C 374.977 99.500,375.167 101.205,375.167 83.918 C 375.167 75.637,375.213 68.739,375.270 68.591 C 375.357 68.364,375.626 68.329,376.978 68.369 L 378.583 68.417 378.626 83.750 M390.899 68.597 C 391.162 69.282,391.006 98.970,390.738 99.238 C 390.368 99.608,388.132 99.608,387.762 99.238 C 387.494 98.970,387.338 69.282,387.601 68.597 C 387.683 68.383,387.992 68.333,389.250 68.333 C 390.508 68.333,390.817 68.383,390.899 68.597 M21.661 83.989 C 21.975 84.575,21.890 98.919,21.571 99.238 C 21.304 99.506,19.175 99.621,18.597 99.399 C 18.322 99.293,18.173 84.049,18.444 83.778 C 18.740 83.482,21.486 83.663,21.661 83.989 M33.994 83.989 C 34.106 84.197,34.167 86.908,34.167 91.644 C 34.167 100.195,34.329 99.500,32.333 99.500 C 30.338 99.500,30.500 100.195,30.500 91.644 C 30.500 82.992,30.345 83.667,32.333 83.667 C 33.634 83.667,33.843 83.707,33.994 83.989 M58.467 83.867 C 58.860 84.260,58.742 99.114,58.344 99.327 C 57.819 99.609,55.735 99.545,55.429 99.238 C 55.085 98.894,55.026 84.208,55.367 83.867 C 55.635 83.598,58.198 83.598,58.467 83.867 M76.967 83.867 C 77.116 84.016,77.167 85.946,77.167 91.521 C 77.167 100.181,77.316 99.500,75.417 99.500 C 73.517 99.500,73.667 100.181,73.667 91.521 C 73.667 85.946,73.717 84.016,73.867 83.867 C 74.135 83.598,76.698 83.598,76.967 83.867 M89.300 83.867 C 89.641 84.208,89.582 98.894,89.238 99.238 C 88.931 99.545,86.848 99.609,86.322 99.327 C 86.000 99.155,85.793 84.735,86.101 83.930 C 86.229 83.598,88.976 83.543,89.300 83.867 M101.661 83.989 C 101.975 84.575,101.890 98.919,101.571 99.238 C 101.304 99.506,99.175 99.621,98.597 99.399 C 98.322 99.293,98.173 84.049,98.444 83.778 C 98.740 83.482,101.486 83.663,101.661 83.989 M113.994 83.989 C 114.106 84.197,114.167 86.908,114.167 91.644 C 114.167 100.195,114.329 99.500,112.333 99.500 C 110.338 99.500,110.500 100.195,110.500 91.644 C 110.500 82.992,110.345 83.667,112.333 83.667 C 113.634 83.667,113.843 83.707,113.994 83.989 M120.127 91.489 C 120.161 97.570,120.125 99.257,119.960 99.362 C 119.557 99.618,117.213 99.522,116.929 99.238 C 116.607 98.916,116.526 84.575,116.842 83.983 C 117.001 83.687,117.169 83.659,118.551 83.702 L 120.083 83.750 120.127 91.489 M163.133 83.867 C 163.474 84.208,163.415 98.894,163.071 99.238 C 162.765 99.545,160.681 99.609,160.156 99.327 C 159.758 99.114,159.640 84.260,160.033 83.867 C 160.302 83.598,162.865 83.598,163.133 83.867 M169.300 83.867 C 169.641 84.208,169.582 98.894,169.238 99.238 C 168.931 99.545,166.848 99.609,166.322 99.327 C 166.000 99.155,165.793 84.735,166.101 83.930 C 166.229 83.598,168.976 83.543,169.300 83.867 M187.827 83.989 C 188.141 84.575,188.057 98.919,187.738 99.238 C 187.470 99.506,185.342 99.621,184.764 99.399 C 184.489 99.293,184.340 84.049,184.611 83.778 C 184.906 83.482,187.653 83.663,187.827 83.989 M193.994 83.989 C 194.106 84.197,194.167 86.908,194.167 91.644 C 194.167 100.195,194.329 99.500,192.333 99.500 C 190.338 99.500,190.500 100.195,190.500 91.644 C 190.500 82.992,190.345 83.667,192.333 83.667 C 193.634 83.667,193.843 83.707,193.994 83.989 M212.399 83.930 C 212.707 84.735,212.500 99.155,212.178 99.327 C 211.652 99.609,209.569 99.545,209.262 99.238 C 208.943 98.919,208.859 84.575,209.173 83.989 C 209.408 83.549,212.233 83.498,212.399 83.930 M224.633 83.867 C 225.026 84.260,224.909 99.114,224.511 99.327 C 223.985 99.609,221.902 99.545,221.595 99.238 C 221.252 98.894,221.192 84.208,221.533 83.867 C 221.802 83.598,224.365 83.598,224.633 83.867 M255.494 83.989 C 255.808 84.575,255.724 98.919,255.405 99.238 C 255.098 99.545,253.015 99.609,252.489 99.327 C 252.166 99.155,251.959 84.735,252.268 83.930 C 252.434 83.498,255.259 83.549,255.494 83.989 M261.661 83.989 C 261.975 84.575,261.890 98.919,261.571 99.238 C 261.304 99.506,259.175 99.621,258.597 99.399 C 258.322 99.293,258.173 84.049,258.444 83.778 C 258.740 83.482,261.486 83.663,261.661 83.989 M286.232 83.930 C 286.541 84.735,286.334 99.155,286.011 99.327 C 285.485 99.609,283.402 99.545,283.095 99.238 C 282.776 98.919,282.692 84.575,283.006 83.989 C 283.241 83.549,286.066 83.498,286.232 83.930 M292.399 83.930 C 292.707 84.735,292.500 99.155,292.178 99.327 C 291.652 99.609,289.569 99.545,289.262 99.238 C 288.943 98.919,288.859 84.575,289.173 83.989 C 289.408 83.549,292.233 83.498,292.399 83.930 M304.633 83.867 C 305.026 84.260,304.909 99.114,304.511 99.327 C 303.985 99.609,301.902 99.545,301.595 99.238 C 301.252 98.894,301.192 84.208,301.533 83.867 C 301.802 83.598,304.365 83.598,304.633 83.867 M316.967 83.867 C 317.308 84.208,317.248 98.894,316.905 99.238 C 316.598 99.545,314.515 99.609,313.989 99.327 C 313.591 99.114,313.474 84.260,313.867 83.867 C 314.135 83.598,316.698 83.598,316.967 83.867 M335.494 83.989 C 335.808 84.575,335.724 98.919,335.405 99.238 C 335.098 99.545,333.015 99.609,332.489 99.327 C 332.166 99.155,331.959 84.735,332.268 83.930 C 332.434 83.498,335.259 83.549,335.494 83.989 M353.994 83.989 C 354.106 84.197,354.167 86.908,354.167 91.644 C 354.167 100.195,354.329 99.500,352.333 99.500 C 350.338 99.500,350.500 100.195,350.500 91.644 C 350.500 82.992,350.345 83.667,352.333 83.667 C 353.634 83.667,353.843 83.707,353.994 83.989 M372.399 83.930 C 372.707 84.735,372.500 99.155,372.178 99.327 C 371.652 99.609,369.569 99.545,369.262 99.238 C 368.943 98.919,368.859 84.575,369.173 83.989 C 369.408 83.549,372.233 83.498,372.399 83.930 M384.633 83.867 C 385.026 84.260,384.909 99.114,384.511 99.327 C 383.985 99.609,381.902 99.545,381.595 99.238 C 381.252 98.894,381.192 84.208,381.533 83.867 C 381.802 83.598,384.365 83.598,384.633 83.867 " stroke="none" fill="#ffffff" fill-rule="evenodd"></path>
      <path id="path1" d="M12.533 68.700 C 12.213 69.020,12.247 98.721,12.568 98.987 C 12.713 99.108,13.268 99.163,14.026 99.133 L 15.250 99.083 15.293 83.927 C 15.326 71.912,15.292 68.743,15.126 68.638 C 14.794 68.427,12.757 68.476,12.533 68.700 M24.867 68.700 C 24.632 68.935,24.575 98.597,24.809 98.966 C 24.907 99.120,25.322 99.168,26.264 99.133 L 27.583 99.083 27.626 83.927 C 27.660 71.912,27.625 68.743,27.459 68.638 C 27.127 68.427,25.091 68.476,24.867 68.700 M37.207 68.638 C 37.042 68.743,37.007 71.912,37.041 83.927 L 37.083 99.083 38.402 99.133 C 39.345 99.168,39.760 99.120,39.858 98.966 C 40.092 98.597,40.035 68.935,39.800 68.700 C 39.576 68.476,37.539 68.427,37.207 68.638 M43.374 68.638 C 43.208 68.743,43.174 71.912,43.207 83.927 L 43.250 99.083 44.474 99.133 C 45.232 99.163,45.787 99.108,45.932 98.987 C 46.253 98.721,46.287 69.020,45.967 68.700 C 45.743 68.476,43.706 68.427,43.374 68.638 M49.541 68.638 C 49.375 68.743,49.340 71.912,49.374 83.927 L 49.417 99.083 50.640 99.133 C 51.399 99.163,51.953 99.108,52.099 98.987 C 52.420 98.721,52.454 69.020,52.133 68.700 C 51.909 68.476,49.873 68.427,49.541 68.638 M61.874 68.634 C 61.708 68.742,61.674 71.914,61.707 83.927 L 61.750 99.083 63.083 99.083 L 64.417 99.083 64.417 83.833 L 64.417 68.583 63.250 68.540 C 62.608 68.517,61.989 68.559,61.874 68.634 M67.913 68.701 C 67.868 68.820,67.850 75.704,67.874 84.000 L 67.917 99.083 69.250 99.083 L 70.583 99.083 70.583 83.833 L 70.583 68.583 69.289 68.535 C 68.348 68.499,67.973 68.545,67.913 68.701 M80.243 68.708 C 80.200 68.823,80.183 75.704,80.207 84.000 L 80.250 99.083 81.583 99.083 L 82.917 99.083 82.959 83.927 C 82.993 71.912,82.958 68.743,82.793 68.638 C 82.441 68.415,80.333 68.473,80.243 68.708 M92.533 68.700 C 92.213 69.020,92.247 98.721,92.568 98.987 C 92.713 99.108,93.268 99.163,94.026 99.133 L 95.250 99.083 95.293 83.927 C 95.326 71.912,95.292 68.743,95.126 68.638 C 94.794 68.427,92.757 68.476,92.533 68.700 M104.867 68.700 C 104.632 68.935,104.575 98.597,104.809 98.966 C 104.907 99.120,105.322 99.168,106.264 99.133 L 107.583 99.083 107.626 83.927 C 107.660 71.912,107.625 68.743,107.459 68.638 C 107.127 68.427,105.091 68.476,104.867 68.700 M123.374 68.638 C 123.208 68.743,123.174 71.912,123.207 83.927 L 123.250 99.083 124.474 99.133 C 125.232 99.163,125.787 99.108,125.932 98.987 C 126.253 98.721,126.287 69.020,125.967 68.700 C 125.743 68.476,123.706 68.427,123.374 68.638 M129.541 68.638 C 129.375 68.743,129.340 71.912,129.374 83.927 L 129.417 99.083 130.640 99.133 C 131.399 99.163,131.953 99.108,132.099 98.987 C 132.420 98.721,132.454 69.020,132.133 68.700 C 131.909 68.476,129.873 68.427,129.541 68.638 M135.707 68.634 C 135.542 68.742,135.507 71.914,135.541 83.927 L 135.583 99.083 136.917 99.083 L 138.250 99.083 138.250 83.833 L 138.250 68.583 137.083 68.540 C 136.442 68.517,135.823 68.559,135.707 68.634 M141.874 68.634 C 141.708 68.742,141.674 71.914,141.707 83.927 L 141.750 99.083 143.083 99.083 L 144.417 99.083 144.417 83.833 L 144.417 68.583 143.250 68.540 C 142.608 68.517,141.989 68.559,141.874 68.634 M147.913 68.701 C 147.868 68.820,147.850 75.704,147.874 84.000 L 147.917 99.083 149.250 99.083 L 150.583 99.083 150.583 83.833 L 150.583 68.583 149.289 68.535 C 148.348 68.499,147.973 68.545,147.913 68.701 M154.079 68.701 C 154.034 68.820,154.017 75.704,154.040 84.000 L 154.083 99.083 155.417 99.083 L 156.750 99.083 156.750 83.833 L 156.750 68.583 155.456 68.535 C 154.515 68.499,154.139 68.545,154.079 68.701 M172.533 68.700 C 172.213 69.020,172.247 98.721,172.568 98.987 C 172.713 99.108,173.268 99.163,174.026 99.133 L 175.250 99.083 175.293 83.927 C 175.326 71.912,175.292 68.743,175.126 68.638 C 174.794 68.427,172.757 68.476,172.533 68.700 M178.700 68.700 C 178.465 68.935,178.408 98.597,178.642 98.966 C 178.740 99.120,179.155 99.168,180.098 99.133 L 181.417 99.083 181.459 83.927 C 181.493 71.912,181.458 68.743,181.293 68.638 C 180.961 68.427,178.924 68.476,178.700 68.700 M197.207 68.638 C 197.042 68.743,197.007 71.912,197.041 83.927 L 197.083 99.083 198.402 99.133 C 199.345 99.168,199.760 99.120,199.858 98.966 C 200.092 98.597,200.035 68.935,199.800 68.700 C 199.576 68.476,197.539 68.427,197.207 68.638 M203.374 68.638 C 203.208 68.743,203.174 71.912,203.207 83.927 L 203.250 99.083 204.474 99.133 C 205.232 99.163,205.787 99.108,205.932 98.987 C 206.253 98.721,206.287 69.020,205.967 68.700 C 205.743 68.476,203.706 68.427,203.374 68.638 M215.707 68.634 C 215.542 68.742,215.507 71.914,215.541 83.927 L 215.583 99.083 216.917 99.083 L 218.250 99.083 218.250 83.833 L 218.250 68.583 217.083 68.540 C 216.442 68.517,215.823 68.559,215.707 68.634 M227.913 68.701 C 227.868 68.820,227.850 75.704,227.874 84.000 L 227.917 99.083 229.250 99.083 L 230.583 99.083 230.583 83.833 L 230.583 68.583 229.289 68.535 C 228.348 68.499,227.973 68.545,227.913 68.701 M234.079 68.701 C 234.034 68.820,234.017 75.704,234.040 84.000 L 234.083 99.083 235.417 99.083 L 236.750 99.083 236.750 83.833 L 236.750 68.583 235.456 68.535 C 234.515 68.499,234.139 68.545,234.079 68.701 M240.243 68.708 C 240.200 68.823,240.183 75.704,240.207 84.000 L 240.250 99.083 241.583 99.083 L 242.917 99.083 242.959 83.927 C 242.993 71.912,242.958 68.743,242.793 68.638 C 242.441 68.415,240.333 68.473,240.243 68.708 M246.410 68.708 C 246.366 68.823,246.350 75.704,246.374 84.000 L 246.417 99.083 247.750 99.083 L 249.083 99.083 249.126 83.927 C 249.160 71.912,249.125 68.743,248.959 68.638 C 248.608 68.415,246.500 68.473,246.410 68.708 M264.867 68.700 C 264.632 68.935,264.575 98.597,264.809 98.966 C 264.907 99.120,265.322 99.168,266.264 99.133 L 267.583 99.083 267.626 83.927 C 267.660 71.912,267.625 68.743,267.459 68.638 C 267.127 68.427,265.091 68.476,264.867 68.700 M271.041 68.638 C 270.875 68.743,270.840 71.912,270.874 83.927 L 270.917 99.083 272.236 99.133 C 273.178 99.168,273.593 99.120,273.691 98.966 C 273.925 98.597,273.868 68.935,273.633 68.700 C 273.409 68.476,271.373 68.427,271.041 68.638 M277.207 68.638 C 277.042 68.743,277.007 71.912,277.041 83.927 L 277.083 99.083 278.402 99.133 C 279.345 99.168,279.760 99.120,279.858 98.966 C 280.092 98.597,280.035 68.935,279.800 68.700 C 279.576 68.476,277.539 68.427,277.207 68.638 M295.707 68.634 C 295.542 68.742,295.507 71.914,295.541 83.927 L 295.583 99.083 296.917 99.083 L 298.250 99.083 298.250 83.833 L 298.250 68.583 297.083 68.540 C 296.442 68.517,295.823 68.559,295.707 68.634 M307.913 68.701 C 307.868 68.820,307.850 75.704,307.874 84.000 L 307.917 99.083 309.250 99.083 L 310.583 99.083 310.583 83.833 L 310.583 68.583 309.289 68.535 C 308.348 68.499,307.973 68.545,307.913 68.701 M320.243 68.708 C 320.200 68.823,320.183 75.704,320.207 84.000 L 320.250 99.083 321.583 99.083 L 322.917 99.083 322.959 83.927 C 322.993 71.912,322.958 68.743,322.793 68.638 C 322.441 68.415,320.333 68.473,320.243 68.708 M326.367 68.700 C 326.046 69.020,326.080 98.721,326.401 98.987 C 326.547 99.108,327.101 99.163,327.860 99.133 L 329.083 99.083 329.126 83.927 C 329.160 71.912,329.125 68.743,328.959 68.638 C 328.627 68.427,326.591 68.476,326.367 68.700 M338.700 68.700 C 338.465 68.935,338.408 98.597,338.642 98.966 C 338.740 99.120,339.155 99.168,340.098 99.133 L 341.417 99.083 341.459 83.927 C 341.493 71.912,341.458 68.743,341.293 68.638 C 340.961 68.427,338.924 68.476,338.700 68.700 M344.867 68.700 C 344.632 68.935,344.575 98.597,344.809 98.966 C 344.907 99.120,345.322 99.168,346.264 99.133 L 347.583 99.083 347.626 83.927 C 347.660 71.912,347.625 68.743,347.459 68.638 C 347.127 68.427,345.091 68.476,344.867 68.700 M357.207 68.638 C 357.042 68.743,357.007 71.912,357.041 83.927 L 357.083 99.083 358.402 99.133 C 359.345 99.168,359.760 99.120,359.858 98.966 C 360.092 98.597,360.035 68.935,359.800 68.700 C 359.576 68.476,357.539 68.427,357.207 68.638 M363.374 68.638 C 363.208 68.743,363.174 71.912,363.207 83.927 L 363.250 99.083 364.474 99.133 C 365.232 99.163,365.787 99.108,365.932 98.987 C 366.253 98.721,366.287 69.020,365.967 68.700 C 365.743 68.476,363.706 68.427,363.374 68.638 M375.707 68.634 C 375.542 68.742,375.507 71.914,375.541 83.927 L 375.583 99.083 376.917 99.083 L 378.250 99.083 378.250 83.833 L 378.250 68.583 377.083 68.540 C 376.442 68.517,375.823 68.559,375.707 68.634 M387.913 68.701 C 387.868 68.820,387.850 75.704,387.874 84.000 L 387.917 99.083 389.250 99.083 L 390.583 99.083 390.583 83.833 L 390.583 68.583 389.289 68.535 C 388.348 68.499,387.973 68.545,387.913 68.701 M18.617 84.105 C 18.452 84.271,18.476 98.703,18.642 98.966 C 18.740 99.120,19.155 99.168,20.098 99.133 L 21.417 99.083 21.417 91.583 L 21.417 84.083 20.076 84.035 C 19.338 84.009,18.682 84.040,18.617 84.105 M30.912 84.202 C 30.867 84.320,30.849 87.717,30.873 91.750 L 30.917 99.083 32.287 99.132 C 34.009 99.192,33.853 100.009,33.796 91.250 L 33.750 84.083 32.372 84.035 C 31.365 83.999,30.973 84.044,30.912 84.202 M55.540 91.542 L 55.583 99.083 56.917 99.083 L 58.250 99.083 58.293 91.542 L 58.337 84.000 56.917 84.000 L 55.497 84.000 55.540 91.542 M74.040 91.542 L 74.083 99.083 75.417 99.083 L 76.750 99.083 76.793 91.542 L 76.837 84.000 75.417 84.000 L 73.997 84.000 74.040 91.542 M86.278 84.111 C 86.033 84.356,86.152 98.781,86.401 98.987 C 86.547 99.108,87.101 99.163,87.860 99.133 L 89.083 99.083 89.127 91.542 L 89.170 84.000 87.779 84.000 C 87.015 84.000,86.339 84.050,86.278 84.111 M98.617 84.105 C 98.452 84.271,98.476 98.703,98.642 98.966 C 98.740 99.120,99.155 99.168,100.098 99.133 L 101.417 99.083 101.417 91.583 L 101.417 84.083 100.076 84.035 C 99.338 84.009,98.682 84.040,98.617 84.105 M110.912 84.202 C 110.867 84.320,110.849 87.717,110.873 91.750 L 110.917 99.083 112.333 99.083 L 113.750 99.083 113.750 91.583 L 113.750 84.083 112.372 84.035 C 111.365 83.999,110.973 84.044,110.912 84.202 M117.079 84.202 C 117.034 84.320,117.016 87.717,117.040 91.750 L 117.083 99.083 118.453 99.132 C 120.176 99.192,120.020 100.009,119.963 91.250 L 119.917 84.083 118.539 84.035 C 117.531 83.999,117.139 84.044,117.079 84.202 M160.207 91.542 L 160.250 99.083 161.583 99.083 L 162.917 99.083 162.960 91.542 L 163.003 84.000 161.583 84.000 L 160.163 84.000 160.207 91.542 M166.278 84.111 C 166.033 84.356,166.152 98.781,166.401 98.987 C 166.547 99.108,167.101 99.163,167.860 99.133 L 169.083 99.083 169.127 91.542 L 169.170 84.000 167.779 84.000 C 167.015 84.000,166.339 84.050,166.278 84.111 M184.784 84.105 C 184.618 84.271,184.642 98.703,184.809 98.966 C 184.907 99.120,185.322 99.168,186.264 99.133 L 187.583 99.083 187.583 91.583 L 187.583 84.083 186.242 84.035 C 185.505 84.009,184.848 84.040,184.784 84.105 M190.912 84.202 C 190.867 84.320,190.849 87.717,190.873 91.750 L 190.917 99.083 192.333 99.083 L 193.750 99.083 193.750 91.583 L 193.750 84.083 192.372 84.035 C 191.365 83.999,190.973 84.044,190.912 84.202 M209.412 84.202 C 209.367 84.320,209.349 87.717,209.373 91.750 L 209.417 99.083 210.682 99.132 C 212.477 99.200,212.344 99.842,212.293 91.397 L 212.250 84.083 210.872 84.035 C 209.865 83.999,209.473 84.044,209.412 84.202 M221.707 91.542 L 221.750 99.083 223.083 99.083 L 224.417 99.083 224.460 91.542 L 224.503 84.000 223.083 84.000 L 221.663 84.000 221.707 91.542 M252.451 84.105 C 252.201 84.354,252.315 98.777,252.568 98.987 C 252.713 99.108,253.268 99.163,254.026 99.133 L 255.250 99.083 255.250 91.583 L 255.250 84.083 253.909 84.035 C 253.171 84.009,252.515 84.040,252.451 84.105 M258.617 84.105 C 258.452 84.271,258.476 98.703,258.642 98.966 C 258.740 99.120,259.155 99.168,260.098 99.133 L 261.417 99.083 261.417 91.583 L 261.417 84.083 260.076 84.035 C 259.338 84.009,258.682 84.040,258.617 84.105 M283.246 84.202 C 283.200 84.320,283.183 87.717,283.207 91.750 L 283.250 99.083 284.516 99.132 C 286.311 99.200,286.177 99.842,286.127 91.397 L 286.083 84.083 284.706 84.035 C 283.698 83.999,283.306 84.044,283.246 84.202 M289.412 84.202 C 289.367 84.320,289.349 87.717,289.373 91.750 L 289.417 99.083 290.682 99.132 C 292.477 99.200,292.344 99.842,292.293 91.397 L 292.250 84.083 290.872 84.035 C 289.865 83.999,289.473 84.044,289.412 84.202 M301.707 91.542 L 301.750 99.083 303.083 99.083 L 304.417 99.083 304.460 91.542 L 304.503 84.000 303.083 84.000 L 301.663 84.000 301.707 91.542 M314.040 91.542 L 314.083 99.083 315.417 99.083 L 316.750 99.083 316.793 91.542 L 316.837 84.000 315.417 84.000 L 313.997 84.000 314.040 91.542 M332.451 84.105 C 332.201 84.354,332.315 98.777,332.568 98.987 C 332.713 99.108,333.268 99.163,334.026 99.133 L 335.250 99.083 335.250 91.583 L 335.250 84.083 333.909 84.035 C 333.171 84.009,332.515 84.040,332.451 84.105 M350.912 84.202 C 350.867 84.320,350.849 87.717,350.873 91.750 L 350.917 99.083 352.287 99.132 C 354.009 99.192,353.853 100.009,353.796 91.250 L 353.750 84.083 352.372 84.035 C 351.365 83.999,350.973 84.044,350.912 84.202 M369.412 84.202 C 369.367 84.320,369.349 87.717,369.373 91.750 L 369.417 99.083 370.682 99.132 C 372.477 99.200,372.344 99.842,372.293 91.397 L 372.250 84.083 370.872 84.035 C 369.865 83.999,369.473 84.044,369.412 84.202 M381.707 91.542 L 381.750 99.083 383.083 99.083 L 384.417 99.083 384.460 91.542 L 384.503 84.000 383.083 84.000 L 381.663 84.000 381.707 91.542 " stroke="none" fill="#000000" fill-rule="evenodd"></path>
   </g>
</svg>