<svg id="svg" version="1.1" xmlns="http://www.w3.org/2000/svg" xmlns:xlink="http://www.w3.org/1999/xlink" width="400" height="153.84615384615384" viewBox="0, 0, 400,153.84615384615384">
   <g id="svgg">
      <path id="path0" d="M0.000 76.917 L 0.000 153.833 200.000 153.833 L 400.000 153.833 400.000 76.917 L 400.000 0.000 200.000 0.000 L 0.000 0.000 0.000 76.917 M39.399 64.764 C 39.662 65.448,39.506 95.137,39.238 95.405 C 38.931 95.712,36.848 95.775,36.322 95.494 C 35.995 95.319,35.787 64.935,36.111 64.611 C 36.367 64.355,39.294 64.491,39.399 64.764 M45.566 64.764 C 45.828 65.448,45.672 95.137,45.405 95.405 C 45.098 95.712,43.015 95.775,42.489 95.494 C 42.162 95.319,41.954 64.935,42.278 64.611 C 42.534 64.355,45.461 64.491,45.566 64.764 M57.800 64.700 C 58.144 65.044,58.084 95.059,57.738 95.405 C 57.470 95.672,55.342 95.788,54.764 95.566 C 54.488 95.460,54.338 64.884,54.611 64.611 C 54.812 64.410,57.588 64.488,57.800 64.700 M82.460 79.917 C 82.509 97.495,82.710 95.667,80.730 95.667 C 78.811 95.667,79.000 97.371,79.000 80.085 C 79.000 71.803,79.047 64.906,79.103 64.758 C 79.191 64.531,79.459 64.496,80.812 64.536 L 82.417 64.583 82.460 79.917 M100.899 64.764 C 101.162 65.448,101.006 95.137,100.738 95.405 C 100.368 95.774,98.132 95.774,97.762 95.405 C 97.494 95.137,97.338 65.448,97.601 64.764 C 97.683 64.549,97.992 64.500,99.250 64.500 C 100.508 64.500,100.817 64.549,100.899 64.764 M113.232 64.764 C 113.495 65.448,113.339 95.137,113.071 95.405 C 112.765 95.712,110.681 95.775,110.156 95.494 C 109.829 95.319,109.621 64.935,109.944 64.611 C 110.201 64.355,113.127 64.491,113.232 64.764 M125.566 64.764 C 125.828 65.448,125.672 95.137,125.405 95.405 C 125.098 95.712,123.015 95.775,122.489 95.494 C 122.162 95.319,121.954 64.935,122.278 64.611 C 122.534 64.355,125.461 64.491,125.566 64.764 M137.800 64.700 C 138.144 65.044,138.084 95.059,137.738 95.405 C 137.470 95.672,135.342 95.788,134.764 95.566 C 134.488 95.460,134.338 64.884,134.611 64.611 C 134.812 64.410,137.588 64.488,137.800 64.700 M143.967 64.700 C 144.311 65.044,144.250 95.059,143.905 95.405 C 143.533 95.777,141.134 95.777,140.762 95.405 C 140.416 95.059,140.356 65.044,140.700 64.700 C 140.970 64.430,143.697 64.430,143.967 64.700 M187.066 64.764 C 187.328 65.448,187.172 95.137,186.905 95.405 C 186.598 95.712,184.515 95.775,183.989 95.494 C 183.662 95.319,183.454 64.935,183.778 64.611 C 184.034 64.355,186.961 64.491,187.066 64.764 M193.232 64.764 C 193.495 65.448,193.339 95.137,193.071 95.405 C 192.765 95.712,190.681 95.775,190.156 95.494 C 189.829 95.319,189.621 64.935,189.944 64.611 C 190.201 64.355,193.127 64.491,193.232 64.764 M211.732 64.764 C 211.995 65.448,211.839 95.137,211.571 95.405 C 211.301 95.675,209.499 95.774,208.708 95.562 L 208.333 95.461 208.333 80.092 C 208.333 71.638,208.383 64.672,208.444 64.611 C 208.701 64.355,211.627 64.491,211.732 64.764 M217.800 64.700 C 218.144 65.044,218.084 95.059,217.738 95.405 C 217.470 95.672,215.342 95.788,214.764 95.566 C 214.488 95.460,214.338 64.884,214.611 64.611 C 214.812 64.410,217.588 64.488,217.800 64.700 M236.293 80.022 L 236.335 95.461 235.959 95.561 C 235.167 95.774,233.365 95.675,233.095 95.405 C 232.826 95.136,232.673 65.446,232.937 64.758 C 233.024 64.531,233.292 64.496,234.645 64.536 L 236.250 64.583 236.293 80.022 M248.626 79.917 C 248.676 97.495,248.877 95.667,246.897 95.667 C 244.977 95.667,245.167 97.371,245.167 80.085 C 245.167 71.803,245.213 64.906,245.270 64.758 C 245.357 64.531,245.626 64.496,246.978 64.536 L 248.583 64.583 248.626 79.917 M279.399 64.764 C 279.662 65.448,279.506 95.137,279.238 95.405 C 278.931 95.712,276.848 95.775,276.322 95.494 C 275.995 95.319,275.787 64.935,276.111 64.611 C 276.367 64.355,279.294 64.491,279.399 64.764 M285.566 64.764 C 285.828 65.448,285.672 95.137,285.405 95.405 C 285.098 95.712,283.015 95.775,282.489 95.494 C 282.162 95.319,281.954 64.935,282.278 64.611 C 282.534 64.355,285.461 64.491,285.566 64.764 M310.126 79.990 C 310.160 92.204,310.125 95.423,309.959 95.529 C 309.556 95.784,307.212 95.689,306.929 95.405 C 306.578 95.054,306.523 65.043,306.872 64.694 C 307.013 64.554,307.555 64.504,308.581 64.536 L 310.083 64.583 310.126 79.990 M316.293 79.917 C 316.343 97.495,316.543 95.667,314.563 95.667 C 312.644 95.667,312.833 97.371,312.833 80.085 C 312.833 71.803,312.880 64.906,312.937 64.758 C 313.024 64.531,313.292 64.496,314.645 64.536 L 316.250 64.583 316.293 79.917 M340.899 64.764 C 341.162 65.448,341.006 95.137,340.738 95.405 C 340.368 95.774,338.132 95.774,337.762 95.405 C 337.494 95.137,337.338 65.448,337.601 64.764 C 337.683 64.549,337.992 64.500,339.250 64.500 C 340.508 64.500,340.817 64.549,340.899 64.764 M347.066 64.764 C 347.328 65.448,347.172 95.137,346.905 95.405 C 346.598 95.712,344.515 95.775,343.989 95.494 C 343.662 95.319,343.454 64.935,343.778 64.611 C 344.034 64.355,346.961 64.491,347.066 64.764 M353.232 64.764 C 353.495 65.448,353.339 95.137,353.071 95.405 C 352.765 95.712,350.681 95.775,350.156 95.494 C 349.829 95.319,349.621 64.935,349.944 64.611 C 350.201 64.355,353.127 64.491,353.232 64.764 M51.661 80.156 C 51.975 80.742,51.890 95.086,51.571 95.405 C 51.301 95.675,49.499 95.774,48.708 95.562 L 48.333 95.461 48.333 87.758 C 48.333 83.522,48.383 80.006,48.444 79.944 C 48.740 79.649,51.486 79.830,51.661 80.156 M63.994 80.156 C 64.106 80.364,64.167 83.075,64.167 87.810 C 64.167 96.362,64.329 95.667,62.333 95.667 C 60.338 95.667,60.500 96.362,60.500 87.810 C 60.500 79.159,60.345 79.833,62.333 79.833 C 63.634 79.833,63.843 79.874,63.994 80.156 M70.127 87.656 C 70.161 93.737,70.125 95.423,69.960 95.528 C 69.557 95.784,67.213 95.689,66.929 95.405 C 66.607 95.083,66.526 80.741,66.842 80.150 C 67.001 79.853,67.169 79.826,68.551 79.869 L 70.083 79.917 70.127 87.656 M76.293 87.688 L 76.337 95.460 75.960 95.561 C 75.168 95.774,73.366 95.675,73.095 95.405 C 72.773 95.083,72.692 80.741,73.009 80.150 C 73.168 79.853,73.336 79.826,74.717 79.869 L 76.250 79.917 76.293 87.688 M88.467 80.033 C 88.860 80.426,88.742 95.281,88.344 95.494 C 87.819 95.775,85.735 95.712,85.429 95.405 C 85.085 95.061,85.026 80.374,85.367 80.033 C 85.635 79.765,88.198 79.765,88.467 80.033 M94.633 80.033 C 95.026 80.426,94.909 95.281,94.511 95.494 C 93.985 95.775,91.902 95.712,91.595 95.405 C 91.252 95.061,91.192 80.374,91.533 80.033 C 91.802 79.765,94.365 79.765,94.633 80.033 M106.967 80.033 C 107.308 80.374,107.248 95.061,106.905 95.405 C 106.598 95.712,104.515 95.775,103.989 95.494 C 103.591 95.281,103.474 80.426,103.867 80.033 C 104.135 79.765,106.698 79.765,106.967 80.033 M119.300 80.033 C 119.641 80.374,119.582 95.061,119.238 95.405 C 118.931 95.712,116.848 95.775,116.322 95.494 C 115.924 95.281,115.807 80.426,116.200 80.033 C 116.469 79.765,119.031 79.765,119.300 80.033 M131.661 80.156 C 131.975 80.742,131.890 95.086,131.571 95.405 C 131.301 95.675,129.499 95.774,128.708 95.562 L 128.333 95.461 128.333 87.758 C 128.333 83.522,128.383 80.006,128.444 79.944 C 128.740 79.649,131.486 79.830,131.661 80.156 M150.127 87.656 C 150.161 93.737,150.125 95.423,149.960 95.528 C 149.557 95.784,147.213 95.689,146.929 95.405 C 146.607 95.083,146.526 80.741,146.842 80.150 C 147.001 79.853,147.169 79.826,148.551 79.869 L 150.083 79.917 150.127 87.656 M156.232 80.097 C 156.541 80.901,156.334 95.321,156.011 95.494 C 155.485 95.775,153.402 95.712,153.095 95.405 C 152.776 95.086,152.692 80.742,153.006 80.156 C 153.241 79.716,156.066 79.664,156.232 80.097 M162.399 80.097 C 162.707 80.901,162.500 95.321,162.178 95.494 C 161.652 95.775,159.569 95.712,159.262 95.405 C 158.943 95.086,158.859 80.742,159.173 80.156 C 159.408 79.716,162.233 79.664,162.399 80.097 M168.467 80.033 C 168.860 80.426,168.742 95.281,168.344 95.494 C 167.819 95.775,165.735 95.712,165.429 95.405 C 165.085 95.061,165.026 80.374,165.367 80.033 C 165.635 79.765,168.198 79.765,168.467 80.033 M174.633 80.033 C 175.026 80.426,174.909 95.281,174.511 95.494 C 173.985 95.775,171.902 95.712,171.595 95.405 C 171.252 95.061,171.192 80.374,171.533 80.033 C 171.802 79.765,174.365 79.765,174.633 80.033 M180.800 80.033 C 180.950 80.183,181.000 82.112,181.000 87.688 C 181.000 96.348,181.149 95.667,179.250 95.667 C 177.351 95.667,177.500 96.348,177.500 87.688 C 177.500 82.112,177.550 80.183,177.700 80.033 C 177.969 79.765,180.531 79.765,180.800 80.033 M199.300 80.033 C 199.641 80.374,199.582 95.061,199.238 95.405 C 198.931 95.712,196.848 95.775,196.322 95.494 C 195.924 95.281,195.807 80.426,196.200 80.033 C 196.469 79.765,199.031 79.765,199.300 80.033 M205.494 80.156 C 205.808 80.742,205.724 95.086,205.405 95.405 C 205.098 95.712,203.015 95.775,202.489 95.494 C 202.166 95.321,201.959 80.901,202.268 80.097 C 202.434 79.664,205.259 79.716,205.494 80.156 M223.994 80.156 C 224.106 80.364,224.167 83.075,224.167 87.810 C 224.167 96.362,224.329 95.667,222.333 95.667 C 220.338 95.667,220.500 96.362,220.500 87.810 C 220.500 79.159,220.345 79.833,222.333 79.833 C 223.634 79.833,223.843 79.874,223.994 80.156 M230.127 87.656 C 230.161 93.737,230.125 95.423,229.960 95.528 C 229.557 95.784,227.213 95.689,226.929 95.405 C 226.607 95.083,226.526 80.741,226.842 80.150 C 227.001 79.853,227.169 79.826,228.551 79.869 L 230.083 79.917 230.127 87.656 M242.399 80.097 C 242.707 80.901,242.500 95.321,242.178 95.494 C 241.652 95.775,239.569 95.712,239.262 95.405 C 238.943 95.086,238.859 80.742,239.173 80.156 C 239.408 79.716,242.233 79.664,242.399 80.097 M254.633 80.033 C 255.026 80.426,254.909 95.281,254.511 95.494 C 253.985 95.775,251.902 95.712,251.595 95.405 C 251.252 95.061,251.192 80.374,251.533 80.033 C 251.802 79.765,254.365 79.765,254.633 80.033 M260.800 80.033 C 260.950 80.183,261.000 82.112,261.000 87.688 C 261.000 96.348,261.149 95.667,259.250 95.667 C 257.351 95.667,257.500 96.348,257.500 87.688 C 257.500 82.112,257.550 80.183,257.700 80.033 C 257.969 79.765,260.531 79.765,260.800 80.033 M266.967 80.033 C 267.308 80.374,267.248 95.061,266.905 95.405 C 266.598 95.712,264.515 95.775,263.989 95.494 C 263.591 95.281,263.474 80.426,263.867 80.033 C 264.135 79.765,266.698 79.765,266.967 80.033 M273.133 80.033 C 273.474 80.374,273.415 95.061,273.071 95.405 C 272.765 95.712,270.681 95.775,270.156 95.494 C 269.758 95.281,269.640 80.426,270.033 80.033 C 270.302 79.765,272.865 79.765,273.133 80.033 M291.661 80.156 C 291.975 80.742,291.890 95.086,291.571 95.405 C 291.304 95.672,289.175 95.788,288.597 95.566 C 288.322 95.460,288.173 80.216,288.444 79.944 C 288.740 79.649,291.486 79.830,291.661 80.156 M297.827 80.156 C 298.141 80.742,298.057 95.086,297.738 95.405 C 297.470 95.672,295.342 95.788,294.764 95.566 C 294.489 95.460,294.340 80.216,294.611 79.944 C 294.906 79.649,297.653 79.830,297.827 80.156 M303.994 80.156 C 304.106 80.364,304.167 83.075,304.167 87.810 C 304.167 96.362,304.329 95.667,302.333 95.667 C 300.338 95.667,300.500 96.362,300.500 87.810 C 300.500 79.159,300.345 79.833,302.333 79.833 C 303.634 79.833,303.843 79.874,303.994 80.156 M322.399 80.097 C 322.707 80.901,322.500 95.321,322.178 95.494 C 321.652 95.775,319.569 95.712,319.262 95.405 C 318.943 95.086,318.859 80.742,319.173 80.156 C 319.408 79.716,322.233 79.664,322.399 80.097 M328.467 80.033 C 328.860 80.426,328.742 95.281,328.344 95.494 C 327.819 95.775,325.735 95.712,325.429 95.405 C 325.085 95.061,325.026 80.374,325.367 80.033 C 325.635 79.765,328.198 79.765,328.467 80.033 M334.633 80.033 C 335.026 80.426,334.909 95.281,334.511 95.494 C 333.985 95.775,331.902 95.712,331.595 95.405 C 331.252 95.061,331.192 80.374,331.533 80.033 C 331.802 79.765,334.365 79.765,334.633 80.033 " stroke="none" fill="#ffffff" fill-rule="evenodd"></path>
      <path id="path1" d="M36.367 64.867 C 36.046 65.187,36.080 94.887,36.401 95.154 C 36.547 95.275,37.101 95.330,37.860 95.299 L 39.083 95.250 39.126 80.094 C 39.160 68.079,39.125 64.910,38.959 64.805 C 38.627 64.594,36.591 64.643,36.367 64.867 M42.533 64.867 C 42.213 65.187,42.247 94.887,42.568 95.154 C 42.713 95.275,43.268 95.330,44.026 95.299 L 45.250 95.250 45.293 80.094 C 45.326 68.079,45.292 64.910,45.126 64.805 C 44.794 64.594,42.757 64.643,42.533 64.867 M54.867 64.867 C 54.632 65.102,54.575 94.764,54.809 95.133 C 54.907 95.287,55.322 95.334,56.264 95.299 L 57.583 95.250 57.626 80.094 C 57.660 68.079,57.625 64.910,57.459 64.805 C 57.127 64.594,55.091 64.643,54.867 64.867 M79.541 64.805 C 79.375 64.910,79.340 68.079,79.374 80.094 L 79.417 95.250 80.640 95.299 C 81.399 95.330,81.953 95.275,82.099 95.154 C 82.420 94.887,82.454 65.187,82.133 64.867 C 81.909 64.643,79.873 64.594,79.541 64.805 M97.913 64.868 C 97.868 64.986,97.850 71.871,97.874 80.167 L 97.917 95.250 99.250 95.250 L 100.583 95.250 100.583 80.000 L 100.583 64.750 99.289 64.701 C 98.348 64.666,97.973 64.711,97.913 64.868 M110.243 64.875 C 110.200 64.990,110.183 71.871,110.207 80.167 L 110.250 95.250 111.583 95.250 L 112.917 95.250 112.959 80.094 C 112.993 68.079,112.958 64.910,112.793 64.805 C 112.441 64.581,110.333 64.640,110.243 64.875 M122.533 64.867 C 122.213 65.187,122.247 94.887,122.568 95.154 C 122.713 95.275,123.268 95.330,124.026 95.299 L 125.250 95.250 125.293 80.094 C 125.326 68.079,125.292 64.910,125.126 64.805 C 124.794 64.594,122.757 64.643,122.533 64.867 M134.867 64.867 C 134.632 65.102,134.575 94.764,134.809 95.133 C 134.907 95.287,135.322 95.334,136.264 95.299 L 137.583 95.250 137.626 80.094 C 137.660 68.079,137.625 64.910,137.459 64.805 C 137.127 64.594,135.091 64.643,134.867 64.867 M141.041 64.805 C 140.875 64.910,140.840 68.079,140.874 80.094 L 140.917 95.250 142.333 95.250 L 143.750 95.250 143.793 80.094 C 143.826 68.079,143.792 64.910,143.626 64.805 C 143.511 64.732,142.929 64.672,142.333 64.672 C 141.737 64.672,141.156 64.732,141.041 64.805 M184.079 64.868 C 184.034 64.986,184.017 71.871,184.040 80.167 L 184.083 95.250 185.417 95.250 L 186.750 95.250 186.750 80.000 L 186.750 64.750 185.456 64.701 C 184.515 64.666,184.139 64.711,184.079 64.868 M190.243 64.875 C 190.200 64.990,190.183 71.871,190.207 80.167 L 190.250 95.250 191.583 95.250 L 192.917 95.250 192.959 80.094 C 192.993 68.079,192.958 64.910,192.793 64.805 C 192.441 64.581,190.333 64.640,190.243 64.875 M208.700 64.867 C 208.380 65.187,208.413 94.887,208.735 95.154 C 208.880 95.275,209.434 95.330,210.193 95.299 L 211.417 95.250 211.459 80.094 C 211.493 68.079,211.458 64.910,211.293 64.805 C 210.961 64.594,208.924 64.643,208.700 64.867 M214.867 64.867 C 214.632 65.102,214.575 94.764,214.809 95.133 C 214.907 95.287,215.322 95.334,216.264 95.299 L 217.583 95.250 217.626 80.094 C 217.660 68.079,217.625 64.910,217.459 64.805 C 217.127 64.594,215.091 64.643,214.867 64.867 M233.374 64.805 C 233.208 64.910,233.174 68.079,233.207 80.094 L 233.250 95.250 234.474 95.299 C 235.232 95.330,235.787 95.275,235.932 95.154 C 236.253 94.887,236.287 65.187,235.967 64.867 C 235.743 64.643,233.706 64.594,233.374 64.805 M245.707 64.801 C 245.542 64.909,245.507 68.080,245.541 80.094 L 245.583 95.250 246.917 95.250 L 248.250 95.250 248.250 80.000 L 248.250 64.750 247.083 64.707 C 246.442 64.684,245.823 64.726,245.707 64.801 M276.367 64.867 C 276.046 65.187,276.080 94.887,276.401 95.154 C 276.547 95.275,277.101 95.330,277.860 95.299 L 279.083 95.250 279.126 80.094 C 279.160 68.079,279.125 64.910,278.959 64.805 C 278.627 64.594,276.591 64.643,276.367 64.867 M282.533 64.867 C 282.213 65.187,282.247 94.887,282.568 95.154 C 282.713 95.275,283.268 95.330,284.026 95.299 L 285.250 95.250 285.293 80.094 C 285.326 68.079,285.292 64.910,285.126 64.805 C 284.794 64.594,282.757 64.643,282.533 64.867 M307.207 64.805 C 307.042 64.910,307.007 68.079,307.041 80.094 L 307.083 95.250 308.402 95.299 C 309.345 95.334,309.760 95.287,309.858 95.133 C 310.092 94.764,310.035 65.102,309.800 64.867 C 309.576 64.643,307.539 64.594,307.207 64.805 M313.374 64.805 C 313.208 64.910,313.174 68.079,313.207 80.094 L 313.250 95.250 314.474 95.299 C 315.232 95.330,315.787 95.275,315.932 95.154 C 316.253 94.887,316.287 65.187,315.967 64.867 C 315.743 64.643,313.706 64.594,313.374 64.805 M337.913 64.868 C 337.868 64.986,337.850 71.871,337.874 80.167 L 337.917 95.250 339.250 95.250 L 340.583 95.250 340.583 80.000 L 340.583 64.750 339.289 64.701 C 338.348 64.666,337.973 64.711,337.913 64.868 M344.079 64.868 C 344.034 64.986,344.017 71.871,344.040 80.167 L 344.083 95.250 345.417 95.250 L 346.750 95.250 346.750 80.000 L 346.750 64.750 345.456 64.701 C 344.515 64.666,344.139 64.711,344.079 64.868 M350.243 64.875 C 350.200 64.990,350.183 71.871,350.207 80.167 L 350.250 95.250 351.583 95.250 L 352.917 95.250 352.959 80.094 C 352.993 68.079,352.958 64.910,352.793 64.805 C 352.441 64.581,350.333 64.640,350.243 64.875 M48.617 80.272 C 48.368 80.521,48.482 94.944,48.735 95.154 C 48.880 95.275,49.434 95.330,50.193 95.299 L 51.417 95.250 51.417 87.750 L 51.417 80.250 50.076 80.202 C 49.338 80.176,48.682 80.207,48.617 80.272 M60.912 80.368 C 60.867 80.487,60.849 83.883,60.873 87.917 L 60.917 95.250 62.333 95.250 L 63.750 95.250 63.750 87.750 L 63.750 80.250 62.372 80.202 C 61.365 80.166,60.973 80.211,60.912 80.368 M67.079 80.368 C 67.034 80.487,67.016 83.883,67.040 87.917 L 67.083 95.250 68.453 95.298 C 70.176 95.359,70.020 96.176,69.963 87.417 L 69.917 80.250 68.539 80.202 C 67.531 80.166,67.139 80.211,67.079 80.368 M73.246 80.368 C 73.200 80.487,73.183 83.883,73.207 87.917 L 73.250 95.250 74.516 95.298 C 76.311 95.367,76.177 96.009,76.127 87.564 L 76.083 80.250 74.706 80.202 C 73.698 80.166,73.306 80.211,73.246 80.368 M85.540 87.708 L 85.583 95.250 86.917 95.250 L 88.250 95.250 88.293 87.708 L 88.337 80.167 86.917 80.167 L 85.497 80.167 85.540 87.708 M91.707 87.708 L 91.750 95.250 93.083 95.250 L 94.417 95.250 94.460 87.708 L 94.503 80.167 93.083 80.167 L 91.663 80.167 91.707 87.708 M104.040 87.708 L 104.083 95.250 105.417 95.250 L 106.750 95.250 106.793 87.708 L 106.837 80.167 105.417 80.167 L 103.997 80.167 104.040 87.708 M116.373 87.708 L 116.417 95.250 117.750 95.250 L 119.083 95.250 119.127 87.708 L 119.170 80.167 117.750 80.167 L 116.330 80.167 116.373 87.708 M128.617 80.272 C 128.368 80.521,128.482 94.944,128.735 95.154 C 128.880 95.275,129.434 95.330,130.193 95.299 L 131.417 95.250 131.417 87.750 L 131.417 80.250 130.076 80.202 C 129.338 80.176,128.682 80.207,128.617 80.272 M147.079 80.368 C 147.034 80.487,147.016 83.883,147.040 87.917 L 147.083 95.250 148.453 95.298 C 150.176 95.359,150.020 96.176,149.963 87.417 L 149.917 80.250 148.539 80.202 C 147.531 80.166,147.139 80.211,147.079 80.368 M153.246 80.368 C 153.200 80.487,153.183 83.883,153.207 87.917 L 153.250 95.250 154.516 95.298 C 156.311 95.367,156.177 96.009,156.127 87.564 L 156.083 80.250 154.706 80.202 C 153.698 80.166,153.306 80.211,153.246 80.368 M159.412 80.368 C 159.367 80.487,159.349 83.883,159.373 87.917 L 159.417 95.250 160.682 95.298 C 162.477 95.367,162.344 96.009,162.293 87.564 L 162.250 80.250 160.872 80.202 C 159.865 80.166,159.473 80.211,159.412 80.368 M165.540 87.708 L 165.583 95.250 166.917 95.250 L 168.250 95.250 168.293 87.708 L 168.337 80.167 166.917 80.167 L 165.497 80.167 165.540 87.708 M171.707 87.708 L 171.750 95.250 173.083 95.250 L 174.417 95.250 174.460 87.708 L 174.503 80.167 173.083 80.167 L 171.663 80.167 171.707 87.708 M177.873 87.708 L 177.917 95.250 179.250 95.250 L 180.583 95.250 180.627 87.708 L 180.670 80.167 179.250 80.167 L 177.830 80.167 177.873 87.708 M196.373 87.708 L 196.417 95.250 197.750 95.250 L 199.083 95.250 199.127 87.708 L 199.170 80.167 197.750 80.167 L 196.330 80.167 196.373 87.708 M202.451 80.272 C 202.201 80.521,202.315 94.944,202.568 95.154 C 202.713 95.275,203.268 95.330,204.026 95.299 L 205.250 95.250 205.250 87.750 L 205.250 80.250 203.909 80.202 C 203.171 80.176,202.515 80.207,202.451 80.272 M220.912 80.368 C 220.867 80.487,220.849 83.883,220.873 87.917 L 220.917 95.250 222.333 95.250 L 223.750 95.250 223.750 87.750 L 223.750 80.250 222.372 80.202 C 221.365 80.166,220.973 80.211,220.912 80.368 M227.079 80.368 C 227.034 80.487,227.016 83.883,227.040 87.917 L 227.083 95.250 228.453 95.298 C 230.176 95.359,230.020 96.176,229.963 87.417 L 229.917 80.250 228.539 80.202 C 227.531 80.166,227.139 80.211,227.079 80.368 M239.412 80.368 C 239.367 80.487,239.349 83.883,239.373 87.917 L 239.417 95.250 240.682 95.298 C 242.477 95.367,242.344 96.009,242.293 87.564 L 242.250 80.250 240.872 80.202 C 239.865 80.166,239.473 80.211,239.412 80.368 M251.707 87.708 L 251.750 95.250 253.083 95.250 L 254.417 95.250 254.460 87.708 L 254.503 80.167 253.083 80.167 L 251.663 80.167 251.707 87.708 M257.873 87.708 L 257.917 95.250 259.250 95.250 L 260.583 95.250 260.627 87.708 L 260.670 80.167 259.250 80.167 L 257.830 80.167 257.873 87.708 M264.040 87.708 L 264.083 95.250 265.417 95.250 L 266.750 95.250 266.793 87.708 L 266.837 80.167 265.417 80.167 L 263.997 80.167 264.040 87.708 M270.207 87.708 L 270.250 95.250 271.583 95.250 L 272.917 95.250 272.960 87.708 L 273.003 80.167 271.583 80.167 L 270.163 80.167 270.207 87.708 M288.617 80.272 C 288.452 80.437,288.476 94.870,288.642 95.133 C 288.740 95.287,289.155 95.334,290.098 95.299 L 291.417 95.250 291.417 87.750 L 291.417 80.250 290.076 80.202 C 289.338 80.176,288.682 80.207,288.617 80.272 M294.784 80.272 C 294.618 80.437,294.642 94.870,294.809 95.133 C 294.907 95.287,295.322 95.334,296.264 95.299 L 297.583 95.250 297.583 87.750 L 297.583 80.250 296.242 80.202 C 295.505 80.176,294.848 80.207,294.784 80.272 M300.912 80.368 C 300.867 80.487,300.849 83.883,300.873 87.917 L 300.917 95.250 302.287 95.298 C 304.009 95.359,303.853 96.176,303.796 87.417 L 303.750 80.250 302.372 80.202 C 301.365 80.166,300.973 80.211,300.912 80.368 M319.412 80.368 C 319.367 80.487,319.349 83.883,319.373 87.917 L 319.417 95.250 320.682 95.298 C 322.477 95.367,322.344 96.009,322.293 87.564 L 322.250 80.250 320.872 80.202 C 319.865 80.166,319.473 80.211,319.412 80.368 M325.540 87.708 L 325.583 95.250 326.917 95.250 L 328.250 95.250 328.293 87.708 L 328.337 80.167 326.917 80.167 L 325.497 80.167 325.540 87.708 M331.707 87.708 L 331.750 95.250 333.083 95.250 L 334.417 95.250 334.460 87.708 L 334.503 80.167 333.083 80.167 L 331.663 80.167 331.707 87.708 " stroke="none" fill="#000000" fill-rule="evenodd"></path>
   </g>
</svg>