<?xml version="1.0" encoding="utf-8"?>
<svg xmlns="http://www.w3.org/2000/svg" xml:space="preserve" xmlns:xlink="http://www.w3.org/1999/xlink" width="174" height="174" viewBox="0 0 174 174">
   <rect width="174" height="174" fill="#ffffff" cx="0" cy="0" />
   <g fill="#000000">
      <rect x="12" y="12" width="6" height="6" />
      <rect x="18" y="12" width="6" height="6" />
      <rect x="24" y="12" width="6" height="6" />
      <rect x="30" y="12" width="6" height="6" />
      <rect x="36" y="12" width="6" height="6" />
      <rect x="42" y="12" width="6" height="6" />
      <rect x="48" y="12" width="6" height="6" />
      <rect x="66" y="12" width="6" height="6" />
      <rect x="84" y="12" width="6" height="6" />
      <rect x="96" y="12" width="6" height="6" />
      <rect x="102" y="12" width="6" height="6" />
      <rect x="120" y="12" width="6" height="6" />
      <rect x="126" y="12" width="6" height="6" />
      <rect x="132" y="12" width="6" height="6" />
      <rect x="138" y="12" width="6" height="6" />
      <rect x="144" y="12" width="6" height="6" />
      <rect x="150" y="12" width="6" height="6" />
      <rect x="156" y="12" width="6" height="6" />
      <rect x="12" y="18" width="6" height="6" />
      <rect x="48" y="18" width="6" height="6" />
      <rect x="60" y="18" width="6" height="6" />
      <rect x="78" y="18" width="6" height="6" />
      <rect x="84" y="18" width="6" height="6" />
      <rect x="96" y="18" width="6" height="6" />
      <rect x="102" y="18" width="6" height="6" />
      <rect x="108" y="18" width="6" height="6" />
      <rect x="120" y="18" width="6" height="6" />
      <rect x="156" y="18" width="6" height="6" />
      <rect x="12" y="24" width="6" height="6" />
      <rect x="24" y="24" width="6" height="6" />
      <rect x="30" y="24" width="6" height="6" />
      <rect x="36" y="24" width="6" height="6" />
      <rect x="48" y="24" width="6" height="6" />
      <rect x="60" y="24" width="6" height="6" />
      <rect x="66" y="24" width="6" height="6" />
      <rect x="72" y="24" width="6" height="6" />
      <rect x="78" y="24" width="6" height="6" />
      <rect x="84" y="24" width="6" height="6" />
      <rect x="96" y="24" width="6" height="6" />
      <rect x="102" y="24" width="6" height="6" />
      <rect x="120" y="24" width="6" height="6" />
      <rect x="132" y="24" width="6" height="6" />
      <rect x="138" y="24" width="6" height="6" />
      <rect x="144" y="24" width="6" height="6" />
      <rect x="156" y="24" width="6" height="6" />
      <rect x="12" y="30" width="6" height="6" />
      <rect x="24" y="30" width="6" height="6" />
      <rect x="30" y="30" width="6" height="6" />
      <rect x="36" y="30" width="6" height="6" />
      <rect x="48" y="30" width="6" height="6" />
      <rect x="66" y="30" width="6" height="6" />
      <rect x="72" y="30" width="6" height="6" />
      <rect x="78" y="30" width="6" height="6" />
      <rect x="96" y="30" width="6" height="6" />
      <rect x="102" y="30" width="6" height="6" />
      <rect x="108" y="30" width="6" height="6" />
      <rect x="120" y="30" width="6" height="6" />
      <rect x="132" y="30" width="6" height="6" />
      <rect x="138" y="30" width="6" height="6" />
      <rect x="144" y="30" width="6" height="6" />
      <rect x="156" y="30" width="6" height="6" />
      <rect x="12" y="36" width="6" height="6" />
      <rect x="24" y="36" width="6" height="6" />
      <rect x="30" y="36" width="6" height="6" />
      <rect x="36" y="36" width="6" height="6" />
      <rect x="48" y="36" width="6" height="6" />
      <rect x="60" y="36" width="6" height="6" />
      <rect x="90" y="36" width="6" height="6" />
      <rect x="108" y="36" width="6" height="6" />
      <rect x="120" y="36" width="6" height="6" />
      <rect x="132" y="36" width="6" height="6" />
      <rect x="138" y="36" width="6" height="6" />
      <rect x="144" y="36" width="6" height="6" />
      <rect x="156" y="36" width="6" height="6" />
      <rect x="12" y="42" width="6" height="6" />
      <rect x="48" y="42" width="6" height="6" />
      <rect x="60" y="42" width="6" height="6" />
      <rect x="66" y="42" width="6" height="6" />
      <rect x="78" y="42" width="6" height="6" />
      <rect x="96" y="42" width="6" height="6" />
      <rect x="102" y="42" width="6" height="6" />
      <rect x="120" y="42" width="6" height="6" />
      <rect x="156" y="42" width="6" height="6" />
      <rect x="12" y="48" width="6" height="6" />
      <rect x="18" y="48" width="6" height="6" />
      <rect x="24" y="48" width="6" height="6" />
      <rect x="30" y="48" width="6" height="6" />
      <rect x="36" y="48" width="6" height="6" />
      <rect x="42" y="48" width="6" height="6" />
      <rect x="48" y="48" width="6" height="6" />
      <rect x="60" y="48" width="6" height="6" />
      <rect x="72" y="48" width="6" height="6" />
      <rect x="84" y="48" width="6" height="6" />
      <rect x="96" y="48" width="6" height="6" />
      <rect x="108" y="48" width="6" height="6" />
      <rect x="120" y="48" width="6" height="6" />
      <rect x="126" y="48" width="6" height="6" />
      <rect x="132" y="48" width="6" height="6" />
      <rect x="138" y="48" width="6" height="6" />
      <rect x="144" y="48" width="6" height="6" />
      <rect x="150" y="48" width="6" height="6" />
      <rect x="156" y="48" width="6" height="6" />
      <rect x="60" y="54" width="6" height="6" />
      <rect x="66" y="54" width="6" height="6" />
      <rect x="84" y="54" width="6" height="6" />
      <rect x="102" y="54" width="6" height="6" />
      <rect x="108" y="54" width="6" height="6" />
      <rect x="12" y="60" width="6" height="6" />
      <rect x="18" y="60" width="6" height="6" />
      <rect x="30" y="60" width="6" height="6" />
      <rect x="48" y="60" width="6" height="6" />
      <rect x="54" y="60" width="6" height="6" />
      <rect x="72" y="60" width="6" height="6" />
      <rect x="90" y="60" width="6" height="6" />
      <rect x="96" y="60" width="6" height="6" />
      <rect x="108" y="60" width="6" height="6" />
      <rect x="120" y="60" width="6" height="6" />
      <rect x="126" y="60" width="6" height="6" />
      <rect x="132" y="60" width="6" height="6" />
      <rect x="144" y="60" width="6" height="6" />
      <rect x="150" y="60" width="6" height="6" />
      <rect x="18" y="66" width="6" height="6" />
      <rect x="24" y="66" width="6" height="6" />
      <rect x="30" y="66" width="6" height="6" />
      <rect x="36" y="66" width="6" height="6" />
      <rect x="42" y="66" width="6" height="6" />
      <rect x="60" y="66" width="6" height="6" />
      <rect x="72" y="66" width="6" height="6" />
      <rect x="78" y="66" width="6" height="6" />
      <rect x="90" y="66" width="6" height="6" />
      <rect x="96" y="66" width="6" height="6" />
      <rect x="114" y="66" width="6" height="6" />
      <rect x="120" y="66" width="6" height="6" />
      <rect x="138" y="66" width="6" height="6" />
      <rect x="150" y="66" width="6" height="6" />
      <rect x="156" y="66" width="6" height="6" />
      <rect x="30" y="72" width="6" height="6" />
      <rect x="42" y="72" width="6" height="6" />
      <rect x="48" y="72" width="6" height="6" />
      <rect x="54" y="72" width="6" height="6" />
      <rect x="60" y="72" width="6" height="6" />
      <rect x="66" y="72" width="6" height="6" />
      <rect x="72" y="72" width="6" height="6" />
      <rect x="96" y="72" width="6" height="6" />
      <rect x="114" y="72" width="6" height="6" />
      <rect x="132" y="72" width="6" height="6" />
      <rect x="156" y="72" width="6" height="6" />
      <rect x="18" y="78" width="6" height="6" />
      <rect x="36" y="78" width="6" height="6" />
      <rect x="54" y="78" width="6" height="6" />
      <rect x="60" y="78" width="6" height="6" />
      <rect x="90" y="78" width="6" height="6" />
      <rect x="114" y="78" width="6" height="6" />
      <rect x="120" y="78" width="6" height="6" />
      <rect x="156" y="78" width="6" height="6" />
      <rect x="48" y="84" width="6" height="6" />
      <rect x="84" y="84" width="6" height="6" />
      <rect x="90" y="84" width="6" height="6" />
      <rect x="114" y="84" width="6" height="6" />
      <rect x="120" y="84" width="6" height="6" />
      <rect x="132" y="84" width="6" height="6" />
      <rect x="144" y="84" width="6" height="6" />
      <rect x="156" y="84" width="6" height="6" />
      <rect x="24" y="90" width="6" height="6" />
      <rect x="36" y="90" width="6" height="6" />
      <rect x="54" y="90" width="6" height="6" />
      <rect x="60" y="90" width="6" height="6" />
      <rect x="72" y="90" width="6" height="6" />
      <rect x="78" y="90" width="6" height="6" />
      <rect x="84" y="90" width="6" height="6" />
      <rect x="90" y="90" width="6" height="6" />
      <rect x="108" y="90" width="6" height="6" />
      <rect x="114" y="90" width="6" height="6" />
      <rect x="120" y="90" width="6" height="6" />
      <rect x="126" y="90" width="6" height="6" />
      <rect x="138" y="90" width="6" height="6" />
      <rect x="144" y="90" width="6" height="6" />
      <rect x="12" y="96" width="6" height="6" />
      <rect x="30" y="96" width="6" height="6" />
      <rect x="36" y="96" width="6" height="6" />
      <rect x="48" y="96" width="6" height="6" />
      <rect x="54" y="96" width="6" height="6" />
      <rect x="60" y="96" width="6" height="6" />
      <rect x="72" y="96" width="6" height="6" />
      <rect x="84" y="96" width="6" height="6" />
      <rect x="108" y="96" width="6" height="6" />
      <rect x="120" y="96" width="6" height="6" />
      <rect x="138" y="96" width="6" height="6" />
      <rect x="156" y="96" width="6" height="6" />
      <rect x="18" y="102" width="6" height="6" />
      <rect x="24" y="102" width="6" height="6" />
      <rect x="54" y="102" width="6" height="6" />
      <rect x="66" y="102" width="6" height="6" />
      <rect x="72" y="102" width="6" height="6" />
      <rect x="84" y="102" width="6" height="6" />
      <rect x="90" y="102" width="6" height="6" />
      <rect x="96" y="102" width="6" height="6" />
      <rect x="102" y="102" width="6" height="6" />
      <rect x="114" y="102" width="6" height="6" />
      <rect x="126" y="102" width="6" height="6" />
      <rect x="12" y="108" width="6" height="6" />
      <rect x="18" y="108" width="6" height="6" />
      <rect x="42" y="108" width="6" height="6" />
      <rect x="48" y="108" width="6" height="6" />
      <rect x="54" y="108" width="6" height="6" />
      <rect x="60" y="108" width="6" height="6" />
      <rect x="66" y="108" width="6" height="6" />
      <rect x="72" y="108" width="6" height="6" />
      <rect x="78" y="108" width="6" height="6" />
      <rect x="84" y="108" width="6" height="6" />
      <rect x="108" y="108" width="6" height="6" />
      <rect x="114" y="108" width="6" height="6" />
      <rect x="120" y="108" width="6" height="6" />
      <rect x="126" y="108" width="6" height="6" />
      <rect x="132" y="108" width="6" height="6" />
      <rect x="144" y="108" width="6" height="6" />
      <rect x="156" y="108" width="6" height="6" />
      <rect x="60" y="114" width="6" height="6" />
      <rect x="72" y="114" width="6" height="6" />
      <rect x="96" y="114" width="6" height="6" />
      <rect x="102" y="114" width="6" height="6" />
      <rect x="108" y="114" width="6" height="6" />
      <rect x="132" y="114" width="6" height="6" />
      <rect x="144" y="114" width="6" height="6" />
      <rect x="150" y="114" width="6" height="6" />
      <rect x="12" y="120" width="6" height="6" />
      <rect x="18" y="120" width="6" height="6" />
      <rect x="24" y="120" width="6" height="6" />
      <rect x="30" y="120" width="6" height="6" />
      <rect x="36" y="120" width="6" height="6" />
      <rect x="42" y="120" width="6" height="6" />
      <rect x="48" y="120" width="6" height="6" />
      <rect x="60" y="120" width="6" height="6" />
      <rect x="90" y="120" width="6" height="6" />
      <rect x="102" y="120" width="6" height="6" />
      <rect x="108" y="120" width="6" height="6" />
      <rect x="120" y="120" width="6" height="6" />
      <rect x="132" y="120" width="6" height="6" />
      <rect x="138" y="120" width="6" height="6" />
      <rect x="150" y="120" width="6" height="6" />
      <rect x="156" y="120" width="6" height="6" />
      <rect x="12" y="126" width="6" height="6" />
      <rect x="48" y="126" width="6" height="6" />
      <rect x="66" y="126" width="6" height="6" />
      <rect x="78" y="126" width="6" height="6" />
      <rect x="84" y="126" width="6" height="6" />
      <rect x="96" y="126" width="6" height="6" />
      <rect x="102" y="126" width="6" height="6" />
      <rect x="108" y="126" width="6" height="6" />
      <rect x="132" y="126" width="6" height="6" />
      <rect x="144" y="126" width="6" height="6" />
      <rect x="12" y="132" width="6" height="6" />
      <rect x="24" y="132" width="6" height="6" />
      <rect x="30" y="132" width="6" height="6" />
      <rect x="36" y="132" width="6" height="6" />
      <rect x="48" y="132" width="6" height="6" />
      <rect x="66" y="132" width="6" height="6" />
      <rect x="72" y="132" width="6" height="6" />
      <rect x="78" y="132" width="6" height="6" />
      <rect x="90" y="132" width="6" height="6" />
      <rect x="96" y="132" width="6" height="6" />
      <rect x="108" y="132" width="6" height="6" />
      <rect x="114" y="132" width="6" height="6" />
      <rect x="120" y="132" width="6" height="6" />
      <rect x="126" y="132" width="6" height="6" />
      <rect x="132" y="132" width="6" height="6" />
      <rect x="150" y="132" width="6" height="6" />
      <rect x="12" y="138" width="6" height="6" />
      <rect x="24" y="138" width="6" height="6" />
      <rect x="30" y="138" width="6" height="6" />
      <rect x="36" y="138" width="6" height="6" />
      <rect x="48" y="138" width="6" height="6" />
      <rect x="60" y="138" width="6" height="6" />
      <rect x="102" y="138" width="6" height="6" />
      <rect x="126" y="138" width="6" height="6" />
      <rect x="132" y="138" width="6" height="6" />
      <rect x="12" y="144" width="6" height="6" />
      <rect x="24" y="144" width="6" height="6" />
      <rect x="30" y="144" width="6" height="6" />
      <rect x="36" y="144" width="6" height="6" />
      <rect x="48" y="144" width="6" height="6" />
      <rect x="66" y="144" width="6" height="6" />
      <rect x="84" y="144" width="6" height="6" />
      <rect x="102" y="144" width="6" height="6" />
      <rect x="108" y="144" width="6" height="6" />
      <rect x="126" y="144" width="6" height="6" />
      <rect x="132" y="144" width="6" height="6" />
      <rect x="156" y="144" width="6" height="6" />
      <rect x="12" y="150" width="6" height="6" />
      <rect x="48" y="150" width="6" height="6" />
      <rect x="60" y="150" width="6" height="6" />
      <rect x="90" y="150" width="6" height="6" />
      <rect x="96" y="150" width="6" height="6" />
      <rect x="102" y="150" width="6" height="6" />
      <rect x="108" y="150" width="6" height="6" />
      <rect x="114" y="150" width="6" height="6" />
      <rect x="132" y="150" width="6" height="6" />
      <rect x="12" y="156" width="6" height="6" />
      <rect x="18" y="156" width="6" height="6" />
      <rect x="24" y="156" width="6" height="6" />
      <rect x="30" y="156" width="6" height="6" />
      <rect x="36" y="156" width="6" height="6" />
      <rect x="42" y="156" width="6" height="6" />
      <rect x="48" y="156" width="6" height="6" />
      <rect x="60" y="156" width="6" height="6" />
      <rect x="84" y="156" width="6" height="6" />
      <rect x="90" y="156" width="6" height="6" />
      <rect x="96" y="156" width="6" height="6" />
      <rect x="102" y="156" width="6" height="6" />
      <rect x="108" y="156" width="6" height="6" />
      <rect x="114" y="156" width="6" height="6" />
      <rect x="120" y="156" width="6" height="6" />
      <rect x="126" y="156" width="6" height="6" />
      <rect x="132" y="156" width="6" height="6" />
      <rect x="150" y="156" width="6" height="6" />
      <rect x="156" y="156" width="6" height="6" />
   </g>
</svg>