<?xml version="1.0" encoding="utf-8"?>
<svg xmlns="http://www.w3.org/2000/svg" xml:space="preserve" xmlns:xlink="http://www.w3.org/1999/xlink" width="400" height="153.846" viewBox="0 0 400 153.846">
   <g transform="translate(0.000000,200.000000) scale(0.100000,-0.100000)" fill="#000000" stroke="none">
      <path d="M510 1075 l0 -155 25 0 25 0 0 155 0 155 -25 0 -25 0 0 -155z"/>
      <path d="M810 1075 l0 -155 25 0 25 0 0 155 0 155 -25 0 -25 0 0 -155z"/>
      <path d="M910 980 l0 -250 25 0 25 0 0 250 0 250 -25 0 -25 0 0 -250z"/>
      <path d="M1210 980 l0 -250 25 0 25 0 0 250 0 250 -25 0 -25 0 0 -250z"/>
      <path d="M1310 1075 l0 -155 25 0 25 0 0 155 0 155 -25 0 -25 0 0 -155z"/>
      <path d="M1610 1075 l0 -155 25 0 25 0 0 155 0 155 -25 0 -25 0 0 -155z"/>
      <path d="M1710 980 l0 -250 25 0 25 0 0 250 0 250 -25 0 -25 0 0 -250z"/>
      <path d="M2010 980 l0 -250 25 0 25 0 0 250 0 250 -25 0 -25 0 0 -250z"/>
      <path d="M2110 1075 l0 -155 25 0 25 0 0 155 0 155 -25 0 -25 0 0 -155z"/>
      <path d="M2410 1075 l0 -155 25 0 25 0 0 155 0 155 -25 0 -25 0 0 -155z"/>
      <path d="M2510 1075 l0 -155 25 0 25 0 0 155 0 155 -25 0 -25 0 0 -155z"/>
      <path d="M2710 1075 l0 -155 25 0 25 0 0 155 0 155 -25 0 -25 0 0 -155z"/>
      <path d="M2910 980 l0 -250 25 0 25 0 0 250 0 250 -25 0 -25 0 0 -250z"/>
      <path d="M3110 980 l0 -250 25 0 25 0 0 250 0 250 -25 0 -25 0 0 -250z"/>
      <path d="M3310 980 l0 -250 25 0 25 0 0 250 0 250 -25 0 -25 0 0 -250z"/>
      <path d="M3510 980 l0 -250 25 0 25 0 0 250 0 250 -25 0 -25 0 0 -250z"/>
      <path d="M3710 1075 l0 -155 25 0 25 0 0 155 0 155 -25 0 -25 0 0 -155z"/>
      <path d="M3910 1075 l0 -155 25 0 25 0 0 155 0 155 -25 0 -25 0 0 -155z"/>
      <path d="M4110 980 l0 -250 25 0 25 0 0 250 0 250 -25 0 -25 0 0 -250z"/>
      <path d="M4410 1075 l0 -155 25 0 25 0 0 155 0 155 -25 0 -25 0 0 -155z"/>
      <path d="M4510 1075 l0 -155 25 0 25 0 0 155 0 155 -25 0 -25 0 0 -155z"/>
      <path d="M4610 980 l0 -250 25 0 25 0 0 250 0 250 -25 0 -25 0 0 -250z"/>
      <path d="M710 890 l0 -160 25 0 25 0 0 160 0 160 -25 0 -25 0 0 -160z"/>
      <path d="M1110 890 l0 -160 25 0 25 0 0 160 0 160 -25 0 -25 0 0 -160z"/>
      <path d="M1410 890 l0 -160 25 0 25 0 0 160 0 160 -25 0 -25 0 0 -160z"/>
      <path d="M1810 890 l0 -160 25 0 25 0 0 160 0 160 -25 0 -25 0 0 -160z"/>
      <path d="M2210 890 l0 -160 25 0 25 0 0 160 0 160 -25 0 -25 0 0 -160z"/>
      <path d="M2310 890 l0 -160 25 0 25 0 0 160 0 160 -25 0 -25 0 0 -160z"/>
      <path d="M2810 890 l0 -160 25 0 25 0 0 160 0 160 -25 0 -25 0 0 -160z"/>
      <path d="M3610 890 l0 -160 25 0 25 0 0 160 0 160 -25 0 -25 0 0 -160z"/>
      <path d="M3810 890 l0 -160 25 0 25 0 0 160 0 160 -25 0 -25 0 0 -160z"/>
      <path d="M4210 890 l0 -160 25 0 25 0 0 160 0 160 -25 0 -25 0 0 -160z"/>
      <path d="M4310 890 l0 -160 25 0 25 0 0 160 0 160 -25 0 -25 0 0 -160z"/>
   </g>
</svg>
