<?xml version="1.0" encoding="utf-8"?>
<svg xmlns="http://www.w3.org/2000/svg" xml:space="preserve" xmlns:xlink="http://www.w3.org/1999/xlink" width="71" height="39.714" viewBox="0 0 71 39.714">
   <rect x="0" y="0" width="71" height="39.714" style="fill:#ffffff;" />
   <line fill="none" style="stroke:#000000; stroke-width:1;" x1="10.5" y1="0" x2="10.5" y2="35" />
   <line fill="none" style="stroke:#000000; stroke-width:1;" x1="12.5" y1="0" x2="12.5" y2="35" />
   <line fill="none" style="stroke:#000000; stroke-width:1;" x1="14.5" y1="0" x2="14.5" y2="30" />
   <line fill="none" style="stroke:#000000; stroke-width:3;" x1="18.5" y1="0" x2="18.5" y2="30" />
   <line fill="none" style="stroke:#000000; stroke-width:2;" x1="23" y1="0" x2="23" y2="30" />
   <line fill="none" style="stroke:#000000; stroke-width:1;" x1="26.5" y1="0" x2="26.5" y2="30" />
   <line fill="none" style="stroke:#000000; stroke-width:2;" x1="30" y1="0" x2="30" y2="30" />
   <line fill="none" style="stroke:#000000; stroke-width:2;" x1="33" y1="0" x2="33" y2="30" />
   <line fill="none" style="stroke:#000000; stroke-width:4;" x1="37" y1="0" x2="37" y2="30" />
   <line fill="none" style="stroke:#000000; stroke-width:1;" x1="40.5" y1="0" x2="40.5" y2="30" />
   <line fill="none" style="stroke:#000000; stroke-width:3;" x1="44.5" y1="0" x2="44.5" y2="30" />
   <line fill="none" style="stroke:#000000; stroke-width:1;" x1="47.5" y1="0" x2="47.5" y2="30" />
   <line fill="none" style="stroke:#000000; stroke-width:2;" x1="50" y1="0" x2="50" y2="30" />
   <line fill="none" style="stroke:#000000; stroke-width:1;" x1="54.5" y1="0" x2="54.5" y2="30" />
   <line fill="none" style="stroke:#000000; stroke-width:1;" x1="56.5" y1="0" x2="56.5" y2="30" />
   <line fill="none" style="stroke:#000000; stroke-width:1;" x1="58.5" y1="0" x2="58.5" y2="35" />
   <line fill="none" style="stroke:#000000; stroke-width:1;" x1="60.5" y1="0" x2="60.5" y2="35" />
   <text x="5" y="37.763" text-anchor="middle" style="font-family: Tahoma; font-size: 9px; stroke: none; fill:#000000;">0</text>
   <text x="35.5" y="37.763" text-anchor="middle" style="font-family: Tahoma; font-size: 9px; stroke: none; fill:#000000;">012345</text>
   <text x="66" y="37.763" text-anchor="middle" style="font-family: Tahoma; font-size: 9px; stroke: none; fill:#000000;">7</text>
</svg>