<?xml version="1.0" encoding="utf-8"?>
<svg xmlns="http://www.w3.org/2000/svg" xml:space="preserve" xmlns:xlink="http://www.w3.org/1999/xlink" width="115" height="39.714" viewBox="0 0 115 39.714">
   <rect x="0" y="0" width="115" height="39.714" style="fill:#ffffff;" />
   <line fill="none" style="stroke:#000000; stroke-width:1;" x1="10.5" y1="0" x2="10.5" y2="35" />
   <line fill="none" style="stroke:#000000; stroke-width:1;" x1="12.5" y1="0" x2="12.5" y2="35" />
   <line fill="none" style="stroke:#000000; stroke-width:2;" x1="17" y1="0" x2="17" y2="35" />
   <line fill="none" style="stroke:#000000; stroke-width:1;" x1="19.5" y1="0" x2="19.5" y2="35" />
   <line fill="none" style="stroke:#000000; stroke-width:2;" x1="23" y1="0" x2="23" y2="30" />
   <line fill="none" style="stroke:#000000; stroke-width:1;" x1="26.5" y1="0" x2="26.5" y2="30" />
   <line fill="none" style="stroke:#000000; stroke-width:1;" x1="29.5" y1="0" x2="29.5" y2="30" />
   <line fill="none" style="stroke:#000000; stroke-width:2;" x1="33" y1="0" x2="33" y2="30" />
   <line fill="none" style="stroke:#000000; stroke-width:4;" x1="37" y1="0" x2="37" y2="30" />
   <line fill="none" style="stroke:#000000; stroke-width:1;" x1="40.5" y1="0" x2="40.5" y2="30" />
   <line fill="none" style="stroke:#000000; stroke-width:1;" x1="42.5" y1="0" x2="42.5" y2="30" />
   <line fill="none" style="stroke:#000000; stroke-width:2;" x1="47" y1="0" x2="47" y2="30" />
   <line fill="none" style="stroke:#000000; stroke-width:2;" x1="50" y1="0" x2="50" y2="30" />
   <line fill="none" style="stroke:#000000; stroke-width:1;" x1="54.5" y1="0" x2="54.5" y2="30" />
   <line fill="none" style="stroke:#000000; stroke-width:1;" x1="56.5" y1="0" x2="56.5" y2="35" />
   <line fill="none" style="stroke:#000000; stroke-width:1;" x1="58.5" y1="0" x2="58.5" y2="35" />
   <line fill="none" style="stroke:#000000; stroke-width:1;" x1="60.5" y1="0" x2="60.5" y2="30" />
   <line fill="none" style="stroke:#000000; stroke-width:1;" x1="62.5" y1="0" x2="62.5" y2="30" />
   <line fill="none" style="stroke:#000000; stroke-width:1;" x1="67.5" y1="0" x2="67.5" y2="30" />
   <line fill="none" style="stroke:#000000; stroke-width:1;" x1="71.5" y1="0" x2="71.5" y2="30" />
   <line fill="none" style="stroke:#000000; stroke-width:1;" x1="74.5" y1="0" x2="74.5" y2="30" />
   <line fill="none" style="stroke:#000000; stroke-width:1;" x1="77.5" y1="0" x2="77.5" y2="30" />
   <line fill="none" style="stroke:#000000; stroke-width:3;" x1="82.5" y1="0" x2="82.5" y2="30" />
   <line fill="none" style="stroke:#000000; stroke-width:1;" x1="85.5" y1="0" x2="85.5" y2="30" />
   <line fill="none" style="stroke:#000000; stroke-width:3;" x1="89.5" y1="0" x2="89.5" y2="30" />
   <line fill="none" style="stroke:#000000; stroke-width:1;" x1="93.5" y1="0" x2="93.5" y2="30" />
   <line fill="none" style="stroke:#000000; stroke-width:1;" x1="95.5" y1="0" x2="95.5" y2="35" />
   <line fill="none" style="stroke:#000000; stroke-width:3;" x1="99.5" y1="0" x2="99.5" y2="35" />
   <line fill="none" style="stroke:#000000; stroke-width:1;" x1="102.5" y1="0" x2="102.5" y2="35" />
   <line fill="none" style="stroke:#000000; stroke-width:1;" x1="104.5" y1="0" x2="104.5" y2="35" />
   <text x="5" y="37.763" text-anchor="middle" style="font-family: Tahoma; font-size: 9px; stroke: none; fill:#000000;">0</text>
   <text x="37.75" y="37.763" text-anchor="middle" style="font-family: Tahoma; font-size: 9px; stroke: none; fill:#000000;">12345</text>
   <text x="77.25" y="37.763" text-anchor="middle" style="font-family: Tahoma; font-size: 9px; stroke: none; fill:#000000;">67890</text>
   <text x="110" y="37.763" text-anchor="middle" style="font-family: Tahoma; font-size: 9px; stroke: none; fill:#000000;">5</text>
</svg>