<svg id="svg" version="1.1" xmlns="http://www.w3.org/2000/svg" xmlns:xlink="http://www.w3.org/1999/xlink" width="400" height="153.84615384615384" viewBox="0, 0, 400,153.84615384615384">
   <g id="svgg">
      <path id="path0" d="M0.000 76.917 L 0.000 153.833 200.000 153.833 L 400.000 153.833 400.000 76.917 L 400.000 0.000 200.000 0.000 L 0.000 0.000 0.000 76.917 M4.467 63.200 C 4.679 63.412,4.773 80.695,4.566 81.236 C 4.417 81.623,1.750 81.623,1.601 81.236 C 1.342 80.560,1.494 63.530,1.762 63.262 C 2.084 62.940,4.159 62.892,4.467 63.200 M10.633 63.200 C 10.845 63.412,10.940 80.695,10.732 81.236 C 10.584 81.623,7.916 81.623,7.768 81.236 C 7.560 80.695,7.655 63.412,7.867 63.200 C 8.132 62.935,10.368 62.935,10.633 63.200 M29.071 63.262 C 29.417 63.607,29.477 90.290,29.133 90.633 C 29.015 90.751,28.448 90.833,27.750 90.833 C 27.052 90.833,26.485 90.751,26.367 90.633 C 26.077 90.344,26.077 63.490,26.367 63.200 C 26.674 62.892,28.749 62.940,29.071 63.262 M35.195 63.276 C 35.579 63.623,35.681 90.253,35.300 90.633 C 35.182 90.751,34.615 90.833,33.917 90.833 C 33.219 90.833,32.651 90.751,32.533 90.633 C 32.244 90.344,32.244 63.490,32.533 63.200 C 32.847 62.886,34.827 62.942,35.195 63.276 M47.467 63.200 C 47.813 63.546,47.750 90.599,47.403 90.732 C 46.932 90.913,45.074 90.840,44.867 90.633 C 44.577 90.344,44.577 63.490,44.867 63.200 C 45.130 62.937,47.203 62.937,47.467 63.200 M65.981 63.227 C 66.117 63.391,66.158 65.941,66.126 72.436 L 66.083 81.417 64.776 81.466 C 63.955 81.496,63.381 81.442,63.234 81.320 C 62.849 81.001,62.889 63.732,63.276 63.305 C 63.624 62.920,65.678 62.861,65.981 63.227 M84.467 63.200 C 84.679 63.412,84.773 80.695,84.566 81.236 C 84.417 81.623,81.750 81.623,81.601 81.236 C 81.342 80.560,81.494 63.530,81.762 63.262 C 82.084 62.940,84.159 62.892,84.467 63.200 M90.633 63.200 C 90.845 63.412,90.940 80.695,90.732 81.236 C 90.584 81.623,87.916 81.623,87.768 81.236 C 87.560 80.695,87.655 63.412,87.867 63.200 C 88.132 62.935,90.368 62.935,90.633 63.200 M102.905 63.262 C 103.173 63.530,103.325 80.560,103.066 81.236 C 102.917 81.623,100.250 81.623,100.101 81.236 C 99.893 80.695,99.988 63.412,100.200 63.200 C 100.508 62.892,102.583 62.940,102.905 63.262 M109.071 63.262 C 109.339 63.530,109.492 80.560,109.232 81.236 C 109.084 81.623,106.416 81.623,106.268 81.236 C 106.060 80.695,106.155 63.412,106.367 63.200 C 106.674 62.892,108.749 62.940,109.071 63.262 M121.362 63.276 C 121.745 63.623,121.847 90.253,121.467 90.633 C 121.349 90.751,120.781 90.833,120.083 90.833 C 119.385 90.833,118.818 90.751,118.700 90.633 C 118.410 90.344,118.410 63.490,118.700 63.200 C 119.014 62.886,120.993 62.942,121.362 63.276 M152.148 63.227 C 152.284 63.391,152.324 65.941,152.293 72.436 L 152.250 81.417 150.943 81.466 C 150.122 81.496,149.548 81.442,149.401 81.320 C 149.016 81.001,149.056 63.732,149.442 63.305 C 149.790 62.920,151.844 62.861,152.148 63.227 M158.300 63.200 C 158.512 63.412,158.607 80.695,158.399 81.236 C 158.250 81.623,155.583 81.623,155.434 81.236 C 155.175 80.560,155.327 63.530,155.595 63.262 C 155.917 62.940,157.992 62.892,158.300 63.200 M164.467 63.200 C 164.679 63.412,164.773 80.695,164.566 81.236 C 164.417 81.623,161.750 81.623,161.601 81.236 C 161.342 80.560,161.494 63.530,161.762 63.262 C 162.084 62.940,164.159 62.892,164.467 63.200 M213.648 63.227 C 213.784 63.391,213.824 65.941,213.793 72.436 L 213.750 81.417 212.333 81.417 L 210.917 81.417 210.874 72.436 C 210.825 62.227,210.705 63.000,212.333 63.000 C 213.080 63.000,213.523 63.076,213.648 63.227 M219.800 63.200 C 220.090 63.490,220.090 90.344,219.800 90.633 C 219.593 90.840,217.734 90.913,217.264 90.732 C 216.917 90.599,216.854 63.546,217.200 63.200 C 217.463 62.937,219.537 62.937,219.800 63.200 M225.981 63.227 C 226.117 63.391,226.158 65.941,226.126 72.436 L 226.083 81.417 224.776 81.466 C 223.955 81.496,223.381 81.442,223.234 81.320 C 222.849 81.001,222.889 63.732,223.276 63.305 C 223.624 62.920,225.678 62.861,225.981 63.227 M238.300 63.200 C 238.512 63.412,238.607 80.695,238.399 81.236 C 238.250 81.623,235.583 81.623,235.434 81.236 C 235.175 80.560,235.327 63.530,235.595 63.262 C 235.917 62.940,237.992 62.892,238.300 63.200 M269.071 63.262 C 269.417 63.607,269.477 90.290,269.133 90.633 C 269.015 90.751,268.448 90.833,267.750 90.833 C 267.052 90.833,266.485 90.751,266.367 90.633 C 266.077 90.344,266.077 63.490,266.367 63.200 C 266.674 62.892,268.749 62.940,269.071 63.262 M275.195 63.276 C 275.579 63.623,275.681 90.253,275.300 90.633 C 275.182 90.751,274.615 90.833,273.917 90.833 C 273.219 90.833,272.651 90.751,272.533 90.633 C 272.244 90.344,272.244 63.490,272.533 63.200 C 272.847 62.886,274.827 62.942,275.195 63.276 M281.362 63.276 C 281.852 63.719,281.835 90.398,281.344 90.661 C 280.898 90.900,278.946 90.880,278.700 90.633 C 278.410 90.344,278.410 63.490,278.700 63.200 C 279.014 62.886,280.993 62.942,281.362 63.276 M318.300 63.200 C 318.512 63.412,318.607 80.695,318.399 81.236 C 318.250 81.623,315.583 81.623,315.434 81.236 C 315.175 80.560,315.327 63.530,315.595 63.262 C 315.917 62.940,317.992 62.892,318.300 63.200 M330.633 63.200 C 330.923 63.490,330.923 90.344,330.633 90.633 C 330.515 90.751,329.948 90.833,329.250 90.833 C 328.552 90.833,327.985 90.751,327.867 90.633 C 327.577 90.344,327.577 63.490,327.867 63.200 C 328.132 62.935,330.368 62.935,330.633 63.200 M336.800 63.200 C 337.012 63.412,337.107 80.695,336.899 81.236 C 336.750 81.623,334.083 81.623,333.934 81.236 C 333.727 80.695,333.821 63.412,334.033 63.200 C 334.299 62.935,336.535 62.935,336.800 63.200 M342.905 63.262 C 343.173 63.530,343.325 80.560,343.066 81.236 C 342.917 81.623,340.250 81.623,340.101 81.236 C 339.893 80.695,339.988 63.412,340.200 63.200 C 340.508 62.892,342.583 62.940,342.905 63.262 M349.071 63.262 C 349.362 63.552,349.477 80.849,349.192 81.299 C 349.093 81.454,348.662 81.501,347.652 81.466 L 346.250 81.417 346.207 72.436 C 346.176 65.941,346.216 63.391,346.352 63.227 C 346.631 62.891,348.728 62.918,349.071 63.262 M361.362 63.276 C 361.745 63.623,361.847 90.253,361.467 90.633 C 361.349 90.751,360.781 90.833,360.083 90.833 C 359.385 90.833,358.818 90.751,358.700 90.633 C 358.410 90.344,358.410 63.490,358.700 63.200 C 359.014 62.886,360.993 62.942,361.362 63.276 M379.814 63.227 C 379.951 63.391,379.991 65.941,379.960 72.436 L 379.917 81.417 378.500 81.417 L 377.083 81.417 377.040 72.436 C 376.991 62.227,376.872 63.000,378.500 63.000 C 379.247 63.000,379.689 63.076,379.814 63.227 M385.981 63.227 C 386.117 63.391,386.158 65.941,386.126 72.436 L 386.083 81.417 384.776 81.466 C 383.955 81.496,383.381 81.442,383.234 81.320 C 382.849 81.001,382.889 63.732,383.276 63.305 C 383.624 62.920,385.678 62.861,385.981 63.227 M398.300 63.200 C 398.512 63.412,398.607 80.695,398.399 81.236 C 398.250 81.623,395.583 81.623,395.434 81.236 C 395.175 80.560,395.327 63.530,395.595 63.262 C 395.917 62.940,397.992 62.892,398.300 63.200 M16.800 72.533 C 17.088 72.822,17.088 90.345,16.800 90.633 C 16.682 90.751,16.115 90.833,15.417 90.833 C 14.719 90.833,14.151 90.751,14.033 90.633 C 13.745 90.345,13.745 72.822,14.033 72.533 C 14.299 72.268,16.535 72.268,16.800 72.533 M22.967 72.533 C 23.178 72.745,23.269 80.707,23.066 81.236 C 22.917 81.623,20.250 81.623,20.101 81.236 C 19.969 80.892,19.969 72.941,20.101 72.597 C 20.228 72.266,22.646 72.213,22.967 72.533 M41.467 72.533 C 41.861 72.928,41.743 90.448,41.344 90.661 C 40.898 90.900,38.946 90.880,38.700 90.633 C 38.482 90.416,38.395 72.660,38.611 72.444 C 38.810 72.246,41.255 72.322,41.467 72.533 M53.750 76.917 L 53.750 81.417 52.333 81.417 L 50.917 81.417 50.872 77.086 C 50.818 71.840,50.669 72.308,52.372 72.368 L 53.750 72.417 53.750 76.917 M59.960 81.398 C 59.991 87.892,59.951 90.442,59.814 90.606 C 59.620 90.840,57.782 90.931,57.264 90.732 C 56.985 90.625,56.841 72.714,57.117 72.438 C 57.182 72.374,57.838 72.342,58.576 72.369 L 59.917 72.417 59.960 81.398 M72.293 81.398 C 72.342 91.643,72.474 90.833,70.763 90.833 C 69.025 90.833,69.167 91.653,69.167 81.583 C 69.167 71.418,68.999 72.300,70.914 72.369 L 72.250 72.417 72.293 81.398 M78.399 72.597 C 78.454 72.742,78.500 74.686,78.500 76.917 C 78.500 79.148,78.454 81.091,78.399 81.236 C 78.250 81.623,75.583 81.623,75.434 81.236 C 75.231 80.707,75.322 72.745,75.533 72.533 C 75.854 72.213,78.272 72.266,78.399 72.597 M96.800 72.533 C 97.088 72.822,97.088 90.345,96.800 90.633 C 96.682 90.751,96.115 90.833,95.417 90.833 C 94.719 90.833,94.151 90.751,94.033 90.633 C 93.745 90.345,93.745 72.822,94.033 72.533 C 94.299 72.268,96.535 72.268,96.800 72.533 M115.300 72.533 C 115.614 72.847,115.582 81.058,115.266 81.320 C 115.119 81.442,114.545 81.496,113.724 81.466 L 112.417 81.417 112.372 77.086 C 112.348 74.704,112.364 72.660,112.409 72.544 C 112.517 72.262,115.019 72.253,115.300 72.533 M127.626 81.489 C 127.660 88.637,127.625 90.590,127.460 90.695 C 127.128 90.906,125.091 90.858,124.867 90.633 C 124.645 90.412,124.564 72.658,124.784 72.438 C 124.848 72.374,125.505 72.342,126.242 72.369 L 127.583 72.417 127.626 81.489 M133.750 76.917 L 133.750 81.417 132.333 81.417 L 130.917 81.417 130.872 77.086 C 130.818 71.840,130.669 72.308,132.372 72.368 L 133.750 72.417 133.750 76.917 M139.960 81.398 C 139.991 87.892,139.951 90.442,139.814 90.606 C 139.620 90.840,137.782 90.931,137.264 90.732 C 136.985 90.625,136.841 72.714,137.117 72.438 C 137.182 72.374,137.838 72.342,138.576 72.369 L 139.917 72.417 139.960 81.398 M146.126 81.398 C 146.176 91.643,146.307 90.833,144.596 90.833 C 142.859 90.833,143.000 91.653,143.000 81.583 C 143.000 71.418,142.833 72.300,144.748 72.369 L 146.083 72.417 146.126 81.398 M170.633 72.533 C 170.922 72.822,170.922 90.345,170.633 90.633 C 170.515 90.751,169.948 90.833,169.250 90.833 C 168.552 90.833,167.985 90.751,167.867 90.633 C 167.578 90.345,167.578 72.822,167.867 72.533 C 168.132 72.268,170.368 72.268,170.633 72.533 M176.800 72.533 C 177.088 72.822,177.088 90.345,176.800 90.633 C 176.682 90.751,176.115 90.833,175.417 90.833 C 174.719 90.833,174.151 90.751,174.033 90.633 C 173.745 90.345,173.745 72.822,174.033 72.533 C 174.299 72.268,176.535 72.268,176.800 72.533 M182.967 72.533 C 183.178 72.745,183.269 80.707,183.066 81.236 C 182.917 81.623,180.250 81.623,180.101 81.236 C 180.046 81.091,180.000 79.148,180.000 76.917 C 180.000 74.686,180.046 72.742,180.101 72.597 C 180.228 72.266,182.646 72.213,182.967 72.533 M189.133 72.533 C 189.422 72.822,189.422 90.345,189.133 90.633 C 189.015 90.751,188.448 90.833,187.750 90.833 C 187.052 90.833,186.485 90.751,186.367 90.633 C 186.149 90.416,186.062 72.660,186.278 72.444 C 186.477 72.246,188.922 72.322,189.133 72.533 M195.300 72.533 C 195.614 72.847,195.582 81.058,195.266 81.320 C 195.119 81.442,194.545 81.496,193.724 81.466 L 192.417 81.417 192.372 77.086 C 192.348 74.704,192.364 72.660,192.409 72.544 C 192.517 72.262,195.019 72.253,195.300 72.533 M201.467 72.533 C 201.780 72.847,201.749 81.058,201.432 81.320 C 201.285 81.442,200.711 81.496,199.891 81.466 L 198.583 81.417 198.539 77.086 C 198.514 74.704,198.531 72.660,198.575 72.544 C 198.684 72.262,201.186 72.253,201.467 72.533 M207.626 81.489 C 207.660 88.637,207.625 90.590,207.460 90.695 C 207.128 90.906,205.091 90.858,204.867 90.633 C 204.645 90.412,204.564 72.658,204.784 72.438 C 204.848 72.374,205.505 72.342,206.242 72.369 L 207.583 72.417 207.626 81.489 M232.293 81.398 C 232.342 91.643,232.474 90.833,230.763 90.833 C 229.025 90.833,229.167 91.653,229.167 81.583 C 229.167 71.418,228.999 72.300,230.914 72.369 L 232.250 72.417 232.293 81.398 M244.566 72.597 C 244.773 73.138,244.679 90.421,244.467 90.633 C 244.349 90.751,243.781 90.833,243.083 90.833 C 242.385 90.833,241.818 90.751,241.700 90.633 C 241.412 90.345,241.412 72.822,241.700 72.533 C 242.021 72.213,244.439 72.266,244.566 72.597 M250.633 72.533 C 250.922 72.822,250.922 90.345,250.633 90.633 C 250.515 90.751,249.948 90.833,249.250 90.833 C 248.552 90.833,247.985 90.751,247.867 90.633 C 247.578 90.345,247.578 72.822,247.867 72.533 C 248.132 72.268,250.368 72.268,250.633 72.533 M256.800 72.533 C 257.088 72.822,257.088 90.345,256.800 90.633 C 256.682 90.751,256.115 90.833,255.417 90.833 C 254.719 90.833,254.151 90.751,254.033 90.633 C 253.745 90.345,253.745 72.822,254.033 72.533 C 254.299 72.268,256.535 72.268,256.800 72.533 M262.967 72.533 C 263.178 72.745,263.269 80.707,263.066 81.236 C 262.917 81.623,260.250 81.623,260.101 81.236 C 260.046 81.091,260.000 79.148,260.000 76.917 C 260.000 74.686,260.046 72.742,260.101 72.597 C 260.228 72.266,262.646 72.213,262.967 72.533 M287.626 81.489 C 287.660 88.637,287.625 90.590,287.460 90.695 C 287.128 90.906,285.091 90.858,284.867 90.633 C 284.645 90.412,284.564 72.658,284.784 72.438 C 284.848 72.374,285.505 72.342,286.242 72.369 L 287.583 72.417 287.626 81.489 M293.793 81.398 C 293.824 87.892,293.784 90.442,293.648 90.606 C 293.453 90.840,291.616 90.931,291.097 90.732 C 290.818 90.625,290.675 72.714,290.951 72.438 C 291.015 72.374,291.671 72.342,292.409 72.369 L 293.750 72.417 293.793 81.398 M299.917 76.917 L 299.917 81.417 298.500 81.417 L 297.083 81.417 297.039 77.086 C 296.985 71.840,296.836 72.308,298.539 72.368 L 299.917 72.417 299.917 76.917 M306.083 76.917 L 306.083 81.417 304.776 81.466 C 302.884 81.536,303.000 81.832,303.000 76.930 C 303.000 72.011,302.888 72.302,304.748 72.369 L 306.083 72.417 306.083 76.917 M312.250 76.917 L 312.250 81.417 310.943 81.466 C 309.051 81.536,309.167 81.832,309.167 76.930 C 309.167 72.011,309.055 72.302,310.914 72.369 L 312.250 72.417 312.250 76.917 M324.566 72.597 C 324.773 73.138,324.679 90.421,324.467 90.633 C 324.349 90.751,323.781 90.833,323.083 90.833 C 322.385 90.833,321.818 90.751,321.700 90.633 C 321.412 90.345,321.412 72.822,321.700 72.533 C 322.021 72.213,324.439 72.266,324.566 72.597 M355.300 72.533 C 355.451 72.684,355.500 74.922,355.500 81.583 C 355.500 91.647,355.639 90.833,353.917 90.833 C 353.219 90.833,352.651 90.751,352.533 90.633 C 352.316 90.416,352.229 72.660,352.444 72.444 C 352.643 72.246,355.088 72.322,355.300 72.533 M367.583 76.917 L 367.583 81.417 366.167 81.417 L 364.750 81.417 364.705 77.086 C 364.651 71.840,364.502 72.308,366.206 72.368 L 367.583 72.417 367.583 76.917 M373.793 81.489 C 373.827 88.637,373.792 90.590,373.626 90.695 C 373.380 90.851,371.480 90.879,371.097 90.732 C 370.818 90.625,370.675 72.714,370.951 72.438 C 371.015 72.374,371.671 72.342,372.409 72.369 L 373.750 72.417 373.793 81.489 M392.293 81.398 C 392.342 91.643,392.474 90.833,390.763 90.833 C 389.025 90.833,389.167 91.653,389.167 81.583 C 389.167 71.418,388.999 72.300,390.914 72.369 L 392.250 72.417 392.293 81.398 " stroke="none" fill="#ffffff" fill-rule="evenodd"></path>
      <path id="path1" d="M1.762 63.262 C 1.494 63.530,1.342 80.560,1.601 81.236 C 1.750 81.623,4.417 81.623,4.566 81.236 C 4.773 80.695,4.679 63.412,4.467 63.200 C 4.159 62.892,2.084 62.940,1.762 63.262 M7.867 63.200 C 7.655 63.412,7.560 80.695,7.768 81.236 C 7.916 81.623,10.584 81.623,10.732 81.236 C 10.940 80.695,10.845 63.412,10.633 63.200 C 10.368 62.935,8.132 62.935,7.867 63.200 M26.367 63.200 C 26.077 63.490,26.077 90.344,26.367 90.633 C 26.485 90.751,27.052 90.833,27.750 90.833 C 28.448 90.833,29.015 90.751,29.133 90.633 C 29.477 90.290,29.417 63.607,29.071 63.262 C 28.749 62.940,26.674 62.892,26.367 63.200 M32.533 63.200 C 32.244 63.490,32.244 90.344,32.533 90.633 C 32.651 90.751,33.219 90.833,33.917 90.833 C 34.615 90.833,35.182 90.751,35.300 90.633 C 35.681 90.253,35.579 63.623,35.195 63.276 C 34.827 62.942,32.847 62.886,32.533 63.200 M44.867 63.200 C 44.577 63.490,44.577 90.344,44.867 90.633 C 45.074 90.840,46.932 90.913,47.403 90.732 C 47.750 90.599,47.813 63.546,47.467 63.200 C 47.203 62.937,45.130 62.937,44.867 63.200 M63.276 63.305 C 62.889 63.732,62.849 81.001,63.234 81.320 C 63.381 81.442,63.955 81.496,64.776 81.466 L 66.083 81.417 66.126 72.436 C 66.158 65.941,66.117 63.391,65.981 63.227 C 65.678 62.861,63.624 62.920,63.276 63.305 M81.762 63.262 C 81.494 63.530,81.342 80.560,81.601 81.236 C 81.750 81.623,84.417 81.623,84.566 81.236 C 84.773 80.695,84.679 63.412,84.467 63.200 C 84.159 62.892,82.084 62.940,81.762 63.262 M87.867 63.200 C 87.655 63.412,87.560 80.695,87.768 81.236 C 87.916 81.623,90.584 81.623,90.732 81.236 C 90.940 80.695,90.845 63.412,90.633 63.200 C 90.368 62.935,88.132 62.935,87.867 63.200 M100.200 63.200 C 99.988 63.412,99.893 80.695,100.101 81.236 C 100.250 81.623,102.917 81.623,103.066 81.236 C 103.325 80.560,103.173 63.530,102.905 63.262 C 102.583 62.940,100.508 62.892,100.200 63.200 M106.367 63.200 C 106.155 63.412,106.060 80.695,106.268 81.236 C 106.416 81.623,109.084 81.623,109.232 81.236 C 109.492 80.560,109.339 63.530,109.071 63.262 C 108.749 62.940,106.674 62.892,106.367 63.200 M118.700 63.200 C 118.410 63.490,118.410 90.344,118.700 90.633 C 118.818 90.751,119.385 90.833,120.083 90.833 C 120.781 90.833,121.349 90.751,121.467 90.633 C 121.847 90.253,121.745 63.623,121.362 63.276 C 120.993 62.942,119.014 62.886,118.700 63.200 M149.442 63.305 C 149.056 63.732,149.016 81.001,149.401 81.320 C 149.548 81.442,150.122 81.496,150.943 81.466 L 152.250 81.417 152.293 72.436 C 152.324 65.941,152.284 63.391,152.148 63.227 C 151.844 62.861,149.790 62.920,149.442 63.305 M155.595 63.262 C 155.327 63.530,155.175 80.560,155.434 81.236 C 155.583 81.623,158.250 81.623,158.399 81.236 C 158.607 80.695,158.512 63.412,158.300 63.200 C 157.992 62.892,155.917 62.940,155.595 63.262 M161.762 63.262 C 161.494 63.530,161.342 80.560,161.601 81.236 C 161.750 81.623,164.417 81.623,164.566 81.236 C 164.773 80.695,164.679 63.412,164.467 63.200 C 164.159 62.892,162.084 62.940,161.762 63.262 M211.019 63.227 C 210.883 63.391,210.842 65.941,210.874 72.436 L 210.917 81.417 212.333 81.417 L 213.750 81.417 213.793 72.436 C 213.842 62.227,213.962 63.000,212.333 63.000 C 211.586 63.000,211.144 63.076,211.019 63.227 M217.200 63.200 C 216.854 63.546,216.917 90.599,217.264 90.732 C 217.734 90.913,219.593 90.840,219.800 90.633 C 220.090 90.344,220.090 63.490,219.800 63.200 C 219.537 62.937,217.463 62.937,217.200 63.200 M223.276 63.305 C 222.889 63.732,222.849 81.001,223.234 81.320 C 223.381 81.442,223.955 81.496,224.776 81.466 L 226.083 81.417 226.126 72.436 C 226.158 65.941,226.117 63.391,225.981 63.227 C 225.678 62.861,223.624 62.920,223.276 63.305 M235.595 63.262 C 235.327 63.530,235.175 80.560,235.434 81.236 C 235.583 81.623,238.250 81.623,238.399 81.236 C 238.607 80.695,238.512 63.412,238.300 63.200 C 237.992 62.892,235.917 62.940,235.595 63.262 M266.367 63.200 C 266.077 63.490,266.077 90.344,266.367 90.633 C 266.485 90.751,267.052 90.833,267.750 90.833 C 268.448 90.833,269.015 90.751,269.133 90.633 C 269.477 90.290,269.417 63.607,269.071 63.262 C 268.749 62.940,266.674 62.892,266.367 63.200 M272.533 63.200 C 272.244 63.490,272.244 90.344,272.533 90.633 C 272.651 90.751,273.219 90.833,273.917 90.833 C 274.615 90.833,275.182 90.751,275.300 90.633 C 275.681 90.253,275.579 63.623,275.195 63.276 C 274.827 62.942,272.847 62.886,272.533 63.200 M278.700 63.200 C 278.410 63.490,278.410 90.344,278.700 90.633 C 278.946 90.880,280.898 90.900,281.344 90.661 C 281.835 90.398,281.852 63.719,281.362 63.276 C 280.993 62.942,279.014 62.886,278.700 63.200 M315.595 63.262 C 315.327 63.530,315.175 80.560,315.434 81.236 C 315.583 81.623,318.250 81.623,318.399 81.236 C 318.607 80.695,318.512 63.412,318.300 63.200 C 317.992 62.892,315.917 62.940,315.595 63.262 M327.867 63.200 C 327.577 63.490,327.577 90.344,327.867 90.633 C 327.985 90.751,328.552 90.833,329.250 90.833 C 329.948 90.833,330.515 90.751,330.633 90.633 C 330.923 90.344,330.923 63.490,330.633 63.200 C 330.368 62.935,328.132 62.935,327.867 63.200 M334.033 63.200 C 333.821 63.412,333.727 80.695,333.934 81.236 C 334.083 81.623,336.750 81.623,336.899 81.236 C 337.107 80.695,337.012 63.412,336.800 63.200 C 336.535 62.935,334.299 62.935,334.033 63.200 M340.200 63.200 C 339.988 63.412,339.893 80.695,340.101 81.236 C 340.250 81.623,342.917 81.623,343.066 81.236 C 343.325 80.560,343.173 63.530,342.905 63.262 C 342.583 62.940,340.508 62.892,340.200 63.200 M346.352 63.227 C 346.216 63.391,346.176 65.941,346.207 72.436 L 346.250 81.417 347.652 81.466 C 348.662 81.501,349.093 81.454,349.192 81.299 C 349.477 80.849,349.362 63.552,349.071 63.262 C 348.728 62.918,346.631 62.891,346.352 63.227 M358.700 63.200 C 358.410 63.490,358.410 90.344,358.700 90.633 C 358.818 90.751,359.385 90.833,360.083 90.833 C 360.781 90.833,361.349 90.751,361.467 90.633 C 361.847 90.253,361.745 63.623,361.362 63.276 C 360.993 62.942,359.014 62.886,358.700 63.200 M377.186 63.227 C 377.049 63.391,377.009 65.941,377.040 72.436 L 377.083 81.417 378.500 81.417 L 379.917 81.417 379.960 72.436 C 380.009 62.227,380.128 63.000,378.500 63.000 C 377.753 63.000,377.311 63.076,377.186 63.227 M383.276 63.305 C 382.889 63.732,382.849 81.001,383.234 81.320 C 383.381 81.442,383.955 81.496,384.776 81.466 L 386.083 81.417 386.126 72.436 C 386.158 65.941,386.117 63.391,385.981 63.227 C 385.678 62.861,383.624 62.920,383.276 63.305 M395.595 63.262 C 395.327 63.530,395.175 80.560,395.434 81.236 C 395.583 81.623,398.250 81.623,398.399 81.236 C 398.607 80.695,398.512 63.412,398.300 63.200 C 397.992 62.892,395.917 62.940,395.595 63.262 M14.033 72.533 C 13.745 72.822,13.745 90.345,14.033 90.633 C 14.151 90.751,14.719 90.833,15.417 90.833 C 16.115 90.833,16.682 90.751,16.800 90.633 C 17.088 90.345,17.088 72.822,16.800 72.533 C 16.535 72.268,14.299 72.268,14.033 72.533 M20.101 72.597 C 19.969 72.941,19.969 80.892,20.101 81.236 C 20.250 81.623,22.917 81.623,23.066 81.236 C 23.269 80.707,23.178 72.745,22.967 72.533 C 22.646 72.213,20.228 72.266,20.101 72.597 M38.611 72.444 C 38.395 72.660,38.482 90.416,38.700 90.633 C 38.946 90.880,40.898 90.900,41.344 90.661 C 41.743 90.448,41.861 72.928,41.467 72.533 C 41.255 72.322,38.810 72.246,38.611 72.444 M50.911 72.538 C 50.865 72.657,50.848 74.704,50.872 77.086 L 50.917 81.417 52.333 81.417 L 53.750 81.417 53.750 76.917 L 53.750 72.417 52.372 72.368 C 51.356 72.332,50.973 72.377,50.911 72.538 M57.117 72.438 C 56.841 72.714,56.985 90.625,57.264 90.732 C 57.782 90.931,59.620 90.840,59.814 90.606 C 59.951 90.442,59.991 87.892,59.960 81.398 L 59.917 72.417 58.576 72.369 C 57.838 72.342,57.182 72.374,57.117 72.438 M69.373 72.527 C 69.079 72.821,69.073 90.340,69.367 90.633 C 69.654 90.921,71.905 90.899,72.148 90.606 C 72.284 90.442,72.324 87.892,72.293 81.398 L 72.250 72.417 70.914 72.369 C 70.019 72.337,69.511 72.389,69.373 72.527 M75.533 72.533 C 75.322 72.745,75.231 80.707,75.434 81.236 C 75.583 81.623,78.250 81.623,78.399 81.236 C 78.454 81.091,78.500 79.148,78.500 76.917 C 78.500 74.686,78.454 72.742,78.399 72.597 C 78.272 72.266,75.854 72.213,75.533 72.533 M94.033 72.533 C 93.745 72.822,93.745 90.345,94.033 90.633 C 94.151 90.751,94.719 90.833,95.417 90.833 C 96.115 90.833,96.682 90.751,96.800 90.633 C 97.088 90.345,97.088 72.822,96.800 72.533 C 96.535 72.268,94.299 72.268,94.033 72.533 M112.409 72.544 C 112.364 72.660,112.348 74.704,112.372 77.086 L 112.417 81.417 113.724 81.466 C 114.545 81.496,115.119 81.442,115.266 81.320 C 115.582 81.058,115.614 72.847,115.300 72.533 C 115.019 72.253,112.517 72.262,112.409 72.544 M124.784 72.438 C 124.564 72.658,124.645 90.412,124.867 90.633 C 125.091 90.858,127.128 90.906,127.460 90.695 C 127.625 90.590,127.660 88.637,127.626 81.489 L 127.583 72.417 126.242 72.369 C 125.505 72.342,124.848 72.374,124.784 72.438 M130.911 72.538 C 130.865 72.657,130.848 74.704,130.872 77.086 L 130.917 81.417 132.333 81.417 L 133.750 81.417 133.750 76.917 L 133.750 72.417 132.372 72.368 C 131.356 72.332,130.973 72.377,130.911 72.538 M137.117 72.438 C 136.841 72.714,136.985 90.625,137.264 90.732 C 137.782 90.931,139.620 90.840,139.814 90.606 C 139.951 90.442,139.991 87.892,139.960 81.398 L 139.917 72.417 138.576 72.369 C 137.838 72.342,137.182 72.374,137.117 72.438 M143.206 72.527 C 142.912 72.821,142.906 90.340,143.200 90.633 C 143.487 90.921,145.738 90.899,145.981 90.606 C 146.117 90.442,146.158 87.892,146.126 81.398 L 146.083 72.417 144.748 72.369 C 143.852 72.337,143.344 72.389,143.206 72.527 M167.867 72.533 C 167.578 72.822,167.578 90.345,167.867 90.633 C 167.985 90.751,168.552 90.833,169.250 90.833 C 169.948 90.833,170.515 90.751,170.633 90.633 C 170.922 90.345,170.922 72.822,170.633 72.533 C 170.368 72.268,168.132 72.268,167.867 72.533 M174.033 72.533 C 173.745 72.822,173.745 90.345,174.033 90.633 C 174.151 90.751,174.719 90.833,175.417 90.833 C 176.115 90.833,176.682 90.751,176.800 90.633 C 177.088 90.345,177.088 72.822,176.800 72.533 C 176.535 72.268,174.299 72.268,174.033 72.533 M180.101 72.597 C 180.046 72.742,180.000 74.686,180.000 76.917 C 180.000 79.148,180.046 81.091,180.101 81.236 C 180.250 81.623,182.917 81.623,183.066 81.236 C 183.269 80.707,183.178 72.745,182.967 72.533 C 182.646 72.213,180.228 72.266,180.101 72.597 M186.278 72.444 C 186.062 72.660,186.149 90.416,186.367 90.633 C 186.485 90.751,187.052 90.833,187.750 90.833 C 188.448 90.833,189.015 90.751,189.133 90.633 C 189.422 90.345,189.422 72.822,189.133 72.533 C 188.922 72.322,186.477 72.246,186.278 72.444 M192.409 72.544 C 192.364 72.660,192.348 74.704,192.372 77.086 L 192.417 81.417 193.724 81.466 C 194.545 81.496,195.119 81.442,195.266 81.320 C 195.582 81.058,195.614 72.847,195.300 72.533 C 195.019 72.253,192.517 72.262,192.409 72.544 M198.575 72.544 C 198.531 72.660,198.514 74.704,198.539 77.086 L 198.583 81.417 199.891 81.466 C 200.711 81.496,201.285 81.442,201.432 81.320 C 201.749 81.058,201.780 72.847,201.467 72.533 C 201.186 72.253,198.684 72.262,198.575 72.544 M204.784 72.438 C 204.564 72.658,204.645 90.412,204.867 90.633 C 205.091 90.858,207.128 90.906,207.460 90.695 C 207.625 90.590,207.660 88.637,207.626 81.489 L 207.583 72.417 206.242 72.369 C 205.505 72.342,204.848 72.374,204.784 72.438 M229.373 72.527 C 229.079 72.821,229.073 90.340,229.367 90.633 C 229.654 90.921,231.905 90.899,232.148 90.606 C 232.284 90.442,232.324 87.892,232.293 81.398 L 232.250 72.417 230.914 72.369 C 230.019 72.337,229.511 72.389,229.373 72.527 M241.700 72.533 C 241.412 72.822,241.412 90.345,241.700 90.633 C 241.818 90.751,242.385 90.833,243.083 90.833 C 243.781 90.833,244.349 90.751,244.467 90.633 C 244.679 90.421,244.773 73.138,244.566 72.597 C 244.439 72.266,242.021 72.213,241.700 72.533 M247.867 72.533 C 247.578 72.822,247.578 90.345,247.867 90.633 C 247.985 90.751,248.552 90.833,249.250 90.833 C 249.948 90.833,250.515 90.751,250.633 90.633 C 250.922 90.345,250.922 72.822,250.633 72.533 C 250.368 72.268,248.132 72.268,247.867 72.533 M254.033 72.533 C 253.745 72.822,253.745 90.345,254.033 90.633 C 254.151 90.751,254.719 90.833,255.417 90.833 C 256.115 90.833,256.682 90.751,256.800 90.633 C 257.088 90.345,257.088 72.822,256.800 72.533 C 256.535 72.268,254.299 72.268,254.033 72.533 M260.101 72.597 C 260.046 72.742,260.000 74.686,260.000 76.917 C 260.000 79.148,260.046 81.091,260.101 81.236 C 260.250 81.623,262.917 81.623,263.066 81.236 C 263.269 80.707,263.178 72.745,262.967 72.533 C 262.646 72.213,260.228 72.266,260.101 72.597 M284.784 72.438 C 284.564 72.658,284.645 90.412,284.867 90.633 C 285.091 90.858,287.128 90.906,287.460 90.695 C 287.625 90.590,287.660 88.637,287.626 81.489 L 287.583 72.417 286.242 72.369 C 285.505 72.342,284.848 72.374,284.784 72.438 M290.951 72.438 C 290.675 72.714,290.818 90.625,291.097 90.732 C 291.616 90.931,293.453 90.840,293.648 90.606 C 293.784 90.442,293.824 87.892,293.793 81.398 L 293.750 72.417 292.409 72.369 C 291.671 72.342,291.015 72.374,290.951 72.438 M297.078 72.538 C 297.032 72.657,297.014 74.704,297.039 77.086 L 297.083 81.417 298.500 81.417 L 299.917 81.417 299.917 76.917 L 299.917 72.417 298.539 72.368 C 297.523 72.332,297.139 72.377,297.078 72.538 M303.206 72.527 C 302.887 72.847,302.913 81.054,303.234 81.320 C 303.381 81.442,303.955 81.496,304.776 81.466 L 306.083 81.417 306.083 76.917 L 306.083 72.417 304.748 72.369 C 303.852 72.337,303.344 72.389,303.206 72.527 M309.373 72.527 C 309.053 72.847,309.080 81.054,309.401 81.320 C 309.548 81.442,310.122 81.496,310.943 81.466 L 312.250 81.417 312.250 76.917 L 312.250 72.417 310.914 72.369 C 310.019 72.337,309.511 72.389,309.373 72.527 M321.700 72.533 C 321.412 72.822,321.412 90.345,321.700 90.633 C 321.818 90.751,322.385 90.833,323.083 90.833 C 323.781 90.833,324.349 90.751,324.467 90.633 C 324.679 90.421,324.773 73.138,324.566 72.597 C 324.439 72.266,322.021 72.213,321.700 72.533 M352.444 72.444 C 352.229 72.660,352.316 90.416,352.533 90.633 C 352.651 90.751,353.219 90.833,353.917 90.833 C 355.639 90.833,355.500 91.647,355.500 81.583 C 355.500 74.922,355.451 72.684,355.300 72.533 C 355.088 72.322,352.643 72.246,352.444 72.444 M364.744 72.538 C 364.699 72.657,364.681 74.704,364.705 77.086 L 364.750 81.417 366.167 81.417 L 367.583 81.417 367.583 76.917 L 367.583 72.417 366.206 72.368 C 365.189 72.332,364.806 72.377,364.744 72.538 M370.951 72.438 C 370.675 72.714,370.818 90.625,371.097 90.732 C 371.480 90.879,373.380 90.851,373.626 90.695 C 373.792 90.590,373.827 88.637,373.793 81.489 L 373.750 72.417 372.409 72.369 C 371.671 72.342,371.015 72.374,370.951 72.438 M389.373 72.527 C 389.079 72.821,389.073 90.340,389.367 90.633 C 389.654 90.921,391.905 90.899,392.148 90.606 C 392.284 90.442,392.324 87.892,392.293 81.398 L 392.250 72.417 390.914 72.369 C 390.019 72.337,389.511 72.389,389.373 72.527 " stroke="none" fill="#000000" fill-rule="evenodd"></path>
   </g>
</svg>