<svg xmlns="http://www.w3.org/2000/svg" viewBox="0 0 508.92 147.28"><title>cmc7</title><g id="Layer_2" data-name="Layer 2"><g id="icons"><path style="fill:#fff;" d="M508.92,137.31a10,10,0,0,1-10,10H10a10,10,0,0,1-10-10V10A10,10,0,0,1,10,0h489a10,10,0,0,1,10,10Z"/><path style="fill:#2c2e44;" d="M49.47,70.36v-19l3.14-1.9v19Zm0,41.28V86.53H52.6v25.11ZM61.93,64.18v-19l3-1.9v19Zm0,47.47V86.53h3v25.11Zm6.18-50.8v-19l3-1.9v19Zm0,50.8V86.53h3v25.11Zm6.18,0V38.87L77.43,37v74.67Zm6.18,0V35.54h3.14v76.1Zm12.46,0V77.4h3.14v34.25Zm6.18,0V77.4h3.14v34.25Z"/><path style="fill:#2c2e44;" d="M120.9,100.23v-40l3.14-1.9v41.86Zm12.46,0V52.76l3-2v49.47Zm6.18-28.35V49.05l3-2.38V69.5Zm0,28.35V85h3v15.22ZM145.73,68V45.15l3.14-2.38V65.6Zm0,32.25V85h3.14v15.22Zm12.46-39.48V37.92l3-2.38V58.37Zm0,50.89V81.2h3v30.44Zm6.18-53.08V35.73h3.14V58.56Zm0,53.08V81.2h3.14v30.44Zm6.18-53.08V35.73h3.14V58.56Zm0,53.08V81.2h3.14v30.44Z"/><path style="fill:#2c2e44;" d="M192.34,79.3V35.54h3.14V79.3Zm0,32.44V94.62h3.14v17.12Zm6.18-32.44V35.54h3.14V79.3Zm0,32.44V94.62h3.14v17.12Zm6.28-58.88V35.73h3V52.86Zm0,26.44V64.08h3V79.3Zm0,32.44V94.62h3v17.12ZM211,52.86V35.73h3V52.86Zm0,26.44V64.08h3V79.3Zm0,32.44V94.62h3v17.12Zm12.37-58.88V35.73h3.14V52.86Zm0,26.44V64.08h3.14V79.3Zm0,32.44V94.62h3.14v17.12Zm12.46-58.88V35.73H239V52.86Zm0,58.79V64.08L239,66v43.76ZM242,52.86V35.73h3.14V52.86Zm0,55.55V69.22l3.14,6.66v25.87Z"/><path style="fill:#2c2e44;" d="M263.78,60.66V46l3.14-5.71V60.66Zm0,40.43V86.44h3.14v20.36Zm12.46-40.33V35.64h3V60.75Zm0,50.8V86.44h3v25.11Zm6.18-55V35.64h3V56.57Zm0,55.08V90.72h3v20.93Zm12.37-57v-19h3.14v19Zm0,26.54V66h3.14V81.2Zm0,30.35v-19h3.14v19Zm6.28-56.89v-19h3v19Zm0,26.54V66h3V81.2Zm0,30.35v-19h3v19Zm6.18.1V35.54l3.14,1v74.2Zm6.18-41.57V39.63l3.14,6.66V70.08Zm0,37.67V77.3h3.14v23.78Z"/><path style="fill:#2c2e44;" d="M335.22,100.23v-40l3.14-1.9v41.86Zm12.46,0V52.76l3-2v49.47Zm6.18-28.35V49.05l3-2.38V69.5Zm0,28.35V85h3v15.22ZM360,68V45.15l3.14-2.38V65.6Zm0,32.25V85h3.14v15.22Zm12.46-39.48V37.92l3-2.38V58.37Zm0,50.89V81.2h3v30.44Zm6.18-53.08V35.73h3.14V58.56Zm0,53.08V81.2h3.14v30.44Zm6.18-53.08V35.73H388V58.56Zm0,53.08V81.2H388v30.44Z"/><path style="fill:#2c2e44;" d="M406.66,79.3V35.54h3.14V79.3Zm0,32.44V94.62h3.14v17.12Zm6.18-32.44V35.54H416V79.3Zm0,32.44V94.62H416v17.12Zm6.28-58.88V35.73h3V52.86Zm0,26.44V64.08h3V79.3Zm0,32.44V94.62h3v17.12Zm6.18-58.88V35.73h3V52.86Zm0,26.44V64.08h3V79.3Zm0,32.44V94.62h3v17.12Zm12.37-58.88V35.73h3.14V52.86Zm0,26.44V64.08h3.14V79.3Zm0,32.44V94.62h3.14v17.12Zm12.46-58.88V35.73h3.14V52.86Zm0,58.79V64.08l3.14,1.9v43.76Zm6.18-58.79V35.73h3.14V52.86Zm0,55.55V69.22l3.14,6.66v25.87Z"/></g></g></svg>