<svg xmlns="http://www.w3.org/2000/svg" viewBox="0 0 285.03 33.83"><title>leadtools</title><g id="Layer_2" data-name="Layer 2"><g id="ICONS"><path style="fill:#35c3e3;fill-rule:evenodd;" d="M160.92,19.47q-.91,4.28.55,6.42c1,1.44,2.75,2.15,5.31,2.15A9.23,9.23,0,0,0,173.09,26a11.19,11.19,0,0,0,3.31-6.27q1-4.51-.55-6.88c-1-1.57-2.79-2.37-5.38-2.37a8.61,8.61,0,0,0-6.12,2.37,12.47,12.47,0,0,0-3.43,6.67Zm4.18,14.36c-5.54,0-9.49-1.36-11.84-3.84s-3-6.11-2-10.87a16.64,16.64,0,0,1,6.85-10.66C161.69,6,166.33,4.75,172,4.75S181.67,6,184.08,8.53s3.11,6.15,2.09,10.93a16.47,16.47,0,0,1-6.84,10.65c-3.56,2.42-8.3,3.73-14.23,3.72Zm31.72-14.31q-.91,4.26.55,6.41c1,1.44,2.75,2.15,5.31,2.16A9.28,9.28,0,0,0,209,26a11.16,11.16,0,0,0,3.31-6.27q1-4.51-.55-6.88c-1-1.57-2.79-2.37-5.38-2.37a8.59,8.59,0,0,0-6.12,2.37,12.5,12.5,0,0,0-3.43,6.68ZM201,33.83c-5.54,0-9.49-1.32-11.84-3.8s-3-6.11-2-10.87A16.64,16.64,0,0,1,194,8.5q5.37-3.72,13.89-3.71T220,8.57q3.63,3.77,2.09,10.94a16.48,16.48,0,0,1-6.84,10.65c-3.56,2.41-8.3,3.68-14.23,3.67Zm45.24-6.6-1.31,6.6H220.74l6-28.52h9.57l-4.69,21.89,14.62,0Zm10.12-3.13s0,0,0,.08a7,7,0,0,0-.25.78,2.12,2.12,0,0,0,.87,2.43,8,8,0,0,0,4.16.8,8.77,8.77,0,0,0,3.63-.65,2.62,2.62,0,0,0,1.64-1.79c.25-1.16-1.22-2.09-4.38-2.82l-.84-.19-.89-.21c-5-1.16-8.18-2.41-9.39-3.77a4.89,4.89,0,0,1-1.16-2.34,7.46,7.46,0,0,1,.09-3,9.09,9.09,0,0,1,5-6.31Q258.94,4.92,266,4.93c4.63,0,7.91.68,9.84,2s2.61,3.45,2,6.25l-.07.33H269l0-.13a1.89,1.89,0,0,0-.86-2.19,7.1,7.1,0,0,0-3.73-.76,7.85,7.85,0,0,0-3.19.53,2.19,2.19,0,0,0-1.41,1.51c-.25,1.17,1.45,2.16,5.1,3l1.65.36a42.41,42.41,0,0,1,5.48,1.57A10.47,10.47,0,0,1,274.7,19a5.2,5.2,0,0,1,1.61,2.58,7.16,7.16,0,0,1,0,3.42A9.48,9.48,0,0,1,271,31.54q-4.47,2.3-11.93,2.29t-10.2-2.22q-2.82-2.22-1.77-7.1l.09-.42Z"/><path style="fill:#35c3e3;" d="M279.37,1.7h2.37A1.2,1.2,0,0,1,283,2.91,1.08,1.08,0,0,1,282.33,4h0c.47.12.61.58.64,1a2.48,2.48,0,0,0,.18,1h-1A4.82,4.82,0,0,1,282,5c-.06-.46-.24-.66-.73-.66h-1V6.1h-1Zm1,2h1.06c.43,0,.67-.19.67-.63s-.24-.61-.67-.61h-1.06Z"/><path style="fill:#35c3e3;" d="M281.13,7.8A3.9,3.9,0,1,1,285,3.9,3.91,3.91,0,0,1,281.13,7.8Zm0-7.29a3.39,3.39,0,1,0,3.39,3.39A3.38,3.38,0,0,0,281.13.51Z"/><polygon style="fill:#35c3e3;fill-rule:evenodd;" points="129.54 33.83 134.27 11.23 123.74 11.22 125.08 5.01 155.77 5.01 154.44 11.25 143.92 11.24 139.19 33.83 129.54 33.83 129.54 33.83"/><path style="fill:#144d9b;fill-rule:evenodd;" d="M24.85,27l-1.31,6.85H0L6,5.06h9.58L10.88,27m14.05,6.87,6-28.75,25,0-1.3,6L39,11.13l-1,4.46,14.42,0-1.28,6H36.79L35.62,27l15.53,0-1.31,6.82ZM76,22,73.72,11.8,66.8,22ZM59.35,33.83H50L70.47,5.13h9.1l7.85,28.69H78.27l-1-5.74-14.55,0-3.34,5.76Zm47.33-22.51h-4.6L98.71,27.06h4.6q4.88,0,7.47-1.83a9.23,9.23,0,0,0,3.47-5.92c.58-2.68.23-4.67-1-6s-3.44-2-6.55-2ZM87.86,33.83l6-28.67h16q8.32,0,11.93,3.67T124,19.47a16.17,16.17,0,0,1-6.34,10.22,21.65,21.65,0,0,1-12.83,4.14Z"/></g></g></svg>