<?xml version="1.0" encoding="utf-8"?>
<svg xmlns="http://www.w3.org/2000/svg" viewBox="0 0 285.03 63.79">
  <title>leadtools</title>
  <g id="Layer_2" data-name="Layer 2">
    <g id="icons">
      <path style="fill:#505b66;" d="M7.36.25H2.17A1.24,1.24,0,0,0,.93,1.49V16.27a1.24,1.24,0,0,0,1.24,1.24h.46a1.24,1.24,0,0,0,1.24-1.24V11.7h3.4c4.32,0,7-2.2,7-5.78S11.63.25,7.36.25ZM7.28,8.8H3.88V3.16H7.32c1.5,0,4,.36,4,2.83S9.13,8.8,7.28,8.8ZM26.14,0a8.53,8.53,0,0,0-8.58,8.86v0a8.59,8.59,0,1,0,17.17,0A8.53,8.53,0,0,0,26.14,0Zm5.64,8.92a5.67,5.67,0,0,1-5.62,5.93,5.79,5.79,0,0,1-5.66-6A5.67,5.67,0,0,1,26.12,2.9a5.78,5.78,0,0,1,5.66,6ZM58,.25h-.46a1.24,1.24,0,0,0-1.18.85L52.9,11.62,49.54,1.08A1.24,1.24,0,0,0,48.36.21H48a1.24,1.24,0,0,0-1.18.87L43.49,11.59,40,1.11A1.24,1.24,0,0,0,38.86.25h-.49A1.24,1.24,0,0,0,37.2,1.88l4.92,14.88a1.24,1.24,0,0,0,1.18.85h.4a1.24,1.24,0,0,0,1.18-.87L48.17,6.4l3.31,10.35a1.24,1.24,0,0,0,1.18.86h.4a1.24,1.24,0,0,0,1.18-.85L59.16,1.88A1.24,1.24,0,0,0,58,.25ZM74.69,14.6H66V10.29h7.71A1.24,1.24,0,0,0,74.92,9V8.63a1.24,1.24,0,0,0-1.24-1.24H66V3.16h8.61a1.24,1.24,0,0,0,1.24-1.24V1.49A1.24,1.24,0,0,0,74.59.25H64.27A1.24,1.24,0,0,0,63,1.49V16.27a1.24,1.24,0,0,0,1.24,1.24H74.69a1.24,1.24,0,0,0,1.24-1.24v-.42A1.24,1.24,0,0,0,74.69,14.6Zm15.4-3.94a5.14,5.14,0,0,0,3.86-5A5,5,0,0,0,92.54,2,7,7,0,0,0,87.42.25h-6a1.24,1.24,0,0,0-1.24,1.24V16.27a1.24,1.24,0,0,0,1.24,1.24h.46a1.24,1.24,0,0,0,1.24-1.24v-5.2h3.63L91.24,17a1.24,1.24,0,0,0,1,.49h.57a1.24,1.24,0,0,0,1-2Zm-7-2.5v-5h4.29c1.36,0,3.63.32,3.63,2.54s-2.67,2.47-3.82,2.47Zm27.16,6.44h-8.72V10.29h7.71A1.24,1.24,0,0,0,110.47,9V8.63a1.24,1.24,0,0,0-1.24-1.24h-7.71V3.16h8.61a1.24,1.24,0,0,0,1.24-1.24V1.49A1.24,1.24,0,0,0,110.14.25H99.82a1.24,1.24,0,0,0-1.24,1.24V16.27a1.24,1.24,0,0,0,1.24,1.24h10.42a1.24,1.24,0,0,0,1.24-1.24v-.42A1.24,1.24,0,0,0,110.25,14.6ZM121.68.25h-4.75a1.24,1.24,0,0,0-1.24,1.24V16.27a1.24,1.24,0,0,0,1.24,1.24h4.75c5.18,0,9.09-3.7,9.09-8.65S126.86.25,121.68.25Zm0,14.35h-3.06V3.16h3c3.57,0,6.17,2.41,6.17,5.76S125.25,14.6,121.7,14.6Zm34.66-6.07a4.76,4.76,0,0,0,1.27-3.33,4.59,4.59,0,0,0-1.31-3.33A6.56,6.56,0,0,0,151.56.25H145.5a1.24,1.24,0,0,0-1.24,1.24V16.27a1.24,1.24,0,0,0,1.24,1.24h6.39c4.81,0,6.52-2.61,6.52-5.1A4.71,4.71,0,0,0,156.36,8.54Zm-9.15-5.38h4.33c.95,0,3.15.2,3.15,2.07v0c0,1.87-2,2.07-2.79,2.07h-4.69ZM151.9,14.6h-4.69V10.25h5c1.48,0,3.21.57,3.21,2.22C155.47,14.33,153.23,14.6,151.9,14.6ZM175.64.93a1.24,1.24,0,0,0-1.11-.68H174a1.24,1.24,0,0,0-1,.52l-4.89,6.79L163.15.76a1.24,1.24,0,0,0-1-.51h-.55a1.24,1.24,0,0,0-1,2l6,8.26v5.78a1.24,1.24,0,0,0,1.24,1.24h.46a1.24,1.24,0,0,0,1.24-1.24V10.49l6-8.26A1.24,1.24,0,0,0,175.64.93Z" />
      <path style="fill:#35c3e3;fill-rule:evenodd;" d="M160.92,49.44q-.92,4.27.55,6.42c1,1.43,2.75,2.15,5.31,2.15a9.24,9.24,0,0,0,6.31-2.1,11.11,11.11,0,0,0,3.31-6.26q1-4.51-.54-6.88c-1-1.58-2.79-2.37-5.38-2.37a8.58,8.58,0,0,0-6.12,2.37,12.52,12.52,0,0,0-3.43,6.68Zm4.18,14.35c-5.54,0-9.49-1.36-11.84-3.84s-3-6.1-2-10.87a16.67,16.67,0,0,1,6.86-10.66q5.36-3.72,13.89-3.7t12.07,3.77q3.62,3.77,2.08,10.94a16.44,16.44,0,0,1-6.84,10.65c-3.56,2.41-8.3,3.72-14.23,3.71Zm31.72-14.31q-.92,4.27.55,6.42t5.31,2.15A9.24,9.24,0,0,0,209,56a11.1,11.1,0,0,0,3.31-6.26q1-4.51-.54-6.88c-1-1.58-2.79-2.37-5.38-2.37a8.58,8.58,0,0,0-6.12,2.37,12.51,12.51,0,0,0-3.44,6.68ZM201,63.79c-5.54,0-9.49-1.31-11.84-3.8s-3-6.1-2-10.87A16.67,16.67,0,0,1,194,38.46q5.36-3.72,13.89-3.7T220,38.53q3.62,3.77,2.08,10.94a16.43,16.43,0,0,1-6.84,10.65c-3.56,2.41-8.3,3.68-14.23,3.67Zm45.24-6.6-1.31,6.6H220.74l6-28.52h9.58l-4.69,21.89,14.62,0Zm10.12-3.13,0,.08a6.32,6.32,0,0,0-.24.78,2.11,2.11,0,0,0,.87,2.43,8,8,0,0,0,4.15.8,8.66,8.66,0,0,0,3.63-.65,2.64,2.64,0,0,0,1.65-1.79q.37-1.73-4.39-2.82l-.83-.19-.89-.21q-7.57-1.74-9.39-3.77a4.92,4.92,0,0,1-1.16-2.34,7.52,7.52,0,0,1,.09-3,9.08,9.08,0,0,1,5-6.3q4.11-2.16,11.13-2.15t9.84,2q2.91,2,2,6.25l-.07.32H269l0-.13a1.9,1.9,0,0,0-.86-2.19,7.16,7.16,0,0,0-3.73-.76,7.91,7.91,0,0,0-3.19.53,2.2,2.2,0,0,0-1.41,1.52q-.38,1.75,5.1,3l1.65.36A41.15,41.15,0,0,1,272,47.39a10.15,10.15,0,0,1,2.65,1.55,5.13,5.13,0,0,1,1.61,2.58,7.18,7.18,0,0,1,0,3.42A9.48,9.48,0,0,1,271,61.51q-4.47,2.3-11.93,2.29t-10.2-2.22q-2.82-2.22-1.77-7.1l.09-.41Z" />
      <path style="fill:#35c3e3;" d="M279.37,31.66h2.37A1.21,1.21,0,0,1,283,32.88a1.08,1.08,0,0,1-.7,1.1h0c.47.12.61.58.64,1a2.41,2.41,0,0,0,.18,1h-1A4.89,4.89,0,0,1,282,35c-.07-.46-.25-.67-.73-.67h-1v1.72h-1Zm1,2h1.06c.43,0,.67-.18.67-.63s-.23-.61-.67-.61h-1.06Z" />
      <path style="fill:#35c3e3;" d="M281.13,37.76a3.9,3.9,0,1,1,3.9-3.9A3.9,3.9,0,0,1,281.13,37.76Zm0-7.28a3.39,3.39,0,1,0,3.38,3.39A3.39,3.39,0,0,0,281.13,30.48Z" />
      <polygon style="fill:#35c3e3;fill-rule:evenodd;" points="129.54 63.79 134.27 41.2 123.74 41.18 125.08 34.97 155.77 34.97 154.44 41.22 143.92 41.21 139.19 63.79 129.54 63.79 129.54 63.79" />
      <path style="fill:#144d9b;fill-rule:evenodd;" d="M24.85,56.94l-1.31,6.85H0L6,35h9.57L10.88,56.92m14,6.87,6-28.75,25,0-1.29,6L39,41.1l-1,4.46,14.42,0-1.28,6-14.42,0L35.62,57l15.53,0-1.31,6.82ZM76,51.94,73.72,41.76,66.8,51.93ZM59.35,63.79h-9.4l20.52-28.7h9.11l7.84,28.69H78.27l-1-5.74L62.69,58l-3.35,5.75Zm47.33-22.51h-4.6L98.71,57h4.6q4.88,0,7.47-1.83a9.26,9.26,0,0,0,3.47-5.92q.86-4-1-6t-6.55-2ZM87.86,63.79l6-28.67,16,0q8.33,0,11.94,3.67t2.11,10.63a16.18,16.18,0,0,1-6.33,10.22,21.68,21.68,0,0,1-12.83,4.14Z" />
    </g>
  </g>
</svg>