<svg xmlns="http://www.w3.org/2000/svg" viewBox="0 0 508.92 147.29"><title>micr</title><g id="Layer_2" data-name="Layer 2"><g id="icons"><path style="fill:#fff;" d="M508.92,137.31a10,10,0,0,1-10,10H10a10,10,0,0,1-10-10V10A10,10,0,0,1,10,0h489a10,10,0,0,1,10,10Z"/><path style="fill:#2c2e44;" d="M50.42,41V74.28a4,4,0,0,0,.12.94,4.44,4.44,0,0,0,.35.94,5.72,5.72,0,0,0,.48.85,5,5,0,0,0,.6.73,4.2,4.2,0,0,0,.73.58,6.77,6.77,0,0,0,.85.46q.42.15.85.27a3,3,0,0,0,.77.12h8.71l.66,0a2.16,2.16,0,0,1,.62.14,3.44,3.44,0,0,1,1.27,1.16l.29.39a2,2,0,0,1,.21.39,2.69,2.69,0,0,1,.15.92v25.11a2.88,2.88,0,0,1-.06.56,1.43,1.43,0,0,1-.21.52,3,3,0,0,1-.62.89,3.85,3.85,0,0,1-1,.73,2.5,2.5,0,0,1-1,.27H38.83a1.65,1.65,0,0,1-.39-.06A2.3,2.3,0,0,1,38,110l-.46-.27a1.67,1.67,0,0,1-.46-.38,1.44,1.44,0,0,1-.35-.42l-.31-.54a2.84,2.84,0,0,1-.19-.5,1.71,1.71,0,0,1-.08-.46V82.1a2,2,0,0,1,.08-.52,2.7,2.7,0,0,1,.19-.52,3,3,0,0,1,.29-.52,3,3,0,0,1,.33-.4,2.13,2.13,0,0,1,.42-.39,2.92,2.92,0,0,1,.54-.31,2.51,2.51,0,0,1,1-.27H40.4a1.17,1.17,0,0,0,.37-.1l.52-.21a4.93,4.93,0,0,0,.52-.31,3.16,3.16,0,0,0,.48-.39l.35-.42a2.43,2.43,0,0,0,.31-.46,1.86,1.86,0,0,0,.23-.81V51.21a1.78,1.78,0,0,0-.08-.52,1.86,1.86,0,0,0-.23-.48,3.06,3.06,0,0,0-.29-.46,2.17,2.17,0,0,0-.37-.39,2.86,2.86,0,0,0-.46-.37,3.73,3.73,0,0,0-.54-.29l-.5-.19a1.23,1.23,0,0,0-.35-.08H39a1.7,1.7,0,0,1-.46-.08,4.34,4.34,0,0,1-.54-.19,5.37,5.37,0,0,1-.5-.29,2.55,2.55,0,0,1-.83-.83,5.48,5.48,0,0,1-.29-.5,4.38,4.38,0,0,1-.19-.54,1.81,1.81,0,0,1-.08-.5V41a2.61,2.61,0,0,1,.08-.67,2.68,2.68,0,0,1,.19-.52,2.4,2.4,0,0,1,.31-.46q.19-.23.38-.42a4,4,0,0,1,.81-.62,2.78,2.78,0,0,1,.52-.19,2.3,2.3,0,0,1,.6-.08h8.44a2,2,0,0,1,.52.08,2.75,2.75,0,0,1,.52.19,5.44,5.44,0,0,1,.54.27,2.19,2.19,0,0,1,.46.35,2.69,2.69,0,0,1,.39.48c.1.17.19.33.27.48A2.33,2.33,0,0,1,50.42,41Z"/><path style="fill:#2c2e44;" d="M110.12,37a2.26,2.26,0,0,1,1,.27,5.37,5.37,0,0,1,.5.29,3,3,0,0,1,.5.4,3.84,3.84,0,0,1,.38.46l.35.5a2.37,2.37,0,0,1,.23.56,2.2,2.2,0,0,1,.08.56V81.44a4.6,4.6,0,0,0,.1.91,5,5,0,0,0,.29.94A5.13,5.13,0,0,0,114.71,85a3.7,3.7,0,0,0,.71.62,3.84,3.84,0,0,0,.83.42,4,4,0,0,0,1.66.39h9a3.75,3.75,0,0,0,.79-.1l.87-.21a5,5,0,0,0,.85-.4,4.88,4.88,0,0,0,.73-.52,4.18,4.18,0,0,0,.6-.75,5.29,5.29,0,0,0,.4-.79,4.58,4.58,0,0,0,.35-1.66V80.75a2.34,2.34,0,0,1,.06-.52,2.19,2.19,0,0,1,.17-.48,1.66,1.66,0,0,1,.25-.46,2.09,2.09,0,0,1,.37-.39,1.06,1.06,0,0,1,.42-.31l.5-.19a4.35,4.35,0,0,1,.52-.12,3,3,0,0,1,.44,0h9.05a1.92,1.92,0,0,1,.85.23,4,4,0,0,1,.92.69,2.83,2.83,0,0,1,.42.44,1.68,1.68,0,0,1,.27.48,2,2,0,0,1,.31,1l0,12.6v12.56a2.55,2.55,0,0,1-.23,1,3.65,3.65,0,0,1-.62.92,3.08,3.08,0,0,1-.46.44c-.18.14-.35.26-.5.37a2.32,2.32,0,0,1-.56.23,2.15,2.15,0,0,1-.56.08h-8.47a3.13,3.13,0,0,1-1.7-.58q-.27-.19-.5-.39a3.49,3.49,0,0,1-.69-1,2.15,2.15,0,0,1-.27-.92V97.7a2.67,2.67,0,0,0-.13-.81c-.09-.28-.19-.56-.29-.85a3.9,3.9,0,0,0-.48-.85q-.29-.38-.6-.73a8.36,8.36,0,0,0-.73-.58,3.53,3.53,0,0,0-.81-.42,4.08,4.08,0,0,0-1.62-.35l-12.56,0H101.65a2.81,2.81,0,0,1-1.12-.27,4.05,4.05,0,0,1-.6-.37,3.48,3.48,0,0,1-.56-.52,2.08,2.08,0,0,1-.29-.37l-.25-.4a3.71,3.71,0,0,1-.31-1V40.89a4.09,4.09,0,0,1,.08-.81c.05-.26.1-.5.15-.73a2.91,2.91,0,0,1,.69-1.16q.27-.23.58-.46a2.87,2.87,0,0,1,.58-.35,3.92,3.92,0,0,1,.52-.25,1.21,1.21,0,0,1,.4-.1h8.59Z"/><path style="fill:#2c2e44;" d="M221.63,37.07a3.87,3.87,0,0,1,1.12.17,2.36,2.36,0,0,1,1,.6,2.82,2.82,0,0,1,.75,1,3.56,3.56,0,0,1,.29,1.48,2.86,2.86,0,0,1-.31,1.52,3.46,3.46,0,0,1-.81,1,3.54,3.54,0,0,1-1,.6,2.7,2.7,0,0,1-.91.21H209.5l-12.21,0a3.52,3.52,0,0,0-.85.12,5.22,5.22,0,0,0-.89.31,5.89,5.89,0,0,0-.83.46,4.9,4.9,0,0,0-.75.62,4.68,4.68,0,0,0-1.23,1.62,6.55,6.55,0,0,0-.33.89,3.17,3.17,0,0,0-.13.89l0,8.17v8.17a4.18,4.18,0,0,0,.35,1.58,5.33,5.33,0,0,0,1,1.54,8,8,0,0,0,.75.73,4.79,4.79,0,0,0,.83.58,4.55,4.55,0,0,0,1,.42,3.5,3.5,0,0,0,1,.15h24.61a2.34,2.34,0,0,1,1,.27,2.46,2.46,0,0,1,.54.33,5.39,5.39,0,0,1,.46.4,3.44,3.44,0,0,1,.4.48,5.3,5.3,0,0,1,.46,1,2.6,2.6,0,0,1,.06.54v33.32a2.55,2.55,0,0,1-.08.62,1.89,1.89,0,0,1-.19.5,2.53,2.53,0,0,1-.27.48l-.31.4a3.43,3.43,0,0,1-1.08.85,2.63,2.63,0,0,1-1.12.27H188.62a2.2,2.2,0,0,1-1-.29,4.88,4.88,0,0,1-1-.71,4.49,4.49,0,0,1-.71-1,2.64,2.64,0,0,1-.29-1.19q0-.73,0-1.37a2,2,0,0,1,.21-1.06,1.62,1.62,0,0,1,.9-.73,5.9,5.9,0,0,1,2.06-.27h24.61a3.64,3.64,0,0,0,.89-.12,5.14,5.14,0,0,0,.89-.31q.42-.23.85-.5a4.45,4.45,0,0,0,.77-.62,4.76,4.76,0,0,0,1.35-2.27,3.79,3.79,0,0,0,.12-.92V81.14a3,3,0,0,0-.12-.77,3.93,3.93,0,0,0-.35-.85,4.38,4.38,0,0,0-.52-.85,7.88,7.88,0,0,0-.67-.77,8.27,8.27,0,0,0-.73-.58,6.33,6.33,0,0,0-.77-.46,3.84,3.84,0,0,0-1.5-.35H188.74a1.66,1.66,0,0,1-.52-.1l-.56-.21a4.19,4.19,0,0,1-1.08-.73,3.61,3.61,0,0,1-.39-.46,3.8,3.8,0,0,1-.31-.5,2.57,2.57,0,0,1-.27-1.08V40.11a2.73,2.73,0,0,1,.13-.54c.06-.18.13-.36.21-.54a3.37,3.37,0,0,1,.69-1,3,3,0,0,1,.4-.33l.48-.33a5,5,0,0,1,1.19-.39h16.45Z"/><path style="fill:#2c2e44;" d="M267.47,37h25.11a2.43,2.43,0,0,1,.5.06,3,3,0,0,1,.54.17,3.56,3.56,0,0,1,1,.66,3.34,3.34,0,0,1,.42.42,2.44,2.44,0,0,1,.31.46,2.1,2.1,0,0,1,.27,1l0,14.87V69.54a4.31,4.31,0,0,0,.08.77,5.44,5.44,0,0,0,1,2.27,4.57,4.57,0,0,0,.54.6,2.61,2.61,0,0,0,.62.44,5,5,0,0,0,.71.33,2.25,2.25,0,0,0,.79.13h1.16l1.16,0a1.11,1.11,0,0,1,.37.08,1.43,1.43,0,0,1,.37.19A2.16,2.16,0,0,1,303,75a2.67,2.67,0,0,1,.42.85q.08.23.13.46a1.78,1.78,0,0,1,.06.42v29.5a1.92,1.92,0,0,1-.06.46q-.06.23-.13.46a4.36,4.36,0,0,1-.5.85,3.78,3.78,0,0,1-.58.54,4.06,4.06,0,0,1-.62.39,3,3,0,0,1-.58.29,1.43,1.43,0,0,1-.46.1h-33a2.58,2.58,0,0,1-.92-.19,3.42,3.42,0,0,1-1-.58,3.85,3.85,0,0,1-.77-1,3.13,3.13,0,0,1-.35-1.52,3.52,3.52,0,0,1,.35-1.66,2.75,2.75,0,0,1,.85-1,2.81,2.81,0,0,1,1-.48,3.27,3.27,0,0,1,.81-.14H276l8.44,0a2.71,2.71,0,0,0,.58-.12,7.23,7.23,0,0,0,.89-.31,6.34,6.34,0,0,0,1-.48,2.68,2.68,0,0,0,.75-.64,3.22,3.22,0,0,0,.6-.71,7.55,7.55,0,0,0,.44-.83,3.59,3.59,0,0,0,.29-.81A3.69,3.69,0,0,0,289,98V81.44a3.79,3.79,0,0,0-.12-.92,5.22,5.22,0,0,0-.31-.89A4.86,4.86,0,0,0,287.54,78a4.34,4.34,0,0,0-1.46-1.08,4.08,4.08,0,0,0-1.85-.42H267.66a2.61,2.61,0,0,1-1.46-.4,3.22,3.22,0,0,1-1-.94,4,4,0,0,1-.5-1.1,3.58,3.58,0,0,1-.15-.91,3.69,3.69,0,0,1,.31-1.27,3.79,3.79,0,0,1,.66-1,3.58,3.58,0,0,1,1-.69,2.59,2.59,0,0,1,1.14-.27h16.52a4.11,4.11,0,0,0,1-.12,5.1,5.1,0,0,0,.89-.31,4.66,4.66,0,0,0,1.54-1,4.17,4.17,0,0,0,.62-.79,5.91,5.91,0,0,0,.71-1.85,5.67,5.67,0,0,0,.1-1l0-8,.08-8a4.89,4.89,0,0,0-.1-1,5.1,5.1,0,0,0-.25-.85,3.91,3.91,0,0,0-.4-.75,7.38,7.38,0,0,0-.56-.71,5.54,5.54,0,0,0-.92-.81,8,8,0,0,0-1-.58,6.05,6.05,0,0,0-1-.29,4.48,4.48,0,0,0-.87-.1H267.54a2.58,2.58,0,0,1-.92-.19,2.93,2.93,0,0,1-.92-.58,3,3,0,0,1-.77-1,3.91,3.91,0,0,1,0-3,3,3,0,0,1,.77-1,2.43,2.43,0,0,1,.92-.6A2.67,2.67,0,0,1,267.47,37Z"/><path style="fill:#2c2e44;" d="M346.78,37a2.26,2.26,0,0,1,1,.27,5.37,5.37,0,0,1,.5.29,3,3,0,0,1,.5.4,3.84,3.84,0,0,1,.38.46l.35.5a2.37,2.37,0,0,1,.23.56,2.2,2.2,0,0,1,.08.56V81.44a4.6,4.6,0,0,0,.1.91,5,5,0,0,0,.29.94A5.13,5.13,0,0,0,351.36,85a3.7,3.7,0,0,0,.71.62,3.84,3.84,0,0,0,.83.42,4,4,0,0,0,1.66.39h9a3.75,3.75,0,0,0,.79-.1l.87-.21a5,5,0,0,0,.85-.4,4.88,4.88,0,0,0,.73-.52,4.18,4.18,0,0,0,.6-.75,5.29,5.29,0,0,0,.4-.79,4.58,4.58,0,0,0,.35-1.66V80.75a2.34,2.34,0,0,1,.06-.52,2.19,2.19,0,0,1,.17-.48,1.66,1.66,0,0,1,.25-.46,2.09,2.09,0,0,1,.37-.39,1.06,1.06,0,0,1,.42-.31l.5-.19a4.35,4.35,0,0,1,.52-.12,3,3,0,0,1,.44,0h9.05a1.92,1.92,0,0,1,.85.23,4,4,0,0,1,.92.69,2.83,2.83,0,0,1,.42.44,1.68,1.68,0,0,1,.27.48,2,2,0,0,1,.31,1l0,12.6v12.56a2.55,2.55,0,0,1-.23,1,3.65,3.65,0,0,1-.62.92,3.08,3.08,0,0,1-.46.44c-.18.14-.35.26-.5.37a2.32,2.32,0,0,1-.56.23,2.15,2.15,0,0,1-.56.08h-8.47a3.13,3.13,0,0,1-1.7-.58q-.27-.19-.5-.39a3.49,3.49,0,0,1-.69-1,2.15,2.15,0,0,1-.27-.92V97.7a2.67,2.67,0,0,0-.13-.81c-.09-.28-.19-.56-.29-.85a3.9,3.9,0,0,0-.48-.85q-.29-.38-.6-.73a8.36,8.36,0,0,0-.73-.58,3.53,3.53,0,0,0-.81-.42,4.08,4.08,0,0,0-1.62-.35l-12.56,0H338.3a2.81,2.81,0,0,1-1.12-.27,4.05,4.05,0,0,1-.6-.37,3.48,3.48,0,0,1-.56-.52,2.08,2.08,0,0,1-.29-.37l-.25-.4a3.71,3.71,0,0,1-.31-1V40.89a4.09,4.09,0,0,1,.08-.81c.05-.26.1-.5.15-.73a2.91,2.91,0,0,1,.69-1.16q.27-.23.58-.46a2.87,2.87,0,0,1,.58-.35,3.92,3.92,0,0,1,.52-.25,1.21,1.21,0,0,1,.4-.1h8.59Z"/><path style="fill:#2c2e44;" d="M458.29,37.07a3.87,3.87,0,0,1,1.12.17,2.36,2.36,0,0,1,1,.6,2.82,2.82,0,0,1,.75,1,3.56,3.56,0,0,1,.29,1.48,2.86,2.86,0,0,1-.31,1.52,3.46,3.46,0,0,1-.81,1,3.54,3.54,0,0,1-1,.6,2.7,2.7,0,0,1-.91.21H446.15l-12.21,0a3.52,3.52,0,0,0-.85.12,5.22,5.22,0,0,0-.89.31,5.89,5.89,0,0,0-.83.46,4.9,4.9,0,0,0-.75.62,4.68,4.68,0,0,0-1.23,1.62,6.55,6.55,0,0,0-.33.89,3.17,3.17,0,0,0-.13.89l0,8.17v8.17a4.18,4.18,0,0,0,.35,1.58,5.33,5.33,0,0,0,1,1.54,8,8,0,0,0,.75.73,4.79,4.79,0,0,0,.83.58,4.55,4.55,0,0,0,1,.42,3.5,3.5,0,0,0,1,.15h24.61a2.34,2.34,0,0,1,1,.27,2.46,2.46,0,0,1,.54.33,5.39,5.39,0,0,1,.46.4,3.44,3.44,0,0,1,.4.48,5.3,5.3,0,0,1,.46,1,2.6,2.6,0,0,1,.06.54v33.32a2.55,2.55,0,0,1-.08.62,1.89,1.89,0,0,1-.19.5,2.53,2.53,0,0,1-.27.48l-.31.4a3.43,3.43,0,0,1-1.08.85,2.63,2.63,0,0,1-1.12.27H425.28a2.2,2.2,0,0,1-1-.29,4.88,4.88,0,0,1-1-.71,4.49,4.49,0,0,1-.71-1,2.64,2.64,0,0,1-.29-1.19q0-.73,0-1.37a2,2,0,0,1,.21-1.06,1.62,1.62,0,0,1,.9-.73,5.9,5.9,0,0,1,2.06-.27H450a3.64,3.64,0,0,0,.89-.12,5.14,5.14,0,0,0,.89-.31q.42-.23.85-.5a4.45,4.45,0,0,0,.77-.62,4.76,4.76,0,0,0,1.35-2.27,3.79,3.79,0,0,0,.12-.92V81.14a3,3,0,0,0-.12-.77,3.93,3.93,0,0,0-.35-.85,4.38,4.38,0,0,0-.52-.85,7.88,7.88,0,0,0-.67-.77,8.27,8.27,0,0,0-.73-.58,6.33,6.33,0,0,0-.77-.46,3.84,3.84,0,0,0-1.5-.35H425.39a1.66,1.66,0,0,1-.52-.1l-.56-.21a4.19,4.19,0,0,1-1.08-.73,3.61,3.61,0,0,1-.39-.46,3.8,3.8,0,0,1-.31-.5,2.57,2.57,0,0,1-.27-1.08V40.11a2.73,2.73,0,0,1,.13-.54c.06-.18.13-.36.21-.54a3.37,3.37,0,0,1,.69-1,3,3,0,0,1,.4-.33l.48-.33a5,5,0,0,1,1.19-.39h16.45Z"/></g></g></svg>