<svg xmlns="http://www.w3.org/2000/svg" viewBox="0 0 101.4 101.39"><title>apply-encrypt</title><g id="Layer_2" data-name="Layer 2"><g id="icons"><path style="fill:none;stroke:#8d9cb7;stroke-linecap:round;stroke-linejoin:round;stroke-width:6.57px;" d="M73,48.56H41.09a6.83,6.83,0,0,0-6.84,6.83V78.16A6.83,6.83,0,0,0,41.09,85H73a6.83,6.83,0,0,0,6.84-6.83V55.39A6.83,6.83,0,0,0,73,48.56Z"/><path style="fill:#8d9cb7;" d="M73,51.27A3.29,3.29,0,0,1,69.69,48v-.87c0-9.1-4.85-14.75-12.65-14.75S44.38,38,44.38,47.11V48a3.29,3.29,0,1,1-6.57,0v-.87c0-12.75,7.73-21.32,19.23-21.32s19.22,8.57,19.22,21.32V48A3.29,3.29,0,0,1,73,51.27Z"/><circle style="fill:#8d9cb7;" cx="57.03" cy="63.48" r="5.5"/><path style="fill:#8d9cb7;" d="M57,77a3.29,3.29,0,0,1-3.29-3.29V63.48a3.29,3.29,0,0,1,6.57,0V73.66A3.29,3.29,0,0,1,57,77Z"/><path style="fill:#8d9cb7;" d="M91.54,101.39h-69a9.87,9.87,0,0,1-9.86-9.86v-69a9.87,9.87,0,0,1,9.86-9.86h69a9.87,9.87,0,0,1,9.86,9.86v69A9.87,9.87,0,0,1,91.54,101.39Zm-69-82.15a3.29,3.29,0,0,0-3.28,3.28v69a3.29,3.29,0,0,0,3.29,3.29h69a3.29,3.29,0,0,0,3.29-3.29v-69a3.29,3.29,0,0,0-3.29-3.29Z"/><path style="fill:#8d9cb7;" d="M16,86.14H9.57A9.58,9.58,0,0,1,0,76.56v-67A9.58,9.58,0,0,1,9.57,0h67a9.58,9.58,0,0,1,9.57,9.57V16a3.19,3.19,0,1,1-6.38,0V9.57a3.19,3.19,0,0,0-3.19-3.19h-67A3.19,3.19,0,0,0,6.38,9.57v67a3.19,3.19,0,0,0,3.19,3.19H16a3.19,3.19,0,0,1,0,6.38Z"/></g></g></svg>