<svg xmlns="http://www.w3.org/2000/svg" viewBox="0 0 102.51 102.51"><title>apply-decrypt</title><g id="Layer_2" data-name="Layer 2"><g id="icons"><path style="fill:#5280df;" d="M91.12,102.51H11.39A11.4,11.4,0,0,1,0,91.12V11.39A11.4,11.4,0,0,1,11.39,0H91.12a11.4,11.4,0,0,1,11.39,11.39V91.12A11.4,11.4,0,0,1,91.12,102.51ZM11.39,7.59a3.8,3.8,0,0,0-3.79,3.79V91.12a3.8,3.8,0,0,0,3.8,3.8H91.12a3.8,3.8,0,0,0,3.8-3.8V11.39a3.8,3.8,0,0,0-3.8-3.8Z"/><path style="fill:#5280df;" d="M64.41,59.36A22.23,22.23,0,1,1,86.64,37.13,22.25,22.25,0,0,1,64.41,59.36Zm0-36.86A14.63,14.63,0,1,0,79,37.13,14.65,14.65,0,0,0,64.41,22.5Z"/><circle style="fill:#5280df;" cx="64.41" cy="37.13" r="4.74"/><path style="fill:#5280df;" d="M64.41,45.36a8.23,8.23,0,1,1,8.23-8.23A8.24,8.24,0,0,1,64.41,45.36Zm0-9.49a1.25,1.25,0,1,0,1.25,1.25A1.25,1.25,0,0,0,64.41,35.88Z"/><path style="fill:#5280df;" d="M33.1,87.61H19.67a3.8,3.8,0,0,1-3.8-3.8V71.22A3.8,3.8,0,0,1,17,68.53L44.5,41a3.8,3.8,0,0,1,5.37,5.37L23.47,72.79V80h6.46L31,73.7a3.8,3.8,0,0,1,3-3.06L40,69.5l.93-6.23a3.8,3.8,0,0,1,2.82-3.12l7.14-1.81L57,52.26a3.8,3.8,0,1,1,5.37,5.37l-6.83,6.83a3.79,3.79,0,0,1-1.75,1l-5.7,1.44-1,6.39a3.8,3.8,0,0,1-3,3.17l-6,1.15-1.22,6.88A3.8,3.8,0,0,1,33.1,87.61Z"/></g></g></svg>