<svg xmlns="http://www.w3.org/2000/svg" viewBox="0 0 102.57 102.46"><title>burn-ann</title><g id="Layer_2" data-name="Layer 2"><g id="icons"><path style="fill:#5280df;" d="M102.55,96.88c-.76-8.68-5.21-15.51-8.79-21-2.82-4.33-5.26-8.06-5.17-11.31a34.1,34.1,0,0,1,1.87-8.29c2.75-9,6.91-22.59-13.74-30.14a4.68,4.68,0,0,0-4.53.71,4.2,4.2,0,0,0-1.53,3.87c.85,6.25-.22,9.85-1.4,11a2.36,2.36,0,0,1-2.23.55,4.71,4.71,0,0,1-1.7-.46c-.2-.81.41-3.36.82-5.07,1.23-5.13,2.92-12.15-.57-19.69C60.11,5.33,47.8-1,32.68.13a4.17,4.17,0,0,0-3.53,2.49A4.8,4.8,0,0,0,30,7.5c5.19,6.52,5.93,16.68,4.91,24-.81,5.78-2.51,8.67-3.21,9.17-2.57,1.84-3.74,1.3-6.87-.15-3.35-1.55-8-3.67-14.44-1.1A4.32,4.32,0,0,0,7.61,43,4.36,4.36,0,0,0,9.52,47.1c2.5,1.67,3.73,8.18,1.55,12.55a12.87,12.87,0,0,1-2.66,3C5.07,65.79,0,70.56,0,81.92a37.05,37.05,0,0,0,2.49,13.3,5.17,5.17,0,0,0,5,3.2h8.9A10.47,10.47,0,0,1,23.35,101,5.5,5.5,0,0,0,27,102.46a4.8,4.8,0,0,0,3.21-1.22,10.22,10.22,0,0,1,1.47-1.08A5.14,5.14,0,0,0,34,95a17,17,0,0,1-.22-2.43c0-7.91,3.05-12.38,6.28-17.11,2.48-3.62,5.17-7.57,6.16-12.95,3.44,3.88,4.54,7.41-.35,16.47-1.5,2.8-1.21,6.44.77,9.73A12.37,12.37,0,0,0,57,95a11.1,11.1,0,0,0,9.09-4.52,13.12,13.12,0,0,0,2-4c1.52,3.3,1.48,7.06,1.08,10.78a4.6,4.6,0,0,0,1.17,3.55,5,5,0,0,0,3.7,1.62H97.66a4.77,4.77,0,0,0,3.56-1.57A5.24,5.24,0,0,0,102.55,96.88Z"/></g></g></svg>