<svg xmlns="http://www.w3.org/2000/svg" viewBox="0 0 102.51 102.51"><title>copy-ann</title><g id="Layer_2" data-name="Layer 2"><g id="icons"><path style="fill:#8d9cb7;" d="M98.72,0H3.8A3.8,3.8,0,0,0,0,3.8V98.72a3.8,3.8,0,0,0,3.8,3.8H98.72a3.8,3.8,0,0,0,3.8-3.8V3.8A3.8,3.8,0,0,0,98.72,0Zm-3.8,94.92H7.59V7.59H94.92Zm-71.13-69H78.72a3.8,3.8,0,0,0,0-7.59H23.79a3.8,3.8,0,0,0,0,7.59Zm0,58.22H51.26a3.8,3.8,0,1,0,0-7.59H23.79a3.8,3.8,0,0,0,0,7.59Zm0-19.4H78.72a3.8,3.8,0,0,0,0-7.59H23.79a3.8,3.8,0,0,0,0,7.59Zm0-19.41H78.72a3.8,3.8,0,0,0,0-7.59H23.79a3.8,3.8,0,0,0,0,7.59Z"/></g></g></svg>