<svg xmlns="http://www.w3.org/2000/svg" viewBox="0 0 102.51 102.51"><title>encrypt-ann</title><g id="Layer_2" data-name="Layer 2"><g id="icons"><path style="fill:none;stroke:#5280df;stroke-linecap:round;stroke-linejoin:round;stroke-width:7.59px;" d="M69.67,41.46H32.84a7.89,7.89,0,0,0-7.9,7.89V75.66a7.9,7.9,0,0,0,7.9,7.89H69.67a7.9,7.9,0,0,0,7.9-7.89V49.35A7.89,7.89,0,0,0,69.67,41.46Z"/><path style="fill:none;stroke:#5280df;stroke-linecap:round;stroke-linejoin:round;stroke-width:7.59px;" d="M69.67,40.8v-1C69.67,27.14,62.45,19,51.26,19S32.84,27.14,32.84,39.79v1"/><circle style="fill:#5280df;" cx="51.26" cy="58.71" r="6.35"/><line style="fill:none;stroke:#5280df;stroke-linecap:round;stroke-linejoin:round;stroke-width:7.59px;" x1="51.26" y1="58.71" x2="51.26" y2="70.47"/><rect style="fill:none;stroke:#5280df;stroke-linecap:round;stroke-linejoin:round;stroke-width:7.59px;" x="3.8" y="3.8" width="94.92" height="94.92" rx="7.59" ry="7.59"/></g></g></svg>