<svg xmlns="http://www.w3.org/2000/svg" viewBox="0 0 102.38 102.38"><title>load-xml-ann</title><g id="Layer_2" data-name="Layer 2"><g id="icons"><path style="fill:#5280df;" d="M98.58,10.29H62.39L51.32.91,51.18.8a3.83,3.83,0,0,0-.36-.26l-.2-.1a3.75,3.75,0,0,0-.42-.2L50,.2A3.78,3.78,0,0,0,48.87,0H20.78A3.8,3.8,0,0,0,17,3.8v12H3.8A3.8,3.8,0,0,0,0,19.57v79a3.8,3.8,0,0,0,3.8,3.8H81.6a3.8,3.8,0,0,0,3.8-3.8v-9H98.58a3.8,3.8,0,0,0,3.8-3.8V14.09A3.8,3.8,0,0,0,98.58,10.29Zm-91,84.49V23.37H30.5L40,31.46l2.25,2a3.8,3.8,0,0,0,2.53,1h33V94.79Z"/></g></g></svg>