<svg xmlns="http://www.w3.org/2000/svg" viewBox="0 0 102.49 102.54"><title>lock-ann</title><g id="Layer_2" data-name="Layer 2"><g id="icons"><path style="fill:#8d9cb7;" d="M51.25,52.9a9.33,9.33,0,0,0-3.8,17.86v8.76a3.8,3.8,0,0,0,7.59,0V70.75a9.33,9.33,0,0,0-3.8-17.86ZM87.7,33.08H82.11V30.39C82.11,10.79,71.15,0,51.25,0S20.38,10.79,20.38,30.39v2.69H14.8A14.81,14.81,0,0,0,0,47.88V87.75a14.81,14.81,0,0,0,14.8,14.8H87.7a14.81,14.81,0,0,0,14.8-14.8V47.88A14.81,14.81,0,0,0,87.7,33.08ZM28,30.39c0-15.34,7.62-22.8,23.28-22.8s23.27,7.46,23.27,22.8v2.69H28ZM94.9,87.75A7.21,7.21,0,0,1,87.7,95H14.8a7.21,7.21,0,0,1-7.2-7.2V47.88a7.21,7.21,0,0,1,7.2-7.2H87.7a7.21,7.21,0,0,1,7.2,7.2Z"/></g></g></svg>