<svg xmlns="http://www.w3.org/2000/svg" viewBox="0 0 102.51 102.51"><title>two-lines</title><g id="Layer_2" data-name="Layer 2"><g id="icons"><path style="fill:#5280df;" d="M91.12,102.51H11.39A11.4,11.4,0,0,1,0,91.12V11.39A11.4,11.4,0,0,1,11.39,0H91.12a11.4,11.4,0,0,1,11.39,11.39V91.12A11.4,11.4,0,0,1,91.12,102.51ZM11.39,7.59a3.8,3.8,0,0,0-3.8,3.8V91.12a3.8,3.8,0,0,0,3.8,3.8H91.12a3.8,3.8,0,0,0,3.8-3.8V11.39a3.8,3.8,0,0,0-3.8-3.8Z"/><path style="fill:#5280df;" d="M69.49,87a3.79,3.79,0,0,1-2.68-1.11L16.61,35.7A3.8,3.8,0,0,1,22,30.33l50.2,50.2A3.8,3.8,0,0,1,69.49,87Z"/><path style="fill:#5280df;" d="M83.22,73.29a3.79,3.79,0,0,1-2.68-1.11L30.33,22a3.8,3.8,0,0,1,5.37-5.37l50.2,50.2a3.8,3.8,0,0,1-2.68,6.48Z"/></g></g></svg>