<svg xmlns="http://www.w3.org/2000/svg" viewBox="0 0 102.51 102.51"><title>midline</title><g id="Layer_2" data-name="Layer 2"><g id="icons"><path style="fill:#5280df;" d="M91.12,102.51H11.39A11.4,11.4,0,0,1,0,91.12V11.39A11.4,11.4,0,0,1,11.39,0H91.12a11.4,11.4,0,0,1,11.39,11.39V91.12A11.4,11.4,0,0,1,91.12,102.51ZM11.39,7.59a3.8,3.8,0,0,0-3.8,3.8V91.12a3.8,3.8,0,0,0,3.8,3.8H91.12a3.8,3.8,0,0,0,3.8-3.8V11.39a3.8,3.8,0,0,0-3.8-3.8Z"/><path style="fill:#5280df;" d="M51.26,81a3.8,3.8,0,0,1-3.8-3.8v-52a3.8,3.8,0,1,1,7.59,0v52A3.8,3.8,0,0,1,51.26,81Z"/></g></g></svg>