<svg xmlns="http://www.w3.org/2000/svg" viewBox="0 0 102.51 102.51"><title>cobb-angle</title><g id="Layer_2" data-name="Layer 2"><g id="icons"><path style="fill:#5280df;" d="M91.12,102.51H11.39A11.4,11.4,0,0,1,0,91.12V11.39A11.4,11.4,0,0,1,11.39,0H91.12a11.4,11.4,0,0,1,11.39,11.39V91.12A11.4,11.4,0,0,1,91.12,102.51ZM11.39,7.59a3.8,3.8,0,0,0-3.8,3.8V91.12a3.8,3.8,0,0,0,3.8,3.8H91.12a3.8,3.8,0,0,0,3.8-3.8V11.39a3.8,3.8,0,0,0-3.8-3.8Z"/><path style="fill:#5280df;" d="M77.38,85.22a3.77,3.77,0,0,1-1.89-.51L23.23,54.54a3.8,3.8,0,0,1,0-6.58L75.48,17.8a3.8,3.8,0,1,1,3.8,6.58L32.73,51.26,79.28,78.13a3.8,3.8,0,0,1-1.9,7.09Z"/><path style="fill:#5280df;" d="M53.1,69.72A3.8,3.8,0,0,1,50.7,63c3-2.43,6.58-6.44,6.58-11.72S53.7,42,50.7,39.54a3.8,3.8,0,0,1,4.78-5.9c6.05,4.91,9.39,11.17,9.39,17.61S61.54,64,55.49,68.87A3.78,3.78,0,0,1,53.1,69.72Z"/></g></g></svg>