<svg xmlns="http://www.w3.org/2000/svg" viewBox="0 0 102.51 102.51"><title>norberg</title><g id="Layer_2" data-name="Layer 2"><g id="icons"><path style="fill:#5280df;" d="M91.12,102.51H11.39A11.4,11.4,0,0,1,0,91.12V11.39A11.4,11.4,0,0,1,11.39,0H91.12a11.4,11.4,0,0,1,11.39,11.39V91.12A11.4,11.4,0,0,1,91.12,102.51ZM11.39,7.59a3.8,3.8,0,0,0-3.8,3.8V91.12a3.8,3.8,0,0,0,3.8,3.8H91.12a3.8,3.8,0,0,0,3.8-3.8V11.39a3.8,3.8,0,0,0-3.8-3.8Z"/><path style="fill:#5280df;" d="M74.92,85.69H27.59a8.81,8.81,0,0,1-8.8-8.8V20.62a3.8,3.8,0,0,1,7.59,0V76.89a1.2,1.2,0,0,0,1.2,1.2H74.92a1.2,1.2,0,0,0,1.2-1.2V20.62a3.8,3.8,0,0,1,7.59,0V76.89A8.81,8.81,0,0,1,74.92,85.69Z"/><path style="fill:#5280df;" d="M60.17,85.46a3.8,3.8,0,0,1-3.8-3.8A23.57,23.57,0,0,1,79.92,58.12a3.8,3.8,0,0,1,0,7.59,16,16,0,0,0-16,16A3.8,3.8,0,0,1,60.17,85.46Z"/><path style="fill:#5280df;" d="M42.34,85.46a3.8,3.8,0,0,1-3.8-3.8,16,16,0,0,0-16-16,3.8,3.8,0,0,1,0-7.59A23.57,23.57,0,0,1,46.14,81.66,3.8,3.8,0,0,1,42.34,85.46Z"/></g></g></svg>