<svg xmlns="http://www.w3.org/2000/svg" viewBox="0 0 102.51 102.51"><title>snap</title><g id="Layer_2" data-name="Layer 2"><g id="icons"><path style="fill:#5280df;" d="M91.12,102.51H11.39A11.4,11.4,0,0,1,0,91.12V11.39A11.4,11.4,0,0,1,11.39,0H91.12a11.4,11.4,0,0,1,11.39,11.39V91.12A11.4,11.4,0,0,1,91.12,102.51ZM11.39,7.59a3.8,3.8,0,0,0-3.8,3.8V91.12a3.8,3.8,0,0,0,3.8,3.8H91.12a3.8,3.8,0,0,0,3.8-3.8V11.39a3.8,3.8,0,0,0-3.8-3.8Z"/><path style="fill:#5280df;" d="M45.61,84.68A27.7,27.7,0,0,1,26,76.55h0a27.82,27.82,0,0,1,0-39.29L38.79,24.43a3.8,3.8,0,0,1,2.68-1.11h0a3.8,3.8,0,0,1,2.68,1.11L54.78,35.07a3.8,3.8,0,0,1,0,5.37L42,53.26a5.16,5.16,0,1,0,7.29,7.29L62.08,47.73a3.8,3.8,0,0,1,5.37,0L78.08,58.36a3.8,3.8,0,0,1,0,5.37L65.25,76.55A27.7,27.7,0,0,1,45.61,84.68ZM31.33,71.18a20.22,20.22,0,0,0,28.55,0L70,61l-5.26-5.26L54.62,65.92a12.75,12.75,0,1,1-18-18L46.73,37.75l-5.26-5.26L31.33,42.63a20.21,20.21,0,0,0,0,28.55Z"/><path style="fill:#5280df;" d="M52.1,41.55h0a3.8,3.8,0,0,1-2.68-1.11L38.79,29.8a3.8,3.8,0,0,1,0-5.37l5.49-5.49a3.8,3.8,0,0,1,5.37,0L60.27,29.58a3.8,3.8,0,0,1,0,5.37l-5.49,5.49A3.8,3.8,0,0,1,52.1,41.55ZM46.84,27.12l5.26,5.26.12-.12L47,27Z"/><path style="fill:#5280df;" d="M75.39,64.84a3.79,3.79,0,0,1-2.68-1.11L62.08,53.1a3.8,3.8,0,0,1,0-5.37l5.49-5.49a3.91,3.91,0,0,1,5.37,0L83.57,52.87a3.8,3.8,0,0,1,0,5.37l-5.49,5.49A3.79,3.79,0,0,1,75.39,64.84ZM70.13,50.41l5.26,5.26.12-.12-5.26-5.26Z"/></g></g></svg>