<svg xmlns="http://www.w3.org/2000/svg" viewBox="0 0 47.06 47.06">
   <g id="Layer_2" data-name="Layer 2">
      <g id="icons">
         <path style="fill:#5280df;" d="M41.81,44.05H21.5a1.74,1.74,0,0,1-1.75-1.74V40.56A5.22,5.22,0,0,0,19,38.09a19.85,19.85,0,0,1-4.68-3.87c-1.5-1.84-4.17-5.61-5.63-7.7a2.73,2.73,0,0,1,.43-3.64l1.34-1.15a4.52,4.52,0,0,1,6.12.17L17.66,23,15.78,9.35a4.38,4.38,0,0,1,3.4-4.84,4.21,4.21,0,0,1,5,3.15l.26,1V4.84A4.82,4.82,0,0,1,25.8,1.41,4.75,4.75,0,0,1,29.2,0,4.83,4.83,0,0,1,34,4.83V6.92a4.4,4.4,0,0,1,.67-.54,4.08,4.08,0,0,1,3.1-.57,4.46,4.46,0,0,1,3.46,4.74L41.09,12a3.6,3.6,0,0,1,3.15-.72,3.73,3.73,0,0,1,2.8,4c-.33,3.08-1,8.92-1.48,12.78-.19,1.59-.34,2.88-.43,3.59a22.65,22.65,0,0,1-.64,3.22,26.33,26.33,0,0,0-.94,7.37A1.74,1.74,0,0,1,41.81,44.05ZM23.24,40.56H40.11a28.55,28.55,0,0,1,1-6.46,21.06,21.06,0,0,0,.56-2.78c.08-.71.24-2,.43-3.6C42.56,23.87,43.25,18,43.58,15a.29.29,0,0,0-.15-.29.16.16,0,0,0-.17.1l0,.09-2.77,6.77a2,2,0,0,1-3.77-.88l1.08-10.55a1,1,0,0,0-.74-1,.59.59,0,0,0-.7.46l-2,8.76a1.9,1.9,0,0,1-2.06,1.48A1.92,1.92,0,0,1,30.52,18V4.83a1.33,1.33,0,0,0-1.33-1.34,1.22,1.22,0,0,0-.92.38,1.31,1.31,0,0,0-.39,1l.05,16.27a1.94,1.94,0,0,1-3.83.45l-3.35-13a.71.71,0,0,0-.84-.58.88.88,0,0,0-.67,1l2.41,17.46a1.59,1.59,0,0,1,.06.43l.36,2.54a1.75,1.75,0,1,1-3.46.48l-.26-1.86a27.48,27.48,0,0,1-4.23-3.54,1.06,1.06,0,0,0-1.42,0l-.8.69c1.31,1.87,3.75,5.31,5.09,7a16.4,16.4,0,0,0,3.89,3.16C22.68,36.3,23.24,39.52,23.24,40.56Zm4.23-19.91,0,.06S27.48,20.67,27.47,20.65Zm9.72-.22Zm-6.27-2.81a.19.19,0,0,1,0,.08Z"/>
         <path style="fill:#5280df;" d="M43.87,47.06a1.74,1.74,0,0,1-1.74-1.74v-.4a.87.87,0,0,0-.86-.87H22a.86.86,0,0,0-.86.87v.4a1.75,1.75,0,0,1-3.49,0v-.4A4.36,4.36,0,0,1,22,40.56H41.27a4.35,4.35,0,0,1,4.34,4.36v.4A1.74,1.74,0,0,1,43.87,47.06Z"/>
         <path style="fill:#5280df;opacity:0.6;" d="M5,30.46a1.77,1.77,0,0,1-1.42-.72A18.75,18.75,0,0,1,18.74,0a1.75,1.75,0,0,1,0,3.49A15.25,15.25,0,0,0,6.39,27.69,1.74,1.74,0,0,1,6,30.12,1.71,1.71,0,0,1,5,30.46Z"/>
         <path style="fill:#5280df;opacity:0.6;" d="M8.25,20.09l-.26,0a1.75,1.75,0,0,1-1.47-2,14.7,14.7,0,0,1,3.77-7.87,1.74,1.74,0,1,1,2.56,2.37,11.18,11.18,0,0,0-2.88,6A1.75,1.75,0,0,1,8.25,20.09Z"/>
      </g>
   </g>
</svg>