<svg xmlns="http://www.w3.org/2000/svg" viewBox="0 0 102.51 102.51"><title>paste</title><g id="Layer_2" data-name="Layer 2"><g id="icons"><path style="fill:#5280df;" d="M91.12,102.51H11.39A11.4,11.4,0,0,1,0,91.12V11.39A11.4,11.4,0,0,1,11.39,0H28.26a3.8,3.8,0,0,1,0,7.59H11.39a3.8,3.8,0,0,0-3.8,3.8V91.12a3.8,3.8,0,0,0,3.8,3.8H91.12a3.8,3.8,0,0,0,3.8-3.8V11.39a3.8,3.8,0,0,0-3.8-3.8H74.89a3.8,3.8,0,0,1,0-7.59H91.12a11.4,11.4,0,0,1,11.39,11.39V91.12A11.4,11.4,0,0,1,91.12,102.51Z"/><path style="fill:#5280df;" d="M51.26,85.16H23.79a3.8,3.8,0,0,1,0-7.59H51.26a3.8,3.8,0,1,1,0,7.59Z"/><path style="fill:#5280df;" d="M78.72,67.76H23.79a3.8,3.8,0,0,1,0-7.59H78.72a3.8,3.8,0,0,1,0,7.59Z"/><path style="fill:#5280df;" d="M78.72,53.14H23.79a3.8,3.8,0,0,1,0-7.59H78.72a3.8,3.8,0,0,1,0,7.59Z"/><path style="fill:#5280df;" d="M42.43,13.39C29.52,15.71,19.77,23,18.31,31.86a2,2,0,0,0,2,2.32H82.22a2,2,0,0,0,2-2.32C82.74,23,73,15.71,60.08,13.39c0,0,0,11.32-8.82,11.32S42.43,13.39,42.43,13.39Z"/><path style="fill:#5280df;" d="M82.22,38H20.29a5.8,5.8,0,0,1-5.73-6.74C16.29,20.79,27,12.31,41.76,9.66a3.8,3.8,0,0,1,4.47,3.72c0,.78.22,7.54,5,7.54,5,0,5-7.22,5-7.53a3.8,3.8,0,0,1,4.47-3.74c14.8,2.66,25.47,11.13,27.2,21.59A5.8,5.8,0,0,1,82.22,38Zm-59.6-7.59H79.89c-2-5.41-8.25-10-16.6-12.37-1.22,5-4.58,10.5-12,10.5S40.44,23,39.22,18C30.86,20.34,24.64,25,22.62,30.39Z"/><path style="fill:#5280df;" d="M51.26,25.24A12.62,12.62,0,1,1,63.88,12.62,12.63,12.63,0,0,1,51.26,25.24Zm0-17.65a5,5,0,1,0,5,5A5,5,0,0,0,51.26,7.59Z"/></g></g></svg>