<svg xmlns="http://www.w3.org/2000/svg" viewBox="0 0 102.51 102.51"><title>properties-ann</title><g id="Layer_2" data-name="Layer 2"><g id="icons"><path style="fill:#8d9cb7;" d="M89.22,0H13.29A13.3,13.3,0,0,0,0,13.29V89.22a13.3,13.3,0,0,0,13.29,13.29H89.22a13.3,13.3,0,0,0,13.29-13.29V13.29A13.3,13.3,0,0,0,89.22,0Zm5.7,89.22a5.7,5.7,0,0,1-5.7,5.69H13.29a5.7,5.7,0,0,1-5.7-5.69V13.29a5.7,5.7,0,0,1,5.7-5.7H89.22a5.7,5.7,0,0,1,5.7,5.7ZM55.05,50.62V21.86a3.8,3.8,0,1,0-7.59,0V50.62a11.25,11.25,0,0,0,0,21.2v8.83a3.8,3.8,0,0,0,7.59,0V71.82a11.25,11.25,0,0,0,0-21.2ZM51.26,64.9a3.68,3.68,0,1,1,3.68-3.68A3.68,3.68,0,0,1,51.26,64.9Zm30.4-31.08v-12a3.8,3.8,0,1,0-7.59,0v12a11.25,11.25,0,0,0,0,21.2V80.65a3.8,3.8,0,0,0,7.59,0V55a11.25,11.25,0,0,0,0-21.2ZM77.86,48.1a3.68,3.68,0,1,1,3.68-3.68A3.68,3.68,0,0,1,77.86,48.1ZM28.45,22.89v-1a3.8,3.8,0,1,0-7.59,0v1a11.25,11.25,0,0,0,0,21.2V80.65a3.8,3.8,0,0,0,7.59,0V44.09a11.25,11.25,0,0,0,0-21.2Zm-3.8,14.28a3.68,3.68,0,1,1,3.68-3.68A3.68,3.68,0,0,1,24.66,37.17Z"/></g></g></svg>