<svg xmlns="http://www.w3.org/2000/svg" viewBox="0 0 102.51 102.51"><title>redaction-realize</title><g id="Layer_2" data-name="Layer 2"><g id="icons"><path style="fill:#8d9cb7;" d="M32.91,102.51H9.8A9.81,9.81,0,0,1,0,92.72V9.8A9.81,9.81,0,0,1,9.8,0H67.4a9.81,9.81,0,0,1,9.8,9.8V34.65a3.8,3.8,0,0,1-7.59,0V9.8a2.21,2.21,0,0,0-2.2-2.2H9.8a2.21,2.21,0,0,0-2.2,2.2V92.72a2.21,2.21,0,0,0,2.2,2.2H32.91a3.8,3.8,0,1,1,0,7.59Z"/><path style="fill:#8d9cb7;" d="M59.32,23.1H17.88a3.8,3.8,0,0,1,0-7.59H59.32a3.8,3.8,0,0,1,0,7.59Z"/><path style="fill:#8d9cb7;" d="M59.32,39.08H17.88a3.8,3.8,0,0,1,0-7.59H59.32a3.8,3.8,0,1,1,0,7.59Z"/><path style="fill:#8d9cb7;" d="M33.85,87h-16a3.8,3.8,0,0,1,0-7.59h16a3.8,3.8,0,0,1,0,7.59Z"/><path style="fill:#8d9cb7;" d="M59.32,55.05H46.83a3.8,3.8,0,0,1,0-7.59h12.5a3.8,3.8,0,0,1,0,7.59Z"/><path style="fill:#8d9cb7;" d="M33.85,71h-16a3.8,3.8,0,0,1-3.8-3.8v-16a3.8,3.8,0,0,1,3.8-3.8h16a3.8,3.8,0,0,1,3.8,3.8v16A3.8,3.8,0,0,1,33.85,71ZM21.67,63.44h8.38V55.05H21.67Z"/><path style="fill:#8d9cb7;" d="M65.25,102.51a8.92,8.92,0,0,1-6.35-2.63l-8.82-8.82a9,9,0,0,1,0-12.7l7.73-7.73A3.8,3.8,0,1,1,63.19,76l-7.73,7.73a1.39,1.39,0,0,0,0,2l8.81,8.81a1.39,1.39,0,0,0,2,0L74,86.79a3.8,3.8,0,0,1,5.37,5.37L71.6,99.88A8.92,8.92,0,0,1,65.25,102.51Z"/><path style="fill:#8d9cb7;" d="M89.47,80.44A3.8,3.8,0,0,1,86.78,74l7.73-7.73a1.39,1.39,0,0,0,0-2L85.7,55.46a1.39,1.39,0,0,0-2,0L76,63.19a3.8,3.8,0,1,1-5.37-5.37l7.73-7.73a9,9,0,0,1,12.7,0l8.82,8.82a9,9,0,0,1,0,12.7l-7.73,7.73A3.79,3.79,0,0,1,89.47,80.44Z"/><path style="fill:#8d9cb7;" d="M68.77,85a3.8,3.8,0,0,1-2.68-6.48L78.52,66.08a3.8,3.8,0,0,1,5.37,5.37L71.45,83.89A3.79,3.79,0,0,1,68.77,85Z"/></g></g></svg>