<svg xmlns="http://www.w3.org/2000/svg" viewBox="0 0 102.51 102.51"><title>redaction-restore</title><g id="Layer_2" data-name="Layer 2"><g id="icons"><path style="fill:#8d9cb7;" d="M86,38.76v6h5.7a7,7,0,0,0,7-7V10.8a7,7,0,0,0-7-7H49.08a7,7,0,0,0-7,7v5.79H63.85A22.17,22.17,0,0,1,86,38.76Z"/><path style="fill:#8d9cb7;" d="M91.72,48.53H86a3.8,3.8,0,0,1-3.8-3.8v-6A18.39,18.39,0,0,0,63.85,20.39H42.08a3.8,3.8,0,0,1-3.8-3.8V10.8A10.81,10.81,0,0,1,49.08,0H91.72a10.81,10.81,0,0,1,10.8,10.8V37.74A10.81,10.81,0,0,1,91.72,48.53Zm-1.9-7.59h1.9a3.21,3.21,0,0,0,3.2-3.2V10.8a3.21,3.21,0,0,0-3.2-3.2H49.08a3.21,3.21,0,0,0-3.2,3.2v2h18a26,26,0,0,1,26,26Z"/><path style="fill:#8d9cb7;" d="M63.71,102.51H10.8A10.81,10.81,0,0,1,0,91.72V38.8A10.81,10.81,0,0,1,10.8,28H63.71a10.81,10.81,0,0,1,10.8,10.8V91.72A10.81,10.81,0,0,1,63.71,102.51ZM10.8,35.59a3.21,3.21,0,0,0-3.2,3.2V91.72a3.21,3.21,0,0,0,3.2,3.2H63.71a3.21,3.21,0,0,0,3.2-3.2V38.8a3.21,3.21,0,0,0-3.2-3.2Z"/><path style="fill:#8d9cb7;" d="M56.62,48.53H17.89a3.8,3.8,0,1,1,0-7.59H56.62a3.8,3.8,0,0,1,0,7.59Z"/><path style="fill:#8d9cb7;" d="M37.26,89.57H17.89a3.8,3.8,0,1,1,0-7.59H37.26a3.8,3.8,0,1,1,0,7.59Z"/><path style="fill:#8d9cb7;" d="M56.62,75.89H17.89a3.8,3.8,0,1,1,0-7.59H56.62a3.8,3.8,0,0,1,0,7.59Z"/><path style="fill:#8d9cb7;" d="M56.62,62.21H17.89a3.8,3.8,0,1,1,0-7.59H56.62a3.8,3.8,0,0,1,0,7.59Z"/></g></g></svg>