<svg xmlns="http://www.w3.org/2000/svg" viewBox="0 0 102.46 102.6"><title>rubber-ann</title><g id="Layer_2" data-name="Layer 2"><g id="icons"><path style="fill:none;stroke:#5280df;stroke-linecap:round;stroke-linejoin:round;stroke-width:7.59px;" d="M98.66,31.87V46.43c0,5.89-1,9.88-6,13L43.42,91.1a11.83,11.83,0,0,1-14.71-1.61l-21-21c-4.28-4.28-3.88-7.3-3.88-13.36V44.58"/><path style="fill:none;stroke:#5280df;stroke-linecap:round;stroke-linejoin:round;stroke-width:7.59px;" d="M98.66,37.73V52.28c0,5.89-1.5,10.31-6.47,13.47L43.42,97a11.83,11.83,0,0,1-14.71-1.61L8.13,74.81C3.85,70.53,3.81,67.07,3.81,61V50.44"/><path style="fill:none;stroke:#5280df;stroke-linecap:round;stroke-linejoin:round;stroke-width:7.59px;" d="M61.81,5.34h0a11,11,0,0,1,13,1.35L96.06,26.28A8.08,8.08,0,0,1,94.92,39L42.58,72.36A13.1,13.1,0,0,1,26.3,70.58L6.21,50.49A8.18,8.18,0,0,1,7.79,37.67L36.5,20.49"/><line style="fill:#fff;stroke:#5280df;stroke-linejoin:round;stroke-width:15.19px;" x1="34.46" y1="74.63" x2="34.46" y2="91.99"/><path style="fill:none;stroke:#5280df;stroke-miterlimit:10;stroke-width:7.59px;" d="M61.15,29.45v7.07A9.48,9.48,0,0,1,51.67,46h-.79a9.48,9.48,0,0,1-9.48-9.48V29.45"/><circle style="fill:none;stroke:#5280df;stroke-miterlimit:10;stroke-width:7.59px;" cx="51.27" cy="18.59" r="13.83"/></g></g></svg>