<svg xmlns="http://www.w3.org/2000/svg" viewBox="0 0 102.51 102.51"><title>run-ann</title><g id="Layer_2" data-name="Layer 2"><g id="icons"><path style="fill:#8d9cb7;" d="M75.38,48.08,38.26,23.72a3.8,3.8,0,0,0-5.88,3.17V75.62a3.8,3.8,0,0,0,5.88,3.17L75.38,54.43a3.8,3.8,0,0,0,0-6.35ZM91.13,0H11.39A11.4,11.4,0,0,0,0,11.39V91.13a11.4,11.4,0,0,0,11.39,11.39H91.13a11.4,11.4,0,0,0,11.39-11.39V11.39A11.4,11.4,0,0,0,91.13,0Zm3.79,91.13a3.8,3.8,0,0,1-3.79,3.79H11.39a3.8,3.8,0,0,1-3.79-3.79V11.39a3.8,3.8,0,0,1,3.79-3.79H91.13a3.8,3.8,0,0,1,3.79,3.79Z"/></g></g></svg>