<svg xmlns="http://www.w3.org/2000/svg" viewBox="0 0 102.51 102.51"><title>select-all-ann</title><g id="Layer_2" data-name="Layer 2"><g id="icons"><path style="fill:#8d9cb7;" d="M22.46,39.55a3.8,3.8,0,0,0,0-7.59H11.39a3.8,3.8,0,0,1-3.79-3.79V11.39a3.8,3.8,0,0,1,3.79-3.79H32A3.8,3.8,0,0,0,32,0H11.39A11.4,11.4,0,0,0,0,11.39V28.16A11.4,11.4,0,0,0,11.39,39.55ZM91.13,0H66.76a3.8,3.8,0,0,0,0,7.59H91.13a3.8,3.8,0,0,1,3.79,3.79V28.16A3.8,3.8,0,0,1,91.13,32H80a3.8,3.8,0,1,0,0,7.59H91.13a11.4,11.4,0,0,0,11.39-11.39V11.39A11.4,11.4,0,0,0,91.13,0Zm-6.5,48-23.12-8V11.84a11.84,11.84,0,0,0-23.69,0V61.61L35.3,55a13,13,0,0,0-18.88-6.47L9,53.06a3.8,3.8,0,0,0-1.5,4.8l19,42.41a3.8,3.8,0,0,0,3.47,2.25H80.13a3.8,3.8,0,0,0,3.6-2.6L94.41,67.75A15.72,15.72,0,0,0,84.63,48ZM87.2,65.36,77.39,94.92h-45l-16.6-37.1L20.36,55a5.4,5.4,0,0,1,7.85,2.69l5.93,15.51a5.83,5.83,0,0,0,11.28-2.08V11.84a4.25,4.25,0,0,1,8.5,0V42.76a3.8,3.8,0,0,0,2.56,3.59l25.69,8.83A8.1,8.1,0,0,1,87.2,65.36Z"/></g></g></svg>