<svg xmlns="http://www.w3.org/2000/svg" viewBox="0 0 47.04 47.04">
   <g id="Layer_2" data-name="Layer 2">
      <g id="icons">
         <g style="opacity:0.6;">
            <path style="fill:#5280df;" d="M40.94,47H6.1A6.11,6.11,0,0,1,0,40.94V6.1A6.11,6.11,0,0,1,6.1,0H40.94A6.11,6.11,0,0,1,47,6.1V40.94A6.11,6.11,0,0,1,40.94,47ZM6.1,3.48A2.63,2.63,0,0,0,3.48,6.1V40.94A2.62,2.62,0,0,0,6.1,43.55H40.94a2.61,2.61,0,0,0,2.61-2.61V6.1a2.62,2.62,0,0,0-2.61-2.62Z"/>
         </g>
         <path style="fill:#5280df;" d="M31.55,21.46A1.71,1.71,0,0,1,30.38,21l-6.86-6.18L16.65,21a1.74,1.74,0,1,1-2.33-2.58l8-7.24a1.73,1.73,0,0,1,2.33,0l8,7.24a1.74,1.74,0,0,1,.12,2.46A1.72,1.72,0,0,1,31.55,21.46Z"/>
         <path style="fill:#5280df;" d="M23.52,36.29a1.74,1.74,0,0,1-1.74-1.74V12.49a1.74,1.74,0,1,1,3.48,0V34.55A1.74,1.74,0,0,1,23.52,36.29Z"/>
      </g>
   </g>
</svg>