<svg xmlns="http://www.w3.org/2000/svg" viewBox="0 0 102.51 102.51"><title>stamp-ann</title><g id="Layer_2" data-name="Layer 2"><g id="icons"><path style="fill:none;stroke:#5280df;stroke-linecap:round;stroke-linejoin:round;stroke-width:7.59px;" d="M91.36,51.26a7.36,7.36,0,0,1,7.36-7.36V31.13a7.36,7.36,0,1,1,0-14.71V3.8H86.1a7.36,7.36,0,1,1-14.71,0H58.61a7.36,7.36,0,1,1-14.71,0H31.13a7.36,7.36,0,1,1-14.71,0H3.8V16.41a7.36,7.36,0,1,1,0,14.71V43.9a7.36,7.36,0,1,1,0,14.71V71.39a7.36,7.36,0,1,1,0,14.71V98.72H16.41a7.36,7.36,0,1,1,14.71,0H43.9a7.36,7.36,0,1,1,14.71,0H71.39a7.36,7.36,0,1,1,14.71,0H98.72V86.1a7.36,7.36,0,1,1,0-14.71V58.61A7.36,7.36,0,0,1,91.36,51.26Z"/><path style="fill:none;stroke:#5280df;stroke-linecap:round;stroke-linejoin:round;stroke-width:7.59px;" d="M59.93,37c-.54-.49-4.55-4.18-10-4.18-4.93,0-9.11,3.31-9.11,7.27,0,4.83,4,7,10.52,9.22C57.6,51.5,61.78,53.73,61.78,60c0,4.07-3.25,9.6-11.72,9.6a17.78,17.78,0,0,1-9.33-2.77"/></g></g></svg>