<svg xmlns="http://www.w3.org/2000/svg" viewBox="0 0 102.63 102.51"><title>text-redact-ann</title><g id="Layer_2" data-name="Layer 2"><g id="icons"><polyline style="fill:none;stroke:#5280df;stroke-linecap:round;stroke-linejoin:round;stroke-width:7.59px;" points="57.59 3.8 3.8 3.8 3.8 98.72 81.95 98.72 81.95 74.99"/><rect style="fill:#5280df;stroke:#5280df;stroke-linecap:round;stroke-linejoin:round;stroke-width:7.59px;" x="3.8" y="62.33" width="34.8" height="18.35"/><path style="fill:none;stroke:#5280df;stroke-linecap:round;stroke-linejoin:round;stroke-width:7.59px;" d="M98.13,18,84.69,4.58a2.37,2.37,0,0,0-3.36,0L47,37.14a2.37,2.37,0,0,0,0,3.35l.53.53a1.14,1.14,0,0,1,.26,1.26L42.29,56.54a1.73,1.73,0,0,0,.43,1.72,2.09,2.09,0,0,0,1.24.45,1.73,1.73,0,0,0,.76-.13l14-5.42a1.2,1.2,0,0,1,1.26.26l.53.53a2.34,2.34,0,0,0,3.35,0l34.3-32.55A2.37,2.37,0,0,0,98.13,18Z"/><line style="fill:none;stroke:#5280df;stroke-linecap:round;stroke-linejoin:round;stroke-width:7.59px;" x1="86.39" y1="31.45" x2="71.43" y2="16.5"/></g></g></svg>