<svg xmlns="http://www.w3.org/2000/svg" viewBox="0 0 102.47 102.47"><title>text-ann_1</title><g id="Layer_2" data-name="Layer 2"><g id="icons"><polygon style="fill:none;stroke:#5280df;stroke-linejoin:round;stroke-width:7.59px;" points="67.21 58.78 43.69 35.26 66.13 18.45 84.03 36.35 67.21 58.78"/><path style="fill:none;stroke:#5280df;stroke-linejoin:round;stroke-width:7.59px;" d="M76.77,5.33a5.22,5.22,0,0,0-8.84,2.79L66.13,18.44,84,36.35l10.32-1.81a5.22,5.22,0,0,0,2.79-8.84Z"/><path style="fill:none;stroke:#5280df;stroke-linejoin:round;stroke-width:7.59px;" d="M60.6,81.3a4.06,4.06,0,0,0,6.94-2.94l-.32-19.58L43.69,35.26l-19.58-.32a4.06,4.06,0,0,0-2.94,6.94Z"/><polygon style="fill:none;stroke:#5280df;stroke-linejoin:round;stroke-width:7.59px;" points="46.68 67.38 3.8 98.68 35.1 55.8 46.68 67.38"/></g></g></svg>