<svg xmlns="http://www.w3.org/2000/svg" viewBox="0 0 102.51 102.51"><title>unlock-object</title><g id="Layer_2" data-name="Layer 2"><g id="icons"><path style="fill:none;stroke:#5280df;stroke-linecap:round;stroke-linejoin:round;stroke-width:7.59px;" d="M69.67,41.46H32.84a7.89,7.89,0,0,0-7.9,7.89V75.66a7.9,7.9,0,0,0,7.9,7.89H69.67a7.9,7.9,0,0,0,7.9-7.89V49.35A7.89,7.89,0,0,0,69.67,41.46Z"/><path style="fill:#5280df;" d="M69.67,44.6a3.8,3.8,0,0,1-3.8-3.8v-1c0-10.51-5.6-17-14.62-17a3.8,3.8,0,0,1,0-7.59c13.28,0,22.21,9.9,22.21,24.63v1A3.8,3.8,0,0,1,69.67,44.6Z"/><circle style="fill:#5280df;" cx="51.26" cy="58.71" r="6.35"/><path style="fill:#5280df;" d="M51.26,74.27a3.8,3.8,0,0,1-3.8-3.8V58.71a3.8,3.8,0,0,1,7.59,0V70.47A3.8,3.8,0,0,1,51.26,74.27Z"/><path style="fill:#5280df;" d="M91.12,102.51H11.39A11.4,11.4,0,0,1,0,91.12V11.39A11.4,11.4,0,0,1,11.39,0H91.12a11.4,11.4,0,0,1,11.39,11.39V91.12A11.4,11.4,0,0,1,91.12,102.51ZM11.39,7.59a3.8,3.8,0,0,0-3.79,3.79V91.12a3.8,3.8,0,0,0,3.8,3.8H91.12a3.8,3.8,0,0,0,3.8-3.8V11.39a3.8,3.8,0,0,0-3.8-3.8Z"/></g></g></svg>